<?xml version="1.0" encoding="UTF-8"?>
<svg xmlns="http://www.w3.org/2000/svg" xmlns:xlink="http://www.w3.org/1999/xlink" viewBox="0 0 260.57 463.43">
  <defs>
    <style>
      .cls-1 {
        fill: #fef4d7;
      }

      .cls-1, .cls-2, .cls-3, .cls-4, .cls-5, .cls-6, .cls-7, .cls-8, .cls-9, .cls-10, .cls-11, .cls-12, .cls-13, .cls-14, .cls-15, .cls-16, .cls-17, .cls-18, .cls-19, .cls-20, .cls-21, .cls-22, .cls-23, .cls-24, .cls-25, .cls-26, .cls-27 {
        stroke-width: 0px;
      }

      .cls-1, .cls-28 {
        mix-blend-mode: multiply;
      }

      .cls-29 {
        clip-path: url(#clippath);
      }

      .cls-2 {
        fill: url(#_名称未設定グラデーション_19);
      }

      .cls-3 {
        fill: url(#radial-gradient);
      }

      .cls-30 {
        fill: none;
      }

      .cls-30, .cls-31 {
        stroke: #dff1fa;
        stroke-width: 5.67px;
      }

      .cls-4, .cls-31, .cls-32 {
        fill: #ebf6fb;
      }

      .cls-4, .cls-32 {
        opacity: .4;
      }

      .cls-31 {
        stroke-linecap: round;
        stroke-linejoin: round;
      }

      .cls-5 {
        fill: url(#radial-gradient-2);
      }

      .cls-6 {
        fill: url(#radial-gradient-3);
      }

      .cls-7 {
        fill: url(#radial-gradient-4);
      }

      .cls-8, .cls-9, .cls-17 {
        fill: #6c2c28;
      }

      .cls-8, .cls-28 {
        opacity: .5;
      }

      .cls-33 {
        isolation: isolate;
      }

      .cls-9 {
        opacity: .61;
      }

      .cls-10 {
        fill: #f7ecca;
      }

      .cls-11 {
        fill: #380508;
      }

      .cls-12 {
        fill: #dff1fa;
      }

      .cls-13 {
        fill: #cf9965;
      }

      .cls-14 {
        fill: #b81c2b;
      }

      .cls-15 {
        fill: #946f46;
      }

      .cls-16 {
        fill: #fdf5e0;
      }

      .cls-18 {
        fill: #f2bb5d;
      }

      .cls-19 {
        fill: #f2b956;
      }

      .cls-20 {
        fill: #eeaa2f;
      }

      .cls-21 {
        fill: #fff799;
      }

      .cls-22 {
        fill: #fffbc7;
      }

      .cls-23 {
        fill: #ffe893;
      }

      .cls-24 {
        fill: #f0af3e;
      }

      .cls-25 {
        fill: #f0b143;
      }

      .cls-26 {
        fill: #f1b54e;
      }

      .cls-27 {
        fill: #f6cc85;
      }
    </style>
    <clipPath id="clippath">
      <path class="cls-4" d="m206.19,174.34c-24.44,6.58-33.4,18.54-36.53,24.81-4.01-23.98-25.13-42.3-39.38-42.3s-35.38,18.32-39.38,42.3c-3.12-6.27-12.09-18.23-36.53-24.81-34.15-9.19-64.36,17.07-45.97,19.7,12.32,1.76,20.1,9.33,23.9,14.13,1.9,21.41,5.67,53.88,11.96,68.6,4.3,10.05,59.62,73.69,65.09,83.61,2.41,4.36,1.29,68.53.57,70.95-.63,2.12,10.33,3.86,20.36,3.62,10.03.24,20.99-1.51,20.36-3.62-.72-2.42-1.84-66.59.57-70.95,5.47-9.92,60.8-73.56,65.09-83.61,6.29-14.73,10.06-47.19,11.96-68.6,3.8-4.8,11.58-12.37,23.9-14.13,18.39-2.63-11.82-28.9-45.97-19.7Z"/>
    </clipPath>
    <radialGradient id="radial-gradient" cx="-4.71" cy="1202.63" fx="-4.71" fy="1202.63" r="26.64" gradientTransform="translate(-426.85 -907.09) rotate(-24.01)" gradientUnits="userSpaceOnUse">
      <stop offset="0" stop-color="#ffe893"/>
      <stop offset="1" stop-color="#fffbc7"/>
    </radialGradient>
    <radialGradient id="radial-gradient-2" cx="190.97" cy="475.15" fx="190.97" fy="475.15" r="26.63" gradientTransform="translate(-150.25 -256.79) rotate(-7.72)" xlink:href="#radial-gradient"/>
    <radialGradient id="radial-gradient-3" cx="-2822.01" cy="-52.28" fx="-2822.01" fy="-52.28" r="26.64" gradientTransform="translate(-2396.81 -907.09) rotate(-155.99) scale(1 -1)" xlink:href="#radial-gradient"/>
    <radialGradient id="radial-gradient-4" cx="-2865.05" cy="60.69" fx="-2865.05" fy="60.69" r="26.63" gradientTransform="translate(-2673.4 -256.79) rotate(-172.28) scale(1 -1)" xlink:href="#radial-gradient"/>
    <radialGradient id="_名称未設定グラデーション_19" data-name="名称未設定グラデーション 19" cx="-70.62" cy="-666.95" fx="-70.62" fy="-666.95" r="45.5" gradientTransform="translate(-19.99 706.03) rotate(20)" gradientUnits="userSpaceOnUse">
      <stop offset=".03" stop-color="#ef857d"/>
      <stop offset=".07" stop-color="#ed746d"/>
      <stop offset=".12" stop-color="#eb635d"/>
      <stop offset=".17" stop-color="#ea5853"/>
      <stop offset=".23" stop-color="#ea5550"/>
      <stop offset=".26" stop-color="#e6504d"/>
      <stop offset=".42" stop-color="#d53742"/>
      <stop offset=".6" stop-color="#c9253a"/>
      <stop offset=".79" stop-color="#c21a35"/>
      <stop offset="1" stop-color="#c01734"/>
    </radialGradient>
  </defs>
  <g class="cls-33">
    <g id="_レイヤー_2" data-name="レイヤー 2">
      <g id="_イラスト" data-name="イラスト">
        <g>
          <g>
            <path class="cls-13" d="m205.72,176.8l-4.89-4.07c.83-4.12,1.28-8.47,1.28-13.09,0-39.8-32.26-72.06-72.06-72.06s-72.06,32.26-72.06,72.06c0,6.15.77,11.86,2.23,17.13l-.58.03s-6.86-3.92-4.9,3.92c1.96,7.84-.98,1.96,1.96,7.84l2.94,5.88s-1.96,5.88.98,7.84c2.94,1.96.98.98,6.86,4.9,5.88,3.92,7.84,4.9,11.77,6.86,3.92,1.96-.98-.98,3.92,1.96,4.9,2.94,7.84,4.9,10.79,5.88q2.94.98,9.81,0c6.86-.98,22.55,0,27.45,1.96,4.9,1.96,22.55-1.96,26.47-2.94,3.92-.98,4.9-1.96,11.77-1.96s10.55,0,12.75-1.96c8.82-7.84,10.78-11.76,10.78-11.76,0,0,0-1.96,1.96-4.9.41-.62.56-.84.58-.87-.09.14-1.56,2.34,1.38-2.07,7.8-2.89,9.29-8.39,9.29-11.33s-.47-9.26-.47-9.26Z"/>
            <g class="cls-28">
              <path class="cls-1" d="m77.03,168.04c1.25,1.31,2.86,2.58,4.02,3.17,1.16.59,2.56.06,3.64-.06,1.08-.13,2.16-.26,2.16-.26l2.75-1.42,3.28-.02s2.41,1.9,3.53,2.14c1.12.23,5.4-.64,6.47-.77,1.08-.13,4.04.25,4.04.25l-6.41-1.79s-1.93-.87-3.81-1.37c-1.88-.51-1.93-.87-4.93-1.61-3.01-.74-4.76-.17-6.92.09-2.16.26-3.94-2.45-5.27-4.48-1.33-2.03-6.72-5.54-5.59-4.08,2.58,3.34,1.78,8.91,3.03,10.22Z"/>
              <path class="cls-1" d="m123.93,178.28c-2.98.18-9.33,2.06-12.62,5.25l16.24-2.98s3.31,5.27,4.8,5.18c1.49-.09,7.72-3.96,7.72-3.96l4.66-5.26,3.35-2.2,6.33-2.38s4.49.22,4.4-1.26c-.09-1.49-13.3,3.07-13.3,3.07,0,0-.97.05-4.35,1.75-2.75,1.38,1.38,3.52-3.68,4.68-2.94.68-10.58-2.08-13.55-1.9Z"/>
              <path class="cls-1" d="m108.15,133.52c1.61,0,4.04.81,5.25.4,1.21-.4,4.04-1.62,5.65-1.62s2.02-.4,3.63-.4,6.05-1.21,6.05-1.21c0,0-9.28-.81-12.51-.81s-7.26.81-10.49-1.21c-3.23-2.02-3.23,1.61-8.48-.4l6.46,4.04s2.82,1.21,4.44,1.21Z"/>
              <path class="cls-1" d="m181.39,151.64c-4.47,1.49-8.99,3.61-11.97,3.11-2.98-.5-1.99,1.49-3.98.99-1.99-.5-1.86,8.17-.99,6.96,4.97-6.96,14.96-8.59,14.96-8.59,0,0,15.78-3.5,6.41-13.27,0,0,.04,9.31-4.43,10.8Z"/>
              <path class="cls-1" d="m142.38,138.75c-2.88-.93-2.18,1.19-4.08.41-1.89-.78-2.21,8.21-1.99,6.74.22-1.48,11.76-6.77,11.76-6.77,0,0,8.45-1.99,12.56-11.75,0,0-5.65,7.71-10.29,8.53-4.64.83-5.07,3.78-7.95,2.85Z"/>
              <path class="cls-1" d="m122.32,163.52c-1.62-.93-4.28.49-4.28.49,0,0,.81,3.48,2.57,3.72,1.76.24,3.67-.2,5.71-1.33,2.05-1.13,9.37-1.9,9.37-1.9,0,0-3.18-3.05-3.94-2.07-.76.98-2.71.98-4.57,1.87-1.86.88-3.24.15-4.86-.78Z"/>
              <path class="cls-1" d="m96.21,182.66c-1.86.88-2.99-.72-4.86-.78-2.43-.08-7.37-5.02-7.37-5.02,0,0,3.9,9,5.66,9.24,1.76.24,4.25-3.15,5.71-1.33,1.98,2.47,4.45,0,4.45,0,0,0,.7.07,1.55.2-1.86-1.25-4.08-2.81-5.14-2.31Z"/>
              <path class="cls-1" d="m104.26,186.25c.48-.62-1.44-1.05-2.9-1.28,1.39.94,2.58,1.7,2.9,1.28Z"/>
              <path class="cls-1" d="m172.12,110.83c.12-.16.22-.33.28-.51.16-.47-.02-.1-.28.51Z"/>
              <path class="cls-1" d="m163.71,119.08c1.74-.36,3.38-1.42,4.93-3.18,1.55-1.75,2.51-2.73,2.51-2.73,0,0,.58-1.44.97-2.34-.67.89-2.16,1.56-3.39,2.79-1.45,1.46-3.56,3.53-5.4,3.2-1.84-.33-3.77,2.21-3.77,2.21,0,0,2.4.41,4.14.04Z"/>
              <path class="cls-1" d="m167.43,146.32c1.93-1.32,3.1-2.03,3.1-2.03,0,0,.92-1.25,1.52-2.03-.86.7-2.48.98-3.97,1.88-1.76,1.06-4.31,2.55-6.02,1.78-1.7-.77-4.2,1.22-4.2,1.22,0,0,2.23.98,4.01,1.06,1.78.07,3.63-.55,5.56-1.87Z"/>
              <path class="cls-1" d="m145.57,96.13s.5,5.47-2.48,7.45c-2.98,1.99-3.98,3.48-5.47,3.97-1.49.5-4.47,3.48-4.47,3.48l16.89-3.98s.5-5.96-4.47-10.93Z"/>
              <g>
                <path class="cls-1" d="m147.6,190.61c-2.46,1.14-4.29.19-6.43-1-2.15-1.2-5.67.64-5.67.64,0,0,1.07,4.47,3.41,4.79,2.33.31,4.85-.26,7.56-1.71,2.71-1.45,4.35-2.21,4.35-2.21,0,0,1.37-1.48,2.26-2.41-1.23.79-3.39.95-5.47,1.91Z"/>
                <path class="cls-1" d="m188.52,166.48l-6.25,5.34s-2.21,1.38-4.03,2.96c-1.81,1.58-2.21,1.38-5.04,3.95-2.83,2.57-3.45,4.76-4.67,7.15-1.22,2.39-5.22,2.35-8.22,2.32-3-.03-10.3,3.07-8.03,2.92,5.2-.35,10.36,4.3,12.56,3.92,2.2-.38,4.61-1.16,6.02-1.94,1.41-.79,1.82-2.58,2.44-3.78.61-1.19,1.22-2.39,1.22-2.39l.44-3.8,2.23-3.38s3.61-1.16,4.62-2.15c1.01-.99,5.03-7.99,11.99-4.02,1.16.67-5.28-7.12-5.28-7.12Z"/>
              </g>
              <path class="cls-1" d="m199.73,173c-.99,1.99-2.98,7.45-6.46,10.44-3.48,2.98-2.98,6.46-7.45,6.96-4.47.49-4.47-1.49-9.94,0-5.47,1.49-3.48,1.99-4.47,4.97-.99,2.98-6.96,6.46-12.42,6.96-5.47.5-4.97-.99-7.95-1.99-2.98-.99-4.47,2.48-8.94.99-3.42-1.14-5.45.86-10.93,2.48.78-.07-2.28,4.86,1.49,3.48-4.38,2.4-13.91,1.49-13.91,1.49,0,0-4.47-1.49-6.46-2.48-.93-.46.96-1.36,2.78-2.29l1.19.3-1.08-.36c2.04-1.04,3.91-2.1,1.57-2.62-4.47-.99-11.43-1.99-14.91-2.49-1.27-.18-2.35-.3-3.32-.44l-4.63-1.54s-.5-1.49-2.48-2.98c-1.99-1.49-3.98,0-6.96,0s-4.47.5-6.46-.5c-1.99-.99-3.48-1.99-5.47-4.47-1.99-2.48-9.44-13.41-9.44-13.41.5,5.46,3.48,10.43,3.48,10.43l1.49,5.47,3.48,2.48s.5,3.48,3.98,3.97c3.48.5,4.47-.99,6.96-.99s2.48,0,3.97.99c.79.53,4.09,1.05,7.02,1.43.22.97,1.18,3.44,5.4,6.52,5.46,3.98,4.97,3.98,7.95,4.47,2.98.5,3.48.99,5.96,1.49,2.48.5,5.46-.5,6.96,0,1.49.5,2.98,0,4.47.5,1.49.5,5.47-1.99,6.96-1.99s14.08-3.73,16.22-4.42c2.17.63,4.44,1.24,5.64.94,1.99-.5,6.96,2.48,9.44,1.49,2.48-.99,8.45-7.45,8.45-7.45l6.46,1.49s1.63-9.73,3.98-8.45c5.47,2.98,23.35-16.89,17.39-11.43-1.16,1.06.99-9.44.99-9.44Z"/>
              <path class="cls-1" d="m190.11,122.48c-6.98-12.61-19.05-19.59-12.08-13.42,0,0,15.03,14.49,1.38,15.84-1.78.18-3.48,2.98-3.48,2.98,0,0-6.07,1.46-7.56,3.45-1.49,1.99,6.17-.27,6.17-.27l4.83-3.49,9.24.52s-1.55,4.91,3.75,9.38c2.76,2.32,4.59,8.47,5.82,17.44.16,1.2-4.71,3.01-4.57,4.14.16,1.32,4.56,3.85,4.69,5,.54,4.69,1.74,10.67,1.88,9.69,4.38-30.65-8.02-47.55-10.08-51.27Z"/>
            </g>
          </g>
          <path class="cls-12" d="m207.98,439.73c0,13.09-34.79,23.7-77.7,23.7s-77.7-10.61-77.7-23.7,34.79-29.37,77.7-29.37,77.7,16.28,77.7,29.37Z"/>
          <path class="cls-31" d="m206.19,174.34c-24.44,6.58-33.4,18.54-36.53,24.81-4.01-23.98-25.13-42.3-39.38-42.3s-35.38,18.32-39.38,42.3c-3.12-6.27-12.09-18.23-36.53-24.81-34.15-9.19-64.36,17.07-45.97,19.7,12.32,1.76,20.1,9.33,23.9,14.13,1.9,21.41,5.67,53.88,11.96,68.6,4.3,10.05,59.62,73.69,65.09,83.61,2.41,4.36,1.29,68.53.57,70.95-.63,2.12,10.33,3.86,20.36,3.62,10.03.24,20.99-1.51,20.36-3.62-.72-2.42-1.84-66.59.57-70.95,5.47-9.92,60.8-73.56,65.09-83.61,6.29-14.73,10.06-47.19,11.96-68.6,3.8-4.8,11.58-12.37,23.9-14.13,18.39-2.63-11.82-28.9-45.97-19.7Z"/>
          <g>
            <path class="cls-32" d="m206.19,174.34c-24.44,6.58-33.4,18.54-36.53,24.81-4.01-23.98-25.13-42.3-39.38-42.3s-35.38,18.32-39.38,42.3c-3.12-6.27-12.09-18.23-36.53-24.81-34.15-9.19-64.36,17.07-45.97,19.7,12.32,1.76,20.1,9.33,23.9,14.13,1.9,21.41,5.67,53.88,11.96,68.6,4.3,10.05,59.62,73.69,65.09,83.61,2.41,4.36,1.29,68.53.57,70.95-.63,2.12,10.33,3.86,20.36,3.62,10.03.24,20.99-1.51,20.36-3.62-.72-2.42-1.84-66.59.57-70.95,5.47-9.92,60.8-73.56,65.09-83.61,6.29-14.73,10.06-47.19,11.96-68.6,3.8-4.8,11.58-12.37,23.9-14.13,18.39-2.63-11.82-28.9-45.97-19.7Z"/>
            <g class="cls-29">
              <g>
                <path class="cls-13" d="m230.79,296.68c-73.28,8.63-133.91,8.63-207.19,0v-89.93c73.28,8.63,133.91,8.63,207.19,0v89.93Z"/>
                <path class="cls-21" d="m230.79,238.68c-73.28,8.63-133.91,8.63-207.19,0v-31.93c73.28,8.63,133.91,8.63,207.19,0v31.93Z"/>
                <path class="cls-11" d="m230.79,355.37c-73.28,8.63-133.91,8.63-207.19,0v-89.93c73.28,8.63,133.91,8.63,207.19,0v89.93Z"/>
                <g>
                  <path class="cls-20" d="m131.14,339.84c5.95.3,10.32-2.38,10.35-2.39,2.67-.49,5.31-.48,5.93-3.94-.05-.09-.21.09-.26.05,2.55-3.73,5.66-5.46,2.65-9.83-2.56-3.72-8.12-6.85-8.12-6.85,0,0-3.23-3.4-5.51-4.79-2.29-1.39-.59-3-5.52-4.79-4.94-1.79-5.56-3.13-8.56-2.55-3.01.59-6.95-.85-8.65.77-1.7,1.61-3.09,3.9-5.1,4.85-2.02.94-5.73,3.5-5.73,3.5,0,0-2.37,1.93-1.16,6.28,1.22,4.35.81,6.99,5.07,9.1,4.26,2.1,5.25,2.46,8.88,3.22,3.63.76,6.47,6.91,15.74,7.38Z"/>
                  <path class="cls-24" d="m150.53,327.6c-2.74,5.29-2.12,10.37-2.13,10.4-.66,2.63-1.77,5.03,1.13,7.03.1,0,0-.22.06-.25,2.34,3.87,2.62,7.41,7.85,6.5,4.44-.79,9.6-4.55,9.6-4.55,0,0,4.43-1.53,6.65-3.03,2.21-1.5,2.97.72,6.65-3.03,3.68-3.74,5.16-3.75,5.87-6.73.71-2.97,3.66-5.97,2.89-8.19-.76-2.22-2.27-4.43-2.29-6.65-.02-2.22-.8-6.67-.8-6.67,0,0-.77-2.96-5.22-3.66-4.46-.7-6.7-2.16-10.38.84-3.68,3.01-4.41,3.76-6.62,6.74-2.19,2.99-8.96,3.02-13.25,11.26Z"/>
                  <path class="cls-20" d="m58.82,301.3c-2.75,5.29-2.12,10.37-2.13,10.41-.67,2.63-1.77,5.03,1.13,7.03.1,0,0-.23.06-.26,2.34,3.87,2.62,7.42,7.85,6.5,4.44-.78,9.61-4.54,9.61-4.54,0,0,4.43-1.53,6.64-3.03,2.21-1.51,2.97.71,6.65-3.03,3.68-3.74,5.16-3.76,5.87-6.73.71-2.97,3.66-5.97,2.89-8.19-.76-2.22-2.27-4.43-2.29-6.65-.02-2.23-.81-6.67-.81-6.67,0,0-.77-2.96-5.23-3.66-4.46-.7-6.7-2.16-10.38.84-3.68,3-4.42,3.75-6.62,6.74-2.19,2.99-8.97,3.02-13.25,11.25Z"/>
                  <path class="cls-20" d="m162.99,280.99c-5.83-1.22-10.56.76-10.59.76-2.71.07-5.32-.35-6.47,2.98.03.09.22-.06.26-.02-3.1,3.3-6.43,4.53-4.14,9.31,1.96,4.07,6.97,8.02,6.97,8.02,0,0,2.67,3.86,4.71,5.58,2.05,1.72.12,3.05,4.71,5.58,4.6,2.53,5.01,3.95,8.07,3.84,3.06-.12,6.73,1.91,8.67.57,1.93-1.33,3.65-3.38,5.79-4,2.14-.62,6.2-2.58,6.2-2.58,0,0,2.64-1.54,2.11-6.02-.53-4.48.27-7.04-3.61-9.77-3.88-2.74-4.8-3.24-8.28-4.55-3.47-1.31-5.33-7.82-14.41-9.72Z"/>
                  <path class="cls-19" d="m192.85,314.62c4.86-3.45,6.63-8.26,6.65-8.28,1.79-2.03,3.87-3.67,2.21-6.77-.09-.04-.11.2-.17.2-.31-4.51,1.06-7.79-4-9.36-4.31-1.34-10.62-.35-10.62-.35,0,0-4.64-.67-7.3-.35-2.66.33-2.32-1.99-7.3-.34-4.98,1.65-6.31.98-8.3,3.3-1.99,2.32-5.98,3.64-6.31,5.96-.34,2.32,0,4.98-1.01,6.97-1,1.99-2.33,6.3-2.33,6.3,0,0-.67,2.98,2.98,5.64,3.64,2.66,4.97,4.99,9.62,4,4.64-.99,5.64-1.32,8.97-2.97,3.32-1.66,9.35,1.42,16.93-3.95Z"/>
                  <path class="cls-19" d="m97.33,349.16c5.96-.08,10.14-3.03,10.18-3.04,2.63-.65,5.27-.82,5.67-4.31-.06-.08-.2.1-.25.07,2.31-3.89,5.3-5.81,2.02-9.98-2.79-3.55-8.54-6.32-8.54-6.32,0,0-3.44-3.19-5.81-4.43-2.37-1.24-.78-2.96-5.81-4.43-5.03-1.47-5.75-2.77-8.71-2-2.96.78-6.99-.4-8.58,1.32-1.59,1.72-2.83,4.09-4.79,5.16-1.95,1.07-5.5,3.85-5.5,3.85,0,0-2.24,2.07-.76,6.34,1.49,4.26,1.26,6.93,5.64,8.75,4.38,1.83,5.39,2.12,9.06,2.65,3.67.53,6.89,6.49,16.17,6.37Z"/>
                  <path class="cls-25" d="m115.5,318.49c5.96-.08,10.14-3.03,10.18-3.04,2.63-.65,5.27-.82,5.67-4.31-.06-.08-.21.1-.26.07,2.31-3.89,5.3-5.81,2.02-9.98-2.79-3.55-8.54-6.32-8.54-6.32,0,0-3.44-3.19-5.81-4.43-2.37-1.24-.78-2.96-5.81-4.43-5.04-1.47-5.75-2.77-8.71-2-2.96.78-6.99-.41-8.59,1.32-1.59,1.71-2.83,4.09-4.79,5.16-1.95,1.07-5.5,3.86-5.5,3.86,0,0-2.24,2.07-.76,6.34,1.49,4.26,1.26,6.93,5.64,8.75,4.38,1.83,5.39,2.12,9.06,2.65,3.67.53,6.89,6.48,16.17,6.37Z"/>
                  <path class="cls-26" d="m141.82,315.66c5.96-.08,10.15-3.03,10.18-3.04,2.63-.65,5.27-.82,5.67-4.31-.06-.09-.2.1-.25.07,2.31-3.88,5.3-5.81,2.02-9.98-2.79-3.55-8.54-6.32-8.54-6.32,0,0-3.44-3.19-5.81-4.43-2.37-1.24-.78-2.96-5.81-4.43-5.04-1.47-5.75-2.77-8.71-2-2.96.77-6.99-.41-8.58,1.32-1.59,1.72-2.83,4.09-4.79,5.16-1.95,1.07-5.5,3.86-5.5,3.86,0,0-2.24,2.08-.76,6.34,1.49,4.26,1.26,6.93,5.64,8.76,4.39,1.83,5.39,2.12,9.07,2.65,3.67.53,6.89,6.48,16.17,6.37Z"/>
                  <path class="cls-20" d="m118.2,317.21c2.34-5.48,1.32-10.5,1.33-10.54.46-2.67,1.38-5.15-1.65-6.92-.1.02,0,.22-.04.26-2.62-3.68-3.17-7.19-8.31-5.88-4.37,1.12-9.23,5.26-9.23,5.26,0,0-4.31,1.86-6.4,3.52-2.09,1.67-3.02-.49-6.4,3.52-3.38,4.01-4.86,4.14-5.34,7.16-.49,3.02-3.19,6.23-2.26,8.39.93,2.15,2.6,4.24,2.79,6.46.19,2.21,1.31,6.59,1.31,6.59,0,0,.99,2.89,5.49,3.26,4.5.36,6.84,1.65,10.29-1.63,3.44-3.27,4.12-4.08,6.08-7.22,1.96-3.14,8.72-3.69,12.36-12.23Z"/>
                  <path class="cls-24" d="m129.29,337.38c-4.87,3.44-6.64,8.25-6.66,8.27-1.79,2.03-3.87,3.66-2.22,6.76.09.04.11-.2.17-.2.31,4.51-1.07,7.79,3.99,9.37,4.31,1.34,10.62.36,10.62.36,0,0,4.64.68,7.29.36,2.66-.33,2.32,1.99,7.3.35,4.98-1.64,6.31-.98,8.31-3.29,1.99-2.32,5.98-3.63,6.32-5.95.34-2.32.01-4.97,1.01-6.96,1.01-1.99,2.34-6.3,2.34-6.3,0,0,.67-2.98-2.97-5.65-3.64-2.66-4.96-4.99-9.61-4.01-4.65.98-5.64,1.31-8.97,2.96-3.32,1.65-9.35-1.43-16.93,3.93Z"/>
                  <path class="cls-18" d="m129.69,324.73c-2.8,5.26-2.22,10.35-2.23,10.39-.69,2.62-1.81,5.02,1.06,7.04.1,0,.01-.22.06-.25,2.3,3.89,2.55,7.44,7.78,6.57,4.45-.74,9.64-4.45,9.64-4.45,0,0,4.45-1.48,6.68-2.97,2.23-1.48,2.97.74,6.68-2.97,3.71-3.71,5.2-3.71,5.94-6.68.75-2.97,3.71-5.94,2.97-8.16-.74-2.22-2.22-4.45-2.22-6.68s-.75-6.68-.75-6.68c0,0-.74-2.96-5.19-3.71-4.45-.74-6.67-2.23-10.39.74-3.71,2.96-4.45,3.71-6.68,6.68-2.22,2.97-9,2.93-13.35,11.13Z"/>
                  <path class="cls-27" d="m108.65,329.89c-5.94-.44-10.37,2.15-10.4,2.16-2.67.42-5.32.36-6.02,3.81.05.09.21-.08.26-.04-2.63,3.67-5.78,5.34-2.87,9.77,2.48,3.78,7.97,7.02,7.97,7.02,0,0,3.15,3.47,5.41,4.91,2.26,1.44.52,3.02,5.41,4.91,4.89,1.9,5.49,3.25,8.5,2.73,3.02-.52,6.93,1,8.67-.58,1.73-1.58,3.17-3.84,5.21-4.74,2.03-.9,5.81-3.37,5.81-3.37,0,0,2.42-1.88,1.3-6.25-1.12-4.37-.66-7.01-4.88-9.2-4.21-2.2-5.19-2.58-8.81-3.41-3.61-.84-6.32-7.05-15.57-7.72Z"/>
                </g>
                <path class="cls-11" d="m84.62,300.72c1.9,4.99-3.53,4.43,9.27,2.19,12.79-2.24,28.05-1.93,31.83,8.16,1.89,5.04,4.06,9.37,5.44,11.02-.67.63-1.15,1.15-1.29,1.42-2.19,4.12-3.35,7.51-3.73,12.03-.28,3.4-5.75-2.56-7.11-3.5-3.75-2.56-6.75-5.6-11.68-4.55-3.99.85-8,2.63-11.9,3.9-1.7.55-3.93,2.75-4.52,4.19,3.38-.14,7.23-2.48,10.5-3.74,4.91-1.89,7.11-1.64,11.86-.45,7.06,1.76,10.67,11.92,17.15,15.44,6.45,3.5,15.69,5.5,22.68,2.4,3.74-1.66,7.89-1.66,14.94-13.28,6.83-11.25,5.81-20.74,2.49-14.52-2.96,5.55-3.32,12.5-7.34,17.47-4.07,5.03-15.14,7-21.29,7-7.64,0-14.02-7.31-12.03-14.1.45-1.54,13.02-15.13,12.03-15.77-1.54-.98-6.3,2.25-9.36,4.83-.08-.91-.28-2.16-.65-3.82-2.52-11.34-17.64-22.68-28.98-22.68s-20.11.14-13.84-11.9c.85-1.64,2.49-3.14,4.69-4.51l-28.66,1.29c5.04,0,17.63,16.48,19.53,21.47Z"/>
                <path class="cls-11" d="m204.98,272.94l-34.78,1.57c6.51,4.01,8.82,9.06-.08,13.73-13.71,7.19-19.14,31.2-11.67,24.97,7.47-6.24,23.01-22.44,28.47-23.16,5.46-.72,10.5,5.58,14.28,4.32,3.78-1.26,15.12-11.34,3.78-21.42Z"/>
                <path class="cls-11" d="m60.17,284.93c-4.15,2.49-7.47,3.73-5.39,10.37.67,2.13-1.98,14.15,1.91,16.41,3.9,2.26,4.73-4.79,6.38-9.77,1.66-4.98,4.15-7.05,5.81-8.71,1.66-1.66,5.39-2.08,4.98-3.73-.41-1.66-9.54-7.05-13.69-4.56Z"/>
              </g>
            </g>
          </g>
          <g>
            <g>
              <path class="cls-23" d="m86.13,186.6c9.1,20.44,4.91,42.16-9.36,48.52-14.27,6.36-33.22-5.06-42.33-25.5-9.1-20.44-4.91-42.16,9.36-48.52,14.27-6.36,33.22,5.06,42.33,25.5Z"/>
              <path class="cls-22" d="m84.04,181.91c9.1,20.44,4.91,42.16-9.36,48.52-14.27,6.36-33.22-5.06-42.33-25.5-9.1-20.44-4.91-42.16,9.36-48.52,14.27-6.36,33.22,5.06,42.33,25.5Z"/>
              <path class="cls-3" d="m77.9,184.65c-6.09,8.2-5.54,12.92,3.12,22.52-10.17-1.74-12.24,1.4-10.25,14.47-8.38-10.22-12.1-10.79-17.61-2.06-1.35-12.86-4.49-16.42-14.66-17.38,6.09-8.2,5.54-12.92-3.12-22.52,10.17,1.74,12.24-1.4,10.25-14.47,8.38,10.22,12.1,10.79,17.61,2.06,1.35,12.86,4.49,16.42,14.66,17.38Z"/>
              <g class="cls-28">
                <g>
                  <path class="cls-23" d="m55.91,213.25c1.89-.41,3.83-18.1,2-19.09s-16.95,5.75-17.54,7.81c-.59,2.06,11.9-2.85,14.55-3.85,0,0-.91,15.54.99,15.14Z"/>
                  <path class="cls-23" d="m74.47,204.98c-1.57,1.14-16.02-9.26-15.53-11.28.49-2.02,15.61-8.76,17.54-7.81,1.93.95-10.08,6.94-12.6,8.24,0,0,12.16,9.72,10.59,10.86Z"/>
                </g>
                <path class="cls-23" d="m60.03,174.05c1.77.79,0,18.5-2,19.09-2,.59-15.39-9.14-15.53-11.28-.14-2.14,11.05,5.26,13.43,6.79,0,0,2.34-15.39,4.11-14.6Z"/>
              </g>
              <path class="cls-15" d="m62.88,189.32c-.66.48-1.9.35-1.9.35,0,0,.26-1.22.92-1.7s1.3-.49,1.58-.11c.27.37.06.98-.59,1.46Z"/>
              <path class="cls-15" d="m60.69,199.98c-.36-.73-.02-1.93-.02-1.93,0,0,1.16.47,1.51,1.2.36.73.25,1.37-.16,1.57-.41.2-.98-.11-1.34-.84Z"/>
              <path class="cls-15" d="m51.8,192.49c.81-.09,1.82.65,1.82.65,0,0-.84.93-1.65,1.01-.81.09-1.37-.23-1.42-.69-.05-.46.44-.88,1.25-.97Z"/>
            </g>
            <g>
              <ellipse class="cls-23" cx="103.55" cy="193.5" rx="28.29" ry="40.51" transform="translate(-25.06 15.67) rotate(-7.72)"/>
              <path class="cls-22" d="m130.9,184.61c3.01,22.17-7.11,41.85-22.59,43.95-15.48,2.1-30.47-14.17-33.48-36.34-3.01-22.17,7.11-41.85,22.59-43.95,15.48-2.1,30.47,14.17,33.48,36.34Z"/>
              <path class="cls-5" d="m124.24,185.52c-8.15,6.16-8.94,10.84-3.33,22.49-9.28-4.52-12.14-2.09-13.9,11.01-5.18-12.16-8.59-13.75-16.33-6.91,2.31-12.72.3-17.02-9.19-20.79,8.15-6.16,8.94-10.84,3.33-22.49,9.28,4.52,12.14,2.09,13.9-11.01,5.18,12.16,8.59,13.75,16.33,6.91-2.31,12.72-.3,17.02,9.19,20.79Z"/>
              <g class="cls-28">
                <g>
                  <path class="cls-23" d="m95.11,206.8c1.93.14,8.76-16.3,7.28-17.76-1.48-1.46-17.88.76-19.02,2.58-1.14,1.82,12.23.61,15.05.38,0,0-5.23,14.66-3.3,14.8Z"/>
                  <path class="cls-23" d="m115.24,204.07c-1.82.65-12.78-13.38-11.75-15.19,1.04-1.8,17.44-4.03,19.02-2.58,1.58,1.45-11.62,3.84-14.4,4.37,0,0,8.95,12.74,7.12,13.39Z"/>
                </g>
                <path class="cls-23" d="m110.06,170.34c1.48,1.25-5.2,17.76-7.28,17.76-2.08,0-12.21-13.09-11.75-15.19.46-2.09,9.14,8.15,10.99,10.28,0,0,6.56-14.12,8.04-12.86Z"/>
              </g>
              <path class="cls-15" d="m108.51,185.79c-.77.28-1.92-.2-1.92-.2,0,0,.59-1.1,1.36-1.37.77-.28,1.39-.1,1.54.33s-.21.96-.98,1.24Z"/>
              <path class="cls-15" d="m103.41,195.41c-.14-.8.53-1.86.53-1.86,0,0,.98.78,1.12,1.58.14.8-.14,1.39-.6,1.46-.45.08-.91-.38-1.05-1.18Z"/>
              <path class="cls-15" d="m96.98,185.72c.8.15,1.57,1.13,1.57,1.13,0,0-1.06.65-1.87.51-.8-.15-1.25-.61-1.17-1.06.08-.45.67-.73,1.47-.58Z"/>
            </g>
            <g>
              <path class="cls-23" d="m174.44,186.6c-9.1,20.44-4.91,42.16,9.36,48.52,14.27,6.36,33.22-5.06,42.33-25.5,9.1-20.44,4.91-42.16-9.36-48.52-14.27-6.36-33.22,5.06-42.33,25.5Z"/>
              <ellipse class="cls-22" cx="202.37" cy="193.42" rx="40.51" ry="28.29" transform="translate(-56.66 299.58) rotate(-65.99)"/>
              <path class="cls-6" d="m182.67,184.65c6.09,8.2,5.54,12.92-3.12,22.52,10.17-1.74,12.24,1.4,10.25,14.47,8.38-10.22,12.1-10.79,17.61-2.06,1.35-12.86,4.49-16.42,14.66-17.38-6.09-8.2-5.54-12.92,3.12-22.52-10.17,1.74-12.24-1.4-10.25-14.47-8.38,10.22-12.1,10.79-17.61,2.06-1.35,12.86-4.49,16.42-14.66,17.38Z"/>
              <g class="cls-28">
                <g>
                  <path class="cls-23" d="m204.66,213.25c-1.89-.41-3.83-18.1-2-19.09,1.83-.99,16.95,5.75,17.54,7.81s-11.9-2.85-14.55-3.85c0,0,.91,15.54-.99,15.14Z"/>
                  <path class="cls-23" d="m186.1,204.98c1.57,1.14,16.02-9.26,15.53-11.28-.49-2.02-15.61-8.76-17.54-7.81-1.93.95,10.08,6.94,12.6,8.24,0,0-12.16,9.72-10.59,10.86Z"/>
                </g>
                <path class="cls-23" d="m200.53,174.05c-1.77.79,0,18.5,2,19.09,2,.59,15.39-9.14,15.53-11.28.14-2.14-11.05,5.26-13.43,6.79,0,0-2.34-15.39-4.11-14.6Z"/>
              </g>
              <path class="cls-15" d="m197.68,189.32c.66.48,1.9.35,1.9.35,0,0-.26-1.22-.92-1.7-.66-.48-1.3-.49-1.58-.11-.27.37-.07.98.59,1.46Z"/>
              <path class="cls-15" d="m199.88,199.98c.36-.73.02-1.93.02-1.93,0,0-1.16.47-1.51,1.2-.36.73-.25,1.37.16,1.57.41.2.98-.11,1.34-.84Z"/>
              <path class="cls-15" d="m208.77,192.49c-.81-.09-1.82.65-1.82.65,0,0,.84.93,1.65,1.01.81.09,1.37-.23,1.42-.69.05-.46-.44-.88-1.25-.97Z"/>
            </g>
            <g>
              <path class="cls-23" d="m128.98,189.7c-3.01,22.17,7.11,41.85,22.59,43.95,15.48,2.1,30.47-14.17,33.48-36.34,3.01-22.17-7.11-41.85-22.59-43.95-15.48-2.1-30.47,14.17-33.48,36.35Z"/>
              <ellipse class="cls-22" cx="157.7" cy="188.42" rx="40.51" ry="28.29" transform="translate(-50.19 319.37) rotate(-82.28)"/>
              <path class="cls-7" d="m136.33,185.52c8.15,6.16,8.94,10.84,3.33,22.49,9.28-4.52,12.14-2.09,13.9,11.01,5.18-12.16,8.59-13.75,16.33-6.91-2.31-12.72-.3-17.02,9.19-20.79-8.15-6.16-8.94-10.84-3.33-22.49-9.28,4.52-12.14,2.09-13.9-11.01-5.18,12.16-8.59,13.75-16.33,6.91,2.31,12.72.3,17.02-9.19,20.79Z"/>
              <g class="cls-28">
                <g>
                  <path class="cls-23" d="m165.46,206.8c-1.93.14-8.76-16.3-7.28-17.76,1.48-1.46,17.88.76,19.02,2.58,1.14,1.82-12.23.61-15.05.38,0,0,5.23,14.66,3.3,14.8Z"/>
                  <path class="cls-23" d="m145.33,204.07c1.82.65,12.78-13.38,11.75-15.19-1.04-1.8-17.44-4.03-19.02-2.58-1.58,1.45,11.62,3.84,14.4,4.37,0,0-8.95,12.74-7.12,13.39Z"/>
                </g>
                <path class="cls-23" d="m150.51,170.34c-1.48,1.25,5.2,17.76,7.28,17.76,2.08,0,12.21-13.09,11.75-15.19-.46-2.09-9.14,8.15-10.99,10.28,0,0-6.56-14.12-8.04-12.86Z"/>
              </g>
              <path class="cls-15" d="m152.06,185.79c.77.28,1.92-.2,1.92-.2,0,0-.59-1.1-1.36-1.37-.77-.28-1.39-.1-1.54.33s.21.96.98,1.24Z"/>
              <path class="cls-15" d="m157.15,195.41c.14-.8-.53-1.86-.53-1.86,0,0-.98.78-1.12,1.58-.14.8.14,1.39.6,1.46.45.08.91-.38,1.05-1.18Z"/>
              <path class="cls-15" d="m163.59,185.72c-.8.15-1.57,1.13-1.57,1.13,0,0,1.06.65,1.87.51.8-.15,1.25-.61,1.17-1.06-.08-.45-.67-.73-1.47-.58Z"/>
            </g>
          </g>
          <path class="cls-30" d="m206.19,174.34c-24.44,6.58-33.4,18.54-36.53,24.81-4.01-23.98-25.13-42.3-39.38-42.3s-35.38,18.32-39.38,42.3c-3.12-6.27-12.09-18.23-36.53-24.81-34.15-9.19-64.36,17.07-45.97,19.7,12.32,1.76,20.1,9.33,23.9,14.13,1.9,21.41,5.67,53.88,11.96,68.6,4.3,10.05,59.62,73.69,65.09,83.61,2.41,4.36,1.29,68.53.57,70.95-.63,2.12,10.33,3.86,20.36,3.62,10.03.24,20.99-1.51,20.36-3.62-.72-2.42-1.84-66.59.57-70.95,5.47-9.92,60.8-73.56,65.09-83.61,6.29-14.73,10.06-47.19,11.96-68.6,3.8-4.8,11.58-12.37,23.9-14.13,18.39-2.63-11.82-28.9-45.97-19.7Z"/>
          <g>
            <path class="cls-17" d="m198.2,259.96c.33,1.63,2.02,2.96,2.99,4.25.59-.14,3.51-.47,3.78-.93,1.56-2.68,1.83-3.51-1.32-3.69-1.58-.09-3.95-.25-5.45.37Z"/>
            <path class="cls-17" d="m76.44,252.43c-1.05-1.29-3.16-1.7-4.61-2.4-.46.4-2.9,2.03-2.92,2.56-.15,3.1-.01,3.96,2.87,2.67,1.44-.65,3.62-1.6,4.67-2.83Z"/>
            <path class="cls-17" d="m130.35,265.57c-1.04-1.29-3.16-1.7-4.61-2.4-.46.4-2.89,2.03-2.92,2.56-.15,3.1,0,3.96,2.87,2.67,1.44-.65,3.62-1.6,4.67-2.83Z"/>
            <path class="cls-17" d="m208.59,249.14c.66,1.47,3.79,2.3,4.16,1.85.78-.95,1.58-2.67,1.81-3.85.56-2.82-.69-2.18-3.15-1.69,0,0-1.84,1.44-1.86,1.45-1.07.84-1.25,1.6-.96,2.24Z"/>
            <path class="cls-9" d="m156.06,252.34c.66,1.47,3.8,2.29,4.15,1.85.78-.95,1.58-2.67,1.82-3.86.56-2.82-.69-2.18-3.15-1.69,0,0-1.84,1.44-1.86,1.45-1.07.84-1.25,1.6-.96,2.24Z"/>
            <path class="cls-17" d="m167.33,261.81c1.61-.41,2.86-2.17,4.09-3.2-.17-.58-.65-3.48-1.12-3.72-2.76-1.42-3.6-1.65-3.62,1.5,0,1.58-.05,3.96.64,5.42Z"/>
            <path class="cls-17" d="m145.34,264.75c1.44-.73,2.09-3.91,1.63-4.25-.99-.73-2.74-1.44-3.94-1.62-2.85-.42-2.14.8-1.52,3.23,0,0,1.53,1.77,1.55,1.79.89,1.03,1.66,1.17,2.29.85Z"/>
            <path class="cls-9" d="m50.26,253.01c1.44-.73,2.1-3.91,1.64-4.24-.99-.73-2.75-1.44-3.94-1.62-2.85-.41-2.14.81-1.53,3.23,0,0,1.53,1.77,1.55,1.78.89,1.03,1.66,1.17,2.29.85Z"/>
            <path class="cls-9" d="m82.23,267.09c.91,1.33,4.14,1.6,4.42,1.1.6-1.07,1.09-2.9,1.12-4.11.06-2.88-1.06-2.03-3.39-1.12,0,0-1.57,1.74-1.58,1.75-.92,1.01-.96,1.8-.57,2.38Z"/>
            <path class="cls-17" d="m100.03,250.67c-1.04-1.29-3.16-1.7-4.61-2.4-.46.39-2.89,2.03-2.92,2.56-.15,3.1-.01,3.96,2.87,2.67,1.44-.65,3.62-1.6,4.66-2.83Z"/>
            <path class="cls-17" d="m50.41,262.05c.91,1.34,4.13,1.6,4.42,1.1.6-1.07,1.09-2.9,1.12-4.11.06-2.88-1.07-2.03-3.4-1.12,0,0-1.57,1.74-1.58,1.75-.91,1.01-.96,1.8-.56,2.38Z"/>
            <path class="cls-9" d="m185.12,266.27c1.44-.73,2.1-3.91,1.63-4.25-.98-.73-2.74-1.44-3.94-1.62-2.84-.42-2.14.81-1.52,3.23,0,0,1.53,1.77,1.54,1.78.89,1.03,1.67,1.17,2.29.85Z"/>
            <path class="cls-8" d="m106.69,266.41c1.64-.76,2.97-2.7,1.93-3.47-.98-.73-2.74-1.44-3.94-1.62-2.84-.42-2.15.8-1.52,3.23.59,2.32,2.17,2.5,3.53,1.86Z"/>
            <path class="cls-8" d="m192.09,247.35c-1.05-1.29-3.16-1.7-4.61-2.4-.45.4-2.89,2.03-2.92,2.56-.15,3.1-.01,3.96,2.87,2.67,1.44-.65,3.62-1.6,4.67-2.83Z"/>
            <path class="cls-17" d="m128.24,253.89c1.64-.77,2.98-2.7,1.93-3.47-.99-.73-2.75-1.44-3.94-1.61-2.84-.41-2.15.8-1.53,3.22.6,2.32,2.17,2.5,3.53,1.86Z"/>
          </g>
          <g>
            <path class="cls-16" d="m167.76,85.35c-2.42-2.21-5.51-3.86-6.36-7.3-.67-2.69-2.08-5.13-4.45-7.25-4.87-4.38-11.64-6.56-19.26-6.87-7.47-.3-16.82.44-23.8,2.48-8.07,2.36-11.46,5.93-14.89,11.54-.79,1.29-.92,2.6-.55,3.76-.58,1.79-.96,3.61-.91,5.47,0,.27-.09,1.03-.09,1.56-.81.46-2.05,1.36-2.37,1.58-4.77,3.23-6.5,7.68-4.53,12.26,4.15,9.65,21.73,7.77,33.3,12.18,8.63,3.29,25.65.88,36.54-4.73,2.52-1.3,5-2.81,6.52-4.81,1.52-2,1.06-4.07,1.91-6.17,1.35-3.32,3.08-7.37,1.19-10.94-.56-1.07-1.36-1.95-2.24-2.75Z"/>
            <path class="cls-10" d="m154.9,71.21c-.73-2.77-4.14-5.22-6.76-3.1-1.01.82-1.45,2.02-1.74,3.26-.25,1.08-.16,2.39-.67,3.37-.24.41-.4.88-.44,1.44,0,.08-.01.16-.02.23-.14,1.84,1.38,3,2.98,3.13-.15.35-.06.76.43.87,2.27.48,3.67-.12,4.61-2.3.93-2.15,2.25-4.49,1.61-6.91Z"/>
            <g>
              <path class="cls-2" d="m146.86,50.36c-7.95-5.47-17.21-.14-18.66,2.88-2.67-2.04-13.34-2.58-17.93,5.9-6.96,12.85,8.72,33.62,26.27,28.81,17.82-3.68,22.36-29.31,10.33-37.59Z"/>
              <g>
                <path class="cls-14" d="m129.75,53.49c-.77-3.79-2.32-6.51-2.31-22.2.02-15.71,6.14-29.36,6.14-29.36l-1.23-.22s-6,12.67-6.87,31.77c-.55,12.02.59,17.93,1.34,20.79.31,1.18,3.19.5,2.92-.78Z"/>
                <polygon class="cls-14" points="132.03 2.44 133.37 2.55 134.9 .82 132.4 0 132.03 2.44"/>
              </g>
            </g>
            <g>
              <path class="cls-16" d="m108.53,75.13s.06-.04.1-.05c.1-.13.2-.25.32-.36l-.41.41Z"/>
              <path class="cls-16" d="m157.62,87.68c-.24-2.55-2.81-4.76-5.56-5.61-5.69-1.75-10.87,1.57-16.42.93-4.29-.49-8.28-4.23-11.76-6.48-5.26-3.4-9.72-4.25-15.25-1.44-5.89,7.72,4.73,19.67,12.27,21.24,2.77.58,5.64.37,8.45.36,1.42,0,2.85.09,4.26-.03,3.93-.34,7.93-.73,11.78-1.59,3.08-.69,8.54-1.14,10.88-3.75,1.08-1.21,1.46-2.45,1.36-3.62Z"/>
            </g>
            <path class="cls-10" d="m102.45,90.64c2.37.26,4.66,2.81,6.73,3.91,1.98,1.05,4.11,1.89,6.2,2.67,4.88,1.81,10,3.11,15.06,4.32,9.22,2.2,27.26-.05,36.42-2,2.78-.59-4.24-3.22-7.14-2.89-9.92,1.11-21.15,1.64-31-.46-4.8-1.02-9.64-1.79-14.34-3.25-3.72-1.16-8.04-4.13-11.95-4.04-1.16.03-1.1,1.64,0,1.76h0Z"/>
            <path class="cls-10" d="m132.15,83.47c8.27,5.75,20.45,6.91,29.58,2.78,2.27-1.02.63-4.5-1.65-3.92-4.58,1.17-8.67,2.8-13.48,2.73-4.74-.07-9.56-.46-13.87-2.59-.67-.33-1.19.57-.58.99h0Z"/>
            <path class="cls-10" d="m103.34,82.73c.58-4.88,13.3-5.96,17.24-6.93,2.07-.51-4.05-3.86-8.47-2.87-5.42,1.21-10.63,3.61-11.06,9.8-.1,1.5,2.13,1.43,2.3,0h0Z"/>
          </g>
        </g>
      </g>
    </g>
  </g>
</svg>