<?xml version="1.0" encoding="UTF-8"?>
<svg id="_レイヤー_2" data-name="レイヤー 2" xmlns="http://www.w3.org/2000/svg" xmlns:xlink="http://www.w3.org/1999/xlink" viewBox="0 0 489.8 311.34">
  <defs>
    <style>
      .cls-1 {
        fill: url(#_名称未設定グラデーション_4-10);
      }

      .cls-1, .cls-2, .cls-3, .cls-4, .cls-5, .cls-6, .cls-7, .cls-8, .cls-9, .cls-10, .cls-11, .cls-12, .cls-13 {
        stroke-width: 0px;
      }

      .cls-2 {
        fill: url(#_名称未設定グラデーション_4-8);
      }

      .cls-3 {
        fill: url(#_名称未設定グラデーション_4-9);
      }

      .cls-4 {
        fill: url(#_名称未設定グラデーション_4-3);
      }

      .cls-5 {
        fill: url(#_名称未設定グラデーション_4-7);
      }

      .cls-6 {
        fill: url(#_名称未設定グラデーション_4-6);
      }

      .cls-7 {
        fill: url(#_名称未設定グラデーション_4-2);
      }

      .cls-8 {
        fill: url(#_名称未設定グラデーション_4-5);
      }

      .cls-9 {
        fill: url(#_名称未設定グラデーション_4-4);
      }

      .cls-14 {
        fill: #f3d4a1;
        stroke: #f3d4a1;
        stroke-width: .88px;
      }

      .cls-14, .cls-15 {
        stroke-linecap: round;
        stroke-linejoin: round;
      }

      .cls-10 {
        fill: url(#_名称未設定グラデーション_4);
      }

      .cls-15 {
        fill: none;
        stroke: #fff;
        stroke-width: 2.83px;
      }

      .cls-11 {
        fill: #fff;
      }

      .cls-12 {
        fill: #feebbe;
      }

      .cls-13 {
        fill: #feeec8;
      }
    </style>
    <linearGradient id="_名称未設定グラデーション_4" data-name="名称未設定グラデーション 4" x1="214.97" y1="157.22" x2="159.35" y2="60.89" gradientUnits="userSpaceOnUse">
      <stop offset="0" stop-color="#e49e3e"/>
      <stop offset="1" stop-color="#d6690f"/>
    </linearGradient>
    <linearGradient id="_名称未設定グラデーション_4-2" data-name="名称未設定グラデーション 4" x1="170.2" y1="211.44" x2="106.29" y2="100.74" xlink:href="#_名称未設定グラデーション_4"/>
    <linearGradient id="_名称未設定グラデーション_4-3" data-name="名称未設定グラデーション 4" x1="117.77" y1="213.69" x2="81.25" y2="150.43" xlink:href="#_名称未設定グラデーション_4"/>
    <linearGradient id="_名称未設定グラデーション_4-4" data-name="名称未設定グラデーション 4" x1="274.57" y1="155.74" x2="228.02" y2="75.12" xlink:href="#_名称未設定グラデーション_4"/>
    <linearGradient id="_名称未設定グラデーション_4-5" data-name="名称未設定グラデーション 4" x1="287.59" y1="138.63" x2="261.33" y2="93.14" xlink:href="#_名称未設定グラデーション_4"/>
    <linearGradient id="_名称未設定グラデーション_4-6" data-name="名称未設定グラデーション 4" x1="374.69" y1="210.71" x2="297.53" y2="77.06" xlink:href="#_名称未設定グラデーション_4"/>
    <linearGradient id="_名称未設定グラデーション_4-7" data-name="名称未設定グラデーション 4" x1="303.11" y1="221.94" x2="241.62" y2="115.44" xlink:href="#_名称未設定グラデーション_4"/>
    <linearGradient id="_名称未設定グラデーション_4-8" data-name="名称未設定グラデーション 4" x1="244.78" y1="220.28" x2="208.44" y2="157.35" xlink:href="#_名称未設定グラデーション_4"/>
    <linearGradient id="_名称未設定グラデーション_4-9" data-name="名称未設定グラデーション 4" x1="407.17" y1="185.16" x2="362" y2="106.93" xlink:href="#_名称未設定グラデーション_4"/>
    <linearGradient id="_名称未設定グラデーション_4-10" data-name="名称未設定グラデーション 4" x1="420.99" y1="170.61" x2="395.66" y2="126.73" xlink:href="#_名称未設定グラデーション_4"/>
  </defs>
  <g id="_イラスト" data-name="イラスト">
    <g>
      <g>
        <path class="cls-14" d="m489.36,158.15c0,84.36-109.45,152.75-244.46,152.75S.44,242.51.44,158.15,109.89,5.4,244.9,5.4s244.46,68.39,244.46,152.76Z"/>
        <ellipse class="cls-12" cx="244.9" cy="152.75" rx="244.46" ry="152.75"/>
        <ellipse class="cls-11" cx="244.9" cy="156.06" rx="187.71" ry="117.29"/>
        <ellipse class="cls-15" cx="244.9" cy="156.06" rx="225.25" ry="140.74"/>
      </g>
      <g>
        <g>
          <path class="cls-12" d="m291.85,124.25c-.79-2.61-4.69-5.41-10.73-8.13-.08-5.43-1.14-10.6-3.87-14.27-7.63-10.25-26.72-16.56-31.3-18.93-4.58-2.37-12.21-6.31-32.83-11.04-20.61-4.73-74.81,8.68-87.03,16.56-12.21,7.89-28.25,34.71-31.3,41.02-3.05,6.31-7.63,23.66-7.63,23.66l3.05,6.31s.73,2.38,2.18,5.98l-18.37,13.32s-4.41,24.32,16.67,30.39c21.08,6.08,39.22-.51,46.09,2.53,6.86,3.04,45.6,4.05,54.91-.51,9.32-4.56,27.71-4.39,39.71-9.62,22.06-9.62,24.51-29.89,30.89-30.9,6.37-1.01,14.71-13.68,18.14-21.78,3.43-8.11,14.99-12.71,11.42-24.59Z"/>
          <path class="cls-10" d="m119.17,91.62c-3.47,5.97,32.12,6.27,62.68,68.04,11.39,23.03,7.4,41.27,27.12,42.29,19.72,1.02,35.5-13.25,40.43-26.49,4.93-13.25-4.95-73.79-21.2-96.8-17.73-25.1-69.09-18.66-85.8-7.64-14.52,9.57-19.36,13.95-23.23,20.61Z"/>
          <path class="cls-7" d="m118.58,95.52c-8.72-3.26-36.08,33.53-28.35,45.71,4.27,6.73,39.92,30.09,46.33,55.59,4.29,17.07,53.27,11.67,53.76-.05.49-11.72-21.76-82.57-71.74-101.25Z"/>
          <path class="cls-4" d="m89.14,145.91c1.71-2.66,47.58,39.39,45.64,57.22-.61,5.66-45.64,7.99-57.97-13.92-12.33-21.91,12.33-43.3,12.33-43.3Z"/>
          <path class="cls-9" d="m226.77,75.84s12.43,14.55,18.51,37.61c7.73,29.29,7.91,49.41,9.84,50.74,1.93,1.33,13.53-.67,14.82-15.31,1.29-14.65-1.93-52.59-11.6-62.58-9.67-9.99-31.57-10.45-31.57-10.45Z"/>
          <path class="cls-8" d="m263.22,92.04s37.65,11.56,28.63,32.2c-9.02,20.64-19.33,22.64-19.33,22.64,0,0,1.01-36.86-9.3-54.84Z"/>
        </g>
        <g>
          <path class="cls-12" d="m426.68,159.78c-.36-2.7-3.77-6.09-9.3-9.74.79-5.37.56-10.65-1.55-14.7-5.9-11.34-23.74-20.61-27.89-23.67-4.15-3.07-11.05-8.18-30.65-16.13-19.6-7.96-75.24-3.35-88.56,2.49-13.31,5.84-33.41,29.76-37.43,35.51-4.02,5.74-11.31,22.15-11.31,22.15l2.01,6.72s.34,2.46,1.2,6.25l-20.26,10.23s-8.23,23.3,11.62,32.66c19.85,9.36,38.8,5.75,45.1,9.84,6.29,4.09,44.37,11.26,54.29,8.24,9.92-3.02,28.06.08,40.74-3.18,23.31-5.99,28.96-25.6,35.42-25.59,6.45.01,16.7-11.16,21.38-18.62,4.68-7.46,16.82-10.16,15.19-22.46Z"/>
          <path class="cls-6" d="m257.73,104.95c-4.37,5.34,30.63,6.14,50.96,71.98,7.58,24.55,4.47,42.21,23.78,46.36,19.31,4.15,37.16-7.42,44.14-19.71,6.98-12.29,6.86-73.64-5.52-98.94-13.5-27.6-65.23-29.42-83.49-21.21-15.86,7.14-24.99,15.56-29.87,21.52Z"/>
          <path class="cls-5" d="m256.83,108.1c-3.89-2.39-33.35,21.61-31.2,33,1.48,7.83,30.04,41.98,36.18,65.58,4.43,17.03,48.26,19.18,50.62,7.69,2.35-11.49-10.17-78.31-55.6-106.28Z"/>
          <path class="cls-2" d="m223.1,148.88s34.63,44.61,35.9,62.45c.41,5.68-46.29,1.93-54.97-21.66-8.68-23.59,19.07-40.79,19.07-40.79Z"/>
          <path class="cls-3" d="m369.85,102.4s11.04,15.76,13.38,39.49c2.97,30.15-2.97,53.16-1.27,54.78,1.7,1.62,15.57-1.81,19.17-16.07,3.6-14.25,6.47-52.23-1.48-63.63-7.95-11.4-29.79-14.58-29.79-14.58Z"/>
          <path class="cls-1" d="m403.61,122.14s35.26,18.7,23.07,37.63c-12.19,18.94-22.69,19.27-22.69,19.27,0,0,6.94-37.51-.38-56.9Z"/>
        </g>
        <path class="cls-13" d="m324.42,88.92c12.94,1.15,23.52,10.13,29.59,21.15,5.39,9.78,4.94,20.11,8.1,30.41,1.11,3.63,7.47,4.37,8.12,0,3.85-25.73-18.42-55.56-45.81-52.44-.56.06-.58.84,0,.89h0Z"/>
        <path class="cls-13" d="m262.03,124.12c2.42,2.55,4.84,4.79,6.67,7.84,1.67,2.8,3.24,5.69,4.81,8.55,1.44,2.62,5.18.32,3.95-2.31-1.58-3.38-3.42-6.31-6.11-8.93-2.6-2.53-5.57-4.16-8.61-6.08-.58-.37-1.17.45-.72.93h0Z"/>
        <path class="cls-13" d="m191.94,73.68c6.53,1.25,12.99,6.6,17.15,11.57,4.7,5.62,6.8,12.27,9.41,19.01,1.36,3.5,6.53,2.21,5.7-1.57-1.94-8.87-4.48-16.65-11.75-22.64-5.59-4.61-13.18-7.92-20.51-6.79-.22.03-.21.39,0,.43h0Z"/>
      </g>
    </g>
  </g>
</svg>