<?xml version="1.0" encoding="UTF-8"?>
<svg id="_レイヤー_2" data-name="レイヤー 2" xmlns="http://www.w3.org/2000/svg" xmlns:xlink="http://www.w3.org/1999/xlink" viewBox="0 0 253.25 370.89">
  <defs>
    <style>
      .cls-1 {
        clip-path: url(#clippath);
      }

      .cls-2 {
        fill: url(#_名称未設定グラデーション_30);
      }

      .cls-2, .cls-3, .cls-4, .cls-5, .cls-6, .cls-7, .cls-8, .cls-9, .cls-10, .cls-11 {
        stroke-width: 0px;
      }

      .cls-12, .cls-5, .cls-13 {
        fill: #ebf6fb;
      }

      .cls-3 {
        opacity: .2;
      }

      .cls-3, .cls-4, .cls-6, .cls-8 {
        fill: #fff;
      }

      .cls-14, .cls-15 {
        fill: none;
      }

      .cls-14, .cls-15, .cls-13 {
        stroke: #dff1fa;
        stroke-width: 5.67px;
      }

      .cls-16 {
        clip-path: url(#clippath-1);
      }

      .cls-4, .cls-5 {
        opacity: .4;
      }

      .cls-6, .cls-7 {
        opacity: .5;
      }

      .cls-7 {
        fill: url(#_名称未設定グラデーション_30-2);
      }

      .cls-17 {
        opacity: .7;
      }

      .cls-15 {
        stroke-linecap: round;
        stroke-linejoin: round;
      }

      .cls-8 {
        opacity: .3;
      }

      .cls-9 {
        fill: #dff1fa;
      }

      .cls-10 {
        fill: #ffea00;
      }

      .cls-11 {
        fill: #fffef7;
      }
    </style>
    <clipPath id="clippath">
      <path class="cls-13" d="m181.7,158.38c9.46-33.12,13.01-94.63,13.01-94.63-2.35-8.77-62.22-14.27-95.93-13.24-33.71-1.03-93.58,4.47-95.93,13.24,0,0,3.55,61.51,13.01,94.63,9.46,33.12,44.83,140.76,48.76,151.41,3.93,10.65-1.31,21.29-2.62,27.21-1.14,5.16,18.66,9.42,36.78,8.85,18.11.57,37.92-3.69,36.78-8.85-1.31-5.91-6.54-16.56-2.62-27.21,3.93-10.65,39.3-118.29,48.76-151.41Z"/>
    </clipPath>
    <linearGradient id="_名称未設定グラデーション_30" data-name="名称未設定グラデーション 30" x1="98.78" y1="324.65" x2="98.78" y2="92.99" gradientUnits="userSpaceOnUse">
      <stop offset="0" stop-color="#ffe55f"/>
      <stop offset="1" stop-color="#fffcdb"/>
    </linearGradient>
    <clipPath id="clippath-1">
      <path class="cls-15" d="m181.7,158.38c9.46-33.12,13.01-94.63,13.01-94.63-18.44,18.44-75.9,23.34-95.93,24.51-20.03-1.17-77.49-6.07-95.93-24.51,0,0,3.55,61.51,13.01,94.63,9.46,33.12,44.83,140.76,48.76,151.41,3.93,10.65-1.31,21.29-2.62,27.21-1.14,5.16,18.66,9.42,36.78,8.85,18.11.57,37.92-3.69,36.78-8.85-1.31-5.91-6.54-16.56-2.62-27.21,3.93-10.65,39.3-118.29,48.76-151.41Z"/>
    </clipPath>
    <linearGradient id="_名称未設定グラデーション_30-2" data-name="名称未設定グラデーション 30" y1="324.69" y2="96.65" xlink:href="#_名称未設定グラデーション_30"/>
  </defs>
  <g id="_イラスト" data-name="イラスト">
    <g>
      <path class="cls-9" d="m158.95,348.04c0,12.62-26.94,22.85-60.16,22.85s-60.16-10.23-60.16-22.85,26.94-28.31,60.16-28.31,60.16,15.69,60.16,28.31Z"/>
      <g>
        <path class="cls-12" d="m181.7,158.38c9.46-33.12,13.01-94.63,13.01-94.63-2.35-8.77-62.22-14.27-95.93-13.24-33.71-1.03-93.58,4.47-95.93,13.24,0,0,3.55,61.51,13.01,94.63,9.46,33.12,44.83,140.76,48.76,151.41,3.93,10.65-1.31,21.29-2.62,27.21-1.14,5.16,18.66,9.42,36.78,8.85,18.11.57,37.92-3.69,36.78-8.85-1.31-5.91-6.54-16.56-2.62-27.21,3.93-10.65,39.3-118.29,48.76-151.41Z"/>
        <g class="cls-1">
          <path class="cls-2" d="m181.7,200.99c9.46-33.12,13.01-94.63,13.01-94.63-2.35-8.77-62.22-14.27-95.93-13.24-33.71-1.03-93.58,4.47-95.93,13.24,0,0,3.55,61.51,13.01,94.63,9.46,33.12,34.95,124.15,82.92,123.66,47.96.49,73.45-90.54,82.92-123.66Z"/>
        </g>
        <path class="cls-14" d="m181.7,158.38c9.46-33.12,13.01-94.63,13.01-94.63-2.35-8.77-62.22-14.27-95.93-13.24-33.71-1.03-93.58,4.47-95.93,13.24,0,0,3.55,61.51,13.01,94.63,9.46,33.12,44.83,140.76,48.76,151.41,3.93,10.65-1.31,21.29-2.62,27.21-1.14,5.16,18.66,9.42,36.78,8.85,18.11.57,37.92-3.69,36.78-8.85-1.31-5.91-6.54-16.56-2.62-27.21,3.93-10.65,39.3-118.29,48.76-151.41Z"/>
      </g>
      <g>
        <g class="cls-17">
          <g>
            <path class="cls-8" d="m107.47,167.75c.85-2.97-1.16-25.19-3.24-26.97-.1-.08-.2-.14-.3-.13,0,0-.37.5-1.01,1.33l-15.59,17.24,1.85,35.6s14.98-15.51,18.29-27.07Z"/>
            <path class="cls-4" d="m103.93,140.65c-4.36-.74-20.89-2.28-31.54-2.61-1.79-.06-3.54.49-4.81,1.75l-15.43,15.33s21.11,1.69,35.17,4.11l15.59-17.24c.64-.83,1.01-1.33,1.01-1.33Z"/>
          </g>
        </g>
        <path class="cls-6" d="m52.15,155.12c-2.23,3.9,2.33,35.23,4.1,35.93,1.77.7,29.15,6.38,32.92,3.78l-1.85-35.6c-14.06-2.41-35.17-4.11-35.17-4.11Z"/>
      </g>
      <g>
        <g class="cls-17">
          <g>
            <path class="cls-8" d="m54.25,222.68c.05,3.09,8.39,23.78,10.89,24.88.12.05.23.08.32.04,0,0,.21-.59.58-1.57l9.95-21.01-12.06-33.54s-9.86,19.17-9.69,31.2Z"/>
            <path class="cls-4" d="m65.47,247.6c4.38-.55,20.66-3.85,30.95-6.61,1.73-.46,3.25-1.49,4.1-3.06l10.34-19.13s-20.7,4.48-34.86,6.23l-9.95,21.01c-.37.98-.58,1.57-.58,1.57Z"/>
          </g>
        </g>
        <path class="cls-6" d="m110.85,218.79c1.01-4.37-12.41-33.05-14.31-33.21-1.9-.16-29.75,2.32-32.6,5.9l12.06,33.54c14.16-1.75,34.86-6.23,34.86-6.23Z"/>
      </g>
      <g>
        <g class="cls-17">
          <g>
            <path class="cls-8" d="m117.94,213.09c2.84,1.22,25.13,2.08,27.16.24.1-.09.16-.18.17-.28,0,0-.45-.43-1.19-1.17l-15.1-17.67-35.54-2.72s13.46,16.85,24.51,21.61Z"/>
            <path class="cls-4" d="m145.27,213.05c1.29-4.22,4.94-20.42,6.63-30.94.28-1.77-.03-3.58-1.12-5l-13.23-17.26s-4.38,20.72-8.58,34.36l15.1,17.67c.74.74,1.19,1.17,1.19,1.17Z"/>
          </g>
        </g>
        <path class="cls-6" d="m137.55,159.85c-3.58-2.71-35.24-2.2-36.16-.53-.92,1.67-10.06,28.1-7.96,32.16l35.54,2.72c4.19-13.64,8.58-34.36,8.58-34.36Z"/>
      </g>
      <path class="cls-5" d="m181.7,158.38c9.46-33.12,13.01-94.63,13.01-94.63-18.44,18.44-75.9,23.34-95.93,24.51-20.03-1.17-77.49-6.07-95.93-24.51,0,0,3.55,61.51,13.01,94.63,9.46,33.12,44.83,140.76,48.76,151.41,3.93,10.65-1.31,21.29-2.62,27.21-1.14,5.16,18.66,9.42,36.78,8.85,18.11.57,37.92-3.69,36.78-8.85-1.31-5.91-6.54-16.56-2.62-27.21,3.93-10.65,39.3-118.29,48.76-151.41Z"/>
      <g>
        <g>
          <path class="cls-10" d="m162.84,10.34c-26,18.15-32.38,54.07-14.22,80.07,3.56,5.1,7.81,9.43,12.53,12.99.59-.77,1.25-1.64,1.97-2.58-4.46-3.36-8.47-7.45-11.84-12.27-17.16-24.57-11.15-58.39,13.42-75.54,24.57-17.15,58.38-11.14,75.54,13.42,17.16,24.57,11.15,58.38-13.42,75.54-10.24,7.15-22.08,10.26-33.66,9.7-.06,1.15-.12,2.23-.17,3.22,12.28.61,24.85-2.68,35.69-10.25,26-18.15,32.38-54.07,14.22-80.07C224.75-1.43,188.84-7.82,162.84,10.34Z"/>
          <path class="cls-11" d="m193.16,111.66c11.58.56,23.42-2.55,33.66-9.7,24.56-17.15,30.57-50.97,13.42-75.54-17.15-24.56-50.97-30.57-75.54-13.42-24.57,17.16-30.57,50.98-13.42,75.54,3.37,4.82,7.38,8.92,11.84,12.27,10.1-13.22,31.63-41.55,32.23-43.22.61-1.72-1.23,35.53-2.19,54.06Z"/>
        </g>
        <g>
          <path class="cls-10" d="m236.18,44.76c2.53-.77,3.82-3.42,2.86-5.89,0,0-1.63-4.2-4.42-8.19-2.78-3.98-6.17-6.97-6.17-6.97-1.99-1.75-4.92-1.46-6.52.66l-21.36,28.27c-1.59,2.11-.83,3.21,1.7,2.44l33.9-10.32Z"/>
          <path class="cls-10" d="m221.14,92.35c1.52,2.17,4.31,2.43,6.2.58l11.11-14.58c1.23-2.35.18-4.98-2.32-5.85l-33.48-11.57c-2.5-.86-3.31.2-1.79,2.38l20.29,29.05Z"/>
          <path class="cls-10" d="m154.36,44.6c-2.5-.86-4.93.56-5.4,3.17l-.32,18.33c.35,2.63,2.71,4.14,5.25,3.37l33.9-10.32c2.54-.77,2.56-2.11.06-2.98l-33.48-11.58Z"/>
          <path class="cls-10" d="m170,22.85c-1.52-2.17-4.33-2.46-6.26-.64l-10.99,14.67c-1.27,2.33-.26,4.94,2.25,5.81l33.49,11.58c2.5.86,3.31-.21,1.79-2.38l-20.28-29.04Z"/>
          <path class="cls-10" d="m191.73,51.21c1.52,2.17,2.8,1.78,2.85-.87l.67-35.43c.05-2.65-2.06-4.51-4.68-4.13l-17.54,5.32c-2.38,1.16-3.09,3.89-1.57,6.06l20.28,29.04Z"/>
          <path class="cls-10" d="m220.49,23.14c1.6-2.11,1.08-5.02-1.15-6.45,0,0-3.8-2.44-8.39-4.03-4.59-1.59-9.08-2.01-9.08-2.01-2.64-.25-4.84,1.71-4.89,4.36l-.66,35.42c-.05,2.65,1.22,3.09,2.81.98l21.36-28.27Z"/>
          <path class="cls-10" d="m236.31,70.48c2.51.87,4.91-.56,5.35-3.18l.42-18.33c-.39-2.62-2.78-4.14-5.31-3.36l-33.89,10.32c-2.53.77-2.56,2.11-.06,2.97l33.49,11.58Z"/>
          <path class="cls-10" d="m195.48,100.62c-.05,2.65,2.06,4.51,4.68,4.13l17.54-5.32c2.38-1.16,3.09-3.89,1.57-6.06l-20.28-29.04c-1.52-2.17-2.8-1.78-2.85.87l-.66,35.43Z"/>
          <path class="cls-10" d="m154.82,70.68c-2.53.77-3.66,3.35-2.51,5.74l10.51,15.02c1.83,1.92,4.63,1.76,6.23-.36l21.36-28.27c1.6-2.11.83-3.21-1.7-2.44l-33.89,10.32Z"/>
        </g>
      </g>
      <g>
        <g class="cls-16">
          <path class="cls-7" d="m181.7,191.28c9.46-33.12,13.01-94.63,13.01-94.63-18.44,18.44-64.4,23.34-95.93,24.51-31.53-1.17-77.49-6.07-95.93-24.51,0,0,3.55,61.51,13.01,94.63,9.46,33.12,31.26,133.97,82.92,133.4,51.66.58,73.45-100.28,82.92-133.4Z"/>
        </g>
        <path class="cls-15" d="m181.7,158.38c9.46-33.12,13.01-94.63,13.01-94.63-18.44,18.44-75.9,23.34-95.93,24.51-20.03-1.17-77.49-6.07-95.93-24.51,0,0,3.55,61.51,13.01,94.63,9.46,33.12,44.83,140.76,48.76,151.41,3.93,10.65-1.31,21.29-2.62,27.21-1.14,5.16,18.66,9.42,36.78,8.85,18.11.57,37.92-3.69,36.78-8.85-1.31-5.91-6.54-16.56-2.62-27.21,3.93-10.65,39.3-118.29,48.76-151.41Z"/>
      </g>
      <path class="cls-3" d="m145.76,94.37s32.29-2.94,40.12-14.68c0,0-8.81,59.69-14.68,76.32-5.87,16.63-48.93,154.6-48.93,154.6,0,0-1.96,1.96-9.78,2.94,0,0,40.12-121.33,33.27-219.18Z"/>
      <g>
        <circle class="cls-3" cx="47.92" cy="159.2" r="2.94"/>
        <path class="cls-3" d="m62.56,176.88c0,1.62-1.31,2.94-2.94,2.94s-2.94-1.31-2.94-2.94,1.31-2.94,2.94-2.94,2.94,1.31,2.94,2.94Z"/>
        <path class="cls-3" d="m92.89,163.87c0,1.62-1.31,2.94-2.94,2.94s-2.94-1.31-2.94-2.94,1.31-2.94,2.94-2.94,2.94,1.31,2.94,2.94Z"/>
        <path class="cls-3" d="m111.19,199.51c0,1.62-1.31,2.94-2.94,2.94s-2.94-1.31-2.94-2.94,1.31-2.94,2.94-2.94,2.94,1.31,2.94,2.94Z"/>
        <path class="cls-3" d="m55.98,228.07c0,1.62-1.31,2.94-2.94,2.94s-2.94-1.31-2.94-2.94,1.31-2.94,2.94-2.94,2.94,1.31,2.94,2.94Z"/>
        <path class="cls-3" d="m127.27,167.29c0,.66-.54,1.2-1.2,1.2s-1.2-.54-1.2-1.2.54-1.2,1.2-1.2,1.2.54,1.2,1.2Z"/>
        <path class="cls-3" d="m58.71,213.92c0,.66-.54,1.2-1.2,1.2s-1.2-.54-1.2-1.2.54-1.2,1.2-1.2,1.2.54,1.2,1.2Z"/>
        <path class="cls-3" d="m38.35,173.69c0,.66-.54,1.2-1.2,1.2s-1.2-.54-1.2-1.2.54-1.2,1.2-1.2,1.2.54,1.2,1.2Z"/>
        <path class="cls-3" d="m163.52,188.59c0,.66-.54,1.2-1.2,1.2s-1.2-.54-1.2-1.2.54-1.2,1.2-1.2,1.2.54,1.2,1.2Z"/>
        <path class="cls-3" d="m111.86,243.02c0,.66-.54,1.2-1.2,1.2s-1.2-.54-1.2-1.2.54-1.2,1.2-1.2,1.2.54,1.2,1.2Z"/>
        <path class="cls-3" d="m85.19,221.7c0,1.62-1.31,2.94-2.94,2.94s-2.94-1.31-2.94-2.94,1.31-2.94,2.94-2.94,2.94,1.31,2.94,2.94Z"/>
        <circle class="cls-3" cx="88.51" cy="194.21" r="2.35" transform="translate(-116.62 253.15) rotate(-81.53)"/>
        <path class="cls-3" d="m139.33,234.44c0,1.3-1.05,2.35-2.35,2.35s-2.35-1.05-2.35-2.35,1.05-2.35,2.35-2.35,2.35,1.05,2.35,2.35Z"/>
        <path class="cls-3" d="m73.53,154.73c0,1.3-1.05,2.35-2.35,2.35s-2.35-1.05-2.35-2.35,1.05-2.35,2.35-2.35,2.35,1.05,2.35,2.35Z"/>
        <path class="cls-3" d="m27.71,138.71c0,1.3-1.05,2.35-2.35,2.35s-2.35-1.05-2.35-2.35,1.05-2.35,2.35-2.35,2.35,1.05,2.35,2.35Z"/>
        <path class="cls-3" d="m179.07,142.55c0,1.3-1.05,2.35-2.35,2.35s-2.35-1.05-2.35-2.35,1.05-2.35,2.35-2.35,2.35,1.05,2.35,2.35Z"/>
        <path class="cls-3" d="m124.57,220.63c0,1.3-1.05,2.35-2.35,2.35s-2.35-1.05-2.35-2.35,1.05-2.35,2.35-2.35,2.35,1.05,2.35,2.35Z"/>
        <circle class="cls-3" cx="39.39" cy="149.13" r="1.2"/>
        <path class="cls-3" d="m43.09,195.53c0,.66-.54,1.2-1.2,1.2s-1.2-.54-1.2-1.2.54-1.2,1.2-1.2,1.2.54,1.2,1.2Z"/>
        <path class="cls-3" d="m163.62,164.53c0,.66-.54,1.2-1.2,1.2s-1.2-.54-1.2-1.2.54-1.2,1.2-1.2,1.2.54,1.2,1.2Z"/>
        <path class="cls-3" d="m143.83,188.37c0,1.3-1.05,2.35-2.35,2.35s-2.35-1.05-2.35-2.35,1.05-2.35,2.35-2.35,2.35,1.05,2.35,2.35Z"/>
        <path class="cls-3" d="m155.86,158.52c0,1.3-1.05,2.35-2.35,2.35s-2.35-1.05-2.35-2.35,1.05-2.35,2.35-2.35,2.35,1.05,2.35,2.35Z"/>
      </g>
    </g>
  </g>
</svg>