<?xml version="1.0" encoding="UTF-8"?>
<svg id="_レイヤー_2" data-name="レイヤー 2" xmlns="http://www.w3.org/2000/svg" xmlns:xlink="http://www.w3.org/1999/xlink" viewBox="0 0 202.43 390.79">
  <defs>
    <style>
      .cls-1 {
        clip-path: url(#clippath);
      }

      .cls-2, .cls-3, .cls-4 {
        fill: #ebf6fb;
      }

      .cls-5 {
        opacity: .2;
      }

      .cls-5, .cls-6, .cls-3, .cls-7, .cls-8, .cls-9, .cls-10, .cls-11, .cls-12, .cls-13, .cls-14 {
        stroke-width: 0px;
      }

      .cls-5, .cls-6, .cls-8, .cls-9 {
        fill: #fff;
      }

      .cls-15, .cls-16 {
        fill: none;
      }

      .cls-15, .cls-16, .cls-4 {
        stroke: #dff1fa;
        stroke-width: 5.67px;
      }

      .cls-17 {
        clip-path: url(#clippath-1);
      }

      .cls-6, .cls-3 {
        opacity: .4;
      }

      .cls-7, .cls-8 {
        opacity: .5;
      }

      .cls-7, .cls-11 {
        fill: #380508;
      }

      .cls-18 {
        opacity: .7;
      }

      .cls-16 {
        stroke-linecap: round;
        stroke-linejoin: round;
      }

      .cls-9 {
        opacity: .3;
      }

      .cls-10 {
        fill: #f7ecca;
      }

      .cls-12 {
        fill: #dff1fa;
      }

      .cls-13 {
        fill: #fdf5e0;
      }

      .cls-14 {
        fill: #ee7e71;
      }
    </style>
    <clipPath id="clippath">
      <path class="cls-4" d="m186.56,178.28c9.46-33.12,13.01-94.63,13.01-94.63-2.35-8.77-62.22-14.27-95.93-13.24-33.71-1.03-93.58,4.47-95.93,13.24,0,0,3.55,61.51,13.01,94.63,9.46,33.12,44.83,140.76,48.76,151.41s-1.31,21.29-2.62,27.21c-1.14,5.16,18.66,9.42,36.78,8.85,18.11.58,37.92-3.69,36.78-8.85-1.31-5.91-6.54-16.56-2.62-27.21,3.93-10.65,39.3-118.29,48.76-151.41Z"/>
    </clipPath>
    <clipPath id="clippath-1">
      <path class="cls-16" d="m186.56,178.28c9.46-33.12,13.01-94.63,13.01-94.63-18.44,18.44-75.9,23.34-95.93,24.51-20.03-1.17-77.49-6.07-95.93-24.51,0,0,3.55,61.51,13.01,94.63,9.46,33.12,44.83,140.76,48.76,151.41s-1.31,21.29-2.62,27.21c-1.14,5.16,18.66,9.42,36.78,8.85,18.11.58,37.92-3.69,36.78-8.85-1.31-5.91-6.54-16.56-2.62-27.21,3.93-10.65,39.3-118.29,48.76-151.41Z"/>
    </clipPath>
  </defs>
  <g id="_イラスト" data-name="イラスト">
    <g>
      <path class="cls-12" d="m163.81,367.94c0,12.62-26.94,22.85-60.16,22.85s-60.16-10.23-60.16-22.85,26.94-28.31,60.16-28.31,60.16,15.69,60.16,28.31Z"/>
      <g>
        <path class="cls-2" d="m186.56,178.28c9.46-33.12,13.01-94.63,13.01-94.63-2.35-8.77-62.22-14.27-95.93-13.24-33.71-1.03-93.58,4.47-95.93,13.24,0,0,3.55,61.51,13.01,94.63,9.46,33.12,44.83,140.76,48.76,151.41s-1.31,21.29-2.62,27.21c-1.14,5.16,18.66,9.42,36.78,8.85,18.11.58,37.92-3.69,36.78-8.85-1.31-5.91-6.54-16.56-2.62-27.21,3.93-10.65,39.3-118.29,48.76-151.41Z"/>
        <g class="cls-1">
          <path class="cls-11" d="m186.56,233.82c9.46-33.12,13.01-94.63,13.01-94.63-2.35-8.77-62.22-14.27-95.93-13.24-33.71-1.03-93.58,4.47-95.93,13.24,0,0,3.55,61.51,13.01,94.63,9.46,33.12,34.95,111.22,82.92,110.73,47.96.49,73.45-77.61,82.92-110.73Z"/>
        </g>
        <path class="cls-15" d="m186.56,178.28c9.46-33.12,13.01-94.63,13.01-94.63-2.35-8.77-62.22-14.27-95.93-13.24-33.71-1.03-93.58,4.47-95.93,13.24,0,0,3.55,61.51,13.01,94.63,9.46,33.12,44.83,140.76,48.76,151.41s-1.31,21.29-2.62,27.21c-1.14,5.16,18.66,9.42,36.78,8.85,18.11.58,37.92-3.69,36.78-8.85-1.31-5.91-6.54-16.56-2.62-27.21,3.93-10.65,39.3-118.29,48.76-151.41Z"/>
      </g>
      <rect class="cls-14" x="38.2" y="5.28" width="18.25" height="297.58" transform="translate(-38.26 17.5) rotate(-15)"/>
      <g>
        <g class="cls-18">
          <g>
            <path class="cls-9" d="m112.33,187.65c.85-2.97-1.16-25.19-3.24-26.97-.1-.08-.2-.14-.3-.13,0,0-.37.5-1.01,1.34l-15.59,17.24,1.85,35.6s14.98-15.51,18.29-27.07Z"/>
            <path class="cls-6" d="m108.79,160.55c-4.36-.74-20.89-2.28-31.54-2.61-1.79-.06-3.54.49-4.81,1.75l-15.43,15.33s21.11,1.69,35.17,4.11l15.59-17.24c.64-.83,1.01-1.34,1.01-1.34Z"/>
          </g>
        </g>
        <path class="cls-8" d="m57.02,175.02c-2.23,3.9,2.33,35.23,4.1,35.93,1.77.7,29.15,6.38,32.92,3.78l-1.85-35.6c-14.06-2.41-35.17-4.11-35.17-4.11Z"/>
      </g>
      <g>
        <g class="cls-18">
          <g>
            <path class="cls-9" d="m59.11,242.58c.05,3.09,8.39,23.78,10.89,24.88.12.05.23.08.32.04,0,0,.21-.59.58-1.57l9.95-21.01-12.06-33.54s-9.86,19.17-9.69,31.2Z"/>
            <path class="cls-6" d="m70.33,267.5c4.38-.55,20.66-3.85,30.95-6.61,1.73-.46,3.25-1.49,4.1-3.06l10.34-19.13s-20.7,4.48-34.86,6.23l-9.95,21.01c-.37.98-.58,1.57-.58,1.57Z"/>
          </g>
        </g>
        <path class="cls-8" d="m115.71,238.69c1.01-4.37-12.41-33.05-14.31-33.21-1.9-.16-29.75,2.32-32.6,5.9l12.06,33.54c14.16-1.75,34.86-6.23,34.86-6.23Z"/>
      </g>
      <g>
        <g class="cls-18">
          <g>
            <path class="cls-9" d="m122.8,232.99c2.84,1.22,25.13,2.07,27.16.24.1-.09.16-.18.17-.28,0,0-.45-.43-1.19-1.17l-15.1-17.67-35.54-2.72s13.46,16.85,24.51,21.61Z"/>
            <path class="cls-6" d="m150.13,232.95c1.29-4.22,4.94-20.42,6.63-30.94.28-1.77-.03-3.58-1.12-5l-13.23-17.26s-4.38,20.72-8.58,34.36l15.1,17.67c.74.74,1.19,1.17,1.19,1.17Z"/>
          </g>
        </g>
        <path class="cls-8" d="m142.41,179.75c-3.58-2.71-35.24-2.2-36.16-.53-.92,1.67-10.06,28.1-7.96,32.16l35.54,2.72c4.19-13.64,8.58-34.36,8.58-34.36Z"/>
      </g>
      <path class="cls-3" d="m186.56,178.28c9.46-33.12,13.01-94.63,13.01-94.63-18.44,18.44-75.9,23.34-95.93,24.51-20.03-1.17-77.49-6.07-95.93-24.51,0,0,3.55,61.51,13.01,94.63,9.46,33.12,44.83,140.76,48.76,151.41s-1.31,21.29-2.62,27.21c-1.14,5.16,18.66,9.42,36.78,8.85,18.11.58,37.92-3.69,36.78-8.85-1.31-5.91-6.54-16.56-2.62-27.21,3.93-10.65,39.3-118.29,48.76-151.41Z"/>
      <g>
        <path class="cls-13" d="m178.43,117.33c-2.35-5.39-10.84-14.96-11.97-18.26-2.67-7.86.55-11.76-6.82-15.35-26.59-12.94-13.7-19.37-16.06-28.55-2.89-11.24-5.83-11.82-14.35-19.83-12.66-11.91-24.73-21.65-35.1-35.33-.65,1.96-.26,3.75-.38,5.85-.74,13.05-7,22.45-15.19,32.22-3.85,4.58-7.18,7.39-9.91,12.64-2.19,4.23,8.67,14.13-6.19,15.61-7.87.79-19.27,9.89-18.56,18.31.7,8.44,1.37,12.9-3.45,20.34-5.46,8.43-10.78,14.89-8.39,25.52,2.03,9.02-11.44,16.51-3.25,20.89-1.3.47,30.05,10.18,30.96,4.07,10.55-.28,8.14,4.1,18.8,5.23,10.92,1.16,26.08,3.78,37.04,4.07,12.48.33,34.99-5.48,46.99-9.3,13.9-4.43,30.96-3.49,15.84-38.12Z"/>
        <path class="cls-10" d="m182.26,130.56s1.17,4.55-1.64,8.78c-1.75-6.48-7.82-10.31-14.21-12.75-3.6-1.38-7.31-2.31-10.38-3.03-3.92-.92-33.71-5.57-28.24-12.15.92-1.11,2.33-1.61,3.67-2.02,2.23-.67,40.62-2.58,38.87,1.88.19-.47,8.84,6.97,6.64.59-1.61-4.65-2.86-7.43-5.66-8.64-.26-.11-.54-.21-.82-.3-.5-1.72-2.45-4.91-2.92-10.83-1.11-13.95-17.14-13.37-23.77-19.18-6.63-5.81-16.58-10.46-8.29-4.07,8.29,6.39,9.4,13.37,18.24,25.57,5.14,7.09-6.66,4.91-9.85,4.42-6.2-.95-12.99-2.27-18.39-5.83-5.7-3.76-9.92-9.86-15.28-14.28-10.58-8.73-5.95-12.7,0-22.23,5.95-9.53-12.56-48.43-12.56-48.43.66,18.26,13.89,46.84,5.95,51.61-7.93,4.76-11.9,17.47,3.97,31.76,5.93,5.34,13.74,10.33,21.49,12.96,2.09.71,4.18,1.11,6.27,1.33-7.05-.73-15.46,3.77-23.25,3-7.66-.76-13.88-3.99-19.61-9.15-3.69-3.33-23.62-20.11-16.64-26.4,4.72-4.25,6.62-5.12,7.4-5.14-2.05-1.35-9.57-5.52-14.67,1.96-4.13,6.06,5.84,26.34,14.74,36.15-2.38-2.61-8.73-.35-11.56-.38-5.5-.06-10.43-2.55-15.58-4.49-2.41-.91-6.71-2.04-8.18-4.34-.51-.8-.58,2.8-.55,2.95.19,1.05,1.04,2.12,1.91,3.03-10.67,4.33-16.91,7.51-19.19,20.22-.96,5.35-.47,10.96,2.64,15.48,4.57,6.65,38.29,13.67,38.29,13.67,0,0-28.1-7.76-35.83-21.05-7.24-12.46,11.73-26.54,14.15-28.26.51.53,1.02,1.01,1.4,1.39,3.14,3.17,6.31,4.71,10.32,5.7-3.58,5.92-6.75,14.64-.62,20.53,9.91,9.52,59.44,21.41,59.44,21.41,0,0-52.83-16.65-53.16-28.55-.21-7.63,11.68-8.5,15.85-8.94,3.71-.4,7.44-.49,11.17-.43,2.3.04,4.57-.33,6.85-.57,2.53,1.88,20.45,14.72,41.74,17.45,13.07,1.68,21.25,2.02,25.87,2,5.38,2.23,9.13,4.27,10.19,5.93.39.62.78,1.2,1.23,1.71-3.12,3.51-9.51,6.43-22.37,5.77-15.6-.81-29.26,5.38-37.36,5.64-8.1.26-25.53,2.87-35.49.26,0,0,29.89,7.86,39.85,3.27,9.96-4.58,30.74,2.96,45.68-2.27,14.94-5.24,23.98-9.77,12.29-22.7Zm-79.26-17.22s.05,0,.07,0c0,0,.01,0,.02,0h-.09Z"/>
      </g>
      <g>
        <g class="cls-17">
          <path class="cls-7" d="m186.56,224.12c9.46-33.12,13.01-94.63,13.01-94.63-18.44,18.44-64.4,23.34-95.93,24.51-31.53-1.17-77.49-6.07-95.93-24.51,0,0,3.55,61.51,13.01,94.63,9.46,33.12,31.26,121.04,82.92,120.46,51.66.57,73.45-87.34,82.92-120.46Z"/>
        </g>
        <path class="cls-16" d="m186.56,178.28c9.46-33.12,13.01-94.63,13.01-94.63-18.44,18.44-75.9,23.34-95.93,24.51-20.03-1.17-77.49-6.07-95.93-24.51,0,0,3.55,61.51,13.01,94.63,9.46,33.12,44.83,140.76,48.76,151.41s-1.31,21.29-2.62,27.21c-1.14,5.16,18.66,9.42,36.78,8.85,18.11.58,37.92-3.69,36.78-8.85-1.31-5.91-6.54-16.56-2.62-27.21,3.93-10.65,39.3-118.29,48.76-151.41Z"/>
      </g>
      <path class="cls-5" d="m150.62,114.27s32.29-2.94,40.12-14.68c0,0-8.81,59.69-14.68,76.32-5.87,16.63-48.92,154.6-48.92,154.6,0,0-1.96,1.96-9.78,2.94,0,0,40.12-121.33,33.27-219.18Z"/>
      <path class="cls-10" d="m81.21,70.6c.38.21.59.34.59.34,0,0-.01-.35-.59-.34Z"/>
    </g>
  </g>
</svg>