<?xml version="1.0" encoding="UTF-8"?>
<svg xmlns="http://www.w3.org/2000/svg" xmlns:xlink="http://www.w3.org/1999/xlink" viewBox="0 0 543.94 466.27">
  <defs>
    <style>
      .cls-1, .cls-2, .cls-3, .cls-4, .cls-5, .cls-6, .cls-7, .cls-8, .cls-9, .cls-10, .cls-11, .cls-12, .cls-13, .cls-14, .cls-15, .cls-16, .cls-17, .cls-18, .cls-19, .cls-20, .cls-21, .cls-22, .cls-23, .cls-24, .cls-25, .cls-26, .cls-27, .cls-28, .cls-29, .cls-30, .cls-31, .cls-32 {
        stroke-width: 0px;
      }

      .cls-1, .cls-33 {
        mix-blend-mode: multiply;
      }

      .cls-1, .cls-26 {
        fill: #fef4d7;
      }

      .cls-2 {
        fill: url(#_名称未設定グラデーション_19);
      }

      .cls-3 {
        fill: url(#linear-gradient);
      }

      .cls-4 {
        fill: url(#radial-gradient);
      }

      .cls-5 {
        fill: url(#linear-gradient-11);
      }

      .cls-6 {
        fill: url(#linear-gradient-12);
      }

      .cls-7 {
        fill: url(#linear-gradient-10);
      }

      .cls-34 {
        fill: #dff1fa;
      }

      .cls-34, .cls-35 {
        stroke: #dff1fa;
        stroke-linecap: round;
        stroke-linejoin: round;
        stroke-width: 5.67px;
      }

      .cls-35 {
        fill: #ebf6fb;
      }

      .cls-8 {
        fill: url(#radial-gradient-2);
      }

      .cls-36, .cls-33 {
        opacity: .5;
      }

      .cls-9 {
        fill: url(#linear-gradient-4);
      }

      .cls-10 {
        fill: url(#linear-gradient-2);
      }

      .cls-11 {
        fill: url(#linear-gradient-3);
      }

      .cls-12 {
        fill: url(#linear-gradient-8);
      }

      .cls-13 {
        fill: url(#linear-gradient-9);
      }

      .cls-14 {
        fill: url(#linear-gradient-7);
      }

      .cls-15 {
        fill: url(#linear-gradient-5);
      }

      .cls-16 {
        fill: url(#linear-gradient-6);
      }

      .cls-37 {
        isolation: isolate;
      }

      .cls-17 {
        fill: #f7ecca;
      }

      .cls-18 {
        fill: #6fba2c;
      }

      .cls-19 {
        fill: #abcd03;
      }

      .cls-20 {
        fill: #d8e698;
      }

      .cls-21 {
        fill: #93431d;
      }

      .cls-22 {
        fill: #b5d233;
      }

      .cls-23 {
        fill: #b81c2b;
      }

      .cls-24 {
        fill: #946f46;
      }

      .cls-25 {
        fill: #fdf5e0;
      }

      .cls-27 {
        fill: #fffbc7;
      }

      .cls-28 {
        fill: #ffe55f;
      }

      .cls-29 {
        fill: #ffe893;
      }

      .cls-30 {
        fill: #fdd000;
      }

      .cls-31 {
        fill: #f5b2b2;
      }

      .cls-32 {
        fill: #6a4a31;
      }
    </style>
    <linearGradient id="linear-gradient" x1="50.06" y1="1380.09" x2="50.06" y2="1327.77" gradientTransform="translate(-866.88 -170.82) rotate(-70.01)" gradientUnits="userSpaceOnUse">
      <stop offset="0" stop-color="#f39800"/>
      <stop offset=".97" stop-color="#fdd000"/>
    </linearGradient>
    <linearGradient id="linear-gradient-2" x1="50.14" y1="1378.55" x2="50.14" y2="1326.63" xlink:href="#linear-gradient"/>
    <radialGradient id="radial-gradient" cx="241.19" cy="515.73" fx="241.19" fy="515.73" r="41.35" gradientTransform="translate(-245.25 -195.79) rotate(-19.85) scale(.96)" gradientUnits="userSpaceOnUse">
      <stop offset="0" stop-color="#ffe893"/>
      <stop offset="1" stop-color="#fffbc7"/>
    </radialGradient>
    <linearGradient id="linear-gradient-3" x1="354.75" y1="1106.16" x2="354.75" y2="1053.89" gradientTransform="translate(-562.78 -228.66) rotate(-46.32)" xlink:href="#linear-gradient"/>
    <linearGradient id="linear-gradient-4" x1="354.82" y1="1104.65" x2="354.82" y2="1052.73" gradientTransform="translate(-562.78 -228.66) rotate(-46.32)" xlink:href="#linear-gradient"/>
    <radialGradient id="radial-gradient-2" cx="-105.32" cy="1185.24" fx="-105.32" fy="1185.24" r="41.36" gradientTransform="translate(-715.97 -559.78) rotate(-50.33) scale(.96)" xlink:href="#radial-gradient"/>
    <radialGradient id="_名称未設定グラデーション_19" data-name="名称未設定グラデーション 19" cx="168.25" cy="-426.48" fx="168.25" fy="-426.48" r="63.59" gradientTransform="translate(-6.42 402.75) rotate(20) scale(.96)" gradientUnits="userSpaceOnUse">
      <stop offset=".03" stop-color="#ef857d"/>
      <stop offset=".07" stop-color="#ed746d"/>
      <stop offset=".12" stop-color="#eb635d"/>
      <stop offset=".17" stop-color="#ea5853"/>
      <stop offset=".23" stop-color="#ea5550"/>
      <stop offset=".26" stop-color="#e6504d"/>
      <stop offset=".42" stop-color="#d53742"/>
      <stop offset=".6" stop-color="#c9253a"/>
      <stop offset=".79" stop-color="#c21a35"/>
      <stop offset="1" stop-color="#c01734"/>
    </radialGradient>
    <linearGradient id="linear-gradient-5" x1="338.34" y1="669.07" x2="338.34" y2="777.13" gradientTransform="translate(-432.97 -254.99) rotate(-23.84)" gradientUnits="userSpaceOnUse">
      <stop offset="0" stop-color="#e60033"/>
      <stop offset="1" stop-color="#d80a30"/>
    </linearGradient>
    <linearGradient id="linear-gradient-6" x1="338.34" y1="670.68" x2="338.34" y2="775.52" gradientTransform="translate(-432.97 -254.99) rotate(-23.84)" gradientUnits="userSpaceOnUse">
      <stop offset="0" stop-color="#e60033"/>
      <stop offset="1" stop-color="#ea5550"/>
    </linearGradient>
    <linearGradient id="linear-gradient-7" x1="338.6" y1="768.78" x2="338.6" y2="679.83" gradientTransform="translate(-432.97 -254.99) rotate(-23.84)" gradientUnits="userSpaceOnUse">
      <stop offset="0" stop-color="#fadce2"/>
      <stop offset="1" stop-color="#f5b2b2"/>
    </linearGradient>
    <linearGradient id="linear-gradient-8" x1="338.4" y1="694.67" x2="338.4" y2="751.4" gradientTransform="translate(-432.97 -254.99) rotate(-23.84)" gradientUnits="userSpaceOnUse">
      <stop offset="0" stop-color="#e60033"/>
      <stop offset="1" stop-color="#f5b2b2"/>
    </linearGradient>
    <linearGradient id="linear-gradient-9" x1="254.07" y1="-363.66" x2="254.07" y2="-255.6" gradientTransform="translate(-95.52 503.53) rotate(16.16)" xlink:href="#linear-gradient-5"/>
    <linearGradient id="linear-gradient-10" x1="254.07" y1="-362.06" x2="254.07" y2="-257.21" gradientTransform="translate(-95.52 503.53) rotate(16.16)" xlink:href="#linear-gradient-6"/>
    <linearGradient id="linear-gradient-11" x1="254.33" y1="-263.95" x2="254.33" y2="-352.9" gradientTransform="translate(-95.52 503.53) rotate(16.16)" xlink:href="#linear-gradient-7"/>
    <linearGradient id="linear-gradient-12" x1="254.13" y1="-338.06" x2="254.13" y2="-281.33" gradientTransform="translate(-95.52 503.53) rotate(16.16)" xlink:href="#linear-gradient-8"/>
  </defs>
  <g class="cls-37">
    <g id="_レイヤー_2" data-name="レイヤー 2">
      <g id="_イラスト" data-name="イラスト">
        <g>
          <ellipse class="cls-34" cx="271.97" cy="422.88" rx="105.06" ry="40.55"/>
          <path class="cls-35" d="m309.3,430.04c-21.78,8.1-52.88,8.1-74.65,0,15.57-35.94,15.57-80.57,0-116.51,21.78-8.1,52.88-8.1,74.65,0-15.57,35.94-15.57,80.57,0,116.51Z"/>
          <path class="cls-35" d="m271.97,311.99c162.74,0,259.22-55.08,268.4-91.08-10.17-35.47-110.35-70.1-268.4-70.1S13.73,185.44,3.57,220.91c9.18,36,105.67,91.08,268.4,91.08Z"/>
          <g>
            <path class="cls-18" d="m445.29,228.24c-15.8,35.74-54.39,53.32-86.19,39.26-31.8-14.06-44.77-54.43-28.97-90.17,15.8-35.74,54.39-53.31,86.19-39.25,31.8,14.06,44.77,54.42,28.97,90.16"/>
            <path class="cls-19" d="m446.58,225.32c-15.8,35.74-54.39,53.31-86.19,39.26-31.8-14.06-44.77-54.43-28.97-90.17,15.8-35.74,54.38-53.31,86.18-39.25,31.8,14.06,44.77,54.43,28.97,90.16"/>
            <path class="cls-22" d="m408.01,162.67c-4.45,10.06-8.46,18.04-8.96,17.81-.5-.22,2.7-8.56,7.14-18.62,4.45-10.06,8.46-18.04,8.96-17.81.5.22-2.7,8.56-7.15,18.62"/>
            <path class="cls-22" d="m402.05,158.54c-3.89,10.27-7.47,18.46-7.99,18.29-.52-.17,2.21-8.65,6.11-18.92,3.89-10.28,7.47-18.47,7.99-18.29.52.18-2.21,8.65-6.1,18.93"/>
            <path class="cls-22" d="m395.08,156.66c-2.73,10.55-5.39,19.05-5.94,18.96-.55-.08,1.22-8.71,3.95-19.26,2.73-10.56,5.4-19.05,5.95-18.97.55.08-1.22,8.71-3.95,19.26"/>
            <path class="cls-22" d="m386.67,156.85c-.9,10.59-2.09,19.22-2.67,19.28-.58.06-.31-8.47.58-19.06.9-10.59,2.09-19.22,2.67-19.28.58-.06.31,8.47-.58,19.06"/>
            <path class="cls-22" d="m380.29,159.58c1.6,9.92,2.43,18.16,1.86,18.41-.57.25-2.33-7.59-3.92-17.51-1.6-9.92-2.43-18.16-1.86-18.41.57-.25,2.32,7.59,3.92,17.51"/>
            <path class="cls-22" d="m372.01,164.31c3.39,8.9,5.71,16.43,5.18,16.8-.54.37-3.72-6.54-7.12-15.45-3.4-8.9-5.72-16.43-5.18-16.8.53-.38,3.72,6.54,7.12,15.45"/>
            <path class="cls-22" d="m365.56,171.59c5.3,7.23,9.22,13.51,8.76,14.01-.47.51-5.14-4.95-10.44-12.19-5.3-7.24-9.22-13.51-8.76-14.01.47-.5,5.14,4.96,10.44,12.19"/>
            <path class="cls-22" d="m358.29,178.73c7.28,4.47,12.9,8.61,12.57,9.22-.34.62-6.51-2.5-13.79-6.97-7.28-4.47-12.9-8.61-12.56-9.23.34-.62,6.51,2.5,13.78,6.97"/>
            <path class="cls-22" d="m374.39,238.7c4.45-10.06,7.65-18.39,7.14-18.62-.5-.22-4.51,7.75-8.96,17.82-4.45,10.06-7.65,18.4-7.15,18.62.5.22,4.52-7.75,8.96-17.81"/>
            <path class="cls-22" d="m367.33,237.07c4.98-9.79,8.63-17.95,8.14-18.22-.48-.27-4.9,7.46-9.89,17.25-4.98,9.8-8.63,17.95-8.15,18.22.48.27,4.91-7.46,9.89-17.25"/>
            <path class="cls-22" d="m361.25,233.18c5.97-9.12,10.46-16.81,10.03-17.16-.43-.35-5.62,6.76-11.59,15.88-5.97,9.13-10.46,16.81-10.03,17.16.43.35,5.62-6.76,11.59-15.89"/>
            <path class="cls-22" d="m355.73,226.83c7.23-7.79,12.81-14.49,12.47-14.95-.34-.47-6.48,5.47-13.71,13.26-7.23,7.79-12.81,14.48-12.47,14.95.34.47,6.48-5.47,13.71-13.26"/>
            <path class="cls-22" d="m353.46,220.28c8.41-5.5,15.06-10.42,14.86-11.01-.2-.59-7.18,3.39-15.59,8.89-8.41,5.49-15.06,10.42-14.86,11.01.2.59,7.18-3.39,15.59-8.89"/>
            <path class="cls-22" d="m351.38,210.97c8.87-3.48,16-6.83,15.91-7.48-.08-.65-7.34,1.65-16.21,5.13-8.87,3.48-16,6.83-15.91,7.48.08.65,7.34-1.65,16.21-5.13"/>
            <path class="cls-22" d="m352.42,201.3c8.92-.95,16.2-2.27,16.26-2.95.06-.69-7.13-.47-16.05.48-8.92.95-16.2,2.27-16.26,2.96-.06.69,7.13.47,16.05-.48"/>
            <path class="cls-22" d="m353.79,190.15c8.21,2.37,15.05,3.75,15.28,3.08.24-.67-6.23-3.13-14.43-5.5-8.21-2.37-15.05-3.75-15.28-3.08-.23.67,6.23,3.13,14.44,5.5"/>
            <path class="cls-22" d="m412.75,163.27c-4.98,9.8-8.63,17.95-8.15,18.22.48.27,4.91-7.46,9.89-17.26,4.98-9.8,8.63-17.95,8.15-18.22-.48-.27-4.91,7.46-9.89,17.25"/>
            <path class="cls-22" d="m418.83,167.16c-5.97,9.13-10.46,16.81-10.03,17.16.43.35,5.62-6.76,11.59-15.88,5.97-9.12,10.46-16.81,10.03-17.16-.43-.35-5.62,6.76-11.59,15.89"/>
            <path class="cls-22" d="m424.35,173.51c-7.23,7.79-12.81,14.48-12.47,14.95.34.47,6.48-5.47,13.71-13.26,7.23-7.79,12.81-14.49,12.47-14.95-.34-.47-6.48,5.47-13.71,13.26"/>
            <path class="cls-22" d="m426.62,180.06c-8.41,5.49-15.06,10.42-14.87,11.01.21.59,7.18-3.39,15.59-8.89,8.41-5.49,15.06-10.42,14.87-11.01-.2-.59-7.18,3.39-15.59,8.89"/>
            <path class="cls-22" d="m428.7,189.37c-8.87,3.48-16,6.83-15.91,7.48.08.65,7.34-1.65,16.21-5.13,8.87-3.48,16-6.83,15.91-7.48-.08-.65-7.34,1.65-16.21,5.13"/>
            <path class="cls-22" d="m427.66,199.04c-8.92.95-16.2,2.27-16.26,2.95-.06.69,7.13.47,16.05-.48,8.92-.95,16.2-2.27,16.26-2.96.06-.68-7.13-.47-16.05.48"/>
            <path class="cls-22" d="m427.26,209.22c-8.21-2.37-15.05-3.75-15.28-3.08-.24.67,6.23,3.13,14.43,5.5,8.2,2.37,15.05,3.75,15.28,3.08.23-.67-6.23-3.13-14.44-5.5"/>
            <path class="cls-22" d="m378.03,241.8c3.89-10.27,7.47-18.46,7.99-18.29.52.18-2.21,8.65-6.11,18.93-3.89,10.28-7.47,18.46-7.99,18.29-.52-.18,2.21-8.65,6.11-18.93"/>
            <path class="cls-22" d="m385,243.68c2.73-10.56,5.39-19.05,5.94-18.96.55.08-1.22,8.7-3.95,19.26-2.73,10.55-5.39,19.05-5.95,18.97-.55-.08,1.22-8.71,3.95-19.26"/>
            <path class="cls-22" d="m393.41,243.49c.9-10.59,2.09-19.23,2.67-19.28.57-.06.31,8.47-.58,19.06-.9,10.59-2.09,19.22-2.67,19.29-.58.06-.31-8.47.58-19.06"/>
            <path class="cls-22" d="m399.79,240.76c-1.6-9.92-2.43-18.16-1.86-18.41.57-.24,2.32,7.6,3.92,17.51,1.59,9.92,2.43,18.16,1.86,18.41-.57.25-2.32-7.59-3.92-17.51"/>
            <path class="cls-22" d="m408.07,236.04c-3.4-8.9-5.71-16.43-5.18-16.81.53-.37,3.72,6.54,7.12,15.45,3.39,8.9,5.71,16.43,5.18,16.8-.54.38-3.72-6.54-7.12-15.45"/>
            <path class="cls-22" d="m414.52,228.75c-5.3-7.24-9.22-13.51-8.76-14.01.47-.5,5.14,4.96,10.45,12.19,5.3,7.24,9.22,13.51,8.76,14.01-.47.5-5.14-4.96-10.44-12.19"/>
            <path class="cls-22" d="m421.86,220.24c-7.28-4.47-12.9-8.6-12.56-9.23.34-.62,6.51,2.5,13.78,6.97,7.28,4.47,12.9,8.61,12.56,9.23-.34.62-6.51-2.5-13.78-6.97"/>
            <path class="cls-20" d="m412.61,210.3c-3.34,7.56-9.53,12.56-16.2,15.32-6.1,2.53-13.14,3.94-19.29,1.22-6.15-2.72-10.18-8.65-12.42-14.86-2.44-6.8-1.51-14.49,1.83-22.05,3.34-7.56,8.3-14.11,14.98-16.88,6.1-2.53,13.25-2.74,19.4-.02,6.15,2.72,9.73,8.87,11.97,15.08,2.45,6.8,3.08,14.62-.26,22.18"/>
            <path class="cls-32" d="m400.64,163.42c-.7,2.42-3.49,4.8-3.49,4.8,0,0-1.19-3.15-.5-5.57.7-2.42,2.04-3.81,3.14-3.6,1.1.21,1.54,1.95.84,4.37"/>
            <path class="cls-32" d="m359.93,188.16c1.53.45,2.59,2.93,2.59,2.93,0,0-2.44,1.47-3.97,1.03-1.53-.44-2.21-1.62-1.83-2.71.38-1.1,1.68-1.7,3.21-1.25"/>
            <path class="cls-32" d="m382.76,164.14c.47,2.39-.36,5.76-.36,5.76,0,0-1.89-2.08-2.35-4.47-.47-2.39-.16-4.22.59-4.58.75-.36,1.66.9,2.12,3.28"/>
            <path class="cls-32" d="m391.21,162.68c-.48,2.82-2.68,6.01-2.68,6.01,0,0-1.08-3.25-.6-6.07.48-2.82,1.53-4.63,2.43-4.61.91.01,1.33,1.85.84,4.67"/>
            <path class="cls-32" d="m376.48,167.94c1.04,1.84.4,5.61.4,5.61,0,0-3.01-.46-4.06-2.31-1.04-1.85-.89-3.78.12-4.69,1.01-.91,2.5-.46,3.54,1.39"/>
            <path class="cls-32" d="m362.56,181.71c1.94.76,3.51,3.19,3.51,3.19,0,0-2.86.72-4.8-.04-1.94-.75-2.9-1.94-2.55-2.81.36-.87,1.9-1.09,3.84-.33"/>
            <path class="cls-32" d="m368.25,174.37c1.77,1.45,2.69,4.8,2.69,4.8,0,0-3.14.05-4.92-1.4-1.77-1.45-2.42-3.15-1.81-4.09.61-.94,2.26-.77,4.04.68"/>
            <path class="cls-32" d="m358.79,220.25c2.1-1.78,5.28-2.27,5.28-2.27,0,0-1.6,3.57-3.69,5.35-2.09,1.78-3.8,2.24-4.24,1.39-.44-.85.56-2.69,2.66-4.47"/>
            <path class="cls-32" d="m384.34,237.2c.2-2.44-1.66-5-1.66-5,0,0-2.34,3.01-2.55,5.45-.2,2.45.6,3.92,1.76,3.79,1.16-.12,2.24-1.8,2.45-4.24"/>
            <path class="cls-32" d="m365.54,229.93c1.57-1.91,2.01-5.66,2.01-5.66,0,0-3.17.6-4.74,2.51-1.58,1.91-1.98,3.84-1.23,4.71.75.87,2.39.34,3.96-1.56"/>
            <path class="cls-32" d="m370.37,232.7c1.46-2.23,2.09-5.62,2.09-5.62,0,0-2.7,1.7-4.16,3.93-1.46,2.23-1.93,4.05-1.37,4.51.57.47,1.98-.59,3.44-2.83"/>
            <path class="cls-32" d="m376.33,236.38c.96-2.75.52-6.33.52-6.33,0,0-2.63,2.7-3.58,5.45-.96,2.75-.89,4.72-.04,4.97.85.25,2.15-1.33,3.11-4.08"/>
            <path class="cls-32" d="m356.17,218.38c1.96-1.19,3.54-4.75,3.54-4.75,0,0-2.9-.83-4.86.36-1.96,1.19-2.93,2.94-2.57,4.15.37,1.21,1.93,1.42,3.89.23"/>
            <path class="cls-32" d="m355.56,200.2c2.15.04,4.88-1.56,4.88-1.56,0,0-2.17-1.69-4.31-1.73-2.15-.04-3.66.67-3.81,1.58-.16.91,1.1,1.67,3.25,1.71"/>
            <path class="cls-32" d="m355.87,207.97c1.91-.43,4.07-2.49,4.07-2.49,0,0-2.18-1.06-4.08-.63-1.9.44-3.13,1.41-3.13,2.28,0,.86,1.23,1.28,3.14.84"/>
            <path class="cls-32" d="m420.86,207.11c-1.51-.44-2.56-2.89-2.56-2.89,0,0,2.41-1.46,3.92-1.02,1.51.44,2.18,1.59,1.81,2.68-.38,1.08-1.66,1.67-3.17,1.24"/>
            <path class="cls-32" d="m393.36,234.93c-.18-1.9,1.31-4.66,1.31-4.66,0,0,1.91,1.57,2.09,3.46.18,1.9-.46,3.39-1.4,3.72-.94.33-1.82-.63-2-2.52"/>
            <path class="cls-32" d="m399.52,233.07c-.46-2.39.36-5.76.36-5.76,0,0,1.89,2.08,2.35,4.47.46,2.39.16,4.22-.59,4.58-.75.36-1.66-.9-2.12-3.29"/>
            <path class="cls-32" d="m405.79,229.27c-1.04-1.84-.4-5.6-.4-5.6,0,0,3.01.46,4.05,2.3,1.04,1.85.9,3.78-.11,4.69-1.01.91-2.5.46-3.54-1.39"/>
            <path class="cls-32" d="m417.3,215.69c-1.94-.76-3.51-3.19-3.51-3.19,0,0,2.86-.71,4.8.04,1.94.75,2.9,1.95,2.55,2.82-.36.87-1.9,1.09-3.84.33"/>
            <path class="cls-32" d="m387.93,237.92c-.09-2.53,1.2-5.79,1.2-5.79,0,0,1.49,2.51,1.57,5.04.08,2.53-.48,4.33-1.25,4.54-.77.21-1.44-1.26-1.53-3.79"/>
            <path class="cls-32" d="m414.34,222.98c-1.77-1.44-2.69-4.8-2.69-4.8,0,0,3.14-.05,4.91,1.4,1.78,1.45,2.42,3.15,1.81,4.09-.62.94-2.26.77-4.04-.68"/>
            <path class="cls-32" d="m417.87,178.88c-2.1,1.78-5.28,2.27-5.28,2.27,0,0,1.6-3.57,3.7-5.35,2.09-1.78,3.8-2.24,4.24-1.39.44.85-.56,2.69-2.66,4.47"/>
            <path class="cls-32" d="m411.32,170.55c-1.71,1.74-2.47,5.49-2.47,5.49,0,0,3.14-.21,4.85-1.95,1.71-1.74,2.28-3.65,1.62-4.63-.66-.98-2.29-.65-4,1.09"/>
            <path class="cls-32" d="m420.06,179.89c-1.96,1.19-3.54,4.74-3.54,4.74,0,0,2.9.83,4.86-.36,1.96-1.19,2.93-2.94,2.57-4.15-.37-1.21-1.93-1.42-3.89-.23"/>
            <path class="cls-32" d="m422.67,195.74c-2.14-.04-4.87,1.56-4.87,1.56,0,0,2.16,1.69,4.31,1.73,2.14.04,3.65-.67,3.81-1.58.16-.91-1.1-1.67-3.25-1.71"/>
            <path class="cls-32" d="m422.07,188.69c-1.73.4-3.71,2.27-3.71,2.27,0,0,1.98.96,3.72.57,1.73-.4,2.85-1.29,2.85-2.07,0-.78-1.13-1.16-2.86-.77"/>
            <path class="cls-32" d="m405.06,167.2c-.86,1.94-.78,4.64-.78,4.64,0,0,2.04-1.76,2.9-3.7.86-1.95.94-3.41.36-3.67-.59-.26-1.61.79-2.48,2.73"/>
          </g>
          <g>
            <path class="cls-18" d="m487.72,264.22c-26.74,28.5-68.97,32.31-94.32,8.52-25.36-23.79-24.24-66.18,2.5-94.67,26.74-28.5,68.96-32.31,94.32-8.52,25.36,23.79,24.23,66.17-2.5,94.67"/>
            <path class="cls-19" d="m489.91,261.9c-26.74,28.5-68.97,32.31-94.32,8.52-25.35-23.79-24.23-66.18,2.51-94.67,26.73-28.49,68.96-32.31,94.32-8.52,25.35,23.79,24.24,66.18-2.5,94.67"/>
            <path class="cls-22" d="m474.24,190.01c-7.52,8.02-13.95,14.22-14.35,13.84-.4-.37,5.38-7.18,12.9-15.2,7.53-8.02,13.95-14.22,14.35-13.84.4.38-5.38,7.18-12.9,15.2"/>
            <path class="cls-22" d="m469.99,184.15c-7.07,8.41-13.16,14.95-13.59,14.61-.43-.34,4.95-7.43,12.02-15.83,7.08-8.41,13.16-14.95,13.59-14.61.43.34-4.95,7.43-12.02,15.84"/>
            <path class="cls-22" d="m464.03,180.07c-6.07,9.06-11.39,16.19-11.89,15.93-.49-.26,4.03-7.81,10.1-16.87,6.07-9.06,11.39-16.19,11.89-15.93.49.26-4.03,7.81-10.1,16.87"/>
            <path class="cls-22" d="m456.03,177.46c-4.35,9.7-8.33,17.45-8.9,17.32-.56-.13,2.51-8.1,6.86-17.8,4.35-9.69,8.34-17.45,8.9-17.31.56.13-2.51,8.1-6.86,17.79"/>
            <path class="cls-22" d="m449.11,177.93c-1.78,9.89-3.72,17.94-4.33,17.98-.62.04.32-7.93,2.1-17.82,1.77-9.89,3.72-17.94,4.33-17.98.62-.04-.32,7.94-2.1,17.82"/>
            <path class="cls-22" d="m439.73,179.65c.26,9.52-.05,17.39-.67,17.57-.63.18-1.35-7.41-1.6-16.93-.26-9.53.04-17.39.67-17.57.63-.18,1.35,7.4,1.61,16.93"/>
            <path class="cls-22" d="m431.23,184.38c2.61,8.58,4.23,15.8,3.63,16.12-.61.32-3.21-6.37-5.82-14.96-2.61-8.58-4.23-15.8-3.63-16.12.61-.32,3.21,6.38,5.82,14.96"/>
            <path class="cls-22" d="m422.01,188.72c5.39,6.63,9.33,12.39,8.8,12.86-.53.48-5.32-4.51-10.7-11.14-5.39-6.63-9.32-12.39-8.8-12.86.53-.48,5.31,4.51,10.7,11.14"/>
            <path class="cls-22" d="m417.36,250.64c7.53-8.02,13.3-14.83,12.9-15.2-.4-.37-6.83,5.82-14.35,13.85-7.53,8.02-13.31,14.83-12.9,15.2.4.37,6.83-5.82,14.35-13.84"/>
            <path class="cls-22" d="m411.24,246.76c7.94-7.59,14.08-14.09,13.72-14.5-.36-.41-7.1,5.42-15.04,13.01-7.94,7.6-14.08,14.09-13.72,14.5.36.41,7.1-5.41,15.04-13.01"/>
            <path class="cls-22" d="m406.79,241.08c8.65-6.63,15.43-12.4,15.14-12.87-.29-.48-7.54,4.52-16.19,11.15-8.65,6.64-15.43,12.4-15.14,12.88.29.47,7.54-4.52,16.19-11.16"/>
            <path class="cls-22" d="m403.67,233.26c9.4-4.96,16.89-9.43,16.72-9.98-.17-.56-7.92,3.02-17.33,7.98-9.4,4.96-16.88,9.43-16.71,9.98.17.55,7.92-3.02,17.32-7.98"/>
            <path class="cls-22" d="m403.7,226.33c9.75-2.4,17.66-4.85,17.67-5.47,0-.62-7.9.82-17.66,3.23-9.75,2.4-17.67,4.85-17.67,5.47,0,.62,7.9-.82,17.66-3.23"/>
            <path class="cls-22" d="m404.82,216.86c9.52-.35,17.36-1.15,17.49-1.79.14-.64-7.48-.87-17-.52-9.53.35-17.36,1.15-17.49,1.79-.14.64,7.47.87,17,.52"/>
            <path class="cls-22" d="m409.01,208.07c8.73,2.06,16.04,3.22,16.32,2.59.28-.63-6.57-2.8-15.3-4.86-8.73-2.06-16.04-3.22-16.32-2.59-.28.63,6.57,2.8,15.3,4.86"/>
            <path class="cls-22" d="m413.98,198c6.96,4.95,12.96,8.52,13.4,7.96.44-.55-4.84-5.02-11.8-9.97-6.96-4.95-12.96-8.52-13.4-7.96-.44.55,4.84,5.02,11.8,9.97"/>
            <path class="cls-22" d="m478.52,192.15c-7.94,7.59-14.08,14.09-13.72,14.5.37.41,7.1-5.42,15.04-13.01,7.94-7.6,14.08-14.08,13.71-14.49-.36-.41-7.1,5.41-15.04,13.01"/>
            <path class="cls-22" d="m482.97,197.83c-8.65,6.64-15.43,12.4-15.14,12.88.29.47,7.54-4.52,16.19-11.16,8.65-6.64,15.43-12.4,15.14-12.88-.29-.47-7.54,4.52-16.19,11.16"/>
            <path class="cls-22" d="m486.08,205.65c-9.4,4.96-16.88,9.43-16.71,9.98.17.55,7.92-3.02,17.32-7.98,9.4-4.96,16.88-9.43,16.72-9.98-.17-.55-7.93,3.02-17.32,7.98"/>
            <path class="cls-22" d="m486.05,212.59c-9.75,2.4-17.66,4.85-17.67,5.47,0,.62,7.9-.82,17.65-3.22,9.75-2.4,17.67-4.85,17.67-5.47,0-.62-7.9.82-17.65,3.23"/>
            <path class="cls-22" d="m484.94,222.06c-9.52.35-17.36,1.15-17.49,1.79-.14.64,7.47.88,17,.52,9.52-.35,17.35-1.15,17.49-1.79.14-.64-7.47-.87-17-.52"/>
            <path class="cls-22" d="m480.75,230.84c-8.73-2.06-16.04-3.22-16.32-2.59-.28.63,6.57,2.8,15.3,4.86,8.73,2.05,16.04,3.22,16.32,2.59.28-.63-6.57-2.8-15.3-4.86"/>
            <path class="cls-22" d="m477.01,240.32c-6.96-4.95-12.96-8.52-13.4-7.96-.44.55,4.84,5.02,11.8,9.97,6.96,4.95,12.96,8.52,13.4,7.96.44-.55-4.84-5.02-11.8-9.97"/>
            <path class="cls-22" d="m419.77,254.77c7.07-8.41,13.16-14.95,13.6-14.61.43.34-4.95,7.43-12.03,15.84-7.08,8.41-13.16,14.95-13.59,14.61-.43-.34,4.95-7.43,12.03-15.84"/>
            <path class="cls-22" d="m425.72,258.85c6.07-9.06,11.39-16.19,11.89-15.93.49.26-4.03,7.81-10.1,16.87-6.07,9.06-11.39,16.19-11.89,15.93-.49-.26,4.03-7.81,10.1-16.87"/>
            <path class="cls-22" d="m433.72,261.45c4.35-9.7,8.34-17.45,8.9-17.32.56.13-2.51,8.1-6.86,17.8-4.35,9.69-8.34,17.45-8.9,17.32-.56-.13,2.51-8.1,6.86-17.8"/>
            <path class="cls-22" d="m440.64,260.99c1.78-9.89,3.72-17.94,4.34-17.99.62-.04-.32,7.94-2.1,17.82-1.78,9.89-3.72,17.94-4.34,17.98-.62.04.32-7.93,2.1-17.82"/>
            <path class="cls-22" d="m450.02,259.27c-.26-9.53.05-17.4.67-17.57.63-.18,1.35,7.4,1.6,16.93.26,9.53-.04,17.39-.67,17.57-.63.18-1.35-7.4-1.6-16.93"/>
            <path class="cls-22" d="m458.52,254.53c-2.61-8.58-4.23-15.8-3.63-16.12.61-.32,3.21,6.38,5.82,14.96,2.61,8.58,4.23,15.8,3.62,16.12-.61.32-3.21-6.38-5.82-14.96"/>
            <path class="cls-22" d="m468.26,248.93c-5.39-6.63-9.33-12.39-8.8-12.86.52-.48,5.31,4.51,10.7,11.14,5.39,6.63,9.33,12.39,8.8,12.87-.53.48-5.32-4.51-10.7-11.14"/>
            <path class="cls-20" d="m462.82,236.48c-5.66,6.03-13.15,8.69-20.36,9.1-6.59.37-13.7-.64-18.61-5.24-4.9-4.6-6.75-11.53-6.8-18.13-.05-7.23,3.37-14.17,9.03-20.2,5.66-6.03,12.5-10.57,19.72-10.97,6.59-.37,13.41,1.8,18.31,6.4,4.9,4.6,6.25,11.59,6.3,18.2.06,7.23-1.93,14.82-7.59,20.85"/>
            <path class="cls-32" d="m467.04,188.28c-1.46,2.05-4.88,3.38-4.88,3.38,0,0-.08-3.37,1.38-5.42,1.46-2.06,3.19-2.92,4.15-2.36.97.56.81,2.35-.65,4.4"/>
            <path class="cls-32" d="m420.44,198.16c1.3.93,1.48,3.62,1.48,3.62,0,0-2.79.58-4.09-.34-1.3-.93-1.55-2.26-.83-3.16.72-.91,2.14-1.05,3.44-.12"/>
            <path class="cls-32" d="m449.93,183.04c-.35,2.41-2.25,5.32-2.25,5.32,0,0-1.09-2.59-.74-5,.35-2.41,1.25-4.04,2.07-4.12.83-.09,1.27,1.39.92,3.8"/>
            <path class="cls-32" d="m458.39,184.46c-1.39,2.5-4.52,4.78-4.52,4.78,0,0,.05-3.42,1.44-5.93,1.39-2.5,2.98-3.86,3.82-3.54.85.31.64,2.19-.75,4.69"/>
            <path class="cls-32" d="m442.75,184.55c.37,2.08-1.48,5.42-1.48,5.42,0,0-2.69-1.43-3.06-3.52-.37-2.09.41-3.86,1.66-4.38,1.25-.53,2.51.4,2.88,2.48"/>
            <path class="cls-32" d="m425.05,192.94c1.58,1.35,2.25,4.17,2.25,4.17,0,0-2.94-.27-4.51-1.63-1.58-1.35-2.1-2.8-1.47-3.5.62-.7,2.15-.4,3.73.96"/>
            <path class="cls-32" d="m432.85,187.89c1.2,1.95.94,5.42.94,5.42,0,0-2.98-.99-4.18-2.94-1.19-1.95-1.25-3.77-.35-4.46.89-.68,2.39.02,3.58,1.98"/>
            <path class="cls-32" d="m408.75,228.06c2.57-.99,5.73-.4,5.73-.4,0,0-2.69,2.84-5.26,3.83-2.57.99-4.33.85-4.46-.09-.13-.95,1.42-2.35,3.99-3.34"/>
            <path class="cls-32" d="m427.25,252.51c1-2.24.09-5.27.09-5.27,0,0-3.2,2.06-4.21,4.3-1,2.24-.73,3.9.41,4.16,1.14.27,2.71-.96,3.71-3.19"/>
            <path class="cls-32" d="m411.91,239.43c2.12-1.28,3.77-4.68,3.77-4.68,0,0-3.19-.48-5.31.8-2.12,1.28-3.14,2.97-2.72,4.04.42,1.07,2.14,1.11,4.26-.17"/>
            <path class="cls-32" d="m415.55,243.64c2.11-1.62,3.83-4.61,3.83-4.61,0,0-3.11.71-5.23,2.33-2.12,1.62-3.16,3.18-2.78,3.81.39.63,2.06.1,4.18-1.53"/>
            <path class="cls-32" d="m419.96,249.09c1.81-2.28,2.58-5.81,2.58-5.81,0,0-3.37,1.68-5.18,3.95-1.81,2.28-2.4,4.16-1.68,4.67.72.51,2.47-.55,4.29-2.82"/>
            <path class="cls-32" d="m406.89,225.43c2.25-.48,4.91-3.31,4.91-3.31,0,0-2.46-1.75-4.71-1.27-2.25.48-3.74,1.81-3.8,3.07-.06,1.26,1.35,1.98,3.6,1.5"/>
            <path class="cls-32" d="m412.33,208.07c2.01.75,5.12.14,5.12.14,0,0-1.48-2.31-3.49-3.06-2.01-.75-3.67-.58-4.12.23-.45.81.48,1.94,2.5,2.69"/>
            <path class="cls-32" d="m410.05,215.5c1.94.22,4.67-1,4.67-1,0,0-1.7-1.72-3.64-1.94-1.94-.22-3.42.3-3.7,1.11-.28.81.74,1.61,2.68,1.83"/>
            <path class="cls-32" d="m471.67,236.2c-1.28-.91-1.46-3.58-1.46-3.58,0,0,2.76-.58,4.04.33,1.28.92,1.53,2.23.82,3.13-.71.9-2.12,1.03-3.4.12"/>
            <path class="cls-32" d="m436.51,253.35c.45-1.85,2.78-3.97,2.78-3.97,0,0,1.28,2.11.83,3.96-.46,1.85-1.56,3.05-2.55,3.05-1,0-1.51-1.19-1.06-3.04"/>
            <path class="cls-32" d="m442.94,253.64c.35-2.41,2.25-5.32,2.25-5.32,0,0,1.09,2.59.74,5-.35,2.41-1.25,4.04-2.07,4.13-.83.09-1.27-1.4-.91-3.8"/>
            <path class="cls-32" d="m450.11,252.13c-.37-2.08,1.48-5.42,1.48-5.42,0,0,2.69,1.43,3.06,3.51.37,2.09-.4,3.86-1.66,4.39-1.25.53-2.51-.4-2.88-2.48"/>
            <path class="cls-32" d="m465.47,243.12c-1.58-1.35-2.25-4.17-2.25-4.17,0,0,2.94.27,4.51,1.63,1.58,1.35,2.09,2.8,1.47,3.5-.63.7-2.15.4-3.73-.96"/>
            <path class="cls-32" d="m430.4,254.38c.76-2.42,3.05-5.07,3.05-5.07,0,0,.57,2.86-.18,5.28-.76,2.42-1.89,3.93-2.68,3.87-.79-.06-.95-1.67-.19-4.08"/>
            <path class="cls-32" d="m460.26,249.02c-1.2-1.95-.94-5.42-.94-5.42,0,0,2.98.99,4.18,2.94,1.2,1.95,1.25,3.77.35,4.46-.89.68-2.39-.02-3.58-1.98"/>
            <path class="cls-32" d="m478.19,208.58c-2.57.99-5.73.39-5.73.39,0,0,2.69-2.84,5.26-3.83,2.56-.99,4.33-.86,4.46.09.13.95-1.42,2.35-3.98,3.34"/>
            <path class="cls-32" d="m474.76,198.55c-2.19,1.07-4.14,4.36-4.14,4.36,0,0,3.03.84,5.22-.23,2.18-1.08,3.36-2.69,3.06-3.83-.3-1.14-1.95-1.37-4.14-.3"/>
            <path class="cls-32" d="m479.92,210.25c-2.25.48-4.91,3.31-4.91,3.31,0,0,2.46,1.75,4.71,1.27,2.25-.47,3.74-1.81,3.8-3.07.05-1.26-1.35-1.98-3.6-1.5"/>
            <path class="cls-32" d="m477.14,226.07c-2.01-.75-5.12-.14-5.12-.14,0,0,1.48,2.31,3.49,3.06,2.01.75,3.67.58,4.12-.23.45-.81-.49-1.94-2.5-2.69"/>
            <path class="cls-32" d="m478.91,219.22c-1.77-.2-4.25.92-4.25.92,0,0,1.55,1.57,3.32,1.77,1.76.2,3.12-.27,3.37-1.02.26-.74-.68-1.47-2.44-1.67"/>
            <path class="cls-32" d="m469.96,193.31c-1.46,1.55-2.27,4.12-2.27,4.12,0,0,2.51-.98,3.96-2.53,1.46-1.55,2.02-2.91,1.55-3.35-.47-.44-1.78.21-3.24,1.76"/>
          </g>
          <g>
            <path class="cls-3" d="m422.23,190.94c.47.17.92.45,1.4.65.46.2.96.36,1.43.59.45.23.76.73,1.22.99.44.25,1.09.16,1.53.44.43.27.6.94,1.03,1.24.42.29,1.06.28,1.47.59.41.31.62.87,1.02,1.2.39.32.81.61,1.2.95.38.34.68.77,1.05,1.12.37.35,1.02.42,1.39.79.36.36.67.78,1.03,1.16.35.37.6.84.94,1.23.34.38.72.73,1.05,1.13.32.39.83.66,1.14,1.07.31.4.3,1.06.61,1.47.3.41.89.63,1.18,1.05.29.42.65.81.93,1.24.28.43.14,1.12.41,1.56.26.44.67.79.92,1.24.25.44.43.93.67,1.38.24.45.65.82.87,1.28.23.46.26,1.01.48,1.48.21.47.32.97.53,1.45.2.47.78.79.96,1.27.19.48.1,1.06.27,1.55.17.48.24,1,.4,1.49.16.49.56.9.71,1.39.14.49.06,1.05.19,1.55.13.5.61.91.72,1.41.12.5-.28,1.11-.18,1.62.1.5.68.92.76,1.43.08.51-.03,1.05.04,1.56.07.51.19,1.01.25,1.53.05.51-.26,1.05-.22,1.57.04.51.49,1,.52,1.51.02.51-.08,1.03-.07,1.55,0,.51-.07,1.03-.08,1.54,0,.51.22,1.04.19,1.55-.02.51,0,1.04-.04,1.55-.04.51-.45.99-.5,1.51-.06.51.28,1.07.21,1.59-.07.51-.53.96-.62,1.47-.09.5.1,1.07,0,1.57-.1.5-.42.96-.54,1.46-.12.5-.32.98-.45,1.48-.13.49-.18,1.01-.33,1.51-.15.49-.13,1.04-.29,1.53-.16.49-.76.82-.93,1.31-.18.49-.3.98-.49,1.46-.19.48.07,1.15-.13,1.62-.2.48-.44.94-.65,1.41-.22.47-.81.76-1.04,1.21-.23.46-.22,1.05-.46,1.5-.25.46-.74.77-1,1.21-.26.45-.63.82-.9,1.26-.27.44-.31,1.02-.6,1.45-.29.43-.46.94-.76,1.36-.3.42-.68.79-.99,1.2-.31.41-.82.66-1.15,1.06-.33.4-.58.85-.92,1.24-.34.39-.47.96-.82,1.34-.35.38-1.02.45-1.38.82-.36.37-.49.96-.86,1.32-.37.36-.64.84-1.02,1.18-.38.35-.97.47-1.36.8-.39.33-.77.68-1.17,1-.4.32-.87.56-1.28.87-.41.31-.68.82-1.09,1.12-.42.3-.96.43-1.38.71-.43.29-.79.68-1.22.96-.44.27-.9.51-1.34.77-.45.26-.89.52-1.34.77-.45.25-.97.37-1.43.6-.46.23-.91.48-1.37.7-.47.22-1.02.25-1.49.45-.47.21-.85.63-1.32.83-.48.2-1.03.2-1.51.38-.48.18-.85.68-1.34.84-.49.17-1.04.14-1.53.29-.49.15-.95.44-1.44.58-.5.14-1,.27-1.49.39-.5.12-.97.4-1.47.5-.51.11-1.1-.22-1.6-.13-.51.09-1,.22-1.51.3-.51.08-1,.25-1.51.31-.51.06-1.02.16-1.53.21-.52.05-1.05-.19-1.56-.17-.52.03-1.02.13-1.53.14-.52.01-1.03.05-1.53.04-.52,0-1.03.09-1.54.06-.52-.03-1.06.22-1.56.17-.52-.05-.98-.54-1.48-.61-.52-.07-1.08.22-1.58.13-.51-.09-.93-.59-1.43-.7-.51-.12-1.06,0-1.54-.15-.5-.15-1.06-.09-1.54-.27-.51-.19-.83-.76-1.26-.96-.5-.24-.97-.4-1.37-.66-.46-.31-.74-.72-1.06-1.06-.38-.39-.81-.66-1.01-1.1-.22-.46-.11-.97-.16-1.48-.04-.48-.15-.94-.06-1.47.08-.47.19-.95.38-1.46.16-.45.02-1.07.25-1.56.21-.44.69-.77.95-1.23.24-.42.67-.75.96-1.2.26-.41.42-.92.71-1.35.28-.41.35-.98.66-1.4.29-.4.95-.55,1.25-.97.3-.4.56-.84.87-1.25.3-.4.66-.76.97-1.17.3-.4.42-.95.73-1.36.31-.4.84-.63,1.15-1.04.31-.4.53-.87.84-1.28.3-.4.62-.8.93-1.22.3-.4.55-.85.86-1.27.3-.4.69-.76.99-1.17.3-.41.54-.86.84-1.27.29-.41.6-.82.89-1.23.29-.41.34-.99.63-1.42.29-.42.62-.8.91-1.23.28-.42.85-.66,1.12-1.09.27-.43.55-.86.82-1.29.27-.43.34-.99.6-1.43.26-.44.37-.96.63-1.41.25-.44.77-.73,1.02-1.18.25-.44.56-.86.8-1.31.24-.45,0-1.15.23-1.6.23-.46.61-.83.83-1.29.22-.46.36-.96.57-1.43.21-.46.81-.76,1.01-1.23.2-.47.07-1.08.26-1.56.19-.48.61-.86.79-1.35.17-.48.43-.94.59-1.42.16-.48.15-1.03.3-1.51.15-.49.14-1.03.28-1.52.14-.49.62-.89.75-1.39.13-.5-.02-1.06.1-1.56.12-.5.18-1.01.28-1.5.11-.5.53-.94.63-1.43.1-.5.07-1.03.16-1.53.09-.5-.12-1.06-.04-1.56.08-.51.52-.96.59-1.46.07-.51-.35-1.08-.29-1.58.06-.51.54-.96.6-1.47.06-.51-.29-1.06-.24-1.56.05-.51.12-1.01.17-1.52.04-.51.25-1,.29-1.51.04-.51.2-1.01.23-1.51.03-.51.19-1.01.22-1.52.03-.51.05-1.02.08-1.53.03-.51-.4-1.05-.37-1.55.02-.52.31-1.01.34-1.51.02-.52-.24-1.04-.22-1.54.02-.52.15-1.02.17-1.52.02-.52.35-1.01.38-1.51.03-.52-.21-1.04-.18-1.54.03-.52-.05-1.04,0-1.54.04-.52.55-.99.6-1.48.05-.52.03-1.03.1-1.52.07-.53-.25-1.1-.16-1.58.09-.53.32-1.02.44-1.49.13-.52.25-1.04.41-1.49.19-.51.56-.91.81-1.33.27-.46.45-1.01.8-1.35.37-.36.86-.66,1.33-.87.44-.2,1.01-.07,1.55-.12.47-.05.98-.24,1.53-.18.47.05.91.41,1.44.55.46.12,1.01.05,1.52.24Z"/>
            <path class="cls-10" d="m420.94,190.56c16.27,5.92,35.52,33.22,24.75,62.82-10.77,29.6-43.06,38.15-59.33,32.23-16.27-5.92,9.75-20.55,19.3-46.8,9.55-26.25-.99-54.17,15.28-48.26Z"/>
            <g>
              <path class="cls-30" d="m395.18,273.13c-.39-4.03-.46-7.31-.17-7.33.29-.02.84,3.22,1.23,7.25.39,4.03.46,7.31.17,7.33-.29.02-.84-3.22-1.23-7.25Z"/>
              <path class="cls-30" d="m400.71,269.53c-1.18-4.59-1.87-8.37-1.53-8.44.33-.07,1.56,3.6,2.74,8.19,1.18,4.59,1.87,8.37,1.53,8.44-.33.07-1.56-3.6-2.74-8.19Z"/>
              <path class="cls-30" d="m406.53,266.46c-2.47-4.74-4.2-8.71-3.85-8.85.34-.14,2.63,3.59,5.1,8.33,2.47,4.74,4.2,8.71,3.85,8.85-.34.14-2.63-3.59-5.1-8.33Z"/>
              <path class="cls-30" d="m411.1,260.65c-3.63-4.14-6.34-7.67-6.04-7.88.3-.21,3.48,2.98,7.12,7.13,3.63,4.14,6.34,7.67,6.04,7.88-.3.21-3.48-2.98-7.12-7.13Z"/>
              <path class="cls-30" d="m416.43,256.79c-4.93-3.31-8.73-6.22-8.49-6.51.24-.28,4.43,2.17,9.36,5.48,4.93,3.31,8.73,6.22,8.49,6.51-.24.28-4.43-2.17-9.36-5.48Z"/>
              <path class="cls-30" d="m419.71,251.43c-5.43-2.73-9.68-5.19-9.49-5.5.19-.31,4.75,1.65,10.18,4.38s9.68,5.19,9.49,5.5c-.19.31-4.75-1.65-10.18-4.38Z"/>
              <path class="cls-30" d="m423.37,245.95c-5.83-2.05-10.45-3.97-10.32-4.31.13-.33,4.95,1.06,10.78,3.1,5.83,2.05,10.45,3.97,10.32,4.31-.13.33-4.95-1.06-10.78-3.1Z"/>
            </g>
            <g>
              <path class="cls-30" d="m417.62,205.11c-2.57,3.12-4.47,5.8-4.24,5.98s2.5-2.2,5.07-5.32c2.57-3.12,4.47-5.8,4.24-5.98-.23-.18-2.5,2.2-5.07,5.32Z"/>
              <path class="cls-30" d="m420.2,211.18c-3.55,3.15-6.23,5.9-5.99,6.14.24.24,3.3-2.11,6.85-5.26,3.55-3.15,6.23-5.9,5.99-6.14-.24-.24-3.3,2.11-6.85,5.26Z"/>
              <path class="cls-30" d="m423.6,215.75c-4.7,2.55-8.35,4.87-8.14,5.18.2.31,4.18-1.51,8.88-4.06,4.7-2.55,8.35-4.87,8.14-5.18-.2-.31-4.18,1.5-8.88,4.06Z"/>
              <path class="cls-30" d="m424.63,221.2c-5.33,1.4-9.54,2.82-9.41,3.15.13.34,4.56-.53,9.88-1.93,5.33-1.4,9.54-2.82,9.41-3.15-.13-.34-4.56.53-9.88,1.93Z"/>
              <path class="cls-30" d="m426.89,227.38c-5.94-.01-10.72.28-10.68.65.04.37,4.89.68,10.83.69,5.94.01,10.72-.28,10.68-.65-.04-.37-4.89-.68-10.83-.69Z"/>
              <path class="cls-30" d="m426,233.5c-5.98-1.09-10.85-1.68-10.89-1.32-.03.36,4.78,1.54,10.76,2.63,5.98,1.09,10.85,1.68,10.89,1.32.03-.36-4.78-1.54-10.76-2.63Z"/>
              <path class="cls-30" d="m424.51,238.81c-5.89-1.87-10.74-3.11-10.84-2.77-.1.34,4.59,2.14,10.48,4.01s10.74,3.11,10.84,2.77c.1-.34-4.59-2.14-10.47-4.01Z"/>
            </g>
          </g>
          <g>
            <ellipse class="cls-29" cx="142.57" cy="197.79" rx="42.1" ry="60.28" transform="translate(-58.7 60.17) rotate(-19.85)"/>
            <ellipse class="cls-27" cx="139.98" cy="190.61" rx="42.1" ry="60.28" transform="translate(-56.41 58.86) rotate(-19.85)"/>
            <path class="cls-4" d="m170.16,179.71c-9.93,11.51-9.62,18.57,2.19,33.75-14.91-3.68-18.32.76-16.77,20.36-11.33-16.07-16.79-17.31-25.91-4.95-.61-19.23-4.89-24.86-19.87-27.37,9.93-11.51,9.62-18.57-2.19-33.75,14.91,3.68,18.32-.76,16.77-20.37,11.33,16.07,16.79,17.31,25.91,4.95.61,19.23,4.89,24.86,19.87,27.37Z"/>
            <g class="cls-33">
              <g>
                <path class="cls-29" d="m134.44,219.78c2.86-.4,7.64-26.45,5.03-28.12-2.61-1.67-25.78,6.7-26.87,9.7-1.09,3,17.97-2.94,22.01-4.15,0,0-3.03,22.96-.17,22.57Z"/>
                <path class="cls-29" d="m162.88,209.52c-2.45,1.52-22.78-15.47-21.83-18.42.94-2.95,24.11-11.31,26.87-9.7,2.75,1.61-15.71,9.22-19.58,10.87,0,0,17,15.73,14.55,17.25Z"/>
              </g>
              <path class="cls-29" d="m144.79,162.06c2.54,1.36-2.01,27.46-5.03,28.12s-21.85-15.23-21.83-18.42c.02-3.19,15.84,8.99,19.2,11.53,0,0,5.13-22.59,7.67-21.23Z"/>
            </g>
            <path class="cls-24" d="m147.37,185.02c-1.03.64-2.86.32-2.86.32,0,0,.52-1.78,1.55-2.42,1.03-.64,1.99-.58,2.35,0,.36.58,0,1.47-1.04,2.11Z"/>
            <path class="cls-24" d="m142.97,200.61c-.45-1.13.19-2.87.19-2.87,0,0,1.67.82,2.12,1.95.45,1.13.23,2.06-.41,2.31-.64.26-1.44-.26-1.89-1.39Z"/>
            <path class="cls-24" d="m130.58,188.53c1.21-.04,2.64,1.16,2.64,1.16,0,0-1.34,1.29-2.55,1.32-1.21.04-2.01-.49-2.03-1.18-.02-.69.74-1.27,1.95-1.3Z"/>
          </g>
          <g>
            <path class="cls-11" d="m484.73,211c.37.35.67.77,1.03,1.15.34.37.73.72,1.06,1.12.32.39.43.95.74,1.37.3.41.9.61,1.19,1.05.28.42.22,1.07.49,1.52.27.43.82.7,1.07,1.16.25.44.25,1.02.48,1.49.23.45.5.89.71,1.36.22.46.33.97.53,1.45.2.47.72.81.91,1.29.18.48.31.98.48,1.47.17.48.23,1,.38,1.5.15.49.36.96.5,1.46.14.49.47.94.59,1.44.12.5-.1,1.08.01,1.58.11.5.52.94.62,1.45.09.5.26,1,.34,1.51.08.51-.26,1.08-.2,1.59.07.51.28,1,.33,1.51.05.51.03,1.03.07,1.54.04.51.24,1.01.26,1.53.02.51-.14,1.03-.13,1.55,0,.51-.08,1.02-.09,1.54,0,.51.34,1.04.32,1.55-.02.51-.3,1.01-.34,1.53-.04.51-.17,1.01-.22,1.53-.05.51.12,1.05.06,1.56-.07.51-.34.99-.42,1.5-.08.51.15,1.07.05,1.58-.1.5-.64.92-.75,1.42-.11.5.19,1.1.07,1.6-.13.5-.42.95-.57,1.45-.14.49-.24,1-.4,1.49-.16.49-.62.87-.79,1.36-.17.48,0,1.09-.18,1.58-.18.48-.47.92-.67,1.39-.2.47-.47.91-.68,1.38-.21.47-.24,1.02-.47,1.49-.23.46-.42.94-.67,1.4-.24.45-.77.75-1.03,1.2-.26.44-.22,1.07-.49,1.51-.27.44-.83.69-1.12,1.12-.28.43-.36,1-.66,1.42-.3.42-.75.73-1.06,1.14-.31.41-.68.77-1,1.18-.32.4-.58.85-.92,1.24-.33.39-.55.89-.9,1.27-.34.38-.99.49-1.34.86-.36.37-.67.78-1.04,1.14-.37.36-.44,1.04-.81,1.39-.38.35-.78.69-1.16,1.03-.39.34-1.02.4-1.41.73-.4.33-.64.85-1.05,1.16-.41.32-.97.43-1.38.73-.42.3-.89.51-1.32.8-.43.29-.71.78-1.15,1.06-.44.28-.81.66-1.25.92-.44.27-.93.46-1.38.71-.45.25-1.01.3-1.46.54-.46.24-.88.54-1.35.76-.47.22-.83.66-1.3.87-.47.21-1.1.05-1.57.24-.48.19-.85.65-1.33.83-.48.18-.92.49-1.41.66-.49.16-1.06.07-1.55.22-.49.15-.98.31-1.48.45-.5.13-1.02.18-1.52.29-.5.12-.96.45-1.46.56-.51.1-1.04.03-1.55.12-.51.09-1,.3-1.5.37-.51.07-1.03.11-1.54.17-.51.06-1.03.12-1.54.17-.51.05-1.04-.03-1.55,0-.52.03-1.03.08-1.54.09-.52.02-1.03-.16-1.54-.16-.52,0-1.03.21-1.55.2-.52-.01-1.02-.21-1.53-.24-.52-.03-1.05.24-1.56.19-.52-.04-1.01-.27-1.52-.32-.51-.06-1.04,0-1.55-.07-.51-.07-1.02-.15-1.53-.24-.51-.09-1.04-.05-1.55-.15-.51-.1-.93-.59-1.42-.71-.5-.12-1.01-.2-1.5-.33-.5-.13-1.02-.19-1.51-.33-.5-.15-1-.27-1.49-.43-.49-.16-.89-.57-1.37-.75-.49-.18-.98-.3-1.46-.49-.48-.2-.96-.37-1.42-.58-.47-.21-.98-.35-1.43-.57-.46-.23-1.04-.25-1.48-.5-.46-.25-.7-.85-1.14-1.11-.44-.27-1.06-.27-1.48-.55-.43-.29-.65-.87-1.05-1.18-.42-.31-.95-.46-1.33-.78-.4-.34-.92-.53-1.28-.88-.39-.38-.49-.99-.8-1.35-.36-.42-.73-.76-.98-1.16-.3-.47-.4-.95-.56-1.39-.19-.51-.45-.94-.47-1.42-.02-.51.26-.94.42-1.43.15-.46.26-.92.56-1.37.27-.4.56-.79.93-1.18.33-.35.48-.94.89-1.29.37-.31.92-.45,1.35-.77.39-.29.91-.44,1.34-.73.41-.27.76-.66,1.21-.94.42-.26.73-.73,1.18-.99.43-.25,1.06-.17,1.52-.43.43-.25.85-.54,1.3-.79.43-.24.91-.44,1.36-.69.44-.24.78-.67,1.23-.92.44-.24,1-.27,1.46-.52.44-.24.84-.57,1.29-.82.44-.24.89-.49,1.34-.74.44-.25.85-.55,1.3-.81.44-.25.92-.42,1.36-.68.43-.25.84-.56,1.28-.82.43-.26.88-.51,1.31-.77.43-.26.73-.74,1.17-1.02.43-.27.89-.49,1.32-.77.43-.27,1.02-.3,1.45-.58.42-.28.85-.56,1.27-.85.42-.29.72-.75,1.14-1.04.41-.29.74-.72,1.15-1.02.41-.3.98-.39,1.39-.7.4-.31.85-.57,1.25-.88.4-.32.5-1,.9-1.33.39-.32.88-.53,1.27-.87.39-.33.72-.73,1.1-1.07.38-.34,1.01-.41,1.38-.76.37-.35.52-.93.89-1.29.36-.36.88-.57,1.24-.94.35-.37.76-.7,1.1-1.07.34-.38.57-.87.9-1.25.33-.39.55-.87.88-1.26.33-.39.89-.59,1.21-.99.32-.4.43-.96.74-1.37.31-.41.57-.85.87-1.26.3-.42.83-.67,1.12-1.08.29-.42.49-.91.77-1.33.28-.43.35-1,.62-1.42.28-.43.82-.69,1.09-1.12.27-.44.16-1.1.42-1.53.26-.44.84-.69,1.09-1.13.26-.44.2-1.06.45-1.5.25-.45.52-.88.76-1.32.25-.45.61-.83.85-1.28.24-.45.58-.85.81-1.3.24-.46.57-.87.81-1.32.24-.46.47-.92.69-1.38.23-.46.11-1.1.33-1.55.23-.46.67-.82.89-1.27.23-.46.23-1.03.45-1.48.23-.46.54-.88.76-1.33.23-.46.7-.8.92-1.25.23-.46.25-1.03.48-1.47.24-.46.39-.96.62-1.4.25-.46.86-.71,1.1-1.14.26-.46.45-.93.71-1.35.27-.45.25-1.08.53-1.48.3-.44.69-.81.98-1.19.33-.42.64-.84.98-1.19.38-.39.87-.62,1.26-.9.43-.31.83-.72,1.28-.88.48-.18,1.04-.26,1.55-.26.48,0,.95.32,1.47.48.44.14.98.2,1.45.47.4.24.68.72,1.11,1.06.37.29.88.47,1.28.85Z"/>
            <path class="cls-9" d="m483.71,210.13c12.52,11.96,19.18,44.69-2.57,67.47-21.76,22.78-54.76,17.64-67.28,5.68-12.52-11.96,17.18-14.9,36.47-35.1,19.29-20.2,20.86-50.01,33.38-38.05Z"/>
            <g>
              <path class="cls-30" d="m426.96,275.39c1.26-3.84,2.51-6.88,2.79-6.79.28.1-.52,3.29-1.79,7.13-1.26,3.84-2.51,6.88-2.79,6.79-.28-.1.52-3.29,1.79-7.13Z"/>
              <path class="cls-30" d="m433.46,274.32c.76-4.68,1.65-8.42,1.99-8.35.33.07-.02,3.92-.78,8.6-.76,4.68-1.65,8.42-1.99,8.35-.33-.07.02-3.92.78-8.6Z"/>
              <path class="cls-30" d="m440.02,273.84c-.36-5.34-.35-9.66.02-9.65.37,0,.96,4.34,1.32,9.68.36,5.34.35,9.66-.02,9.65-.37,0-.97-4.34-1.32-9.68Z"/>
              <path class="cls-30" d="m446.54,270.36c-1.66-5.25-2.72-9.57-2.37-9.64.36-.07,1.99,4.13,3.66,9.38,1.66,5.25,2.72,9.57,2.37,9.64-.36.07-1.99-4.13-3.66-9.38Z"/>
              <path class="cls-30" d="m452.97,268.96c-3.19-5.01-5.5-9.21-5.16-9.37.33-.16,3.19,3.77,6.37,8.78,3.19,5.01,5.5,9.21,5.16,9.37-.33.16-3.19-3.77-6.37-8.78Z"/>
              <path class="cls-30" d="m458.14,265.37c-3.88-4.68-6.78-8.64-6.48-8.85.3-.21,3.68,3.42,7.56,8.1,3.88,4.68,6.78,8.64,6.48,8.85-.3.21-3.68-3.42-7.56-8.1Z"/>
              <path class="cls-30" d="m463.69,261.83c-4.51-4.21-7.97-7.84-7.72-8.09.25-.25,4.11,2.96,8.62,7.17,4.51,4.21,7.97,7.84,7.72,8.09-.25.25-4.11-2.96-8.62-7.17Z"/>
            </g>
            <g>
              <path class="cls-30" d="m474.83,222.12c-3.61,1.83-6.43,3.52-6.29,3.78.14.26,3.17-1.01,6.78-2.84,3.61-1.83,6.43-3.52,6.29-3.78-.14-.26-3.17,1.01-6.78,2.84Z"/>
              <path class="cls-30" d="m474.75,228.71c-4.51,1.46-8.07,2.9-7.95,3.22.12.32,3.87-.61,8.38-2.07,4.51-1.46,8.07-2.9,7.95-3.22-.12-.32-3.87.61-8.38,2.07Z"/>
              <path class="cls-30" d="m476.03,234.26c-5.33.45-9.6,1.11-9.54,1.48.06.37,4.43.3,9.77-.15,5.33-.45,9.6-1.11,9.54-1.48-.06-.37-4.43-.3-9.77.15Z"/>
              <path class="cls-30" d="m474.78,239.67c-5.44-.85-9.87-1.25-9.88-.89-.02.36,4.38,1.35,9.83,2.2,5.44.85,9.87,1.25,9.88.89.02-.36-4.38-1.35-9.83-2.2Z"/>
              <path class="cls-30" d="m474.37,246.24c-5.43-2.4-9.93-4.05-10.04-3.7-.11.36,4.2,2.59,9.63,4.98,5.43,2.4,9.93,4.05,10.04,3.7.11-.36-4.2-2.59-9.64-4.98Z"/>
              <path class="cls-30" d="m471.1,251.48c-5.04-3.4-9.26-5.9-9.44-5.58s3.76,3.33,8.8,6.73c5.04,3.4,9.26,5.9,9.44,5.58.18-.32-3.76-3.33-8.8-6.73Z"/>
              <path class="cls-30" d="m467.6,255.74c-4.64-4.08-8.58-7.16-8.81-6.89-.23.27,3.35,3.8,7.98,7.88,4.64,4.08,8.58,7.16,8.81,6.89.23-.27-3.35-3.8-7.98-7.88Z"/>
            </g>
          </g>
          <g>
            <path class="cls-29" d="m126.7,215.39c25.63,21.25,34.38,52.98,19.54,70.88-14.84,17.9-47.64,15.18-73.27-6.07-25.63-21.25-34.37-52.98-19.54-70.88,14.84-17.9,47.64-15.18,73.27,6.07Z"/>
            <path class="cls-27" d="m120.83,210.52c25.63,21.25,34.38,52.98,19.54,70.88-14.84,17.9-47.64,15.18-73.27-6.07-25.63-21.25-34.37-52.98-19.54-70.88,14.84-17.9,47.64-15.18,73.27,6.07Z"/>
            <path class="cls-8" d="m114.44,218.22c-2.72,14.95,1.13,20.88,19.01,27.97-14.72,4.39-15.4,9.95-4.12,26.06-17.92-8.1-23.25-6.4-24.84,8.88-10.28-16.26-16.82-18.94-31.01-13.5,2.72-14.95-1.13-20.88-19.01-27.97,14.72-4.39,15.4-9.95,4.12-26.06,17.92,8.1,23.25,6.4,24.84-8.88,10.28,16.26,16.82,18.94,31.01,13.5Z"/>
            <g class="cls-33">
              <g>
                <path class="cls-29" d="m103.99,270.88c2.26-1.79-6.83-26.67-9.93-26.78-3.09-.11-18.81,18.85-18.23,21.99.58,3.14,14-11.65,16.86-14.74,0,0,9.04,21.33,11.3,19.53Z"/>
                <path class="cls-29" d="m123.28,247.61c-1.34,2.55-27.48-1.78-28.16-4.8-.68-3.02,15.04-21.98,18.23-21.99,3.19,0-8.86,15.91-11.36,19.3,0,0,22.63,4.94,21.29,7.49Z"/>
              </g>
              <path class="cls-29" d="m83.62,215.88c2.88-.11,12.2,24.68,9.93,26.78-2.27,2.1-26.56-2.04-28.16-4.79s18.21-.28,22.39.19c0,0-7.04-22.07-4.16-22.18Z"/>
            </g>
            <path class="cls-24" d="m97.49,234.36c-.56,1.07-2.3,1.72-2.3,1.72,0,0-.46-1.8.11-2.88.56-1.07,1.42-1.51,2.03-1.19.61.32.74,1.27.17,2.34Z"/>
            <path class="cls-24" d="m101.61,250.03c-.96-.74-1.3-2.57-1.3-2.57,0,0,1.85-.14,2.81.6.96.74,1.24,1.66.82,2.2-.42.54-1.38.5-2.34-.24Z"/>
            <path class="cls-24" d="m84.8,245.91c1.02-.65,2.86-.34,2.86-.34,0,0-.51,1.79-1.53,2.44-1.02.65-1.98.6-2.35.02-.37-.58,0-1.47,1.02-2.12Z"/>
          </g>
          <path class="cls-28" d="m398.41,283.42c0,21.57-56.61,39.05-126.44,39.05s-126.44-17.48-126.44-39.05l39.72-142.83c0-14.79,38.83-26.78,86.72-26.78s86.72,11.99,86.72,26.78l39.72,142.83Z"/>
          <ellipse class="cls-21" cx="271.97" cy="140.59" rx="86.72" ry="26.78"/>
          <path class="cls-25" d="m319.68,114.29c-3.24-2.96-7.37-5.17-8.52-9.77-.9-3.61-2.79-6.86-5.96-9.71-6.53-5.86-15.59-8.79-25.79-9.2-10-.41-22.52.58-31.87,3.32-10.8,3.16-15.34,7.95-19.94,15.45-1.06,1.73-1.24,3.48-.73,5.03-.78,2.4-1.29,4.83-1.22,7.33.01.37-.12,1.37-.12,2.1-1.09.61-2.74,1.82-3.18,2.12-6.38,4.33-8.71,10.28-6.07,16.41,5.56,12.92,29.11,10.41,44.59,16.3,11.55,4.4,34.35,1.18,48.93-6.34,3.37-1.74,6.69-3.76,8.73-6.44,2.03-2.67,1.41-5.46,2.56-8.27,1.8-4.44,4.12-9.88,1.6-14.65-.76-1.43-1.82-2.61-3-3.68Z"/>
          <path class="cls-17" d="m302.47,95.36c-.98-3.71-5.54-6.99-9.05-4.15-1.36,1.1-1.94,2.71-2.33,4.37-.33,1.44-.21,3.2-.89,4.52-.32.54-.53,1.18-.59,1.92,0,.1-.02.21-.02.31-.19,2.46,1.85,4.01,3.99,4.2-.2.46-.08,1.02.57,1.16,3.04.64,4.92-.17,6.18-3.08,1.24-2.88,3.01-6.02,2.15-9.25Z"/>
          <g>
            <path class="cls-2" d="m291.7,67.43c-10.65-7.33-23.05-.19-24.99,3.86-3.57-2.73-17.86-3.46-24.02,7.9-9.32,17.21,11.68,45.02,35.18,38.58,23.86-4.93,29.94-39.25,13.83-50.34Z"/>
            <g>
              <path class="cls-23" d="m268.78,71.62c-1.03-5.07-3.11-8.72-3.09-29.73.03-21.04,8.22-39.31,8.22-39.31l-1.64-.3s-8.03,16.97-9.2,42.55c-.73,16.09.79,24.01,1.79,27.85.41,1.58,4.27.68,3.91-1.05Z"/>
              <polygon class="cls-23" points="271.84 3.26 273.63 3.41 275.68 1.09 272.34 0 271.84 3.26"/>
            </g>
          </g>
          <g>
            <path class="cls-25" d="m240.37,100.6s.09-.05.13-.07c.13-.17.26-.34.42-.48l-.55.55Z"/>
            <path class="cls-25" d="m306.1,117.41c-.32-3.42-3.76-6.38-7.45-7.51-7.62-2.34-14.56,2.1-21.99,1.25-5.75-.66-11.08-5.66-15.74-8.68-7.04-4.56-13.02-5.69-20.43-1.93-7.88,10.34,6.34,26.34,16.43,28.44,3.72.77,7.55.5,11.32.49,1.9,0,3.81.12,5.7-.05,5.26-.46,10.62-.98,15.78-2.13,4.12-.92,11.44-1.53,14.56-5.03,1.45-1.62,1.96-3.28,1.81-4.85Z"/>
          </g>
          <path class="cls-17" d="m232.23,121.37c3.17.34,6.24,3.76,9.01,5.23,2.65,1.4,5.5,2.53,8.31,3.57,6.54,2.43,13.39,4.16,20.17,5.78,12.35,2.95,36.5-.07,48.77-2.68,3.72-.79-5.67-4.31-9.56-3.87-13.28,1.49-28.32,2.19-41.51-.62-6.43-1.37-12.91-2.39-19.2-4.35-4.98-1.55-10.77-5.53-16-5.41-1.55.04-1.48,2.2,0,2.36h0Z"/>
          <path class="cls-17" d="m272,111.77c11.07,7.7,27.38,9.25,39.61,3.73,3.04-1.37.84-6.02-2.21-5.25-6.13,1.56-11.61,3.74-18.05,3.65-6.35-.09-12.8-.62-18.57-3.46-.89-.44-1.59.76-.78,1.33h0Z"/>
          <path class="cls-17" d="m233.42,110.78c.77-6.54,17.81-7.98,23.09-9.27,2.78-.68-5.42-5.16-11.35-3.85-7.26,1.61-14.24,4.83-14.82,13.12-.14,2,2.85,1.92,3.08,0h0Z"/>
          <g>
            <path class="cls-26" d="m422.19,274.43l-5.24-4.36c.89-4.41,1.37-9.08,1.37-14.02,0-42.64-34.56-77.2-77.2-77.2s-77.2,34.56-77.2,77.2c0,6.59.83,12.71,2.38,18.35l-.62.03s-7.35-4.2-5.25,4.2c2.1,8.4-1.05,2.1,2.1,8.4l3.15,6.3s-2.1,6.3,1.05,8.4c3.15,2.1,1.05,1.05,7.35,5.25,6.3,4.2,8.4,5.25,12.6,7.35,4.2,2.1-1.05-1.05,4.2,2.1,5.25,3.15,8.4,5.25,11.55,6.3q3.15,1.05,10.5,0c7.35-1.05,24.16,0,29.41,2.1,5.25,2.1,24.16-2.1,28.36-3.15,4.2-1.05,5.25-2.1,12.6-2.1s11.3,0,13.65-2.1c9.45-8.4,11.55-12.6,11.55-12.6,0,0,0-2.1,2.1-5.25.44-.66.6-.9.62-.94-.1.15-1.67,2.51,1.48-2.22,8.36-3.09,9.95-8.99,9.95-12.14s-.5-9.92-.5-9.92Z"/>
            <g class="cls-33">
              <path class="cls-1" d="m284.32,265.04c1.34,1.4,3.06,2.76,4.31,3.4,1.25.63,2.74.07,3.9-.07,1.16-.14,2.31-.27,2.31-.27l2.95-1.52,3.51-.02s2.58,2.04,3.79,2.29c1.2.25,5.78-.68,6.94-.82,1.16-.14,4.33.27,4.33.27l-6.87-1.92s-2.06-.93-4.08-1.47c-2.02-.54-2.06-.93-5.28-1.72-3.22-.79-5.1-.18-7.41.09-2.31.27-4.22-2.63-5.65-4.8-1.43-2.17-7.2-5.94-5.99-4.37,2.77,3.58,1.91,9.54,3.25,10.95Z"/>
              <path class="cls-1" d="m334.57,276.01c-3.19.2-10,2.21-13.52,5.63l17.4-3.2s3.55,5.65,5.14,5.55c1.6-.1,8.27-4.24,8.27-4.24l4.99-5.64,3.59-2.35,6.78-2.55s4.81.24,4.72-1.35c-.1-1.6-14.25,3.29-14.25,3.29,0,0-1.04.06-4.66,1.88-2.95,1.48,1.48,3.77-3.94,5.02-3.15.73-11.33-2.23-14.52-2.03Z"/>
              <path class="cls-1" d="m317.66,228.06c1.73,0,4.32.86,5.62.43,1.3-.43,4.32-1.73,6.05-1.73s2.16-.43,3.89-.43,6.48-1.3,6.48-1.3c0,0-9.94-.86-13.4-.86s-7.78.86-11.24-1.3c-3.46-2.16-3.46,1.73-9.08-.43l6.92,4.32s3.03,1.3,4.76,1.3Z"/>
              <path class="cls-1" d="m396.12,247.47c-4.79,1.6-9.63,3.87-12.82,3.34-3.19-.53-2.13,1.6-4.26,1.06-2.13-.53-1.99,8.75-1.06,7.45,5.32-7.45,16.03-9.21,16.03-9.21,0,0,16.9-3.75,6.86-14.22,0,0,.05,9.97-4.74,11.57Z"/>
              <path class="cls-1" d="m354.34,233.66c-3.08-.99-2.34,1.27-4.37.43-2.03-.84-2.37,8.8-2.13,7.22.23-1.58,12.6-7.26,12.6-7.26,0,0,9.05-2.13,13.45-12.59,0,0-6.05,8.26-11.03,9.14-4.97.88-5.44,4.05-8.52,3.05Z"/>
              <path class="cls-1" d="m332.85,260.19c-1.74-1-4.59.53-4.59.53,0,0,.87,3.73,2.76,3.99,1.89.26,3.93-.21,6.12-1.42,2.19-1.21,10.03-2.04,10.03-2.04,0,0-3.41-3.27-4.22-2.22-.82,1.05-2.91,1.05-4.9,2-1.99.95-3.47.16-5.2-.83Z"/>
              <path class="cls-1" d="m304.87,280.7c-1.99.95-3.2-.77-5.2-.84-2.6-.08-7.9-5.38-7.9-5.38,0,0,4.18,9.64,6.06,9.9,1.89.26,4.56-3.38,6.12-1.42,2.12,2.65,4.77,0,4.77,0,0,0,.75.07,1.66.22-1.99-1.34-4.37-3.01-5.51-2.47Z"/>
              <path class="cls-1" d="m313.49,284.55c.52-.67-1.54-1.13-3.11-1.37,1.49,1.01,2.76,1.82,3.11,1.37Z"/>
              <path class="cls-1" d="m386.2,203.75c.13-.17.24-.35.3-.54.17-.51-.02-.11-.3.54Z"/>
              <path class="cls-1" d="m377.18,212.58c1.86-.39,3.62-1.53,5.28-3.4,1.66-1.88,2.69-2.92,2.69-2.92,0,0,.63-1.54,1.04-2.51-.71.96-2.32,1.67-3.63,2.99-1.55,1.56-3.81,3.78-5.78,3.43-1.97-.35-4.04,2.36-4.04,2.36,0,0,2.57.44,4.44.05Z"/>
              <path class="cls-1" d="m364.83,240.98c.29-.45,0-.11-.43.45.17-.14.32-.28.43-.45Z"/>
              <path class="cls-1" d="m381.17,241.77c2.06-1.42,3.32-2.17,3.32-2.17,0,0,.98-1.34,1.62-2.17-.93.75-2.65,1.05-4.25,2.01-1.89,1.13-4.62,2.73-6.44,1.91-1.82-.82-4.5,1.3-4.5,1.3,0,0,2.39,1.05,4.29,1.13,1.9.08,3.89-.59,5.95-2.01Z"/>
              <path class="cls-1" d="m357.75,187.99s.53,5.86-2.66,7.99c-3.19,2.13-4.26,3.73-5.86,4.26-1.6.53-4.79,3.73-4.79,3.73l18.1-4.26s.53-6.39-4.79-11.71Z"/>
              <g>
                <path class="cls-1" d="m359.92,289.21c-2.63,1.22-4.59.21-6.89-1.08-2.3-1.28-6.08.68-6.08.68,0,0,1.15,4.79,3.65,5.13,2.5.34,5.2-.28,8.1-1.83,2.9-1.56,4.66-2.37,4.66-2.37,0,0,1.47-1.59,2.42-2.58-1.31.85-3.63,1.01-5.86,2.05Z"/>
                <path class="cls-1" d="m403.76,263.37l-6.7,5.72s-2.37,1.48-4.32,3.17c-1.94,1.69-2.37,1.48-5.4,4.23-3.03,2.75-3.69,5.1-5,7.66-1.31,2.56-5.6,2.51-8.81,2.48-3.21-.03-11.04,3.29-8.6,3.13,5.57-.37,11.1,4.61,13.46,4.2,2.36-.41,4.94-1.24,6.45-2.08,1.51-.84,1.95-2.77,2.61-4.05.66-1.28,1.31-2.56,1.31-2.56l.47-4.07,2.39-3.62s3.87-1.25,4.95-2.31c1.08-1.06,5.39-8.56,12.84-4.31,1.25.71-5.65-7.62-5.65-7.62Z"/>
              </g>
              <path class="cls-1" d="m415.77,270.35c-1.06,2.13-3.19,7.98-6.92,11.18-3.73,3.19-3.19,6.92-7.98,7.45-4.79.53-4.79-1.6-10.65,0-5.86,1.6-3.73,2.13-4.79,5.32-1.07,3.19-7.45,6.92-13.31,7.45-5.86.53-5.32-1.06-8.52-2.13-3.19-1.07-4.79,2.66-9.58,1.06-3.67-1.22-5.84.92-11.71,2.66.83-.07-2.45,5.21,1.6,3.73-4.69,2.57-14.91,1.6-14.91,1.6,0,0-4.79-1.6-6.92-2.66-.99-.5,1.03-1.46,2.98-2.45l1.28.32-1.15-.39c2.18-1.11,4.19-2.25,1.69-2.81-4.79-1.06-12.24-2.13-15.97-2.66-1.37-.19-2.52-.32-3.56-.47l-4.96-1.65s-.53-1.6-2.66-3.19c-2.13-1.6-4.26,0-7.45,0s-4.79.53-6.92-.53c-2.13-1.06-3.73-2.13-5.86-4.79-2.13-2.66-10.11-14.37-10.11-14.37.53,5.85,3.73,11.18,3.73,11.18l1.6,5.86,3.73,2.66s.53,3.73,4.26,4.26c3.73.53,4.79-1.07,7.45-1.07s2.66,0,4.26,1.07c.85.56,4.38,1.13,7.52,1.53.23,1.03,1.26,3.69,5.79,6.98,5.85,4.26,5.32,4.26,8.52,4.79,3.19.53,3.73,1.06,6.39,1.6,2.66.53,5.85-.53,7.45,0,1.6.53,3.19,0,4.79.53,1.6.53,5.86-2.13,7.45-2.13s15.09-4,17.38-4.73c2.32.68,4.76,1.32,6.04,1,2.13-.53,7.45,2.66,10.11,1.6,2.66-1.07,9.05-7.99,9.05-7.99l6.92,1.6s1.74-10.42,4.26-9.05c5.86,3.19,25.02-18.1,18.63-12.24-1.24,1.14,1.06-10.11,1.06-10.11Z"/>
              <path class="cls-1" d="m405.47,216.23c-7.47-13.51-20.41-20.99-12.94-14.37,0,0,16.1,15.52,1.48,16.97-1.91.19-3.73,3.19-3.73,3.19,0,0-6.5,1.57-8.1,3.7-1.6,2.13,6.61-.29,6.61-.29l5.17-3.74s9.9.55,9.9.55c0,0-1.67,5.26,4.02,10.05,2.95,2.49,4.92,9.08,6.23,18.68.17,1.28-5.05,3.23-4.9,4.44.18,1.41,4.88,4.12,5.03,5.36.58,5.02,1.86,11.43,2.01,10.39,4.69-32.83-8.6-50.94-10.8-54.93Z"/>
            </g>
          </g>
          <g>
            <path class="cls-15" d="m208.08,263.08c12.35,18.49,4.59,44.52-17.75,56.14-23.42,9.15-47.41-2.46-52.45-24.27-5.32-21.13-4.35-67.67,9.64-74.95,14.66-5.72,48.9,24.84,60.57,43.08Z"/>
            <path class="cls-16" d="m206.91,263.28c11.99,17.94,4.45,43.19-17.23,54.47-22.72,8.88-46-2.38-50.89-23.55-5.16-20.51-4.22-65.66,9.35-72.73,14.23-5.56,47.44,24.1,58.77,41.8Z"/>
            <g class="cls-36">
              <polygon class="cls-14" points="193.58 266.4 187.55 273.71 202.07 266.91 189.64 279.29 198.93 280.76 190.72 285.1 206.98 286.3 190.67 290.85 198.72 296.27 189.41 296.18 195.87 303.65 186.89 300.59 190.83 309.79 183.53 303.52 183.15 313.27 179.16 304.1 175.32 312.98 174.28 303.04 168.08 310.17 169.59 300.42 155.41 308.78 165.41 296.59 156.76 299.9 161.95 291.87 145.06 292.79 159.32 286.53 150 286.19 157.25 279.77 140.93 278.21 155.51 271.76 146.14 268.86 154.19 263.57 144.96 260.13 153.3 255.35 139.94 250.92 152.93 247.21 144.26 242.27 153.4 239.51 145.95 232.59 154.23 235.6 157.63 227.3 157.61 237.6 168.46 229.04 163.45 242.4 172.22 238.55 169.07 248.14 178.12 245.01 174.4 254.34 187.68 247.58 179.44 260.86 188.82 258.88 184.06 267.6 193.58 266.4"/>
            </g>
            <path class="cls-31" d="m186.15,268.87c7.05,12.11,5.57,27.08-3.66,32.21-9.91,3.56-21.71-5.38-25.71-18.88-4.07-13.11-7.27-40.94-1.49-44.16,6.21-2.22,24.13,18.92,30.86,30.82Z"/>
            <path class="cls-12" d="m183.15,268.99c5.83,10,4.6,22.38-3.03,26.61-8.19,2.94-17.94-4.44-21.24-15.6-3.36-10.83-6.01-33.84-1.23-36.49,5.13-1.84,19.94,15.63,25.5,25.47Z"/>
          </g>
          <g>
            <path class="cls-13" d="m269.02,297.04c-2.42,22.11-25.09,37.05-49.69,31.59-23.82-8.04-34.74-32.36-24.58-52.31,9.51-19.61,40.16-54.63,55.56-51.22,14.91,5.04,21.49,50.46,18.7,71.93Z"/>
            <path class="cls-7" d="m268.01,296.45c-2.35,21.45-24.35,35.95-48.21,30.65-23.11-7.8-33.71-31.4-23.85-50.75,9.23-19.03,38.97-53.01,53.91-49.7,14.47,4.89,20.85,48.96,18.15,69.8Z"/>
            <g class="cls-36">
              <polygon class="cls-5" points="255.78 290.27 246.46 291.99 261.96 296.11 244.48 297.61 250.65 304.7 241.57 302.75 253.26 314.13 237.84 307.13 240.52 316.46 233.45 310.39 233.59 320.27 228.68 312.16 225.78 321.73 224.23 312.24 217.66 319.47 220.5 309.88 211.86 314.21 217.45 305.93 208.11 307.41 215.54 300.9 199.31 298.2 214.8 295.28 206.04 292.26 215.18 289.45 201.66 279.29 216.6 283.67 209.68 277.41 219.36 277.16 207.86 265.47 223.18 269.89 217.86 261.66 227.43 262.78 222.57 254.21 232.03 255.9 224.64 243.93 236.98 249.44 233.51 240.07 242.29 243.84 241.03 233.75 245.44 241.38 253.38 237.21 246.74 245.08 260.56 245.5 248.13 252.51 257.32 255.21 248.74 260.52 257.69 263.94 248.85 268.7 263.37 272.06 248.51 276.93 256.97 281.44 247.72 285.07 255.78 290.27"/>
            </g>
            <path class="cls-31" d="m248.5,287.38c-2.38,13.81-13.14,24.32-23.51,22.32-9.88-3.64-13.18-18.08-7.56-30.98,5.31-12.66,20.75-36.03,27.24-34.78,6.18,2.29,6.33,30.01,3.83,43.45Z"/>
            <path class="cls-6" d="m246.13,285.55c-1.96,11.41-10.86,20.1-19.43,18.44-8.17-3.01-10.89-14.94-6.25-25.6,4.39-10.46,17.14-29.78,22.51-28.74,5.11,1.89,5.23,24.8,3.16,35.91Z"/>
          </g>
          <path class="cls-35" d="m271.97,311.99c-162.74,0-259.22-55.08-268.4-91.08-.48,1.67-.73,3.35-.73,5.05,0,37.83,60.28,118.27,269.14,118.27s269.13-80.44,269.13-118.27c0-1.7-.25-3.39-.73-5.05-9.18,36-105.66,91.08-268.4,91.08Z"/>
        </g>
      </g>
    </g>
  </g>
</svg>