<?xml version="1.0" encoding="UTF-8"?>
<svg id="_レイヤー_2" data-name="レイヤー 2" xmlns="http://www.w3.org/2000/svg" viewBox="0 0 495.35 314.87">
  <defs>
    <style>
      .cls-1 {
        fill: #f3d4a1;
        stroke: #f3d4a1;
        stroke-width: .88px;
      }

      .cls-1, .cls-2 {
        stroke-linecap: round;
        stroke-linejoin: round;
      }

      .cls-2 {
        fill: none;
        stroke: #fff;
        stroke-width: 4.25px;
      }

      .cls-3 {
        fill: #782410;
      }

      .cls-3, .cls-4, .cls-5, .cls-6, .cls-7, .cls-8, .cls-9, .cls-10, .cls-11, .cls-12, .cls-13 {
        stroke-width: 0px;
      }

      .cls-4 {
        fill: #54642a;
      }

      .cls-5 {
        fill: #6c753b;
      }

      .cls-6 {
        fill: #82351c;
      }

      .cls-7 {
        fill: #fff;
      }

      .cls-8 {
        fill: #ffee7d;
      }

      .cls-9 {
        fill: #fff3a3;
      }

      .cls-10 {
        fill: #ffe55f;
      }

      .cls-11 {
        fill: #feebbe;
      }

      .cls-12 {
        fill: #687238;
      }

      .cls-13 {
        fill: #691c07;
      }
    </style>
  </defs>
  <g id="_イラスト" data-name="イラスト">
    <g>
      <g>
        <g>
          <path class="cls-1" d="m494.91,159.95c0,85.32-110.69,154.48-247.23,154.48S.44,245.26.44,159.95,111.13,5.46,247.68,5.46s247.23,69.16,247.23,154.49Z"/>
          <ellipse class="cls-11" cx="247.68" cy="154.48" rx="247.23" ry="154.48"/>
          <ellipse class="cls-7" cx="247.68" cy="157.83" rx="189.84" ry="118.62"/>
          <ellipse class="cls-2" cx="247.68" cy="157.83" rx="227.81" ry="142.34"/>
        </g>
        <path class="cls-10" d="m416.71,137.29c.09-5.16-3.21-10.13-4.14-15.21-1.15-6.23-3.33-13.13-5.99-18.82-3.96-8.49-6.44-15.52-13.63-21.52-3.63-3.03-9.9-3.1-13.75-5.86-4.14-2.96-5.86-8.61-9.64-12.01-4.51-4.06-11.77-3.79-16.03-5.96-4.85-2.47-6.76-7.24-12.87-10.02-2.89-1.32-6.26.38-9.38-1.11-3.33-1.59-6.43-6.35-9.89-7.41-3.46-1.06-7.05-1.06-10.65-1.03-3.89.04-7.78.13-11.55-1.02-5.69-1.72-11.44-4.22-17.5-4.05-5.19.14-11.84,4.33-16.9,3.1-3.14-.76-5.51-2.17-8.82-2.54-5.43-.61-11.78-.95-15.93,2.99-2.81,2.67-10.61,5.24-14.88,5.26-8.27.04-13.99,3.22-19.24,10.3.91.44,2.08,1.74,3,2.16-4.39.35-7.64,3.25-9.7,6.99-4.03,7.29-8.22,13.18-12.7,20.14-5.75,8.92-5.96,20.72-8.17,30.79-1.33,6.07-2.67,12.22-2.39,18.42.37,8.21-3.21,17.89-1.66,25.97,3.15,16.47,12.58,21.9,27.05,31.02,15.05,9.49,24.62,25.53,39.86,34.23,10.34,5.91,22.27,7.35,33.73,9.77,10.38,2.2,23.1,11.06,32.97,8.9,9-1.97,18.22,1.03,27.27,2.72,7.25,1.35,15.8,1.83,22.39-2.09,6.12-3.63,9.66-9.72,16.59-12.76,10.27-4.49,25.08-15.28,27.05-27.13.47-2.8.18-5.66.38-8.49.44-6.23,2.39-12.02,4.73-17.69,1.75-4.25,3.71-8.44,5.42-12.69,1.81-4.52,3.12-9.27,3.94-14.13.63-3.7.97-7.47,1.04-11.26Z"/>
        <path class="cls-6" d="m410,199.08c-8.47.47-57.72,20.52-64.13,15.4-14.1-11.27-12.07-29.57-24.43-42.47-11.52-12.02-32.26-10.24-47.94-17.18-19.77-8.76-23.18-34.62-35.66-50.57-9.2-11.75-21.24-14.33-24.88-28.85-3.92-15.62,8.65-35.17,22.7-34.38-55.72-3.15-162.64,27.12-175.19,101.46-7.11,42.13,19.48,79.07,54.44,99.21,19.35,11.15,43.84,23.72,66.08,27.45,33.75,5.66,80.86,8.53,114.58,3.15,27.04-4.31,43.43-8.71,67.91-21.43,37.09-19.27,80.66-53.67,46.5-51.79Z"/>
        <path class="cls-3" d="m182.96,73.49c-2.35,8.34-2.45,15.88-7.57,22.72-5.68,7.57-1.77,17.25-.95,24.61.84,7.53,1.06,33.82,3.79,40.7,5.89,14.89,4.91,9.67,14.2,22.72,1.83,2.57,13.91,14.74,17.04,15.15,2.26.29,25.24,16.64,27.45,16.09,10.93-2.72,20.32,2.56,28.4,10.41,8.07,7.85,21.39,2.29,32.18-.95,2.66-.8,17.21,8.35,19.88,7.57,11.58-3.36,6.37-6.07,17.99-2.84,12.1,3.36,26.46-7.74,38.14-3.12,1.53.61,2.47,3.97,3.78,2.98,7.31-5.54,14.06-4.63,12.04-2.7-11.18,10.65-41.08,26.37-55.92,30.63-57.48,16.52-120.03,13.63-176.21-6.53-25.36-9.1-56.32-21.79-74.2-42.36-18.47-21.26-23.58-50.03-13.95-76.65.38-1.03.77-2.06,1.19-3.07,11.25-27.41,35.56-47.81,62.34-60.5,26.78-12.68,56.18-18.56,85.25-24.33-9.85,7.61-31.42,17.3-34.85,29.47Z"/>
        <path class="cls-8" d="m292.55,65.24c-1.76,1.31-3.63-.85-5.32-1.08-1.25-.17-2.71.46-3.82.94-.77.33-1.64.93-2.5.89-1.88-.1-2.88,3.01-4.38,2.19-1.52-.84-7.68,1.05-9.14,1.46.51-.14,2.88-6.99,4.29-8.24,2.73-2.42,5.47-2.66,8.94-3.01,5.9-.59,15.39.58,16.72,7.95-1.77.14-3.09-.49-4.77-1.09Z"/>
        <path class="cls-8" d="m356.6,64.05c-.31-.64-.97-1.14-1.59-1.58-1.99-1.39-4.4-2.39-6.54-3.52-2-1.06-3.55-3.07-5.69-3.81-1.26-.43-2.7.21-3.88-.29,0,0-7.6,2.72-5.15,3.8,2.44,1.08,10.13,1.67,11.03,5.45.9,3.78,14.89,14.2,17.33,12.53,2.43-1.67-4.98-11.5-5.5-12.59Z"/>
        <path class="cls-8" d="m297.39,109.03c2.07-2.47.37,5.86,1.72,8.64.88,1.81,2.03,3.11,4.12,3.3,1.57.15,2.95-.23,4.49.44,3.34,1.46,4.24,5.44,6.68,7.93,1.08,1.1,2.25,1.94,3.63,2.62,1.06.52-1.04,12.25-2.05,11.41-7.38-6.22-11.11-4.78-17.84-13.31-6.73-8.53-5.75-15.02-.74-21.02Z"/>
        <path class="cls-8" d="m259.18,49.69c-8.78,3.64-27.02,3.07-29.2,9.77,0,0,2.25-10.99,8.94-14.09,6.68-3.1,7.57-.36,11.63-.05,4.06.31,11.4,3.22,8.63,4.37Z"/>
        <path class="cls-8" d="m218.99,56.9c1.98,9.3-1.91,27.13,4.29,30.49,0,0-10.39-4.22-12.23-11.35-1.84-7.13,1.02-7.51,2.07-11.45,1.05-3.94,5.25-10.62,5.87-7.69Z"/>
        <path class="cls-9" d="m387.23,158.23c1.64-3.26,3.53-6.79,3.89-10.47.23-2.36-.02-4.64.4-7.02.47-5.18-8.3-9.18-8.55,1.53-.15,6.21.72,13.09-1.52,15.35s5.78.61,5.78.61Z"/>
        <path class="cls-8" d="m403.15,111.71c.21-2.41-.79-4.9-1.77-7.15-.74-1.7-2.69-2.16-3.23-3.74-1.15-3.42-.02-6.49-3.17-9.19-.54-.46-3.85-2.56-4.24-1.23,0,0-7.78,5.06-2.68,9.7,5.11,4.64,4.95,16.61,7.92,17.44,2.97.83,6.47,2.15,7.18-5.83Z"/>
        <path class="cls-13" d="m332.52,243.88s-24.07,8.91-51.12,6.63c-24.89-2.1-8.74-2.62-34.18-6.45-25.45-3.82-27.16-4.88-22.12-14.56,5.04-9.68-5.32-28.87-17.89-18.35-12.57,10.52-24.68,17.66-39.05,14.27-14.38-3.39-23.66,5.8-31.3.63-7.64-5.17-66.82-42.44-48.36-15.77,18.92,27.33,81.6,51.82,100.92,54.66,71.48,10.51,161.78-16.75,164.98-17.8,10.46-3.46,21.91-4.29,16.89-8.3s-25.18.63-38.77,5.03Z"/>
        <path class="cls-13" d="m106.72,172.89s-4.81,8,16.41,15.61c21.22,7.61,42.1,10.9,33.56-1.22-8.54-12.12-37.09.4-38.52-37.02-.34-8.87-16.8,14.3-11.45,22.63Z"/>
        <path class="cls-13" d="m240.86,230.06c-.15-2.54,1.85-13.48,9.49-8.31,7.64,5.17,20.99,9.3,15.85,12.98-5.14,3.68-24.77,4.81-25.33-4.67Z"/>
        <path class="cls-13" d="m315.98,209.28s-7.09,11.16-2.87,14.22c4.22,3.06,15.87-.72,22.72-3.34,6.85-2.62-14.24-17.92-19.84-10.87Z"/>
        <path class="cls-13" d="m148.3,120.47s-12.96,2.62-12.24,7.78c.72,5.16,11.51,10.94,18.15,14.06s3.05-22.69-5.91-21.84Z"/>
        <path class="cls-8" d="m345.83,205.93s24,2.31,29.59-3.33c5.59-5.64,3.96-14.1,9.55-19.74,5.59-5.64,13.82-12.14,13.82-12.14,0,0,2.16,9.42-7.09,25.24-9.25,15.82-10.29,19.54-19.61,18.52-9.33-1.02-26.26-8.55-26.26-8.55Z"/>
        <path class="cls-9" d="m292.01,85.52s6.26,3.36,11.58,7.25c5.31,3.89,10.99-4.92,6.42-8.61-4.57-3.69-19.09-6.16-18,1.35Z"/>
        <path class="cls-9" d="m361,181.12s-7.84,3.76-14.32,2.56c-6.48-1.2-7.02,5.15-1.3,6.49,5.72,1.33,19.87-2.75,15.62-9.04Z"/>
        <path class="cls-9" d="m357.78,92.02c2.92,3.63,9.69,6.87,2.6,17.33-7.09,10.46-4.22,12.09-11.12,15.97-6.9,3.87-8.5,12.55-10.23,18.71-1.73,6.15,2.89,7.45,6.59.19,3.7-7.26,4.87-14.4,12.44-14.77,7.57-.36,12.26-8.18,10.26-12.89-2-4.71.74-5.6,2.25-10.99,1.51-5.39-2.92-13.27-7.75-13.79-4.83-.53-9.35-5.12-5.05.24Z"/>
        <path class="cls-13" d="m84.29,155.62c9.85,4.22-6.31-33.64,42.05-56.77,18.41-8.81,8.41-28.38,31.54-35.74,23.13-7.36,51.51-13.67,42.05-14.72-9.46-1.05-67.28,9.46-97.76,39.95-30.49,30.49-32.59,60.97-17.87,67.28Z"/>
        <path class="cls-13" d="m83.88,168.55s-1.91,10.84,4.46,20.41c6.38,9.57-24.23,2.55-4.46-20.41Z"/>
        <path class="cls-13" d="m240.36,196.32s39.68,16.65,40.99,5.09c1.32-11.56,20.15-5.51,17.17,4.91-2.98,10.42-21.82,18.3-30.75,12.43-8.93-5.87-27.41-22.43-27.41-22.43Z"/>
        <path class="cls-13" d="m183.58,66.12s-24.47,28.12-18.61,30.08.63,11.08-4.46,8.38c-5.09-2.71-11.98-7.31-4.84-22.89,4.96-10.83,27.9-15.57,27.9-15.57Z"/>
        <g>
          <path class="cls-7" d="m105.03,113.75c8.17-8.87,19.42-10.41,30.73-12.27,5.51-.91,11.55-.71,17.08.1,5.71.84,10.78,2.51,16.35-.15,5.31-2.54,9.7-7.1,14.54-10.36,3.34-2.25,7.19-3.82,10.98-5.12,1.97-.68,3.98-1.28,6.02-1.69,1.55-.22,3.1-.44,4.65-.66,3.01-.31,3.89,1,2.65,3.94-.22,4.41-.49,3.36-4.11,4.55-1.44.48-2.78.88-4.21,1.47-2.63,1.1-5.19,2.47-7.59,3.98-5.62,3.55-10.43,8.25-13.99,13.89-1.68,2.65-2.7,6.28-5.64,7.88-2.67,1.45-7.08,1.71-10,2.26-7.27,1.37-14.64.49-21.84,2.08-6.28,1.39-12.42,3.6-18.61,5.34-5.7,1.61-10.96,3.67-15.5,7.55-5.18,4.42-13.11,14.91-7.99,21.98,6.54,9.01,21.7,0,28.41-3.49,6.85-3.56,13.8-7.01,21.28-9.02,7.78-2.09,15.19-1.9,23.01-2.17,4.23-.14,6.51-2.89,10.05-5.12,6.87-4.34,14.25-7.93,21.64-11.28,6.91-3.14,13.92-5.5,21.25-7.45,3.73-.99,9.04-2.62,12.89-1.3,10.9,3.74-1.18,10.21-5.19,11.79-12.99,5.11-26.02,8.66-38.57,15-5.88,2.97-11.98,8.27-18.18,10.22-6.37,2.01-14.54,1.76-21.25,2.93-12.64,2.21-26.88,6.37-37.51,13.77-5.24,3.65-19.96,14.62-15.95,22.56,3.81,7.55,20.55,2.57,26.25.49,15.91-5.8,32.13-14.44,49.61-13.8,2.71.1,4.98.78,7.6-.14,4.03-1.41,7.95-4.3,11.93-5.99,7.33-3.11,14.43-6.71,21.72-9.9,7.32-3.21,15.86-6.29,23.7-7.94,1.77-.37,4.43-1.17,6.28-1.06,1.38.18,2.69.57,3.95,1.16.95,2.86,1.9,5.73,2.86,8.59-1.32,2.68-7.87,4.31-10.35,5.32-13.32,5.44-26.9,10.43-39.59,17.26-1.56.84-.17,3.22,1.39,2.38,12.58-6.78,26.04-11.77,39.19-17.31,5.73-2.41,19.39-7.28,13.18-15.87-6.92-9.57-21.52-3.59-29.99-.69-14.71,5.03-28.52,11.61-42.45,18.49-6.31,3.12-13.98,1.71-20.99,2.92-8.04,1.39-16.12,3.67-23.79,6.46-6.97,2.54-13.55,6.17-20.78,7.99-3.22.81-8.43,1.99-11.82.83-2.51-.86-3.92-.31-2.97-3.79.72-2.64,3.62-5.17,5.47-7.03,10.95-11.01,26.84-16.53,41.8-19.51,7.4-1.48,14.97-1.47,22.31-2.66,6.06-.99,12.18-6.97,17.53-9.79,7.34-3.87,14.87-7.59,22.66-10.46,6.84-2.53,13.93-4.34,20.6-7.33,6.14-2.75,16.32-13,6.14-17.86-4.62-2.2-10.51-1.58-15.34-.56-7.54,1.59-15.11,4.04-22.18,7.11-7.07,3.08-14.01,6.47-20.82,10.08-2.82,1.5-5.48,3.2-8.23,4.79-3.57,2.06-4.37,1.39-8.1,1.29-15.07-.39-28.91,4.23-42.31,10.69-4.07,1.96-22.29,11.74-20.51,1.76,1.27-7.14,9.97-12.16,15.98-14.61,6.34-2.58,13.05-4.92,19.57-7.04,7.2-2.34,14.81-3.01,22.11-5.08,4.58-1.3,10.27-1.64,13.75-5.07,2.3-2.27,3.61-5.39,6.16-7.57,3.69-3.17,8.1-5.38,12.38-7.63,4.15-2.18,28.77-11.17,19.36-19.43-3.6-3.16-11.89-2.66-16.09-2.12-7.98,1.02-14.45,4.34-21.02,8.69-3.29,2.18-6.82,5.07-10.5,6.34-4.89,1.69-9.56-.17-14.22-1.5-6.22-1.78-12.8-3.17-19.22-3.89-12.97-1.45-26.76,4.37-34.92,14.44-4.1,5.07,2.72,12.31,7.32,7.32h0Z"/>
          <path class="cls-12" d="m235.99,100.89l-2.31-4.49,2.68-.04,3.3.21-.7-2.92,1.82-.77s2.2.14,2.78,1.5l.58,1.36s.91-.38.31,2.01c-.59,2.39-3.51,3.09-3.51,3.09l-1.77,3.42-2.85-.4-3.49-.66,3.16-2.31Z"/>
          <path class="cls-4" d="m225.77,125.18l-2.31-4.49,2.68-.04,3.3.21-.7-2.92s1.81-.77,1.82-.77c3.25,1.01,6.68,7.44,1.89,8.17-.99.15-2.68,2.44-3.68,2.5-2.35.15-4.09,1.82-6.16-.35-2.36-2.47,3.16-2.31,3.16-2.31Z"/>
          <path class="cls-4" d="m263.75,135.34l3.6,2.04-2.33-4.22c3.3.21,4.39,1.99,4.39,1.99l-.7-2.92s3.77,1.07,3.77,1.07c3.25,1.01,4.72,5.61-.06,6.33-.99.15-2.68,2.44-3.68,2.5-2.36.15-4.09,1.82-6.16-.35-2.36-2.47,1.17-6.44,1.17-6.44Z"/>
          <path class="cls-4" d="m238.78,153.17l-2.31-4.49,2.68-.04,3.3.21-.7-2.92,1.82-.77s2.2.14,2.78,1.5l.58,1.36s.91-.38.31,2.01c-.59,2.39-3.51,3.09-3.51,3.09l-1.77,3.42-2.85-.4-3.49-.66,3.16-2.31Z"/>
          <path class="cls-4" d="m255.27,91.45l5.04-.41-.99,2.49-1.46,2.97,2.96.48v1.97s-.97,1.98-2.45,1.98h-1.48s0,.99-1.97-.48c-1.98-1.47-1.5-4.43-1.5-4.43l-2.48-2.95,1.47-2.47,1.96-2.97.92,3.8Z"/>
          <path class="cls-12" d="m219.51,139.68l-2.31-4.49,2.68-.04,3.3.21-.7-2.92,1.82-.77s2.2.14,2.78,1.5l.58,1.36s.91-.38.31,2.01c-.59,2.39-3.51,3.09-3.51,3.09l-1.76,3.42-2.85-.4-3.49-.66,3.16-2.31Z"/>
          <path class="cls-4" d="m250.44,133.69l4.15-2.87.39,2.65.22,3.3,2.8-1.07s1,1.7,1,1.7c-.58,3.36-6.51,7.59-7.86,2.94-.28-.96-2.76-2.34-2.96-3.32-.46-2.31-2.33-3.82-.45-6.15,2.15-2.66,2.7,2.83,2.7,2.83Z"/>
          <path class="cls-4" d="m244.94,107.42l3.6,2.04-2.33-4.22c3.3.21,4.39,1.99,4.39,1.99l-.7-2.92s3.77,1.07,3.77,1.07c3.25,1.01,4.72,5.61-.06,6.33-.99.15-2.68,2.44-3.68,2.5-2.36.15-4.09,1.82-6.16-.35-2.36-2.47,1.17-6.44,1.17-6.44Z"/>
          <path class="cls-4" d="m283.06,131.02l5.03-.52-1.43-2.27-1.98-2.65,2.82-1.01-.35-1.94s-1.32-1.77-2.78-1.51l-1.46.26s-.17-.97-1.85.84c-1.68,1.8-.67,4.63-.67,4.63l-1.9,3.35,1.89,2.17,2.46,2.56.21-3.91Z"/>
          <path class="cls-5" d="m277.88,109.09l-3.19-3.92-1.11,2.44-1.13,3.11-2.39-1.81s-1.43,1.35-1.43,1.36c-.37,3.39,4.15,9.1,6.73,5,.53-.84,3.31-1.48,3.76-2.37,1.08-2.1,3.3-3.02,2.14-5.79-1.32-3.16-3.38,1.97-3.38,1.97Z"/>
          <path class="cls-4" d="m230.6,86.59l.43,4.12-2.94-3.83c-1.13,3.11.06,4.82.06,4.82l-2.39-1.81s-.53,3.88-.53,3.88c-.37,3.39,3.25,6.57,5.83,2.48.53-.84,3.31-1.48,3.76-2.37,1.08-2.1,3.3-3.02,2.14-5.79-1.32-3.16-6.37-1.5-6.37-1.5Z"/>
          <path class="cls-4" d="m235.92,114.15l-3.19-3.92-1.12,2.44-1.13,3.11-2.39-1.81-1.43,1.36s-.75,2.07.26,3.15l1.02,1.07s-.72.68,1.72,1.09c2.43.41,4.24-1.98,4.24-1.98l3.84-.25.77-2.77.79-3.47-3.38,1.97Z"/>
          <path class="cls-4" d="m216.14,100.26l-3.19-3.91-1.11,2.44-1.13,3.11-2.39-1.81-1.43,1.36s-.75,2.07.27,3.15l1.02,1.07s-.72.68,1.71,1.09c2.43.41,4.24-1.98,4.24-1.98l3.84-.25.77-2.77.79-3.47-3.38,1.97Z"/>
          <path class="cls-12" d="m271.07,101.1l-3.19-3.92-1.11,2.44-1.13,3.11-2.39-1.81-1.43,1.36s-.75,2.07.27,3.15l1.02,1.07s-.72.68,1.72,1.09c2.43.41,4.24-1.98,4.24-1.98l3.84-.25.77-2.77.79-3.47-3.38,1.97Z"/>
          <path class="cls-12" d="m217.2,114.86l2.42,4.44,1.54-2.2,1.68-2.85,2.02,2.22,1.66-1.07s1.12-1.9.32-3.14l-.8-1.24s.83-.53-1.49-1.39c-2.31-.85-4.53,1.17-4.53,1.17l-3.82-.46-1.27,2.58-1.41,3.26,3.68-1.31Z"/>
          <path class="cls-4" d="m246.83,122.7l2.47,4.41,1.52-2.21,1.65-2.87,2.05,2.19s1.64-1.09,1.64-1.09c.95-3.27-2.52-9.68-5.77-6.09-.67.74-3.51.89-4.12,1.69-1.43,1.88-3.77,2.41-3.11,5.33.76,3.34,3.67-1.36,3.67-1.36Z"/>
          <path class="cls-5" d="m272.97,121.82l.31-5.04-2.47,1.04-2.94,1.52-.53-2.95s-1.97.02-1.97.03c-2.57,2.23-3.13,9.5,1.55,8.24.96-.26,3.43,1.15,4.37.81,2.22-.81,4.48.02,5.5-2.8,1.17-3.21-3.82-.84-3.82-.84Z"/>
          <path class="cls-5" d="m236.62,145.04l1.72-3.77.59,4.79c2.55-2.11,2.39-4.18,2.39-4.18l1.15,2.77s2.43-3.07,2.43-3.08c2.04-2.73.54-7.31-3.77-5.09-.89.46-3.6-.4-4.45.13-2,1.26-4.38.93-4.78,3.9-.46,3.39,4.72,4.53,4.72,4.53Z"/>
        </g>
        <path class="cls-8" d="m305.91,156.28c1.54,1.38,3.19,2.79,5.05,3.73,1.36.7,2.65.9,4.12,1.24,2.22.52,4.44,1.28,6.56,2.1,2.46.95,4.45,2.12,7.13,1.42,3.56-.93,5.86-4.16,9.74-3.42,2.39.46,5.58,1.75,7.71,0,0,0-16.88,18.97-30.93,12.74-14.05-6.22-9.38-17.83-9.38-17.83Z"/>
      </g>
      <path class="cls-7" d="m196.76,195.4c-5.7-.08-11.39,2.63-16.73,4.41-5.5,1.83-10.39,4.37-15.31,7.43-7.83,4.88-19.52,11.67-23.19,20.75-3.55,8.78,8.2,8.99,13.76,8.9,13.46-.21,24.45-4.68,36.4-10.54,5.8-2.84,11.63-5.59,17.47-8.34,2.79-1.32,5.51-2.8,8.3-4.11,3.22-1.52,7.08-1.71,10.12-3.48,4.46-2.59,7.89-7.47,12.18-10.51,6.21-4.39,12.7-8.51,19.26-12.35,5.95-3.49,12.48-6.64,19.2-8.32,3.39-.85,11.37-2.34,11.01,3.6-.22,3.6-6.32,7.32-8.76,8.98-9.32,6.36-21.37,10.67-28.86,19.3-2.46,2.84-3.66,6.02-7.04,8.11-3.11,1.93-6.89,3.28-10.19,4.93-7.05,3.54-14.19,6.92-21.19,10.56-5.61,2.92-20.88,8.38-21.36,16.26-.03.52.32,1.13.78,1.36,7.28,3.73,17.51,1.55,25.42,1.75,12.76.32,25.54,1.37,38.17,3.19,9.71,1.4,19.4,1.91,28.97-.72,4.65-1.28,8.87-3.42,13.25-5.37,5.24-2.33,10.83-3.53,16.13-5.72,5.62-2.32,3.55-10-2.51-9.09-8.02,1.2-14.2,1.91-21.54,5.67-8.8,4.5-16.92,6.51-26.84,6.45-17.85-.1-35.64.08-53.45,1.6-3.67.31-7.78,1.24-11.47.75-7.14-.93-.06-4.32,2.67-5.95,6.64-3.96,13.61-7.4,20.61-10.66,8.04-3.75,16.22-7.24,24.21-11.06,5.57-2.67,8.87-8.75,13.81-12.5,9.81-7.44,25.27-12.16,32.19-22.91,5.97-9.28-3-15.48-11.96-13.96-15.51,2.63-30.2,13.49-42.62,22.51-2.61,1.9-5.45,3.85-7.76,6.13-.8.79-1.45,1.81-2.29,2.57-2.83,2.58-4.24,2.23-7.47,3.23-7.06,2.19-14.07,6.44-20.7,9.7-8.9,4.38-17.61,9.52-27.01,12.8-5.31,1.85-10.44,2.46-16.05,2.68-1.42.06-3.12.3-4.5.19-3.48.63-5.77-1.25-6.87-5.64.68-1.06,1.44-2.06,2.29-3,5.73-6.93,12.93-12.18,20.43-17.05,4.5-2.91,8.99-5.05,14.03-6.93,4.73-1.77,9.89-4.35,15-4.44.76-.01.76-1.17,0-1.18h0Z"/>
    </g>
  </g>
</svg>