<?xml version="1.0" encoding="UTF-8"?>
<svg xmlns="http://www.w3.org/2000/svg" xmlns:xlink="http://www.w3.org/1999/xlink" viewBox="0 0 197.57 361.35">
  <defs>
    <style>
      .cls-1 {
        mix-blend-mode: multiply;
      }

      .cls-1, .cls-2, .cls-3, .cls-4, .cls-5, .cls-6, .cls-7, .cls-8, .cls-9, .cls-10, .cls-11, .cls-12 {
        stroke-width: 0px;
      }

      .cls-1, .cls-11 {
        fill: #fdf5e0;
      }

      .cls-13 {
        clip-path: url(#clippath);
      }

      .cls-2 {
        fill: url(#_名称未設定グラデーション_19);
      }

      .cls-14, .cls-5, .cls-15 {
        fill: #ebf6fb;
      }

      .cls-3 {
        opacity: .2;
      }

      .cls-3, .cls-4, .cls-7, .cls-8 {
        fill: #fff;
      }

      .cls-16, .cls-17 {
        fill: none;
      }

      .cls-16, .cls-17, .cls-15 {
        stroke: #dff1fa;
        stroke-width: 5.67px;
      }

      .cls-18 {
        clip-path: url(#clippath-1);
      }

      .cls-4, .cls-5 {
        opacity: .4;
      }

      .cls-6 {
        fill: url(#_名称未設定グラデーション_2);
      }

      .cls-7, .cls-12 {
        opacity: .5;
      }

      .cls-19 {
        opacity: .7;
      }

      .cls-17 {
        stroke-linecap: round;
        stroke-linejoin: round;
      }

      .cls-20 {
        isolation: isolate;
      }

      .cls-8 {
        opacity: .3;
      }

      .cls-9 {
        fill: #dff1fa;
      }

      .cls-10 {
        fill: #b81c2b;
      }

      .cls-12 {
        fill: url(#_名称未設定グラデーション_2-2);
      }
    </style>
    <clipPath id="clippath">
      <path class="cls-15" d="m181.7,148.84c9.46-33.12,13.01-94.63,13.01-94.63-2.35-8.77-62.22-14.27-95.93-13.24-33.71-1.03-93.58,4.47-95.93,13.24,0,0,3.55,61.51,13.01,94.63,9.46,33.12,44.83,140.76,48.76,151.41,3.93,10.65-1.31,21.29-2.62,27.21-1.14,5.16,18.66,9.42,36.78,8.85,18.11.58,37.92-3.69,36.78-8.85-1.31-5.91-6.54-16.56-2.62-27.21,3.93-10.65,39.3-118.29,48.76-151.41Z"/>
    </clipPath>
    <linearGradient id="_名称未設定グラデーション_2" data-name="名称未設定グラデーション 2" x1="98.78" y1="315.11" x2="98.78" y2="96.39" gradientUnits="userSpaceOnUse">
      <stop offset="0" stop-color="#094"/>
      <stop offset="1" stop-color="#6cbb5a"/>
    </linearGradient>
    <radialGradient id="_名称未設定グラデーション_19" data-name="名称未設定グラデーション 19" cx="44.62" cy="54.44" fx="44.62" fy="54.44" r="50.86" gradientUnits="userSpaceOnUse">
      <stop offset=".03" stop-color="#ef857d"/>
      <stop offset=".07" stop-color="#ed746d"/>
      <stop offset=".12" stop-color="#eb635d"/>
      <stop offset=".17" stop-color="#ea5853"/>
      <stop offset=".23" stop-color="#ea5550"/>
      <stop offset=".26" stop-color="#e6504d"/>
      <stop offset=".42" stop-color="#d53742"/>
      <stop offset=".6" stop-color="#c9253a"/>
      <stop offset=".79" stop-color="#c21a35"/>
      <stop offset="1" stop-color="#c01734"/>
    </radialGradient>
    <clipPath id="clippath-1">
      <path class="cls-17" d="m181.7,148.84c9.46-33.12,13.01-94.63,13.01-94.63-18.44,18.44-75.9,23.34-95.93,24.51-20.03-1.17-77.49-6.07-95.93-24.51,0,0,3.55,61.51,13.01,94.63,9.46,33.12,44.83,140.76,48.76,151.41,3.93,10.65-1.31,21.29-2.62,27.21-1.14,5.16,18.66,9.42,36.78,8.85,18.11.58,37.92-3.69,36.78-8.85-1.31-5.91-6.54-16.56-2.62-27.21,3.93-10.65,39.3-118.29,48.76-151.41Z"/>
    </clipPath>
    <linearGradient id="_名称未設定グラデーション_2-2" data-name="名称未設定グラデーション 2" y1="315.15" y2="100.05" xlink:href="#_名称未設定グラデーション_2"/>
  </defs>
  <g class="cls-20">
    <g id="_レイヤー_2" data-name="レイヤー 2">
      <g id="_イラスト" data-name="イラスト">
        <g>
          <path class="cls-9" d="m158.95,338.5c0,12.62-26.94,22.85-60.16,22.85s-60.16-10.23-60.16-22.85,26.94-28.31,60.16-28.31,60.16,15.69,60.16,28.31Z"/>
          <g>
            <path class="cls-14" d="m181.7,148.84c9.46-33.12,13.01-94.63,13.01-94.63-2.35-8.77-62.22-14.27-95.93-13.24-33.71-1.03-93.58,4.47-95.93,13.24,0,0,3.55,61.51,13.01,94.63,9.46,33.12,44.83,140.76,48.76,151.41,3.93,10.65-1.31,21.29-2.62,27.21-1.14,5.16,18.66,9.42,36.78,8.85,18.11.58,37.92-3.69,36.78-8.85-1.31-5.91-6.54-16.56-2.62-27.21,3.93-10.65,39.3-118.29,48.76-151.41Z"/>
            <g class="cls-13">
              <path class="cls-6" d="m181.7,204.38c9.46-33.12,13.01-94.63,13.01-94.63-2.35-8.77-62.22-14.27-95.93-13.24-33.71-1.03-93.58,4.47-95.93,13.24,0,0,3.55,61.51,13.01,94.63,9.46,33.12,34.95,111.22,82.92,110.73,47.96.49,73.45-77.61,82.92-110.73Z"/>
            </g>
            <path class="cls-16" d="m181.7,148.84c9.46-33.12,13.01-94.63,13.01-94.63-2.35-8.77-62.22-14.27-95.93-13.24-33.71-1.03-93.58,4.47-95.93,13.24,0,0,3.55,61.51,13.01,94.63,9.46,33.12,44.83,140.76,48.76,151.41,3.93,10.65-1.31,21.29-2.62,27.21-1.14,5.16,18.66,9.42,36.78,8.85,18.11.58,37.92-3.69,36.78-8.85-1.31-5.91-6.54-16.56-2.62-27.21,3.93-10.65,39.3-118.29,48.76-151.41Z"/>
          </g>
          <g>
            <g class="cls-19">
              <g>
                <path class="cls-8" d="m107.47,158.21c.85-2.97-1.16-25.19-3.24-26.97-.1-.08-.2-.14-.3-.13,0,0-.37.5-1.01,1.34l-15.59,17.24,1.85,35.6s14.98-15.51,18.29-27.07Z"/>
                <path class="cls-4" d="m103.93,131.11c-4.36-.74-20.89-2.28-31.54-2.61-1.79-.06-3.54.48-4.81,1.75l-15.43,15.33s21.11,1.69,35.17,4.11l15.59-17.24c.64-.83,1.01-1.34,1.01-1.34Z"/>
              </g>
            </g>
            <path class="cls-7" d="m52.15,145.58c-2.23,3.9,2.33,35.23,4.1,35.93,1.77.7,29.15,6.38,32.92,3.78l-1.85-35.6c-14.06-2.41-35.17-4.11-35.17-4.11Z"/>
          </g>
          <g>
            <g class="cls-19">
              <g>
                <path class="cls-8" d="m54.25,213.14c.05,3.09,8.39,23.78,10.89,24.88.12.05.23.08.32.04,0,0,.21-.59.58-1.57l9.95-21.01-12.06-33.54s-9.86,19.17-9.69,31.2Z"/>
                <path class="cls-4" d="m65.47,238.06c4.38-.55,20.66-3.85,30.95-6.61,1.73-.46,3.25-1.49,4.1-3.06l10.34-19.13s-20.7,4.48-34.86,6.23l-9.95,21.01c-.37.98-.58,1.57-.58,1.57Z"/>
              </g>
            </g>
            <path class="cls-7" d="m110.85,209.25c1.01-4.37-12.41-33.05-14.31-33.21-1.9-.16-29.76,2.32-32.6,5.9l12.06,33.54c14.16-1.75,34.86-6.23,34.86-6.23Z"/>
          </g>
          <g>
            <g class="cls-19">
              <g>
                <path class="cls-8" d="m117.94,203.55c2.84,1.22,25.13,2.07,27.16.24.1-.09.16-.18.17-.28,0,0-.45-.43-1.19-1.17l-15.1-17.67-35.54-2.72s13.46,16.85,24.51,21.61Z"/>
                <path class="cls-4" d="m145.27,203.51c1.29-4.22,4.94-20.42,6.63-30.94.28-1.77-.03-3.58-1.12-5l-13.23-17.26s-4.38,20.72-8.58,34.36l15.1,17.67c.74.74,1.19,1.17,1.19,1.17Z"/>
              </g>
            </g>
            <path class="cls-7" d="m137.55,150.31c-3.58-2.71-35.24-2.2-36.16-.53-.92,1.67-10.06,28.1-7.96,32.16l35.54,2.72c4.19-13.64,8.58-34.36,8.58-34.36Z"/>
          </g>
          <g>
            <path class="cls-11" d="m185.97,100.9l-4.24-3.77c1-3.44,1.68-7.1,1.95-11.01,2.36-33.74-25.32-63.16-61.82-65.71-36.5-2.55-68.01,22.73-70.37,56.47-.36,5.22,0,10.11,1.03,14.66h-.53s-6.06-3.78-4.73,3c1.33,6.77-34.94,7.76-32.59,12.93,2.35,5.18,3.27,7.36,3.27,7.36,0,0,1.51,3.06,4.09,4.91,2.58,1.85,6.29-.43,11.45,3.27,5.16,3.7,20.24,4.63,23.72,6.54,3.48,1.91,10.4-3.62,14.72-.82,4.32,2.81,6.23,2.2,8.87,3.23q2.64,1.02,8.99.63c6.35-.39,20.68,1.45,25.06,3.42,4.38,1.98,20.8-.22,24.46-.8,3.65-.58,4.61-1.35,10.91-.91s9.67.67,11.81-.85c8.56-6.08,10.59-9.28,10.59-9.28,0,0,.12-1.66,2.09-4.03.41-.5.56-.68.59-.7-.09.11-1.57,1.89,1.39-1.67,7.33-1.95,9.02-6.52,9.19-9.01.17-2.49.12-7.88.12-7.88Z"/>
            <path class="cls-1" d="m68.46,85.22c1.07,1.19,2.47,2.37,3.5,2.95,1.03.58,2.34.22,3.34.18,1-.04,1.99-.08,1.99-.08l2.61-1.03,3.01.19s2.1,1.77,3.12,2.04c1.02.27,4.99-.19,5.98-.23,1-.04,3.69.47,3.69.47l-5.78-1.93s-1.71-.86-3.41-1.41c-1.7-.55-1.71-.86-4.43-1.68-2.71-.82-4.36-.45-6.35-.37-2,.08-3.47-2.33-4.57-4.14-1.1-1.81-5.83-5.13-4.88-3.82,2.17,3,1.11,7.67,2.17,8.86Z"/>
            <path class="cls-1" d="m110.87,96.91c-2.74-.04-8.68,1.15-11.89,3.64l15.08-1.49s2.72,4.68,4.09,4.7c1.37.02,7.32-2.86,7.32-2.86l4.58-4.16,3.2-1.65,5.94-1.61s4.11.48,4.11-.79c0-1.27-12.38,1.75-12.38,1.75,0,0-.89-.02-4.09,1.21-2.61,1,1.06,3.07-3.65,3.73-2.74.39-9.58-2.44-12.32-2.48Z"/>
            <path class="cls-1" d="m99.05,57.95c1.48.1,3.65.94,4.79.68,1.13-.26,3.8-1.11,5.28-1.01,1.48.1,1.87-.21,3.36-.11,1.48.1,5.62-.64,5.62-.64,0,0-8.47-1.28-11.43-1.49-2.96-.21-6.71.22-9.55-1.7-2.84-1.92-3.06,1.16-7.75-.89l5.68,3.84s2.52,1.21,4,1.31Z"/>
            <path class="cls-1" d="m165.15,78.01c-4.19.98-8.46,2.48-11.16,1.87-2.7-.61-1.91,1.14-3.71.59-1.79-.55-2.19,6.81-1.32,5.83,4.97-5.58,14.23-6.32,14.23-6.32,0,0,14.68-1.96,6.66-10.84,0,0-.51,7.89-4.7,8.87Z"/>
            <path class="cls-1" d="m130.14,64.58c-2.58-.97-2.07.87-3.76.08-1.69-.78-2.51,6.82-2.23,5.58.29-1.24,11.19-4.99,11.19-4.99,0,0,7.87-1.14,12.21-9.16,0,0-5.64,6.17-9.95,6.57-4.31.4-4.88,2.88-7.46,1.91Z"/>
            <path class="cls-1" d="m110.27,84.29c-1.43-.89-3.96.14-3.96.14,0,0,.54,3,2.14,3.32,1.6.32,3.37.07,5.32-.76,1.94-.83,8.7-1.01,8.7-1.01,0,0-2.74-2.79-3.49-2.01-.76.78-2.55.66-4.3,1.29-1.75.63-2.98-.08-4.41-.97Z"/>
            <path class="cls-1" d="m85.19,98.85c-1.75.63-2.7-.8-4.41-.97-2.22-.22-6.46-4.73-6.46-4.73,0,0,3.04,7.88,4.64,8.2,1.6.32,4.09-2.4,5.32-.76,1.67,2.22,4.08.29,4.08.29,0,0,.64.1,1.41.27-1.63-1.18-3.58-2.65-4.58-2.29Z"/>
            <path class="cls-1" d="m150.86,49.27c1.62-.2,3.19-.99,4.71-2.38,1.52-1.39,2.46-2.15,2.46-2.15,0,0,.62-1.18,1.03-1.92-.66.71-2.08,1.18-3.28,2.15-1.42,1.14-3.47,2.76-5.14,2.37-1.67-.4-3.59,1.63-3.59,1.63,0,0,2.18.5,3.8.3Z"/>
            <path class="cls-1" d="m152.66,72.61c1.85-1,2.96-1.52,2.96-1.52,0,0,.92-1,1.51-1.62-.83.54-2.33.67-3.75,1.34-1.68.78-4.11,1.89-5.62,1.13-1.52-.76-3.92.76-3.92.76,0,0,1.99.98,3.61,1.15,1.63.18,3.36-.24,5.21-1.23Z"/>
            <path class="cls-1" d="m135.59,28.65s.13,4.67-2.72,6.16c-2.85,1.49-3.85,2.69-5.25,3.02-1.4.33-4.31,2.66-4.31,2.66l15.73-2.29s.81-5.02-3.45-9.55Z"/>
            <path class="cls-1" d="m170.81,91.05l-6.05,4.13s-2.11,1.03-3.87,2.25c-1.76,1.22-2.11,1.03-4.86,3.03-2.74,2-3.44,3.82-4.71,5.76-1.26,1.94-4.93,1.65-7.68,1.44-2.75-.22-9.63,1.95-7.54,1.96,4.79.04,9.25,4.31,11.29,4.13,2.04-.18,4.3-.69,5.64-1.26,1.34-.58,1.83-2.07,2.46-3.05.63-.97,1.26-1.95,1.26-1.95l.63-3.19,2.25-2.72s3.38-.76,4.37-1.53c.98-.77,5.09-6.45,11.23-2.64,1.03.64-4.42-6.37-4.42-6.37Z"/>
            <path class="cls-1" d="m180.7,97.29c-1.03,1.62-3.18,6.13-6.54,8.43-3.37,2.3-3.12,5.28-7.25,5.42-4.13.13-4.01-1.55-9.11-.64-5.1.91-3.31,1.46-4.4,3.92-1.09,2.46-6.76,5.03-11.81,5.1-5.04.07-4.5-1.16-7.17-2.19-2.68-1.03-4.25,1.82-8.26.27-3.07-1.19-5.05.38-10.17,1.4.72,0-2.38,3.97,1.16,3.05-4.15,1.76-12.85.37-12.85.37,0,0-4.01-1.55-5.78-2.52-.82-.45.96-1.09,2.69-1.76l1.08.33-.97-.37c1.93-.75,3.71-1.53,1.6-2.12-4.04-1.13-10.36-2.42-13.52-3.06-1.16-.23-2.14-.4-3.02-.59l-4.16-1.61s-.37-1.29-2.1-2.69c-1.73-1.39-3.65-.25-6.38-.45-2.73-.19-4.13.13-5.9-.84-1.76-.97-3.07-1.91-4.75-4.14-1.68-2.23-7.86-11.98-7.86-11.98.13,4.66,2.57,9.07,2.57,9.07l1.04,4.73,3.04,2.33s.25,2.98,3.41,3.62c3.16.64,4.16-.56,6.44-.4q2.28.16,3.59,1.1c.69.5,3.69,1.15,6.35,1.66.14.83.87,2.99,4.57,5.87,4.78,3.72,4.32,3.69,7.03,4.3,2.7.61,3.13,1.06,5.38,1.64,2.25.58,5.04-.07,6.38.45,1.34.52,2.73.19,4.07.71,1.34.52,5.13-1.33,6.5-1.24,1.33.09,13.14-2.26,15.14-2.7,1.95.68,4,1.33,5.12,1.16,1.85-.29,6.23,2.55,8.57,1.87,2.34-.68,8.19-5.78,8.19-5.78l5.84,1.68s2.07-8.14,4.15-6.9c4.84,2.88,22.42-12.82,16.63-8.57-1.13.83,1.47-7.94,1.47-7.94Z"/>
            <path class="cls-1" d="m174.88,53.85c-5.65-11.14-16.31-17.83-10.28-12.15,0,0,12.92,13.25.33,13.52-1.65.04-3.37,2.3-3.37,2.3,0,0-5.66.85-7.14,2.44-1.49,1.59,5.68.17,5.68.17l4.64-2.65,8.45,1.03s-1.72,4.06,2.89,8.19c2.39,2.15,3.71,7.48,4.3,15.15.08,1.03-4.5,2.25-4.44,3.22.07,1.13,3.95,3.55,4.01,4.54.22,4.01.96,9.15,1.15,8.34,5.83-25.7-4.54-40.83-6.2-44.11Z"/>
          </g>
          <g>
            <path class="cls-2" d="m48.16,47.45c-10.44-2.71-18.13,6.43-18.5,10.16-3.58-1.12-14.99,2.39-16.58,13.05-2.4,16.15,22.01,31.97,38.6,20.21,17.31-10.68,12.28-39.33-3.52-43.43Z"/>
            <g>
              <path class="cls-10" d="m31.39,57.28c-2.26-3.68-4.93-5.95-10.91-22.44C14.49,18.34,15.7,1.67,15.7,1.67l-1.37.23s-1.46,15.6,4.93,35.99c4.02,12.83,7.47,18.61,9.35,21.33.78,1.12,3.54-.69,2.77-1.94Z"/>
              <polygon class="cls-10" points="14.27 2.8 15.72 2.4 16.66 0 13.73 .1 14.27 2.8"/>
            </g>
          </g>
          <path class="cls-5" d="m181.7,148.84c9.46-33.12,13.01-94.63,13.01-94.63-18.44,18.44-75.9,23.34-95.93,24.51-20.03-1.17-77.49-6.07-95.93-24.51,0,0,3.55,61.51,13.01,94.63,9.46,33.12,44.83,140.76,48.76,151.41,3.93,10.65-1.31,21.29-2.62,27.21-1.14,5.16,18.66,9.42,36.78,8.85,18.11.58,37.92-3.69,36.78-8.85-1.31-5.91-6.54-16.56-2.62-27.21,3.93-10.65,39.3-118.29,48.76-151.41Z"/>
          <g>
            <g class="cls-18">
              <path class="cls-12" d="m181.7,194.68c9.46-33.12,13.01-94.63,13.01-94.63-18.44,18.44-64.4,23.34-95.93,24.51-31.53-1.17-77.49-6.07-95.93-24.51,0,0,3.55,61.51,13.01,94.63,9.46,33.12,31.26,121.04,82.92,120.46,51.66.58,73.45-87.34,82.92-120.46Z"/>
            </g>
            <path class="cls-17" d="m181.7,148.84c9.46-33.12,13.01-94.63,13.01-94.63-18.44,18.44-75.9,23.34-95.93,24.51-20.03-1.17-77.49-6.07-95.93-24.51,0,0,3.55,61.51,13.01,94.63,9.46,33.12,44.83,140.76,48.76,151.41,3.93,10.65-1.31,21.29-2.62,27.21-1.14,5.16,18.66,9.42,36.78,8.85,18.11.58,37.92-3.69,36.78-8.85-1.31-5.91-6.54-16.56-2.62-27.21,3.93-10.65,39.3-118.29,48.76-151.41Z"/>
          </g>
          <path class="cls-3" d="m145.76,84.84s32.29-2.94,40.12-14.68c0,0-8.81,59.69-14.68,76.32-5.87,16.63-48.93,154.6-48.93,154.6,0,0-1.96,1.96-9.78,2.94,0,0,40.12-121.33,33.27-219.18Z"/>
          <g>
            <path class="cls-3" d="m50.86,149.66c0,1.62-1.31,2.94-2.94,2.94s-2.94-1.31-2.94-2.94,1.31-2.94,2.94-2.94,2.94,1.31,2.94,2.94Z"/>
            <path class="cls-3" d="m62.56,167.34c0,1.62-1.31,2.94-2.94,2.94s-2.94-1.31-2.94-2.94,1.31-2.94,2.94-2.94,2.94,1.31,2.94,2.94Z"/>
            <path class="cls-3" d="m92.89,154.34c0,1.62-1.31,2.94-2.94,2.94s-2.94-1.31-2.94-2.94,1.31-2.94,2.94-2.94,2.94,1.31,2.94,2.94Z"/>
            <path class="cls-3" d="m111.19,189.97c0,1.62-1.31,2.94-2.94,2.94s-2.94-1.31-2.94-2.94,1.31-2.94,2.94-2.94,2.94,1.31,2.94,2.94Z"/>
            <path class="cls-3" d="m55.98,218.53c0,1.62-1.31,2.94-2.94,2.94s-2.94-1.31-2.94-2.94,1.31-2.94,2.94-2.94,2.94,1.31,2.94,2.94Z"/>
            <path class="cls-3" d="m127.27,157.75c0,.66-.54,1.2-1.2,1.2s-1.2-.54-1.2-1.2.54-1.2,1.2-1.2,1.2.54,1.2,1.2Z"/>
            <path class="cls-3" d="m58.71,204.38c0,.66-.54,1.2-1.2,1.2s-1.2-.54-1.2-1.2.54-1.2,1.2-1.2,1.2.54,1.2,1.2Z"/>
            <path class="cls-3" d="m38.35,164.15c0,.66-.54,1.2-1.2,1.2s-1.2-.54-1.2-1.2.54-1.2,1.2-1.2,1.2.54,1.2,1.2Z"/>
            <path class="cls-3" d="m163.52,179.05c0,.66-.54,1.2-1.2,1.2s-1.2-.54-1.2-1.2.54-1.2,1.2-1.2,1.2.54,1.2,1.2Z"/>
            <path class="cls-3" d="m111.86,233.48c0,.66-.54,1.2-1.2,1.2s-1.2-.54-1.2-1.2.54-1.2,1.2-1.2,1.2.54,1.2,1.2Z"/>
            <path class="cls-3" d="m85.19,212.16c0,1.62-1.31,2.94-2.94,2.94s-2.94-1.31-2.94-2.94,1.31-2.94,2.94-2.94,2.94,1.31,2.94,2.94Z"/>
            <path class="cls-3" d="m90.86,184.67c0,1.3-1.05,2.35-2.35,2.35s-2.35-1.05-2.35-2.35,1.05-2.35,2.35-2.35,2.35,1.05,2.35,2.35Z"/>
            <path class="cls-3" d="m139.33,224.9c0,1.3-1.05,2.35-2.35,2.35s-2.35-1.05-2.35-2.35,1.05-2.35,2.35-2.35,2.35,1.05,2.35,2.35Z"/>
            <path class="cls-3" d="m73.53,145.19c0,1.3-1.05,2.35-2.35,2.35s-2.35-1.05-2.35-2.35,1.05-2.35,2.35-2.35,2.35,1.05,2.35,2.35Z"/>
            <path class="cls-3" d="m27.71,129.17c0,1.3-1.05,2.35-2.35,2.35s-2.35-1.05-2.35-2.35,1.05-2.35,2.35-2.35,2.35,1.05,2.35,2.35Z"/>
            <path class="cls-3" d="m179.07,133.01c0,1.3-1.05,2.35-2.35,2.35s-2.35-1.05-2.35-2.35,1.05-2.35,2.35-2.35,2.35,1.05,2.35,2.35Z"/>
            <path class="cls-3" d="m124.57,211.09c0,1.3-1.05,2.35-2.35,2.35s-2.35-1.05-2.35-2.35,1.05-2.35,2.35-2.35,2.35,1.05,2.35,2.35Z"/>
            <path class="cls-3" d="m40.59,139.59c0,.66-.54,1.2-1.2,1.2s-1.2-.54-1.2-1.2.54-1.2,1.2-1.2,1.2.54,1.2,1.2Z"/>
            <circle class="cls-3" cx="41.89" cy="185.99" r="1.2"/>
            <path class="cls-3" d="m163.62,154.99c0,.66-.54,1.2-1.2,1.2s-1.2-.54-1.2-1.2.54-1.2,1.2-1.2,1.2.54,1.2,1.2Z"/>
            <path class="cls-3" d="m143.83,178.83c0,1.3-1.05,2.35-2.35,2.35s-2.35-1.05-2.35-2.35,1.05-2.35,2.35-2.35,2.35,1.05,2.35,2.35Z"/>
            <path class="cls-3" d="m155.86,148.98c0,1.3-1.05,2.35-2.35,2.35s-2.35-1.05-2.35-2.35,1.05-2.35,2.35-2.35,2.35,1.05,2.35,2.35Z"/>
          </g>
        </g>
      </g>
    </g>
  </g>
</svg>