<?xml version="1.0" encoding="utf-8"?>
<!-- Generator: Adobe Illustrator 27.8.1, SVG Export Plug-In . SVG Version: 6.00 Build 0)  -->
<svg version="1.1" id="レイヤー_1" xmlns="http://www.w3.org/2000/svg" xmlns:xlink="http://www.w3.org/1999/xlink" x="0px"
	 y="0px" viewBox="0 0 489.8 311.3" style="enable-background:new 0 0 489.8 311.3;" xml:space="preserve">
<style type="text/css">
	.st0{fill:#0097D6;}
	.st1{fill:#73CAF2;}
	.st2{fill:#FFFFFF;}
	.st3{fill:none;stroke:#FFFFFF;stroke-width:2.83;stroke-linecap:round;stroke-linejoin:round;}
	.st4{fill:#ABC609;}
	.st5{clip-path:url(#SVGID_00000078758986793139438140000014429665227416440714_);}
	.st6{fill:#ECF1CF;}
	.st7{opacity:0.5;fill:#ABC609;enable-background:new    ;}
	.st8{clip-path:url(#SVGID_00000069356723388169449850000013208849234632708787_);}
	.st9{clip-path:url(#SVGID_00000064333702733500491530000013781923587922086534_);}
	.st10{clip-path:url(#SVGID_00000093856066442198546150000008430529700585208744_);}
	.st11{fill:#B9CE41;}
	.st12{fill:#632C3C;}
	.st13{fill:#D93924;}
	.st14{fill:url(#SVGID_00000136370344535563954730000012561317300271982720_);}
	.st15{fill:url(#SVGID_00000020378802127747958350000005732709957135997848_);}
	.st16{fill:url(#SVGID_00000049924744907826275590000000943949664775475643_);}
	.st17{fill:none;}
	.st18{fill:#FFF0AC;}
	.st19{clip-path:url(#SVGID_00000106838905848650491380000015876200824758307731_);}
	.st20{opacity:0.4;fill:#FFF0AC;enable-background:new    ;}
	.st21{fill:#FFF2B6;}
	.st22{clip-path:url(#SVGID_00000003069956190276501720000004546391556718965394_);}
	.st23{clip-path:url(#SVGID_00000122711272088143456680000017055507940654639245_);}
	.st24{clip-path:url(#SVGID_00000166648433785094306160000017512414640449032069_);}
	.st25{clip-path:url(#SVGID_00000071535830555601302840000017722056692159416971_);}
	.st26{clip-path:url(#SVGID_00000085235809527332474310000001004794254546759080_);}
	.st27{fill:#FDE9E1;}
	.st28{fill:#F6B8A1;}
	.st29{fill:#54642A;}
	.st30{fill:#CBD973;}
	.st31{fill:#489037;}
	.st32{fill:#669B47;}
	.st33{fill:#58953E;}
	.st34{fill:#5D9741;}
	.st35{clip-path:url(#SVGID_00000040540893460936852350000007355560640920871811_);}
	.st36{clip-path:url(#SVGID_00000057852458271934343700000007318899526625791919_);}
</style>
<g>
	<g id="_レイヤー_2">
		<g id="_イラスト">
			<g>
				<g>
					<path class="st0" d="M489.4,158.1c0,84.4-109.5,152.8-244.5,152.8S0.4,242.5,0.4,158.1S109.9,5.4,244.9,5.4
						S489.4,73.8,489.4,158.1L489.4,158.1z"/>
					<ellipse class="st1" cx="244.9" cy="152.8" rx="244.5" ry="152.8"/>
					<ellipse class="st2" cx="244.9" cy="156.1" rx="187.7" ry="117.3"/>
					<ellipse class="st3" cx="244.9" cy="156.1" rx="225.2" ry="140.7"/>
				</g>
				<g>
					<g>
						<path class="st4" d="M70.2,123.7c-6.1,6.8,2.8,11.7-3.2,18.7c-4.6,5.2-5.7,8.8-6.9,15.2c-1.7,9.1,7.2,5.4,11.5,12.4
							c-3.3,3.1-5.2,4.1-4,8.5c0.7,2.5,15.9,10.8,19.5,13c1.3,13.4-0.4,14.3,12.7,27.6c6.2,6.3,15.3,0.2,21.9,4.1
							c0.7,3,1.8,18.1,9.9,23.1c0,0,6,3.3,12.8,5.9c0.7,0.7,1.3,1.4,2,2.1c17.8,19,1.5-7.3,28.2-3.4s-1.3,10.7,25.8,8.6
							c27.1-2.1,42.4-8.9,43.4-24.9c1-15.9,18.9-8.3,22.1-19.6c3.3-11.2-4.3-7.7-2.3-18.8c1.3-7.3,0.1-15.3-1.7-23.5
							c-0.6-2.7-0.9-5.4-1.4-8.2c-0.9-4.7-2.2-9.5-6.1-14.5c-4.4-5.7-9.1-36.8-16.4-41.2c-21.2-12.8-20.1-6.1-42.4-17.2
							c-9.7-4.8-20.9-1.8-30.7,1.1c-9.4,2.8-19.9,3-28.5,5.6c-4.9,1.5-8.2,5.3-13.1,6.9c-6.1,2-12.9,0.9-18.9,3.2
							C99.7,110.2,72.6,121.2,70.2,123.7L70.2,123.7z"/>
						<g>
							<defs>
								<path id="SVGID_1_" d="M70.2,123.7c-6.1,6.8,2.8,11.7-3.2,18.7c-4.6,5.2-5.7,8.8-6.9,15.2c-1.7,9.1,7.2,5.4,11.5,12.4
									c-3.3,3.1-5.2,4.1-4,8.5c0.7,2.5,15.9,10.8,19.5,13c1.3,13.4-0.4,14.3,12.7,27.6c6.2,6.3,15.3,0.2,21.9,4.1
									c0.7,3,1.8,18.1,9.9,23.1c0,0,6,3.3,12.8,5.9c0.7,0.7,1.3,1.4,2,2.1c17.8,19,1.5-7.3,28.2-3.4s-1.3,10.7,25.8,8.6
									c27.1-2.1,42.4-8.9,43.4-24.9c1-15.9,18.9-8.3,22.1-19.6c3.3-11.2-4.3-7.7-2.3-18.8c1.3-7.3,0.1-15.3-1.7-23.5
									c-0.6-2.7-0.9-5.4-1.4-8.2c-0.9-4.7-2.2-9.5-6.1-14.5c-4.4-5.7-9.1-36.8-16.4-41.2c-21.2-12.8-20.1-6.1-42.4-17.2
									c-9.7-4.8-20.9-1.8-30.7,1.1c-9.4,2.8-19.9,3-28.5,5.6c-4.9,1.5-8.2,5.3-13.1,6.9c-6.1,2-12.9,0.9-18.9,3.2
									C99.7,110.2,72.6,121.2,70.2,123.7L70.2,123.7z"/>
							</defs>
							<clipPath id="SVGID_00000029756991192788558920000011462383243935403914_">
								<use xlink:href="#SVGID_1_"  style="overflow:visible;"/>
							</clipPath>
							<g style="clip-path:url(#SVGID_00000029756991192788558920000011462383243935403914_);">
								<path class="st6" d="M222.8,102.5c0,0-37,74-61.1,98l-24.1,24c0,0,42.6-56.9,50.1-89.5C195.2,102.4,222.8,102.5,222.8,102.5
									L222.8,102.5z"/>
								<path class="st6" d="M192.7,130.4c0,0,10.3,41.8,9.6,54.2s-1,36.2-1,36.2s-3.6-61.5-10.3-72.9
									C184.4,136.4,192.7,130.4,192.7,130.4L192.7,130.4z"/>
								<path class="st6" d="M210,111.3c0,0,13.4,37.8,17.2,52.9c3.8,15.1,5.6,37.7,5.6,37.7s-16.5-65.3-28.6-77
									S210,111.3,210,111.3L210,111.3z"/>
								<path class="st6" d="M196.8,142c0,0-47.1,7.3-59.7,12.6s-37,14.5-37,14.5s64.9-20.3,79.3-19.2S196.8,142,196.8,142z"/>
								<path class="st6" d="M215.7,107.9c0,0-44.2,3.3-61.2,5.9c-17,2.6-41.1,9.7-41.1,9.7s73.8-11.1,90.4-5.5
									C220.5,123.6,215.7,107.9,215.7,107.9L215.7,107.9z"/>
								<path class="st7" d="M256,224.2c-8.5-9.2-2.4-23.4-11.6-23.5c-9.2,0-14.9,11.7-13.5,22.1c1.4,10.5,6,18.7-4,27.9
									c-9.9,9.2-31.9,22.1-37.9,15.8c-6-6.4-6.7-5.4-4.2-23.1c2.5-17.7,2.9-20.3-2.8-20.9s-7.4-0.3-12.4,10.4
									c-5,10.8-10.6,14.2-11.7,21.8c-1.1,7.6,4.9,14-5.7,11.7s-36.7-20.7-33.9-28.6c2.8-7.9,20.2-25,12.1-24.4s-23.8,9.3-30.8,5.7
									c-24-12.4,4.4-21.9,5.7-27.6c4.2-17.5-12.9-4.9-27.6-4.2c-31.4,1.6-6.5-14.5,8.6-27.9c15.5-13.6,4-32-21.5-26.6
									c-25.5,5.3-11.3,11.1-18.8,27.2c-7.5,16.1,36,46.3,46.8,66.6c10.9,20.3,89.6,68.9,140,34.5C283.2,226.8,256,224.2,256,224.2
									L256,224.2z"/>
							</g>
						</g>
					</g>
					<g>
						<path class="st4" d="M411.2,203c7.5-5.5,0-12,7.5-17.7c5.7-4.3,7.6-7.5,10.3-13.6c3.8-8.6-5.7-6.6-8.3-14.3
							c3.9-2.4,6.1-3.1,5.9-7.5c-0.1-2.5-13.1-13.5-16.1-16.4c1.8-13.4,3.7-13.9-6-29.4c-4.6-7.3-15-3-20.5-8.1
							c0-3.1,2.5-18.1-4.3-24.5c0,0-5.1-4.3-11.1-8.2c-0.5-0.8-1-1.6-1.5-2.4c-12.9-21.9-3.2,6.9-28.4-1.9
							c-25.3-8.8,3.8-10.2-23.2-13.2c-27-3-43.5,0.8-48.2,16.2c-4.7,15.4-20.4,4.6-26.2,15c-5.8,10.4,2.4,8.3-2.1,18.8
							c-3,6.9-3.6,14.9-3.8,23.3c-0.1,2.8-0.4,5.5-0.5,8.3c-0.2,4.8,0,9.7,2.6,15.3c3,6.4,0.3,37.7,6.4,43.4
							c17.8,16.4,18.3,9.7,37.5,24.8c8.4,6.5,20,5.7,30.3,4.7c9.9-1,20.1,0.8,29.2-0.1c5.1-0.5,9.3-3.6,14.4-4.3
							c6.4-0.8,12.8,1.5,19.3,0.4C379.3,210.8,408.3,205.1,411.2,203L411.2,203z"/>
						<g>
							<defs>
								<path id="SVGID_00000111892931791370729160000017699021099403853486_" d="M411.2,203c7.5-5.5,0-12,7.5-17.7
									c5.7-4.3,7.6-7.5,10.3-13.6c3.8-8.6-5.7-6.6-8.3-14.3c3.9-2.4,6.1-3.1,5.9-7.5c-0.1-2.5-13.1-13.5-16.1-16.4
									c1.8-13.4,3.7-13.9-6-29.4c-4.6-7.3-15-3-20.5-8.1c0-3.1,2.5-18.1-4.3-24.5c0,0-5.1-4.3-11.1-8.2c-0.5-0.8-1-1.6-1.5-2.4
									c-12.9-21.9-3.2,6.9-28.4-1.9c-25.3-8.8,3.8-10.2-23.2-13.2c-27-3-43.5,0.8-48.2,16.2c-4.7,15.4-20.4,4.6-26.2,15
									c-5.8,10.4,2.4,8.3-2.1,18.8c-3,6.9-3.6,14.9-3.8,23.3c-0.1,2.8-0.4,5.5-0.5,8.3c-0.2,4.8,0,9.7,2.6,15.3
									c3,6.4,0.3,37.7,6.4,43.4c17.8,16.4,18.3,9.7,37.5,24.8c8.4,6.5,20,5.7,30.3,4.7c9.9-1,20.1,0.8,29.2-0.1
									c5.1-0.5,9.3-3.6,14.4-4.3c6.4-0.8,12.8,1.5,19.3,0.4C379.3,210.8,408.3,205.1,411.2,203L411.2,203z"/>
							</defs>
							<clipPath id="SVGID_00000113340273014661372660000018285163725723145368_">
								<use xlink:href="#SVGID_00000111892931791370729160000017699021099403853486_"  style="overflow:visible;"/>
							</clipPath>
							<g style="clip-path:url(#SVGID_00000113340273014661372660000018285163725723145368_);">
								<path class="st6" d="M257.1,195.2c0,0,53.5-65.5,82.6-84.4l29.2-19c0,0-55,47.7-69.9,78.2S257.1,195.2,257.1,195.2z"/>
								<path class="st6" d="M293,173.6c0,0-0.3-42.8,3.2-54.8c3.6-12.1,9.4-35.2,9.4-35.2s-10.8,60.8-6.9,73.3
									C302.5,169.3,293,173.6,293,173.6L293,173.6z"/>
								<path class="st6" d="M271.6,189c0,0-4.3-39.5-4.5-55c-0.2-15.4,3.4-37.9,3.4-37.9s0.9,67,10,80.7
									C289.7,190.4,271.6,189,271.6,189L271.6,189z"/>
								<path class="st6" d="M291.7,161.5c0,0,47.7,1.6,61.3-1.2c13.6-2.8,39.6-7.3,39.6-7.3s-68.3,7.8-82,3.9
									C296.9,153.1,291.7,161.5,291.7,161.5z"/>
								<path class="st6" d="M265.3,191.3c0,0,44,5.1,61.2,5.7s42.4-1.8,42.4-1.8s-74.8-2.9-89.7-11.5
									C264.2,175.1,265.3,191.3,265.3,191.3z"/>
								<path class="st7" d="M253,70c6.1,10.6-3.1,23.4,5.9,25.1s17.3-8.6,18.4-19.1s-1.5-19.4,10.4-26.5s36.4-15.6,40.7-8.3
									s5.3,6.5-1.3,23.4s-7.5,19.3-2.2,21c5.4,1.7,7.2,1.7,14.6-7.9s13.7-11.9,16.6-19.2c2.8-7.2-1.5-14.6,8.3-10.4
									c9.9,4.2,31.1,27.1,26.5,34.3c-4.6,7.2-25.6,20.6-17.5,21.6c8.1,0.9,25.5-4.6,31.4,0.2c20.6,16.7-9.4,20.7-12,25.9
									c-8.2,16.3,11.5,7.2,26,9.2c31.1,4.3,3,15.4-14.9,25.6c-18.3,10.5-11.4,30.5,14.8,30.1c26.2-0.4,13.7-8.7,24.8-23.1
									c11.1-14.4-24.4-52-30.3-73.9c-5.9-21.9-71.6-84.2-128.8-59.9C226.9,62.4,253,70,253,70L253,70z"/>
							</g>
						</g>
					</g>
					<g>
						<path class="st4" d="M198.8,234.5c3.4,8.2,12.6,3.9,16.2,12.2c2.6,6.2,5.4,8.9,11,13.2c7.8,6,8.8-2.7,17.8-2.3
							c1.2,4.1,1.3,6.1,6,7.5c2.7,0.8,18.5-6.6,22.6-8.2c13.5,5.9,13.5,7.7,33,4.6c9.2-1.5,8.1-11.6,15.3-14.6
							c3.2,1,18.3,8,27.2,4.4c0,0,6.3-2.9,12.3-6.7c1-0.2,2-0.3,3-0.5c27.4-3.7-6.2-4.9,11.4-23.4c17.6-18.5,9.5,6.6,21.6-15.3
							c12.1-21.9,13.5-37.1-1.2-46.1c-14.7-9,1.8-18.8-7.2-27.1s-9.6-0.7-19.1-7.9c-6.3-4.8-14.6-8-23.4-10.9
							c-2.9-1-5.7-2.1-8.6-3.2c-4.9-1.8-10.2-3.2-17-2.9c-7.8,0.4-39.8-12.1-47.9-8.8c-23.2,9.6-16.2,12.2-38.4,23.5
							c-9.6,4.9-12.6,15.1-14.9,24c-2.2,8.7-7.5,16.7-9.4,24.7c-1.1,4.5,0.8,9-0.2,13.6c-1.2,5.7-5.8,10.3-6.8,16.2
							C201.1,204.9,197.5,231.3,198.8,234.5L198.8,234.5z"/>
						<g>
							<defs>
								<path id="SVGID_00000020393087273951325810000012802738757663584186_" d="M198.8,234.5c3.4,8.2,12.6,3.9,16.2,12.2
									c2.6,6.2,5.4,8.9,11,13.2c7.8,6,8.8-2.7,17.8-2.3c1.2,4.1,1.3,6.1,6,7.5c2.7,0.8,18.5-6.6,22.6-8.2
									c13.5,5.9,13.5,7.7,33,4.6c9.2-1.5,8.1-11.6,15.3-14.6c3.2,1,18.3,8,27.2,4.4c0,0,6.3-2.9,12.3-6.7c1-0.2,2-0.3,3-0.5
									c27.4-3.7-6.2-4.9,11.4-23.4c17.6-18.5,9.5,6.6,21.6-15.3c12.1-21.9,13.5-37.1-1.2-46.1c-14.7-9,1.8-18.8-7.2-27.1
									s-9.6-0.7-19.1-7.9c-6.3-4.8-14.6-8-23.4-10.9c-2.9-1-5.7-2.1-8.6-3.2c-4.9-1.8-10.2-3.2-17-2.9
									c-7.8,0.4-39.8-12.1-47.9-8.8c-23.2,9.6-16.2,12.2-38.4,23.5c-9.6,4.9-12.6,15.1-14.9,24c-2.2,8.7-7.5,16.7-9.4,24.7
									c-1.1,4.5,0.8,9-0.2,13.6c-1.2,5.7-5.8,10.3-6.8,16.2C201.1,204.9,197.5,231.3,198.8,234.5L198.8,234.5z"/>
							</defs>
							<clipPath id="SVGID_00000042716039134002634550000011601602230906603146_">
								<use xlink:href="#SVGID_00000020393087273951325810000012802738757663584186_"  style="overflow:visible;"/>
							</clipPath>
							<g style="clip-path:url(#SVGID_00000042716039134002634550000011601602230906603146_);">
								<path class="st6" d="M257.7,106.7c0,0,51.5,66.7,61.9,97.6l10.4,30.9c0,0-32.2-62.1-59.5-84.8
									C243.3,127.8,257.7,106.7,257.7,106.7z"/>
								<path class="st6" d="M268.6,144.2c0,0,45.2,13.8,56.8,20.8c11.6,7,34,19.5,34,19.5s-60.6-29.1-75-30
									C270.1,153.6,268.6,144.2,268.6,144.2L268.6,144.2z"/>
								<path class="st6" d="M259.5,121.1c0,0,43.1,9.4,59.5,14.3c16.4,4.9,38.9,15.3,38.9,15.3s-71-21.2-88.4-18
									C252,135.9,259.5,121.1,259.5,121.1L259.5,121.1z"/>
								<path class="st6" d="M281.9,147.1c0,0-17.4,39.8-18.9,52.3c-1.5,12.4-5.3,35.9-5.3,35.9s14.3-60.2,22.8-70.6
									S281.9,147.1,281.9,147.1L281.9,147.1z"/>
								<path class="st6" d="M259.1,114.9c0,0-19.8,35.5-26.1,49.9c-6.3,14.4-12,36.5-12,36.5s27.6-62.2,41.6-72.1
									C276.6,119.4,259.1,115,259.1,114.9L259.1,114.9z"/>
								<path class="st7" d="M391.1,144.4c-13.2,1.7-23.6-10.3-28.4-3.3c-4.8,7,3.4,17.5,14.1,21.8c10.7,4.4,21,5.1,24.5,17.5
									c3.6,12.4,4.5,35.9-4.6,37.2c-9.2,1.3-8.6,2.3-24.2-8.8c-15.6-11.1-17.9-12.7-21.4-8.7s-4.2,5.5,3.5,14.9
									c7.7,9.4,8.1,15.5,14.8,20.3s15.9,3.5,8.2,10.4c-7.6,6.9-38.8,17.4-44.9,11.1c-6.1-6.3-13.4-28.4-17-21.9
									c-3.6,6.5-3.5,23.1-10.5,26.5c-24.4,11.9-18.7-14.7-23.4-18.7c-14.5-12.3-11.4,7.3-18.3,18.9c-14.8,24.9-17.2-2.5-22.1-21
									c-5-18.9-28.5-19.6-36.6,2.6c-8.1,22.3,4.7,14.4,16.2,28.5c11.5,14.1,62.9-3.5,87.9-1.3s112.3-32.9,105.6-89.2
									C407.7,124.9,391.1,144.4,391.1,144.4L391.1,144.4z"/>
							</g>
						</g>
					</g>
					<g>
						<path class="st4" d="M322.2,63.3c-2.5-8.4-12.2-4.9-14.9-13.4c-2-6.4-4.5-9.3-9.6-14c-7.2-6.6-9.1,2-18,0.9
							c-0.8-4.2-0.6-6.2-5.2-7.9c-2.6-1-19.1,5.1-23.3,6.3c-12.9-7-12.6-8.8-32.4-7.3c-9.3,0.7-9.2,10.9-16.7,13.3
							c-3.1-1.2-17.4-9.5-26.7-6.6c0,0-6.6,2.4-12.9,5.7c-1,0.1-2,0.2-3.1,0.2C132,42.1,165.3,46,145.9,63
							c-19.4,17-8.8-7.3-23.1,13.5c-14.2,20.8-17.1,35.8-3.4,46c13.7,10.2-3.7,18.5,4.4,27.6c8.2,9,9.5,1.4,18.3,9.4
							c5.8,5.3,13.7,9.1,22.2,12.8c2.8,1.2,5.4,2.6,8.2,3.9c4.7,2.2,9.9,4,16.6,4.2c7.8,0.2,38.5,15.3,46.8,12.6
							c24-7.7,17.4-10.9,40.6-20.3c10.1-4.1,14-14,17.2-22.8c3.1-8.5,9.1-16.1,11.9-23.9c1.6-4.4,0.1-9.1,1.6-13.5
							c1.8-5.6,6.8-9.8,8.4-15.6C316.9,92.5,323.2,66.5,322.2,63.3L322.2,63.3z"/>
						<g>
							<defs>
								<path id="SVGID_00000139258707096611408400000004274472730344926142_" d="M322.2,63.3c-2.5-8.4-12.2-4.9-14.9-13.4
									c-2-6.4-4.5-9.3-9.6-14c-7.2-6.6-9.1,2-18,0.9c-0.8-4.2-0.6-6.2-5.2-7.9c-2.6-1-19.1,5.1-23.3,6.3
									c-12.9-7-12.6-8.8-32.4-7.3c-9.3,0.7-9.2,10.9-16.7,13.3c-3.1-1.2-17.4-9.5-26.7-6.6c0,0-6.6,2.4-12.9,5.7
									c-1,0.1-2,0.2-3.1,0.2C132,42.1,165.3,46,145.9,63c-19.4,17-8.8-7.3-23.1,13.5c-14.2,20.8-17.1,35.8-3.4,46
									c13.7,10.2-3.7,18.5,4.4,27.6c8.2,9,9.5,1.4,18.3,9.4c5.8,5.3,13.7,9.1,22.2,12.8c2.8,1.2,5.4,2.6,8.2,3.9
									c4.7,2.2,9.9,4,16.6,4.2c7.8,0.2,38.5,15.3,46.8,12.6c24-7.7,17.4-10.9,40.6-20.3c10.1-4.1,14-14,17.2-22.8
									c3.1-8.5,9.1-16.1,11.9-23.9c1.6-4.4,0.1-9.1,1.6-13.5c1.8-5.6,6.8-9.8,8.4-15.6C316.9,92.5,323.2,66.5,322.2,63.3
									L322.2,63.3z"/>
							</defs>
							<clipPath id="SVGID_00000101813157362079188090000009199149939762125992_">
								<use xlink:href="#SVGID_00000139258707096611408400000004274472730344926142_"  style="overflow:visible;"/>
							</clipPath>
							<g style="clip-path:url(#SVGID_00000101813157362079188090000009199149939762125992_);">
								<path class="st6" d="M250.7,185.8c0,0-44.6-70.6-51.8-102.2l-7.3-31.6c0,0,25.9,64.5,50.7,89.2S250.7,185.8,250.7,185.8
									L250.7,185.8z"/>
								<path class="st6" d="M243.5,147.6c0,0-43.6-17.4-54.5-25.3c-10.8-7.9-31.9-22.2-31.9-22.2s57.5,33.9,71.7,35.9
									C243,138.1,243.5,147.6,243.5,147.6L243.5,147.6z"/>
								<path class="st6" d="M250.3,171.3c0,0-42-12.8-57.8-19s-37.2-18.4-37.2-18.4s68.6,26.9,86.2,25.1S250.3,171.3,250.3,171.3
									L250.3,171.3z"/>
								<path class="st6" d="M230.6,143.6c0,0,21.3-38.2,24.1-50.5s8.9-35.3,8.9-35.3s-20.3,58.9-29.8,68.5
									C224.2,135.9,230.6,143.6,230.6,143.6L230.6,143.6z"/>
								<path class="st6" d="M250.1,177.5c0,0,23.3-33.8,31.1-47.6c7.8-13.8,15.6-35.3,15.6-35.3S263,154.3,248.1,163
									C233.1,171.6,250.1,177.5,250.1,177.5L250.1,177.5z"/>
								<path class="st7" d="M121.6,137.5c13.3-0.6,22.5,12.2,28,5.6c5.5-6.6-1.7-17.7-11.9-22.9s-20.3-6.8-22.7-19.4
									c-2.3-12.6-0.9-36.1,8.3-36.7c9.3-0.5,8.8-1.6,23.3,10.7C161,87.2,163.1,89,167,85.3c3.9-3.7,4.7-5.2-2-15.1
									c-6.7-10-6.5-16.1-12.6-21.4c-6.2-5.3-15.4-4.7-7.1-11s40.4-14.2,45.8-7.4s10.4,29.4,14.7,23.2c4.3-6.2,5.8-22.7,13.2-25.5
									c25.5-9.9,17.1,16.2,21.4,20.5c13.2,13.4,12.1-6.4,20.1-17.4c17.2-23.6,16.9,3.9,20,22.7c3.1,19.3,26.4,21.9,36.7,0.3
									s-3.2-14.7-13.3-29.7c-10.1-15-63-1.6-87.7-5.8S101,42.2,102,98.9C103.1,155.5,121.6,137.5,121.6,137.5L121.6,137.5z"/>
							</g>
						</g>
					</g>
					<path class="st6" d="M244,119.2c0,0,10.1,38.7,12.5,54c2.4,15.3,2.2,38,2.2,38s-10.8-66.3-21.8-78.8
						C225.8,119.9,244,119.2,244,119.2L244,119.2z"/>
					<path class="st6" d="M253.3,99.4c0,0,48.5,68.5,57.5,99.8l9,31.3c0,0-29.4-63.2-55.6-86.9C238,119.9,253.3,99.4,253.3,99.4
						L253.3,99.4z"/>
					<path class="st4" d="M307.7,88.2c-3.5-8.1-12.7-3.7-16.4-11.9c-2.8-6.2-5.6-8.8-11.3-13c-8-5.9-8.8,2.9-17.8,2.6
						c-1.3-4.1-1.4-6.1-6.1-7.4c-2.7-0.7-18.4,7-22.4,8.6c-13.7-5.7-13.6-7.5-33.1-4c-9.2,1.6-7.8,11.8-15,14.9
						c-3.2-0.9-18.5-7.7-27.4-3.9c0,0-6.2,3-12.1,6.9c-1,0.2-2,0.3-3,0.5c-27.3,4.2,6.3,4.8-10.8,23.6s-9.7-6.4-21.2,15.7
						s-12.6,37.3,2.3,46.1c14.9,8.8-1.4,18.8,7.8,27c9.2,8.2,9.6,0.5,19.3,7.6c6.4,4.7,14.8,7.7,23.6,10.5c2.9,0.9,5.7,2,8.7,3
						c5,1.7,10.3,3,17,2.6c7.8-0.6,40.1,11.4,48,7.9c23-10,16-12.5,37.9-24.2c9.5-5.1,12.2-15.3,14.3-24.3c2-8.7,7.1-16.9,8.9-24.9
						c1-4.5-1-9-0.1-13.6c1.1-5.7,5.5-10.4,6.4-16.3C306,117.8,309,91.3,307.7,88.2L307.7,88.2z"/>
					<path class="st4" d="M305.8,197.6c3,2.8,5-1.7,8,1c2.3,2.1,3.9,2.5,6.7,2.9c3.9,0.6,2.1-3.7,5.1-6c1.4,1.5,1.9,2.4,3.7,1.7
						c1-0.4,4.2-8.1,5.1-9.9c5.7-1.1,6.1-0.2,11.5-7.1c2.6-3.2-0.3-7.5,1.3-10.8c1.3-0.4,7.7-1.4,9.7-5.6c0,0,1.3-3.1,2.2-6.4
						c0.3-0.4,0.5-0.7,0.9-1.1c7.7-9.3-3.2-0.5-2.1-13.7c1.1-13.2,4.6,0.3,3.1-12.9c-1.5-13.2-4.7-20.4-11.6-20.5
						c-6.8,0-4-9-8.8-10.2s-3.2,2.4-8,1.7c-3.2-0.4-6.5,0.4-10,1.6c-1.1,0.4-2.3,0.6-3.5,1c-2,0.6-4,1.4-6.1,3.4
						c-2.4,2.3-15.5,5.6-17.2,9.3c-5,10.8-2.2,10-6.4,21.3c-1.9,4.9-0.3,10.3,1.1,15c1.4,4.5,1.7,9.6,3,13.8
						c0.7,2.3,2.4,3.9,3.2,6.2c1,2.9,0.7,6.3,1.8,9.2C299.4,183.6,304.7,196.6,305.8,197.6L305.8,197.6z"/>
					<path class="st4" d="M153.8,120.3c-4.3,0-2.1,4.4-6.4,4.4c-3.3,0.1-4.7,0.7-7,2.2c-3.2,2.1,1.4,3.9,1.2,7.4
						c-2.2-0.2-3.2-0.5-3.9,1.2c-0.4,0.9,3.5,8.4,4.4,10.2c-3.1,4.4-4.1,4.1-2.4,12.3c0.8,3.9,6.2,5.1,7.8,8.4
						c-0.5,1.1-4.2,6-2.3,10.1c0,0,1.6,2.9,3.6,5.9c0.1,0.4,0.2,0.8,0.2,1.3c2,11.4,2.6-1.7,12.4,8.2s-3.5,2.7,8.1,11
						c11.6,8.3,19.7,11.2,24.4,6.9c4.8-4.4,9.9,3.7,14.4,1.5s0.3-3.7,4.2-6.3c2.5-1.7,4.2-4.5,5.8-7.5c0.5-1,1.1-1.9,1.7-2.9
						c0.9-1.7,24.5,0,24.4-2.7c-0.2-3.1-1.6-22.2-3.3-25.9c-5.1-10.7,3.8-16.3-2.2-26.9c-2.6-4.6-33.2,5.3-37.9,2.9
						c-4.6-2.3-8.9-5.6-13.1-7.7c-2.4-1.2-4.8-1.1-7.2-2.3c-3-1.4-5.5-3.9-8.6-5.3C169.4,125.9,155.4,120.3,153.8,120.3L153.8,120.3
						z"/>
					<path class="st11" d="M246.1,117.3c-4.3,0-2.1,4.4-6.4,4.4c-3.3,0.1-4.7,0.7-7,2.2c-3.2,2.1,1.4,3.9,1.2,7.4
						c-2.2-0.2-3.2-0.5-3.9,1.2c-0.4,0.9,3.5,8.4,4.4,10.2c-3.1,4.4-4.1,4.1-2.4,12.3c0.8,3.9,6.2,5.1,7.8,8.4
						c-0.5,1.1-4.2,6-2.3,10.1c0,0,1.6,2.9,3.6,5.9c0.1,0.4,0.2,0.8,0.2,1.3c2,11.4,2.6-1.7,12.4,8.2c9.8,9.9-3.5,2.7,8.1,11
						s19.7,11.2,24.4,6.9s9.9,3.7,14.4,1.5c4.4-2.2,0.3-3.7,4.2-6.3c2.5-1.7,4.2-4.5,5.8-7.5c0.5-1,1.1-1.9,1.7-2.9
						c0.9-1.7,24.5,0,24.3-2.7c-0.2-3.1-1.6-22.2-3.3-25.9c-5.1-10.7,3.8-16.3-2.2-26.9c-2.6-4.6-33.2,5.3-37.9,2.9
						c-4.6-2.3-8.9-5.6-13.1-7.7c-2.4-1.2-4.8-1.1-7.2-2.3c-3-1.4-5.5-3.9-8.6-5.3C261.7,122.9,247.7,117.3,246.1,117.3L246.1,117.3
						z"/>
					<path class="st4" d="M249.1,56.5c-1.4-3.7-5.3-0.4-6.7-4.1c-1.1-2.8-2.2-3.8-4.5-5.2c-3.3-2-3.7,2.5-7.5,3.4
						c-0.5-1.9-0.5-2.9-2.5-3c-1.1,0-7.8,5.6-9.5,6.9c-5.7-1.3-5.6-2.2-13.8,1.8c-3.9,1.9-3.5,6.8-6.5,9.2
						c-1.4-0.1-7.6-1.7-11.4,1.2c0,0-2.6,2.2-5.2,4.9c-0.4,0.2-0.8,0.4-1.3,0.6c-11.5,5.3,2.6,1.7-4.9,13.1s-4-2.1-9.1,10.3
						c-5.2,12.4-5.8,20.2,0.3,22.9c6.1,2.7-0.9,9.6,2.9,12.7c3.8,3.1,4-0.9,8,1.6c2.6,1.6,6.1,2.2,9.8,2.6c1.2,0.1,2.4,0.4,3.6,0.5
						c2.1,0.3,7.6,20.9,10.4,19.9c3.3-1.2,23.1-8.2,26.4-10.9c9.8-7.7,18.5-1.9,27.9-10.3c4.1-3.7-15.9-26.6-14.9-31.4
						c1-4.6,3.2-9.3,4.1-13.6c0.5-2.4-0.3-4.4,0.2-6.8c0.6-3,2.5-5.9,2.9-8.9C248,71.6,249.6,57.9,249.1,56.5L249.1,56.5z"/>
					<path class="st6" d="M274.3,176.5c0,0-18.9-35.9-24.8-50.4s-11-36.7-11-36.7s26,62.8,39.7,73
						C291.9,172.5,274.3,176.5,274.3,176.5L274.3,176.5z"/>
					<path class="st4" d="M219.2,218.7c5.4,7.3,13.3,1.2,18.8,8.5c4.2,5.5,7.6,7.6,14.1,10.6c9.2,4.3,7.9-4.4,16.8-5.9
						c2.2,3.7,2.8,5.7,7.7,6.1c2.8,0.2,16.4-10.2,19.9-12.6c14.7,3,15.1,4.8,33.3-2.2c8.6-3.3,4.9-13,11.2-17.4
						c3.4,0.3,19.9,4.1,27.6-1.3c0,0,5.4-4.1,10.2-9.1c0.9-0.4,1.9-0.7,2.8-1.1c25.7-9.2-7.3-3.5,5.1-25.1s11,4.4,17.1-19.3
						s3.6-38.8-13-44.6c-16.6-5.8-3-18.6-13.9-24.9c-10.9-6.3-9.5,1.3-20.7-3.8c-7.4-3.4-16.2-4.8-25.5-5.8c-3-0.3-6.1-0.9-9.2-1.3
						c-5.3-0.7-10.8-1-17.3,0.7c-7.5,2-41.9-3.7-48.8,1.2c-20.1,14.1-12.7,15.2-31.4,30.8c-8.1,6.8-8.4,17.3-8.4,26.4
						c0.1,8.9-3,17.8-2.9,26c0.1,4.6,3.1,8.6,3.2,13.3c0.2,5.8-3,11.2-2.4,17.1C214,189.4,217.2,215.9,219.2,218.7L219.2,218.7z"/>
					<path class="st4" d="M195.5,111.4c-3.6-2.1-4.4,2.6-8.1,0.5c-2.8-1.6-4.4-1.8-7.2-1.6c-4,0.2-1.2,4-3.6,6.8c-1.7-1.2-2.4-2-4-1
						c-0.9,0.6-2.3,8.7-2.7,10.7c-5.3,2.1-5.9,1.4-9.6,9.1c-1.8,3.6,2,7.3,1.3,10.8c-1.1,0.7-7.2,2.9-8.2,7.3c0,0-0.5,3.2-0.7,6.7
						c-0.2,0.4-0.4,0.8-0.6,1.2c-5.4,10.5,3.2-0.1,5.2,13c2,13.1-4.6,0.5-0.1,13.2c4.5,12.6,9.4,19.1,16.1,17.9c6.7-1.3,6,8,11,8.4
						c5.1,0.3,2.6-2.9,7.4-3.2c3.2-0.2,6.3-1.6,9.4-3.4c1-0.6,2.1-1,3.2-1.6c1.8-0.9,3.6-2.1,5.1-4.5c1.8-2.7,13.9-8.4,14.7-12.3
						c2.4-11.5-0.2-10.2,1.3-22c0.7-5.1-2.1-10.1-4.6-14.4c-2.4-4.2-3.9-9.1-6.1-12.9c-1.3-2.1-3.3-3.3-4.6-5.5
						c-1.6-2.7-2.1-6-3.9-8.6C205.1,123.8,196.9,112.2,195.5,111.4L195.5,111.4z"/>
					<path class="st4" d="M369.1,178.4c4.2-0.8,1-4.7,5.2-5.6c3.2-0.7,4.5-1.6,6.3-3.5c2.6-2.7-2.3-3.6-3-7c2.1-0.2,3.3-0.1,3.6-1.9
						c0.2-1-5.4-7.6-6.7-9.2c2-4.9,3-4.8-0.5-12.5c-1.7-3.6-7.2-3.8-9.5-6.8c0.2-1.2,2.7-6.6-0.1-10.3c0,0-2.2-2.6-4.9-5.1
						c-0.2-0.4-0.4-0.8-0.5-1.2c-4.6-10.8-2.2,2.1-14.1-5.7s2.8-3.3-10.5-9.2c-13.3-5.9-21.9-7.3-25.5-2.2s-10.6-1.8-14.4,1.2
						c-3.8,3,0.5,3.7-2.6,6.9c-2.1,2.2-3.1,5.2-3.9,8.4c-0.3,1.1-0.6,2.1-1,3.2c-0.5,1.8-24,4.6-23.2,7.2c1,3,6.7,21.4,9.3,24.7
						c7.5,9.5,0.1,16.6,8.5,25.9c3.6,4,31.2-11.4,36.4-9.9c5,1.4,10,3.9,14.6,5.1c2.6,0.7,5,0.2,7.6,0.9c3.3,0.8,6.3,2.8,9.6,3.6
						C352.5,175.9,367.5,178.8,369.1,178.4L369.1,178.4z"/>
					<path class="st12" d="M411.8,181.5c4.2-0.8,1-4.7,5.2-5.6c3.2-0.7,4.5-1.6,6.3-3.5c2.6-2.7-2.3-3.6-3-7
						c2.1-0.2,3.3-0.1,3.6-1.9c0.2-1-5.4-7.6-6.7-9.2c2-4.9,3-4.8-0.5-12.5c-1.7-3.6-7.2-3.8-9.5-6.8c0.2-1.2,2.7-6.6-0.1-10.3
						c0,0-2.2-2.6-4.9-5.1c-0.2-0.4-0.4-0.8-0.5-1.2c-4.6-10.8-2.2,2.1-14.1-5.7s2.8-3.3-10.5-9.2c-13.3-5.9-21.9-7.3-25.5-2.2
						s-10.6-1.8-14.4,1.2c-3.8,3,0.5,3.7-2.6,6.9c-2.1,2.2-3.1,5.2-3.9,8.4c-0.3,1.1-0.6,2.1-1,3.2c-0.5,1.8-24,4.6-23.2,7.2
						c1,3,6.7,21.4,9.3,24.7c7.5,9.5,0.1,16.6,8.5,25.9c3.6,4,31.2-11.4,36.4-9.9c5,1.4,10,3.9,14.6,5.1c2.6,0.7,5,0.2,7.6,0.9
						c3.3,0.8,6.3,2.8,9.6,3.6C395.2,178.9,410.2,181.8,411.8,181.5L411.8,181.5z"/>
					<path class="st12" d="M333.9,134.3c4.2-0.8,1-4.7,5.2-5.6c3.2-0.7,4.5-1.6,6.3-3.5c2.6-2.7-2.3-3.6-3-7
						c2.1-0.2,3.3-0.1,3.6-1.9c0.2-1-5.4-7.6-6.7-9.2c2-4.9,3-4.8-0.5-12.5c-1.7-3.7-7.2-3.8-9.5-6.8c0.2-1.2,2.7-6.6-0.1-10.3
						c0,0-2.2-2.6-4.9-5.1c-0.2-0.4-0.4-0.8-0.5-1.2c-4.6-10.8-2.2,2.1-14.1-5.7s2.8-3.3-10.5-9.2c-13.3-5.9-21.9-7.3-25.5-2.2
						s-10.6-1.8-14.4,1.2c-3.8,3,0.5,3.7-2.6,7c-2.1,2.2-3.1,5.2-3.9,8.4c-0.3,1.1-0.6,2.1-1,3.2c-0.5,1.8-24,4.6-23.2,7.2
						c0.9,3,6.7,21.4,9.3,24.7c7.5,9.5,0.1,16.6,8.4,25.9c3.6,4,31.2-11.4,36.4-9.9c5,1.4,10,3.8,14.6,5.1c2.6,0.7,5,0.2,7.6,0.9
						c3.3,0.8,6.3,2.8,9.6,3.5C317.3,131.7,332.3,134.6,333.9,134.3L333.9,134.3z"/>
					<path class="st12" d="M158,198.6c-1.4,3.7,3.9,3.2,2.6,6.9c-1,2.8-0.8,4.2,0.1,6.6c1.2,3.4,4.6,0.1,8.2,1.4
						c-0.9,1.8-1.6,2.6-0.1,3.7c0.9,0.6,10-0.2,12.2-0.4c3.6,4.1,3,4.8,12.2,6.1c4.4,0.6,7.4-3.6,11.4-3.8c1,0.8,4.9,5.5,9.9,5.2
						c0,0,3.6-0.4,7.4-1.1c0.5,0.1,0.9,0.1,1.4,0.2c12.7,2-0.9-2.8,12.8-7.8c13.7-5.1,1.7,3.8,14.3-3.3
						c12.5-7.1,18.3-12.9,15.3-18.4c-3-5.5,7.2-7.2,6.3-11.7c-0.9-4.5-3.8-1.5-5.3-5.6c-1-2.7-3.4-5-6-7.3c-0.9-0.8-1.6-1.6-2.5-2.4
						c-1.5-1.3,8.1-20.8,5.1-21.5c-3.4-0.8-23.9-5.9-28.4-5.6c-13,0.8-16-8.5-29.1-6.9c-5.7,0.7-5.3,29.8-9.3,33.1
						c-3.9,3.1-8.9,5.7-12.4,8.6c-2,1.6-2.8,3.7-4.8,5.4c-2.5,2.1-5.9,3.4-8.4,5.5C169.1,187.2,158.5,197.2,158,198.6L158,198.6z"/>
					<path class="st12" d="M168.6,69c-1.4-3.7-5.3-0.3-6.8-4c-1.1-2.8-2.3-3.8-4.6-5.2c-3.3-2-3.7,2.5-7.4,3.5
						c-0.5-1.9-0.6-2.9-2.5-3c-1.1,0-7.7,5.7-9.4,7c-5.7-1.2-5.6-2.1-13.8,2c-3.8,1.9-3.3,6.9-6.3,9.3c-1.3-0.1-7.7-1.6-11.4,1.4
						c0,0-2.6,2.3-5.1,5c-0.4,0.2-0.8,0.4-1.3,0.6c-11.4,5.4,2.6,1.7-4.6,13.2c-7.3,11.5-4-2.1-9,10.5s-5.4,20.3,0.7,22.9
						c6.2,2.6-0.7,9.6,3.1,12.6c3.8,3,4-0.9,8,1.5c2.7,1.6,6.1,2.1,9.8,2.4c1.2,0.1,2.4,0.3,3.6,0.5c2.1,0.2,8,20.8,10.8,19.7
						c3.2-1.2,22.9-8.6,26.2-11.3c9.6-7.8,18.4-2.1,27.6-10.7c4-3.7-16.4-26.3-15.5-31.1c0.9-4.6,3-9.3,3.8-13.6
						c0.4-2.4-0.4-4.4,0-6.8c0.5-3,2.4-5.9,2.8-9C167.8,84.1,169.1,70.4,168.6,69L168.6,69z"/>
					<path class="st4" d="M283.9,238.7c2.2,3.4,5.3-0.6,7.5,2.7c1.7,2.5,3.1,3.3,5.7,4.3c3.7,1.4,3.1-3.1,6.5-4.7
						c0.9,1.8,1.2,2.8,3.1,2.5c1.1-0.2,6.3-7,7.7-8.5c5.8,0.2,6,1.1,13.1-4.3c3.4-2.6,1.8-7.3,4.2-10.2c1.3-0.2,7.9,0.3,10.9-3.3
						c0,0,2.1-2.7,3.9-5.8c0.4-0.3,0.7-0.6,1.1-0.8c10-7.3-2.9-1.2,1.7-13.8s4.4,1.3,6.5-11.8c2.2-13.1,1-20.9-5.6-22.4
						c-6.6-1.5-1.4-9.6-5.8-11.9c-4.4-2.3-3.7,1.6-8.2-0.1c-3-1.1-6.5-1-10.1-0.7c-1.2,0.1-2.4,0.1-3.6,0.2
						c-2.1,0.1-12.3-19-14.8-17.5c-2.9,1.8-20.6,12.4-23.3,15.6c-7.8,9.4-17.6,5.3-24.8,15.2c-3.1,4.3,21.8,23,21.9,27.9
						c0.1,4.7-1,9.7-0.8,14c0.1,2.4,1.3,4.3,1.4,6.7c0.2,3.1-1,6.2-0.8,9.3C281.5,223.8,283.1,237.5,283.9,238.7L283.9,238.7z"/>
					<g>
						<path class="st13" d="M287.9,204c0,18.2-16.5,33-36.9,33s-36.9-14.8-36.9-33s16.5-33,36.9-33S287.9,185.8,287.9,204z"/>
						
							<radialGradient id="SVGID_00000134229122011818867670000002669336955186054296_" cx="381.7686" cy="107.796" r="29.5068" gradientTransform="matrix(1.12 0 0 -1 -174.77 311.8898)" gradientUnits="userSpaceOnUse">
							<stop  offset="0" style="stop-color:#F29A76"/>
							<stop  offset="1" style="stop-color:#ED6D46"/>
						</radialGradient>
						<path style="fill:url(#SVGID_00000134229122011818867670000002669336955186054296_);" d="M282.6,194c-0.7-1.9-2.5-2.4-5-2.1
							c1.6-1.2,2.6-2.2,2.6-2.9c0.3-3.4-18.3-18-35.2-14c-13.1,3.1-19,10-19.7,10.7c-1.5,1.6-1.2,3.7,0.4,6c-1.5-0.1-2.7,0-3.6,0.5
							c-3.1,1.7-6.8,21.9,5.6,32.5c9.6,8.2,19.1,9.2,20.1,9.2c1.5,0,2.8-1.1,3.9-2.9c0.3,1.3,0.7,2.3,1.3,2.6
							c3,1.9,24.8-4.6,29.7-19.3C286.4,202.8,282.9,194.8,282.6,194L282.6,194z"/>
						<path class="st13" d="M232.8,188.7c-0.2,3.5,11.6,9.5,13.5,10.7c1.9,1.2-4.2-7.2-3.4-9.1s2.2-0.2,3.6-0.2s1.9-1.6,2.9-1.4
							s2.6,1.9,3.7,0.9s4.6-1.2,5,0.5c0.4,1.7,2.5-0.9,3.7,0.4c1.2,1.2-4.2,9.5-4.3,10.1c-0.1,0.6,14-8.8,14.6-11
							c0.5-2.2-8-9.8-21.5-9.8C241.2,179.8,232.9,186.2,232.8,188.7L232.8,188.7z"/>
						<path class="st13" d="M246.9,226.8c3.4-1.6,2.7-13.3,2.9-15.4c0.2-2.1-4.3,6.5-6.5,6.9c-2.2,0.3-1.4-1.6-2.1-2.6
							c-0.7-1.1-2.5-0.7-2.8-1.5c-0.3-0.9,0.4-3-1.1-3.3c-1.5-0.3-3.5-2.9-2.1-4.1c1.4-1.2-2.1-1.5-1.6-3.1
							c0.6-1.6,10.3-1.6,10.9-1.8c0.7-0.2-14.1-6.8-16.5-6.1s-5.8,11.7,1.1,22C234,225,244.4,228,246.9,226.8L246.9,226.8z"/>
						<path class="st13" d="M277.6,198.1c-3.1-2.1-15.1,3.9-17.4,4.6s9,0.4,10.3,2.1s-1,1.8-1.7,2.8c-0.8,1,0.5,2.3-0.3,2.9
							c-0.8,0.6-3.2,0.9-2.9,2.3s-1.4,4.1-3.2,3.5s-0.6,2.3-2.4,2.6c-1.8,0.3-5.6-8.3-6.1-8.7c-0.5-0.4-0.5,15.2,1.3,16.9
							c1.8,1.6,13.6-0.6,20.9-10.7C281.3,209.2,279.8,199.5,277.6,198.1L277.6,198.1z"/>
					</g>
					<g>
						<path class="st13" d="M365.2,112.4c0,18.2-16.5,33-36.9,33s-36.9-14.8-36.9-33s16.5-33,36.9-33S365.2,94.1,365.2,112.4z"/>
						
							<radialGradient id="SVGID_00000075134000000355955120000003118853542907739521_" cx="456.51" cy="199.4159" r="29.5095" gradientTransform="matrix(1 0 0 -1 0 311.8898)" gradientUnits="userSpaceOnUse">
							<stop  offset="0" style="stop-color:#F29A76"/>
							<stop  offset="1" style="stop-color:#ED6D46"/>
						</radialGradient>
						<path style="fill:url(#SVGID_00000075134000000355955120000003118853542907739521_);" d="M359.9,102.4c-0.7-1.9-2.5-2.4-5-2.1
							c1.6-1.2,2.6-2.2,2.6-2.9c0.3-3.3-18.3-18-35.2-14c-13.1,3.1-19,10-19.7,10.7c-1.5,1.6-1.2,3.7,0.4,6c-1.5-0.1-2.7,0-3.6,0.5
							c-3.1,1.7-6.8,21.9,5.6,32.5c9.6,8.2,19.1,9.2,20.1,9.2c1.5,0,2.8-1.1,3.9-2.9c0.3,1.3,0.7,2.3,1.3,2.6
							c3,1.9,24.9-4.6,29.7-19.3C363.7,111.2,360.2,103.2,359.9,102.4L359.9,102.4z"/>
						<path class="st13" d="M310.1,97.1c-0.2,3.5,11.6,9.5,13.5,10.7c1.9,1.2-4.2-7.2-3.4-9.1s2.2-0.2,3.6-0.2s1.9-1.6,2.9-1.4
							s2.6,1.9,3.7,0.9s4.6-1.2,5,0.5c0.4,1.7,2.5-0.9,3.7,0.4c1.2,1.2-4.2,9.5-4.3,10.1c-0.1,0.6,14-8.8,14.6-11
							c0.5-2.2-8-9.8-21.5-9.8C318.4,88.2,310.2,94.6,310.1,97.1L310.1,97.1z"/>
						<path class="st13" d="M324.1,135.2c3.4-1.6,2.7-13.3,2.9-15.4c0.2-2.1-4.3,6.5-6.5,6.8c-2.2,0.3-1.4-1.6-2.1-2.6
							s-2.5-0.7-2.8-1.5c-0.3-0.9,0.4-3-1.1-3.3s-3.5-2.9-2.1-4.1s-2.1-1.5-1.6-3.1c0.5-1.6,10.3-1.6,10.9-1.8
							c0.7-0.2-14.1-6.8-16.5-6.1s-5.8,11.7,1.1,22C311.3,133.4,321.7,136.4,324.1,135.2L324.1,135.2z"/>
						<path class="st13" d="M354.8,106.4c-3.1-2.1-15.1,3.9-17.4,4.6s9,0.4,10.3,2.1s-1,1.8-1.7,2.8c-0.8,1,0.5,2.3-0.3,2.9
							c-0.8,0.6-3.2,0.9-2.9,2.3c0.3,1.4-1.4,4.1-3.2,3.5s-0.6,2.3-2.4,2.6s-5.6-8.3-6.1-8.7c-0.5-0.4-0.5,15.2,1.3,16.9
							c1.8,1.6,13.6-0.6,20.9-10.7C358.6,117.6,357.1,107.9,354.8,106.4L354.8,106.4z"/>
					</g>
					<g>
						<path class="st13" d="M239.4,94.1c0,18.2-16.5,33-36.9,33s-36.9-14.8-36.9-33s16.5-33,36.9-33S239.4,75.9,239.4,94.1z"/>
						
							<radialGradient id="SVGID_00000075156740402013884040000003916309861928713643_" cx="343.92" cy="217.6459" r="29.5103" gradientTransform="matrix(1 0 0 -1 0 311.8898)" gradientUnits="userSpaceOnUse">
							<stop  offset="0" style="stop-color:#F29A76"/>
							<stop  offset="1" style="stop-color:#ED6D46"/>
						</radialGradient>
						<path style="fill:url(#SVGID_00000075156740402013884040000003916309861928713643_);" d="M234.1,84.2c-0.7-1.9-2.5-2.4-5-2.1
							c1.6-1.2,2.6-2.2,2.6-2.9c0.3-3.3-18.3-18-35.2-14c-13.1,3.1-19,10-19.7,10.7c-1.5,1.6-1.2,3.7,0.4,6c-1.5-0.1-2.7,0-3.6,0.5
							c-3.1,1.7-6.8,21.9,5.6,32.5c9.6,8.2,19.1,9.2,20.1,9.2c1.5,0,2.8-1.1,3.9-2.9c0.3,1.3,0.7,2.3,1.3,2.6
							c3,1.9,24.9-4.6,29.7-19.3C237.9,93,234.4,85,234.1,84.2L234.1,84.2z"/>
						<path class="st13" d="M184.3,78.8c-0.2,3.5,11.6,9.5,13.5,10.7c1.9,1.2-4.2-7.2-3.4-9.1c0.8-1.9,2.2-0.2,3.6-0.2
							s1.9-1.6,2.9-1.4s2.6,1.9,3.7,0.9s4.6-1.2,5,0.5c0.4,1.7,2.5-0.9,3.7,0.4c1.2,1.2-4.2,9.5-4.3,10.1c-0.1,0.6,14-8.8,14.6-11
							c0.6-2.2-8-9.8-21.5-9.8C192.6,69.9,184.4,76.4,184.3,78.8L184.3,78.8z"/>
						<path class="st13" d="M198.4,117c3.4-1.6,2.7-13.3,2.9-15.4c0.2-2.1-4.3,6.5-6.5,6.8c-2.2,0.3-1.4-1.6-2.1-2.6
							c-0.7-1.1-2.5-0.7-2.8-1.5c-0.3-0.9,0.4-3-1.1-3.3c-1.5-0.3-3.5-2.9-2.1-4.1c1.4-1.2-2.1-1.5-1.6-3.1
							c0.6-1.6,10.3-1.6,10.9-1.8c0.7-0.2-14.1-6.8-16.5-6.1s-5.8,11.7,1.1,22C185.5,115.1,195.9,118.1,198.4,117L198.4,117z"/>
						<path class="st13" d="M229.1,88.2c-3.1-2.1-15.1,3.9-17.4,4.6s9,0.4,10.3,2.1s-1,1.8-1.7,2.8c-0.8,1,0.4,2.3-0.3,2.9
							c-0.8,0.6-3.2,0.9-2.9,2.3c0.3,1.4-1.4,4.1-3.2,3.5c-1.9-0.6-0.6,2.3-2.4,2.6s-5.6-8.3-6.1-8.7c-0.5-0.4-0.5,15.2,1.3,16.9
							c1.8,1.6,13.6-0.6,20.9-10.7C232.8,99.4,231.3,89.7,229.1,88.2L229.1,88.2z"/>
					</g>
					<path class="st11" d="M236.4,166.9c-3.3,1.1-0.2,3.9-3.6,5c-2.5,0.8-3.4,1.7-4.7,3.4c-1.8,2.4,2.3,2.6,3.2,5.4
						c-1.7,0.4-2.6,0.4-2.7,1.9c0,0.8,5.2,5.6,6.4,6.8c-1.1,4.1-1.9,4.1,1.9,10c1.8,2.8,6.3,2.4,8.5,4.5c-0.1,1-1.4,5.6,1.3,8.3
						c0,0,2.1,1.9,4.5,3.7c0.2,0.3,0.4,0.6,0.6,0.9c5,8.2,1.5-1.9,12,3.3c10.5,5.2-1.8,2.9,9.5,6.4c11.4,3.5,18.4,3.8,20.7-0.7
						s8.7,0.4,11.4-2.4c2.7-2.8-0.9-2.9,1.3-5.8c1.4-1.9,1.9-4.4,2.1-7.1c0.1-0.9,0.3-1.7,0.4-2.6c1.4-7.3,18-0.7,14.6-10.5
						c-2.4-6.9-20.1-8.8-25.6-14.2c-7.2-6.9,16.3-15.6,8.5-22.2c-3.4-2.9-23.7,12.1-28.1,11.5c-4.2-0.6-8.5-2.1-12.4-2.7
						c-2.2-0.3-4,0.3-6.2,0c-2.7-0.3-5.4-1.7-8.1-1.9C250.1,167.4,237.7,166.5,236.4,166.9L236.4,166.9z"/>
					<g>
						<path class="st17" d="M375.2,175.3c1.2,0.7,2.5,1.4,3.7,2.1C377.6,176.6,376.4,175.9,375.2,175.3L375.2,175.3L375.2,175.3z"/>
						<path class="st17" d="M402.9,166l0.1-0.2c-5.7-2.3-8.1-2.8-10.1-2.3C396.9,164.4,400.3,165.2,402.9,166z"/>
					</g>
					<g>
						<path class="st17" d="M259,211.5c0.1,1.3,0.1,2.6,0.2,3.9C259.2,214,259.2,212.7,259,211.5L259,211.5z"/>
						<path class="st17" d="M283.2,226.7h0.2c-1.1-5.5-2-7.5-3.6-8.7C281.4,221.3,282.5,224.3,283.2,226.7z"/>
					</g>
					<path class="st11" d="M336,153.6c3.5-0.4,1.1-3.7,4.6-4.2c2.6-0.4,3.7-1,5.4-2.4c2.3-2-1.6-3-1.9-5.9c1.8-0.1,2.7,0.1,3-1.3
						c0.2-0.8-3.8-6.4-4.7-7.8c2-3.8,2.8-3.7,0.5-10.1c-1.1-3.1-5.6-3.5-7.2-6c0.3-0.9,2.7-5.2,0.6-8.3c0,0-1.6-2.2-3.6-4.4
						c-0.1-0.3-0.2-0.7-0.4-1c-3-9-1.9,1.6-11-5.4c-9-7,2.5-2.5-7.8-8.1s-17.1-7.2-20.4-3.2c-3.3,4-8.4-2-11.7,0.2s0.2,3-2.6,5.5
						c-1.8,1.6-2.9,4-3.7,6.6c-0.3,0.8-0.7,1.6-1,2.5c-3.1,6.8-17.8-2.7-16.7,7.5c0.7,7.2,17.6,12.4,21.8,18.7
						c5.4,8.1-19.6,12.2-13.5,20.1c2.6,3.4,26-7.4,30.1-6c4,1.4,7.8,3.7,11.5,4.9c2,0.7,4,0.5,6,1.1c2.6,0.8,4.9,2.6,7.5,3.4
						C322.8,150.5,334.7,153.7,336,153.6L336,153.6z"/>
					<path class="st11" d="M245.3,102.9c0.9-3.8-4.4-2.7-3.6-6.5c0.6-2.9,0.2-4.3-1-6.6c-1.7-3.2-4.6,0.5-8.4-0.4
						c0.6-1.9,1.2-2.8-0.5-3.7c-1-0.6-9.9,1.4-12.1,1.8c-4.2-3.6-3.6-4.4-13-4.6c-4.4-0.1-6.8,4.4-10.8,5.1
						c-1.1-0.7-5.7-4.9-10.6-4.1c0,0-3.5,0.8-7.2,1.9c-0.5,0-0.9,0-1.4,0c-12.9-0.5,1.3,2.6-11.5,9.2c-12.8,6.6-2.3-3.6-13.7,4.9
						c-11.4,8.5-16.3,15-12.5,20c3.8,5.1-6.1,8-4.5,12.3s4,1,6.1,4.9c1.4,2.6,4.1,4.6,7.1,6.6c1,0.6,1.9,1.4,2.8,2.1
						c1.6,1.1-5,21.5-2,21.9c3.5,0.4,24.6,3.1,29,2.3c13.2-2.4,21.9,6.6,33.1-3.4c12.2-10.9,5.2-30.7,16.2-42.8
						c2.1-2.4,5.4-4,7.5-6.5C235.9,115.5,244.9,104.3,245.3,102.9L245.3,102.9z"/>
					<g>
						<g>
							<path class="st18" d="M400,157c0-1.2-0.5-4.9-2.6-6.3c-1.8-1.1-3.8-2.2-5.6-3.1c-2.1-1.1-4.5-3.1-6.6-3.1
								c-2.4,0.1-4.2,2.2-5.5,4.7c-1.5,2.9-6,4.3-5,8.9c0.4,1.7,0.8,3.1,1.9,4c1.2,1,2.5,1.2,3.7,1.8c2.5,1.3,4.9,2.4,7.4,3.9
								c1.1,0.7,1.7,1.3,2.7,0.7c1.7-1.1,3.2-4,4.7-5.7C395,162.8,400,158.4,400,157L400,157z"/>
							<g>
								<defs>
									<path id="SVGID_00000035500823772346469230000004418054470718366877_" d="M400,157c0-1.2-0.5-4.9-2.6-6.3
										c-1.8-1.1-3.8-2.2-5.6-3.1c-2.1-1.1-4.5-3.1-6.6-3.1c-2.4,0.1-4.2,2.2-5.5,4.7c-1.5,2.9-6,4.3-5,8.9c0.4,1.7,0.8,3.1,1.9,4
										c1.2,1,2.5,1.2,3.7,1.8c2.5,1.3,4.9,2.4,7.4,3.9c1.1,0.7,1.7,1.3,2.7,0.7c1.7-1.1,3.2-4,4.7-5.7
										C395,162.8,400,158.4,400,157L400,157z"/>
								</defs>
								<clipPath id="SVGID_00000101072935820156464630000008663653881494223780_">
									<use xlink:href="#SVGID_00000035500823772346469230000004418054470718366877_"  style="overflow:visible;"/>
								</clipPath>
								<g style="clip-path:url(#SVGID_00000101072935820156464630000008663653881494223780_);">
									<path class="st20" d="M384.3,143.6l-10.1,11.9l1.2,5.7c2.1,1.1,4.3,2.3,6.4,3.4c2.2,1.2,6.8,6.9,8.9,6.8
										C387.6,162,386.1,151.8,384.3,143.6"/>
								</g>
							</g>
						</g>
						<path class="st21" d="M398.8,152.2c0.5,1.2-5.8,5.9-6.4,6.6c-1.1,1.3-1.8,3.8-3.4,4.3c-1.1,0.3-2.2-0.9-3.4-1.5
							c-2.2-1.1-4.4-2.3-6.6-3.4c-1.5-0.8-2.9-1.9-4.4-2.3c0.9-2.4,3.2-4.5,4.7-6.2c1.1-1.4,2.3-2.7,3.4-4.1
							c2.3-2.9,6.2,0.5,9.2,2.1C394,148.8,397,149,398.8,152.2L398.8,152.2z"/>
					</g>
					<g>
						<g>
							<path class="st18" d="M323.7,208.7c-0.6-1.1-2.6-4.4-5.2-4.9c-2.1-0.4-4.4-0.7-6.5-0.9c-2.5-0.3-5.5-1.3-7.4-0.5
								c-2.2,0.9-2.9,3.5-3,6.3c-0.1,3.2-3.7,6.1-0.7,9.9c1.1,1.4,2.1,2.6,3.5,3c1.5,0.5,2.8,0.2,4.2,0.4c2.8,0.3,5.6,0.5,8.5,1
								c1.3,0.2,2.2,0.6,2.8-0.3c1.1-1.6,1.2-4.8,1.8-6.9C321.6,215.8,324.3,210,323.7,208.7L323.7,208.7z"/>
							<g>
								<defs>
									<path id="SVGID_00000103984997041408456960000010019318116945343875_" d="M323.7,208.7c-0.6-1.1-2.6-4.4-5.2-4.9
										c-2.1-0.4-4.4-0.7-6.5-0.9c-2.5-0.3-5.5-1.3-7.4-0.5c-2.2,0.9-2.9,3.5-3,6.3c-0.1,3.2-3.7,6.1-0.7,9.9
										c1.1,1.4,2.1,2.6,3.5,3c1.5,0.5,2.8,0.2,4.2,0.4c2.8,0.3,5.6,0.5,8.5,1c1.3,0.2,2.2,0.6,2.8-0.3c1.1-1.6,1.2-4.8,1.8-6.9
										C321.6,215.8,324.3,210,323.7,208.7L323.7,208.7z"/>
								</defs>
								<clipPath id="SVGID_00000008122325768024210230000017052516896607615378_">
									<use xlink:href="#SVGID_00000103984997041408456960000010019318116945343875_"  style="overflow:visible;"/>
								</clipPath>
								<g style="clip-path:url(#SVGID_00000008122325768024210230000017052516896607615378_);">
									<path class="st20" d="M303.4,201.9l-4.1,14.6l3.6,4.8c2.5,0.3,4.9,0.6,7.4,0.9c2.6,0.3,9.2,4,11.1,3.1
										C314.5,217.7,308.7,208.8,303.4,201.9"/>
								</g>
							</g>
						</g>
						<path class="st21" d="M320.4,204.7c1,0.9-2.8,7.5-3,8.3c-0.5,1.6,0,4.2-1.3,5.1c-0.9,0.6-2.4-0.1-3.7-0.2
							c-2.5-0.3-5-0.5-7.6-0.8c-1.7-0.2-3.4-0.7-5-0.6c-0.2-2.6,1-5.3,1.6-7.4c0.4-1.7,1-3.3,1.4-4.9c0.9-3.5,6-1.7,9.4-1.3
							C314.6,203.2,317.4,202.5,320.4,204.7L320.4,204.7z"/>
					</g>
					<g>
						<g>
							<path class="st18" d="M223.2,135.2c0-1.2-0.4-4.9-2.6-6.3c-1.8-1.1-3.8-2.2-5.6-3.1c-2.1-1.1-4.4-3.1-6.6-3.1
								c-2.4,0.1-4.2,2.2-5.5,4.7c-1.5,2.9-6.1,4.3-5,8.8c0.4,1.7,0.8,3.1,1.9,4c1.2,1,2.5,1.2,3.7,1.8c2.4,1.3,4.9,2.4,7.4,3.9
								c1.1,0.7,1.7,1.3,2.7,0.7c1.7-1.1,3.2-4,4.7-5.7C218.2,141,223.2,136.6,223.2,135.2L223.2,135.2z"/>
							<g>
								<defs>
									<path id="SVGID_00000015325409806847945050000005158957037445256097_" d="M223.2,135.2c0-1.2-0.4-4.9-2.6-6.3
										c-1.8-1.1-3.8-2.2-5.6-3.1c-2.1-1.1-4.4-3.1-6.6-3.1c-2.4,0.1-4.2,2.2-5.5,4.7c-1.5,2.9-6.1,4.3-5,8.8
										c0.4,1.7,0.8,3.1,1.9,4c1.2,1,2.5,1.2,3.7,1.8c2.4,1.3,4.9,2.4,7.4,3.9c1.1,0.7,1.7,1.3,2.7,0.7c1.7-1.1,3.2-4,4.7-5.7
										C218.2,141,223.2,136.6,223.2,135.2L223.2,135.2z"/>
								</defs>
								<clipPath id="SVGID_00000147931131089128098400000015049257573313018497_">
									<use xlink:href="#SVGID_00000015325409806847945050000005158957037445256097_"  style="overflow:visible;"/>
								</clipPath>
								<g style="clip-path:url(#SVGID_00000147931131089128098400000015049257573313018497_);">
									<path class="st20" d="M207.6,121.8l-10.1,11.9l1.2,5.7c2.1,1.1,4.3,2.3,6.4,3.4c2.2,1.2,6.8,6.9,8.9,6.8
										C210.9,140.2,209.4,130,207.6,121.8"/>
								</g>
							</g>
						</g>
						<path class="st21" d="M222,130.4c0.5,1.2-5.8,5.9-6.4,6.6c-1.1,1.3-1.8,3.8-3.4,4.3c-1.1,0.3-2.2-0.9-3.4-1.5
							c-2.2-1.1-4.4-2.3-6.6-3.4c-1.5-0.8-2.9-1.9-4.4-2.3c0.9-2.4,3.2-4.5,4.7-6.2c1.1-1.4,2.3-2.7,3.4-4.1
							c2.3-2.9,6.2,0.5,9.2,2.1C217.2,127,220.2,127.3,222,130.4L222,130.4z"/>
					</g>
					<g>
						<g>
							<path class="st18" d="M269.6,75c1-0.9,3.5-3.8,3.1-6.1c-0.4-1.9-1-3.9-1.5-5.7c-0.6-2.2-0.7-5-2.3-6.3
								c-1.8-1.5-4.7-1-7.6-0.1c-3.4,1.1-7.6-0.8-10.5,3.2c-1,1.4-1.9,2.7-1.8,4.1c0.1,1.4,0.8,2.4,1.2,3.6c0.7,2.5,1.6,4.8,2.2,7.4
								c0.3,1.2,0.2,2,1.4,2.2c2.1,0.3,5.4-0.8,7.8-1.1C261.6,76,268.6,76,269.6,75L269.6,75z"/>
							<g>
								<defs>
									<path id="SVGID_00000054974112770920092320000010992907860146544059_" d="M269.6,75c1-0.9,3.5-3.8,3.1-6.1
										c-0.4-1.9-1-3.9-1.5-5.7c-0.6-2.2-0.7-5-2.3-6.3c-1.8-1.5-4.7-1-7.6-0.1c-3.4,1.1-7.6-0.8-10.5,3.2c-1,1.4-1.9,2.7-1.8,4.1
										c0.1,1.4,0.8,2.4,1.2,3.6c0.7,2.5,1.6,4.8,2.2,7.4c0.3,1.2,0.2,2,1.4,2.2c2.1,0.3,5.4-0.8,7.8-1.1
										C261.6,76,268.6,76,269.6,75L269.6,75z"/>
								</defs>
								<clipPath id="SVGID_00000077306033794969109390000007644443322233060758_">
									<use xlink:href="#SVGID_00000054974112770920092320000010992907860146544059_"  style="overflow:visible;"/>
								</clipPath>
								<g style="clip-path:url(#SVGID_00000077306033794969109390000007644443322233060758_);">
									<path class="st20" d="M269,55.7l-16.6,2.1l-3.6,4.8c0.6,2.2,1.3,4.3,1.9,6.5c0.7,2.2-0.6,9.2,1,10.4
										C256.9,70.8,263.9,62.6,269,55.7"/>
								</g>
							</g>
						</g>
						<path class="st21" d="M272.5,70.8c-0.5,1.2-8.8,0.6-9.7,0.7c-1.9,0.2-4.3,1.6-5.8,0.9c-1-0.5-0.9-2-1.2-3.2
							c-0.7-2.2-1.4-4.4-2-6.6c-0.4-1.5-0.6-3.1-1.3-4.4c2.6-1.1,5.8-1.2,8.2-1.5c1.9-0.3,3.7-0.4,5.6-0.7c3.9-0.6,4,4.3,4.9,7.3
							C271.8,65.4,273.7,67.5,272.5,70.8L272.5,70.8z"/>
					</g>
					<g>
						<g>
							<path class="st18" d="M131.1,172.9c0.9-0.9,3.5-3.8,3.1-6.1c-0.4-1.9-1-3.9-1.5-5.7c-0.6-2.1-0.7-5-2.3-6.3
								c-1.8-1.4-4.7-1-7.6-0.1c-3.4,1.1-7.7-0.8-10.5,3.2c-1,1.4-1.8,2.7-1.8,4.1c0.1,1.4,0.8,2.4,1.2,3.6c0.7,2.5,1.6,4.8,2.2,7.4
								c0.3,1.2,0.2,2,1.3,2.2c2.1,0.3,5.4-0.8,7.8-1.1C123,173.9,130,173.9,131.1,172.9L131.1,172.9z"/>
							<g>
								<defs>
									<path id="SVGID_00000082367297260277547910000007496006296441370287_" d="M131.1,172.9c0.9-0.9,3.5-3.8,3.1-6.1
										c-0.4-1.9-1-3.9-1.5-5.7c-0.6-2.1-0.7-5-2.3-6.3c-1.8-1.4-4.7-1-7.6-0.1c-3.4,1.1-7.7-0.8-10.5,3.2c-1,1.4-1.8,2.7-1.8,4.1
										c0.1,1.4,0.8,2.4,1.2,3.6c0.7,2.5,1.6,4.8,2.2,7.4c0.3,1.2,0.2,2,1.3,2.2c2.1,0.3,5.4-0.8,7.8-1.1
										C123,173.9,130,173.9,131.1,172.9L131.1,172.9z"/>
								</defs>
								<clipPath id="SVGID_00000046329197337893932540000007377014118853280427_">
									<use xlink:href="#SVGID_00000082367297260277547910000007496006296441370287_"  style="overflow:visible;"/>
								</clipPath>
								<g style="clip-path:url(#SVGID_00000046329197337893932540000007377014118853280427_);">
									<path class="st20" d="M130.4,153.5l-16.6,2.1l-3.6,4.9c0.6,2.1,1.3,4.3,1.9,6.5c0.7,2.2-0.6,9.2,1,10.4
										C118.4,168.7,125.3,160.5,130.4,153.5"/>
								</g>
							</g>
						</g>
						<path class="st21" d="M134,168.6c-0.5,1.2-8.8,0.6-9.7,0.7c-1.9,0.2-4.3,1.6-5.8,0.9c-1-0.5-0.9-2-1.2-3.2
							c-0.7-2.2-1.4-4.4-2-6.6c-0.4-1.5-0.6-3.1-1.3-4.4c2.6-1.1,5.8-1.2,8.2-1.5c1.9-0.3,3.7-0.4,5.6-0.7c3.9-0.6,4.1,4.3,4.9,7.3
							C133.3,163.2,135.2,165.3,134,168.6L134,168.6z"/>
					</g>
					<g>
						<g>
							<path class="st18" d="M304,150.7c1-0.9,3.5-3.8,3.1-6.1c-0.4-1.9-1-3.9-1.5-5.7c-0.6-2.1-0.7-5-2.3-6.3
								c-1.8-1.4-4.7-1-7.6-0.1c-3.4,1.1-7.6-0.8-10.5,3.2c-1,1.4-1.9,2.7-1.8,4.1c0.1,1.4,0.8,2.4,1.2,3.6c0.7,2.5,1.6,4.8,2.2,7.4
								c0.3,1.2,0.2,2,1.4,2.2c2.1,0.3,5.4-0.8,7.8-1.1C296,151.7,303,151.7,304,150.7L304,150.7z"/>
							<g>
								<defs>
									<path id="SVGID_00000176758203183724855220000004525932416681645208_" d="M304,150.7c1-0.9,3.5-3.8,3.1-6.1
										c-0.4-1.9-1-3.9-1.5-5.7c-0.6-2.1-0.7-5-2.3-6.3c-1.8-1.4-4.7-1-7.6-0.1c-3.4,1.1-7.6-0.8-10.5,3.2c-1,1.4-1.9,2.7-1.8,4.1
										c0.1,1.4,0.8,2.4,1.2,3.6c0.7,2.5,1.6,4.8,2.2,7.4c0.3,1.2,0.2,2,1.4,2.2c2.1,0.3,5.4-0.8,7.8-1.1
										C296,151.7,303,151.7,304,150.7L304,150.7z"/>
								</defs>
								<clipPath id="SVGID_00000032631384327455361040000000383273289112084630_">
									<use xlink:href="#SVGID_00000176758203183724855220000004525932416681645208_"  style="overflow:visible;"/>
								</clipPath>
								<g style="clip-path:url(#SVGID_00000032631384327455361040000000383273289112084630_);">
									<path class="st20" d="M303.4,131.3l-16.6,2.1l-3.6,4.9c0.6,2.1,1.3,4.3,1.9,6.5c0.7,2.2-0.6,9.2,1,10.4
										C291.3,146.5,298.3,138.3,303.4,131.3"/>
								</g>
							</g>
						</g>
						<path class="st21" d="M306.9,146.5c-0.5,1.2-8.8,0.6-9.7,0.7c-1.9,0.2-4.3,1.6-5.8,0.9c-1-0.5-0.9-2-1.2-3.2
							c-0.7-2.2-1.4-4.4-2-6.6c-0.5-1.5-0.6-3.1-1.3-4.4c2.6-1.1,5.8-1.2,8.2-1.5c1.9-0.3,3.7-0.4,5.6-0.7c3.9-0.6,4,4.3,4.9,7.3
							C306.2,141.1,308.1,143.2,306.9,146.5L306.9,146.5z"/>
					</g>
					<g>
						<path class="st27" d="M287.1,183.4c-2.2,2.8-5.3,6.3-9.3,4.4c-4-2-8.8-9.1-9.3-14.6s9.3-15.2,18.1-15.4
							c18.1-0.4,25.4,6.7,29.8,18.4c3.5,9.1,3.2,19.1-2.8,27.4c-10.1,14.1-42.5,12.7-50.9-1.4c-2.6-4.4-4.5-15.1-0.4-19.4
							c4.9-5.1,6.6,7.1,13.7,7.9C283.2,191.3,287.1,183.4,287.1,183.4L287.1,183.4z"/>
						<path class="st28" d="M289.8,180.6c1.3-4,7.5-6.7,4.9-14.2c-1-2.7-8.4-4.8-8.4-5.9s12.4-0.8,16.8,2c4.4,2.8,9.7,7.9,12.4,15.8
							c2.6,7.9-0.9,25.3-9.3,29.3s-24,5.2-31.4,1.6c-6.8-3.4-18.5-12.9-8.1-18.2c3.1-1.6,6.6-2.4,4,0.4c-2.7,2.8-5.5,3.4-4.3,7.2
							c0.9,3,6.4,5.9,9.7,6.7c4.9,1.2,7.5-6.7,6.6-10.3s0-6.7,1.8-4.8c2.8,3.2,3.5,9.3,4.6,13.1c1.8,6.1,12.4,6.4,16.3,1.4
							c2.8-3.7-1.3-11.4-4.6-14c-3.6-2.9-9.1-2.2-12.9-4.7c4-2.9,9.9,0,13.5,2.1c1.8,1,8.6,7.7,9.2,4.6c0.9-4.4-1.8-15.4-4-18.2
							c-2.2-2.8-3.1-5.1-4.9-2.8S289.8,180.6,289.8,180.6L289.8,180.6z"/>
					</g>
					<g>
						<path class="st27" d="M160.7,110.5c-3.6,0.4-8.2,1.2-8.2,5.2s4.5,11.3,9.4,14.3c4.9,3,18.3-0.1,22.4-6.9
							c8.5-14.1,5.2-23.2-3.7-32.2c-6.9-7.1-16.2-11.6-26.6-10.8c-17.6,1.3-30.9,27.4-21.5,40.8c2.9,4.1,12,10.7,17.8,9.6
							c6.9-1.4-3.6-8.6-1.2-14.6C151.6,109.9,160.7,110.5,160.7,110.5z"/>
						<path class="st28" d="M164.4,109.8c4.3,0.8,9.6-2.7,15.4,2.9c2.1,2.1,0.6,8.9,1.7,9.4s6.3-9.4,5.7-14.2
							c-0.6-4.8-3-11.4-9.1-17.3c-6.1-5.8-23.9-11.3-31.3-6.6c-7.4,4.7-15.6,16.4-15.5,24c0.1,6.9,3.7,20.7,13.3,15
							c2.9-1.7,5.2-4.1,1.4-3.3c-3.9,0.8-5.6,2.7-8.6,0c-2.4-2.2-2.6-7.8-1.9-10.9c1.1-4.4,9.6-2.7,12.5-0.3s6.2,3.2,5.2,0.9
							c-1.7-3.7-7.1-7.2-10.1-9.8c-4.9-4.3-0.4-12.8,6.1-13.5c4.7-0.5,10,6.4,10.9,10.3c1,4.2-2.1,8.2-1.4,12.4
							c4.4-1.8,4.4-7.8,4.1-11.6c-0.1-1.9-3.3-10.4-0.1-9.4c4.4,1.4,13.5,8.7,15.1,11.8c1.6,3.1,3.4,4.9,0.4,5.1
							S164.4,109.7,164.4,109.8L164.4,109.8z"/>
					</g>
					<g>
						<path class="st27" d="M298.2,89.9c0.7,3.3,1.9,7.7,6.1,7.4c4.3-0.4,11.5-5.1,14.3-10c2.8-4.9-1.5-17.3-9-20.7
							c-15.4-7-24.7-3.1-33.5,5.9c-6.9,7.1-10.9,16.3-9.4,26c2.7,16.6,31.1,27.1,44.4,17.2c4.1-3,10.4-12.1,8.7-17.5
							c-2-6.5-8.8,4.1-15.2,2.2C298.2,98.6,298.2,89.9,298.2,89.9L298.2,89.9z"/>
						<path class="st28" d="M297.1,86.4c0.5-4.1-3.6-8.9,1.9-14.8c2-2.1,9.3-1.3,9.8-2.4s-10.3-5.2-15.3-4.3
							c-5,0.9-11.8,3.7-17.5,9.9c-5.7,6.3-10.1,23.4-4.6,30.1c5.5,6.7,18.4,13.5,26.4,12.9c7.3-0.6,21.5-5.1,14.8-13.7
							c-2-2.6-4.7-4.6-3.6-1.1c1.1,3.6,3.3,5.1,0.6,8.1c-2.1,2.4-8,3.1-11.3,2.6c-4.7-0.7-3.6-8.9-1.3-11.8s2.9-6.1,0.5-5
							c-3.8,1.9-7,7.2-9.6,10.3c-4.2,4.9-13.4,1.4-14.6-4.7c-0.9-4.4,6-9.9,10-11.1c4.3-1.3,8.8,1.3,13.1,0.4
							c-2.2-4.1-8.6-3.6-12.5-3c-2,0.3-10.7,3.9-9.9,0.8c1.1-4.3,8.1-13.4,11.2-15.2c3.1-1.7,4.9-3.6,5.4-0.8S297.1,86.4,297.1,86.4
							L297.1,86.4z"/>
					</g>
					<path class="st2" d="M147.2,140.5c2.9,16.3-5.2,19.4,12.4,30.8s22.4,9.6,34.2,8.7s36.5-15.2,52.9,1.6s31.9,13.8,35.8,5.9
						c3.9-7.9-3.5-8.5-17.3-11.5c-13.8-3-22.6-13.5-42.1-11.7c-19.5,1.8-46.8,15.7-49.8-4.4c-2.9-20.1-6.8-44.2-13-45.2
						S144.5,125.5,147.2,140.5L147.2,140.5z"/>
					<path class="st2" d="M307.1,164.8c10.4,4.1,10.8,0.1,20.5-7c9.7-7,19.4,4.1,23.4-8.9s2.2-24.5-11.6-34.9s-23.5-17.7-22.5-11
						s14.6,18.9,18.5,31.2C339.3,146.4,289.5,157.8,307.1,164.8L307.1,164.8z"/>
					<path class="st2" d="M183,104.7c5.6,5.8,16-4.1,20.5-8.9s19.2-6.5,28.9-6.5s31.1,2.2,29.3-5.2c-1.8-7.5-39-13.1-53.7-4.4
						C193.4,88.4,172.5,93.8,183,104.7L183,104.7z"/>
					<g>
						<g>
							<path class="st29" d="M238.4,92.3c0.8,2.2,3.4,5.9,4.9,6.2l1.6,0.3l0,0l1.1-3.3l-4.2-1.3L238.4,92.3L238.4,92.3z"/>
							<path class="st29" d="M232.6,96.8c0,0,2,3.4,0.7,5.3s-1.3,5.1-1.3,5.1l4.3-1.4C236.4,105.8,236.2,97.7,232.6,96.8L232.6,96.8
								z"/>
							<path class="st29" d="M304,159.7c-2-1.4-6.4-3.3-7.9-2.8l-1.5,0.5l0,0l1.1,3.3l4.3-0.9L304,159.7L304,159.7z"/>
							<path class="st29" d="M260,99.8c-2.3-1-7.1-2.1-8.4-1.3l-1.3,0.8l0,0l1.8,3l4.1-1.7L260,99.8L260,99.8z"/>
							<path class="st29" d="M254.4,102.4c0.8,2.2,3.4,5.9,4.9,6.2l1.5,0.3l0,0l1-3.3l-4.2-1.3L254.4,102.4L254.4,102.4z"/>
							<path class="st29" d="M186.3,140.5c0,0-1,2.2-1.8,3.5c-0.8,1.3,1.5,3.4,1.5,3.4l2.9-0.9C188.8,146.4,188.7,141.1,186.3,140.5
								L186.3,140.5z"/>
							<path class="st29" d="M239.2,100.5c-1.2,1.9-1.3,5.1-1.3,5.1l4.3-1.4C242.2,104.2,240.4,98.6,239.2,100.5z"/>
							<path class="st29" d="M231.8,99.5c-2-1.4-6.4-3.3-7.9-2.8l-1.5,0.5l0,0l1.1,3.3l4.4-0.9L231.8,99.5L231.8,99.5z"/>
							<path class="st29" d="M160.1,127.7c0,0-2.4-0.2-4.1-0.9c-1.7-0.7-4.4,1.3-4.4,1.3l1.5,2.7
								C153.1,130.8,159.6,130.1,160.1,127.7L160.1,127.7z"/>
							<path class="st29" d="M310.5,126.6c0,0-1,2.2-1.8,3.5c-0.8,1.3,1.5,3.4,1.5,3.4l2.9-0.9C313,132.5,312.9,127.2,310.5,126.6
								L310.5,126.6z"/>
							<path class="st29" d="M267.6,176.7c0,0-2.4-0.2-4.1-0.9c-1.7-0.7-4.4,1.3-4.4,1.3l1.5,2.7
								C260.5,179.8,267.1,179.1,267.6,176.7L267.6,176.7z"/>
							<path class="st29" d="M251.8,106.3c-0.1-2.2-2-4.9-2-4.9l-2.8,3.3C247,104.7,251.9,108.5,251.8,106.3L251.8,106.3z"/>
							<path class="st29" d="M235.8,112.3c0,0-3,0.8-4.4-0.3c-1.4-1.1-3.9-1.6-3.9-1.6l0.5,3C228,113.4,234.5,114.5,235.8,112.3
								L235.8,112.3z"/>
							<path class="st29" d="M224.8,109.9c-0.9,1.4-0.9,3.7-0.9,3.7l3.2-1C227,112.6,225.7,108.5,224.8,109.9z"/>
							<path class="st29" d="M217.6,111.8c1.4-1.1,3.6-3.6,3.4-4.6l-0.2-1l0,0l-2.8,0.2l0.1,2.9L217.6,111.8L217.6,111.8z"/>
							<path class="st29" d="M265.9,116.6c-0.1-1.6-1.5-3.6-1.5-3.6l-2,2.4C262.3,115.4,266,118.2,265.9,116.6z"/>
							<path class="st29" d="M209.6,111.6c-0.1-1.6-1.5-3.6-1.5-3.6l-2,2.4C206.1,110.4,209.7,113.2,209.6,111.6L209.6,111.6z"/>
							<path class="st29" d="M262.2,102.5c-0.1-1.6-1.5-3.6-1.5-3.6l-2,2.4C258.7,101.3,262.4,104.1,262.2,102.5L262.2,102.5z"/>
							<path class="st29" d="M204.5,159c-0.1-1.6-1.5-3.6-1.5-3.6l-2,2.4C201,157.8,204.6,160.6,204.5,159L204.5,159z"/>
							<path class="st29" d="M195.9,114.1c-1.7-0.8-5.1-1.5-6.1-1l-1,0.6l0,0l1.3,2.2l2.9-1.2L195.9,114.1L195.9,114.1z"/>
							<path class="st29" d="M345.1,121.2c-1.4-1.1-3.9-1.6-3.9-1.6l0.5,3C341.6,122.6,346.4,122.3,345.1,121.2z"/>
							<path class="st29" d="M276.2,128c-1.4-1.1-3.9-1.6-3.9-1.6l0.5,3C272.8,129.4,277.6,129.1,276.2,128z"/>
							<path class="st29" d="M253.1,138c-1.5-1-4.7-2.4-5.8-2l-1.1,0.4l0,0l0.8,2.4l3.2-0.7L253.1,138L253.1,138z"/>
							<path class="st29" d="M209.4,116.8c1.8,0.2,4.2-0.6,4.2-0.6l-2.2-2.3C211.4,113.9,207.6,116.6,209.4,116.8L209.4,116.8z"/>
							<path class="st29" d="M207.3,99.6c1.8,0.2,4.2-0.6,4.2-0.6l-2.2-2.3C209.3,96.7,205.5,99.4,207.3,99.6L207.3,99.6z"/>
						</g>
						<g>
							<path class="st29" d="M249.9,131.1c0.8,2.2,3.4,5.9,4.9,6.2l1.6,0.3l0,0l1-3.3l-4.2-1.3L249.9,131.1L249.9,131.1z"/>
							<path class="st29" d="M217.1,103.7c0,0,2,3.4,0.8,5.3s-1.3,5.1-1.3,5.1l4.3-1.4C220.9,112.7,220.8,104.6,217.1,103.7z"/>
							<path class="st29" d="M265,115.6c-2-1.4-6.4-3.3-7.9-2.8l-1.5,0.5l0,0l1.1,3.3l4.3-0.9L265,115.6L265,115.6z"/>
							<path class="st29" d="M225.3,147.9c-2.3-1-7.1-2.1-8.4-1.3l-1.3,0.8l0,0l1.8,3l4-1.7L225.3,147.9L225.3,147.9z"/>
							<path class="st29" d="M238.9,109.3c0.8,2.2,3.4,5.9,4.9,6.2l1.6,0.3l0,0l1.1-3.3l-4.2-1.3L238.9,109.3L238.9,109.3z"/>
							<path class="st29" d="M236.1,135.4c0,0-1,2.2-1.8,3.5c-0.8,1.3,1.5,3.4,1.5,3.4l2.9-0.9C238.6,141.3,238.5,136,236.1,135.4
								L236.1,135.4z"/>
							<path class="st29" d="M257,127.7c0,0-1,2.2-1.8,3.5s1.5,3.4,1.5,3.4l2.9-0.9C259.4,133.6,259.4,128.3,257,127.7z"/>
							<path class="st29" d="M223.8,107.4c-1.2,1.9-1.3,5.1-1.3,5.1l4.3-1.4C226.8,111.1,225,105.5,223.8,107.4z"/>
							<path class="st29" d="M216.4,106.4c-2-1.4-6.4-3.3-7.9-2.8l-1.5,0.5l0,0l1.1,3.3l4.4-0.9L216.4,106.4L216.4,106.4z"/>
							<path class="st29" d="M235.3,152.1c0,0-2.4-0.2-4.1-0.9c-1.7-0.7-4.4,1.3-4.4,1.3l1.4,2.7
								C228.3,155.2,234.9,154.5,235.3,152.1L235.3,152.1z"/>
							<path class="st29" d="M249.3,134.8c-0.1-2.2-2-4.9-2-4.9l-2.8,3.3C244.5,133.1,249.4,137,249.3,134.8L249.3,134.8z"/>
							<path class="st29" d="M220.3,119.2c0,0-3,0.8-4.4-0.3c-1.4-1.1-3.9-1.6-3.9-1.6l0.5,3C212.5,120.3,219,121.5,220.3,119.2z"/>
							<path class="st29" d="M209.3,116.8c-0.9,1.4-0.9,3.7-0.9,3.7l3.2-1C211.6,119.5,210.2,115.4,209.3,116.8L209.3,116.8z"/>
							<path class="st29" d="M202.1,118.7c1.4-1.1,3.6-3.6,3.4-4.6l-0.2-1l0,0l-2.8,0.2l0.1,2.9L202.1,118.7L202.1,118.7z"/>
							<path class="st29" d="M250.4,123.5c-0.1-1.6-1.5-3.6-1.5-3.6l-2,2.4C246.9,122.3,250.5,125.1,250.4,123.5z"/>
							<path class="st29" d="M194.1,118.5c-0.1-1.6-1.5-3.6-1.5-3.6l-2,2.4C190.6,117.3,194.2,120.1,194.1,118.5L194.1,118.5z"/>
							<path class="st29" d="M246.8,109.4c-0.1-1.6-1.5-3.6-1.5-3.6l-2,2.4C243.3,108.2,246.9,111,246.8,109.4L246.8,109.4z"/>
							<path class="st29" d="M265,119.4c-0.1-1.6-1.5-3.6-1.5-3.6l-2,2.4C261.5,118.3,265.1,121.1,265,119.4L265,119.4z"/>
							<path class="st29" d="M352.2,128.9c-1.7-0.8-5.1-1.5-6.1-1l-1,0.6l0,0l1.3,2.2l3-1.2L352.2,128.9L352.2,128.9z"/>
							<path class="st29" d="M169.1,152.7c-1.4-1.1-3.9-1.6-3.9-1.6l0.5,3C165.7,154.1,170.5,153.8,169.1,152.7z"/>
							<path class="st29" d="M166.7,157.2c-1.4-1.1-3.9-1.6-3.9-1.6l0.5,3C163.3,158.6,168.1,158.3,166.7,157.2z"/>
							<path class="st29" d="M197.3,97.7c-1.5-1-4.7-2.4-5.8-2l-1.1,0.4l0,0l0.8,2.4l3.2-0.7L197.3,97.7L197.3,97.7z"/>
							<path class="st29" d="M194,123.7c1.8,0.2,4.2-0.6,4.2-0.6l-2.2-2.3C196,120.8,192.2,123.5,194,123.7L194,123.7z"/>
							<path class="st29" d="M191.9,106.5c1.8,0.2,4.2-0.6,4.2-0.6l-2.2-2.3C193.9,103.7,190.1,106.3,191.9,106.5L191.9,106.5z"/>
						</g>
						<g>
							<path class="st29" d="M254.9,121.6c-0.1-1.7-1.1-4.8-2.2-5.2l-1-0.5l0,0l-1.4,2.1l2.7,1.6L254.9,121.6L254.9,121.6z"/>
							<path class="st29" d="M275.8,150.9c0,0-2-1.6-3-3.2c-1-1.6-4.9-1.5-4.9-1.5l-0.8,3.3C267.2,149.5,273.5,152.8,275.8,150.9z"
								/>
							<path class="st29" d="M234.8,117.8c-1-1.6-3.4-2.9-3.4-2.9l-0.7,3.3C230.6,118.1,235.8,119.3,234.8,117.8L234.8,117.8z"/>
							<path class="st29" d="M247.3,120.1c-1.9,0-5.4,0.6-6,1.5l-0.6,0.9l0,0l2.3,1.4l2.1-2.3L247.3,120.1L247.3,120.1z"/>
							<path class="st29" d="M228.8,121.7c0,0-1.7,0.6-3,0.6c-1.3,0-2.4,2.1-2.4,2.1l1.9,1.4C225.2,125.8,229.3,123.5,228.8,121.7
								L228.8,121.7z"/>
							<path class="st29" d="M252.8,147.2c-1.3,0.7-3.3,2.6-3.3,3.4l0.1,0.8l0,0l2.2,0.1l0.2-2.4L252.8,147.2L252.8,147.2z"/>
							<path class="st29" d="M168.7,146.6c0,0-1.3-1.1-1.9-2.1c-0.6-1-3.2-1-3.2-1l-0.5,2.1C163,145.6,167.2,147.8,168.7,146.6z"/>
							<path class="st29" d="M231.6,125.9c-0.6-1-2.2-1.9-2.2-1.9l-0.5,2.2C228.8,126.2,232.2,127,231.6,125.9L231.6,125.9z"/>
							<path class="st29" d="M248.6,109.3c-0.7-1.2-2.5-2.2-2.5-2.2l-0.5,2.4C245.6,109.6,249.3,110.5,248.6,109.3z"/>
							<path class="st29" d="M226,128.3c-0.7-1.2-2.5-2.2-2.5-2.2l-0.6,2.4C222.9,128.6,226.7,129.5,226,128.3L226,128.3z"/>
							<path class="st29" d="M324,151.1c0,0-1.7,0.6-3,0.6c-1.3,0-2.4,2.1-2.4,2.1l1.9,1.4C320.4,155.1,324.5,152.8,324,151.1
								L324,151.1z"/>
							<path class="st29" d="M189.4,169.9c-0.6-1-2.2-1.9-2.2-1.9l-0.5,2.1C186.6,170.1,190,170.9,189.4,169.9L189.4,169.9z"/>
							<path class="st29" d="M183.8,172.3c-0.7-1.1-2.5-2.1-2.5-2.1l-0.6,2.4C180.7,172.5,184.5,173.5,183.8,172.3L183.8,172.3z"/>
							<path class="st29" d="M251.1,175.2c-0.7-1.1-2.5-2.1-2.5-2.1l-0.6,2.4C248,175.5,251.8,176.4,251.1,175.2L251.1,175.2z"/>
							<path class="st29" d="M345,127.8c-0.7-1.2-2.5-2.2-2.5-2.2l-0.5,2.4C341.9,128.1,345.7,129,345,127.8L345,127.8z"/>
							<path class="st29" d="M196.4,86.5c0,0,0.1,1.4,0,2.3c-0.1,0.9,1.8,1.5,1.8,1.5l1.2-1.1C199.4,89.1,197.9,86.3,196.4,86.5z"/>
							<path class="st29" d="M238.5,121.7c-1.4-0.4-3.5,0.1-3.5,0.1l1.5,2C236.6,123.8,240,122,238.5,121.7L238.5,121.7z"/>
							<path class="st29" d="M234.4,125.2c-1.4-0.4-3.5,0.1-3.5,0.1l1.5,2C232.5,127.2,235.8,125.5,234.4,125.2L234.4,125.2z"/>
							<path class="st29" d="M217.6,82.7c0,0-1.7,0.6-3,0.6c-1.3,0-2.4,2.1-2.4,2.1l1.9,1.4C214.1,86.7,218.2,84.4,217.6,82.7
								L217.6,82.7z"/>
							<path class="st29" d="M245.6,82.9c-0.6-1-2.2-1.9-2.2-1.9l-0.5,2.2C242.8,83.1,246.2,83.9,245.6,82.9L245.6,82.9z"/>
							<path class="st29" d="M240,85.3c-0.7-1.2-2.5-2.2-2.5-2.2l-0.6,2.4C236.9,85.5,240.7,86.4,240,85.3L240,85.3z"/>
							<path class="st29" d="M223.3,86.1c-1.4-0.4-3.5,0.1-3.5,0.1l1.5,2C221.4,88.2,224.7,86.5,223.3,86.1L223.3,86.1z"/>
							<path class="st29" d="M182.8,89.8c-1.4-0.4-3.5,0.1-3.5,0.1l1.5,2C180.8,91.9,184.2,90.1,182.8,89.8L182.8,89.8z"/>
							<path class="st29" d="M306.2,99.4c-1.3-1.7-4.6-4.3-6-4.2l-1.4,0.1l0,0l0.1,3.1l4,0.2C302.9,98.6,306.2,99.4,306.2,99.4z"/>
							<path class="st29" d="M240.9,131.2c0,0-0.2-1.3,0-2.2c0.2-0.9-1.5-2.1-1.5-2.1l-1.5,1.1C237.9,128,239.3,131.3,240.9,131.2
								L240.9,131.2z"/>
						</g>
					</g>
					<g>
						<path class="st30" d="M132,188.7c0,0,6.2,4.3,11.9,11.5s9.5,14.2,9.5,14.2l21.9-5.5c0,0,3-25.9,7-32.9c0,0-25.4-8.8-37.7-1.1
							C132.2,182.6,132,188.7,132,188.7L132,188.7z"/>
						<g>
							<path class="st31" d="M137.3,164.1c1.5-0.1,2.9,1,3.9,1.9c-3.2-2.9-1.1-5.8,2.4-2.4c-2.1-2,2.9-1.6,3.8-1.3
								c3.6,1.2,5.1,6-0.4,6.5c-1.1,0.1-3.2,2.4-4.3,2.4c-2.7,0-4.8,1.6-7-0.7c-1-1-0.4-5,0.6-5.8
								C136.5,164.3,136.9,164.1,137.3,164.1L137.3,164.1z"/>
							<path class="st32" d="M155.8,164.8c-0.1,0-2.4-3-3-3.1c-1.8-0.3-3.8,3.1-3.4,4.4c-0.9-3.4-6.9-0.3-4.1,2.6l1.1,1.1
								c0,0-0.9,0.6,1.9,1.2c2.8,0.6,4.9-1.8,4.9-1.8l4.4-0.1c0,0,1-2.7,1-2.8C159.6,164.1,158,163.9,155.8,164.8L155.8,164.8z"/>
							<path class="st33" d="M150.9,165.7c-2-0.9-4.6-1.2-5.7-0.1c-0.7,0.8-1.7,1.9-1.4,3c-1-3.5-6.9-0.2-4.1,2.6l1.1,1.1
								c0,0-0.9,0.6,1.9,1.2s4.9-1.8,4.9-1.8s4.3-0.1,4.4-0.1c0.5,0,1.2-3.1,1.2-3.5C153.3,167.2,152.2,166.3,150.9,165.7
								L150.9,165.7z"/>
							<path class="st32" d="M131.6,175.1c0-0.1,0.1-0.1,0.1-0.2c0.2-1.2-1.5-2.1-0.8-3.4c0.6-1.1,5.3-2.2,5.6-0.6
								c-0.2-1-0.5-2.1-0.6-3.1c-0.1-0.9,4-0.1,4.4,0.2c0.7,0.6,0.9,1.6,1.2,2.3c0,0,1.1-0.3,0.2,2.1c-0.8,2.4-4.2,3-4.2,3
								c-0.7,0.1-1.4,2.7-2,3.1c-1,0.8-3.1,1-4.2,0.3C129.4,177.6,130.8,176.6,131.6,175.1L131.6,175.1z"/>
							<path class="st34" d="M147.1,170.2c1.2-0.2,2,2,2.8,2.9c-2.5-2.7,0.3-5.9,2.8-1.2c-2.1-1.4,1.8-3.9,2.7-3.6
								c3.1,1.4,4.6,6.1,0,6.3c-0.9,0.1-2.6,2.2-3.5,2.1c-2.3-0.1-3.9,1.4-5.9-1C143.9,173.4,145,170.5,147.1,170.2L147.1,170.2z"/>
							<path class="st31" d="M137.2,172.9c1.2-0.1,2.4,1.2,3.2,2.1c-2.8-3.1-1.3-5.7,1.7-2.2c-1.8-2.1,2.2-1.4,2.9-1.1
								c3,1.4,4.5,6.1,0.1,6.3c-0.9,0-2.4,2.1-3.3,2.1c-2.1-0.1-3.7,1.3-5.6-1.1c-0.9-1.1-0.7-4.9,0.1-5.6
								C136.6,173.1,136.9,172.9,137.2,172.9L137.2,172.9z"/>
						</g>
						<g>
							<path class="st31" d="M126.2,177.4c1.5-0.1,2.9,1,3.9,1.9c-3.2-2.9-1.1-5.8,2.4-2.4c-2.1-2,2.9-1.6,3.8-1.3
								c3.6,1.2,5.1,6-0.4,6.5c-1.1,0.1-3.2,2.4-4.3,2.4c-2.7,0-4.8,1.6-7-0.7c-1-1-0.4-5,0.6-5.8
								C125.4,177.6,125.8,177.5,126.2,177.4L126.2,177.4z"/>
							<path class="st32" d="M144.8,178.1c-0.1,0-2.4-3-3-3.1c-1.8-0.3-3.8,3.1-3.4,4.4c-0.9-3.4-6.9-0.3-4.1,2.6l1.1,1.1
								c0,0-0.9,0.6,1.9,1.2s4.9-1.8,4.9-1.8l4.4-0.1c0,0,1-2.7,1-2.8C148.5,177.5,146.9,177.3,144.8,178.1L144.8,178.1z"/>
							<path class="st33" d="M139.8,179c-2-0.9-4.6-1.2-5.7-0.1c-0.7,0.8-1.7,1.9-1.4,3c-1-3.5-6.9-0.2-4.1,2.6l1.1,1.1
								c0,0-0.9,0.6,1.9,1.2c2.7,0.6,4.9-1.8,4.9-1.8s4.3-0.1,4.4-0.1c0.5,0,1.2-3.1,1.2-3.5C142.2,180.6,141.2,179.7,139.8,179
								L139.8,179z"/>
							<path class="st32" d="M120.5,188.5c0-0.1,0.1-0.1,0.1-0.2c0.2-1.2-1.5-2.1-0.8-3.4c0.6-1.1,5.3-2.2,5.7-0.6
								c-0.2-1-0.5-2.1-0.6-3.1c-0.1-0.9,4-0.1,4.4,0.2c0.7,0.6,0.9,1.6,1.2,2.3c0,0,1.1-0.3,0.2,2.1c-0.8,2.4-4.2,3-4.2,3
								c-0.7,0.1-1.4,2.7-2,3.1c-1,0.8-3.1,1-4.2,0.3C118.3,191,119.7,190,120.5,188.5z"/>
							<path class="st34" d="M136,183.6c1.2-0.2,2,2,2.8,2.9c-2.5-2.7,0.3-5.9,2.8-1.2c-2.1-1.4,1.8-3.9,2.7-3.6
								c3.1,1.4,4.6,6.1,0,6.3c-0.9,0.1-2.6,2.2-3.5,2.1c-2.3-0.1-3.9,1.4-5.9-1C132.8,186.8,133.9,183.9,136,183.6L136,183.6z"/>
							<path class="st31" d="M126.2,186.3c1.2-0.1,2.4,1.2,3.2,2.1c-2.8-3.1-1.3-5.7,1.7-2.2c-1.8-2.1,2.2-1.5,2.9-1.1
								c3,1.4,4.5,6.1,0.1,6.3c-0.9,0-2.4,2.1-3.3,2.1c-2.1-0.1-3.7,1.3-5.6-1.1c-0.8-1.1-0.7-4.9,0.1-5.6
								C125.6,186.4,125.9,186.3,126.2,186.3L126.2,186.3z"/>
						</g>
						<g>
							<path class="st31" d="M149.6,173.1c1.5-0.2,2.9,1,3.9,1.9c-3.2-2.9-1.1-5.8,2.4-2.4c-2.1-2,2.9-1.6,3.8-1.3
								c3.6,1.2,5.1,6-0.4,6.5c-1.1,0.1-3.2,2.4-4.3,2.4c-2.7,0-4.8,1.6-7-0.7c-1-1-0.4-5,0.6-5.8
								C148.8,173.3,149.2,173.2,149.6,173.1L149.6,173.1z"/>
							<path class="st32" d="M168.1,173.8c-0.1,0-2.4-3-3-3.1c-1.8-0.3-3.8,3.1-3.4,4.4c-0.9-3.4-6.9-0.3-4.1,2.6l1.1,1.1
								c0,0-0.9,0.7,1.9,1.2c2.8,0.6,4.9-1.8,4.9-1.8l4.4-0.1c0,0,1-2.7,1-2.8C171.9,173.1,170.3,172.9,168.1,173.8L168.1,173.8z"/>
							<path class="st33" d="M163.2,174.7c-2-0.9-4.6-1.2-5.7-0.1c-0.7,0.8-1.7,1.9-1.4,3c-1-3.5-6.9-0.2-4.1,2.6l1.1,1.1
								c0,0-0.9,0.7,1.9,1.2c2.7,0.6,4.9-1.8,4.9-1.8s4.3-0.1,4.4-0.1c0.5,0,1.2-3.1,1.2-3.5C165.6,176.3,164.5,175.3,163.2,174.7
								L163.2,174.7z"/>
							<path class="st32" d="M143.9,184.1c0-0.1,0.1-0.1,0.1-0.2c0.2-1.2-1.5-2.1-0.8-3.4c0.6-1.1,5.3-2.2,5.6-0.6
								c-0.2-1-0.5-2.1-0.6-3.1c-0.1-0.9,4-0.1,4.4,0.2c0.7,0.6,0.9,1.6,1.2,2.3c0,0,1.1-0.4,0.2,2.1c-0.8,2.4-4.2,3-4.2,3
								c-0.7,0.1-1.4,2.7-2,3.1c-1,0.8-3.1,1-4.2,0.3C141.6,186.6,143.1,185.6,143.9,184.1L143.9,184.1z"/>
							<path class="st34" d="M159.4,179.2c1.2-0.2,2,2,2.8,2.9c-2.5-2.7,0.3-5.9,2.8-1.2c-2.1-1.4,1.8-3.9,2.7-3.6
								c3.1,1.4,4.6,6.1,0,6.3c-0.9,0.1-2.6,2.2-3.5,2.1c-2.3-0.1-3.9,1.4-5.9-1C156.2,182.5,157.3,179.6,159.4,179.2L159.4,179.2z"
								/>
							<path class="st31" d="M149.5,181.9c1.2-0.1,2.4,1.2,3.2,2.1c-2.8-3.1-1.3-5.7,1.7-2.2c-1.8-2.1,2.2-1.5,2.9-1.1
								c3,1.4,4.5,6.1,0.1,6.3c-0.9,0-2.4,2.1-3.3,2.1c-2.1-0.1-3.7,1.3-5.6-1.1c-0.9-1.1-0.7-4.9,0.1-5.6
								C148.9,182.1,149.2,182,149.5,181.9L149.5,181.9z"/>
						</g>
						<g>
							<path class="st31" d="M118.9,172.1c1.5-0.2,2.9,1,3.9,1.9c-3.2-2.9-1.1-5.8,2.4-2.4c-2.1-2,2.8-1.6,3.8-1.3
								c3.6,1.2,5.1,6-0.4,6.5c-1.1,0.1-3.2,2.4-4.3,2.4c-2.7,0-4.8,1.6-7-0.7c-1-1-0.4-5,0.6-5.8
								C118.1,172.3,118.5,172.2,118.9,172.1L118.9,172.1z"/>
							<path class="st32" d="M137.4,172.8c-0.1,0-2.4-3-3-3.1c-1.8-0.3-3.8,3.1-3.4,4.4c-0.9-3.4-6.9-0.3-4.1,2.6l1.1,1.1
								c0,0-0.9,0.6,1.9,1.2s4.9-1.8,4.9-1.8l4.4-0.1c0,0,1-2.7,1-2.8C141.2,172.1,139.6,171.9,137.4,172.8L137.4,172.8z"/>
							<path class="st33" d="M132.5,173.7c-2-0.9-4.6-1.2-5.7-0.1c-0.7,0.8-1.7,1.9-1.4,3c-1-3.5-6.9-0.2-4.1,2.6l1.1,1.1
								c0,0-0.8,0.6,1.9,1.2c2.8,0.6,4.9-1.8,4.9-1.8s4.3-0.1,4.4-0.1c0.5,0,1.2-3.1,1.2-3.5C134.9,175.3,133.8,174.3,132.5,173.7
								L132.5,173.7z"/>
							<path class="st32" d="M113.2,183.1c0-0.1,0.1-0.1,0.1-0.2c0.2-1.2-1.5-2.1-0.8-3.4c0.6-1.1,5.3-2.2,5.7-0.6
								c-0.2-1-0.5-2.1-0.6-3.1c-0.1-0.9,4-0.1,4.4,0.2c0.7,0.6,0.9,1.6,1.2,2.3c0,0,1.1-0.3,0.2,2.1c-0.8,2.4-4.2,3-4.2,3
								c-0.7,0.1-1.4,2.7-2,3.1c-1,0.8-3.1,1-4.2,0.3C110.9,185.6,112.4,184.6,113.2,183.1z"/>
							<path class="st34" d="M128.7,178.2c1.2-0.2,2,2,2.8,2.9c-2.5-2.7,0.3-5.9,2.8-1.2c-2.1-1.4,1.8-3.9,2.7-3.6
								c3.1,1.4,4.6,6.1,0,6.3c-0.9,0.1-2.6,2.2-3.5,2.1c-2.3-0.1-3.9,1.4-5.9-1C125.5,181.5,126.6,178.6,128.7,178.2L128.7,178.2z"
								/>
							<path class="st31" d="M118.8,180.9c1.2-0.1,2.4,1.2,3.2,2.1c-2.8-3.1-1.3-5.7,1.7-2.2c-1.8-2.1,2.2-1.5,2.9-1.1
								c3,1.4,4.5,6.1,0.1,6.3c-0.9,0-2.4,2.1-3.3,2.1c-2.2-0.1-3.7,1.3-5.6-1.1c-0.8-1-0.7-4.9,0.1-5.6
								C118.2,181.1,118.5,180.9,118.8,180.9L118.8,180.9z"/>
						</g>
						<g>
							<path class="st31" d="M168.2,166.4c1.5-0.2,2.9,1,3.9,1.9c-3.2-2.9-1.1-5.8,2.4-2.4c-2.1-2,2.9-1.7,3.8-1.3
								c3.6,1.2,5.1,6-0.4,6.5c-1.1,0.1-3.2,2.4-4.3,2.4c-2.7,0-4.8,1.6-7-0.7c-1-1-0.4-5,0.6-5.8
								C167.4,166.6,167.8,166.5,168.2,166.4L168.2,166.4z"/>
							<path class="st32" d="M186.7,167.1c-0.1,0-2.4-3-3-3.1c-1.8-0.3-3.8,3.1-3.4,4.4c-0.9-3.4-6.9-0.3-4.1,2.6l1.1,1.1
								c0,0-0.9,0.6,1.9,1.2c2.8,0.6,4.9-1.8,4.9-1.8l4.4-0.1c0,0,1-2.7,1-2.8C190.5,166.5,188.9,166.3,186.7,167.1L186.7,167.1z"/>
							<path class="st33" d="M181.8,168c-2-0.9-4.6-1.2-5.7-0.1c-0.7,0.8-1.7,1.9-1.4,3c-1-3.5-6.9-0.2-4.1,2.6l1.1,1.1
								c0,0-0.9,0.6,1.9,1.2s4.9-1.8,4.9-1.8s4.3-0.1,4.4-0.1c0.5,0,1.2-3.1,1.2-3.5C184.2,169.6,183.1,168.6,181.8,168L181.8,168z"
								/>
							<path class="st32" d="M162.5,177.4c0-0.1,0.1-0.1,0.1-0.2c0.2-1.2-1.5-2.1-0.8-3.4c0.6-1.1,5.3-2.2,5.6-0.6
								c-0.2-1-0.5-2.1-0.6-3.1c-0.1-0.9,4-0.1,4.4,0.2c0.7,0.6,0.9,1.6,1.2,2.3c0,0,1.1-0.3,0.2,2.1c-0.8,2.4-4.2,3-4.2,3
								c-0.7,0.1-1.4,2.7-2,3.1c-1,0.8-3.1,1-4.2,0.3C160.3,179.9,161.7,179,162.5,177.4L162.5,177.4z"/>
							<path class="st34" d="M178,172.5c1.2-0.2,2,2,2.8,2.9c-2.5-2.7,0.3-5.9,2.8-1.2c-2.1-1.4,1.8-3.9,2.7-3.6
								c3.1,1.4,4.6,6.1,0,6.3c-0.9,0.1-2.6,2.2-3.5,2.1c-2.3-0.1-3.9,1.4-5.9-1C174.8,175.8,175.9,172.9,178,172.5L178,172.5z"/>
							<path class="st31" d="M168.1,175.2c1.2-0.1,2.4,1.2,3.2,2.1c-2.8-3.1-1.3-5.7,1.7-2.2c-1.8-2.1,2.2-1.5,2.9-1.1
								c3,1.4,4.5,6.1,0.1,6.3c-0.9,0-2.4,2.1-3.3,2.1c-2.1-0.1-3.7,1.3-5.6-1.1c-0.9-1.1-0.7-4.9,0.1-5.6
								C167.5,175.4,167.8,175.3,168.1,175.2L168.1,175.2z"/>
						</g>
						<g>
							<path class="st31" d="M159.1,159.9c1.5-0.2,2.9,1,3.9,1.9c-3.2-2.9-1.1-5.8,2.4-2.4c-2.1-2,2.9-1.6,3.8-1.3
								c3.6,1.2,5.1,6-0.4,6.5c-1.1,0.1-3.2,2.4-4.3,2.4c-2.7,0-4.8,1.6-7-0.7c-1-1-0.4-5,0.6-5.8
								C158.4,160.2,158.7,160,159.1,159.9L159.1,159.9z"/>
							<path class="st32" d="M177.7,160.6c-0.1,0-2.4-3-3-3.1c-1.8-0.3-3.8,3.1-3.4,4.4c-0.9-3.4-6.9-0.3-4.1,2.6l1.1,1.1
								c0,0-0.9,0.7,1.9,1.2c2.8,0.6,4.9-1.8,4.9-1.8l4.4-0.1c0,0,1-2.7,1-2.8C181.5,160,179.8,159.8,177.7,160.6L177.7,160.6z"/>
							<path class="st33" d="M172.8,161.5c-2-0.9-4.6-1.2-5.7-0.1c-0.7,0.8-1.7,1.9-1.4,3c-1-3.5-6.9-0.2-4.1,2.6l1.1,1.1
								c0,0-0.9,0.6,1.9,1.2c2.7,0.6,4.9-1.8,4.9-1.8s4.3-0.1,4.4-0.1c0.5,0,1.2-3.1,1.2-3.5C175.1,163.1,174.1,162.1,172.8,161.5
								L172.8,161.5z"/>
							<path class="st32" d="M153.4,171c0-0.1,0.1-0.1,0.1-0.2c0.2-1.2-1.5-2.1-0.8-3.4c0.6-1.1,5.3-2.2,5.6-0.6
								c-0.2-1-0.5-2.1-0.6-3.1c-0.1-0.9,4-0.1,4.4,0.2c0.7,0.6,0.9,1.6,1.2,2.3c0,0,1.1-0.3,0.2,2.1c-0.8,2.4-4.2,3-4.2,3
								c-0.7,0.1-1.4,2.7-2,3.1c-1,0.8-3.1,1-4.2,0.3C151.2,173.4,152.7,172.5,153.4,171L153.4,171z"/>
							<path class="st34" d="M168.9,166.1c1.2-0.2,2,2,2.8,2.9c-2.5-2.7,0.3-5.9,2.8-1.3c-2.1-1.4,1.8-3.9,2.7-3.6
								c3.1,1.4,4.6,6.1,0,6.3c-0.9,0.1-2.6,2.2-3.5,2.1c-2.3-0.1-3.9,1.4-5.9-1C165.8,169.3,166.9,166.4,168.9,166.1L168.9,166.1z"
								/>
							<path class="st31" d="M159.1,168.8c1.2-0.1,2.4,1.2,3.2,2.1c-2.8-3.1-1.3-5.7,1.7-2.2c-1.8-2.1,2.2-1.5,2.9-1.1
								c3,1.4,4.5,6.1,0.1,6.3c-0.9,0-2.4,2.1-3.3,2.1c-2.1-0.1-3.7,1.3-5.6-1.1c-0.8-1.1-0.7-4.9,0.1-5.6
								C158.5,168.9,158.8,168.8,159.1,168.8L159.1,168.8z"/>
						</g>
					</g>
					<g>
						<path class="st30" d="M349.7,192.3c0,0,7.1-2.9,16.8-4.1c9.8-1.2,18.5-1,18.5-1l4.6-19.9c0,0-24.3-14.3-29.4-20.7
							c0,0-20.4,16.1-18.5,29.5C343.7,189.4,349.7,192.3,349.7,192.3L349.7,192.3z"/>
						<g>
							<path class="st31" d="M327.8,176.8c0.5-1.3,2.4-1.9,3.7-2.2c-4.4,1.2-6.2-1.8-1.3-3c-2.9,0.7-0.3-3,0.4-3.6
								c2.9-2.3,8.2-1.3,6.2,3.3c-0.4,0.9,0.9,3.6,0.3,4.5c-1.2,2.1-0.6,4.5-3.9,5.2c-1.5,0.3-5.1-2-5.5-3.1
								C327.6,177.5,327.6,177.1,327.8,176.8L327.8,176.8z"/>
							<path class="st32" d="M337,162.4c0,0.1-4.1,0.5-4.5,0.9c-1.1,1.3,1.3,4.4,2.8,4.8c-3.7-0.8-3.5,5.4,0.7,4.5l1.6-0.3
								c0,0,0.2,1,2.1-0.9s0.5-4.8,0.5-4.8l2-3.5c0,0-2.2-2-2.3-2.1C338.1,159.1,337.1,160.3,337,162.4L337,162.4z"/>
							<path class="st33" d="M335.6,166.7c-1.8,1.1-3.3,3.1-2.7,4.5c0.4,0.9,1.1,2.2,2.3,2.4c-3.9-0.8-3.4,5.4,0.7,4.5l1.6-0.3
								c0,0,0.2,1,2.1-0.9c1.8-1.9,0.5-4.8,0.5-4.8s1.9-3.4,2-3.5c0.2-0.4-2.5-2.4-2.9-2.6C338.2,165.5,336.8,165.9,335.6,166.7z"/>
							<path class="st32" d="M336,186.4c0-0.1-0.1-0.1-0.1-0.1c-1.1-0.7-2.8,0.2-3.7-0.9c-0.8-0.9,0.3-5.2,2-4.8
								c-1.1-0.3-2.3-0.6-3.3-1c-1-0.4,1.8-3.2,2.3-3.4c0.9-0.3,2,0,2.9,0.1c0,0,0.1-1,2.2,0.8s1,4.7,1,4.7c-0.2,0.6,2,2.4,2.2,3.1
								c0.3,1.1-0.4,2.9-1.6,3.5C337.5,189.3,337.2,187.7,336,186.4L336,186.4z"/>
							<path class="st34" d="M338.3,171.8c0.4-1,2.9-0.6,4.2-0.9c-3.8,0.8-5.7-2.9,0-2.8c-2.4,1-3.1-3.2-2.3-3.8
								c2.8-1.9,8.2-0.8,6.3,2.9c-0.4,0.8,1,3,0.5,3.8c-1.1,1.8-0.4,3.8-3.7,4.3C340.1,175.8,337.7,173.6,338.3,171.8L338.3,171.8z"
								/>
							<path class="st31" d="M336.5,180.9c0.5-1,2.2-1.4,3.6-1.6c-4.3,0.8-6.3-1.6-1.4-2.4c-2.9,0.5-0.5-2.4,0.3-2.8
								c2.8-1.7,8.1-0.7,6.3,2.8c-0.4,0.7,1,2.9,0.5,3.6c-1.1,1.6-0.4,3.6-3.7,4c-1.4,0.2-5.1-1.7-5.6-2.6
								C336.3,181.4,336.4,181.2,336.5,180.9L336.5,180.9z"/>
						</g>
						<g>
							<path class="st31" d="M335.9,191.7c0.5-1.3,2.4-1.9,3.7-2.2c-4.4,1.2-6.2-1.8-1.3-3c-2.9,0.7-0.3-3,0.4-3.6
								c2.9-2.3,8.2-1.3,6.2,3.3c-0.4,0.9,0.9,3.6,0.3,4.5c-1.2,2.1-0.6,4.5-3.9,5.2c-1.5,0.3-5.1-2-5.5-3.1
								C335.8,192.5,335.8,192.1,335.9,191.7L335.9,191.7z"/>
							<path class="st32" d="M345.1,177.3c0,0.1-4.1,0.5-4.5,0.9c-1.1,1.3,1.3,4.4,2.8,4.8c-3.7-0.8-3.5,5.4,0.7,4.5l1.6-0.3
								c0,0,0.2,1,2.1-0.9s0.5-4.8,0.5-4.8l2-3.5c0,0-2.2-2.1-2.3-2.1C346.2,174,345.3,175.2,345.1,177.3L345.1,177.3z"/>
							<path class="st33" d="M343.7,181.7c-1.8,1.1-3.3,3.1-2.7,4.5c0.4,0.9,1.1,2.2,2.3,2.4c-3.9-0.8-3.4,5.4,0.7,4.5l1.6-0.3
								c0,0,0.2,1,2.1-0.9s0.5-4.8,0.5-4.8s1.9-3.4,2-3.5c0.2-0.4-2.5-2.4-2.9-2.6C346.4,180.5,345,180.9,343.7,181.7L343.7,181.7z"
								/>
							<path class="st32" d="M344.2,201.4c0-0.1-0.1-0.1-0.1-0.1c-1.1-0.7-2.8,0.2-3.7-0.9c-0.8-0.9,0.3-5.2,2-4.8
								c-1.1-0.3-2.3-0.6-3.3-1c-1-0.4,1.8-3.2,2.3-3.4c0.9-0.3,2,0,2.9,0.1c0,0,0.1-1,2.2,0.8s1,4.7,1,4.7c-0.2,0.6,2,2.4,2.2,3.1
								c0.3,1.2-0.4,2.9-1.6,3.5C345.7,204.3,345.3,202.7,344.2,201.4L344.2,201.4z"/>
							<path class="st34" d="M346.5,186.8c0.4-1,2.9-0.6,4.2-0.9c-3.8,0.8-5.7-2.9,0-2.8c-2.4,1-3.1-3.2-2.3-3.8
								c2.8-1.9,8.2-0.8,6.3,2.9c-0.4,0.8,1,3,0.5,3.8c-1.1,1.8-0.4,3.8-3.7,4.3C348.2,190.8,345.9,188.6,346.5,186.8L346.5,186.8z"
								/>
							<path class="st31" d="M344.6,195.8c0.5-1,2.2-1.4,3.6-1.6c-4.3,0.8-6.3-1.6-1.4-2.4c-2.9,0.5-0.5-2.4,0.3-2.8
								c2.8-1.7,8.1-0.7,6.3,2.8c-0.4,0.7,1,2.9,0.5,3.6c-1.1,1.6-0.4,3.6-3.7,4c-1.4,0.2-5.1-1.7-5.6-2.6
								C344.5,196.4,344.5,196.1,344.6,195.8L344.6,195.8z"/>
						</g>
						<g>
							<path class="st31" d="M342.4,171.2c0.5-1.3,2.4-1.9,3.7-2.2c-4.4,1.2-6.2-1.8-1.3-3c-2.9,0.7-0.3-3,0.4-3.6
								c2.9-2.3,8.2-1.3,6.2,3.3c-0.4,0.9,0.9,3.6,0.3,4.5c-1.2,2.2-0.6,4.5-3.9,5.2c-1.5,0.3-5.1-2-5.5-3.1
								C342.2,171.9,342.2,171.5,342.4,171.2L342.4,171.2z"/>
							<path class="st32" d="M351.6,156.8c0,0.1-4.1,0.5-4.5,0.9c-1.1,1.3,1.3,4.4,2.8,4.8c-3.7-0.8-3.5,5.4,0.7,4.5l1.6-0.4
								c0,0,0.3,1,2.1-0.9c1.8-1.9,0.5-4.8,0.5-4.8l2-3.5c0,0-2.2-2-2.3-2.1C352.7,153.5,351.8,154.7,351.6,156.8L351.6,156.8z"/>
							<path class="st33" d="M350.2,161.1c-1.8,1.1-3.3,3.1-2.7,4.5c0.4,0.9,1.1,2.2,2.3,2.4c-3.9-0.8-3.4,5.3,0.7,4.5l1.6-0.3
								c0,0,0.3,1,2.1-0.9c1.8-1.9,0.5-4.8,0.5-4.8s1.9-3.4,2-3.5c0.2-0.4-2.5-2.4-2.9-2.6C352.9,160,351.4,160.3,350.2,161.1
								L350.2,161.1z"/>
							<path class="st32" d="M350.7,180.8c0-0.1-0.1-0.1-0.1-0.1c-1.1-0.7-2.8,0.2-3.7-0.9c-0.8-0.9,0.3-5.2,2-4.8
								c-1.1-0.3-2.3-0.6-3.3-1c-0.9-0.4,1.8-3.2,2.3-3.4c0.9-0.3,2,0,2.9,0.1c0,0,0.1-1,2.2,0.8c2,1.8,1,4.7,1,4.7
								c-0.2,0.6,2,2.4,2.2,3.1c0.3,1.2-0.4,2.9-1.6,3.5C352.1,183.7,351.8,182.1,350.7,180.8L350.7,180.8z"/>
							<path class="st34" d="M352.9,166.2c0.4-1,2.9-0.6,4.2-0.9c-3.8,0.8-5.7-2.9,0-2.8c-2.4,1-3.1-3.2-2.3-3.8
								c2.8-1.9,8.2-0.8,6.3,2.9c-0.4,0.8,1,3,0.5,3.8c-1.1,1.8-0.4,3.8-3.7,4.3C354.7,170.2,352.3,168,352.9,166.2L352.9,166.2z"/>
							<path class="st31" d="M351.1,175.3c0.5-1,2.3-1.4,3.6-1.6c-4.3,0.8-6.3-1.6-1.4-2.4c-2.9,0.5-0.5-2.4,0.3-2.8
								c2.8-1.7,8.1-0.7,6.3,2.8c-0.4,0.7,1,2.9,0.5,3.6c-1.1,1.6-0.4,3.6-3.7,4c-1.4,0.2-5.1-1.7-5.6-2.6
								C351,175.8,351,175.6,351.1,175.3L351.1,175.3z"/>
						</g>
						<g>
							<path class="st31" d="M327.2,195.1c0.5-1.3,2.4-1.9,3.7-2.2c-4.4,1.2-6.2-1.8-1.3-3c-2.9,0.7-0.3-3,0.4-3.6
								c2.9-2.3,8.2-1.3,6.2,3.3c-0.4,0.9,0.9,3.6,0.3,4.5c-1.2,2.1-0.6,4.5-3.9,5.2c-1.5,0.3-5.1-2-5.5-3.1
								C327.1,195.8,327.1,195.4,327.2,195.1L327.2,195.1z"/>
							<path class="st32" d="M336.5,180.7c0,0.1-4.1,0.5-4.5,0.9c-1.1,1.3,1.3,4.4,2.8,4.8c-3.7-0.8-3.5,5.4,0.7,4.5l1.6-0.3
								c0,0,0.2,1,2.1-0.9s0.5-4.8,0.5-4.8l2-3.5c0,0-2.2-2-2.3-2.1C337.5,177.4,336.6,178.6,336.5,180.7L336.5,180.7z"/>
							<path class="st33" d="M335.1,185c-1.8,1.1-3.3,3.1-2.7,4.5c0.4,0.9,1.1,2.2,2.3,2.4c-3.9-0.8-3.4,5.3,0.7,4.5l1.6-0.3
								c0,0,0.3,1,2.1-0.9c1.8-1.9,0.5-4.8,0.5-4.8s1.9-3.4,2-3.5c0.2-0.4-2.5-2.4-2.9-2.6C337.7,183.9,336.3,184.3,335.1,185
								L335.1,185z"/>
							<path class="st32" d="M335.5,204.7c0-0.1-0.1-0.1-0.1-0.1c-1.1-0.7-2.8,0.2-3.7-0.9c-0.8-0.9,0.3-5.2,2-4.8
								c-1.1-0.3-2.3-0.6-3.3-1c-1-0.4,1.8-3.2,2.3-3.4c0.9-0.3,2,0,2.9,0.1c0,0,0.1-1,2.2,0.8c2,1.8,1,4.7,1,4.7
								c-0.2,0.6,2,2.4,2.2,3.1c0.3,1.2-0.4,2.9-1.6,3.5C337,207.6,336.6,206,335.5,204.7L335.5,204.7z"/>
							<path class="st34" d="M337.8,190.2c0.4-1,2.9-0.6,4.2-0.9c-3.8,0.8-5.7-2.9,0-2.8c-2.4,1-3.1-3.2-2.3-3.8
								c2.8-1.9,8.2-0.8,6.3,2.9c-0.4,0.8,1,3,0.5,3.8c-1.1,1.8-0.4,3.8-3.7,4.3C339.6,194.2,337.2,191.9,337.8,190.2L337.8,190.2z"
								/>
							<path class="st31" d="M336,199.2c0.5-1,2.3-1.4,3.6-1.6c-4.3,0.8-6.3-1.6-1.4-2.4c-2.9,0.5-0.5-2.4,0.3-2.8
								c2.8-1.7,8.1-0.7,6.3,2.8c-0.4,0.7,1,2.9,0.5,3.6c-1.1,1.6-0.4,3.5-3.7,4c-1.4,0.2-5.1-1.7-5.6-2.6
								C335.8,199.8,335.8,199.5,336,199.2L336,199.2z"/>
						</g>
						<g>
							<path class="st31" d="M344.3,153.3c0.5-1.3,2.4-1.9,3.7-2.2c-4.4,1.2-6.2-1.8-1.3-3c-2.9,0.7-0.3-3,0.4-3.6
								c2.9-2.3,8.2-1.3,6.2,3.3c-0.4,0.9,0.9,3.6,0.3,4.5c-1.2,2.2-0.6,4.5-3.9,5.2c-1.5,0.3-5.1-2-5.5-3.1
								C344.2,154,344.2,153.7,344.3,153.3L344.3,153.3z"/>
							<path class="st32" d="M353.5,138.9c0,0.1-4.1,0.5-4.5,0.9c-1.1,1.3,1.3,4.4,2.8,4.8c-3.7-0.8-3.5,5.4,0.7,4.5l1.6-0.3
								c0,0,0.2,1,2.1-0.9s0.5-4.8,0.5-4.8l2-3.5c0,0-2.2-2-2.3-2.1C354.6,135.6,353.7,136.8,353.5,138.9L353.5,138.9z"/>
							<path class="st33" d="M352.1,143.2c-1.8,1.1-3.3,3.1-2.7,4.5c0.4,0.9,1.1,2.2,2.3,2.4c-3.9-0.8-3.4,5.3,0.7,4.5l1.6-0.3
								c0,0,0.2,1,2.1-0.9s0.5-4.8,0.5-4.8s1.9-3.4,2-3.5c0.2-0.4-2.5-2.4-2.9-2.6C354.8,142.1,353.4,142.5,352.1,143.2L352.1,143.2
								z"/>
							<path class="st32" d="M352.6,162.9c0-0.1-0.1-0.1-0.1-0.1c-1.1-0.7-2.8,0.2-3.7-0.9c-0.8-0.9,0.3-5.2,2-4.8
								c-1.1-0.3-2.3-0.6-3.3-1c-1-0.4,1.8-3.2,2.3-3.4c0.9-0.3,2,0,2.9,0.1c0,0,0.1-1,2.2,0.8s1,4.7,1,4.7c-0.2,0.6,2,2.4,2.2,3.1
								c0.3,1.2-0.4,2.9-1.6,3.5C354.1,165.8,353.8,164.2,352.6,162.9L352.6,162.9z"/>
							<path class="st34" d="M354.9,148.4c0.4-1,2.9-0.6,4.2-0.9c-3.8,0.8-5.7-2.9,0-2.8c-2.4,1-3.1-3.2-2.3-3.8
								c2.8-1.9,8.2-0.8,6.3,2.9c-0.4,0.8,1,3,0.5,3.8c-1.1,1.8-0.4,3.8-3.7,4.3C356.6,152.4,354.3,150.1,354.9,148.4L354.9,148.4z"
								/>
							<path class="st31" d="M353,157.4c0.5-1,2.3-1.4,3.6-1.6c-4.3,0.8-6.3-1.6-1.4-2.4c-2.9,0.5-0.5-2.4,0.3-2.8
								c2.8-1.7,8.1-0.7,6.3,2.8c-0.4,0.7,1,2.9,0.5,3.6c-1.1,1.6-0.4,3.5-3.7,4c-1.4,0.2-5.1-1.7-5.6-2.6
								C352.9,158,352.9,157.7,353,157.4L353,157.4z"/>
						</g>
						<g>
							<path class="st31" d="M333.7,157.5c0.5-1.3,2.4-1.9,3.7-2.2c-4.4,1.2-6.2-1.8-1.3-3c-2.9,0.7-0.3-3,0.4-3.6
								c2.9-2.3,8.2-1.3,6.2,3.3c-0.4,0.9,0.9,3.6,0.3,4.5c-1.2,2.1-0.6,4.5-3.9,5.2c-1.5,0.3-5.1-2-5.5-3.1
								C333.6,158.2,333.6,157.9,333.7,157.5L333.7,157.5z"/>
							<path class="st32" d="M343,143.1c0,0.1-4.1,0.5-4.5,0.9c-1.1,1.3,1.3,4.4,2.8,4.8c-3.7-0.8-3.5,5.4,0.7,4.5l1.6-0.3
								c0,0,0.3,1,2.1-0.9c1.8-1.9,0.5-4.8,0.5-4.8l2-3.5c0,0-2.2-2-2.3-2.1C344.1,139.8,343.1,141,343,143.1L343,143.1z"/>
							<path class="st33" d="M341.6,147.4c-1.8,1.1-3.3,3.1-2.7,4.5c0.4,0.9,1.1,2.2,2.3,2.4c-3.9-0.8-3.4,5.3,0.7,4.5l1.6-0.3
								c0,0,0.2,1,2.1-0.9s0.5-4.8,0.5-4.8s1.9-3.4,2-3.5c0.2-0.4-2.5-2.4-2.9-2.6C344.2,146.3,342.8,146.7,341.6,147.4L341.6,147.4
								z"/>
							<path class="st32" d="M342,167.1c0-0.1-0.1-0.1-0.1-0.1c-1.1-0.7-2.8,0.2-3.7-0.9c-0.8-0.9,0.3-5.2,2-4.8
								c-1.1-0.3-2.3-0.6-3.3-1c-0.9-0.4,1.8-3.2,2.3-3.4c0.9-0.3,2,0,2.9,0.1c0,0,0.1-1,2.2,0.8c2,1.8,1,4.7,1,4.7
								c-0.2,0.6,2,2.4,2.2,3.1c0.3,1.2-0.4,2.9-1.6,3.5C343.5,170.1,343.2,168.4,342,167.1L342,167.1z"/>
							<path class="st34" d="M344.3,152.6c0.4-1.1,2.9-0.6,4.2-0.9c-3.8,0.8-5.7-2.9,0-2.8c-2.4,1-3.1-3.2-2.3-3.8
								c2.8-1.9,8.2-0.8,6.3,2.9c-0.4,0.8,1,3,0.5,3.8c-1.1,1.8-0.4,3.8-3.7,4.3C346.1,156.6,343.7,154.3,344.3,152.6L344.3,152.6z"
								/>
							<path class="st31" d="M342.5,161.6c0.5-1,2.2-1.4,3.6-1.6c-4.3,0.8-6.3-1.6-1.4-2.4c-2.9,0.5-0.5-2.4,0.3-2.8
								c2.8-1.7,8.1-0.7,6.3,2.8c-0.4,0.7,1,2.9,0.5,3.6c-1.1,1.6-0.4,3.6-3.7,4c-1.4,0.2-5.1-1.7-5.6-2.6
								C342.3,162.2,342.3,161.9,342.5,161.6L342.5,161.6z"/>
						</g>
					</g>
					<g>
						<g>
							<path class="st18" d="M334.4,112.3c1-0.9,3.5-3.8,3.1-6.1c-0.4-1.9-1-3.9-1.5-5.7c-0.6-2.2-0.7-5-2.3-6.3
								c-1.8-1.4-4.7-1-7.6-0.1c-3.4,1.1-7.6-0.8-10.5,3.2c-1,1.4-1.9,2.7-1.8,4.1c0.1,1.4,0.8,2.4,1.2,3.6c0.7,2.5,1.6,4.8,2.2,7.4
								c0.3,1.2,0.2,2,1.4,2.2c2.1,0.3,5.4-0.8,7.8-1.1C326.3,113.3,333.4,113.3,334.4,112.3L334.4,112.3z"/>
							<g>
								<defs>
									<path id="SVGID_00000093873384392162663990000012894063993908798606_" d="M334.4,112.3c1-0.9,3.5-3.8,3.1-6.1
										c-0.4-1.9-1-3.9-1.5-5.7c-0.6-2.2-0.7-5-2.3-6.3c-1.8-1.4-4.7-1-7.6-0.1c-3.4,1.1-7.6-0.8-10.5,3.2c-1,1.4-1.9,2.7-1.8,4.1
										c0.1,1.4,0.8,2.4,1.2,3.6c0.7,2.5,1.6,4.8,2.2,7.4c0.3,1.2,0.2,2,1.4,2.2c2.1,0.3,5.4-0.8,7.8-1.1
										C326.3,113.3,333.4,113.3,334.4,112.3L334.4,112.3z"/>
								</defs>
								<clipPath id="SVGID_00000181058217992378991220000007505442825936874139_">
									<use xlink:href="#SVGID_00000093873384392162663990000012894063993908798606_"  style="overflow:visible;"/>
								</clipPath>
								<g style="clip-path:url(#SVGID_00000181058217992378991220000007505442825936874139_);">
									<path class="st20" d="M333.8,92.9L317.2,95l-3.6,4.8c0.6,2.2,1.3,4.3,1.9,6.5c0.7,2.2-0.6,9.2,1,10.4
										C321.7,108.1,328.6,99.9,333.8,92.9"/>
								</g>
							</g>
						</g>
						<path class="st21" d="M337.3,108.1c-0.5,1.2-8.8,0.6-9.7,0.7c-1.9,0.2-4.3,1.6-5.8,0.9c-1-0.5-0.9-2-1.2-3.2
							c-0.7-2.2-1.4-4.4-2-6.6c-0.5-1.5-0.6-3.1-1.3-4.4c2.6-1.1,5.8-1.2,8.2-1.5c1.9-0.3,3.7-0.4,5.6-0.7c3.9-0.6,4,4.3,4.9,7.3
							C336.6,102.7,338.5,104.7,337.3,108.1L337.3,108.1z"/>
					</g>
					<g>
						<g>
							<path class="st18" d="M243.1,185.9c0-1.2-0.4-4.9-2.6-6.3c-1.8-1.1-3.8-2.2-5.6-3.1c-2.1-1.1-4.4-3.1-6.6-3.1
								c-2.4,0.1-4.2,2.2-5.5,4.7c-1.5,2.9-6.1,4.3-5,8.9c0.4,1.7,0.8,3.1,1.9,4c1.2,1,2.5,1.2,3.7,1.8c2.4,1.3,4.9,2.4,7.4,3.9
								c1.1,0.6,1.7,1.3,2.7,0.7c1.7-1.1,3.2-4,4.7-5.7C238.1,191.7,243.1,187.3,243.1,185.9L243.1,185.9z"/>
							<g>
								<defs>
									<path id="SVGID_00000150785497924607458430000012119046245630198706_" d="M243.1,185.9c0-1.2-0.4-4.9-2.6-6.3
										c-1.8-1.1-3.8-2.2-5.6-3.1c-2.1-1.1-4.4-3.1-6.6-3.1c-2.4,0.1-4.2,2.2-5.5,4.7c-1.5,2.9-6.1,4.3-5,8.9
										c0.4,1.7,0.8,3.1,1.9,4c1.2,1,2.5,1.2,3.7,1.8c2.4,1.3,4.9,2.4,7.4,3.9c1.1,0.6,1.7,1.3,2.7,0.7c1.7-1.1,3.2-4,4.7-5.7
										C238.1,191.7,243.1,187.3,243.1,185.9L243.1,185.9z"/>
								</defs>
								<clipPath id="SVGID_00000023993737177962442530000012761787261332901780_">
									<use xlink:href="#SVGID_00000150785497924607458430000012119046245630198706_"  style="overflow:visible;"/>
								</clipPath>
								<g style="clip-path:url(#SVGID_00000023993737177962442530000012761787261332901780_);">
									<path class="st20" d="M227.4,172.5l-10.1,11.9l1.2,5.7c2.1,1.1,4.3,2.3,6.4,3.4c2.2,1.2,6.8,6.9,8.9,6.8
										C230.8,190.9,229.3,180.7,227.4,172.5"/>
								</g>
							</g>
						</g>
						<path class="st21" d="M241.9,181.1c0.5,1.2-5.8,5.9-6.4,6.6c-1.1,1.3-1.8,3.8-3.4,4.3c-1.1,0.3-2.2-0.9-3.4-1.5
							c-2.2-1.1-4.4-2.3-6.6-3.4c-1.5-0.8-2.9-1.9-4.4-2.3c0.9-2.4,3.2-4.5,4.7-6.2c1.1-1.4,2.3-2.7,3.4-4.1
							c2.3-2.9,6.2,0.5,9.2,2.1C237.1,177.7,240.1,178,241.9,181.1L241.9,181.1z"/>
					</g>
				</g>
			</g>
		</g>
	</g>
</g>
</svg>
