<?xml version="1.0" encoding="UTF-8"?>
<svg xmlns="http://www.w3.org/2000/svg" xmlns:xlink="http://www.w3.org/1999/xlink" viewBox="0 0 489.8 311.34">
  <defs>
    <style>
      .cls-1 {
        clip-path: url(#clippath);
      }

      .cls-2, .cls-3, .cls-4, .cls-5, .cls-6, .cls-7, .cls-8, .cls-9, .cls-10, .cls-11, .cls-12, .cls-13, .cls-14, .cls-15, .cls-16, .cls-17, .cls-18, .cls-19, .cls-20, .cls-21, .cls-22, .cls-23, .cls-24 {
        stroke-width: 0px;
      }

      .cls-2, .cls-25 {
        fill: none;
      }

      .cls-26, .cls-18, .cls-24 {
        fill: #fff0ac;
      }

      .cls-27, .cls-6, .cls-13 {
        fill: #abc609;
      }

      .cls-3 {
        fill: url(#radial-gradient);
      }

      .cls-28 {
        clip-path: url(#clippath-1);
      }

      .cls-29 {
        clip-path: url(#clippath-3);
      }

      .cls-30 {
        clip-path: url(#clippath-2);
      }

      .cls-31 {
        clip-path: url(#clippath-7);
      }

      .cls-32 {
        clip-path: url(#clippath-8);
      }

      .cls-33 {
        clip-path: url(#clippath-6);
      }

      .cls-34 {
        clip-path: url(#clippath-9);
      }

      .cls-35 {
        fill: #f3d4a1;
        stroke: #f3d4a1;
        stroke-width: .88px;
      }

      .cls-35, .cls-25 {
        stroke-linecap: round;
        stroke-linejoin: round;
      }

      .cls-36 {
        clip-path: url(#clippath-13);
      }

      .cls-37 {
        clip-path: url(#clippath-12);
      }

      .cls-38 {
        clip-path: url(#clippath-10);
      }

      .cls-39 {
        clip-path: url(#clippath-11);
      }

      .cls-4 {
        fill: url(#radial-gradient-2);
      }

      .cls-5 {
        fill: url(#radial-gradient-3);
      }

      .cls-25 {
        stroke: #fff;
        stroke-width: 2.83px;
      }

      .cls-6 {
        opacity: .5;
      }

      .cls-6, .cls-24 {
        mix-blend-mode: multiply;
      }

      .cls-40 {
        isolation: isolate;
      }

      .cls-7 {
        fill: #632c3c;
      }

      .cls-8 {
        fill: #489037;
      }

      .cls-9 {
        fill: #5d9741;
      }

      .cls-10 {
        fill: #58953e;
      }

      .cls-11 {
        fill: #54642a;
      }

      .cls-12 {
        fill: #cbd973;
      }

      .cls-14 {
        fill: #d93924;
      }

      .cls-15 {
        fill: #b9ce41;
      }

      .cls-16 {
        fill: #fde9e1;
      }

      .cls-17 {
        fill: #fff;
      }

      .cls-19 {
        fill: #fff2b6;
      }

      .cls-20 {
        fill: #ecf1cf;
      }

      .cls-21 {
        fill: #feebbe;
      }

      .cls-22 {
        fill: #f6b8a1;
      }

      .cls-23 {
        fill: #669b47;
      }

      .cls-24 {
        opacity: .4;
      }
    </style>
    <clipPath id="clippath">
      <path class="cls-13" d="m70.25,123.69c-6.08,6.81,2.8,11.72-3.24,18.68-4.56,5.25-5.73,8.79-6.93,15.24-1.71,9.13,7.15,5.35,11.46,12.43-3.26,3.06-5.2,4.15-4.04,8.46.67,2.47,15.94,10.75,19.53,13,1.35,13.44-.41,14.3,12.68,27.62,6.18,6.3,15.32.17,21.9,4.13.72,2.98,1.83,18.15,9.95,23.13,0,0,6.04,3.29,12.77,5.91.66.67,1.33,1.36,2.01,2.08,17.76,18.99,1.49-7.33,28.25-3.44,26.76,3.89-1.34,10.7,25.8,8.61,27.14-2.09,42.37-8.93,43.38-24.87,1.01-15.93,18.86-8.32,22.14-19.56,3.29-11.25-4.34-7.66-2.34-18.76,1.32-7.33.07-15.29-1.69-23.54-.58-2.71-.92-5.45-1.44-8.23-.87-4.7-2.24-9.52-6.07-14.48-4.42-5.73-9.07-36.79-16.4-41.2-21.19-12.75-20.12-6.08-42.4-17.2-9.68-4.83-20.94-1.81-30.68,1.08-9.45,2.79-19.85,2.97-28.52,5.6-4.86,1.47-8.23,5.26-13.09,6.86-6.1,2.01-12.87.95-18.95,3.21-4.64,1.72-31.77,12.7-34.06,15.27Z"/>
    </clipPath>
    <clipPath id="clippath-1">
      <path class="cls-13" d="m411.2,203.04c7.53-5.53,0-11.99,7.52-17.66,5.68-4.28,7.65-7.53,10.34-13.61,3.8-8.61-5.74-6.57-8.31-14.3,3.9-2.39,6.06-3.09,5.92-7.52-.08-2.54-13.09-13.49-16.07-16.37,1.81-13.39,3.73-13.91-5.95-29.38-4.58-7.31-14.95-3.03-20.46-8.13-.01-3.05,2.45-18.09-4.34-24.48,0,0-5.14-4.35-11.11-8.16-.49-.78-.99-1.58-1.48-2.41-12.94-21.9-3.17,6.89-28.43-1.91-25.26-8.8,3.81-10.21-23.22-13.24-27.03-3.03-43.52.82-48.23,16.21-4.71,15.39-20.38,4.61-26.22,14.99-5.84,10.39,2.45,8.31-2.09,18.79-3,6.92-3.63,14.94-3.84,23.34-.07,2.75-.37,5.5-.51,8.32-.24,4.76-.03,9.73,2.56,15.3,2.98,6.43.29,37.68,6.42,43.36,17.75,16.43,18.26,9.71,37.46,24.75,8.35,6.53,20.05,5.68,30.26,4.68,9.89-.97,20.11.8,29.2-.14,5.1-.53,9.28-3.61,14.41-4.26,6.44-.82,12.81,1.47,19.28.4,4.94-.82,34.03-6.48,36.88-8.56Z"/>
    </clipPath>
    <clipPath id="clippath-2">
      <path class="cls-13" d="m198.75,234.46c3.35,8.19,12.65,3.93,16.16,12.17,2.65,6.21,5.42,8.94,10.96,13.21,7.83,6.04,8.82-2.7,17.82-2.32,1.24,4.08,1.27,6.14,5.98,7.47,2.71.77,18.53-6.63,22.55-8.2,13.53,5.93,13.45,7.73,32.95,4.63,9.22-1.46,8.11-11.64,15.3-14.62,3.22.99,18.29,8.02,27.25,4.38,0,0,6.28-2.92,12.27-6.71.99-.16,1.99-.31,3.03-.46,27.35-3.74-6.23-4.94,11.37-23.41,17.59-18.46,9.52,6.58,21.61-15.28,12.08-21.85,13.45-37.06-1.24-46.1-14.69-9.04,1.84-18.75-7.2-27.1-9.04-8.35-9.57-.66-19.14-7.94-6.32-4.81-14.57-7.98-23.36-10.92-2.88-.96-5.68-2.12-8.61-3.17-4.94-1.77-10.25-3.22-16.98-2.87-7.76.41-39.84-12.14-47.85-8.82-23.17,9.61-16.25,12.25-38.43,23.53-9.64,4.91-12.59,15.08-14.89,24.04-2.23,8.68-7.46,16.73-9.45,24.73-1.12,4.48.76,9.03-.24,13.58-1.25,5.71-5.76,10.34-6.76,16.17-.76,4.45-4.35,30.9-3.09,33.99Z"/>
    </clipPath>
    <clipPath id="clippath-3">
      <path class="cls-13" d="m322.2,63.31c-2.52-8.42-12.2-4.94-14.87-13.42-2.01-6.4-4.5-9.34-9.58-14.04-7.2-6.65-9.06,1.97-17.98.88-.82-4.16-.64-6.21-5.2-7.93-2.62-.98-19.13,5.11-23.28,6.35-12.88-7-12.61-8.78-32.36-7.27-9.33.72-9.25,10.94-16.71,13.33-3.11-1.25-17.4-9.46-26.7-6.56,0,0-6.55,2.4-12.89,5.7-1,.08-2.01.15-3.06.21-27.62,1.52,5.71,5.42-13.67,22.4-19.38,16.97-8.82-7.32-23.05,13.48-14.23,20.79-17.12,35.83-3.39,46.01,13.72,10.19-3.71,18.52,4.44,27.57,8.16,9.04,9.47,1.43,18.26,9.45,5.81,5.3,13.71,9.12,22.17,12.75,2.77,1.19,5.44,2.57,8.25,3.85,4.74,2.16,9.89,4.04,16.62,4.22,7.77.22,38.46,15.31,46.77,12.64,24.04-7.7,17.42-10.89,40.64-20.34,10.09-4.11,14.05-14.01,17.25-22.75,3.1-8.47,9.11-16.07,11.9-23.87,1.57-4.37.15-9.05,1.61-13.51,1.82-5.59,6.78-9.84,8.36-15.56,1.21-4.37,7.44-30.43,6.5-33.6Z"/>
    </clipPath>
    <radialGradient id="radial-gradient" cx="387.34" cy="204.1" fx="387.34" fy="204.1" r="29.51" gradientTransform="translate(-181.01) scale(1.12 1)" gradientUnits="userSpaceOnUse">
      <stop offset="0" stop-color="#f29a76"/>
      <stop offset="1" stop-color="#ed6d46"/>
    </radialGradient>
    <radialGradient id="radial-gradient-2" cx="456.51" cy="112.48" fx="456.51" fy="112.48" r="29.51" xlink:href="#radial-gradient"/>
    <radialGradient id="radial-gradient-3" cx="343.92" cy="94.24" fx="343.92" fy="94.24" r="29.51" xlink:href="#radial-gradient"/>
    <clipPath id="clippath-6">
      <path class="cls-18" d="m399.99,156.98c-.03-1.23-.45-4.9-2.64-6.3-1.78-1.14-3.79-2.17-5.57-3.11-2.15-1.13-4.45-3.14-6.59-3.07-2.38.07-4.17,2.23-5.5,4.7-1.54,2.88-6.05,4.27-4.98,8.85.39,1.68.82,3.11,1.93,4.01,1.19.96,2.48,1.17,3.69,1.82,2.45,1.3,4.92,2.45,7.37,3.88,1.12.66,1.73,1.3,2.66.69,1.73-1.13,3.2-3.98,4.68-5.68,0,0,4.99-4.41,4.96-5.79Z"/>
    </clipPath>
    <clipPath id="clippath-7">
      <path class="cls-18" d="m323.68,208.73c-.56-1.12-2.56-4.35-5.19-4.86-2.13-.42-4.43-.67-6.49-.9-2.47-.28-5.47-1.32-7.41-.51-2.16.91-2.86,3.52-3,6.26-.15,3.19-3.69,6.05-.7,9.89,1.1,1.41,2.12,2.57,3.54,3.01,1.51.47,2.79.21,4.19.38,2.83.34,5.6.52,8.47.98,1.32.21,2.16.59,2.75-.3,1.09-1.65,1.2-4.79,1.81-6.87,0,0,2.65-5.81,2.02-7.07Z"/>
    </clipPath>
    <clipPath id="clippath-8">
      <path class="cls-18" d="m223.19,135.21c-.03-1.23-.45-4.9-2.64-6.3-1.78-1.14-3.79-2.17-5.57-3.11-2.15-1.13-4.45-3.14-6.59-3.07-2.38.07-4.17,2.23-5.5,4.7-1.54,2.88-6.05,4.27-4.98,8.85.39,1.68.82,3.11,1.93,4.01,1.19.96,2.48,1.17,3.69,1.82,2.45,1.3,4.92,2.45,7.37,3.88,1.12.66,1.73,1.3,2.66.69,1.73-1.13,3.2-3.98,4.68-5.68,0,0,4.99-4.41,4.96-5.79Z"/>
    </clipPath>
    <clipPath id="clippath-9">
      <path class="cls-18" d="m269.65,75.02c.95-.89,3.52-3.77,3.06-6.14-.38-1.93-1-3.93-1.53-5.71-.65-2.15-.71-5.03-2.29-6.33-1.76-1.45-4.72-1.03-7.6-.11-3.36,1.09-7.65-.76-10.49,3.17-1.04,1.44-1.85,2.73-1.77,4.07.09,1.43.84,2.39,1.2,3.61.72,2.47,1.59,4.84,2.21,7.39.28,1.17.22,2.01,1.35,2.16,2.12.28,5.4-.82,7.79-1.11,0,0,7.01,0,8.07-1.01Z"/>
    </clipPath>
    <clipPath id="clippath-10">
      <path class="cls-18" d="m131.08,172.86c.95-.89,3.52-3.77,3.06-6.14-.38-1.93-1-3.93-1.53-5.71-.65-2.15-.71-5.03-2.29-6.33-1.76-1.44-4.72-1.03-7.6-.11-3.36,1.09-7.65-.76-10.49,3.17-1.04,1.44-1.85,2.73-1.77,4.07.09,1.43.84,2.39,1.2,3.61.72,2.47,1.59,4.84,2.21,7.39.28,1.17.22,2.01,1.35,2.16,2.12.28,5.4-.82,7.79-1.11,0,0,7.01,0,8.07-1.01Z"/>
    </clipPath>
    <clipPath id="clippath-11">
      <path class="cls-18" d="m304.03,150.69c.95-.89,3.52-3.77,3.06-6.14-.38-1.93-1-3.93-1.53-5.71-.65-2.15-.71-5.03-2.29-6.33-1.76-1.44-4.72-1.03-7.6-.11-3.36,1.09-7.65-.76-10.49,3.17-1.04,1.44-1.85,2.73-1.77,4.07.09,1.43.84,2.39,1.2,3.61.72,2.47,1.59,4.84,2.21,7.39.28,1.17.22,2.01,1.35,2.16,2.12.28,5.4-.82,7.79-1.11,0,0,7.01,0,8.07-1.01Z"/>
    </clipPath>
    <clipPath id="clippath-12">
      <path class="cls-18" d="m334.41,112.28c.95-.89,3.52-3.77,3.06-6.14-.38-1.93-1-3.93-1.53-5.72-.65-2.15-.71-5.03-2.29-6.33-1.76-1.45-4.72-1.03-7.6-.11-3.36,1.09-7.65-.76-10.49,3.17-1.04,1.44-1.85,2.73-1.77,4.07.09,1.43.84,2.39,1.2,3.61.72,2.47,1.59,4.84,2.21,7.39.28,1.17.22,2.01,1.35,2.16,2.12.28,5.4-.82,7.79-1.11,0,0,7.01,0,8.07-1.01Z"/>
    </clipPath>
    <clipPath id="clippath-13">
      <path class="cls-18" d="m243.09,185.9c-.03-1.23-.45-4.9-2.64-6.3-1.78-1.14-3.79-2.17-5.57-3.11-2.15-1.13-4.45-3.14-6.59-3.07-2.38.07-4.17,2.23-5.5,4.7-1.54,2.88-6.05,4.27-4.98,8.85.39,1.68.82,3.1,1.93,4.01,1.19.96,2.48,1.17,3.69,1.82,2.45,1.31,4.92,2.45,7.37,3.88,1.12.65,1.73,1.3,2.66.69,1.73-1.13,3.2-3.98,4.68-5.68,0,0,4.99-4.41,4.96-5.79Z"/>
    </clipPath>
  </defs>
  <g class="cls-40">
    <g id="_レイヤー_2" data-name="レイヤー 2">
      <g id="_イラスト" data-name="イラスト">
        <g>
          <g>
            <path class="cls-35" d="m489.36,158.15c0,84.36-109.45,152.75-244.46,152.75S.44,242.51.44,158.15,109.89,5.4,244.9,5.4s244.46,68.39,244.46,152.76Z"/>
            <ellipse class="cls-21" cx="244.9" cy="152.75" rx="244.46" ry="152.75"/>
            <ellipse class="cls-17" cx="244.9" cy="156.06" rx="187.71" ry="117.29"/>
            <ellipse class="cls-25" cx="244.9" cy="156.06" rx="225.25" ry="140.74"/>
          </g>
          <g>
            <g>
              <path class="cls-27" d="m70.25,123.69c-6.08,6.81,2.8,11.72-3.24,18.68-4.56,5.25-5.73,8.79-6.93,15.24-1.71,9.13,7.15,5.35,11.46,12.43-3.26,3.06-5.2,4.15-4.04,8.46.67,2.47,15.94,10.75,19.53,13,1.35,13.44-.41,14.3,12.68,27.62,6.18,6.3,15.32.17,21.9,4.13.72,2.98,1.83,18.15,9.95,23.13,0,0,6.04,3.29,12.77,5.91.66.67,1.33,1.36,2.01,2.08,17.76,18.99,1.49-7.33,28.25-3.44,26.76,3.89-1.34,10.7,25.8,8.61,27.14-2.09,42.37-8.93,43.38-24.87,1.01-15.93,18.86-8.32,22.14-19.56,3.29-11.25-4.34-7.66-2.34-18.76,1.32-7.33.07-15.29-1.69-23.54-.58-2.71-.92-5.45-1.44-8.23-.87-4.7-2.24-9.52-6.07-14.48-4.42-5.73-9.07-36.79-16.4-41.2-21.19-12.75-20.12-6.08-42.4-17.2-9.68-4.83-20.94-1.81-30.68,1.08-9.45,2.79-19.85,2.97-28.52,5.6-4.86,1.47-8.23,5.26-13.09,6.86-6.1,2.01-12.87.95-18.95,3.21-4.64,1.72-31.77,12.7-34.06,15.27Z"/>
              <g class="cls-1">
                <path class="cls-20" d="m222.78,102.51s-37.01,74.02-61.13,98.03l-24.12,24.01s42.62-56.9,50.14-89.51c7.52-32.6,35.12-32.53,35.12-32.53Z"/>
                <path class="cls-20" d="m192.74,130.35s10.29,41.75,9.61,54.25c-.68,12.5-.96,36.17-.96,36.17,0,0-3.65-61.51-10.3-72.95-6.65-11.44,1.65-17.46,1.65-17.46Z"/>
                <path class="cls-20" d="m210.02,111.35s13.41,37.85,17.18,52.93c3.77,15.07,5.55,37.7,5.55,37.7,0,0-16.53-65.34-28.64-77-12.11-11.66,5.91-13.63,5.91-13.63Z"/>
                <path class="cls-20" d="m196.77,142s-47.05,7.33-59.71,12.64c-12.66,5.31-37,14.53-37,14.53,0,0,64.94-20.34,79.29-19.17,14.35,1.17,17.42-8,17.42-8Z"/>
                <path class="cls-20" d="m215.69,107.88s-44.21,3.28-61.22,5.87c-17.01,2.6-41.07,9.72-41.07,9.72,0,0,73.79-11.13,90.44-5.52,16.65,5.6,11.84-10.07,11.84-10.07Z"/>
                <path class="cls-6" d="m256.03,224.19c-8.46-9.2-2.41-23.44-11.61-23.46-9.2-.02-14.89,11.68-13.51,22.13,1.39,10.46,5.96,18.7-3.97,27.86-9.93,9.16-31.9,22.09-37.9,15.75-6-6.35-6.71-5.4-4.18-23.13,2.53-17.73,2.89-20.26-2.77-20.91s-7.43-.33-12.41,10.42c-4.99,10.75-10.65,14.22-11.74,21.82-1.08,7.6,4.91,13.95-5.69,11.7s-36.73-20.67-33.88-28.58c2.85-7.91,20.24-24.97,12.1-24.35-8.14.62-23.85,9.26-30.77,5.68-24.04-12.45,4.37-21.95,5.72-27.59,4.18-17.47-12.91-4.92-27.58-4.18-31.42,1.59-6.53-14.52,8.57-27.85,15.47-13.65,3.99-31.98-21.5-26.65-25.49,5.32-11.35,11.06-18.83,27.19-7.47,16.13,35.95,46.32,46.85,66.61,10.91,20.29,89.65,68.93,139.99,34.53,50.33-34.4,23.1-37,23.1-37Z"/>
              </g>
            </g>
            <g>
              <path class="cls-27" d="m411.2,203.04c7.53-5.53,0-11.99,7.52-17.66,5.68-4.28,7.65-7.53,10.34-13.61,3.8-8.61-5.74-6.57-8.31-14.3,3.9-2.39,6.06-3.09,5.92-7.52-.08-2.54-13.09-13.49-16.07-16.37,1.81-13.39,3.73-13.91-5.95-29.38-4.58-7.31-14.95-3.03-20.46-8.13-.01-3.05,2.45-18.09-4.34-24.48,0,0-5.14-4.35-11.11-8.16-.49-.78-.99-1.58-1.48-2.41-12.94-21.9-3.17,6.89-28.43-1.91-25.26-8.8,3.81-10.21-23.22-13.24-27.03-3.03-43.52.82-48.23,16.21-4.71,15.39-20.38,4.61-26.22,14.99-5.84,10.39,2.45,8.31-2.09,18.79-3,6.92-3.63,14.94-3.84,23.34-.07,2.75-.37,5.5-.51,8.32-.24,4.76-.03,9.73,2.56,15.3,2.98,6.43.29,37.68,6.42,43.36,17.75,16.43,18.26,9.71,37.46,24.75,8.35,6.53,20.05,5.68,30.26,4.68,9.89-.97,20.11.8,29.2-.14,5.1-.53,9.28-3.61,14.41-4.26,6.44-.82,12.81,1.47,19.28.4,4.94-.82,34.03-6.48,36.88-8.56Z"/>
              <g class="cls-28">
                <path class="cls-20" d="m257.09,195.23s53.46-65.47,82.65-84.44l29.19-18.97s-54.95,47.68-69.91,78.16c-14.96,30.48-41.93,25.25-41.93,25.25Z"/>
                <path class="cls-20" d="m292.96,173.62s-.33-42.75,3.25-54.85c3.58-12.09,9.38-35.19,9.38-35.19,0,0-10.78,60.83-6.94,73.27,3.84,12.43-5.69,16.77-5.69,16.77Z"/>
                <path class="cls-20" d="m271.63,188.97s-4.28-39.53-4.45-54.97c-.17-15.45,3.37-37.9,3.37-37.9,0,0,.92,66.99,10.05,80.65,9.13,13.67-8.96,12.22-8.96,12.22Z"/>
                <path class="cls-20" d="m291.74,161.47s47.73,1.63,61.34-1.2c13.62-2.83,39.58-7.3,39.58-7.3,0,0-68.26,7.75-82.02,3.93-13.76-3.82-18.9,4.57-18.9,4.57Z"/>
                <path class="cls-20" d="m265.28,191.31s44,5.06,61.24,5.7c17.24.64,42.43-1.83,42.43-1.83,0,0-74.76-2.91-89.74-11.51-14.97-8.59-13.93,7.64-13.93,7.64Z"/>
                <path class="cls-6" d="m252.96,70.01c6.13,10.58-3.11,23.37,5.88,25.11,8.99,1.74,17.29-8.64,18.37-19.12,1.08-10.48-1.47-19.4,10.38-26.5,11.85-7.1,36.35-15.64,40.73-8.31,4.38,7.33,5.3,6.53-1.31,23.4-6.61,16.87-7.55,19.27-2.17,20.96,5.38,1.69,7.19,1.72,14.57-7.87,7.38-9.59,13.74-11.92,16.57-19.15,2.83-7.23-1.55-14.56,8.3-10.38,9.85,4.18,31.1,27.08,26.46,34.28-4.64,7.2-25.62,20.64-17.51,21.56,8.1.92,25.49-4.59,31.41.2,20.61,16.67-9.39,20.65-12.03,25.91-8.16,16.3,11.48,7.23,26,9.25,31.1,4.32,3,15.42-14.88,25.63-18.31,10.46-11.36,30.53,14.81,30.08,26.17-.44,13.68-8.69,24.76-23.07,11.07-14.38-24.35-52.02-30.28-73.9-5.93-21.89-71.6-84.17-128.84-59.94-57.25,24.23-31.22,31.86-31.22,31.86Z"/>
              </g>
            </g>
            <g>
              <path class="cls-27" d="m198.75,234.46c3.35,8.19,12.65,3.93,16.16,12.17,2.65,6.21,5.42,8.94,10.96,13.21,7.83,6.04,8.82-2.7,17.82-2.32,1.24,4.08,1.27,6.14,5.98,7.47,2.71.77,18.53-6.63,22.55-8.2,13.53,5.93,13.45,7.73,32.95,4.63,9.22-1.46,8.11-11.64,15.3-14.62,3.22.99,18.29,8.02,27.25,4.38,0,0,6.28-2.92,12.27-6.71.99-.16,1.99-.31,3.03-.46,27.35-3.74-6.23-4.94,11.37-23.41,17.59-18.46,9.52,6.58,21.61-15.28,12.08-21.85,13.45-37.06-1.24-46.1-14.69-9.04,1.84-18.75-7.2-27.1-9.04-8.35-9.57-.66-19.14-7.94-6.32-4.81-14.57-7.98-23.36-10.92-2.88-.96-5.68-2.12-8.61-3.17-4.94-1.77-10.25-3.22-16.98-2.87-7.76.41-39.84-12.14-47.85-8.82-23.17,9.61-16.25,12.25-38.43,23.53-9.64,4.91-12.59,15.08-14.89,24.04-2.23,8.68-7.46,16.73-9.45,24.73-1.12,4.48.76,9.03-.24,13.58-1.25,5.71-5.76,10.34-6.76,16.17-.76,4.45-4.35,30.9-3.09,33.99Z"/>
              <g class="cls-30">
                <path class="cls-20" d="m257.66,106.74s51.49,66.72,61.9,97.64l10.42,30.92s-32.24-62.13-59.47-84.81c-27.23-22.67-12.85-43.75-12.85-43.75Z"/>
                <path class="cls-20" d="m268.65,144.17s45.21,13.78,56.79,20.78c11.58,7,34.04,19.5,34.04,19.5,0,0-60.63-29.12-75.01-29.96-14.37-.84-15.82-10.32-15.82-10.32Z"/>
                <path class="cls-20" d="m259.47,121.09s43.11,9.38,59.46,14.31c16.35,4.93,38.88,15.31,38.88,15.31,0,0-70.97-21.25-88.39-18.02-17.42,3.22-9.95-11.59-9.95-11.59Z"/>
                <path class="cls-20" d="m281.88,147.13s-17.41,39.82-18.9,52.26c-1.49,12.44-5.32,35.86-5.32,35.86,0,0,14.26-60.25,22.82-70.63,8.56-10.38,1.4-17.48,1.4-17.48Z"/>
                <path class="cls-20" d="m259.1,114.95s-19.81,35.53-26.15,49.9c-6.34,14.37-12.02,36.47-12.02,36.47,0,0,27.65-62.25,41.64-72.09,13.99-9.83-3.48-14.28-3.48-14.28Z"/>
                <path class="cls-6" d="m391.11,144.41c-13.18,1.7-23.63-10.32-28.43-3.29-4.79,7.03,3.43,17.46,14.13,21.82,10.7,4.36,20.95,5.14,24.55,17.49,3.6,12.35,4.55,35.88-4.62,37.17-9.17,1.3-8.64,2.33-24.25-8.8-15.62-11.13-17.85-12.72-21.4-8.73-3.55,3.99-4.17,5.51,3.52,14.91,7.69,9.39,8.06,15.53,14.75,20.3,6.69,4.77,15.87,3.48,8.22,10.43-7.64,6.95-38.79,17.39-44.87,11.1-6.07-6.29-13.35-28.44-16.98-21.89-3.63,6.54-3.53,23.06-10.54,26.49-24.37,11.94-18.7-14.73-23.38-18.69-14.51-12.26-11.4,7.33-18.3,18.94-14.78,24.87-17.25-2.54-22.15-21.01-5.02-18.92-28.47-19.64-36.6,2.63-8.14,22.27,4.67,14.42,16.2,28.52,11.53,14.09,62.88-3.48,87.92-1.3s112.34-32.86,105.6-89.22c-6.74-56.37-23.35-36.87-23.35-36.87Z"/>
              </g>
            </g>
            <g>
              <path class="cls-27" d="m322.2,63.31c-2.52-8.42-12.2-4.94-14.87-13.42-2.01-6.4-4.5-9.34-9.58-14.04-7.2-6.65-9.06,1.97-17.98.88-.82-4.16-.64-6.21-5.2-7.93-2.62-.98-19.13,5.11-23.28,6.35-12.88-7-12.61-8.78-32.36-7.27-9.33.72-9.25,10.94-16.71,13.33-3.11-1.25-17.4-9.46-26.7-6.56,0,0-6.55,2.4-12.89,5.7-1,.08-2.01.15-3.06.21-27.62,1.52,5.71,5.42-13.67,22.4-19.38,16.97-8.82-7.32-23.05,13.48-14.23,20.79-17.12,35.83-3.39,46.01,13.72,10.19-3.71,18.52,4.44,27.57,8.16,9.04,9.47,1.43,18.26,9.45,5.81,5.3,13.71,9.12,22.17,12.75,2.77,1.19,5.44,2.57,8.25,3.85,4.74,2.16,9.89,4.04,16.62,4.22,7.77.22,38.46,15.31,46.77,12.64,24.04-7.7,17.42-10.89,40.64-20.34,10.09-4.11,14.05-14.01,17.25-22.75,3.1-8.47,9.11-16.07,11.9-23.87,1.57-4.37.15-9.05,1.61-13.51,1.82-5.59,6.78-9.84,8.36-15.56,1.21-4.37,7.44-30.43,6.5-33.6Z"/>
              <g class="cls-29">
                <path class="cls-20" d="m250.7,185.77s-44.57-70.6-51.84-102.23l-7.27-31.63s25.86,64.48,50.7,89.25c24.84,24.77,8.4,44.61,8.4,44.61Z"/>
                <path class="cls-20" d="m243.5,147.6s-43.64-17.37-54.47-25.27c-10.83-7.91-31.94-22.16-31.94-22.16,0,0,57.46,33.88,71.69,35.88,14.23,2,14.72,11.56,14.72,11.56Z"/>
                <path class="cls-20" d="m250.33,171.33s-41.99-12.81-57.78-19.04c-15.79-6.23-37.18-18.38-37.18-18.38,0,0,68.55,26.88,86.22,25.07,17.67-1.81,8.74,12.35,8.74,12.35Z"/>
                <path class="cls-20" d="m230.63,143.58s21.34-38.25,24.08-50.52c2.74-12.27,8.9-35.29,8.9-35.29,0,0-20.26,58.86-29.83,68.51-9.57,9.64-3.15,17.3-3.15,17.3Z"/>
                <path class="cls-20" d="m250.08,177.47s23.3-33.79,31.06-47.59c7.76-13.8,15.64-35.35,15.64-35.35,0,0-33.8,59.77-48.72,68.44-14.92,8.67,2.03,14.51,2.03,14.51Z"/>
                <path class="cls-6" d="m121.57,137.49c13.3-.63,22.5,12.18,27.98,5.56,5.48-6.61-1.66-17.66-11.88-22.87-10.22-5.21-20.35-6.81-22.69-19.4-2.34-12.59-.93-36.1,8.34-36.65,9.26-.55,8.84-1.63,23.27,10.72,14.44,12.34,16.5,14.11,20.44,10.41,3.94-3.69,4.71-5.15-2-15.13-6.71-9.97-6.46-16.12-12.65-21.41-6.19-5.29-15.45-4.74-7.14-11.05,8.31-6.31,40.38-14.19,45.8-7.44,5.42,6.75,10.44,29.4,14.71,23.17,4.28-6.23,5.83-22.68,13.16-25.54,25.47-9.93,17.14,16.18,21.41,20.49,13.22,13.38,12.09-6.38,20.13-17.39,17.22-23.58,16.92,3.91,19.95,22.7,3.09,19.25,26.38,21.85,36.72.33,10.34-21.52-3.2-14.74-13.27-29.71-10.07-14.96-62.98-1.59-87.7-5.78-24.72-4.19-115.18,23.67-114.13,80.36,1.05,56.68,19.55,38.6,19.55,38.6Z"/>
              </g>
            </g>
            <path class="cls-20" d="m243.98,119.17s10.05,38.68,12.48,53.97c2.44,15.29,2.23,37.97,2.23,37.97,0,0-10.75-66.3-21.81-78.77-11.05-12.47,7.09-13.17,7.09-13.17Z"/>
            <path class="cls-20" d="m253.32,99.38s48.45,68.52,57.47,99.79l9.02,31.27s-29.42-63.24-55.61-86.87c-26.19-23.63-10.88-44.18-10.88-44.18Z"/>
            <path class="cls-27" d="m307.69,88.24c-3.54-8.12-12.73-3.7-16.43-11.87-2.79-6.16-5.63-8.84-11.26-13.01-7.97-5.9-8.76,2.86-17.76,2.64-1.33-4.06-1.4-6.11-6.15-7.36-2.72-.72-18.38,6.97-22.36,8.61-13.67-5.68-13.62-7.48-33.05-4.02-9.18,1.63-7.84,11.79-14.96,14.9-3.24-.93-18.46-7.68-27.35-3.88,0,0-6.21,3.03-12.11,6.94-.98.18-1.98.35-3.02.51-27.26,4.24,6.34,4.83-10.83,23.61-17.17,18.78-9.67-6.4-21.25,15.67-11.58,22.07-12.6,37.3,2.3,46.07,14.89,8.77-1.41,18.78,7.81,26.96,9.23,8.18,9.58.48,19.31,7.59,6.42,4.69,14.75,7.72,23.61,10.49,2.9.91,5.72,2.02,8.68,3.01,4.98,1.68,10.33,3.03,17.04,2.56,7.75-.55,40.11,11.41,48.04,7.95,22.95-10.03,15.97-12.54,37.88-24.23,9.52-5.08,12.24-15.31,14.34-24.31,2.03-8.72,7.07-16.87,8.88-24.9,1.02-4.5-.96-9.01-.07-13.58,1.12-5.73,5.53-10.44,6.39-16.29.66-4.46,3.64-30.98,2.31-34.04Z"/>
            <path class="cls-13" d="m305.84,197.63c3.04,2.77,4.95-1.73,8.05,1.01,2.34,2.07,3.88,2.53,6.66,2.92,3.94.56,2.14-3.66,5.07-5.99,1.38,1.5,1.88,2.42,3.7,1.71,1.04-.4,4.25-8.13,5.14-9.95,5.71-1.07,6.12-.24,11.53-7.05,2.56-3.22-.26-7.5,1.29-10.84,1.26-.45,7.72-1.45,9.67-5.58,0,0,1.28-3.06,2.25-6.43.27-.35.55-.69.85-1.05,7.74-9.27-3.16-.5-2.08-13.72,1.09-13.21,4.6.33,3.13-12.89-1.47-13.21-4.73-20.45-11.56-20.46-6.83,0-3.96-8.97-8.83-10.23-4.87-1.26-3.18,2.36-7.97,1.72-3.16-.42-6.53.43-10.02,1.55-1.15.36-2.31.62-3.49.96-1.99.57-4.02,1.39-6.06,3.41-2.35,2.34-15.53,5.57-17.25,9.28-4.99,10.76-2.17,10.03-6.44,21.27-1.85,4.88-.32,10.3,1.12,14.98,1.4,4.54,1.7,9.62,3,13.78.73,2.33,2.42,3.86,3.21,6.2.99,2.93.68,6.27,1.78,9.17.84,2.22,6.11,15.16,7.25,16.2Z"/>
            <path class="cls-13" d="m153.76,120.31c-4.34.02-2.07,4.38-6.43,4.45-3.29.06-4.73.72-6.99,2.23-3.19,2.14,1.44,3.93,1.25,7.43-2.16-.16-3.25-.48-3.95,1.17-.4.95,3.53,8.4,4.37,10.24-3.13,4.41-4.08,4.09-2.42,12.31.79,3.89,6.18,5.07,7.77,8.4-.52,1.12-4.23,5.96-2.29,10.09,0,0,1.55,2.95,3.57,5.93.09.42.17.84.24,1.27,2.02,11.43,2.61-1.68,12.42,8.24,9.81,9.92-3.48,2.72,8.12,11,11.6,8.28,19.66,11.25,24.43,6.88,4.77-4.37,9.94,3.72,14.35,1.48,4.41-2.24.34-3.68,4.19-6.31,2.54-1.73,4.22-4.49,5.76-7.51.51-.99,1.12-1.91,1.67-2.9.93-1.67,24.54.04,24.35-2.68-.23-3.14-1.57-22.19-3.34-25.89-5.12-10.71,3.78-16.3-2.23-26.89-2.61-4.6-33.19,5.27-37.94,2.92-4.6-2.27-8.88-5.63-13.12-7.7-2.38-1.16-4.78-1.14-7.2-2.27-3.03-1.41-5.49-3.94-8.58-5.26-2.36-1.01-16.39-6.67-18.02-6.66Z"/>
            <path class="cls-15" d="m246.09,117.32c-4.34.02-2.07,4.38-6.43,4.45-3.29.06-4.73.72-6.99,2.23-3.19,2.14,1.44,3.93,1.25,7.43-2.16-.16-3.25-.48-3.95,1.17-.4.95,3.53,8.4,4.37,10.24-3.13,4.41-4.08,4.09-2.42,12.31.79,3.89,6.18,5.07,7.77,8.4-.52,1.12-4.23,5.96-2.29,10.09,0,0,1.55,2.95,3.57,5.93.09.42.17.84.24,1.27,2.02,11.43,2.62-1.68,12.42,8.25,9.81,9.92-3.48,2.72,8.12,11,11.6,8.28,19.66,11.25,24.43,6.88,4.77-4.37,9.94,3.73,14.35,1.48,4.41-2.24.34-3.68,4.19-6.31,2.54-1.73,4.21-4.49,5.76-7.51.51-.99,1.12-1.91,1.67-2.9.93-1.67,24.54.04,24.34-2.68-.23-3.14-1.57-22.19-3.34-25.89-5.12-10.71,3.78-16.3-2.22-26.89-2.61-4.6-33.19,5.27-37.94,2.92-4.6-2.27-8.88-5.63-13.12-7.7-2.38-1.16-4.78-1.14-7.2-2.27-3.03-1.41-5.49-3.94-8.58-5.27-2.36-1.01-16.39-6.67-18.02-6.66Z"/>
            <path class="cls-13" d="m249.12,56.55c-1.37-3.68-5.29-.4-6.73-4.09-1.08-2.78-2.24-3.8-4.54-5.25-3.26-2.05-3.72,2.45-7.5,3.37-.5-1.89-.5-2.91-2.48-3-1.13-.05-7.82,5.62-9.51,6.91-5.66-1.29-5.61-2.2-13.82,1.78-3.88,1.88-3.46,6.84-6.5,9.22-1.35-.1-7.64-1.74-11.43,1.19,0,0-2.65,2.24-5.18,4.89-.42.2-.84.4-1.28.6-11.51,5.27,2.59,1.7-4.89,13.13-7.48,11.43-3.97-2.11-9.15,10.34-5.18,12.44-5.82,20.23.3,22.93,6.13,2.7-.86,9.61,2.89,12.67,3.75,3.06,4.01-.86,8,1.6,2.63,1.62,6.08,2.19,9.76,2.56,1.21.13,2.38.36,3.6.52,2.07.27,7.6,20.89,10.42,19.88,3.26-1.17,23.07-8.24,26.45-10.9,9.78-7.69,18.48-1.86,27.85-10.26,4.07-3.66-15.93-26.59-14.92-31.36.98-4.62,3.21-9.3,4.09-13.56.49-2.38-.27-4.43.17-6.83.55-3.02,2.47-5.9,2.92-8.94.34-2.32,1.97-16.02,1.46-17.4Z"/>
            <path class="cls-20" d="m274.34,176.54s-18.85-35.95-24.8-50.45c-5.95-14.5-11.04-36.72-11.04-36.72,0,0,25.98,62.83,39.7,72.96,13.72,10.13-3.86,14.21-3.86,14.21Z"/>
            <path class="cls-27" d="m219.25,218.7c5.36,7.28,13.32,1.24,18.84,8.53,4.16,5.5,7.57,7.6,14.05,10.62,9.17,4.28,7.9-4.43,16.75-5.91,2.25,3.72,2.8,5.71,7.73,6.05,2.83.19,16.35-10.25,19.86-12.6,14.69,3,15.07,4.77,33.26-2.24,8.6-3.32,4.92-12.99,11.16-17.37,3.39.3,19.85,4.06,27.65-1.32,0,0,5.37-4.13,10.23-9.05.92-.36,1.86-.71,2.83-1.07,25.67-9.25-7.32-3.54,5.08-25.12,12.4-21.58,10.95,4.45,17.13-19.3,6.18-23.75,3.62-38.83-12.99-44.62-16.61-5.79-3-18.63-13.93-24.9-10.93-6.28-9.48,1.32-20.66-3.81-7.38-3.39-16.22-4.79-25.53-5.84-3.05-.35-6.07-.9-9.19-1.32-5.26-.71-10.81-1.04-17.26.69-7.45,1.99-41.89-3.66-48.84,1.21-20.1,14.1-12.69,15.25-31.4,30.78-8.13,6.75-8.4,17.26-8.35,26.45.05,8.91-2.98,17.82-2.88,26.01.06,4.59,3.05,8.63,3.24,13.27.24,5.82-2.97,11.25-2.45,17.13.39,4.48,3.66,30.98,5.68,33.72Z"/>
            <path class="cls-13" d="m195.54,111.38c-3.62-2.14-4.44,2.62-8.11.51-2.77-1.59-4.38-1.75-7.19-1.62-3.98.19-1.23,3.98-3.56,6.8-1.7-1.21-2.41-2.01-4.02-.99-.92.59-2.26,8.74-2.7,10.69-5.34,2.12-5.93,1.38-9.63,9.05-1.75,3.62,2,7.29,1.26,10.84-1.13.67-7.21,2.86-8.16,7.26,0,0-.54,3.23-.7,6.71-.19.39-.38.78-.59,1.18-5.4,10.51,3.21-.1,5.23,13.03,2.02,13.12-4.58.54-.05,13.19,4.52,12.65,9.39,19.12,16.08,17.85,6.68-1.27,5.96,8.03,11.03,8.36,5.06.32,2.56-2.9,7.39-3.17,3.19-.18,6.29-1.65,9.44-3.39,1.04-.57,2.11-1.04,3.19-1.59,1.81-.93,3.61-2.11,5.13-4.47,1.76-2.73,13.89-8.35,14.71-12.31,2.37-11.46-.22-10.21,1.34-22.01.67-5.12-2.09-10.13-4.59-14.44-2.42-4.18-3.9-9.09-6.15-12.92-1.26-2.14-3.27-3.33-4.59-5.46-1.65-2.68-2.13-6-3.88-8.64-1.34-2.01-9.51-13.68-10.87-14.48Z"/>
            <path class="cls-13" d="m369.13,178.43c4.24-.83,1-4.67,5.25-5.56,3.2-.67,4.46-1.59,6.31-3.48,2.63-2.69-2.32-3.57-2.95-7.03,2.15-.24,3.29-.14,3.59-1.89.17-1.01-5.41-7.56-6.67-9.2,2.03-4.9,3.04-4.76-.51-12.49-1.68-3.65-7.23-3.81-9.55-6.76.25-1.19,2.74-6.62-.11-10.3,0,0-2.21-2.6-4.88-5.13-.18-.39-.36-.79-.53-1.2-4.64-10.8-2.17,2.13-14.07-5.74-11.9-7.87,2.77-3.31-10.51-9.24-13.27-5.93-21.85-7.33-25.5-2.16-3.65,5.17-10.59-1.79-14.38,1.23-3.79,3.02.53,3.67-2.62,6.95-2.08,2.17-3.07,5.18-3.88,8.42-.27,1.06-.65,2.08-.96,3.15-.52,1.81-24.01,4.55-23.18,7.17.95,3.03,6.71,21.41,9.3,24.7,7.5,9.52.1,16.65,8.45,25.88,3.63,4.01,31.23-11.35,36.42-9.95,5.03,1.36,10,3.85,14.63,5.08,2.6.69,4.95.22,7.57.87,3.29.81,6.29,2.82,9.62,3.55,2.54.55,17.58,3.45,19.17,3.14Z"/>
            <path class="cls-7" d="m411.81,181.49c4.24-.83,1-4.67,5.25-5.56,3.2-.67,4.46-1.59,6.31-3.48,2.63-2.69-2.32-3.57-2.95-7.03,2.15-.24,3.29-.14,3.59-1.89.17-1-5.41-7.55-6.67-9.2,2.03-4.9,3.04-4.76-.51-12.49-1.68-3.65-7.23-3.81-9.55-6.76.25-1.19,2.74-6.62-.11-10.3,0,0-2.21-2.6-4.88-5.13-.18-.39-.36-.79-.53-1.2-4.64-10.8-2.17,2.13-14.07-5.74-11.9-7.87,2.77-3.31-10.51-9.24-13.27-5.93-21.85-7.33-25.5-2.16-3.65,5.17-10.59-1.79-14.38,1.23-3.79,3.02.53,3.67-2.62,6.95-2.08,2.17-3.07,5.18-3.88,8.42-.27,1.06-.65,2.08-.96,3.15-.52,1.81-24.01,4.55-23.19,7.17.95,3.03,6.71,21.41,9.3,24.7,7.5,9.52.1,16.64,8.45,25.88,3.63,4.01,31.23-11.36,36.42-9.95,5.03,1.36,10,3.85,14.63,5.08,2.6.69,4.95.22,7.57.87,3.29.81,6.29,2.82,9.62,3.55,2.54.55,17.58,3.46,19.17,3.14Z"/>
            <path class="cls-7" d="m333.92,134.29c4.24-.83,1-4.67,5.25-5.56,3.2-.67,4.46-1.59,6.31-3.48,2.63-2.69-2.32-3.57-2.95-7.03,2.15-.24,3.29-.14,3.59-1.89.17-1-5.41-7.55-6.67-9.2,2.03-4.9,3.04-4.76-.51-12.49-1.68-3.65-7.23-3.81-9.55-6.76.25-1.19,2.74-6.62-.11-10.3,0,0-2.21-2.6-4.88-5.13-.18-.39-.36-.79-.53-1.2-4.64-10.8-2.17,2.13-14.07-5.74-11.9-7.87,2.77-3.31-10.51-9.24-13.27-5.93-21.85-7.33-25.5-2.16-3.65,5.17-10.59-1.79-14.38,1.23-3.79,3.02.53,3.67-2.62,6.95-2.08,2.17-3.07,5.18-3.88,8.42-.27,1.06-.65,2.08-.96,3.15-.52,1.81-24.01,4.55-23.18,7.17.95,3.03,6.71,21.41,9.3,24.7,7.5,9.52.1,16.64,8.45,25.88,3.63,4.01,31.23-11.36,36.42-9.95,5.03,1.36,10,3.85,14.63,5.08,2.6.69,4.95.22,7.57.87,3.29.81,6.29,2.82,9.62,3.55,2.54.55,17.58,3.46,19.17,3.14Z"/>
            <path class="cls-7" d="m158.01,198.56c-1.4,3.67,3.95,3.18,2.6,6.9-1.02,2.8-.79,4.24.06,6.64,1.21,3.4,4.61.07,8.25,1.38-.88,1.77-1.57,2.59-.05,3.73.87.65,10.02-.24,12.24-.35,3.63,4.09,2.98,4.79,12.2,6.07,4.36.61,7.38-3.57,11.41-3.82,1.01.81,4.91,5.53,9.9,5.24,0,0,3.63-.35,7.43-1.08.47.06.94.13,1.42.21,12.73,2.03-.91-2.76,12.77-7.81,13.68-5.05,1.73,3.83,14.27-3.27,12.53-7.1,18.31-12.95,15.25-18.42-3.05-5.46,7.18-7.19,6.26-11.66-.92-4.47-3.78-1.49-5.29-5.6-1-2.72-3.36-5.03-6.04-7.33-.88-.75-1.65-1.57-2.52-2.36-1.46-1.33,8.07-20.75,5.14-21.47-3.39-.84-23.94-5.93-28.42-5.64-12.98.83-15.97-8.53-29.11-6.91-5.71.7-5.29,29.8-9.32,33.05-3.91,3.15-8.85,5.67-12.42,8.58-2,1.63-2.77,3.67-4.75,5.35-2.48,2.1-5.95,3.36-8.36,5.54-1.84,1.66-12.4,11.68-12.92,13.07Z"/>
            <path class="cls-7" d="m168.59,69.01c-1.44-3.66-5.3-.32-6.8-3.98-1.13-2.76-2.31-3.77-4.64-5.18-3.3-2-3.67,2.5-7.44,3.48-.53-1.88-.55-2.91-2.53-2.96-1.13-.03-7.71,5.74-9.38,7.05-5.68-1.2-5.65-2.12-13.78,1.98-3.85,1.94-3.34,6.89-6.33,9.32-1.35-.07-7.67-1.63-11.4,1.36,0,0-2.61,2.28-5.09,4.96-.41.21-.83.42-1.26.62-11.41,5.44,2.62,1.66-4.64,13.21-7.26,11.54-4.01-2.05-8.96,10.47-4.95,12.52-5.45,20.31.73,22.92,6.17,2.61-.68,9.63,3.13,12.62,3.81,3,4-.92,8.03,1.48,2.66,1.59,6.12,2.1,9.81,2.42,1.21.11,2.38.32,3.61.47,2.07.24,7.98,20.78,10.79,19.72,3.24-1.22,22.91-8.58,26.24-11.29,9.63-7.83,18.44-2.13,27.65-10.68,4-3.72-16.41-26.35-15.49-31.14.89-4.64,3.04-9.35,3.84-13.62.45-2.39-.36-4.42.04-6.83.5-3.02,2.36-5.93,2.75-8.98.3-2.33,1.68-16.04,1.14-17.42Z"/>
            <path class="cls-13" d="m283.92,238.74c2.2,3.35,5.27-.6,7.53,2.74,1.71,2.52,3.07,3.3,5.66,4.29,3.67,1.4,3.07-3.09,6.55-4.7.93,1.75,1.17,2.76,3.12,2.47,1.12-.17,6.33-6.96,7.69-8.53,5.83.2,6,1.1,13.1-4.32,3.36-2.56,1.79-7.33,4.2-10.23,1.34-.16,7.88.27,10.9-3.3,0,0,2.07-2.69,3.93-5.75.36-.28.72-.55,1.11-.83,10.02-7.31-2.93-1.18,1.72-13.76,4.65-12.58,4.38,1.32,6.54-11.82,2.16-13.14.98-20.87-5.65-22.36-6.62-1.49-1.4-9.56-5.78-11.85-4.39-2.29-3.73,1.59-8.2-.07-2.95-1.1-6.46-1-10.14-.68-1.21.1-2.41.1-3.64.17-2.08.12-12.3-19.01-14.83-17.49-2.92,1.75-20.63,12.37-23.32,15.6-7.77,9.35-17.64,5.27-24.84,15.24-3.13,4.33,21.78,23.03,21.9,27.88.12,4.7-.97,9.7-.84,14.02.08,2.42,1.3,4.28,1.43,6.71.16,3.05-1.04,6.23-.77,9.29.21,2.33,1.8,16.03,2.63,17.29Z"/>
            <g>
              <path class="cls-14" d="m287.92,203.99c0,18.23-16.51,33.01-36.88,33.01s-36.88-14.78-36.88-33.01,16.51-33.02,36.88-33.02,36.88,14.78,36.88,33.02Z"/>
              <path class="cls-3" d="m282.61,194.04c-.7-1.86-2.54-2.44-5.04-2.14,1.57-1.17,2.58-2.18,2.63-2.88.28-3.35-18.29-17.99-35.2-14.02-13.11,3.08-19.04,10-19.68,10.67-1.47,1.56-1.17,3.7.35,5.98-1.48-.11-2.74.03-3.64.54-3.12,1.74-6.76,21.89,5.65,32.47,9.62,8.2,19.12,9.21,20.08,9.19,1.46-.02,2.83-1.11,3.93-2.93.31,1.33.72,2.28,1.26,2.62,3,1.91,24.85-4.61,29.69-19.32,3.76-11.41.28-19.37-.03-20.19Z"/>
              <path class="cls-14" d="m232.81,188.7c-.2,3.49,11.59,9.47,13.54,10.71,1.94,1.24-4.25-7.23-3.42-9.09.83-1.86,2.22-.24,3.6-.24s1.94-1.62,2.91-1.37c.97.25,2.63,1.86,3.74.87,1.11-.99,4.57-1.24,4.99.5.41,1.73,2.49-.87,3.74.37,1.25,1.24-4.17,9.52-4.31,10.14-.14.62,14.01-8.77,14.56-11.01.55-2.23-8.04-9.8-21.48-9.8-9.52,0-17.74,6.45-17.87,8.93Z"/>
              <path class="cls-14" d="m246.86,226.82c3.44-1.64,2.7-13.32,2.89-15.44.19-2.13-4.33,6.53-6.54,6.85-2.21.32-1.38-1.57-2.09-2.64-.71-1.07-2.54-.66-2.8-1.53-.26-.87.43-2.98-1.09-3.32-1.52-.34-3.54-2.88-2.09-4.09,1.45-1.21-2.11-1.47-1.57-3.06.55-1.6,10.28-1.61,10.94-1.82.67-.21-14.08-6.82-16.5-6.1-2.42.72-5.8,11.7,1.11,22.02,4.89,7.31,15.3,10.3,17.75,9.13Z"/>
              <path class="cls-14" d="m277.58,198.06c-3.15-2.06-15.13,3.86-17.35,4.63-2.22.77,9.02.42,10.3,2.06,1.28,1.64-.98,1.8-1.74,2.83-.76,1.04.45,2.33-.32,2.93-.76.59-3.18.95-2.86,2.33.32,1.38-1.35,4.1-3.2,3.46-1.85-.64-.56,2.34-2.4,2.6-1.84.26-5.57-8.26-6.07-8.7-.51-.45-.52,15.22,1.26,16.86,1.79,1.64,13.56-.64,20.93-10.71,5.22-7.13,3.69-16.82,1.45-18.28Z"/>
            </g>
            <g>
              <path class="cls-14" d="m365.18,112.37c0,18.23-16.51,33.01-36.88,33.01s-36.88-14.78-36.88-33.01,16.51-33.02,36.88-33.02,36.88,14.78,36.88,33.02Z"/>
              <path class="cls-4" d="m359.88,102.42c-.7-1.86-2.54-2.44-5.04-2.14,1.57-1.17,2.58-2.18,2.63-2.88.28-3.35-18.29-17.99-35.2-14.02-13.11,3.08-19.04,10-19.68,10.67-1.47,1.56-1.17,3.7.35,5.98-1.48-.11-2.74.03-3.64.54-3.12,1.74-6.76,21.89,5.65,32.47,9.62,8.2,19.12,9.21,20.08,9.19,1.46-.02,2.83-1.11,3.93-2.93.31,1.33.72,2.28,1.26,2.62,3,1.91,24.85-4.61,29.69-19.32,3.76-11.41.28-19.37-.03-20.19Z"/>
              <path class="cls-14" d="m310.07,97.08c-.2,3.49,11.59,9.47,13.54,10.71,1.94,1.24-4.25-7.23-3.42-9.09.83-1.86,2.22-.24,3.6-.24s1.94-1.62,2.91-1.37c.97.25,2.63,1.86,3.74.87,1.11-.99,4.57-1.24,4.99.5.41,1.73,2.49-.87,3.74.37,1.25,1.24-4.17,9.52-4.31,10.14-.14.62,14.01-8.77,14.56-11.01.55-2.23-8.04-9.8-21.48-9.8-9.52,0-17.74,6.45-17.87,8.93Z"/>
              <path class="cls-14" d="m324.12,135.2c3.44-1.64,2.7-13.32,2.89-15.44.19-2.13-4.33,6.53-6.54,6.85-2.21.32-1.38-1.57-2.09-2.64-.71-1.07-2.54-.66-2.8-1.53-.26-.87.43-2.98-1.09-3.32-1.52-.34-3.54-2.88-2.09-4.09,1.45-1.21-2.11-1.47-1.57-3.06.55-1.6,10.28-1.61,10.94-1.82.67-.21-14.08-6.82-16.5-6.1-2.42.72-5.8,11.7,1.11,22.02,4.89,7.31,15.3,10.3,17.75,9.13Z"/>
              <path class="cls-14" d="m354.84,106.44c-3.15-2.06-15.13,3.86-17.35,4.63-2.22.77,9.02.42,10.3,2.06,1.28,1.64-.98,1.8-1.74,2.83-.76,1.04.45,2.33-.32,2.93-.76.59-3.18.95-2.86,2.33.32,1.38-1.35,4.1-3.2,3.46-1.85-.64-.56,2.34-2.4,2.6-1.84.26-5.57-8.26-6.07-8.7-.51-.45-.52,15.22,1.26,16.86,1.79,1.64,13.56-.64,20.93-10.71,5.22-7.13,3.69-16.82,1.45-18.28Z"/>
            </g>
            <g>
              <path class="cls-14" d="m239.4,94.14c0,18.23-16.51,33.01-36.88,33.01s-36.88-14.78-36.88-33.01,16.51-33.02,36.88-33.02,36.88,14.78,36.88,33.02Z"/>
              <path class="cls-5" d="m234.1,84.19c-.7-1.86-2.54-2.44-5.04-2.14,1.57-1.17,2.58-2.18,2.63-2.88.28-3.35-18.29-17.99-35.2-14.02-13.11,3.08-19.04,10-19.68,10.67-1.47,1.56-1.17,3.7.35,5.98-1.48-.11-2.74.03-3.64.54-3.12,1.74-6.76,21.89,5.65,32.47,9.62,8.2,19.12,9.21,20.08,9.19,1.46-.02,2.83-1.11,3.93-2.93.31,1.33.72,2.28,1.26,2.62,3,1.91,24.85-4.61,29.69-19.32,3.76-11.41.28-19.37-.03-20.19Z"/>
              <path class="cls-14" d="m184.29,78.85c-.2,3.49,11.59,9.47,13.54,10.71,1.94,1.24-4.25-7.23-3.42-9.09.83-1.86,2.22-.24,3.6-.24s1.94-1.62,2.91-1.37c.97.25,2.63,1.86,3.74.87,1.11-.99,4.57-1.24,4.99.5.41,1.73,2.49-.87,3.74.37,1.25,1.24-4.17,9.52-4.31,10.14-.14.62,14.01-8.77,14.56-11.01.55-2.23-8.04-9.8-21.48-9.8-9.52,0-17.74,6.45-17.87,8.93Z"/>
              <path class="cls-14" d="m198.35,116.96c3.44-1.64,2.7-13.32,2.89-15.44.19-2.13-4.33,6.53-6.54,6.85-2.21.32-1.38-1.57-2.09-2.64-.71-1.07-2.54-.66-2.8-1.53-.26-.87.43-2.98-1.09-3.32-1.52-.34-3.54-2.88-2.09-4.09,1.45-1.21-2.11-1.47-1.57-3.06.55-1.6,10.28-1.61,10.94-1.82.67-.21-14.08-6.82-16.5-6.1-2.42.72-5.8,11.7,1.11,22.02,4.89,7.31,15.3,10.3,17.75,9.13Z"/>
              <path class="cls-14" d="m229.06,88.21c-3.15-2.06-15.13,3.86-17.35,4.63-2.22.77,9.02.42,10.3,2.06,1.28,1.64-.98,1.8-1.74,2.83-.76,1.04.45,2.33-.32,2.93-.76.59-3.18.95-2.86,2.33.32,1.38-1.35,4.1-3.2,3.46-1.85-.64-.56,2.34-2.4,2.6-1.84.26-5.57-8.26-6.07-8.7-.51-.45-.52,15.22,1.26,16.86,1.79,1.64,13.56-.64,20.93-10.71,5.22-7.13,3.69-16.82,1.45-18.28Z"/>
            </g>
            <path class="cls-15" d="m236.44,166.9c-3.31,1.07-.25,3.85-3.56,4.96-2.49.84-3.39,1.7-4.66,3.4-1.79,2.41,2.29,2.64,3.21,5.37-1.7.4-2.62.42-2.66,1.86-.02.82,5.25,5.55,6.45,6.75-1.05,4.13-1.88,4.11,1.89,9.98,1.78,2.78,6.26,2.37,8.48,4.52-.06.98-1.42,5.58,1.32,8.26,0,0,2.08,1.88,4.53,3.66.19.3.38.6.57.91,5.01,8.23,1.49-1.91,11.98,3.27,10.5,5.18-1.83,2.92,9.54,6.42,11.36,3.5,18.42,3.8,20.73-.7,2.31-4.5,8.71.42,11.4-2.36,2.69-2.79-.86-2.89,1.28-5.83,1.41-1.94,1.85-4.45,2.11-7.13.09-.88.27-1.73.4-2.64,1.44-7.29,17.99-.67,14.59-10.46-2.4-6.91-20.14-8.84-25.64-14.18-7.16-6.93,16.33-15.61,8.53-22.22-3.39-2.87-23.72,12.1-28.06,11.47-4.2-.61-8.48-2.13-12.35-2.68-2.17-.3-4,.29-6.18.02-2.74-.34-5.38-1.67-8.14-1.93-2.11-.2-14.53-1.1-15.77-.69Z"/>
            <g>
              <path class="cls-2" d="m375.2,175.29c1.22.69,2.46,1.38,3.7,2.06-1.31-.76-2.54-1.47-3.65-2.11l-.04.05Z"/>
              <path class="cls-2" d="m402.92,166.02l.15-.17c-5.68-2.29-8.08-2.81-10.08-2.33,3.9.86,7.3,1.7,9.93,2.5Z"/>
            </g>
            <g>
              <path class="cls-2" d="m259.03,211.48c.06,1.29.12,2.59.2,3.89-.04-1.4-.08-2.71-.13-3.89h-.07Z"/>
              <path class="cls-2" d="m283.25,226.7h.25c-1.1-5.47-1.99-7.54-3.56-8.74,1.42,3.36,2.56,6.35,3.31,8.74Z"/>
            </g>
            <path class="cls-15" d="m336.02,153.57c3.48-.43,1.14-3.72,4.63-4.19,2.63-.36,3.72-1.03,5.35-2.45,2.31-2.02-1.62-3.01-1.88-5.85,1.75-.07,2.67.08,3.03-1.32.21-.8-3.84-6.41-4.73-7.81,1.99-3.84,2.79-3.67.48-10.11-1.09-3.05-5.57-3.48-7.24-6,.29-.95,2.69-5.19.64-8.32,0,0-1.6-2.22-3.58-4.42-.12-.33-.23-.66-.35-1-2.98-8.99-1.9,1.59-10.96-5.44-9.05-7.03,2.47-2.52-7.83-8.06-10.3-5.54-17.13-7.16-20.44-3.19-3.31,3.97-8.42-2.04-11.7.18-3.28,2.22.17,2.99-2.61,5.46-1.84,1.63-2.85,4.01-3.73,6.58-.29.84-.67,1.64-1,2.51-3.11,6.85-17.75-2.7-16.71,7.5.74,7.21,17.63,12.41,21.77,18.66,5.38,8.11-19.62,12.21-13.53,20.14,2.65,3.44,26.02-7.4,30.11-5.97,3.97,1.39,7.8,3.67,11.45,4.93,2.05.7,3.98.46,6.05,1.13,2.6.84,4.88,2.64,7.51,3.41,2.01.59,13.95,3.79,15.26,3.63Z"/>
            <path class="cls-15" d="m245.27,102.89c.85-3.81-4.37-2.7-3.57-6.54.6-2.89.17-4.3-1.02-6.58-1.69-3.23-4.58.47-8.38-.41.62-1.86,1.18-2.75-.48-3.7-.96-.55-9.9,1.4-12.09,1.77-4.19-3.63-3.65-4.4-12.98-4.6-4.41-.09-6.8,4.39-10.76,5.11-1.12-.68-5.67-4.91-10.58-4.05,0,0-3.54.77-7.21,1.94-.47,0-.95-.02-1.44-.04-12.91-.54,1.3,2.63-11.53,9.23-12.83,6.59-2.27-3.6-13.68,4.9-11.4,8.49-16.28,14.96-12.46,20.03,3.82,5.07-6.08,7.96-4.52,12.28,1.56,4.32,3.96,1.04,6.06,4.95,1.38,2.58,4.06,4.6,7.05,6.56.98.65,1.86,1.37,2.84,2.05,1.64,1.15-5,21.51-1.98,21.89,3.48.43,24.59,3.1,29.02,2.3,13.19-2.39,21.93,6.57,33.11-3.37,12.24-10.92,5.2-30.7,16.19-42.8,2.15-2.37,5.41-4.02,7.49-6.46,1.58-1.86,10.6-13.02,10.92-14.45Z"/>
            <g>
              <g>
                <path class="cls-26" d="m399.99,156.98c-.03-1.23-.45-4.9-2.64-6.3-1.78-1.14-3.79-2.17-5.57-3.11-2.15-1.13-4.45-3.14-6.59-3.07-2.38.07-4.17,2.23-5.5,4.7-1.54,2.88-6.05,4.27-4.98,8.85.39,1.68.82,3.11,1.93,4.01,1.19.96,2.48,1.17,3.69,1.82,2.45,1.3,4.92,2.45,7.37,3.88,1.12.66,1.73,1.3,2.66.69,1.73-1.13,3.2-3.98,4.68-5.68,0,0,4.99-4.41,4.96-5.79Z"/>
                <g class="cls-33">
                  <path class="cls-24" d="m384.34,143.59l-10.15,11.94,1.24,5.71c2.13,1.14,4.27,2.28,6.41,3.41,2.23,1.18,6.76,6.91,8.9,6.77-3.09-9.47-4.59-19.67-6.4-27.84"/>
                </g>
              </g>
              <path class="cls-19" d="m398.76,152.16c.53,1.17-5.82,5.94-6.4,6.61-1.14,1.34-1.81,3.84-3.43,4.26-1.11.29-2.2-.9-3.35-1.5-2.2-1.15-4.41-2.26-6.61-3.42-1.51-.8-2.85-1.88-4.39-2.28.94-2.41,3.23-4.49,4.68-6.23,1.14-1.37,2.32-2.66,3.44-4.05,2.32-2.88,6.23.5,9.22,2.09,2.09,1.11,5.07,1.4,6.84,4.53Z"/>
            </g>
            <g>
              <g>
                <path class="cls-26" d="m323.68,208.73c-.56-1.12-2.56-4.35-5.19-4.86-2.13-.42-4.43-.67-6.49-.9-2.47-.28-5.47-1.32-7.41-.51-2.16.91-2.86,3.52-3,6.26-.15,3.19-3.69,6.05-.7,9.89,1.1,1.41,2.12,2.57,3.54,3.01,1.51.47,2.79.21,4.19.38,2.83.34,5.6.52,8.47.98,1.32.21,2.16.59,2.75-.3,1.09-1.65,1.2-4.79,1.81-6.87,0,0,2.65-5.81,2.02-7.07Z"/>
                <g class="cls-31">
                  <path class="cls-24" d="m303.42,201.92l-4.1,14.55,3.65,4.82c2.46.3,4.93.59,7.39.89,2.57.31,9.25,3.98,11.15,3.1-7-7.62-12.84-16.48-18.09-23.36"/>
                </g>
              </g>
              <path class="cls-19" d="m320.44,204.73c1,.89-2.75,7.5-2.99,8.32-.47,1.63.02,4.17-1.29,5.12-.89.65-2.42-.06-3.74-.2-2.53-.28-5.05-.53-7.58-.82-1.74-.21-3.44-.73-5.04-.55-.19-2.55,1-5.26,1.57-7.38.44-1.66.97-3.26,1.38-4.94.87-3.47,5.95-1.73,9.4-1.32,2.41.29,5.28-.49,8.28,1.76Z"/>
            </g>
            <g>
              <g>
                <path class="cls-26" d="m223.19,135.21c-.03-1.23-.45-4.9-2.64-6.3-1.78-1.14-3.79-2.17-5.57-3.11-2.15-1.13-4.45-3.14-6.59-3.07-2.38.07-4.17,2.23-5.5,4.7-1.54,2.88-6.05,4.27-4.98,8.85.39,1.68.82,3.11,1.93,4.01,1.19.96,2.48,1.17,3.69,1.82,2.45,1.3,4.92,2.45,7.37,3.88,1.12.66,1.73,1.3,2.66.69,1.73-1.13,3.2-3.98,4.68-5.68,0,0,4.99-4.41,4.96-5.79Z"/>
                <g class="cls-32">
                  <path class="cls-24" d="m207.55,121.82l-10.15,11.94,1.24,5.71c2.13,1.14,4.27,2.28,6.41,3.41,2.23,1.18,6.76,6.92,8.9,6.77-3.09-9.47-4.58-19.67-6.4-27.84"/>
                </g>
              </g>
              <path class="cls-19" d="m221.97,130.39c.53,1.17-5.82,5.94-6.4,6.61-1.14,1.34-1.81,3.84-3.43,4.26-1.11.29-2.2-.9-3.35-1.5-2.2-1.15-4.41-2.26-6.61-3.42-1.51-.8-2.85-1.88-4.39-2.28.94-2.41,3.23-4.49,4.68-6.23,1.14-1.37,2.32-2.66,3.44-4.05,2.32-2.88,6.23.5,9.22,2.09,2.08,1.11,5.07,1.4,6.84,4.53Z"/>
            </g>
            <g>
              <g>
                <path class="cls-26" d="m269.65,75.02c.95-.89,3.52-3.77,3.06-6.14-.38-1.93-1-3.93-1.53-5.71-.65-2.15-.71-5.03-2.29-6.33-1.76-1.45-4.72-1.03-7.6-.11-3.36,1.09-7.65-.76-10.49,3.17-1.04,1.44-1.85,2.73-1.77,4.07.09,1.43.84,2.39,1.2,3.61.72,2.47,1.59,4.84,2.21,7.39.28,1.17.22,2.01,1.35,2.16,2.12.28,5.4-.82,7.79-1.11,0,0,7.01,0,8.07-1.01Z"/>
                <g class="cls-34">
                  <path class="cls-24" d="m269,55.66l-16.59,2.13-3.6,4.85c.63,2.15,1.26,4.31,1.89,6.46.66,2.24-.61,9.17,1.03,10.42,5.22-8.69,12.15-16.89,17.27-23.85"/>
                </g>
              </g>
              <path class="cls-19" d="m272.55,70.82c-.54,1.17-8.8.57-9.73.69-1.86.23-4.3,1.6-5.78.88-1.02-.49-.86-2.03-1.21-3.17-.67-2.2-1.37-4.38-2.03-6.59-.45-1.52-.56-3.13-1.34-4.38,2.56-1.13,5.82-1.17,8.22-1.5,1.88-.26,3.73-.44,5.63-.73,3.91-.6,4.05,4.27,4.93,7.28.61,2.1,2.51,4.18,1.32,7.52Z"/>
            </g>
            <g>
              <g>
                <path class="cls-26" d="m131.08,172.86c.95-.89,3.52-3.77,3.06-6.14-.38-1.93-1-3.93-1.53-5.71-.65-2.15-.71-5.03-2.29-6.33-1.76-1.44-4.72-1.03-7.6-.11-3.36,1.09-7.65-.76-10.49,3.17-1.04,1.44-1.85,2.73-1.77,4.07.09,1.43.84,2.39,1.2,3.61.72,2.47,1.59,4.84,2.21,7.39.28,1.17.22,2.01,1.35,2.16,2.12.28,5.4-.82,7.79-1.11,0,0,7.01,0,8.07-1.01Z"/>
                <g class="cls-38">
                  <path class="cls-24" d="m130.44,153.49l-16.59,2.13-3.6,4.85c.63,2.15,1.26,4.31,1.89,6.46.66,2.24-.6,9.17,1.03,10.42,5.22-8.69,12.15-16.89,17.27-23.85"/>
                </g>
              </g>
              <path class="cls-19" d="m133.99,168.65c-.54,1.16-8.8.57-9.73.69-1.86.23-4.3,1.6-5.78.88-1.02-.49-.86-2.02-1.21-3.17-.67-2.2-1.37-4.38-2.03-6.59-.45-1.52-.56-3.13-1.34-4.38,2.56-1.13,5.82-1.17,8.22-1.5,1.88-.26,3.73-.44,5.63-.73,3.91-.6,4.05,4.27,4.93,7.28.61,2.1,2.51,4.18,1.32,7.52Z"/>
            </g>
            <g>
              <g>
                <path class="cls-26" d="m304.03,150.69c.95-.89,3.52-3.77,3.06-6.14-.38-1.93-1-3.93-1.53-5.71-.65-2.15-.71-5.03-2.29-6.33-1.76-1.44-4.72-1.03-7.6-.11-3.36,1.09-7.65-.76-10.49,3.17-1.04,1.44-1.85,2.73-1.77,4.07.09,1.43.84,2.39,1.2,3.61.72,2.47,1.59,4.84,2.21,7.39.28,1.17.22,2.01,1.35,2.16,2.12.28,5.4-.82,7.79-1.11,0,0,7.01,0,8.07-1.01Z"/>
                <g class="cls-39">
                  <path class="cls-24" d="m303.39,131.33l-16.59,2.13-3.6,4.85c.63,2.15,1.26,4.31,1.89,6.46.66,2.24-.6,9.17,1.03,10.42,5.22-8.69,12.15-16.89,17.27-23.85"/>
                </g>
              </g>
              <path class="cls-19" d="m306.94,146.49c-.54,1.16-8.8.57-9.73.69-1.86.23-4.3,1.6-5.78.88-1.02-.49-.86-2.02-1.21-3.17-.67-2.2-1.37-4.38-2.03-6.59-.45-1.52-.56-3.13-1.34-4.38,2.56-1.13,5.82-1.17,8.22-1.5,1.88-.26,3.73-.44,5.63-.73,3.91-.6,4.05,4.27,4.93,7.28.61,2.1,2.51,4.18,1.32,7.52Z"/>
            </g>
            <g>
              <path class="cls-16" d="m287.13,183.38c-2.21,2.77-5.31,6.33-9.28,4.35-3.98-1.98-8.84-9.1-9.28-14.64-.44-5.54,9.28-15.24,18.12-15.43,18.12-.39,25.37,6.7,29.78,18.39,3.45,9.14,3.21,19.08-2.75,27.35-10.15,14.1-42.52,12.74-50.9-1.43-2.57-4.35-4.51-15.09-.44-19.39,4.86-5.14,6.63,7.12,13.7,7.91,7.07.79,11.05-7.12,11.05-7.12Z"/>
              <path class="cls-22" d="m289.78,180.61c1.33-3.96,7.51-6.73,4.86-14.25-.96-2.72-8.4-4.75-8.4-5.93s12.37-.79,16.8,1.98c4.42,2.77,9.72,7.92,12.38,15.83,2.65,7.91-.88,25.32-9.28,29.28-8.4,3.96-23.99,5.24-31.38,1.58-6.8-3.36-18.51-12.91-8.07-18.25,3.09-1.58,6.63-2.38,3.97.4-2.72,2.84-5.45,3.35-4.3,7.17.92,3.04,6.35,5.9,9.72,6.73,4.86,1.19,7.51-6.73,6.63-10.29-.88-3.56,0-6.72,1.77-4.75,2.82,3.17,3.46,9.31,4.59,13.13,1.79,6.11,12.39,6.44,16.31,1.36,2.83-3.67-1.32-11.38-4.63-14.01-3.62-2.87-9.15-2.18-12.87-4.73,3.95-2.86,9.93.04,13.48,2.08,1.79,1.03,8.56,7.7,9.2,4.55.88-4.35-1.77-15.43-3.98-18.2-2.21-2.77-3.09-5.14-4.86-2.77-1.77,2.37-11.94,9.1-11.94,9.1Z"/>
            </g>
            <g>
              <path class="cls-16" d="m160.68,110.52c-3.56.42-8.25,1.17-8.2,5.24.05,4.07,4.47,11.29,9.42,14.27,4.94,2.98,18.3-.07,22.44-6.94,8.49-14.09,5.16-23.17-3.7-32.2-6.93-7.06-16.25-11.59-26.6-10.83-17.62,1.3-30.88,27.44-21.5,40.77,2.88,4.09,11.97,10.72,17.78,9.56,6.95-1.38-3.63-8.61-1.2-14.55,2.44-5.95,11.56-5.32,11.56-5.32Z"/>
              <path class="cls-22" d="m164.44,109.75c4.26.84,9.61-2.72,15.39,2.94,2.09,2.05.64,8.87,1.74,9.43,1.1.56,6.28-9.37,5.7-14.17-.59-4.8-2.98-11.42-9.13-17.27-6.15-5.85-23.88-11.34-31.32-6.6-7.43,4.73-15.61,16.4-15.54,23.97.06,6.95,3.68,20.71,13.3,15.03,2.86-1.68,5.18-4.09,1.41-3.32-3.86.79-5.55,2.7-8.57-.02-2.4-2.17-2.63-7.81-1.88-10.86,1.08-4.39,9.61-2.72,12.51-.33,2.9,2.39,6.23,3.19,5.2.86-1.67-3.73-7.08-7.16-10.12-9.85-4.86-4.31-.42-12.82,6.06-13.5,4.68-.49,9.97,6.45,10.92,10.3,1.04,4.21-2.08,8.24-1.39,12.38,4.43-1.75,4.42-7.84,4.12-11.6-.15-1.9-3.3-10.4-.1-9.41,4.43,1.37,13.52,8.73,15.1,11.79,1.58,3.06,3.38,4.88.39,5.14-2.99.26-13.79,5.08-13.79,5.08Z"/>
            </g>
            <g>
              <path class="cls-16" d="m298.17,89.89c.72,3.34,1.85,7.72,6.13,7.36,4.27-.36,11.52-5.09,14.27-9.99,2.76-4.9-1.46-17.3-8.99-20.7-15.44-6.97-24.72-3.13-33.53,5.94-6.89,7.09-10.94,16.26-9.36,25.99,2.7,16.58,31.15,27.14,44.44,17.25,4.08-3.03,10.35-12.14,8.69-17.55-1.98-6.47-8.77,4.09-15.19,2.23-6.43-1.86-6.46-10.53-6.46-10.53Z"/>
              <path class="cls-22" d="m297.08,86.4c.55-4.1-3.59-8.88,1.92-14.78,1.99-2.14,9.27-1.28,9.78-2.36.51-1.08-10.32-5.23-15.31-4.32-5,.92-11.77,3.69-17.45,9.95-5.68,6.26-10.1,23.45-4.56,30.13,5.53,6.67,18.41,13.53,26.35,12.88,7.3-.59,21.47-5.05,14.78-13.73-1.98-2.57-4.69-4.59-3.59-1.08,1.13,3.59,3.26,5.05.63,8.11-2.09,2.44-8,3.08-11.26,2.6-4.7-.69-3.59-8.88-1.3-11.81,2.29-2.93,2.88-6.14.51-4.98-3.79,1.86-6.98,7.24-9.58,10.32-4.16,4.93-13.43,1.37-14.63-4.71-.87-4.39,6.02-9.92,9.99-11.11,4.34-1.3,8.82,1.34,13.11.37-2.17-4.05-8.57-3.58-12.5-3.01-1.98.28-10.67,3.91-9.87.81,1.11-4.3,8.14-13.45,11.23-15.18,3.09-1.72,4.87-3.57,5.37-.76.5,2.81,6.37,12.66,6.37,12.66Z"/>
            </g>
            <path class="cls-17" d="m147.18,140.53c2.86,16.32-5.17,19.42,12.4,30.78,17.57,11.36,22.45,9.61,34.16,8.74,11.71-.87,36.5-15.17,52.9,1.59,16.4,16.76,31.89,13.79,35.8,5.93,3.9-7.86-3.51-8.5-17.31-11.5-13.8-3.01-22.58-13.49-42.11-11.74-19.52,1.75-46.85,15.73-49.78-4.37-2.93-20.1-6.78-44.16-12.97-45.22-6.19-1.06-15.74,10.75-13.1,25.8Z"/>
            <path class="cls-17" d="m307.07,164.77c10.4,4.14,10.77.05,20.51-6.96,9.74-7.02,19.4,4.15,23.36-8.86,3.96-13.01,2.19-24.52-11.57-34.93-13.76-10.41-23.5-17.73-22.53-11.01.97,6.72,14.63,18.95,18.54,31.19,3.9,12.23-45.88,23.59-28.31,30.58Z"/>
            <path class="cls-17" d="m182.96,104.67c5.6,5.83,15.98-4.11,20.52-8.86s19.19-6.5,28.95-6.5,31.08,2.25,29.28-5.24c-1.79-7.49-39.04-13.11-53.68-4.37-14.64,8.74-35.49,14.11-25.06,24.97Z"/>
            <g>
              <g>
                <path class="cls-11" d="m238.41,92.29c.8,2.16,3.35,5.94,4.9,6.21l1.55.28h0l1.06-3.28-4.22-1.33-3.29-1.89Z"/>
                <path class="cls-11" d="m232.58,96.76s1.98,3.39.74,5.33-1.3,5.11-1.3,5.11l4.34-1.39s-.13-8.11-3.79-9.05Z"/>
                <path class="cls-11" d="m304,159.69c-2-1.42-6.43-3.33-7.9-2.8l-1.47.53h0l1.12,3.26,4.34-.95,3.91-.03Z"/>
                <path class="cls-11" d="m259.98,99.83c-2.28-1.03-7.05-2.1-8.37-1.32l-1.32.78h0l1.83,2.99,4.05-1.71,3.82-.74Z"/>
                <path class="cls-11" d="m254.37,102.36c.8,2.16,3.35,5.94,4.9,6.22l1.55.28h0l1.05-3.28-4.22-1.33-3.29-1.89Z"/>
                <path class="cls-11" d="m186.26,140.46s-1.02,2.19-1.83,3.46c-.82,1.28,1.47,3.39,1.47,3.39l2.85-.91s-.08-5.32-2.48-5.94Z"/>
                <path class="cls-11" d="m239.21,100.51c-1.24,1.94-1.3,5.11-1.3,5.11l4.34-1.39s-1.8-5.66-3.04-3.72Z"/>
                <path class="cls-11" d="m231.81,99.54c-2-1.42-6.44-3.33-7.9-2.8l-1.47.53h0l1.12,3.26,4.35-.95,3.9-.03Z"/>
                <path class="cls-11" d="m160.11,127.66s-2.42-.22-4.09-.87c-1.67-.66-4.41,1.3-4.41,1.3l1.46,2.71s6.56-.7,7.04-3.15Z"/>
                <path class="cls-11" d="m310.48,126.59s-1.02,2.19-1.83,3.46c-.82,1.28,1.47,3.39,1.47,3.39l2.85-.91s-.08-5.32-2.48-5.94Z"/>
                <path class="cls-11" d="m267.56,176.66s-2.42-.22-4.09-.87c-1.67-.66-4.41,1.3-4.41,1.3l1.46,2.71s6.56-.7,7.04-3.15Z"/>
                <path class="cls-11" d="m251.79,106.29c-.15-2.24-2.04-4.91-2.04-4.91l-2.78,3.29s4.97,3.86,4.82,1.62Z"/>
                <path class="cls-11" d="m235.76,112.33s-2.99.77-4.36-.31c-1.37-1.08-3.88-1.59-3.88-1.59l.46,2.98s6.49,1.11,7.78-1.09Z"/>
                <path class="cls-11" d="m224.79,109.89c-.91,1.42-.95,3.72-.95,3.72l3.17-1.01s-1.31-4.13-2.22-2.71Z"/>
                <path class="cls-11" d="m217.59,111.78c1.43-1.07,3.6-3.63,3.4-4.64l-.21-1.02h0l-2.76.23.12,2.92-.55,2.5Z"/>
                <path class="cls-11" d="m265.85,116.6c-.11-1.63-1.48-3.58-1.48-3.58l-2.03,2.4s3.62,2.81,3.51,1.18Z"/>
                <path class="cls-11" d="m209.56,111.56c-.12-1.63-1.48-3.58-1.48-3.58l-2.03,2.4s3.62,2.82,3.52,1.19Z"/>
                <path class="cls-11" d="m262.25,102.5c-.12-1.63-1.48-3.58-1.48-3.58l-2.04,2.4s3.63,2.81,3.52,1.19Z"/>
                <path class="cls-11" d="m204.51,159.01c-.11-1.63-1.48-3.58-1.48-3.58l-2.04,2.4s3.63,2.81,3.52,1.19Z"/>
                <path class="cls-11" d="m195.91,114.11c-1.66-.75-5.15-1.53-6.11-.96l-.96.57h0l1.34,2.18,2.94-1.25,2.78-.54Z"/>
                <path class="cls-11" d="m345.06,121.23c-1.37-1.07-3.89-1.58-3.89-1.58l.47,2.98s4.78-.32,3.42-1.4Z"/>
                <path class="cls-11" d="m276.22,128c-1.37-1.07-3.89-1.58-3.89-1.58l.47,2.98s4.78-.32,3.42-1.4Z"/>
                <path class="cls-11" d="m253.12,137.99c-1.46-1.03-4.69-2.43-5.76-2.04l-1.07.39h0l.82,2.37,3.17-.69,2.85-.02Z"/>
                <path class="cls-11" d="m209.4,116.79c1.81.23,4.22-.58,4.22-.58l-2.21-2.27s-3.81,2.61-2.01,2.84Z"/>
                <path class="cls-11" d="m207.33,99.58c1.8.23,4.22-.57,4.22-.57l-2.21-2.27s-3.81,2.61-2,2.84Z"/>
              </g>
              <g>
                <path class="cls-11" d="m249.89,131.05c.8,2.16,3.35,5.94,4.9,6.21l1.55.28h0l1.05-3.28-4.22-1.33-3.29-1.89Z"/>
                <path class="cls-11" d="m217.14,103.67s1.99,3.39.75,5.33c-1.24,1.94-1.31,5.11-1.31,5.11l4.34-1.39s-.13-8.11-3.78-9.05Z"/>
                <path class="cls-11" d="m265.02,115.63c-2-1.42-6.43-3.33-7.9-2.8l-1.47.53h0l1.12,3.26,4.34-.95,3.91-.03Z"/>
                <path class="cls-11" d="m225.3,147.85c-2.28-1.03-7.05-2.1-8.37-1.32l-1.32.78h0l1.83,2.99,4.04-1.71,3.82-.74Z"/>
                <path class="cls-11" d="m238.93,109.27c.8,2.16,3.35,5.94,4.9,6.22l1.55.28h0l1.05-3.28-4.22-1.33-3.29-1.89Z"/>
                <path class="cls-11" d="m236.13,135.39s-1.02,2.19-1.83,3.46c-.82,1.27,1.46,3.39,1.46,3.39l2.85-.91s-.08-5.32-2.48-5.94Z"/>
                <path class="cls-11" d="m256.95,127.68s-1.02,2.19-1.83,3.46c-.81,1.27,1.46,3.39,1.46,3.39l2.85-.91s-.08-5.32-2.48-5.94Z"/>
                <path class="cls-11" d="m223.77,107.42c-1.24,1.94-1.3,5.11-1.3,5.11l4.34-1.39s-1.8-5.66-3.04-3.72Z"/>
                <path class="cls-11" d="m216.36,106.45c-2-1.42-6.44-3.33-7.9-2.8l-1.47.53h0l1.12,3.26,4.35-.95,3.9-.03Z"/>
                <path class="cls-11" d="m235.34,152.09s-2.42-.22-4.09-.87c-1.67-.66-4.4,1.3-4.4,1.3l1.45,2.71s6.56-.7,7.04-3.15Z"/>
                <path class="cls-11" d="m249.27,134.75c-.15-2.24-2.04-4.91-2.04-4.91l-2.78,3.29s4.97,3.86,4.82,1.62Z"/>
                <path class="cls-11" d="m220.31,119.25s-2.99.77-4.36-.31c-1.37-1.08-3.88-1.58-3.88-1.58l.46,2.98s6.49,1.11,7.78-1.09Z"/>
                <path class="cls-11" d="m209.34,116.8c-.9,1.42-.95,3.72-.95,3.72l3.17-1.01s-1.31-4.13-2.21-2.71Z"/>
                <path class="cls-11" d="m202.14,118.7c1.43-1.07,3.6-3.63,3.4-4.64l-.21-1.02h0l-2.76.24.12,2.92-.55,2.5Z"/>
                <path class="cls-11" d="m250.4,123.52c-.11-1.63-1.48-3.58-1.48-3.58l-2.03,2.4s3.62,2.81,3.51,1.18Z"/>
                <path class="cls-11" d="m194.11,118.47c-.12-1.63-1.48-3.58-1.48-3.58l-2.03,2.4s3.62,2.82,3.52,1.19Z"/>
                <path class="cls-11" d="m246.81,109.41c-.12-1.63-1.48-3.58-1.48-3.58l-2.03,2.4s3.62,2.81,3.52,1.19Z"/>
                <path class="cls-11" d="m265,119.45c-.12-1.63-1.48-3.58-1.48-3.58l-2.03,2.4s3.62,2.81,3.52,1.19Z"/>
                <path class="cls-11" d="m352.2,128.89c-1.66-.75-5.15-1.53-6.11-.96l-.96.57h0l1.34,2.18,2.95-1.25,2.78-.54Z"/>
                <path class="cls-11" d="m169.12,152.7c-1.37-1.07-3.88-1.58-3.88-1.58l.46,2.98s4.79-.32,3.42-1.4Z"/>
                <path class="cls-11" d="m166.7,157.19c-1.37-1.07-3.88-1.58-3.88-1.58l.46,2.98s4.79-.32,3.42-1.4Z"/>
                <path class="cls-11" d="m197.26,97.73c-1.46-1.03-4.69-2.43-5.76-2.04l-1.07.39h0l.82,2.37,3.17-.69,2.85-.02Z"/>
                <path class="cls-11" d="m193.96,123.7c1.81.23,4.22-.58,4.22-.58l-2.21-2.27s-3.81,2.61-2.01,2.84Z"/>
                <path class="cls-11" d="m191.89,106.5c1.8.23,4.22-.57,4.22-.57l-2.21-2.27s-3.81,2.61-2,2.84Z"/>
              </g>
              <g>
                <path class="cls-11" d="m254.94,121.64c-.12-1.66-1.13-4.75-2.16-5.2l-1.04-.46h0l-1.42,2.14,2.7,1.64,1.93,1.88Z"/>
                <path class="cls-11" d="m275.8,150.92s-1.98-1.64-2.97-3.23c-.98-1.59-4.88-1.49-4.88-1.49l-.75,3.28s6.33,3.32,8.6,1.44Z"/>
                <path class="cls-11" d="m234.77,117.77c-.99-1.58-3.41-2.95-3.41-2.95l-.74,3.27s5.14,1.26,4.16-.32Z"/>
                <path class="cls-11" d="m247.28,120.12c-1.86-.03-5.38.61-5.97,1.5l-.59.89h0l2.26,1.45,2.05-2.27,2.25-1.56Z"/>
                <path class="cls-11" d="m228.76,121.72s-1.67.55-2.99.58c-1.33.04-2.44,2.1-2.44,2.1l1.91,1.37s4.06-2.31,3.52-4.06Z"/>
                <path class="cls-11" d="m252.82,147.17c-1.27.72-3.32,2.56-3.28,3.4l.05.83h0l2.25.08.25-2.35.74-1.96Z"/>
                <path class="cls-11" d="m168.67,146.56s-1.3-1.08-1.95-2.12c-.64-1.04-3.2-.98-3.2-.98l-.49,2.15s4.16,2.18,5.64.95Z"/>
                <path class="cls-11" d="m231.58,125.93c-.65-1.04-2.24-1.93-2.24-1.93l-.49,2.15s3.37.82,2.73-.21Z"/>
                <path class="cls-11" d="m248.62,109.33c-.72-1.16-2.49-2.15-2.49-2.15l-.54,2.39s3.75.92,3.03-.24Z"/>
                <path class="cls-11" d="m225.99,128.34c-.72-1.15-2.49-2.15-2.49-2.15l-.55,2.39s3.75.92,3.03-.24Z"/>
                <path class="cls-11" d="m323.95,151.05s-1.67.55-2.99.58c-1.33.04-2.44,2.1-2.44,2.1l1.91,1.37s4.06-2.31,3.52-4.06Z"/>
                <path class="cls-11" d="m189.37,169.89c-.65-1.04-2.24-1.93-2.24-1.93l-.49,2.15s3.37.82,2.73-.21Z"/>
                <path class="cls-11" d="m183.77,172.3c-.72-1.15-2.49-2.15-2.49-2.15l-.55,2.39s3.75.92,3.03-.24Z"/>
                <path class="cls-11" d="m251.09,175.24c-.72-1.15-2.49-2.15-2.49-2.15l-.55,2.39s3.75.92,3.03-.24Z"/>
                <path class="cls-11" d="m344.96,127.83c-.72-1.15-2.49-2.15-2.49-2.15l-.55,2.39s3.75.92,3.03-.24Z"/>
                <path class="cls-11" d="m196.41,86.47s.08,1.39.02,2.26c-.07.86,1.75,1.47,1.75,1.47l1.25-1.14s-1.56-2.81-3.02-2.59Z"/>
                <path class="cls-11" d="m238.54,121.69c-1.42-.36-3.46.06-3.46.06l1.51,2.03s3.37-1.73,1.95-2.09Z"/>
                <path class="cls-11" d="m234.43,125.15c-1.42-.36-3.46.06-3.46.06l1.51,2.03s3.37-1.73,1.95-2.09Z"/>
                <path class="cls-11" d="m217.63,82.68s-1.67.55-2.99.58c-1.33.04-2.44,2.1-2.44,2.1l1.91,1.37s4.06-2.31,3.52-4.06Z"/>
                <path class="cls-11" d="m245.56,82.88c-.65-1.04-2.24-1.93-2.24-1.93l-.49,2.15s3.37.82,2.73-.21Z"/>
                <path class="cls-11" d="m239.96,85.29c-.72-1.15-2.49-2.15-2.49-2.15l-.55,2.39s3.75.92,3.03-.24Z"/>
                <path class="cls-11" d="m223.31,86.11c-1.42-.36-3.46.06-3.46.06l1.51,2.03s3.37-1.73,1.95-2.09Z"/>
                <path class="cls-11" d="m182.78,89.79c-1.42-.36-3.46.06-3.46.06l1.51,2.03s3.37-1.73,1.95-2.09Z"/>
                <path class="cls-11" d="m306.25,99.41c-1.33-1.67-4.64-4.32-6.05-4.19l-1.42.13h0l.06,3.06,4.02.15,3.39.85Z"/>
                <path class="cls-11" d="m240.9,131.2s-.21-1.27-.02-2.22c.18-.95-1.47-2.07-1.47-2.07l-1.53,1.13s1.38,3.26,3.02,3.17Z"/>
              </g>
            </g>
            <g>
              <path class="cls-12" d="m131.99,188.66s6.19,4.27,11.86,11.47c5.67,7.2,9.47,14.24,9.47,14.24l21.88-5.54s2.97-25.91,6.98-32.86c0,0-25.41-8.77-37.72-1.09-12.3,7.68-12.48,13.77-12.48,13.77Z"/>
              <g>
                <path class="cls-8" d="m137.28,164.08c1.53-.15,2.92,1.01,3.9,1.9-3.23-2.93-1.1-5.77,2.36-2.44-2.08-1.99,2.85-1.65,3.81-1.34,3.65,1.2,5.06,5.97-.44,6.46-1.13.1-3.2,2.35-4.34,2.36-2.69.03-4.77,1.64-7-.68-.97-1.01-.4-4.96.6-5.79.34-.28.72-.43,1.12-.47Z"/>
                <path class="cls-23" d="m155.83,164.78c-.1.04-2.35-3.03-2.96-3.13-1.83-.28-3.78,3.11-3.42,4.44-.9-3.35-6.92-.29-4.12,2.64l1.1,1.15s-.85.65,1.89,1.2c2.75.55,4.94-1.8,4.94-1.8l4.39-.05s1-2.7,1.04-2.79c.91-2.32-.71-2.53-2.86-1.66Z"/>
                <path class="cls-10" d="m150.89,165.66c-1.97-.93-4.61-1.2-5.68-.07-.73.77-1.66,1.89-1.36,2.97-.97-3.48-6.86-.23-4.12,2.63l1.1,1.15s-.85.65,1.89,1.2c2.74.55,4.94-1.8,4.94-1.8,0,0,4.31-.05,4.39-.05.46-.02,1.24-3.08,1.24-3.46-.01-.99-1.05-1.93-2.4-2.56Z"/>
                <path class="cls-23" d="m131.58,175.11c.04-.07.06-.13.06-.16.16-1.2-1.52-2.1-.83-3.36.58-1.05,5.31-2.19,5.65-.58-.22-1.03-.49-2.09-.55-3.11-.05-.93,4.02-.1,4.44.21.73.55.95,1.56,1.25,2.3,0,0,1.06-.34.24,2.06-.81,2.41-4.17,2.97-4.18,2.97-.74.12-1.44,2.66-2.04,3.15-.99.79-3.06,1.01-4.18.31-2.08-1.3-.64-2.29.14-3.79Z"/>
                <path class="cls-9" d="m147.06,170.19c1.2-.2,1.97,1.99,2.84,2.92-2.51-2.69.27-5.88,2.77-1.25-2.14-1.45,1.8-3.95,2.67-3.58,3.14,1.35,4.6,6.09-.02,6.33-.95.05-2.57,2.17-3.53,2.13-2.27-.09-3.93,1.4-5.95-.98-1.96-2.32-.86-5.23,1.2-5.57Z"/>
                <path class="cls-8" d="m137.24,172.92c1.21-.06,2.4,1.16,3.25,2.08-2.79-3.05-1.3-5.71,1.71-2.25-1.8-2.07,2.16-1.45,2.94-1.09,3,1.39,4.46,6.13.11,6.3-.9.04-2.38,2.12-3.29,2.06-2.15-.12-3.69,1.33-5.64-1.07-.85-1.05-.68-4.88.06-5.64.25-.26.55-.38.86-.4Z"/>
              </g>
              <g>
                <path class="cls-8" d="m126.22,177.45c1.53-.15,2.92,1.01,3.9,1.9-3.23-2.92-1.11-5.77,2.36-2.44-2.08-1.99,2.85-1.65,3.81-1.34,3.65,1.21,5.06,5.97-.44,6.46-1.13.1-3.19,2.35-4.34,2.36-2.69.03-4.77,1.64-7-.68-.97-1.01-.4-4.96.6-5.79.34-.29.72-.43,1.12-.47Z"/>
                <path class="cls-23" d="m144.77,178.14c-.1.04-2.35-3.03-2.97-3.13-1.83-.28-3.77,3.11-3.42,4.44-.9-3.36-6.92-.29-4.12,2.64l1.1,1.15s-.86.65,1.89,1.2c2.75.55,4.94-1.8,4.94-1.8l4.39-.05s1.01-2.7,1.04-2.79c.91-2.32-.71-2.53-2.86-1.66Z"/>
                <path class="cls-10" d="m139.83,179.03c-1.97-.93-4.61-1.21-5.68-.07-.73.77-1.66,1.89-1.36,2.96-.97-3.48-6.86-.22-4.12,2.64l1.1,1.15s-.86.65,1.89,1.2c2.74.55,4.94-1.8,4.94-1.8,0,0,4.31-.05,4.39-.05.46-.02,1.24-3.09,1.24-3.46-.01-.99-1.05-1.93-2.4-2.56Z"/>
                <path class="cls-23" d="m120.51,188.47c.04-.07.06-.12.06-.16.15-1.2-1.52-2.1-.83-3.36.58-1.05,5.3-2.19,5.65-.58-.22-1.03-.49-2.09-.55-3.11-.05-.93,4.02-.1,4.44.21.72.55.95,1.56,1.25,2.3,0,0,1.06-.34.24,2.06-.81,2.41-4.18,2.97-4.18,2.97-.74.12-1.44,2.67-2.04,3.15-1,.79-3.06,1.01-4.18.31-2.08-1.3-.64-2.29.14-3.79Z"/>
                <path class="cls-9" d="m136,183.55c1.2-.2,1.97,1.99,2.84,2.92-2.51-2.69.27-5.88,2.77-1.25-2.14-1.45,1.8-3.95,2.67-3.58,3.14,1.35,4.6,6.09-.02,6.34-.95.05-2.57,2.17-3.53,2.13-2.27-.09-3.93,1.4-5.95-.98-1.96-2.32-.86-5.23,1.2-5.57Z"/>
                <path class="cls-8" d="m126.18,186.28c1.21-.07,2.4,1.16,3.25,2.08-2.79-3.05-1.3-5.71,1.71-2.25-1.8-2.08,2.16-1.46,2.94-1.09,3,1.39,4.46,6.14.11,6.3-.9.04-2.38,2.11-3.29,2.06-2.15-.12-3.69,1.33-5.64-1.07-.84-1.05-.68-4.88.06-5.64.25-.26.54-.38.86-.4Z"/>
              </g>
              <g>
                <path class="cls-8" d="m149.57,173.12c1.53-.16,2.92,1.01,3.9,1.9-3.23-2.93-1.11-5.77,2.36-2.43-2.08-2,2.85-1.65,3.81-1.34,3.65,1.2,5.06,5.97-.44,6.46-1.13.1-3.2,2.35-4.34,2.36-2.69.03-4.77,1.64-7-.68-.97-1.01-.41-4.96.6-5.79.34-.28.72-.43,1.12-.47Z"/>
                <path class="cls-23" d="m168.11,173.81c-.1.04-2.35-3.03-2.96-3.13-1.83-.28-3.78,3.11-3.42,4.44-.9-3.35-6.92-.29-4.12,2.64l1.1,1.15s-.85.66,1.89,1.2c2.75.55,4.95-1.8,4.95-1.8l4.39-.05s1-2.7,1.04-2.79c.91-2.33-.71-2.53-2.87-1.66Z"/>
                <path class="cls-10" d="m163.17,174.69c-1.97-.92-4.61-1.2-5.68-.07-.73.77-1.66,1.89-1.36,2.96-.97-3.48-6.86-.23-4.12,2.63l1.1,1.15s-.86.66,1.89,1.2c2.74.55,4.94-1.8,4.94-1.8,0,0,4.31-.05,4.39-.05.46-.01,1.24-3.08,1.24-3.46-.01-.99-1.05-1.93-2.4-2.56Z"/>
                <path class="cls-23" d="m143.86,184.14c.04-.07.06-.12.06-.16.16-1.2-1.52-2.1-.83-3.36.58-1.05,5.31-2.19,5.65-.58-.22-1.03-.49-2.09-.55-3.11-.05-.93,4.02-.1,4.44.21.72.55.95,1.56,1.25,2.3,0,0,1.06-.35.24,2.06-.82,2.41-4.18,2.97-4.18,2.97-.74.12-1.44,2.66-2.04,3.15-1,.79-3.06,1.01-4.18.31-2.08-1.29-.64-2.29.14-3.79Z"/>
                <path class="cls-9" d="m159.35,179.22c1.2-.2,1.97,1.99,2.84,2.92-2.51-2.69.27-5.88,2.78-1.25-2.14-1.45,1.8-3.95,2.67-3.58,3.15,1.35,4.6,6.1-.01,6.34-.95.05-2.57,2.16-3.53,2.12-2.27-.09-3.93,1.4-5.94-.98-1.96-2.32-.86-5.23,1.2-5.57Z"/>
                <path class="cls-8" d="m149.53,181.95c1.21-.06,2.4,1.16,3.25,2.08-2.79-3.05-1.3-5.72,1.71-2.25-1.8-2.07,2.16-1.46,2.94-1.09,3,1.39,4.46,6.13.11,6.3-.9.03-2.39,2.11-3.29,2.06-2.15-.13-3.69,1.33-5.64-1.07-.85-1.05-.68-4.88.06-5.64.25-.26.54-.38.86-.4Z"/>
              </g>
              <g>
                <path class="cls-8" d="m118.88,172.11c1.53-.16,2.92,1.01,3.9,1.9-3.24-2.93-1.11-5.77,2.36-2.44-2.08-2,2.85-1.65,3.81-1.34,3.65,1.2,5.06,5.96-.44,6.46-1.13.1-3.19,2.35-4.34,2.36-2.69.03-4.77,1.64-7-.68-.97-1.01-.4-4.96.6-5.79.34-.28.72-.43,1.12-.47Z"/>
                <path class="cls-23" d="m137.43,172.81c-.1.04-2.35-3.03-2.96-3.13-1.83-.28-3.78,3.11-3.42,4.44-.9-3.35-6.92-.29-4.12,2.64l1.1,1.15s-.86.65,1.89,1.2c2.75.55,4.94-1.8,4.94-1.8l4.39-.05s1.01-2.7,1.04-2.79c.91-2.33-.71-2.53-2.86-1.66Z"/>
                <path class="cls-10" d="m132.48,173.69c-1.97-.93-4.61-1.21-5.68-.07-.73.77-1.66,1.89-1.36,2.96-.96-3.48-6.86-.23-4.12,2.64l1.1,1.15s-.85.65,1.89,1.2c2.75.55,4.94-1.8,4.94-1.8,0,0,4.3-.05,4.39-.05.46-.01,1.25-3.09,1.24-3.46-.01-.99-1.05-1.93-2.4-2.56Z"/>
                <path class="cls-23" d="m113.17,183.13c.04-.07.06-.12.06-.16.16-1.2-1.52-2.1-.83-3.36.58-1.06,5.3-2.19,5.65-.58-.22-1.03-.49-2.09-.55-3.11-.05-.93,4.02-.1,4.44.21.72.55.94,1.56,1.25,2.3,0,0,1.05-.34.24,2.06-.82,2.41-4.18,2.97-4.18,2.97-.74.12-1.44,2.66-2.04,3.15-1,.79-3.06,1.01-4.18.31-2.08-1.3-.64-2.29.14-3.79Z"/>
                <path class="cls-9" d="m128.66,178.22c1.2-.2,1.97,1.99,2.84,2.92-2.51-2.69.27-5.88,2.77-1.25-2.14-1.45,1.8-3.95,2.68-3.58,3.14,1.35,4.6,6.09-.02,6.34-.95.05-2.56,2.17-3.53,2.13-2.27-.09-3.93,1.4-5.95-.98-1.96-2.31-.86-5.23,1.2-5.57Z"/>
                <path class="cls-8" d="m118.84,180.94c1.21-.06,2.4,1.16,3.25,2.08-2.79-3.05-1.3-5.71,1.71-2.25-1.8-2.08,2.16-1.46,2.94-1.09,3,1.39,4.47,6.13.11,6.3-.9.04-2.38,2.12-3.29,2.06-2.15-.12-3.69,1.33-5.64-1.07-.85-1.04-.68-4.88.06-5.64.25-.26.54-.38.86-.4Z"/>
              </g>
              <g>
                <path class="cls-8" d="m168.18,166.42c1.53-.16,2.92,1.01,3.9,1.9-3.24-2.93-1.11-5.77,2.36-2.43-2.08-2,2.85-1.66,3.81-1.34,3.65,1.21,5.06,5.96-.44,6.46-1.13.1-3.2,2.35-4.34,2.36-2.7.03-4.77,1.64-7-.68-.97-1.02-.4-4.97.6-5.79.34-.28.72-.43,1.12-.47Z"/>
                <path class="cls-23" d="m186.73,167.11c-.1.04-2.36-3.03-2.97-3.12-1.83-.28-3.77,3.11-3.42,4.44-.9-3.36-6.92-.29-4.12,2.64l1.1,1.15s-.85.65,1.89,1.2c2.75.55,4.94-1.8,4.94-1.8l4.39-.05s1.01-2.7,1.04-2.78c.91-2.33-.71-2.53-2.86-1.66Z"/>
                <path class="cls-10" d="m181.79,167.99c-1.97-.92-4.61-1.2-5.68-.07-.73.77-1.66,1.89-1.36,2.97-.97-3.49-6.86-.23-4.12,2.63l1.1,1.15s-.85.65,1.89,1.2c2.74.55,4.94-1.8,4.94-1.8,0,0,4.3-.05,4.39-.05.46-.02,1.24-3.09,1.24-3.46-.01-.99-1.05-1.93-2.4-2.56Z"/>
                <path class="cls-23" d="m162.48,177.44c.04-.07.06-.13.06-.16.16-1.2-1.52-2.1-.83-3.36.58-1.06,5.31-2.19,5.65-.58-.23-1.03-.49-2.09-.55-3.12-.05-.93,4.02-.1,4.44.22.72.55.95,1.56,1.25,2.3,0,0,1.06-.34.24,2.07-.82,2.41-4.18,2.97-4.18,2.97-.74.12-1.44,2.66-2.04,3.15-.99.79-3.06,1.01-4.18.31-2.08-1.3-.64-2.29.14-3.79Z"/>
                <path class="cls-9" d="m177.97,172.52c1.2-.2,1.97,1.99,2.84,2.92-2.51-2.69.27-5.88,2.77-1.25-2.14-1.45,1.8-3.95,2.67-3.58,3.14,1.35,4.6,6.09-.02,6.34-.95.05-2.57,2.16-3.53,2.12-2.27-.09-3.93,1.41-5.95-.98-1.96-2.32-.86-5.23,1.2-5.57Z"/>
                <path class="cls-8" d="m168.15,175.25c1.21-.07,2.4,1.16,3.25,2.08-2.79-3.05-1.29-5.71,1.71-2.25-1.8-2.08,2.16-1.46,2.94-1.09,3,1.39,4.47,6.14.11,6.3-.9.04-2.38,2.12-3.29,2.06-2.15-.13-3.69,1.33-5.64-1.07-.85-1.05-.68-4.89.06-5.64.25-.26.54-.38.86-.4Z"/>
              </g>
              <g>
                <path class="cls-8" d="m159.14,159.95c1.53-.16,2.92,1.01,3.9,1.9-3.23-2.93-1.11-5.77,2.36-2.43-2.08-2,2.85-1.65,3.81-1.34,3.65,1.2,5.06,5.96-.44,6.46-1.13.1-3.2,2.35-4.34,2.36-2.69.03-4.77,1.64-7-.68-.97-1.02-.4-4.96.59-5.79.34-.28.72-.43,1.12-.47Z"/>
                <path class="cls-23" d="m177.69,160.64c-.1.04-2.35-3.03-2.97-3.12-1.83-.28-3.77,3.11-3.42,4.44-.9-3.36-6.92-.29-4.12,2.64l1.1,1.15s-.85.66,1.89,1.2c2.75.55,4.94-1.8,4.94-1.8l4.39-.05s1.01-2.7,1.04-2.79c.91-2.33-.71-2.53-2.86-1.66Z"/>
                <path class="cls-10" d="m172.75,161.52c-1.97-.92-4.61-1.21-5.68-.07-.73.77-1.66,1.89-1.36,2.96-.97-3.48-6.86-.23-4.12,2.63l1.1,1.15s-.86.65,1.89,1.2c2.74.55,4.94-1.8,4.94-1.8,0,0,4.3-.05,4.39-.05.46-.02,1.25-3.08,1.24-3.46-.01-.99-1.05-1.93-2.4-2.56Z"/>
                <path class="cls-23" d="m153.43,170.97c.04-.07.06-.12.06-.16.16-1.2-1.52-2.1-.83-3.36.58-1.05,5.31-2.19,5.65-.58-.23-1.03-.49-2.09-.55-3.12-.05-.93,4.02-.1,4.44.21.72.55.95,1.56,1.25,2.3,0,0,1.05-.34.24,2.06-.81,2.41-4.18,2.97-4.18,2.97-.74.12-1.43,2.66-2.04,3.14-1,.79-3.06,1.01-4.18.31-2.08-1.3-.64-2.29.14-3.79Z"/>
                <path class="cls-9" d="m168.92,166.05c1.2-.2,1.97,1.99,2.84,2.92-2.51-2.69.27-5.88,2.77-1.26-2.14-1.45,1.8-3.95,2.67-3.58,3.14,1.35,4.6,6.1-.01,6.34-.95.05-2.57,2.16-3.53,2.13-2.27-.09-3.93,1.4-5.95-.98-1.96-2.32-.86-5.23,1.2-5.57Z"/>
                <path class="cls-8" d="m159.1,168.78c1.21-.07,2.4,1.16,3.25,2.08-2.79-3.05-1.3-5.71,1.71-2.25-1.8-2.08,2.16-1.46,2.95-1.09,3,1.39,4.46,6.13.11,6.3-.9.03-2.38,2.11-3.29,2.06-2.15-.12-3.69,1.33-5.64-1.07-.84-1.05-.68-4.89.06-5.64.25-.26.55-.38.86-.39Z"/>
              </g>
            </g>
            <g>
              <path class="cls-12" d="m349.68,192.32s7.09-2.95,16.84-4.13c9.76-1.19,18.49-.96,18.49-.96l4.59-19.94s-24.32-14.3-29.35-20.69c0,0-20.41,16.15-18.46,29.46,1.94,13.32,7.9,16.26,7.9,16.26Z"/>
              <g>
                <path class="cls-8" d="m327.76,176.79c.55-1.29,2.35-1.85,3.68-2.22-4.39,1.22-6.23-1.78-1.33-3-2.93.73-.32-3.03.43-3.64,2.87-2.34,8.24-1.27,6.2,3.33-.42.95.85,3.62.34,4.53-1.21,2.15-.57,4.54-3.9,5.25-1.45.3-5.1-1.97-5.47-3.14-.12-.4-.09-.77.05-1.1Z"/>
                <path class="cls-23" d="m337,162.38c0,.09-4.09.47-4.47.91-1.12,1.32,1.34,4.43,2.82,4.76-3.74-.83-3.48,5.36.72,4.49l1.64-.34s.25.98,2.06-.95c1.81-1.93.5-4.76.5-4.76l1.97-3.51s-2.21-2.04-2.29-2.11c-1.88-1.79-2.83-.6-2.97,1.51Z"/>
                <path class="cls-10" d="m335.59,166.71c-1.83,1.14-3.32,3.11-2.69,4.48.43.93,1.11,2.19,2.31,2.45-3.9-.84-3.39,5.35.71,4.49l1.64-.34s.25.98,2.07-.95c1.81-1.93.49-4.76.49-4.76,0,0,1.93-3.45,1.97-3.52.19-.37-2.48-2.41-2.86-2.58-.99-.45-2.39-.05-3.64.73Z"/>
                <path class="cls-23" d="m336.05,186.4c-.05-.06-.1-.1-.13-.12-1.12-.68-2.79.24-3.71-.89-.78-.95.28-5.23,2.03-4.76-1.12-.3-2.3-.57-3.34-1-.95-.39,1.75-3.25,2.26-3.43.88-.32,1.98-.04,2.86.07,0,0,.15-1,2.16.76,2.01,1.76,1.02,4.69,1.02,4.69-.22.65,1.98,2.37,2.18,3.07.33,1.15-.41,2.9-1.61,3.46-2.25,1.06-2.57-.55-3.7-1.86Z"/>
                <path class="cls-9" d="m338.32,171.83c.36-1.04,2.88-.65,4.21-.91-3.82.76-5.7-2.92.04-2.78-2.42,1.03-3.08-3.25-2.31-3.77,2.79-1.88,8.16-.84,6.27,2.93-.39.78.97,3.04.48,3.78-1.13,1.76-.42,3.77-3.71,4.27-3.2.49-5.58-1.73-4.97-3.52Z"/>
                <path class="cls-8" d="m336.5,180.89c.5-.99,2.25-1.38,3.56-1.62-4.31.81-6.26-1.6-1.44-2.4-2.89.48-.45-2.38.28-2.84,2.76-1.74,8.14-.72,6.29,2.82-.38.73,1,2.87.52,3.57-1.11,1.65-.38,3.55-3.66,3.99-1.43.19-5.15-1.72-5.56-2.65-.14-.32-.12-.61,0-.86Z"/>
              </g>
              <g>
                <path class="cls-8" d="m335.91,191.74c.55-1.29,2.35-1.85,3.68-2.22-4.39,1.22-6.23-1.78-1.32-3-2.94.73-.32-3.03.43-3.64,2.88-2.34,8.25-1.27,6.2,3.33-.42.95.85,3.62.34,4.53-1.21,2.15-.57,4.54-3.9,5.25-1.45.3-5.11-1.97-5.46-3.14-.13-.4-.1-.77.05-1.1Z"/>
                <path class="cls-23" d="m345.14,177.32c0,.1-4.09.47-4.47.92-1.12,1.32,1.34,4.43,2.83,4.76-3.74-.83-3.48,5.36.71,4.49l1.65-.34s.25.98,2.06-.95c1.81-1.93.5-4.76.5-4.76l1.97-3.51s-2.21-2.05-2.28-2.11c-1.88-1.79-2.83-.6-2.97,1.51Z"/>
                <path class="cls-10" d="m343.74,181.66c-1.83,1.14-3.32,3.11-2.69,4.48.43.93,1.11,2.18,2.31,2.44-3.9-.84-3.38,5.35.71,4.49l1.65-.34s.25.98,2.06-.95c1.81-1.93.49-4.76.49-4.76,0,0,1.93-3.44,1.97-3.51.2-.37-2.49-2.41-2.86-2.58-.99-.45-2.39-.05-3.64.73Z"/>
                <path class="cls-23" d="m344.2,201.35c-.05-.06-.1-.1-.13-.12-1.12-.67-2.78.24-3.71-.89-.78-.94.27-5.22,2.03-4.75-1.12-.3-2.3-.57-3.34-1-.95-.39,1.75-3.24,2.26-3.43.88-.32,1.98-.03,2.85.07,0,0,.15-1,2.16.76,2.01,1.76,1.02,4.69,1.02,4.69-.22.65,1.98,2.37,2.18,3.07.33,1.16-.41,2.9-1.61,3.46-2.24,1.06-2.57-.55-3.7-1.86Z"/>
                <path class="cls-9" d="m346.47,186.78c.36-1.04,2.88-.65,4.21-.91-3.83.75-5.7-2.93.03-2.78-2.42,1.03-3.09-3.25-2.31-3.77,2.78-1.88,8.16-.84,6.27,2.93-.39.78.96,3.04.48,3.78-1.13,1.76-.42,3.77-3.71,4.27-3.2.49-5.58-1.73-4.97-3.52Z"/>
                <path class="cls-8" d="m344.64,195.84c.49-.99,2.25-1.38,3.56-1.62-4.31.81-6.26-1.6-1.44-2.39-2.89.47-.45-2.39.27-2.84,2.76-1.74,8.14-.72,6.3,2.82-.38.73,1,2.87.52,3.57-1.11,1.65-.38,3.55-3.66,3.99-1.43.19-5.15-1.71-5.56-2.65-.14-.32-.13-.61,0-.86Z"/>
              </g>
              <g>
                <path class="cls-8" d="m342.37,171.2c.55-1.29,2.35-1.85,3.68-2.22-4.39,1.22-6.23-1.78-1.32-3-2.94.73-.33-3.03.43-3.64,2.87-2.34,8.24-1.27,6.2,3.33-.42.95.85,3.62.34,4.53-1.21,2.16-.57,4.54-3.9,5.25-1.45.3-5.11-1.97-5.47-3.14-.12-.4-.09-.77.05-1.1Z"/>
                <path class="cls-23" d="m351.61,156.78c0,.1-4.09.47-4.47.91-1.12,1.32,1.34,4.43,2.83,4.76-3.74-.83-3.48,5.36.72,4.49l1.65-.35s.26.98,2.06-.95c1.81-1.93.5-4.76.5-4.76l1.97-3.51s-2.22-2.04-2.28-2.11c-1.89-1.79-2.83-.6-2.97,1.51Z"/>
                <path class="cls-10" d="m350.21,161.11c-1.83,1.14-3.32,3.11-2.69,4.48.43.93,1.11,2.19,2.31,2.45-3.9-.84-3.39,5.34.71,4.49l1.64-.34s.26.98,2.06-.95c1.81-1.93.49-4.76.49-4.76,0,0,1.93-3.45,1.97-3.51.2-.37-2.48-2.41-2.86-2.58-.99-.44-2.39-.05-3.64.73Z"/>
                <path class="cls-23" d="m350.67,180.81c-.05-.06-.1-.1-.13-.12-1.12-.68-2.78.24-3.71-.89-.78-.94.27-5.22,2.03-4.76-1.12-.3-2.3-.57-3.34-1-.94-.39,1.75-3.25,2.26-3.43.88-.32,1.98-.04,2.85.07,0,0,.14-1,2.16.76,2.01,1.76,1.02,4.69,1.02,4.69-.22.65,1.98,2.37,2.18,3.07.33,1.16-.41,2.9-1.62,3.46-2.24,1.06-2.56-.55-3.69-1.85Z"/>
                <path class="cls-9" d="m352.93,166.24c.36-1.04,2.88-.65,4.2-.91-3.82.75-5.7-2.92.04-2.78-2.42,1.03-3.09-3.25-2.32-3.77,2.79-1.88,8.16-.84,6.28,2.93-.39.78.96,3.04.48,3.78-1.13,1.76-.42,3.77-3.71,4.27-3.2.49-5.58-1.73-4.97-3.52Z"/>
                <path class="cls-8" d="m351.11,175.29c.49-.99,2.26-1.37,3.56-1.62-4.31.81-6.26-1.6-1.44-2.4-2.89.47-.45-2.39.28-2.84,2.76-1.74,8.14-.72,6.3,2.82-.38.73.99,2.87.52,3.57-1.12,1.65-.38,3.55-3.66,3.99-1.43.19-5.15-1.71-5.56-2.65-.14-.32-.12-.61,0-.86Z"/>
              </g>
              <g>
                <path class="cls-8" d="m327.24,195.11c.55-1.29,2.35-1.85,3.68-2.22-4.39,1.22-6.23-1.78-1.33-3-2.94.73-.32-3.03.43-3.64,2.87-2.34,8.24-1.27,6.2,3.33-.42.95.85,3.62.34,4.53-1.21,2.15-.57,4.54-3.9,5.25-1.45.3-5.1-1.97-5.46-3.14-.12-.4-.09-.77.05-1.1Z"/>
                <path class="cls-23" d="m336.47,180.7c0,.1-4.09.47-4.47.91-1.12,1.32,1.34,4.43,2.83,4.76-3.74-.83-3.48,5.36.72,4.49l1.64-.34s.25.98,2.06-.95c1.81-1.93.49-4.76.49-4.76l1.97-3.51s-2.21-2.04-2.28-2.11c-1.89-1.79-2.83-.6-2.97,1.51Z"/>
                <path class="cls-10" d="m335.07,185.03c-1.83,1.14-3.32,3.11-2.69,4.48.43.93,1.11,2.19,2.31,2.45-3.9-.84-3.38,5.34.71,4.49l1.64-.34s.26.98,2.06-.95c1.81-1.93.49-4.76.49-4.76,0,0,1.93-3.44,1.97-3.51.2-.37-2.48-2.41-2.86-2.58-.99-.45-2.39-.05-3.64.73Z"/>
                <path class="cls-23" d="m335.53,204.73c-.05-.06-.1-.1-.13-.12-1.12-.68-2.79.24-3.71-.89-.78-.95.27-5.22,2.02-4.76-1.12-.3-2.3-.57-3.34-1-.95-.39,1.75-3.24,2.26-3.43.88-.32,1.98-.03,2.85.07,0,0,.14-1,2.16.76,2.01,1.76,1.02,4.69,1.02,4.69-.22.65,1.98,2.37,2.18,3.07.33,1.16-.41,2.9-1.62,3.46-2.25,1.06-2.57-.55-3.7-1.86Z"/>
                <path class="cls-9" d="m337.79,190.16c.36-1.04,2.88-.65,4.21-.91-3.83.75-5.7-2.92.04-2.78-2.42,1.03-3.09-3.25-2.31-3.77,2.78-1.88,8.16-.84,6.27,2.93-.39.78.96,3.04.48,3.78-1.14,1.76-.42,3.77-3.72,4.27-3.2.49-5.58-1.73-4.97-3.52Z"/>
                <path class="cls-8" d="m335.97,199.21c.49-.99,2.26-1.37,3.56-1.62-4.31.81-6.26-1.6-1.44-2.39-2.89.48-.45-2.39.28-2.84,2.76-1.74,8.14-.72,6.3,2.82-.38.73,1,2.87.52,3.57-1.11,1.65-.38,3.54-3.66,3.99-1.43.19-5.15-1.71-5.56-2.65-.14-.32-.13-.61,0-.86Z"/>
              </g>
              <g>
                <path class="cls-8" d="m344.32,153.32c.55-1.29,2.35-1.85,3.68-2.22-4.39,1.22-6.23-1.78-1.33-3-2.94.73-.33-3.03.43-3.64,2.88-2.34,8.24-1.27,6.2,3.33-.42.95.85,3.62.34,4.53-1.21,2.16-.57,4.54-3.9,5.25-1.45.3-5.11-1.97-5.47-3.14-.12-.4-.09-.77.05-1.1Z"/>
                <path class="cls-23" d="m353.55,138.9c0,.1-4.09.47-4.47.92-1.12,1.32,1.34,4.43,2.83,4.76-3.74-.83-3.48,5.36.72,4.49l1.65-.34s.25.98,2.06-.95c1.81-1.93.49-4.76.49-4.76l1.97-3.51s-2.21-2.04-2.28-2.11c-1.89-1.8-2.84-.6-2.97,1.51Z"/>
                <path class="cls-10" d="m352.15,143.23c-1.82,1.14-3.32,3.11-2.69,4.48.43.94,1.11,2.19,2.31,2.45-3.9-.84-3.39,5.34.71,4.49l1.64-.34s.25.98,2.06-.95c1.81-1.93.49-4.76.49-4.76,0,0,1.93-3.44,1.97-3.51.2-.37-2.49-2.41-2.86-2.58-.99-.45-2.4-.05-3.65.73Z"/>
                <path class="cls-23" d="m352.61,162.93c-.05-.06-.1-.1-.13-.12-1.12-.68-2.78.24-3.71-.89-.78-.95.27-5.23,2.03-4.76-1.13-.3-2.3-.57-3.34-1-.95-.39,1.75-3.24,2.26-3.43.88-.32,1.98-.03,2.85.07,0,0,.15-1,2.16.76,2.01,1.76,1.02,4.69,1.02,4.69-.22.64,1.98,2.37,2.18,3.07.33,1.16-.41,2.9-1.62,3.46-2.25,1.06-2.56-.55-3.69-1.86Z"/>
                <path class="cls-9" d="m354.88,148.36c.36-1.04,2.88-.65,4.21-.91-3.83.76-5.71-2.92.03-2.78-2.42,1.03-3.09-3.25-2.31-3.77,2.79-1.88,8.16-.84,6.27,2.93-.39.78.96,3.04.48,3.78-1.13,1.76-.42,3.77-3.71,4.27-3.2.49-5.58-1.73-4.97-3.52Z"/>
                <path class="cls-8" d="m353.05,157.42c.49-.99,2.26-1.38,3.56-1.62-4.31.81-6.26-1.6-1.44-2.4-2.89.47-.45-2.39.27-2.84,2.76-1.74,8.14-.72,6.3,2.82-.38.73,1,2.87.53,3.56-1.12,1.65-.38,3.54-3.66,3.99-1.43.19-5.15-1.71-5.56-2.65-.14-.32-.12-.61,0-.86Z"/>
              </g>
              <g>
                <path class="cls-8" d="m333.73,157.52c.55-1.29,2.35-1.85,3.68-2.22-4.39,1.22-6.23-1.78-1.32-3-2.94.73-.33-3.03.43-3.64,2.88-2.34,8.24-1.27,6.2,3.33-.42.95.85,3.62.34,4.53-1.21,2.15-.57,4.54-3.9,5.25-1.45.3-5.11-1.97-5.47-3.14-.12-.4-.09-.77.05-1.1Z"/>
                <path class="cls-23" d="m342.97,143.1c0,.1-4.09.47-4.46.92-1.12,1.32,1.34,4.43,2.83,4.76-3.74-.83-3.48,5.36.71,4.49l1.65-.34s.26.98,2.06-.95c1.81-1.93.5-4.75.5-4.75l1.97-3.52s-2.21-2.04-2.28-2.11c-1.89-1.79-2.83-.6-2.97,1.51Z"/>
                <path class="cls-10" d="m341.56,147.43c-1.82,1.14-3.32,3.11-2.69,4.48.43.93,1.11,2.19,2.31,2.45-3.9-.84-3.39,5.34.71,4.49l1.65-.34s.25.98,2.06-.95c1.81-1.93.49-4.76.49-4.76,0,0,1.93-3.44,1.97-3.51.2-.37-2.48-2.41-2.86-2.58-.99-.45-2.4-.05-3.65.73Z"/>
                <path class="cls-23" d="m342.03,167.13c-.05-.06-.1-.1-.13-.12-1.12-.68-2.79.24-3.71-.89-.78-.95.27-5.23,2.03-4.76-1.13-.3-2.3-.57-3.34-1-.94-.39,1.75-3.24,2.26-3.43.88-.32,1.98-.03,2.85.07,0,0,.15-.99,2.16.76,2.01,1.76,1.02,4.69,1.02,4.69-.22.64,1.98,2.37,2.18,3.07.33,1.16-.41,2.9-1.62,3.47-2.24,1.06-2.57-.55-3.69-1.85Z"/>
                <path class="cls-9" d="m344.29,152.56c.36-1.05,2.88-.65,4.21-.91-3.82.76-5.7-2.92.03-2.78-2.42,1.03-3.08-3.25-2.31-3.77,2.78-1.88,8.16-.84,6.27,2.93-.39.78.96,3.04.48,3.78-1.13,1.76-.42,3.77-3.71,4.27-3.2.49-5.58-1.73-4.97-3.52Z"/>
                <path class="cls-8" d="m342.47,161.62c.49-.99,2.25-1.38,3.56-1.62-4.31.81-6.26-1.6-1.44-2.4-2.89.47-.45-2.39.27-2.84,2.76-1.74,8.14-.72,6.3,2.82-.38.73,1,2.87.52,3.57-1.11,1.65-.38,3.55-3.66,3.99-1.43.19-5.15-1.71-5.56-2.65-.14-.32-.12-.61,0-.86Z"/>
              </g>
            </g>
            <g>
              <g>
                <path class="cls-26" d="m334.41,112.28c.95-.89,3.52-3.77,3.06-6.14-.38-1.93-1-3.93-1.53-5.72-.65-2.15-.71-5.03-2.29-6.33-1.76-1.45-4.72-1.03-7.6-.11-3.36,1.09-7.65-.76-10.49,3.17-1.04,1.44-1.85,2.73-1.77,4.07.09,1.43.84,2.39,1.2,3.61.72,2.47,1.59,4.84,2.21,7.39.28,1.17.22,2.01,1.35,2.16,2.12.28,5.4-.82,7.79-1.11,0,0,7.01,0,8.07-1.01Z"/>
                <g class="cls-37">
                  <path class="cls-24" d="m333.76,92.92l-16.59,2.13-3.6,4.85c.63,2.15,1.26,4.31,1.89,6.46.66,2.24-.6,9.17,1.03,10.42,5.22-8.69,12.15-16.89,17.27-23.85"/>
                </g>
              </g>
              <path class="cls-19" d="m337.32,108.08c-.54,1.17-8.8.57-9.73.69-1.86.23-4.3,1.6-5.78.88-1.02-.49-.86-2.03-1.21-3.17-.67-2.2-1.37-4.38-2.03-6.59-.45-1.52-.56-3.13-1.34-4.38,2.56-1.13,5.82-1.17,8.22-1.5,1.88-.26,3.73-.44,5.63-.73,3.91-.6,4.05,4.27,4.93,7.28.61,2.1,2.51,4.18,1.32,7.52Z"/>
            </g>
            <g>
              <g>
                <path class="cls-26" d="m243.09,185.9c-.03-1.23-.45-4.9-2.64-6.3-1.78-1.14-3.79-2.17-5.57-3.11-2.15-1.13-4.45-3.14-6.59-3.07-2.38.07-4.17,2.23-5.5,4.7-1.54,2.88-6.05,4.27-4.98,8.85.39,1.68.82,3.1,1.93,4.01,1.19.96,2.48,1.17,3.69,1.82,2.45,1.31,4.92,2.45,7.37,3.88,1.12.65,1.73,1.3,2.66.69,1.73-1.13,3.2-3.98,4.68-5.68,0,0,4.99-4.41,4.96-5.79Z"/>
                <g class="cls-36">
                  <path class="cls-24" d="m227.45,172.52l-10.15,11.94,1.24,5.71c2.13,1.14,4.27,2.28,6.41,3.41,2.23,1.18,6.76,6.92,8.9,6.77-3.09-9.47-4.58-19.67-6.4-27.84"/>
                </g>
              </g>
              <path class="cls-19" d="m241.87,181.08c.53,1.17-5.82,5.94-6.4,6.61-1.14,1.34-1.81,3.84-3.43,4.26-1.11.29-2.2-.9-3.35-1.5-2.2-1.15-4.41-2.26-6.61-3.42-1.51-.8-2.85-1.88-4.39-2.28.94-2.41,3.23-4.49,4.68-6.23,1.14-1.37,2.32-2.66,3.44-4.05,2.32-2.88,6.23.5,9.22,2.09,2.08,1.11,5.07,1.4,6.84,4.53Z"/>
            </g>
          </g>
        </g>
      </g>
    </g>
  </g>
</svg>