<?xml version="1.0" encoding="UTF-8"?>
<svg id="_レイヤー_2" data-name="レイヤー 2" xmlns="http://www.w3.org/2000/svg" viewBox="0 0 495.35 314.87">
  <defs>
    <style>
      .cls-1 {
        fill: #f3d4a1;
        stroke: #f3d4a1;
        stroke-width: .88px;
      }

      .cls-1, .cls-2 {
        stroke-linecap: round;
        stroke-linejoin: round;
      }

      .cls-2 {
        fill: none;
        stroke: #fff;
        stroke-width: 4.25px;
      }

      .cls-3 {
        fill: #fabe00;
      }

      .cls-3, .cls-4, .cls-5, .cls-6, .cls-7, .cls-8, .cls-9, .cls-10, .cls-11, .cls-12, .cls-13, .cls-14, .cls-15, .cls-16 {
        stroke-width: 0px;
      }

      .cls-4 {
        fill: #619944;
      }

      .cls-5 {
        fill: #782410;
      }

      .cls-6 {
        fill: #489037;
      }

      .cls-7 {
        fill: #74a92d;
      }

      .cls-8 {
        fill: #93431d;
      }

      .cls-9 {
        fill: #fddc86;
      }

      .cls-10 {
        fill: #fff;
      }

      .cls-11 {
        fill: #ffe689;
      }

      .cls-12 {
        fill: #ffe55f;
      }

      .cls-13 {
        fill: #e5a83f;
      }

      .cls-14 {
        fill: #ee7e71;
      }

      .cls-15 {
        fill: #feebbe;
      }

      .cls-16 {
        fill: #fdd000;
      }
    </style>
  </defs>
  <g id="_イラスト" data-name="イラスト">
    <g>
      <g>
        <path class="cls-1" d="m494.91,159.95c0,85.32-110.69,154.48-247.23,154.48S.44,245.26.44,159.95,111.13,5.46,247.68,5.46s247.23,69.16,247.23,154.49Z"/>
        <ellipse class="cls-15" cx="247.68" cy="154.48" rx="247.23" ry="154.48"/>
        <ellipse class="cls-10" cx="247.68" cy="157.83" rx="189.84" ry="118.62"/>
        <ellipse class="cls-2" cx="247.68" cy="157.83" rx="227.81" ry="142.34"/>
      </g>
      <g>
        <g>
          <path class="cls-16" d="m310.42,53.62c0-.12.01-.25.01-.37.01-2.39-1.5-4.62-3.5-5.92-2.16-1.41-5.55-2.44-8.07-1.55-6.98,2.49-5.21,10.47-5.05,16.1,0,.27.19.94.33,1.17.18.28.34.02.65.13,2.12.73,4.24,1.47,6.36,2.2.38.13.78.27,1.18.2.49-.08.87-.45,1.21-.81,1.8-1.88,3.42-3.93,4.85-6.11,1-1.53,1.92-3.22,2.04-5.03Z"/>
          <path class="cls-11" d="m294.92,63.69c1.09-.01,2.7.3,3.67.77.92.45,1.97.69,2.85,1.17,1.1.61,2.03-1.12.92-1.73-.49-.27-.93-.41-1.46-.56-.79-.23-1.41-.71-2.18-.98-1.12-.38-2.69-.65-3.88-.63-1.26.02-1.19,1.97.08,1.96h0Z"/>
        </g>
        <g>
          <path class="cls-3" d="m317.28,59.02c-.05-.11-.1-.23-.16-.34-1.09-2.13-3.45-3.41-5.83-3.65-2.57-.26-6.06.37-7.88,2.32-5.06,5.41.17,11.69,2.89,16.62.13.24.6.75.83.89.28.17.31-.14.64-.19,2.22-.32,4.44-.64,6.66-.96.4-.06.82-.12,1.14-.37.39-.3.56-.8.7-1.28.74-2.5,1.24-5.06,1.51-7.65.19-1.82.23-3.74-.49-5.4Z"/>
          <path class="cls-9" d="m308.12,75.08c.97-.51,2.53-.97,3.61-1,1.02-.02,2.06-.29,3.07-.26,1.26.04,1.29-1.92.03-1.96-.56-.02-1.02.07-1.55.17-.8.16-1.58.01-2.38.13-1.17.17-2.69.66-3.74,1.21-1.11.59-.15,2.3.97,1.71h0Z"/>
        </g>
        <g>
          <path class="cls-16" d="m298.09,86.24c.12.04.24.07.36.1,2.32.59,4.84-.33,6.6-1.95,1.89-1.75,3.73-4.79,3.47-7.45-.7-7.38-8.88-7.61-14.37-8.83-.26-.06-.96-.05-1.21.03-.31.1-.1.33-.28.6-1.23,1.87-2.46,3.75-3.69,5.62-.22.34-.45.69-.48,1.1-.04.49.23.95.49,1.37,1.38,2.2,2.97,4.28,4.74,6.19,1.24,1.34,2.65,2.65,4.38,3.21Z"/>
          <path class="cls-11" d="m292.11,68.74c-.25,1.06-.95,2.55-1.64,3.37-.66.78-1.15,1.74-1.83,2.47-.86.92.59,2.24,1.45,1.32.38-.41.62-.8.9-1.28.41-.71,1.04-1.19,1.48-1.87.64-.99,1.29-2.45,1.56-3.61.29-1.23-1.62-1.63-1.92-.41h0Z"/>
        </g>
        <g>
          <path class="cls-16" d="m364.5,78.48c.08-.1.15-.2.22-.3,1.37-1.96,1.4-4.65.49-6.86-.98-2.39-3.17-5.17-5.75-5.87-7.15-1.93-10.24,5.64-13.32,10.35-.15.23-.38.88-.4,1.15-.01.33.27.21.46.47,1.32,1.81,2.65,3.62,3.97,5.43.24.33.49.66.86.83.45.21.97.12,1.46.02,2.55-.52,5.05-1.28,7.46-2.26,1.69-.69,3.41-1.55,4.54-2.97Z"/>
          <path class="cls-11" d="m346.03,77.93c.91.61,2.05,1.78,2.58,2.72.5.89,1.23,1.69,1.67,2.59.56,1.13,2.3.24,1.74-.9-.25-.5-.53-.87-.88-1.29-.52-.64-.75-1.39-1.23-2.04-.7-.95-1.84-2.07-2.83-2.73-1.05-.7-2.1.95-1.05,1.65h0Z"/>
        </g>
        <g>
          <path class="cls-3" d="m295.35,64.82c.04-.12.08-.23.12-.35.7-2.29-.1-4.85-1.65-6.68-1.66-1.97-4.61-3.94-7.28-3.81-7.4.37-8,8.52-9.48,13.95-.07.26-.09.96-.02,1.21.09.32.32.11.59.31,1.82,1.31,3.63,2.63,5.45,3.94.33.24.67.48,1.07.53.49.06.96-.18,1.39-.43,2.27-1.28,4.41-2.77,6.4-4.45,1.4-1.18,2.77-2.53,3.41-4.23Z"/>
          <path class="cls-9" d="m277.6,70c1.05.3,2.5,1.06,3.29,1.79.75.69,1.69,1.23,2.39,1.94.88.9,2.26-.49,1.38-1.39-.39-.4-.78-.66-1.23-.95-.69-.44-1.14-1.09-1.8-1.56-.96-.69-2.39-1.4-3.53-1.73-1.21-.35-1.71,1.55-.49,1.9h0Z"/>
        </g>
        <g>
          <path class="cls-16" d="m329.34,70.46c-.08-.1-.16-.19-.24-.28-1.62-1.76-4.24-2.37-6.59-1.97-2.54.44-5.74,1.98-6.97,4.34-3.44,6.57,3.29,11.22,7.22,15.25.19.19.78.57,1.04.64.32.09.26-.22.56-.35,2.05-.9,4.11-1.8,6.16-2.7.37-.16.76-.34,1-.66.3-.39.33-.92.34-1.42.04-2.6-.16-5.21-.59-7.78-.31-1.8-.77-3.67-1.92-5.08Z"/>
          <path class="cls-11" d="m324.81,88.38c.79-.75,2.18-1.62,3.21-1.93.98-.3,1.91-.83,2.89-1.07,1.22-.3.73-2.2-.5-1.9-.54.13-.96.33-1.45.58-.73.37-1.52.43-2.26.76-1.08.48-2.42,1.35-3.28,2.17-.91.87.47,2.26,1.39,1.39h0Z"/>
        </g>
        <g>
          <path class="cls-3" d="m328.9,54.75c-.11-.05-.23-.1-.35-.14-2.24-.83-4.85-.16-6.76,1.28-2.06,1.55-4.19,4.39-4.21,7.06-.04,7.41,8.07,8.46,13.41,10.24.26.09.95.15,1.21.09.32-.07.13-.31.34-.57,1.41-1.74,2.82-3.48,4.24-5.22.25-.31.52-.64.59-1.04.09-.49-.13-.97-.35-1.41-1.15-2.33-2.53-4.56-4.09-6.64-1.1-1.46-2.37-2.9-4.03-3.63Z"/>
          <path class="cls-9" d="m333.08,72.76c.36-1.03,1.2-2.44,1.97-3.19.73-.71,1.32-1.62,2.07-2.28.95-.83-.36-2.29-1.31-1.46-.42.37-.7.74-1.02,1.18-.48.66-1.15,1.08-1.66,1.71-.74.92-1.53,2.31-1.92,3.43-.41,1.19,1.45,1.79,1.87.6h0Z"/>
        </g>
        <g>
          <path class="cls-16" d="m342.69,81.84c.11-.05.22-.11.33-.17,2.1-1.14,3.33-3.53,3.52-5.91.2-2.57-.52-6.05-2.51-7.82-5.53-4.94-11.68.45-16.55,3.28-.23.14-.74.61-.87.85-.16.29.15.31.2.63.37,2.21.74,4.42,1.11,6.63.07.4.14.81.39,1.13.31.39.81.54,1.29.67,2.51.68,5.09,1.12,7.68,1.33,1.82.14,3.74.15,5.39-.62Z"/>
          <path class="cls-11" d="m326.42,73.07c.54.95,1.03,2.51,1.09,3.59.05,1.02.34,2.06.33,3.06,0,1.26,1.95,1.24,1.96-.02,0-.56-.09-1.01-.21-1.55-.18-.8-.05-1.58-.19-2.38-.2-1.16-.72-2.67-1.3-3.71-.62-1.1-2.3-.1-1.68,1h0Z"/>
        </g>
        <g>
          <path class="cls-3" d="m320.86,80.78c-.05-.11-.1-.23-.15-.34-1.04-2.15-3.37-3.49-5.75-3.78-2.56-.32-6.06.24-7.93,2.15-5.18,5.3-.09,11.69,2.52,16.68.12.24.58.77.81.91.28.17.31-.13.64-.17,2.23-.27,4.45-.54,6.68-.81.4-.05.82-.1,1.15-.34.4-.29.58-.79.73-1.26.79-2.48,1.35-5.03,1.67-7.62.23-1.82.32-3.73-.37-5.41Z"/>
          <path class="cls-9" d="m311.35,96.63c.98-.49,2.56-.92,3.63-.92,1.02,0,2.07-.25,3.07-.19,1.26.06,1.33-1.89.07-1.96-.56-.03-1.02.04-1.55.14-.81.14-1.58-.02-2.39.08-1.17.15-2.7.6-3.76,1.13-1.13.57-.2,2.3.93,1.73h0Z"/>
        </g>
        <g>
          <path class="cls-16" d="m356.66,114.84c.06.11.12.22.19.32,1.28,2.02,3.75,3.08,6.14,3.1,2.58.02,6-.93,7.63-3.04,4.55-5.85-1.25-11.63-4.4-16.29-.15-.22-.66-.69-.91-.81-.3-.14-.3.17-.62.24-2.18.52-4.36,1.04-6.54,1.56-.39.09-.8.2-1.1.47-.37.33-.49.85-.58,1.33-.5,2.55-.77,5.15-.8,7.76-.02,1.83.11,3.75.98,5.34Z"/>
          <path class="cls-11" d="m364.3,98.01c-.91.6-2.43,1.2-3.5,1.33-1.02.12-2.03.48-3.03.54-1.26.08-1.11,2.03.15,1.95.56-.03,1-.16,1.53-.31.79-.23,1.57-.16,2.36-.35,1.15-.28,2.62-.9,3.61-1.55,1.05-.69-.06-2.3-1.12-1.61h0Z"/>
        </g>
        <g>
          <path class="cls-3" d="m347.97,113.97c.1.07.21.14.32.2,2.06,1.21,4.74,1.02,6.88-.06,2.3-1.16,4.9-3.57,5.39-6.2,1.36-7.28-6.44-9.76-11.38-12.46-.24-.13-.91-.31-1.18-.3-.33.01-.19.29-.44.5-1.7,1.46-3.4,2.93-5.1,4.39-.31.26-.62.54-.76.92-.17.46-.04.98.09,1.45.72,2.5,1.68,4.93,2.85,7.26.82,1.63,1.82,3.28,3.32,4.29Z"/>
          <path class="cls-9" d="m347.05,95.51c-.54.95-1.61,2.19-2.51,2.79-.85.57-1.58,1.36-2.44,1.87-1.08.65-.05,2.31,1.03,1.67.48-.29.82-.6,1.21-.98.59-.57,1.32-.86,1.94-1.39.89-.77,1.91-2,2.5-3.04.62-1.1-1.11-2.02-1.73-.92h0Z"/>
        </g>
        <g>
          <path class="cls-16" d="m349.5,80.71c-.12.03-.24.07-.36.1-2.27.75-3.91,2.88-4.51,5.19-.65,2.49-.56,6.04,1.08,8.14,4.56,5.84,11.58,1.63,16.87-.29.25-.09.84-.47,1.01-.68.21-.25-.09-.33-.09-.66.03-2.24.05-4.48.08-6.73,0-.4,0-.83-.19-1.18-.23-.44-.7-.68-1.15-.89-2.35-1.11-4.81-2.01-7.33-2.67-1.77-.46-3.66-.81-5.42-.35Z"/>
          <path class="cls-11" d="m363.96,92.24c-.36-1.03-.57-2.66-.43-3.72.13-1.01.03-2.08.21-3.07.23-1.24-1.7-1.57-1.93-.33-.1.55-.09,1.01-.07,1.56.03.82-.23,1.56-.24,2.38-.01,1.18.23,2.76.62,3.88.41,1.19,2.25.5,1.83-.69h0Z"/>
        </g>
        <g>
          <path class="cls-16" d="m229.92,89.04c.03.12.06.24.1.36.7,2.29,2.8,3.97,5.1,4.62,2.48.7,6.03.69,8.16-.91,5.93-4.44,1.88-11.54.07-16.87-.09-.26-.46-.85-.66-1.02-.25-.22-.33.08-.66.07-2.24-.07-4.48-.15-6.72-.22-.4-.01-.83-.02-1.19.16-.44.22-.7.69-.92,1.13-1.16,2.33-2.11,4.77-2.82,7.27-.5,1.76-.88,3.64-.46,5.41Z"/>
          <path class="cls-11" d="m241.75,74.83c-1.04.34-2.67.52-3.73.35-1.01-.15-2.08-.07-3.07-.28-1.23-.26-1.61,1.67-.37,1.92.55.11,1.01.11,1.56.1.82-.02,1.56.26,2.37.29,1.18.04,2.76-.18,3.89-.54,1.2-.39.55-2.24-.65-1.85h0Z"/>
        </g>
        <g>
          <path class="cls-3" d="m360.65,93.51c.03.12.06.24.09.36.64,2.3,2.7,4.03,4.98,4.74,2.46.77,6.01.84,8.19-.71,6.04-4.29,2.16-11.49.48-16.86-.08-.26-.43-.86-.63-1.04-.25-.22-.33.08-.66.06-2.24-.13-4.48-.26-6.72-.39-.4-.02-.83-.04-1.19.13-.45.21-.71.67-.94,1.11-1.22,2.3-2.23,4.71-3,7.2-.54,1.75-.97,3.62-.6,5.39Z"/>
          <path class="cls-9" d="m372.82,79.59c-1.05.31-2.68.45-3.74.26-1.01-.18-2.08-.13-3.06-.35-1.23-.29-1.65,1.63-.42,1.91.54.13,1.01.14,1.55.14.82,0,1.55.3,2.36.35,1.18.06,2.77-.11,3.9-.45,1.21-.36.6-2.22-.61-1.86h0Z"/>
        </g>
        <g>
          <path class="cls-16" d="m331.65,110.83c.12.04.24.08.36.11,2.31.62,4.85-.28,6.61-1.89,1.91-1.73,3.77-4.75,3.54-7.41-.64-7.38-8.81-7.69-14.29-8.97-.26-.06-.96-.06-1.21.02-.31.1-.1.32-.29.6-1.25,1.86-2.49,3.73-3.74,5.59-.22.34-.46.69-.49,1.09-.04.49.22.96.48,1.38,1.36,2.22,2.93,4.31,4.68,6.23,1.23,1.35,2.62,2.67,4.35,3.25Z"/>
          <path class="cls-11" d="m325.83,93.28c-.26,1.06-.97,2.54-1.67,3.35-.67.78-1.16,1.73-1.86,2.46-.87.91.57,2.24,1.44,1.33.38-.4.63-.8.91-1.27.42-.71,1.05-1.18,1.5-1.86.65-.98,1.31-2.44,1.6-3.59.3-1.22-1.61-1.65-1.91-.42h0Z"/>
        </g>
        <g>
          <path class="cls-3" d="m320.77,114.49c.12-.02.24-.04.37-.07,2.34-.51,4.18-2.47,5.01-4.71.9-2.42,1.17-5.95-.25-8.21-3.95-6.27-11.35-2.79-16.81-1.42-.26.07-.88.39-1.07.58-.23.23.06.34.02.66-.25,2.23-.51,4.46-.76,6.68-.05.4-.09.82.07,1.19.19.46.63.75,1.06,1,2.23,1.35,4.58,2.48,7.02,3.39,1.71.64,3.56,1.17,5.35.9Z"/>
          <path class="cls-9" d="m307.55,101.56c.25,1.06.3,2.7.05,3.75-.24,1-.24,2.07-.52,3.03-.35,1.21,1.53,1.73,1.89.52.16-.53.19-1,.23-1.54.05-.82.39-1.53.48-2.34.13-1.17.05-2.77-.23-3.92-.29-1.23-2.19-.73-1.89.5h0Z"/>
        </g>
        <g>
          <path class="cls-16" d="m286.87,91.44c-.07.1-.13.21-.19.32-1.16,2.09-.91,4.77.22,6.88,1.22,2.27,3.69,4.82,6.32,5.25,7.31,1.19,9.61-6.67,12.19-11.67.12-.24.29-.91.28-1.18-.02-.33-.29-.18-.51-.42-1.5-1.66-3-3.33-4.51-4.99-.27-.3-.56-.61-.94-.74-.47-.16-.98-.02-1.45.13-2.48.78-4.89,1.79-7.19,3.02-1.61.86-3.23,1.89-4.21,3.42Z"/>
          <path class="cls-11" d="m305.31,90.08c-.97-.51-2.22-1.56-2.84-2.44-.59-.84-1.39-1.55-1.93-2.4-.67-1.07-2.31,0-1.64,1.07.3.47.62.81,1.01,1.19.58.58.89,1.3,1.44,1.91.79.87,2.05,1.87,3.09,2.42,1.11.59,1.99-1.16.88-1.75h0Z"/>
        </g>
        <g>
          <path class="cls-3" d="m333.24,97.57c.1.07.2.14.31.21,2.04,1.26,4.72,1.13,6.88.1,2.33-1.11,4.98-3.46,5.53-6.08,1.52-7.25-6.22-9.9-11.1-12.71-.23-.13-.9-.33-1.17-.33-.33,0-.19.28-.45.49-1.73,1.42-3.46,2.85-5.19,4.27-.31.26-.64.53-.78.9-.18.46-.07.98.06,1.46.67,2.52,1.57,4.97,2.69,7.32.79,1.65,1.74,3.32,3.22,4.36Z"/>
          <path class="cls-9" d="m332.73,79.09c-.56.94-1.66,2.15-2.57,2.73-.86.55-1.61,1.32-2.49,1.82-1.1.62-.1,2.31.99,1.69.48-.28.83-.58,1.24-.95.6-.55,1.34-.83,1.97-1.35.91-.75,1.96-1.96,2.56-2.98.64-1.08-1.07-2.04-1.71-.96h0Z"/>
        </g>
        <g>
          <path class="cls-16" d="m286.75,105.34c0,.12-.01.25-.02.37-.03,2.39,1.47,4.63,3.46,5.95,2.15,1.42,5.54,2.48,8.06,1.61,7-2.43,5.28-10.43,5.17-16.06,0-.27-.18-.94-.32-1.17-.17-.28-.34-.02-.65-.13-2.11-.75-4.23-1.5-6.34-2.25-.38-.13-.78-.27-1.18-.21-.49.08-.87.45-1.22.8-1.81,1.87-3.45,3.9-4.89,6.07-1.01,1.52-1.95,3.2-2.08,5.01Z"/>
          <path class="cls-11" d="m302.33,95.38c-1.09,0-2.7-.32-3.66-.79-.92-.45-1.96-.7-2.84-1.19-1.1-.62-2.03,1.1-.94,1.72.49.27.93.41,1.45.57.79.23,1.4.72,2.17.99,1.12.39,2.69.67,3.87.66,1.26,0,1.2-1.97-.06-1.96h0Z"/>
        </g>
        <g>
          <path class="cls-3" d="m235.46,76.37c.06-.11.11-.22.16-.33.98-2.18.5-4.83-.8-6.83-1.4-2.16-4.08-4.49-6.74-4.69-7.39-.56-9.01,7.45-11.16,12.65-.1.25-.21.94-.18,1.2.05.33.3.15.54.38,1.64,1.53,3.28,3.06,4.91,4.59.29.28.61.56,1,.66.48.12.98-.06,1.44-.25,2.41-.99,4.72-2.2,6.91-3.62,1.54-.99,3.06-2.16,3.91-3.76Z"/>
          <path class="cls-9" d="m217.21,79.28c1.01.43,2.35,1.37,3.04,2.19.66.78,1.52,1.43,2.12,2.23.76,1.01,2.31-.2,1.54-1.2-.34-.44-.69-.75-1.1-1.1-.63-.53-1-1.22-1.59-1.78-.87-.8-2.2-1.69-3.29-2.15-1.16-.5-1.89,1.32-.73,1.82h0Z"/>
        </g>
        <g>
          <path class="cls-16" d="m273.02,84.65c-.12-.04-.24-.07-.36-.11-2.31-.61-4.84.29-6.61,1.9-1.9,1.74-3.76,4.76-3.53,7.42.65,7.38,8.82,7.67,14.3,8.94.26.06.96.06,1.21-.02.31-.1.1-.32.29-.6,1.24-1.87,2.49-3.73,3.73-5.6.22-.34.45-.69.49-1.09.04-.49-.22-.95-.48-1.38-1.37-2.21-2.94-4.3-4.69-6.23-1.23-1.35-2.63-2.67-4.35-3.24Z"/>
          <path class="cls-11" d="m278.87,102.18c.26-1.06.97-2.54,1.66-3.36.66-.78,1.16-1.73,1.85-2.46.87-.91-.57-2.24-1.44-1.33-.38.4-.63.8-.91,1.27-.42.71-1.04,1.18-1.49,1.86-.65.99-1.31,2.44-1.59,3.59-.3,1.22,1.61,1.65,1.91.42h0Z"/>
        </g>
        <g>
          <path class="cls-16" d="m298.19,112.36c-.03.12-.06.24-.08.36-.46,2.35.61,4.81,2.34,6.47,1.86,1.79,5,3.44,7.64,3.03,7.32-1.14,7.07-9.32,7.97-14.87.04-.27,0-.96-.1-1.21-.12-.31-.33-.08-.62-.25-1.94-1.12-3.89-2.23-5.83-3.35-.35-.2-.72-.41-1.12-.41-.49,0-.94.28-1.34.57-2.12,1.51-4.1,3.22-5.9,5.1-1.27,1.32-2.49,2.8-2.94,4.56Z"/>
          <path class="cls-11" d="m315.3,105.36c-1.08-.19-2.6-.79-3.46-1.44-.82-.61-1.81-1.04-2.58-1.68-.97-.81-2.2.72-1.23,1.53.43.36.84.57,1.33.82.73.37,1.25.96,1.96,1.37,1.03.58,2.52,1.14,3.69,1.35,1.24.22,1.53-1.72.29-1.94h0Z"/>
        </g>
        <g>
          <path class="cls-3" d="m276.1,87.53c-.04.12-.09.23-.12.35-.72,2.28.07,4.85,1.6,6.69,1.65,1.98,4.58,3.98,7.25,3.86,7.4-.31,8.07-8.46,9.59-13.88.07-.26.1-.95.03-1.21-.09-.32-.32-.12-.59-.31-1.81-1.33-3.61-2.65-5.42-3.98-.32-.24-.67-.49-1.07-.54-.49-.06-.96.18-1.4.42-2.27,1.27-4.43,2.74-6.43,4.4-1.41,1.17-2.79,2.5-3.44,4.2Z"/>
          <path class="cls-9" d="m293.88,82.49c-1.05-.31-2.49-1.08-3.28-1.82-.75-.7-1.68-1.24-2.37-1.96-.87-.91-2.27.47-1.39,1.38.39.4.77.66,1.23.96.69.45,1.13,1.1,1.79,1.58.95.7,2.38,1.42,3.52,1.75,1.21.36,1.72-1.54.51-1.89h0Z"/>
        </g>
        <g>
          <path class="cls-16" d="m249.28,92.5c.08.1.16.19.24.28,1.6,1.77,4.22,2.4,6.58,2.02,2.54-.42,5.75-1.94,7.01-4.29,3.48-6.54-3.21-11.25-7.11-15.3-.19-.19-.77-.57-1.03-.64-.32-.09-.26.22-.57.35-2.06.88-4.12,1.77-6.18,2.65-.37.16-.76.33-1.01.65-.3.39-.34.92-.35,1.41-.06,2.6.12,5.21.53,7.78.29,1.81.75,3.67,1.88,5.09Z"/>
          <path class="cls-11" d="m253.95,74.61c-.8.75-2.19,1.6-3.23,1.9-.98.29-1.92.82-2.89,1.05-1.23.29-.74,2.19.48,1.9.54-.13.96-.33,1.45-.57.74-.36,1.52-.42,2.27-.75,1.08-.47,2.43-1.33,3.29-2.14.92-.86-.45-2.26-1.37-1.4h0Z"/>
        </g>
        <g>
          <path class="cls-3" d="m392.62,109.83c.12,0,.25,0,.37-.01,2.39-.16,4.5-1.82,5.66-3.91,1.25-2.25,2.05-5.71.98-8.16-2.97-6.79-10.81-4.46-16.41-3.91-.27.03-.93.25-1.14.41-.27.19,0,.34-.08.66-.58,2.16-1.17,4.33-1.75,6.49-.1.39-.21.8-.11,1.19.12.48.51.83.89,1.15,2,1.66,4.16,3.14,6.44,4.4,1.6.89,3.34,1.69,5.16,1.68Z"/>
          <path class="cls-9" d="m381.48,95.07c.09,1.09-.11,2.71-.51,3.71-.38.95-.55,2.01-.97,2.92-.53,1.14,1.26,1.94,1.79.8.24-.51.34-.96.45-1.49.17-.8.61-1.45.82-2.24.3-1.14.46-2.73.36-3.91-.11-1.26-2.05-1.05-1.95.21h0Z"/>
        </g>
        <g>
          <path class="cls-16" d="m367.05,94.33c-.08.09-.16.19-.24.29-1.46,1.89-1.61,4.58-.81,6.83.86,2.43,2.93,5.31,5.47,6.13,7.05,2.27,10.5-5.16,13.79-9.72.16-.22.43-.86.45-1.13.03-.33-.26-.22-.44-.5-1.24-1.87-2.47-3.74-3.71-5.61-.22-.34-.46-.69-.82-.87-.44-.23-.97-.17-1.45-.09-2.57.4-5.11,1.04-7.56,1.91-1.72.61-3.48,1.39-4.68,2.75Z"/>
          <path class="cls-11" d="m385.49,95.74c-.88-.65-1.97-1.87-2.45-2.84-.46-.91-1.15-1.74-1.55-2.66-.51-1.16-2.29-.34-1.78.81.22.51.49.89.82,1.33.49.66.69,1.42,1.14,2.1.66.98,1.74,2.15,2.7,2.86,1.01.75,2.14-.85,1.13-1.6h0Z"/>
        </g>
        <g>
          <path class="cls-3" d="m257.84,82.24c.05.11.1.23.15.34,1.02,2.16,3.35,3.52,5.72,3.83,2.56.34,6.06-.19,7.95-2.09,5.22-5.26.17-11.69-2.39-16.7-.12-.24-.57-.77-.8-.91-.28-.18-.31.13-.64.17-2.23.25-4.46.51-6.68.76-.4.05-.82.1-1.15.33-.4.29-.59.78-.74,1.25-.81,2.47-1.39,5.02-1.73,7.6-.24,1.81-.34,3.73.33,5.42Z"/>
          <path class="cls-9" d="m267.47,66.46c-.98.49-2.56.9-3.64.89-1.02,0-2.07.23-3.07.17-1.26-.07-1.35,1.88-.09,1.96.56.03,1.02-.04,1.55-.13.81-.14,1.58.04,2.39-.06,1.17-.14,2.71-.58,3.77-1.1,1.13-.56.22-2.29-.91-1.73h0Z"/>
        </g>
        <g>
          <path class="cls-16" d="m197.59,91.18c-.11.06-.22.12-.33.18-2.06,1.22-3.19,3.66-3.28,6.05-.1,2.58.76,6.02,2.82,7.72,5.72,4.71,11.66-.92,16.4-3.94.23-.14.71-.64.84-.88.15-.29-.16-.3-.23-.62-.46-2.19-.92-4.39-1.38-6.58-.08-.39-.17-.81-.44-1.11-.32-.37-.84-.51-1.32-.62-2.54-.58-5.13-.92-7.73-1.02-1.83-.07-3.75,0-5.36.83Z"/>
          <path class="cls-11" d="m214.2,99.29c-.57-.93-1.13-2.47-1.23-3.54-.09-1.02-.42-2.04-.46-3.04-.04-1.26-2-1.16-1.96.1.02.56.13,1.01.27,1.54.21.79.11,1.57.28,2.37.25,1.16.83,2.64,1.45,3.65.66,1.07,2.3,0,1.64-1.07h0Z"/>
        </g>
        <g>
          <path class="cls-3" d="m198.71,82.52c-.07.1-.14.2-.21.31-1.27,2.03-1.16,4.71-.14,6.88,1.1,2.33,3.43,5,6.04,5.57,7.24,1.56,9.94-6.16,12.78-11.02.14-.23.34-.9.34-1.17,0-.33-.28-.19-.49-.45-1.41-1.74-2.83-3.48-4.24-5.22-.25-.31-.53-.64-.9-.79-.46-.18-.98-.07-1.46.05-2.52.65-4.98,1.54-7.34,2.64-1.66.78-3.33,1.72-4.39,3.2Z"/>
          <path class="cls-9" d="m217.19,82.12c-.94-.56-2.14-1.67-2.71-2.58-.55-.86-1.31-1.62-1.8-2.5-.62-1.1-2.31-.12-1.69.98.27.49.58.84.94,1.24.55.61.82,1.35,1.34,1.98.75.91,1.95,1.97,2.96,2.58,1.08.65,2.05-1.05.97-1.7h0Z"/>
        </g>
        <g>
          <path class="cls-16" d="m231.91,85c-.03-.12-.06-.24-.09-.36-.68-2.29-2.77-3.99-5.06-4.66-2.48-.72-6.02-.74-8.17.85-5.97,4.39-1.96,11.53-.19,16.87.08.26.45.85.65,1.03.25.22.33-.08.66-.07,2.24.09,4.48.18,6.72.27.4.02.83.03,1.19-.15.44-.22.7-.69.92-1.13,1.18-2.32,2.14-4.75,2.88-7.25.51-1.76.91-3.63.5-5.4Z"/>
          <path class="cls-11" d="m219.98,99.12c1.04-.33,2.67-.5,3.73-.33,1.01.16,2.08.09,3.06.3,1.23.27,1.62-1.65.38-1.92-.55-.12-1.01-.12-1.56-.11-.82.01-1.55-.28-2.37-.31-1.18-.04-2.76.16-3.9.51-1.2.38-.57,2.23.64,1.85h0Z"/>
        </g>
        <g>
          <path class="cls-3" d="m286.3,98.91c-.07-.1-.15-.2-.23-.29-1.52-1.85-4.11-2.59-6.48-2.31-2.56.3-5.83,1.67-7.19,3.97-3.78,6.38,2.7,11.38,6.41,15.6.18.2.74.61,1,.69.31.1.27-.2.58-.32,2.1-.79,4.2-1.58,6.29-2.37.38-.14.77-.3,1.03-.6.32-.38.38-.9.41-1.4.18-2.6.12-5.21-.18-7.8-.21-1.82-.58-3.7-1.65-5.17Z"/>
          <path class="cls-9" d="m280.83,116.57c.83-.71,2.26-1.5,3.31-1.76.99-.24,1.95-.73,2.94-.92,1.24-.24.84-2.16-.4-1.92-.55.1-.98.28-1.48.5-.75.33-1.54.35-2.3.64-1.1.42-2.48,1.22-3.39,1.99-.96.82.35,2.28,1.31,1.46h0Z"/>
        </g>
        <g>
          <path class="cls-16" d="m253.38,49.49c-.12-.04-.24-.08-.36-.11-2.31-.63-4.85.25-6.63,1.84-1.92,1.72-3.81,4.73-3.6,7.39.58,7.39,8.75,7.75,14.22,9.07.26.06.96.07,1.22-.01.32-.1.11-.32.29-.6,1.26-1.85,2.52-3.71,3.78-5.56.23-.33.46-.69.5-1.09.05-.49-.21-.96-.47-1.38-1.35-2.23-2.9-4.33-4.64-6.27-1.22-1.36-2.6-2.69-4.32-3.28Z"/>
          <path class="cls-11" d="m259.07,67.08c.27-1.06.99-2.53,1.7-3.34.67-.77,1.18-1.72,1.87-2.44.88-.91-.55-2.25-1.43-1.34-.39.4-.64.79-.92,1.26-.42.7-1.06,1.17-1.51,1.85-.66.98-1.33,2.43-1.62,3.58-.31,1.22,1.6,1.66,1.91.44h0Z"/>
        </g>
        <g>
          <path class="cls-3" d="m267.89,50.19c-.12.02-.24.04-.37.07-2.34.49-4.2,2.44-5.05,4.68-.92,2.41-1.22,5.94.19,8.21,3.9,6.3,11.33,2.88,16.8,1.54.26-.06.88-.38,1.07-.57.24-.23-.05-.34-.01-.66.27-2.23.54-4.45.81-6.68.05-.4.09-.82-.06-1.19-.19-.46-.63-.75-1.05-1.01-2.22-1.36-4.56-2.52-7-3.45-1.71-.65-3.55-1.2-5.35-.94Z"/>
          <path class="cls-9" d="m281.01,63.21c-.25-1.07-.28-2.7-.03-3.75.24-.99.26-2.07.55-3.03.36-1.21-1.52-1.74-1.88-.54-.16.53-.2,1-.24,1.54-.06.82-.4,1.53-.5,2.34-.14,1.17-.07,2.77.2,3.93.28,1.23,2.18.74,1.9-.49h0Z"/>
        </g>
        <g>
          <path class="cls-16" d="m284.28,79.53c.07-.1.13-.21.19-.32,1.18-2.08.95-4.76-.17-6.88-1.2-2.28-3.65-4.85-6.28-5.29-7.31-1.24-9.66,6.59-12.27,11.57-.13.24-.3.91-.29,1.18.02.33.29.18.51.43,1.49,1.68,2.98,3.35,4.47,5.03.27.3.55.61.93.75.47.16.98.03,1.45-.12,2.49-.76,4.91-1.76,7.21-2.96,1.62-.85,3.25-1.87,4.24-3.39Z"/>
          <path class="cls-11" d="m265.83,80.75c.96.52,2.21,1.58,2.83,2.46.58.84,1.38,1.56,1.91,2.41.66,1.07,2.31.01,1.65-1.06-.29-.47-.61-.81-1-1.2-.58-.58-.88-1.31-1.42-1.92-.79-.88-2.03-1.88-3.07-2.45-1.11-.6-2,1.14-.89,1.75h0Z"/>
        </g>
        <g>
          <path class="cls-3" d="m251.69,62.74c-.1-.07-.2-.14-.31-.21-2.03-1.27-4.71-1.16-6.88-.15-2.34,1.09-5.01,3.43-5.57,6.04-1.57,7.24,6.14,9.95,11,12.79.23.14.9.34,1.17.34.33,0,.19-.28.45-.49,1.74-1.41,3.48-2.82,5.23-4.24.31-.25.64-.52.79-.9.19-.46.07-.98-.05-1.46-.65-2.52-1.53-4.98-2.63-7.34-.77-1.66-1.72-3.33-3.19-4.39Z"/>
          <path class="cls-9" d="m252.07,81.22c.56-.94,1.68-2.14,2.59-2.71.87-.55,1.62-1.31,2.5-1.8,1.1-.62.12-2.31-.98-1.7-.49.27-.84.58-1.24.94-.61.55-1.35.82-1.98,1.33-.92.75-1.97,1.94-2.59,2.96-.65,1.08,1.05,2.05,1.7.97h0Z"/>
        </g>
      </g>
      <g>
        <path class="cls-12" d="m215.38,112.9c-6.61-1.45-25.48-6.01-32.06-7.58-33.94-8.12-56.1-8.85-85.88-13.24-8.68-1.28-10.34-8.88-2.68-15.48,6.71-5.78,12.2-6.91,20.35-10.07,10.13-3.93,20.84-6.32,31.67-7.18,21.42-1.7,43.42,2.65,62.16,13.29,7.12,4.04,23.83,23.14,24.81,24.91,2.17,3.9,4.5,8.9,1.76,13.17-3.98,6.2-14.35,3.45-20.13,2.18Z"/>
        <path class="cls-13" d="m236.05,106.35c-1.85-7.77-7.44-12.5-13.35-17.26-4.97-4-8.56-9.12-14.18-12.38-2.64-1.53-5.45-2.99-8.16-4.41-2.94-1.54-6.14-1.59-9.21-2.63-7.13-2.4-13.44-5.81-21.03-6.85-7.57-1.03-15.12-.76-22.72-.31-7.44.45-15.26.22-22.33,2.95-3.27,1.26-6.36,2.9-9.68,4.06-2.98,1.04-6.6,1.42-9.33,3-5.96,3.45-9.57,10.74-11.65,16.94-.89,2.66-4.95,1.72-4.76-1.04.49-6.82,5.42-13.22,10.15-17.86,2.09-2.05,4.4-3.48,7.18-4.36,4.28-1.36,8.12-2.79,12.14-4.82,7.73-3.91,15.9-4.58,24.44-4.92,9.03-.36,18.08-.66,27.04.82,8.4,1.39,15.01,5.7,22.91,8.23,3.32,1.06,6.31,1.34,9.38,3.1,3.33,1.91,6.84,3.63,10.02,5.8,3.02,2.06,5.36,4.46,7.64,7.3,2.45,3.05,5.3,5.44,8.12,8.14,4.64,4.43,7.88,9.88,8.04,16.45,0,.39-.57.38-.66.03h0Z"/>
      </g>
      <g>
        <path class="cls-12" d="m103.11,139.89c6.53-1.79,25.14-7.31,31.63-9.22,33.48-9.86,55.57-11.72,85.09-17.63,8.6-1.72,9.87-9.4,1.88-15.59-7-5.43-12.54-6.27-20.84-9.01-10.32-3.4-21.14-5.25-32-5.55-21.48-.6-43.22,4.87-61.39,16.46-6.9,4.4-22.61,24.33-23.5,26.15-1.96,4.01-4.04,9.12-1.09,13.25,4.3,5.99,14.51,2.71,20.22,1.15Z"/>
        <path class="cls-13" d="m82.13,134.41c1.45-7.85,6.79-12.87,12.45-17.92,4.76-4.25,8.08-9.55,13.53-13.09,2.56-1.66,5.29-3.27,7.92-4.82,2.86-1.68,6.05-1.91,9.06-3.1,6.99-2.77,13.13-6.5,20.65-7.92,7.5-1.42,15.06-1.54,22.68-1.48,7.46.06,15.25-.57,22.45,1.8,3.33,1.1,6.5,2.57,9.87,3.55,3.03.89,6.66,1.08,9.47,2.52,6.13,3.14,10.11,10.23,12.51,16.32,1.03,2.61,5.03,1.46,4.7-1.28-.84-6.78-6.09-12.92-11.05-17.31-2.19-1.94-4.57-3.25-7.39-3.99-4.35-1.14-8.26-2.37-12.37-4.19-7.92-3.5-16.12-3.75-24.66-3.66-9.04.1-18.09.27-26.96,2.2-8.32,1.82-14.7,6.47-22.46,9.4-3.26,1.23-6.24,1.66-9.21,3.58-3.23,2.08-6.65,3.98-9.71,6.31-2.91,2.21-5.13,4.73-7.25,7.68-2.29,3.17-5.01,5.71-7.69,8.55-4.4,4.66-7.37,10.27-7.19,16.84.01.39.59.35.66,0h0Z"/>
      </g>
      <g>
        <path class="cls-6" d="m103.97,151.57c8.36,2.94,17.48-2.4,24.98-5.44,7.91-3.2,15.82-6.19,23.55-9.82,8.36-3.93,16.77-7.92,25.48-11.04,7.82-2.8,16.37-3.33,24.41-5.39,8.51-2.18,17.02-3.43,25.45-6.03,8.46-2.62,16.71-3.92,25.54-4.39,8.94-.47,17.33-1.01,26.03-3.16,8.3-2.05,17.02-2.1,25.21-4.8,3.4-1.12,3.16-6.31-.39-7.04-4.14-.85-8.27-.02-12.45.06-4.33.08-8.74-.03-13.04-.46-8.7-.87-16.67-2.57-25.48-1.95-9.3.66-18.41,1.91-27.35,4.65-4.29,1.31-8.51,3.14-12.9,4.1-4.24.92-8.58,1.26-12.8,2.33-8.07,2.04-16.51,2.91-24.49,5.22-8.44,2.45-16.69,6.58-24.61,10.34-7.97,3.79-16.1,7.24-24.06,11.04-4.17,1.99-8.12,4.44-12.27,6.43-3.71,1.77-12.1,7.82-15.83,9.61-5.01,2.41-.23,3.9,5.03,5.75h0Z"/>
        <path class="cls-7" d="m105.83,146.48c15.17.77,28.56-6.24,41.51-13.3,7.36-4.01,14.68-8.18,22.51-11.22,8.15-3.16,16.74-5.41,25.21-7.54,34.92-8.79,70.64-10.3,106.32-13.73.79-.08.73-1.27-.07-1.24-34.72,1.21-69.77,3.92-103.58,12.28-16.18,4-31.41,9.07-46,17.18-14.35,7.97-28.97,16.92-45.92,17.03-.36,0-.31.53.03.55h0Z"/>
      </g>
      <g>
        <path class="cls-4" d="m105.11,155.47c6.05,3.08,20.62,2.14,26.81-.03,6.4-2.25,12.63-4.87,19.05-7.08,12.98-4.47,26.22-7.95,39.68-10.64,27.08-5.4,54.23-8.41,81.64-11.33,8.15-.87,15.83-3.28,23.88-4.51,7.17-1.1,14.72-.43,21.77-2.08,3.58-.84,3.47-6.03.09-7.05-5.85-1.77-12.56-1.57-18.63-1.88-6.84-.35-13.6-1.87-20.45-1.95-13.96-.17-28.22,2.31-42.02,4.26-27.14,3.83-54.57,7.87-80.79,16.1-7.45,2.34-14.8,4.94-21.8,8.44-6.54,3.27-10.82,6.31-17.72,8.63-4.07,1.37-15.99,6.84-11.51,9.12h0Z"/>
        <path class="cls-7" d="m107.01,152.35c16.92.95,32.88-3.52,48.74-8.93,16.76-5.73,33.35-11.24,50.73-14.83,35.63-7.37,71.94-8.78,108.05-12.21.79-.08.73-1.27-.07-1.24-35.17,1.27-70.69,3.86-105.23,10.87-17.41,3.53-34.15,8.77-50.87,14.74-16.68,5.95-33.5,11.09-51.39,11.06-.36,0-.31.53.03.55h0Z"/>
      </g>
      <g>
        <path class="cls-5" d="m377.86,104.86c-6.92-.51-45.78,10.4-41.66,14.39,18.24,17.67,33.7,37.63,50.4,56.33,3.2,3.58,6.4,7.16,9.59,10.75.56.63,2.52,4.16,3.74,4.19,9.51.25,16.85-18.73,18.5-28.38,2.36-13.79-3.6-24.58-8.51-36.66-1.14-2.81-2.85-5.55-4.51-8.3-1.99-3.28-6.03-4-9.04-7.05-6.04-6.12-8.66-4.54-18.52-5.27Z"/>
        <path class="cls-8" d="m341.16,114.26c-1.65.64-3.2,1.6-4.59,2.94-3.49,3.38-.71,10.97,1.05,13.6,4.62,6.87,8.77,11.26,13.87,17.99,4.41,5.83,6.41,11.98,9.92,17.94,2.9,4.94,6.15,10.03,12.58,13.55,5.63,3.08,12.11,6.14,18.83,7.56,1.23.72,2.36,1.45,3,1.73,6.36,2.74,5.44-.87,3.72-4.11-5.86-11.04-15.77-20.77-21.73-31.77-5.78-10.65-3.6-26.24-13.66-34.57-3.92-3.24-14.65-8.1-22.97-4.87Z"/>
        <path class="cls-14" d="m344.96,123.67c-1.38.48-2.54,1.41-3.3,2.94-.56,1.14-.37,2.23-.06,3.23,3.82,12.25,16.07,21.92,22.58,33.05,3.92,6.69,13.25,15.46,24.16,16.2-.07-1.98-2.95-4.47-4.29-6.37-5.47-7.73-11.15-15.73-13.7-23.88-2.18-6.99-3.66-14.77-9.16-20.29-1.69-1.7-10.75-6.78-16.24-4.87Z"/>
      </g>
      <g>
        <g>
          <path class="cls-5" d="m328.88,114.04c-2.76-.83-5.87-1.4-9.41-1.65-3.87-.27-47.3,4.6-43.58,8.05,0,0,103.09,95.59,104.15,96.58.77.69,13.96-9.9,15.14-11.28,7.13-8.3,3.97-18.95-4.32-28.76-10.68-12.63-15.69-22.64-25.24-35.45-6.14-8.23-21.61-22.95-36.74-27.49Z"/>
          <path class="cls-8" d="m284.3,117.22c-.23.07-.45.13-.68.21-17.69,5.54,1.07,22.08,10.87,32.52,9.94,10.59,21.38,20.98,28.43,32.07,5.75,9.04,13.6,17.7,27.05,24.04,5.63,2.66,27.7,12.78,30.51,9.42,1.87-2.24-4.74-9.92-6.46-12.44-6.22-9.11-15.34-18.21-20.75-27.36-9.86-16.68-15.29-37.17-36.05-52.17-10.52-7.61-22.19-9.43-32.92-6.29Z"/>
          <path class="cls-14" d="m296.87,127.87c-5.89,1.03-7.02,3.26-4.73,7.51,4.15,7.71,14.5,15.52,21.34,22.84,7.25,7.76,11.15,15.49,16.45,23.49,5.96,8.98,19.75,21.15,35.34,23.16-.22-2.55-4.45-6.03-6.48-8.6-8.23-10.46-16.78-21.3-20.86-32.02-3.62-9.51-5.5-20-17.77-28.59-8.03-5.62-13.65-9.47-23.29-7.79Z"/>
        </g>
        <g>
          <path class="cls-5" d="m291.73,125.16c-10.06-1.9-18.56-3.37-27.54-2.18-9.6,1.27-21.46,1.25-27.55,5.43l93.92,106.57c9.49,1.41,16.74-1.84,21.59-5.01,3.12-2.04,5.62-4.36,8.24-6.69,4.79-4.27,3.67-7.44,1.87-13.23-1.47-4.74-5.95-8.07-8.31-12.85-4.63-9.39-17.51-18.73-20.75-28.12-1.24-3.58-3.29-7.18-5.29-10.78-2.39-4.3-2.84-8.49-6.73-12.7-7.79-8.44-15.42-17.79-29.44-20.44Z"/>
          <path class="cls-8" d="m246.04,125.99c-5.93.56-10.65,1.94-9.65,6.24,1.22,5.24,6.27,11.99,9.54,17.24,5.65,9.09,14.73,17.66,21.08,26.67,5.49,7.79,7.49,15.54,11.67,23.34,3.46,6.45,7.4,13.15,16.11,18.53,9.89,6.11,20.96,11.14,32.17,16.11,8.11,3.59,2.84-13.22,1.82-15.38-6.55-13.82-15.17-27.63-21.47-41.45-5.49-12.05-6.7-25.94-21.13-37.29-10.34-8.13-25.93-15.36-40.15-14.01Z"/>
          <path class="cls-14" d="m255.49,137.21c-6.83.65-8.49,2.88-6.64,7.45,3.36,8.27,13.71,17.09,20.17,25.14,6.86,8.54,9.92,16.82,14.54,25.47,3.03,5.67,6.5,11.91,12.64,17.2,2.6,2.24,16.43,10.56,20.76,11.59,9.1,2.15.05-10.36-1.02-13.16-2.6-6.82-6.88-14.55-9.26-21.37-4.35-12.48-11.2-30.78-26.22-42.61-8.1-6.38-13.79-10.76-24.97-9.69Z"/>
        </g>
        <g>
          <path class="cls-5" d="m258.37,132.96c-9.35-2.21-17.27-3.93-26.05-2.76-9.39,1.25-20.75,1.06-27.22,5.52l73.71,117.24c8.88,1.66,16.32-1.77,21.44-5.15,3.3-2.18,6.05-4.67,8.91-7.16,5.24-4.57,4.65-8.04,3.81-14.37-.69-5.18-4.47-8.86-6-14.1-3-10.28-13.91-20.62-15.59-30.88-.64-3.91-2.06-7.86-3.43-11.8-1.63-4.71-1.43-9.28-4.51-13.91-6.17-9.29-12.06-19.57-25.09-22.65Z"/>
          <path class="cls-8" d="m214.47,133.23c-5.76.53-10.5,1.96-10.19,6.65.37,5.71,4.18,13.13,6.51,18.89,4.02,9.96,11.42,19.42,16.13,29.3,4.07,8.55,4.81,17.01,7.62,25.55,2.33,7.06,5.08,14.41,12.6,20.38,6.6,5.24,14.34,10.62,22.94,13.92,1.43,1.21,2.71,2.4,3.48,2.9,7.69,4.94,7.6.04,6.32-4.56-1.01-3.64-1.07-7.49-2.41-11.1-1.99-5.36-6.16-10.45-8.72-15.73-2.9-5.96-4.53-11.9-6.29-17.85-2.16-7.27-1.42-13.57-1.67-20.65-.36-10.55.07-21.46-10-31.9-8.66-8.99-22.49-17.07-36.33-15.8Z"/>
          <path class="cls-14" d="m220.32,145.76c-6.44.59-8.28,2.97-7.15,7.96,2.04,9.04,10.53,18.78,15.49,27.62,5.27,9.39,7.04,18.42,10.21,27.89,3.56,10.63,14.34,25.59,29.99,29.33.53-2.87-2.86-7.18-4.21-10.26-5.48-12.51-11.19-25.46-12.28-37.86-.97-11,.18-22.93-10.07-33.73-6.71-7.06-11.43-11.92-21.97-10.96Z"/>
        </g>
        <g>
          <path class="cls-5" d="m211.14,142.92c-8.67-2.67-14.17-1.66-22.7-1.05-9.13.65-19.96-.2-26.69,3.72l54.24,114.03c8.28,2.12,15.81-.74,21.13-3.7,3.42-1.91,14.07-1.75,17.11-3.99,7.78-5.72,8.71-9.61,6.07-18.17-2.62-8.51-7.3-26.14-9.51-34.62-3.21-12.3-13.81-24.03-20.07-36.17-3.84-7.46-8.48-16.63-19.57-20.05Z"/>
          <path class="cls-8" d="m171.01,143.74c-5.57.17-10.28,1.27-10.56,5.81-.34,5.52.53,9.75,2.05,15.43,2.63,9.82,8.54,19.36,11.83,29.15,2.85,8.47,2.51,16.65,4.16,25.04,1.36,6.94,3.09,14.17,9.55,20.36,5.67,5.43,12.41,11.06,20.22,14.74,1.22,1.25,2.29,2.47,2.97,3,6.74,5.21,7.26.49,6.6-4.02-.52-3.56-.11-7.27-.94-10.82-1.24-5.28-4.6-10.42-6.41-15.65-2.04-5.9-2.87-11.72-3.83-17.55-1.17-7.13.3-13.14.94-19.97.95-10.17,2.69-20.65-5.65-31.29-7.18-9.16-17.55-14.62-30.93-14.21Z"/>
          <path class="cls-14" d="m174.61,153c-5.51-.03-7.22,2.05-6.57,6.86,1.17,8.7,7.77,18.66,11.44,27.44,3.89,9.33,4.83,18,6.93,27.21,2.36,10.34,10.58,25.42,23.64,30.36.63-2.66-1.98-7.03-2.94-10.05-3.88-12.29-7.92-25.02-8.07-36.8-.14-10.45,1.58-21.6-6.45-32.7-5.26-7.27-8.96-12.27-17.98-12.32Z"/>
        </g>
        <g>
          <path class="cls-5" d="m177.28,152.74c-6.54-4.08-51.46-3.33-49.46,2.72,8.81,26.81,13.72,54.43,20.48,81.45,1.3,5.18,2.59,10.35,3.89,15.53.23.9.33,5.39,1.52,6.06,6.44,3.6,26.98.03,31.6-1.44,2.98-.94,5.6-2.28,8.31-3.59,4.96-2.41,5.23-5.38,5.91-10.76.56-4.4-1.57-8.36-1.64-13.02-.14-9.15-1.61-21.23-.75-30.02.33-3.35.07-6.93-.15-10.49-.26-4.25-3.87-7.04-5.25-11.6-2.78-9.14-5.13-19.02-14.45-24.83Z"/>
          <path class="cls-8" d="m135.27,153.11c-1.95-.22-3.98-.09-6.04.52-5.18,1.53-6.37,10.42-5.99,13.92.99,9.15,2.81,15.6,4.35,24.86,1.33,8.01.12,15.09.49,22.77.3,6.35.87,13.04,5.37,19.82,3.95,5.94,8.74,12.3,14.62,17.17.84,1.35,1.57,2.65,2.06,3.25,4.84,5.98,5.8,1.96,5.79-2.12-.06-13.89-4.78-28.58-4.97-42.48-.18-13.47,10.01-27.68,4.41-41.06-2.18-5.22-10.23-15.53-20.09-16.65Z"/>
          <path class="cls-14" d="m134.14,164.33c-1.61-.24-3.23.07-4.76,1.19-1.14.83-1.51,2-1.72,3.14-2.57,14.02,4.49,29.86,5.15,44.17.4,8.61,5.05,22.06,15.4,28.42.95-1.98-.59-5.92-.93-8.48-1.39-10.43-2.85-21.23-1.14-30.57,1.46-8,4.02-16.42,1.47-24.7-.79-2.55-7.08-12.22-13.46-13.18Z"/>
        </g>
      </g>
    </g>
  </g>
</svg>