<?xml version="1.0" encoding="utf-8"?>
<!-- Generator: Adobe Illustrator 27.8.1, SVG Export Plug-In . SVG Version: 6.00 Build 0)  -->
<svg version="1.1" id="_レイヤー_2" xmlns="http://www.w3.org/2000/svg" xmlns:xlink="http://www.w3.org/1999/xlink" x="0px"
	 y="0px" viewBox="0 0 495.4 314.9" style="enable-background:new 0 0 495.4 314.9;" xml:space="preserve">
<style type="text/css">
	.st0{fill:#F3D4A1;stroke:#F3D4A1;stroke-width:0.88;stroke-linecap:round;stroke-linejoin:round;}
	.st1{fill:#FEEBBE;}
	.st2{fill:#FFFFFF;}
	.st3{fill:none;stroke:#FFFFFF;stroke-width:4.25;stroke-linecap:round;stroke-linejoin:round;}
	.st4{fill:#9EB87B;}
	.st5{fill:#489037;}
	.st6{fill:#F5A200;}
	.st7{fill:#F08300;}
	.st8{fill:#EB6100;}
	.st9{fill:#F08317;}
</style>
<g id="_イラスト">
	<g>
		<g>
			<path class="st0" d="M494.9,159.9c0,85.3-110.7,154.5-247.2,154.5S0.4,245.3,0.4,159.9S111.1,5.5,247.7,5.5
				S494.9,74.6,494.9,159.9L494.9,159.9z"/>
			<ellipse class="st1" cx="247.7" cy="154.5" rx="247.2" ry="154.5"/>
			<ellipse class="st2" cx="247.7" cy="157.8" rx="189.8" ry="118.6"/>
			<ellipse class="st3" cx="247.7" cy="157.8" rx="227.8" ry="142.3"/>
		</g>
		<g>
			<path class="st4" d="M152.6,132.1c0,0-28.3-5.9-38,0.1c-9.7,6.1-16.6-1.1-25.5,3.1c-9,4.3-17.4,9.6-17.4,9.6s2.8-5.1,9.9-9.6
				c7.2-4.5,21.6-6.1,25.5-7.2c3.9-1.1,35.9-4.9,42.2-0.8C155.7,131.6,152.6,132.1,152.6,132.1L152.6,132.1z"/>
			<path class="st5" d="M152.9,132c0,0-29.4-7.1-39.1-1s-16.6-1.1-25.5,3.1c-9,4.3-16.9,11.2-16.9,11.2s2.4-6.8,9.5-11.3
				c7.2-4.5,21.6-6.1,25.5-7.2c3.9-1.1,35.9-4.9,42.2-0.8C155,130.3,152.9,132,152.9,132L152.9,132z"/>
		</g>
		<path class="st6" d="M415.6,154.9c-7.6-13.5-22.9-22.6-37.7-28.9c-2.2-1-4.5-1.9-6.8-2.7c-3.1-2-6.3-3.9-9.6-5.6
			c-1.2-0.6-2.5-1.2-3.8-1.8c-6.4-7.9-18.8-10.2-29.2-10.8c-2.2-0.1-4.5-0.2-6.7-0.1c-10.9-1.9-22.1-2.8-33-2.9
			c-34-0.2-74.1,8.2-100.5,29.2c-2,0.1-4,0.1-6,0.3c-8.1,0.6-17.6,1.9-24.7,6.6c-9.4-0.8-18.9-1.3-28.4-0.6
			c-10.2,0.8-22.5,2.6-29.4,11.3c-1.7,2.1-1.9,4.8,0,6.8c3.7,4,7.7,7.2,12.1,9.8c-0.6,1.9-0.8,4-0.6,6.4c0.9,8.2,4.4,16,8.4,23.2
			c-4.8-3.1-9.3-6.8-13.3-11.4c-3.5-4-8.4,0.4-7.8,4.7c0.7,5.3,2,10.5,3.8,15.5c18.1,48.4,75.3,66.7,121.3,66.4
			c10.8-0.1,21.7-1.1,32.4-3.2c2.2,0,4.5,0,6.7-0.2c4.7-0.3,9.8-1.1,14.6-2.6c0.3,0,0.7,0,1,0c10.9-0.1,22.1-1.1,32.9-3.2
			c2.3,0,4.6,0,6.8-0.2c10.4-0.7,22.8-3.3,29.2-12.4c1.3-0.7,2.5-1.4,3.8-2.1c3.3-1.9,6.5-4.1,9.6-6.4c2.3-1,4.6-2,6.8-3.1
			c14.8-7.2,30.1-17.6,37.7-32.9c0.6-1.1,1.1-2.3,1.5-3.4c3.1-0.8,5.9-2.3,8.3-4.8c4.6-4.9,5.8-11.4,6-17.6
			C421.5,170.1,419.6,162.2,415.6,154.9L415.6,154.9z"/>
		<path class="st7" d="M343.9,197.7c-3.8-3.5-8.1-6.3-12.7-8.6c0.6-1.7,0.9-3.5,0.6-5.6c-1-7.2-4.6-14.1-8.8-20.4c5,2.7,9.7,6,14,10
			c3.7,3.5,8.8-0.3,8.2-4.1c-0.8-4.6-2-9.2-4-13.6c-19-42.5-79-58.5-127.3-58.2c-11.3,0.1-22.8,0.9-34.1,2.9c-2.3,0-4.6,0-6.9,0.1
			c-10.7,0.6-23.5,2.9-30.1,10.8c-1.3,0.6-2.6,1.2-3.9,1.8c-3.4,1.7-6.7,3.6-9.9,5.6c-2.4,0.9-4.7,1.8-7,2.7
			c-15.3,6.4-31,15.4-38.9,28.9c-4.2,7.2-6.1,15.1-5.8,23.2c0.2,6.1,1.4,12.7,6.2,17.6c3.1,3.2,7,4.8,11.2,5.3
			c3.9,6.2,11.3,9.8,19.8,10.4c5.2,2.8,11.1,4.9,17,5.9c18,3.2,36.4,0.9,54.3-1.6c13.2-1.9,26-4.1,39.4-3.2
			c14.4,0.9,28.8,2.8,43.1,4.1c14.8,1.4,29.9,2.8,44.8,1.8c10.7-0.7,23.6-2.3,30.9-9.9C345.6,201.8,345.8,199.5,343.9,197.7
			L343.9,197.7z"/>
		<path class="st7" d="M360,136.5c-28.3-24-63.5-36.1-97.1-37.7c-23.4-1.1-46.8,4.3-68.2,16.7c-6.9,3.9-13.5,8.7-19.8,14
			c-12.6,2.3-24.6,7.7-35.6,17.5c-12.2,10.8-24.1,23.9-33.5,38.6c-4.1,6.4-8.2,13.9-8.9,22.4c-0.7,8.5,3.7,14.2,9.4,17.2
			c16,8.3,32.8-13.8,43.5-26.2c6.5-7.6,12.6-15.1,20-21.5c9.8-8.4,20.4-15.2,31.5-20.2c11.8-5.3,24.9-8.6,37.9-9
			c16.8,3.8,33.5,9.3,49.6,16.5c5.7,3.8,11.4,7.9,17,11.5c14.3,9.2,29.2,18.6,45.3,21.1c12,1.9,27.4-4.9,29.7-22.4
			C383,157.8,369.9,144.9,360,136.5L360,136.5z M107.5,210.4c0.5,0.7,0-0.9,0-0.3c-0.1-1.5-0.1-1.1,0.4-3.1c0.7-3.2,2.6-6.6,4.2-9.6
			c7.8-14,19.2-25,29.2-35.4c2.2-2.3,4.5-4.3,6.8-6.1c-10.8,12.4-23.1,30.1-20.1,48.4c-1.8,1.6-3.6,3.2-5.5,4.6
			C118,212.5,111.2,215.4,107.5,210.4L107.5,210.4z"/>
		<path class="st7" d="M420.1,153.5c-0.5-2.7-1.2-5.3-2.3-7.9c-1.3-3.2-3.1-6.1-5.2-8.8c0.1-1,0.1-2,0.2-3c0.3-9.2-1.7-18.2-6-26.4
			c-8.1-15.4-24.4-25.7-40.2-33c-2.4-1.1-4.8-2.1-7.2-3.1c-3.3-2.3-6.7-4.4-10.2-6.4c-1.3-0.7-2.7-1.4-4-2.1
			c-6.9-9-20.1-11.7-31.1-12.4c-2.4-0.2-4.9-0.2-7.3-0.2c-11.6-2.2-23.5-3.2-35.1-3.2C221.7,46.7,159.6,65,140,113.5
			c-2,5-3.4,10.2-4.1,15.5c-0.6,4.2,4.4,8.4,8.1,5c0.2,0.7,0.5,1.3,0.8,2c-7.1,3.4-12.5,8.6-13.4,16.2
			c-9.4,10.5-17.1,22.1-22.4,34.5c-2.2,5.2,5.8,7.8,9.4,4.3c-0.8,1.8-1.4,3.7-1.6,5.7c-0.7,6.4,4.1,10.7,10.3,12.9
			c11.2,4,22.8-1.3,32.7-8.1c16.6-2.1,33.6-1.2,50.1,0.4c23.2,2.2,46.1,6.7,69.1,10.1c14.4,2.2,28.7,4.5,43.2,6.3
			c16.7,2,33.8,3.4,50.5,0.6c10.5-1.7,20.9-6.1,26.5-14.6c1.5-2.3,0.6-4.8-1.5-6.4c1.5,0,3-0.1,4.5-0.4c6-1.2,11.9-3.7,15.5-8.3
			c1.3-1.7,1.9-3.6,2-5.5c4.2-2.8,7.3-6.7,8.3-11.8C429.1,164.7,425.5,158.6,420.1,153.5L420.1,153.5z M354.2,210.5
			c-16.5,0.2-32.9-2.1-49.1-4.6c-17-2.6-34-5.2-51-7.9c-23.6-3.8-47.4-7.3-71.4-7.6c-2.9,0-5.9,0-8.8,0.1c0.3-0.2,0.6-0.4,0.8-0.7
			c4.2-3.3,8.2-6.7,12.5-9.8c9.4-0.4,18.8-1.3,28.1-2.3c3.1-0.3,6.2-0.7,9.4-1.1c8.3,1.3,16.5,3.1,24.6,4.8
			c16.4,3.5,32.6,6.2,49.5,7.4c16.7,1.2,33.5,1.8,50.1,3.9c12.9,1.6,26.2,4.2,37.5,10.1C378.4,209.7,364.5,210.4,354.2,210.5
			L354.2,210.5z"/>
		<path class="st6" d="M405,139.6c-5.8-8.5-15.1-15.2-25.8-20.6C355.6,81.5,295,67.1,245.9,67.4c-12.2,0.1-24.6,0.9-36.7,2.9
			c-2.5,0-5,0-7.5,0.1c-11.5,0.6-25.3,2.9-32.4,10.8c-1.4,0.6-2.8,1.2-4.2,1.8c-3.7,1.7-7.2,3.6-10.7,5.6c-2.5,0.9-5.1,1.8-7.6,2.7
			c-16.5,6.4-33.4,15.4-41.8,28.9c-4.5,7.2-6.6,15.1-6.3,23.2c0.1,3.1,0.5,6.3,1.5,9.4c-0.6,1.9-1.1,3.8-1.4,5.7
			c-0.7,3.6,4.8,7.3,9,4.5c2.6,1.7,5.4,2.7,8.5,3.2c-0.9,2.2-1.6,4.5-2,6.9c-0.3,2.1,0,3.9,0.7,5.6c-5.3,2.3-10.3,5.1-14.8,8.6
			c-2.3,1.8-2,4.2,0,6c8.5,7.6,23.6,9.2,36,9.9c17.4,1,35-0.4,52.3-1.8c16.8-1.4,33.5-3.2,50.4-4.1c15.7-0.9,30.6,1.3,46.1,3.2
			c20.9,2.6,42.5,4.8,63.5,1.6c6.9-1.1,13.7-3.1,19.9-5.9c9.9-0.6,18.6-4.2,23.2-10.4c4.9-0.5,9.5-2.1,13.1-5.3
			c5.6-4.9,6.9-11.4,7.2-17.6C412.1,154.7,409.9,146.9,405,139.6L405,139.6z"/>
		<path class="st6" d="M395.5,101c-2.5-4.5-5.7-8.5-9.3-12.2c0,0,0-0.1-0.1-0.1c-8.6-14.9-25.2-25-41.3-32.1c-2.5-1.1-5-2.1-7.5-3.1
			c0,0,0,0-0.1,0c-3.4-2.3-7-4.4-10.6-6.3c-1.4-0.7-2.7-1.4-4.1-2.1c0,0-0.1-0.1-0.1-0.1c-7.2-9-20.9-11.6-32.4-12.3
			c-2.5-0.2-5-0.2-7.6-0.2c0,0,0,0-0.1,0c-12.1-2.2-24.4-3.1-36.5-3.2c-51.9-0.4-116.4,17.9-136.9,66.1c0,0.1-0.1,0.2-0.2,0.2
			c-9.2,6-16.9,14.3-22,23.4c-12.7,22.5-6.7,44.3-3,50.9c10.5,18.9,31.2,24.3,37.4,25.5c19.3,3.6,56.7-5.1,75.9-8.1
			c14.3-2.2,27.9-4.6,42.4-3.7c15.5,1.1,30.9,3.2,46.4,4.7c15.9,1.6,32.2,3.1,48.2,2.1c11.5-0.8,25.4-2.6,33.2-11.3
			c1.9-2.1,2.1-4.8,0-6.8c-2.3-2.2-4.8-4.2-7.4-6c0.6-0.3,1.2-0.6,1.7-0.9c0,0,0.1-0.1,0.2-0.1c9-0.8,17-4.7,21.2-11.7
			c0.1-0.1,0.2-0.2,0.3-0.2c4.5-0.6,8.6-2.4,11.9-6c5.1-5.5,6.4-13,6.6-20C402.1,118.1,400.1,109.2,395.5,101L395.5,101z
			 M381.1,124.6c-0.1,0.4-0.6,0.4-0.8,0c-0.8-1.7-1.7-3.3-2.8-4.8c0-0.1-0.1-0.1-0.1-0.2c-0.4-2.9-1.2-5.9-2.4-8.7
			c0-0.1,0-0.2,0-0.3c0.7-2,1-4.2,0.9-6.6c-0.2-4.8-2-9.4-4.5-13.7c-0.2-0.4,0.2-0.9,0.6-0.6c1.9,1.5,3.7,3,5.5,4.7
			c0,0,0.1,0.1,0.1,0.1c1.8,3.2,3.1,6.7,4,10.3C382.9,110.8,383.3,118.4,381.1,124.6L381.1,124.6z"/>
		<path class="st7" d="M174.9,51.1c-2.3,1.4-4.4,2.9-6.4,4.6c-5.3,3-10.2,6.5-14.7,10.7c-6.4,6-10.9,12.8-15.2,20.2
			c-0.6,1.1-1.2,2.2-1.8,3.2c-6.3,2.3-12.3,5.2-17.9,8.8C128.3,75.9,149.9,60.5,174.9,51.1L174.9,51.1z"/>
		<g>
			
				<ellipse transform="matrix(0.7483 -0.6634 0.6634 0.7483 -3.3812 123.5792)" class="st8" cx="161.1" cy="66.2" rx="37.8" ry="22.7"/>
			<path class="st9" d="M176.2,80.3c-14.4,12.1-31.6,14.6-38.4,5.6s-0.7-26.1,13.7-38.2c14.4-12.1,31.6-14.6,38.4-5.6
				S190.6,68.2,176.2,80.3z"/>
		</g>
		<g>
			<path class="st4" d="M284.5,44.1c0,0,28.9-1.3,37.5,6.2c8.7,7.5,16.5,1.5,24.8,7.2s15.8,12.2,15.8,12.2s-2-5.5-8.4-11.1
				s-20.5-9.5-24.2-11.2c-3.7-1.7-34.8-10.6-41.6-7.5C281.5,43,284.5,44.1,284.5,44.1L284.5,44.1z"/>
			<path class="st5" d="M284.1,43.9c0,0,30.1-2.3,38.8,5.3c8.7,7.5,16.5,1.5,24.8,7.2s15.1,13.8,15.1,13.8s-1.4-7.1-7.8-12.7
				s-20.5-9.5-24.2-11.2c-3.7-1.7-34.8-10.6-41.6-7.5C282.4,41.9,284.1,43.9,284.1,43.9z"/>
		</g>
		<path class="st7" d="M368,84.8c-16.6-24.6-49.5-36.1-81-38.8c-40.7-3.5-92.2,5.7-125.3,33.3c-20.8,10.5-38.3,25.7-48.2,46.4
			c-1.8,3.9,2.2,8.7,6.8,5.6c40.9-27.1,90.4-44.1,139-41.4c2.7,0.2,5.3-1,6.1-3.6c0.7-2.2-0.8-5.1-3.4-5.3
			c-18.4-1.1-37,0.5-55.1,4.2c24.7-8.1,50.5-12.1,76.1-10.7c0.8,0.1,1.6,0,2.3-0.2c20.3,5.1,39.4,14.7,50.3,31
			c3.2,4.8,11.8-0.4,8.6-5.2c-16.6-24.6-49.5-36.1-81-38.8c-17.1-1.5-36.1-0.7-54.9,2.8c0.4-0.2,0.9-0.3,1.3-0.5
			c28-9.3,58.5-11.9,86.5-7.3c24.9,4,49.9,13.9,63.2,33.6C362.6,94.8,371.2,89.6,368,84.8L368,84.8z"/>
		<g>
			
				<ellipse transform="matrix(0.6534 -0.757 0.757 0.6534 53.3949 282.2068)" class="st8" cx="334.9" cy="82.8" rx="22.7" ry="37.8"/>
			<ellipse transform="matrix(0.6534 -0.757 0.757 0.6534 54.1347 279.3795)" class="st9" cx="332.2" cy="80.6" rx="20.5" ry="34"/>
		</g>
		<path class="st7" d="M402.7,168.9c-0.3-6.7-4.9-12.6-11.5-16.9c2.8-1.1,5-4.5,3.1-7.7c-16.6-28.3-49.5-41.5-81-44.6
			c-2.7-0.3-5.5-0.5-8.3-0.6c-41.6-10.6-91-2.7-128.4,12.9c-33.4,13.9-65.5,37.9-75.7,70.7c-2,6.4,9.1,9.1,11,2.7
			c1.2-3.9,2.8-7.6,4.6-11.2c2.9,2.3,9.7,2.4,11.5-1.4c5.2-11.4,24.5-16.4,40-19.2c2.4-0.4,4.9-0.8,7.3-1.2
			c-3.8,5.2-7.1,10.9-10,16.9c-14.9,3-29.3,7.5-42.7,14.1c-7.1,3.5-0.7,13,6.4,9.5c7.3-3.6,14.9-6.5,22.8-8.9
			c-0.1,2.6,3.7,5.4,7.9,3.8c29.4-11.5,63.6-3.8,93.1,3.3c31.1,7.5,63.8,17.4,97,13.5c11.5-1.3,24.9-5.4,35.4-11.6
			c5.8,2.9,11.3-2.4,8.4-6.1C399.4,182,403,175.8,402.7,168.9L402.7,168.9z M132.4,155.1c-1.4,0.7-2.8,1.5-4.1,2.4
			c11.2-12.7,26.1-22.9,41.7-30.8c24.1-12.2,51.6-19.7,79.4-21.5c-17.5,4.7-34.4,12.1-49,22.7c-5.4,1.6-10.8,3.4-16.1,5.5
			c-2.9,1.1-3.5,4.8-2.1,7c0.5,0.8,1.2,1.4,1.9,1.7c-0.2,0.2-0.5,0.5-0.7,0.7C165.5,144.4,146.9,147.7,132.4,155.1L132.4,155.1z
			 M276.4,188.7c-19.4-4.7-40.1-10.4-60.9-13c10-0.1,19.9,0.2,29.7,0.8c38.9,2.4,77.3,9.6,115,18.2
			C333.3,202.1,302.5,195,276.4,188.7L276.4,188.7z M370.2,191.1c0.7-2.6-0.5-5.6-4.3-6.5c-40.1-9.2-80.9-16.8-122.4-19.2
			c-17.2-1-34.9-1.2-52.4,0.4c9.5-5.9,19.4-11.2,29.5-15.8c0.8,0,1.6,0,2.5,0.1c12,0.4,23.5,1,35.3,2.7c13.2,1.9,26.1,4.6,38.7,7.8
			c25.5,6.4,49.9,15,72.5,25.2c2,0.9,4,1.9,6,2.8C373.8,189.4,372,190.3,370.2,191.1L370.2,191.1z M384.9,182.3
			c-19.2-9.3-39.8-17.1-61.2-23.7c-24.4-7.5-50.2-13.5-76.9-16c-1.9-0.2-3.9-0.3-5.8-0.5c22.3-7.4,45.4-11,68.3-9.5
			c2,0.1,3.9-0.5,5.1-2.1c13.5,2,26.8,5,39.8,8.8c6,1.8,8.8-4.9,5.6-8.5c-4.1-4.6-8.6-8.7-13.4-12.4c15.4,6.2,29.3,15.8,38.3,30.2
			c0,0,0,0,0,0c-12.1-5-27-4.9-39.6-1.3c-6.2,1.8-3.5,9.4,2.8,7.6c14.4-4.1,33.9-3.1,42.3,8.1C395.3,170.1,391.5,176.8,384.9,182.3
			L384.9,182.3z"/>
		<g>
			
				<ellipse transform="matrix(0.815 -0.5794 0.5794 0.815 -52.9497 203.8848)" class="st8" cx="292.9" cy="184.9" rx="37.6" ry="22.8"/>
			<path class="st9" d="M306.5,200.5c-15.5,10.4-32.9,11-38.8,1.3s1.9-26,17.4-36.4s32.9-11,38.8-1.3S322,190.1,306.5,200.5z"/>
		</g>
		<g>
			<path class="st4" d="M242.2,208.5c0,0,26.2,4.5,30.6,13.8s14,4.9,18.9,12.2c4.9,7.3,8.7,15.4,8.7,15.4s0.6-5.9-2.7-12.8
				c-3.3-6.9-14.1-13.6-16.6-16.1s-26.3-17.6-33.7-15.8S242.2,208.5,242.2,208.5z"/>
			<path class="st5" d="M242,208.2c0,0,27.7,3.8,32.1,13.1s14,4.8,18.9,12.2s7.5,16.8,7.5,16.8s1.9-7.4-1.4-14.2
				c-3.3-6.9-14.1-13.6-16.6-16.1c-2.6-2.5-26.3-17.6-33.7-15.9C241.3,205.9,242,208.2,242,208.2L242,208.2z"/>
		</g>
		<g>
			<path class="st4" d="M238,248c0,0-25.3,8.5-33.2,2.4c-8-6.2-14.6,2.4-22.1-1.8s-14.4-9.5-14.4-9.5s2,5.6,7.9,10.1
				c5.9,4.6,18.4,5.4,21.8,6.4c3.4,1,31,3.1,36.9-2C240.6,248.5,238,248,238,248L238,248z"/>
			<path class="st5" d="M238.3,248.2c0,0-26.3,9.9-34.3,3.7c-8-6.2-14.6,2.4-22.1-1.8S168,238.6,168,238.6s1.5,7.5,7.4,12
				c5.9,4.6,18.4,5.4,21.8,6.4c3.4,1,31,3.1,36.9-2C239.9,249.9,238.3,248.2,238.3,248.2L238.3,248.2z"/>
		</g>
		<g>
			<path class="st4" d="M106.9,97.4c0,0,23.1-13.7,32.1-9.4c9,4.3,13.8-5.4,22-2.9c8.2,2.5,16,6.3,16,6.3s-3.1-5-9.7-8.2
				s-19.1-1.4-22.5-1.6s-31,3.5-35.7,9.7C104.2,97.5,106.9,97.4,106.9,97.4L106.9,97.4z"/>
			<path class="st5" d="M106.6,97.3c0,0,23.9-15.2,32.9-10.9c9,4.3,13.8-5.4,22-2.9c8.2,2.5,15.9,8.2,15.9,8.2s-2.9-7-9.6-10.2
				s-19.1-1.4-22.5-1.6s-31,3.5-35.7,9.7C104.6,96,106.6,97.3,106.6,97.3L106.6,97.3z"/>
		</g>
		<g>
			<path class="st4" d="M381.7,163.6c0,0-17.9,23.8-29,25.8c-11.1,2-11.9,12.1-21.4,15c-9.5,2.9-19.1,4.6-19.1,4.6s5.3,2,13.5,0.5
				s20.2-10.1,23.9-11.9c3.7-1.8,30.3-20.8,32.6-28.2S381.6,163.6,381.7,163.6L381.7,163.6z"/>
			<path class="st5" d="M382,163.4c0,0-18,25.4-29.1,27.4c-11.1,2-11.9,12.1-21.4,15c-9.5,2.9-19.8,3.1-19.8,3.1s6,3.5,14.2,2.1
				c8.2-1.5,20.2-10.1,23.9-11.9c3.7-1.8,30.3-20.8,32.6-28.2C384.6,163.3,382,163.4,382,163.4L382,163.4z"/>
		</g>
		<g>
			<path class="st8" d="M406.7,160c-6.7,20.3-21.4,33.4-32.9,29.2c-11.5-4.2-15.4-24-8.8-44.4s21.4-33.4,32.9-29.2
				C409.4,119.8,413.3,139.7,406.7,160L406.7,160z"/>
			<path class="st9" d="M405.7,155.8c-6,18.3-19.3,30.1-29.6,26.3c-10.4-3.8-13.9-21.6-7.9-39.9s19.3-30.1,29.6-26.3
				C408.2,119.7,411.7,137.5,405.7,155.8z"/>
		</g>
		<path class="st7" d="M296.4,246.6c-4.8,0.5-9.6,0.9-14.5,1.1c-0.4-0.1-0.9-0.2-1.3-0.2c5.3-0.1,10.5-0.6,15.8-1.2
			c15.7-2.1,31.7-6.2,46.2-12.9c0.1,0.1,0.2,0.2,0.4,0.3c-0.2-0.1,0,0,0,0.5c0.1,0.5,0,1.4-0.3,2.4
			C327.6,241.4,312.1,245,296.4,246.6L296.4,246.6z"/>
		<path class="st7" d="M352.4,233.1c-0.1-1.4-0.5-2.9-1.3-4.1c8.1-4.5,15.9-9.9,22.6-16.4c-1.8,2.9-3.8,5.7-6.1,8.3
			c-3.5,4-7.5,7.6-11.7,10.9C354.8,232.2,353.6,232.6,352.4,233.1L352.4,233.1z"/>
		<path class="st7" d="M341,205.8c-53,15.6-112.2,17.2-164.1-2.7c-2.9-1.1-6.1-0.8-7.8,1.8c-1.4,2.2-0.8,5.9,2.1,7
			c18.3,7,37.4,11.6,56.8,14c7.9,4.2,16.3,7.4,25.2,9.4c8.6,2,17.4,2.7,26.2,2.6c-8.6,1.6-17.5,2.5-26.3,2.6
			c-33.3,0.5-67.3-7.2-96.3-21.9c-25.8-13.1-49.8-32.6-57.9-58.9c-2-6.4-13-3.6-11,2.7c4.9,15.9,15,29.8,27.9,41.4
			c-1.4-0.9-2.8-1.8-4.2-2.8c8.4,22.7,27.5,38,49.6,47.4c-2-1.4-3.9-2.9-5.7-4.6c-4.7-3-9-6.5-13-10.7c-5.1-5.4-8.9-11.5-12.3-18
			c10.4,7.2,21.8,13.2,33.3,18c56.4,23.5,140,29.4,183.1-18.8C349.8,210.7,346.9,204,341,205.8z M283.5,237
			c-17-0.5-34-3.8-49.7-10.5c29.4,2.9,59.3,0.9,88.2-5.3C310.6,228.8,297.4,234,283.5,237L283.5,237z"/>
		<path class="st7" d="M93.2,155.9c-3.5-6.5-3.2-15.7-1.6-22.6c2-8.2,6.3-15.6,12.7-21.6c0.7-0.7,1.4-1.3,2.1-1.9
			c2.4-2.1,1,4.8,0.8,5.6c-0.8,4.2-1.7,7.6-0.4,11.9c0.1,0.3,0.1,0.7-0.1,1c-2.8,6.6-5.7,13.4-7.3,20.4c-0.3,1.3-2.5,12-5.1,9
			C93.9,157.2,93.5,156.6,93.2,155.9L93.2,155.9z"/>
		<g>
			<path class="st8" d="M189,172.7c16.1,13.2,23.2,32.1,15.7,42.2c-7.5,10.1-26.6,7.6-42.8-5.6s-23.2-32.1-15.7-42.2
				C153.7,157,172.8,159.5,189,172.7L189,172.7z"/>
			
				<ellipse transform="matrix(0.6534 -0.757 0.757 0.6534 -83.0457 196.1754)" class="st9" cx="172.7" cy="188.8" rx="20.4" ry="34"/>
		</g>
		<g>
			<path class="st4" d="M104,193.9c0,0,15.6-32.8,28-37.5c12.4-4.7,11.1-17.3,21.4-22.7c10.3-5.4,21.1-9.5,21.1-9.5
				s-6.6-1.3-15.7,2.1c-9.2,3.5-21.2,16.5-25,19.5c-3.9,3-30.6,31.6-31.6,41.1S104,194,104,193.9L104,193.9z"/>
			<path class="st5" d="M103.6,194.2c0,0,15.4-34.7,27.8-39.4c12.4-4.7,11.1-17.3,21.4-22.7c10.3-5.4,22.2-7.8,22.2-7.8
				s-7.7-3.1-16.9,0.4c-9.2,3.5-21.2,16.5-25,19.5c-3.9,3-30.6,31.6-31.6,41.1S103.6,194.2,103.6,194.2z"/>
		</g>
		<path class="st1" d="M265.8,158.3c0,0,27.3,11.1,35.7,8.8s19.6-22.8,28-25.8c8.4-2.9,22.4-22.8,21.7-29.5
			c-0.7-6.6,9.1,17.7-7.7,28.7c-16.8,11.1-13.7,28.3-28.7,34.6c-28,11.8-51.9-5.9-64.5-5.9s-30.1,0-42.8-0.7
			c-12.6-0.7-30.2-8.7-36.5-24.9c0,0,19,19,40.7,13.9C233.5,152.4,253.8,153.1,265.8,158.3L265.8,158.3z"/>
	</g>
</g>
</svg>
