<?xml version="1.0" encoding="UTF-8"?>
<svg id="_レイヤー_1" data-name="レイヤー 1" xmlns="http://www.w3.org/2000/svg" xmlns:xlink="http://www.w3.org/1999/xlink" viewBox="0 0 494.5 314.4">
  <defs>
    <style>
      .cls-1 {
        clip-path: url(#clippath);
      }

      .cls-2, .cls-3, .cls-4, .cls-5, .cls-6, .cls-7, .cls-8, .cls-9, .cls-10, .cls-11, .cls-12, .cls-13, .cls-14, .cls-15, .cls-16, .cls-17, .cls-18 {
        stroke-width: 0px;
      }

      .cls-2, .cls-19 {
        fill: none;
      }

      .cls-3 {
        opacity: .2;
      }

      .cls-3, .cls-7 {
        fill: #93431d;
      }

      .cls-3, .cls-18 {
        isolation: isolate;
      }

      .cls-20 {
        clip-path: url(#clippath-1);
      }

      .cls-19 {
        stroke: #fff;
        stroke-linecap: round;
        stroke-linejoin: round;
        stroke-width: 4.25px;
      }

      .cls-4 {
        fill: #f8b500;
      }

      .cls-5 {
        fill: #489037;
      }

      .cls-6 {
        fill: #74a92d;
      }

      .cls-8 {
        fill: #f08300;
      }

      .cls-9 {
        fill: #fff;
      }

      .cls-10 {
        fill: #ffe55f;
      }

      .cls-11 {
        fill: #e5a83f;
      }

      .cls-12 {
        fill: #feebbe;
      }

      .cls-13 {
        fill: #ea5504;
      }

      .cls-14 {
        fill: #fdd000;
      }

      .cls-15 {
        fill: #004471;
      }

      .cls-16 {
        fill: #00001c;
      }

      .cls-17 {
        fill: #691c07;
      }

      .cls-18 {
        fill: #782410;
        opacity: .25;
      }
    </style>
    <clipPath id="clippath">
      <ellipse class="cls-2" cx="317.3" cy="82.9" rx="29.6" ry="26"/>
    </clipPath>
    <clipPath id="clippath-1">
      <path class="cls-2" d="m393.5,110.3c-2,14.1-16.8,23.6-33,21.2-16.2-2.4-27.6-15.8-25.5-29.9,2-14.1,16.8-23.6,33-21.2,16.1,2.4,27.6,15.8,25.5,29.9Z"/>
    </clipPath>
  </defs>
  <g id="_レイヤー_2" data-name=" レイヤー 2">
    <g id="_イラスト" data-name=" イラスト">
      <g>
        <g>
          <path class="cls-16" d="m494.5,159.9c0,85.3-110.7,154.5-247.2,154.5S0,245.3,0,159.9,110.7,5.5,247.3,5.5s247.2,69.1,247.2,154.4h0Z"/>
          <ellipse class="cls-15" cx="247.3" cy="154.5" rx="247.2" ry="154.5"/>
          <ellipse class="cls-9" cx="247.3" cy="157.8" rx="189.8" ry="118.6"/>
          <ellipse class="cls-19" cx="247.3" cy="157.8" rx="227.8" ry="142.3"/>
        </g>
        <g>
          <path class="cls-17" d="m89.6,177.5c-.7,16.8-3.6,28.6,16.2,43.7s22.4,35.9,99.6,45.1c86.7,10.3,174.1-14.4,186.7-37.9,12.6-23.6,44.5-32.4,15.7-76.1s-61.1-52.2-111.4-53.8-203.2-3.4-206.8,79h0Z"/>
          <path class="cls-6" d="m317.7,40.4c-.1-.4-.3-.8-.7-1-.4-.2-.8-.3-1.2-.1-31.2,10-63.6,15.6-96.4,16.5-.4,0-.8.2-1.1.5s-.4.8-.3,1.2l1.8,10.7c.1.7.7,1.2,1.4,1.2h0c33-.9,65.7-6.5,97.2-16.7.7-.2,1.1-.9,1-1.7l-1.7-10.6h0Z"/>
          <path class="cls-6" d="m352.2,53.8c-.1-.4-.3-.8-.7-1-.4-.2-.8-.3-1.2-.1-31.2,10-63.6,15.6-96.4,16.5-.4,0-.8.2-1.1.5s-.4.8-.3,1.2l1.8,10.7c.1.7.7,1.2,1.5,1.2h0c33-.9,65.7-6.6,97.2-16.7.7-.2,1.1-.9,1-1.7l-1.8-10.6h0Z"/>
          <path class="cls-5" d="m322.5,52.5c0-.4-.2-.8-.5-1.1s-.8-.4-1.2-.3c-18.9,3.2-38.1,4.8-57.3,4.8-13.5,0-27.1-.8-40.5-2.4-.4,0-.9.1-1.2.4-.3.3-.5.7-.5,1.1.1,3.6.2,7.2.3,10.8,0,.7.6,1.3,1.3,1.4,13.5,1.6,27.2,2.4,40.8,2.4,19.3,0,38.7-1.6,57.8-4.8.7-.1,1.2-.8,1.2-1.5l-.2-10.8h0Z"/>
          <path class="cls-5" d="m362.5,68.9c0-.4-.2-.8-.5-1.1-.3-.3-.8-.4-1.2-.3-18.9,3.2-38.1,4.8-57.3,4.8-13.5,0-27.1-.8-40.5-2.4-.4-.1-.9.1-1.2.4-.3.3-.5.7-.5,1.1.1,3.6.2,7.2.3,10.8,0,.7.6,1.3,1.3,1.4,13.5,1.6,27.2,2.4,40.8,2.4,19.3,0,38.7-1.6,57.8-4.8.7-.1,1.2-.8,1.2-1.5l-.2-10.8h0Z"/>
          <g>
            <path class="cls-2" d="m156.3,41.2c.3,1.6,1.7,4,3.5,6.8-.7-1.8-1.4-3.5-2.2-5-.5-.7-1-1.2-1.3-1.8h0Z"/>
            <path class="cls-10" d="m157.6,43c6.8,8.8,22.9,25.7,51.5,35.4,22.1,7.5,44.9,2.1,73-5.5-1.1-5.9-51.2-13.2-57-15.2l-23.6-5.7c-6-2-43.2-17.9-45.2-11.9,0,.1-.1.3-.1.4.5.8.9,1.6,1.4,2.5h0Z"/>
            <path class="cls-11" d="m209,78.4c-28.6-9.8-44.6-26.6-51.4-35.4.8,1.6,1.5,3.3,2.2,5,4.2,6.3,10.9,14.1,12.6,16.3.6.8,1.2,1.5,1.8,2.1,11.8,13.3,29,14.6,45.1,20,11.9,3.9,26.7,2.3,38.5-1.2,4.1-1.2,22.8-7.7,24.1-11.8.1-.2.1-.3,0-.5-28,7.6-50.8,13-72.9,5.5h0Z"/>
            <path class="cls-11" d="m156.2,40.5c0,.2,0,.4.1.7.4.5.8,1.1,1.3,1.7-.5-.8-.9-1.6-1.4-2.4h0Z"/>
          </g>
          <g>
            <path class="cls-10" d="m139.4,88.6c-17.2,12.7-34.8,33.8-42.9,44.1-.3,1.6-.3,2.9,0,3.5,3,5.5,34.5-17.4,40-20.3l22.1-9.6c5.4-2.9,53.7-18.8,53.6-24.8-29.2-3-54.1-6.7-72.8,7.1h0Z"/>
            <path class="cls-11" d="m139.4,88.6c18.8-13.8,43.7-10.1,72.8-7.1,0-.2,0-.3-.1-.5-2.1-3.8-21.6-7-25.8-7.5-12.2-1.4-27.1-.5-38.1,5.5-15,8.1-31.7,12.3-41,27.4-.5.8-.9,1.6-1.4,2.4-1.6,3.1-7.9,16.9-9.2,23.9,8-10.3,25.5-31.4,42.8-44.1h0Z"/>
          </g>
          <g>
            <path class="cls-10" d="m183.8,94.4c21-3.7,46.1-14.9,58-20.5,1-1.3,1.6-2.4,1.6-3.2-.2-6.3-38.6.3-44.9.5l-24.1-1.2c-6.1.2-56.5-6.9-59-1.5,24.7,15.6,45.4,30,68.4,25.9Z"/>
            <path class="cls-11" d="m115.3,68.6c-.1.2-.1.3-.1.5.2,4.4,16.2,15.8,19.8,18.2,10.4,6.7,24.1,12.4,36.6,12,17-.6,33.9,3,48.9-6.5.8-.5,1.5-1,2.3-1.6,2.8-2,14.6-11.7,18.8-17.3-11.8,5.7-36.9,16.8-58,20.5-22.8,4.1-43.5-10.2-68.3-25.8Z"/>
          </g>
          <g>
            <path class="cls-13" d="m346.8,82.9c0,14.4-13.2,26-29.6,26s-29.6-11.6-29.6-26,13.2-26,29.6-26,29.6,11.6,29.6,26Z"/>
            <g class="cls-1">
              <path class="cls-8" d="m346.8,69.4c0,14.4-13.2,26-29.6,26s-29.6-11.6-29.6-26,13.2-26,29.6-26,29.6,11.7,29.6,26Z"/>
            </g>
          </g>
          <g>
            <path class="cls-13" d="m393.5,110.3c-2,14.1-16.8,23.6-33,21.2-16.2-2.4-27.6-15.8-25.5-29.9,2-14.1,16.8-23.6,33-21.2,16.1,2.4,27.6,15.8,25.5,29.9Z"/>
            <g class="cls-20">
              <path class="cls-8" d="m395.4,97.1c-2,14.1-16.8,23.6-33,21.2-16.2-2.4-27.6-15.8-25.5-29.9,2-14.1,16.8-23.6,33-21.2,16.2,2.4,27.6,15.8,25.5,29.9Z"/>
            </g>
          </g>
          <path class="cls-7" d="m362.5,134.4c8.1,18,9.9,38.9-2.2,56-19.5,27.7-50.5,29.7-79.3,34.1-27.9,4.3-40.8,2-71.5.1-18.2-1.1-38.1-5.5-53.6-17.2-20.1-15.2-28.4-50.1-15.5-74.8,12.8-24.4,34-38,59.9-42.6,27-4.8,57.4-7.4,84.5-4,17,2.2,40.3,10.1,54.1,21.3,9.3,7.5,18,14.6,23.6,27.1h0Z"/>
          <path class="cls-3" d="m146.9,150.7c3.5-2,10,11.8,14.5,12.7s.9,1.8,8.2,6.4,8.6,5.1,12.7,7.3c35.9,18.5,121.8,5.1,147.1.9,21.8-3.6,26.3-13.6,28.1-16.3s6.4-9.1,6.4-3.6.3,34.2-18.2,42.7c-80,36.5-172.6,17.8-187,.9-13.9-16.4-26.3-42.8-11.8-51h0Z"/>
          <path class="cls-17" d="m130.6,233.3c-18.7-9.9-19.1-26.3-5.4-36.3,13.6-10,9.7,2.2,29.8-8.6,13.3-7.1,27.4-37.7,58.2-53.1,30.9-15.4,59-10.9,77.2-.9,18.2,10,16.3,9.1,24.5,12.7s24.5,27.7,25.4,35.4c3.6,29.1,18.2,24.5,26.3,6.4,4.1-9.1,10-4.5,10.9,15.4s-22.7,52.7-125.3,35.4c-65.3-11-92.5,9-121.6-6.4h0Z"/>
        </g>
        <path class="cls-9" d="m364.8,157.8c-.3-12.5-8.4-25.1-16.5-34.3-13.3-15.1-30-20.4-49.7-22.3-19.2-1.8-43.2-15.7-62.3-8.2-8,3.2-13.7,9.8-20.3,15-5.3,4.1-11.1,7.4-16.6,11.3-11.6,8.4-19.1,18.9-14.3,33.6,6.1,19,15.9,42.2,35.4,50.9,18,8,37.5-1.4,55.9,4.3,11.5,3.6,24.9,8.2,37.6,7.1,17.1-1.5,23.5-12.3,32.1-25.3,4.2-6.4,10.7-10.7,14.7-17.4,2.9-4.6,4.1-9.6,4-14.7h0Z"/>
        <g>
          <path class="cls-14" d="m305.8,140.8c0,15.5-15.2,28-34,28s-34-12.6-34-28,15.2-28,34-28,34,12.5,34,28h0Z"/>
          <path class="cls-4" d="m243.9,143.1s8.4,8.5,23.1,10.8c14.7,2.3,33.9-7.2,33.9-7.2,0,0-12.1,18-31.3,16.5s-23.4-10.9-25.7-20.1h0Z"/>
          <path class="cls-10" d="m282.4,124.9c0,3-3.2,5.5-7.3,5.5s-7.3-2.4-7.3-5.5,3.2-5.5,7.3-5.5,7.3,2.5,7.3,5.5Z"/>
        </g>
        <path class="cls-18" d="m153.9,202.2s18.4,25.4,63.4,30.4c45,5.1,104-1.3,114.2-8.9s-38.7,1.9-56.5,4.4-61.5.6-79.9-10.8c-18.4-11.3-17.7-25.3-21.5-27.8-3.8-2.6-10.2,9.5-19.7,12.7h0Z"/>
        <path class="cls-12" d="m282.9,193.6s23.7,9.1,31,7.3,17-18.9,24.3-21.3c7.3-2.4,19.5-18.9,18.9-24.3s7.9,14.6-6.7,23.7c-14.6,9.1-11.9,23.4-25,28.6-24.3,9.7-45-4.9-56-4.9s-26.2,0-37.1-.6-17.6-3.6-23.1-17c0,0,7.9,12.2,26.8,7.9s36.6-3.7,46.9.6h0Z"/>
      </g>
    </g>
  </g>
</svg>