<?xml version="1.0" encoding="utf-8"?>
<!-- Generator: Adobe Illustrator 27.8.1, SVG Export Plug-In . SVG Version: 6.00 Build 0)  -->
<svg version="1.1" id="レイヤー_1" xmlns="http://www.w3.org/2000/svg" xmlns:xlink="http://www.w3.org/1999/xlink" x="0px"
	 y="0px" viewBox="0 0 502.5 352.1" style="enable-background:new 0 0 502.5 352.1;" xml:space="preserve">
<style type="text/css">
	.st0{fill:#007564;}
	.st1{fill:#3EB36E;}
	.st2{fill:#FFFFFF;}
	.st3{fill:none;stroke:#FFFFFF;stroke-width:4.25;stroke-linecap:round;stroke-linejoin:round;}
	.st4{fill:#F9E4C5;}
	.st5{fill:#FEEBC8;}
	.st6{clip-path:url(#SVGID_00000158027034007673640520000007499894530249566866_);}
	.st7{fill:#FEF2DA;}
	.st8{clip-path:url(#SVGID_00000042701979445354511070000002051920243497122207_);}
	.st9{fill:#F3D4A1;}
	.st10{fill:#FFEE7D;}
	.st11{opacity:0.6;fill:#FFEE7D;enable-background:new    ;}
	.st12{opacity:0.6;fill:#FFFFFF;enable-background:new    ;}
	.st13{clip-path:url(#SVGID_00000117660385473417532540000017168829615370445957_);}
	.st14{clip-path:url(#SVGID_00000151532260643296891900000015139657322921873840_);}
	.st15{fill:#B81C22;}
	.st16{opacity:0.4;fill:#B81C22;enable-background:new    ;}
	.st17{opacity:0.3;fill:#FFFFFF;enable-background:new    ;}
	.st18{fill:#FFDB3F;}
	.st19{fill:#FCC800;}
	.st20{fill:#FFE771;}
	.st21{fill:#FFE55F;}
	.st22{fill:#FFDF5D;}
	.st23{fill:#FFEA84;}
	.st24{fill:#FFE378;}
	.st25{fill:#FFE26D;}
	.st26{fill:#FFE982;}
	.st27{fill:#FFE87B;}
	.st28{fill:#54642A;}
	.st29{fill:#D98700;}
	.st30{fill:#ABC609;}
	.st31{clip-path:url(#SVGID_00000108269644259489666370000000670556277000637357_);}
	.st32{fill:#ECF1CF;}
	.st33{opacity:0.5;fill:#ABC609;enable-background:new    ;}
	.st34{clip-path:url(#SVGID_00000178203862193228741480000014454703580502845056_);}
	.st35{clip-path:url(#SVGID_00000021827368433854167880000008168307208888073895_);}
	.st36{fill:#691C07;}
	.st37{fill:#F5A200;}
	.st38{fill:#BE3A2B;}
	.st39{clip-path:url(#SVGID_00000075152285117310428380000016422392268235206587_);}
	.st40{clip-path:url(#SVGID_00000082345432367526296480000007472732928710842253_);}
	.st41{clip-path:url(#SVGID_00000088820064885673474170000016368286344019894433_);}
	.st42{fill:#F3A68C;}
	.st43{fill:#F19071;}
	.st44{fill:#FBDCCF;}
	.st45{fill:#FFF4DF;}
	.st46{opacity:0.5;fill:#FCC800;enable-background:new    ;}
	.st47{fill:#E9B76F;}
	.st48{fill:#DD9326;}
	.st49{fill:#FFF0AC;}
	.st50{fill:#CD6715;}
	.st51{fill:#CA142E;}
</style>
<g>
	<g id="_レイヤー_2">
		<g id="_イラスト">
			<g>
				<g>
					<path class="st0" d="M502.1,194.9c0,86.6-112.3,156.7-250.8,156.7S0.4,281.5,0.4,194.9S112.8,38.2,251.3,38.2
						S502.1,108.4,502.1,194.9L502.1,194.9z"/>
					<ellipse class="st1" cx="251.3" cy="189.4" rx="250.8" ry="156.7"/>
					<ellipse class="st2" cx="251.3" cy="192.8" rx="192.6" ry="120.3"/>
					<ellipse class="st3" cx="251.3" cy="192.8" rx="231.1" ry="144.4"/>
				</g>
				<g>
					<path class="st4" d="M40.3,139.2c0,0,18.3,85.6,47,109.8c28.7,24.3,164,66.8,164,66.8s120.4-53.6,147.9-65.8
						c27.5-12.1,76.8-76.4,76.8-76.4s-127.3-50.1-153.6-66.2c-26.4-16.2-67.6-49.6-67.6-49.6s-81.4,57.1-118.1,67.3
						S40.3,139.2,40.3,139.2L40.3,139.2z"/>
					<g>
						<g>
							<path class="st5" d="M217.5,87.4c0-7-12.1-12.7-27.1-12.7s-27.1,5.7-27.1,12.7l3.9,24.2c0,6,9.7,11.4,23.1,11.4
								s21.1-4.1,23.1-11.4L217.5,87.4z"/>
							<g>
								<defs>
									<path id="SVGID_1_" d="M217.5,87.4c0-7-12.1-12.7-27.1-12.7s-27.1,5.7-27.1,12.7l3.9,24.2c0,6,9.7,11.4,23.1,11.4
										s21.1-4.1,23.1-11.4L217.5,87.4z"/>
								</defs>
								<clipPath id="SVGID_00000044170185510918577480000004487384739638345886_">
									<use xlink:href="#SVGID_1_"  style="overflow:visible;"/>
								</clipPath>
								<g style="clip-path:url(#SVGID_00000044170185510918577480000004487384739638345886_);">
									<path class="st7" d="M211.7,96.6c0-7-9.5-12.7-21.2-12.7c8.5,0,15.3,5.7,15.3,12.7l-2.2,24.2c0,2-0.6,3.9-1.7,5.6
										c2.3-0.7,4.3-1.5,6-2.4c0.5-1,0.7-2.1,0.7-3.2L211.7,96.6L211.7,96.6z"/>
									<path class="st7" d="M177.4,120.8l-2.2-24.2c0-7,6.9-12.7,15.3-12.7l0,0c-11.7,0-21.2,5.7-21.2,12.7l3.1,24.2
										c0,1.1,0.2,2.2,0.7,3.2c1.7,1,3.7,1.8,6,2.4C178,124.7,177.4,122.8,177.4,120.8L177.4,120.8z"/>
									<path class="st7" d="M181.6,96.6l1.3,24.2c0,2.4,0.5,4.8,1.4,6.7c1.3,0.2,2.6,0.3,4.1,0.3c-0.4-2-0.6-4.5-0.6-7l-0.4-24.2
										c0-7,1.4-12.7,3.1-12.7C185.6,83.9,181.6,89.6,181.6,96.6L181.6,96.6z"/>
									<path class="st7" d="M193.6,96.6l-0.4,24.2c0,2.6-0.2,5.1-0.6,7c1.4-0.1,2.8-0.2,4.1-0.3c0.9-1.9,1.4-4.3,1.4-6.7l1.3-24.2
										c0-7-4-12.7-8.9-12.7l0,0C192.2,83.9,193.6,89.6,193.6,96.6L193.6,96.6z"/>
								</g>
							</g>
						</g>
						<g>
							<defs>
								<ellipse id="SVGID_00000008864473821410953850000006436515230560008621_" cx="190.5" cy="87.4" rx="27.1" ry="12.7"/>
							</defs>
							<clipPath id="SVGID_00000103953048816152153860000002677738049249766568_">
								<use xlink:href="#SVGID_00000008864473821410953850000006436515230560008621_"  style="overflow:visible;"/>
							</clipPath>
							<g style="clip-path:url(#SVGID_00000103953048816152153860000002677738049249766568_);">
								<path class="st7" d="M217.5,87.4c0,7-12.1,12.7-27.1,12.7s-27.1-5.7-27.1-12.7s12.1-12.7,27.1-12.7S217.5,80.3,217.5,87.4z"
									/>
								<path class="st9" d="M216.1,88c0,6.7-11.5,12.1-25.7,12.1s-25.7-5.4-25.7-12.1S176.3,76,190.4,76S216.1,81.4,216.1,88z"/>
								<path class="st10" d="M213.7,93.7c0,6.9-11.6,11.3-23.7,11.3s-26-2.1-21.9-12.5c1.7-4.4,3.1-6.9,7.4-8.7
									c2.9-1.2,8.8-2.6,12-2.9c8.1-0.8,15.1,1.2,21.7,5.7C211.7,88.3,213.7,90.5,213.7,93.7L213.7,93.7z"/>
								<path class="st11" d="M204.4,92.8c-4.2,4.1-10.5,1.8-11.6,5.8c-1.1,4.1,17.7-0.7,20.1-2.9s-1.8-8.2-7.9-3.9"/>
								<path class="st12" d="M191.4,83.9c3.7,0.9,8-0.3,6.1-1.2c-1.8-0.8-8.8-0.9-8.9,0C188.4,84,188.6,83.2,191.4,83.9L191.4,83.9
									z"/>
								<path class="st11" d="M174.5,88.4c-0.5-2.6-10.3,7.4-0.7,8.5c4.5,0.5,7.1,2.6,6.9,1.4C180.6,97.1,175.2,91.7,174.5,88.4z"/>
							</g>
						</g>
						<path class="st7" d="M218.2,88.2L218.2,88.2c-3.2,5.9-15.3,10.9-27.7,10.9s-24.6-5-27.7-10.9l0,0c0,0,0.3,1.2,0.6,2.6
							c0,0.1,0,0.1,0,0.2c0.4,1.9,1,4,1,4s0,0,0,0c0.3,1.4,1.3,2.6,2.6,3.7c2.2,2,5.4,3.2,7.8,4c0.7,0.3,1.4,0.5,2.2,0.7
							c4.1,1.3,8.5,1.8,12.8,1.8c0.2,0,0.5,0,0.7,0c0.2,0,0.5,0,0.7,0c4.4,0,8.7-0.5,12.8-1.8c0.7-0.2,1.4-0.4,2.2-0.7
							c2.4-0.9,5.5-2.1,7.8-4c1.3-1.1,2.2-2.3,2.6-3.7c0,0,0,0,0,0c0,0,0.5-2.1,1-4c0-0.1,0-0.1,0-0.2
							C217.9,89.4,218.2,88.2,218.2,88.2L218.2,88.2z"/>
						<path class="st7" d="M190.5,74.6c14.9,0,27.1,5.7,27.1,12.7s-12.1,12.7-27.1,12.7s-27.1-5.7-27.1-12.7S175.5,74.6,190.5,74.6
							 M190.5,73.9c-7.4,0-14.3,1.3-19.5,3.8c-5.4,2.5-8.3,5.9-8.3,9.6s3,7.1,8.3,9.6c5.2,2.4,12.1,3.8,19.5,3.8s14.3-1.3,19.5-3.8
							c5.4-2.5,8.3-5.9,8.3-9.6s-3-7.1-8.3-9.6C204.7,75.3,197.8,73.9,190.5,73.9L190.5,73.9z"/>
					</g>
					<g>
						<g>
							<path class="st5" d="M165.8,100.3c0-7-12.1-12.7-27.1-12.7s-27.1,5.7-27.1,12.7l3.9,24.2c0,6,9.7,11.5,23.1,11.5
								s21.1-4.1,23.1-11.4C161.9,124.5,165.8,100.3,165.8,100.3z"/>
							<g>
								<defs>
									<path id="SVGID_00000147195473269879864480000013742801990962078615_" d="M165.8,100.3c0-7-12.1-12.7-27.1-12.7
										s-27.1,5.7-27.1,12.7l3.9,24.2c0,6,9.7,11.5,23.1,11.5s21.1-4.1,23.1-11.4C161.9,124.5,165.8,100.3,165.8,100.3z"/>
								</defs>
								<clipPath id="SVGID_00000035503955497023120480000009279390369988160188_">
									<use xlink:href="#SVGID_00000147195473269879864480000013742801990962078615_"  style="overflow:visible;"/>
								</clipPath>
								<g style="clip-path:url(#SVGID_00000035503955497023120480000009279390369988160188_);">
									<path class="st7" d="M159.9,109.5c0-7-9.5-12.7-21.2-12.7c8.5,0,15.3,5.7,15.3,12.7l-2.2,24.2c0,2-0.6,3.9-1.7,5.6
										c2.3-0.6,4.3-1.5,6-2.4c0.5-1,0.7-2.1,0.7-3.2L159.9,109.5L159.9,109.5z"/>
									<path class="st7" d="M125.6,133.7l-2.2-24.2c0-7,6.9-12.7,15.3-12.7l0,0c-11.7,0-21.2,5.7-21.2,12.7l3.1,24.2
										c0,1.1,0.2,2.1,0.7,3.2c1.7,1,3.7,1.8,6,2.4C126.2,137.6,125.6,135.7,125.6,133.7L125.6,133.7z"/>
									<path class="st7" d="M129.9,109.5l1.3,24.2c0,2.4,0.5,4.8,1.4,6.7c1.3,0.2,2.6,0.3,4.1,0.4c-0.4-2-0.6-4.5-0.6-7l-0.4-24.2
										c0-7,1.4-12.7,3.1-12.7C133.8,96.8,129.9,102.5,129.9,109.5L129.9,109.5z"/>
									<path class="st7" d="M141.8,109.5l-0.4,24.2c0,2.6-0.2,5.1-0.6,7c1.4-0.1,2.8-0.2,4.1-0.4c0.9-1.9,1.4-4.3,1.4-6.7
										l1.3-24.2c0-7-4-12.7-8.9-12.7l0,0C140.4,96.8,141.8,102.5,141.8,109.5L141.8,109.5z"/>
								</g>
							</g>
						</g>
						<g>
							<defs>
								<ellipse id="SVGID_00000010312026798379137570000007358333651032000680_" cx="138.7" cy="100.3" rx="27.1" ry="12.7"/>
							</defs>
							<clipPath id="SVGID_00000082344369151304397800000004514184643658942357_">
								<use xlink:href="#SVGID_00000010312026798379137570000007358333651032000680_"  style="overflow:visible;"/>
							</clipPath>
							<g style="clip-path:url(#SVGID_00000082344369151304397800000004514184643658942357_);">
								<path class="st7" d="M165.8,100.3c0,7-12.1,12.7-27.1,12.7s-27.1-5.7-27.1-12.7s12.1-12.7,27.1-12.7S165.8,93.2,165.8,100.3
									z"/>
								<path class="st9" d="M164.4,100.9c0,6.7-11.5,12.1-25.7,12.1s-25.7-5.4-25.7-12.1s11.5-12.1,25.7-12.1
									S164.4,94.3,164.4,100.9z"/>
								<path class="st15" d="M162,106.6c0,6.9-11.6,11.3-23.7,11.3s-26-2.1-21.9-12.5c1.7-4.4,3.2-6.9,7.4-8.7
									c2.9-1.2,8.8-2.6,12-2.9c8.1-0.8,15.1,1.2,21.7,5.7C160,101.2,162,103.4,162,106.6z"/>
								<path class="st16" d="M152.7,105.7c-4.2,4.1-10.5,1.8-11.6,5.8c-1.1,4.1,17.7-0.7,20.1-2.9s-1.8-8.2-7.9-3.9"/>
								<path class="st17" d="M139.7,96.8c3.7,0.9,8-0.3,6.1-1.2c-1.8-0.8-8.8-0.9-8.9,0C136.7,96.9,136.9,96.1,139.7,96.8z"/>
								<path class="st16" d="M122.8,101.3c-0.5-2.6-10.3,7.4-0.7,8.5c4.5,0.5,7.1,2.6,6.9,1.4C128.9,110,123.5,104.6,122.8,101.3
									L122.8,101.3z"/>
							</g>
						</g>
						<path class="st7" d="M166.4,101.1L166.4,101.1c-3.2,5.9-15.3,10.9-27.7,10.9s-24.6-5-27.7-10.9l0,0c0,0,0.3,1.2,0.6,2.6
							c0,0.1,0,0.1,0,0.2c0.4,1.9,1,4,1,4s0,0,0,0c0.3,1.4,1.3,2.6,2.6,3.7c2.2,2,5.4,3.2,7.8,4c0.7,0.3,1.4,0.5,2.2,0.7
							c4.1,1.3,8.5,1.8,12.8,1.8c0.2,0,0.5,0,0.7,0c0.2,0,0.5,0,0.7,0c4.4,0,8.7-0.5,12.8-1.8c0.7-0.2,1.4-0.4,2.2-0.7
							c2.4-0.9,5.5-2.1,7.8-4c1.3-1.1,2.2-2.3,2.6-3.7c0,0,0,0,0,0c0,0,0.5-2.1,1-4c0-0.1,0-0.1,0-0.2
							C166.2,102.3,166.5,101.1,166.4,101.1L166.4,101.1z"/>
						<path class="st7" d="M138.7,87.5c14.9,0,27.1,5.7,27.1,12.7S153.7,113,138.7,113s-27.1-5.7-27.1-12.7S123.8,87.5,138.7,87.5
							 M138.7,86.8c-7.4,0-14.3,1.3-19.5,3.8c-5.4,2.5-8.3,5.9-8.3,9.6s3,7.1,8.3,9.6c5.2,2.4,12.1,3.8,19.5,3.8s14.3-1.3,19.5-3.8
							c5.4-2.5,8.3-5.9,8.3-9.6s-3-7.1-8.3-9.6C153,88.2,146.1,86.8,138.7,86.8L138.7,86.8z"/>
					</g>
					<g>
						<path class="st18" d="M84.4,129.9c0,0-4.4,10.8-2.8,11.7c1.6,0.9,98.3,18.6,116.6,18c18.4-0.6,44.2-6.1,44.2-6.1l-12.6-7.5
							c0,0-27.4,2-38.6,2.2C181.5,148.4,84.5,129.9,84.4,129.9L84.4,129.9z"/>
						<path class="st19" d="M85.3,133.6c0,0-1.3,7.3-0.1,8s104.6,17.1,110,17.4c5.3,0.3,47.3-5.5,47.3-5.5s-45.6,9-52.7,8.4
							S82.4,146.8,81,143.5s3.5-15.5,3.7-12.8S85.3,133.6,85.3,133.6L85.3,133.6z"/>
					</g>
					<g>
						<path class="st18" d="M191.1,124.4c0,0-7.5-7.2-11.3-6.8S90.9,167.2,79,175.5s-12.7,12.9-12.7,12.9s0.5,1.5,6.6,5.3
							c3.9,2.5,14.7-13.3,22.7-17C103.7,172.9,186.3,127.1,191.1,124.4L191.1,124.4z"/>
						<path class="st19" d="M80,177.2c2.6-3.4,8-5.8,11.6-8.1c7.9-4.9,16-9.6,24.1-14.3c17.3-10,34.7-19.7,52.2-29.4
							c4-2.2,8-4.4,12-6.6c-0.4,0.2,10,5.2,11.1,5.6c0,0-7.6-8.4-10.6-9c-2.5-0.4-6.1,3.3-8,4.5c-10.2,6.7-21.5,12.2-32.2,18.2
							c-14.8,8.3-29.6,16.6-44.3,24.8c-3.7,2.1-10.2,5.5-13.5,8.2c-6.6,5.3-15.4,15.2-16.3,16.8S75.3,183.4,80,177.2L80,177.2z"/>
					</g>
					<g>
						<path class="st18" d="M77.7,209.2c0,0,0.4,11.7,2.2,11.8c1.8,0.1,97.4-22.9,113.9-30.8c16.5-8,37.9-23.6,37.9-23.6l-14.6-1.7
							c0,0-24.3,12.9-34.4,17.7C173.9,186.7,77.7,209.2,77.7,209.2L77.7,209.2z"/>
						<path class="st19" d="M80,212.2c0,0,1.7,7.2,3.2,7.3s102.6-26.8,107.6-28.7s41-24.2,41-24.2s-38.1,26.7-44.8,29.1
							C180.2,198,82.7,225.5,80,223s-3.1-15.6-1.9-13.2C79.4,212.2,79.9,212.2,80,212.2L80,212.2z"/>
					</g>
					<g>
						<path class="st18" d="M251.8,231.5c0,0-59.1-16.8-91.4-10.4s-32.2,7.1-34.2,2.8c-1.9-4.3-2-8.4,7.6-10.1
							c9.6-1.7,43.9-6.4,62.5-4.2c18.6,2.2,51.5,12.7,55.8,17.5C256.3,231.8,251.8,231.5,251.8,231.5L251.8,231.5z"/>
						<path class="st19" d="M253.5,230c0,0-25.7-12.6-35.1-15.5c-9.4-2.9-42.4-3.3-55.5-3.4c-22.3-0.1-37.8,8.1-37.8,8.1
							s2.8-5.6,4.7-7.6c1.9-2,55.5-4.9,66.5-3.9c10.4,0.9,16.7,1.5,15.6,1.5c-1.1,0,39.1,13.5,40.9,17S253.5,230,253.5,230
							L253.5,230z"/>
					</g>
					<g>
						<path class="st20" d="M272.6,157.7c0,0-6.2-8.9-10.2-9c-4-0.1-101.3,39.7-115.2,46.8c-13.9,7.1-15.6,11.9-15.6,11.9
							s0.2,1.7,5.6,6.7c3.5,3.3,17.8-12,26.8-14.8C173,196.4,267.1,159.8,272.6,157.7L272.6,157.7z"/>
						<path class="st19" d="M147.9,197.5c3.4-3.2,9.4-5,13.5-6.9c9.1-4.1,18.4-7.9,27.7-11.6c19.8-8.1,39.7-15.9,59.6-23.6
							c4.6-1.8,9.1-3.5,13.7-5.3c-0.5,0.2,9.2,7.1,10.3,7.7c0,0-6-10.2-9-11.2c-2.4-0.9-7,2.6-9.2,3.6c-11.8,5.7-24.6,9.8-36.8,14.6
							c-16.9,6.6-33.7,13.3-50.6,19.9c-4.2,1.7-11.6,4.4-15.5,6.7c-7.9,4.6-19,14-20.2,15.6S141.8,203.3,147.9,197.5L147.9,197.5z"
							/>
					</g>
					<g>
						<path class="st21" d="M234.2,173.7c0,0,2.8-11.4,1-12c-1.7-0.6-99.9-3.8-118-0.5s-42.8,12.7-42.8,12.7l13.6,5.5
							c0,0,26.8-6,37.9-7.9C135.5,169.8,234.2,173.7,234.2,173.7L234.2,173.7z"/>
						<path class="st19" d="M232.8,170.2c0,0,0.2-7.4-1.1-7.9c-1.3-0.5-106-1.4-111.3-0.9s-46,12.5-46,12.5s43.8-15.6,50.9-16.1
							c7.1-0.5,108.4-1.1,110.3,2c1.9,3.1-1.1,15.8-1.7,13.2C233.4,170.4,232.8,170.2,232.8,170.2L232.8,170.2z"/>
					</g>
					<g>
						<path class="st21" d="M210.3,143.1c0,0-61.3-3.8-91.5,9.3s-30,13.8-32.8,10c-2.8-3.8-3.7-7.8,5.2-11.5s41.5-15.6,60.2-17.5
							c18.6-1.8,53,1.4,58.2,5.2C214.8,142.5,210.3,143.2,210.3,143.1L210.3,143.1z"/>
						<path class="st19" d="M211.7,141.3c0,0-27.8-6.8-37.6-7.7s-42.2,5.9-55,8.6c-21.8,4.6-35.2,16-35.2,16s1.6-6.1,3-8.5
							c1.4-2.3,53.2-16.7,64.1-18.1c10.3-1.3,16.6-2.1,15.5-1.9c-1.1,0.2,41,4.9,43.6,7.9C212.7,140.8,211.7,141.3,211.7,141.3
							L211.7,141.3z"/>
					</g>
					<g>
						<path class="st22" d="M203.5,115c0,0-6.2-7.9-10-8c-3.8-0.1-93.3,35.6-106.1,42c-12.8,6.4-14.1,10.6-14.1,10.6
							s0.3,1.5,5.6,5.9c3.5,2.9,16.1-10.8,24.5-13.3S198.5,116.9,203.5,115z"/>
						<path class="st19" d="M88.2,150.9c3-2.9,8.6-4.5,12.4-6.2c8.4-3.6,16.9-7.1,25.5-10.5c18.2-7.3,36.5-14.3,54.9-21.2
							c4.2-1.6,8.4-3.2,12.6-4.8c-0.4,0.2,9,6.3,10,6.8c0,0-6.1-9-9-10c-2.3-0.8-6.4,2.4-8.4,3.3c-10.9,5.1-22.6,8.8-33.9,13.2
							c-15.5,6-31.1,11.9-46.6,17.9c-3.9,1.5-10.7,3.9-14.2,6c-7.2,4.2-17.2,12.5-18.3,13.9C72.1,160.7,82.7,156.1,88.2,150.9
							L88.2,150.9z"/>
					</g>
					<g>
						<path class="st18" d="M84.2,184.9c0,0,61.3,3.9,91.5-9.1c30.2-13,30-13.7,32.8-9.9s3.7,7.8-5.2,11.5s-41.6,15.5-60.2,17.3
							c-18.6,1.8-53-1.5-58.2-5.3S84.2,184.9,84.2,184.9L84.2,184.9z"/>
						<path class="st19" d="M82.8,186.7c0,0,27.7,6.9,37.5,7.8c9.8,0.9,42.2-5.8,55-8.4c21.8-4.6,35.2-15.9,35.2-15.9
							s-1.6,6.1-3,8.5c-1.4,2.3-53.2,16.5-64.1,17.9c-10.3,1.3-16.7,2.1-15.5,1.9s-41-4.9-43.6-8C81.8,187.2,82.8,186.7,82.8,186.7
							L82.8,186.7z"/>
					</g>
					<g>
						<path class="st21" d="M229.1,171.7c0,0-4.9-9.7-8.8-10.4c-3.9-0.6-105.9,24.9-120.7,30c-14.8,5.1-17.2,9.5-17.2,9.5
							s0,1.7,4.7,7.4c3,3.7,19.3-9.4,28.6-10.9C125.1,196,223.4,173,229.1,171.7z"/>
						<path class="st19" d="M100,193.5c3.8-2.7,10-3.7,14.3-4.9c9.6-2.7,19.3-5.2,29.1-7.6c20.7-5.2,41.5-10.1,62.4-15
							c4.8-1.1,9.5-2.2,14.3-3.3c-0.5,0.1,8.1,8.3,9.1,9c0,0-4.5-10.9-7.3-12.4c-2.3-1.2-7.3,1.6-9.6,2.3
							c-12.5,3.9-25.7,6.3-38.5,9.3c-17.6,4.2-35.3,8.4-52.9,12.5c-4.4,1.1-12.1,2.7-16.3,4.5c-8.4,3.5-20.8,11.2-22.2,12.6
							C80.9,201.9,93.1,198.4,100,193.5L100,193.5z"/>
					</g>
					<g>
						<path class="st23" d="M256,150.7c0,0,4.3-10.9,2.7-11.7c-1.6-0.9-98.4-17.9-116.7-17.2s-44.2,6.5-44.2,6.5l12.7,7.4
							c0,0,27.4-2.2,38.6-2.5C158.8,133,256,150.8,256,150.7L256,150.7z"/>
						<path class="st19" d="M255.1,147.1c0,0,1.3-7.3,0-8c-1.2-0.7-104.8-16.4-110.1-16.6c-5.3-0.2-47.3,5.8-47.3,5.8
							s45.6-9.3,52.7-8.8c7.1,0.5,107.5,14.3,108.9,17.6c1.5,3.3-3.4,15.5-3.6,12.9C255.6,147.3,255.1,147.1,255.1,147.1
							L255.1,147.1z"/>
					</g>
					<g>
						<path class="st21" d="M243.3,205.6c0,0-60.1-12.4-91.9-3.7c-31.8,8.7-31.6,9.4-33.9,5.3s-2.6-8.2,6.8-10.7
							c9.4-2.4,43.3-9.6,62-8.8c18.7,0.8,52.3,8.9,56.9,13.3C247.8,205.5,243.3,205.6,243.3,205.6z"/>
						<path class="st19" d="M244.9,203.9c0,0-26.5-10.7-36.1-12.9c-9.6-2.2-42.6-0.1-55.6,0.7c-22.2,1.5-37.1,10.9-37.1,10.9
							s2.4-5.8,4.2-8c1.8-2.1,55-9,66-8.8c10.4,0.2,16.8,0.3,15.6,0.3c-1.1,0,39.9,10.6,42,14C246,203.5,244.9,203.9,244.9,203.9
							L244.9,203.9z"/>
					</g>
					<g>
						<path class="st18" d="M277.9,199.3c0,0,1.4-11.6-0.4-12c-1.8-0.4-99.7,8-117.2,13.4s-41,17.6-41,17.6l14.2,3.9
							c0,0,25.9-9.1,36.7-12.3C179.3,207.1,277.9,199.3,277.9,199.3L277.9,199.3z"/>
						<path class="st19" d="M276.1,196c0,0-0.6-7.4-2-7.7c-1.4-0.3-105.4,11.1-110.7,12.3c-5.2,1.1-44.2,17.8-44.2,17.8
							s41.6-20.7,48.6-22s107.5-13.9,109.8-11c2.3,2.8,0.7,15.9-0.1,13.3C276.6,196.1,276.1,196,276.1,196z"/>
					</g>
					<g>
						<path class="st24" d="M155.8,221.8c0,0,9.2,5,12.7,3.6s72.6-71.2,81.9-82.4s8.8-15.7,8.8-15.7s-0.9-1.3-7.8-3.4
							c-4.5-1.4-10.6,16.7-17.4,22.4C227.2,152.1,159.7,218.1,155.8,221.8L155.8,221.8z"/>
						<path class="st19" d="M248.9,141.6c-1.6,3.9-6.1,7.7-9,10.8c-6.4,6.8-12.9,13.5-19.5,20.1c-14,14.2-28.3,28.2-42.6,42.2
							c-3.3,3.2-6.6,6.4-9.8,9.6c0.3-0.3-11-2.3-12.2-2.4c0,0,9.5,6.1,12.6,5.9c2.5-0.2,5.1-4.8,6.5-6.5
							c8.1-9.2,17.5-17.5,26.2-26.1c12.1-11.9,24.1-23.8,36.2-35.6c3.1-3,8.3-8,10.8-11.4c5-6.8,10.9-18.8,11.3-20.6
							C259.9,125.7,251.9,134.4,248.9,141.6L248.9,141.6z"/>
					</g>
					<g>
						<path class="st25" d="M99,216.5c0,0,2.3,11.5,4.1,11.3c1.8-0.2,92.2-38.8,107.2-49.4c15-10.6,33.5-29.6,33.5-29.6l-14.7,0.8
							c0,0-21.8,16.8-31,23.2C190.1,178.3,99,216.5,99,216.5L99,216.5z"/>
						<path class="st19" d="M101.7,219.1c0,0,2.9,6.8,4.3,6.7c1.4-0.1,96.7-43.6,101.3-46.3c4.6-2.7,36.4-30.7,36.4-30.7
							s-33.1,32.7-39.3,36.1c-6.2,3.4-97.8,46.8-100.8,44.8c-3-2-5.7-14.8-4-12.7C101.2,219.2,101.8,219.1,101.7,219.1L101.7,219.1z
							"/>
					</g>
					<g>
						<path class="st18" d="M93,148.1c0,0,61.4,0.6,90.9-14.1s29.2-15.3,32.2-11.7c3,3.6,4.1,7.6-4.6,11.8
							c-8.8,4.2-40.7,17.8-59.2,20.6c-18.5,2.8-53,1.4-58.4-2.1C88.5,149,93,148.1,93,148.1L93,148.1z"/>
						<path class="st19" d="M91.7,150.1c0,0,28.1,5.4,37.9,5.7s41.8-8.1,54.4-11.4c21.5-5.8,34.3-17.8,34.3-17.8s-1.2,6.2-2.6,8.6
							c-1.3,2.4-52.2,19.4-63.1,21.4c-10.2,1.9-16.5,2.9-15.4,2.7s-41.2-2.7-43.9-5.6C90.7,150.6,91.7,150,91.7,150.1L91.7,150.1z"
							/>
					</g>
					<g>
						<path class="st21" d="M97,201.9c0,0,8.3,7,12.2,6c3.9-1,87.2-65,98.8-75.5s11.9-15.6,11.9-15.6s-0.7-1.6-7.2-5
							c-4.3-2.2-13.9,16.3-21.9,21.4C182.8,138.3,101.7,198.5,97,201.9z"/>
						<path class="st19" d="M206.8,130.6c-2.4,4-7.7,7.3-11.2,10.2c-7.8,6.3-15.7,12.4-23.6,18.6c-16.9,13-34.1,25.8-51.2,38.5
							c-3.9,2.9-7.9,5.8-11.8,8.7c0.4-0.3-10.8-4.4-11.9-4.7c0,0,8.5,8.2,11.7,8.5c2.6,0.2,6.1-4.4,7.9-5.9
							c9.9-8.6,21.1-16,31.6-23.8c14.5-10.9,29-21.7,43.5-32.5c3.7-2.7,10-7.3,13.2-10.6c6.4-6.6,14.6-18.5,15.4-20.4
							C220.9,115.3,211.1,123.4,206.8,130.6L206.8,130.6z"/>
					</g>
					<g>
						<path class="st21" d="M126.6,220.4c0,0,0.3,11.7,2.2,11.8c1.8,0.1,97.4-22.7,113.9-30.7s38-23.5,38-23.5l-14.6-1.7
							c0,0-24.3,12.9-34.4,17.6C222.8,198.1,126.5,220.4,126.6,220.4L126.6,220.4z"/>
						<path class="st19" d="M128.8,223.4c0,0,1.7,7.2,3.1,7.3c1.4,0.1,102.6-26.7,107.6-28.6c5-1.9,41-24.2,41-24.2
							s-38.1,26.7-44.8,29c-6.7,2.3-104.3,29.7-106.9,27.2c-2.7-2.5-3.1-15.6-1.8-13.2S128.8,223.4,128.8,223.4L128.8,223.4z"/>
					</g>
					<g>
						<path class="st26" d="M137.5,215.6c0,0,60.1-12.6,85.8-33.2s25.3-21.2,29-18.3s5.7,6.5-2,12.5c-7.7,6-35.9,26.1-53.4,32.7
							c-17.5,6.7-51.5,12.7-57.5,10.4C133.4,217.5,137.5,215.6,137.5,215.6L137.5,215.6z"/>
						<path class="st19" d="M136.6,217.8c0,0,28.6-0.7,38.2-2.5c9.7-1.8,39.1-16.8,50.8-22.8c19.8-10.2,29.7-24.7,29.7-24.7
							s0.1,6.3-0.6,9c-0.8,2.6-46.9,30.1-57.1,34.3c-9.6,4-15.5,6.4-14.5,5.9s-40.9,6.2-44.1,3.9S136.7,217.8,136.6,217.8
							L136.6,217.8z"/>
					</g>
					<g>
						<path class="st18" d="M157.6,229.4c0,0,7.2,7,10.9,6.6s87.8-47.6,99.7-55.5c11.8-8,12.6-12.4,12.6-12.4s-0.5-1.4-6.4-5.2
							c-3.8-2.4-14.6,12.8-22.5,16.4C244,182.9,162.3,226.9,157.6,229.4L157.6,229.4z"/>
						<path class="st19" d="M267.2,178.8c-2.6,3.2-7.9,5.6-11.5,7.7c-7.9,4.7-15.9,9.2-23.9,13.7c-17.1,9.6-34.4,18.9-51.7,28.2
							c-3.9,2.1-7.9,4.2-11.9,6.4c0.4-0.2-9.7-5-10.8-5.4c0,0,7.3,8.2,10.2,8.7c2.4,0.4,6.1-3.2,7.9-4.4
							c10.1-6.5,21.3-11.7,31.8-17.5c14.6-7.9,29.2-15.9,43.9-23.8c3.7-2,10.1-5.3,13.3-7.9c6.6-5.1,15.4-14.7,16.3-16.2
							C281.9,166.9,272,172.8,267.2,178.8L267.2,178.8z"/>
					</g>
					<g>
						<path class="st18" d="M239.9,143.9c0,0-60.1,12.4-85.9,33c-25.7,20.6-25.3,21.2-29,18.3c-3.7-2.9-5.7-6.5,2-12.5
							s36-26,53.5-32.6s51.5-12.6,57.5-10.3C244,142.1,239.9,143.9,239.9,143.9L239.9,143.9z"/>
						<path class="st19" d="M240.7,141.8c0,0-28.6,0.7-38.3,2.4s-39.1,16.7-50.8,22.7c-19.8,10.2-29.8,24.7-29.8,24.7
							s-0.1-6.3,0.7-8.9s46.9-30,57.1-34.2c9.6-4,15.5-6.4,14.5-5.9c-1,0.5,40.9-6.1,44.1-3.8S240.7,141.8,240.7,141.8L240.7,141.8z
							"/>
					</g>
					<g>
						<path class="st27" d="M109,211.8c0,0,7.3,8.1,11.2,7.6c4-0.4,95.5-52,108.5-60.8s14-13.7,14-13.7s-0.4-1.6-6.4-5.9
							c-3.9-2.8-16.1,14.1-24.7,18.1C202.9,161,114.1,209.1,109,211.8z"/>
						<path class="st19" d="M227.8,156.8c-2.9,3.6-8.7,6.2-12.6,8.5c-8.6,5.2-17.3,10.1-26,15c-18.6,10.5-37.4,20.7-56.2,30.9
							c-4.3,2.3-8.6,4.6-12.9,7c0.4-0.2-10-5.9-11.2-6.3c0,0,7.3,9.3,10.3,10c2.5,0.5,6.6-3.5,8.6-4.8c11-7.1,23.1-12.8,34.6-19.1
							c15.9-8.7,31.8-17.4,47.7-26.1c4-2.2,10.9-5.8,14.5-8.6c7.2-5.6,17.1-16.3,18.1-18C244,143.6,233.1,150.2,227.8,156.8
							L227.8,156.8z"/>
					</g>
					<g>
						<path class="st20" d="M113.1,233.5c0,0-1.3,11.6,0.5,12c1.8,0.4,99.6-8.7,117.1-14.3c17.5-5.5,40.9-17.9,40.9-17.9l-14.2-3.8
							c0,0-25.9,9.3-36.6,12.6C211.6,225,113.1,233.5,113.1,233.5L113.1,233.5z"/>
						<path class="st19" d="M114.9,236.8c0,0,0.7,7.4,2.1,7.7s105.4-11.9,110.6-13.1c5.2-1.2,44.1-18.1,44.1-18.1
							s-41.5,21-48.5,22.4s-107.4,14.6-109.7,11.8s-0.9-15.9,0-13.3S114.9,236.8,114.9,236.8L114.9,236.8z"/>
					</g>
					<g>
						<path class="st23" d="M92.7,177.4c0,0,61.3-3.9,89.6-20.7s28-17.4,31.3-14c3.3,3.4,4.7,7.3-3.7,12.1s-39.3,20.7-57.5,24.9
							c-18.2,4.1-52.8,5.3-58.4,2.2C88.4,178.6,92.7,177.4,92.7,177.4z"/>
						<path class="st19" d="M91.6,179.4c0,0,28.4,3.3,38.2,2.9c9.8-0.4,41.1-11.1,53.5-15.4c21-7.3,32.9-20.3,32.9-20.3
							s-0.8,6.3-1.9,8.8s-50.7,23.2-61.3,25.9c-10.1,2.6-16.3,4.1-15.2,3.8s-41.3,0.3-44.2-2.4C90.6,180,91.6,179.4,91.6,179.4
							L91.6,179.4z"/>
					</g>
					<g>
						<g>
							<path class="st28" d="M159.4,210.8c0.4,1.3,1.8,3.6,2.6,3.7l0.8,0.2l0,0l0.6-2l-2.3-0.8L159.4,210.8z"/>
							<path class="st28" d="M219,145.5c0,0,1.1,2,0.4,3.2s-0.7,3.1-0.7,3.1l2.3-0.8C221,151,220.9,146.1,219,145.5L219,145.5z"/>
							<path class="st28" d="M211.9,192c-1.1-0.9-3.5-2-4.3-1.7l-0.8,0.3l0,0l0.6,2l2.3-0.6L211.9,192L211.9,192z"/>
							<path class="st28" d="M208.4,169.6c-1.2-0.6-3.8-1.3-4.5-0.8l-0.7,0.5l0,0l1,1.8l2.2-1L208.4,169.6L208.4,169.6z"/>
							<path class="st28" d="M171.1,222c0.4,1.3,1.8,3.6,2.6,3.8l0.8,0.2l0,0l0.6-2l-2.3-0.8L171.1,222L171.1,222z"/>
							<path class="st28" d="M148.4,180.4c0,0-0.6,1.3-1,2.1c-0.4,0.8,0.8,2,0.8,2l1.5-0.6C149.7,184,149.6,180.8,148.4,180.4
								L148.4,180.4z"/>
							<path class="st28" d="M197.2,170.1c-0.7,1.2-0.7,3.1-0.7,3.1l2.3-0.8C198.8,172.3,197.9,168.9,197.2,170.1z"/>
							<path class="st28" d="M121.8,151.7c-1.1-0.9-3.5-2-4.3-1.7l-0.8,0.3l0,0l0.6,2l2.3-0.6L121.8,151.7L121.8,151.7z"/>
							<path class="st28" d="M136.5,169.6c0,0-1.3-0.1-2.2-0.5c-0.9-0.4-2.4,0.8-2.4,0.8l0.8,1.6
								C132.7,171.5,136.3,171.1,136.5,169.6L136.5,169.6z"/>
							<path class="st28" d="M229.1,184.6c0,0-0.6,1.3-1,2.1c-0.4,0.8,0.8,2,0.8,2l1.5-0.6C230.4,188.2,230.3,185,229.1,184.6
								L229.1,184.6z"/>
							<path class="st28" d="M192.2,202.2c0,0-1.3-0.1-2.2-0.5c-0.9-0.4-2.4,0.8-2.4,0.8l0.8,1.6C188.4,204.2,192,203.7,192.2,202.2
								L192.2,202.2z"/>
							<path class="st28" d="M197.2,134.1c-0.1-1.4-1.1-3-1.1-3l-1.5,2C194.6,133.1,197.2,135.4,197.2,134.1L197.2,134.1z"/>
							<path class="st28" d="M175.1,163.5c0,0-1.6,0.5-2.4-0.2c-0.7-0.6-2.1-1-2.1-1l0.2,1.8C170.9,164.1,174.4,164.8,175.1,163.5
								L175.1,163.5z"/>
							<path class="st28" d="M169.1,162c-0.5,0.9-0.5,2.2-0.5,2.2l1.7-0.6C170.3,163.7,169.6,161.2,169.1,162L169.1,162z"/>
							<path class="st28" d="M165.3,163.2c0.8-0.6,1.9-2.2,1.8-2.8l-0.1-0.6l0,0l-1.5,0.1l0.1,1.8L165.3,163.2L165.3,163.2z"/>
							<path class="st28" d="M191.3,166.1c-0.1-1-0.8-2.2-0.8-2.2l-1.1,1.4C189.4,165.3,191.3,167,191.3,166.1L191.3,166.1z"/>
							<path class="st28" d="M160.9,163c-0.1-1-0.8-2.2-0.8-2.2l-1.1,1.4C159,162.3,161,164,160.9,163L160.9,163z"/>
							<path class="st28" d="M254.1,189.8c-0.1-1-0.8-2.2-0.8-2.2l-1.1,1.4C252.2,189.1,254.2,190.8,254.1,189.8L254.1,189.8z"/>
							<path class="st28" d="M158.2,191.6c-0.1-1-0.8-2.2-0.8-2.2l-1.1,1.4C156.3,190.9,158.3,192.6,158.2,191.6L158.2,191.6z"/>
							<path class="st28" d="M153.6,164.6c-0.9-0.4-2.8-0.9-3.3-0.6l-0.5,0.3l0,0l0.7,1.3l1.6-0.8L153.6,164.6L153.6,164.6z"/>
							<path class="st28" d="M240.2,175.5c-0.7-0.6-2.1-0.9-2.1-0.9l0.2,1.8C238.3,176.4,240.9,176.2,240.2,175.5L240.2,175.5z"/>
							<path class="st28" d="M229.4,177.8c-0.8-0.6-2.5-1.5-3.1-1.2l-0.6,0.2l0,0l0.4,1.4l1.7-0.4L229.4,177.8L229.4,177.8z"/>
							<path class="st28" d="M160.8,166.2c1,0.1,2.3-0.4,2.3-0.4l-1.2-1.4C161.9,164.4,159.9,166,160.8,166.2L160.8,166.2z"/>
							<path class="st28" d="M159.7,155.8c1,0.1,2.3-0.4,2.3-0.4l-1.2-1.4C160.8,154.1,158.8,155.7,159.7,155.8L159.7,155.8z"/>
							<path class="st28" d="M267.8,196.6c1,0.1,2.3-0.4,2.3-0.4l-1.2-1.4C268.9,194.9,266.8,196.5,267.8,196.6z"/>
						</g>
						<g>
							<path class="st28" d="M108.6,169c0.4,1.3,1.8,3.6,2.6,3.7l0.8,0.2l0,0l0.6-2l-2.3-0.8C110.3,170.1,108.6,169,108.6,169z"/>
							<path class="st28" d="M165,158.3c0,0,1.1,2,0.4,3.2c-0.7,1.2-0.7,3.1-0.7,3.1l2.3-0.8C167.1,163.7,167,158.8,165,158.3
								L165,158.3z"/>
							<path class="st28" d="M190.8,165.5c-1.1-0.9-3.5-2-4.3-1.7l-0.8,0.3l0,0l0.6,2l2.3-0.6L190.8,165.5L190.8,165.5z"/>
							<path class="st28" d="M130.3,213.6c-1.1-0.9-3.5-2-4.3-1.7l-0.8,0.3l0,0l0.6,2l2.3-0.6L130.3,213.6L130.3,213.6z"/>
							<path class="st28" d="M133.5,142c-1.2-0.6-3.8-1.3-4.5-0.8l-0.7,0.5l0,0l1,1.8l2.2-1L133.5,142L133.5,142z"/>
							<path class="st28" d="M176.8,161.6c0.4,1.3,1.8,3.6,2.6,3.8l0.8,0.2l0,0l0.6-2l-2.3-0.8L176.8,161.6z"/>
							<path class="st28" d="M234.2,145.5c0,0-0.6,1.3-1,2.1c-0.4,0.8,0.8,2,0.8,2l1.5-0.6C235.5,149,235.5,145.8,234.2,145.5
								L234.2,145.5z"/>
							<path class="st28" d="M164,130.4c-0.7,1.2-0.7,3.1-0.7,3.1l2.3-0.8C165.6,132.6,164.7,129.2,164,130.4z"/>
							<path class="st28" d="M164.6,159.9c-1.1-0.9-3.5-2-4.3-1.7l-0.8,0.3l0,0l0.6,2l2.4-0.6L164.6,159.9L164.6,159.9z"/>
							<path class="st28" d="M200.2,154.3c0,0-1.3-0.1-2.2-0.5c-0.9-0.4-2.4,0.8-2.4,0.8l0.8,1.6
								C196.4,156.2,199.9,155.8,200.2,154.3L200.2,154.3z"/>
							<path class="st28" d="M175.4,164c-0.1-1.4-1.1-3-1.1-3l-1.5,2C172.8,163,175.4,165.3,175.4,164L175.4,164z"/>
							<path class="st28" d="M166.7,167.6c0,0-1.6,0.5-2.4-0.2c-0.7-0.6-2.1-0.9-2.1-0.9l0.2,1.8C162.5,168.3,166,169,166.7,167.6z"
								/>
							<path class="st28" d="M160.8,166.2c-0.5,0.9-0.5,2.2-0.5,2.2l1.7-0.6C162,167.8,161.3,165.3,160.8,166.2L160.8,166.2z"/>
							<path class="st28" d="M156.9,167.3c0.8-0.6,1.9-2.2,1.8-2.8l-0.1-0.6l0,0l-1.5,0.1l0.1,1.8L156.9,167.3L156.9,167.3z"/>
							<path class="st28" d="M264.4,173.6c0.8-0.6,1.9-2.2,1.8-2.8l-0.1-0.6l0,0l-1.5,0.1l0.1,1.8L264.4,173.6L264.4,173.6z"/>
							<path class="st28" d="M183,170.2c-0.1-1-0.8-2.2-0.8-2.2l-1.1,1.4C181.1,169.5,183,171.2,183,170.2L183,170.2z"/>
							<path class="st28" d="M115,198.6c-0.1-1-0.8-2.2-0.8-2.2l-1.1,1.4C113.1,197.9,115,199.6,115,198.6z"/>
							<path class="st28" d="M152.6,167.2c-0.1-1-0.8-2.2-0.8-2.2l-1.1,1.4C150.7,166.5,152.7,168.2,152.6,167.2L152.6,167.2z"/>
							<path class="st28" d="M167,226.3c-0.1-1-0.8-2.2-0.8-2.2l-1.1,1.4C165.1,225.5,167,227.2,167,226.3L167,226.3z"/>
							<path class="st28" d="M190.8,167.8c-0.1-1-0.8-2.2-0.8-2.2l-1.1,1.4C188.9,167.1,190.9,168.8,190.8,167.8L190.8,167.8z"/>
							<path class="st28" d="M244.1,180.1c-0.9-0.4-2.8-0.9-3.3-0.6l-0.5,0.3l0,0l0.7,1.3l1.6-0.8L244.1,180.1L244.1,180.1z"/>
							<path class="st28" d="M139.1,187.8c-0.7-0.6-2.1-0.9-2.1-0.9l0.2,1.8C137.3,188.7,139.9,188.5,139.1,187.8L139.1,187.8z"/>
							<path class="st28" d="M137.8,190.5c-0.7-0.6-2.1-0.9-2.1-0.9l0.2,1.8C136,191.4,138.6,191.2,137.8,190.5L137.8,190.5z"/>
							<path class="st28" d="M252.3,163.1c-0.7-0.6-2.1-0.9-2.1-0.9l0.2,1.8C250.4,163.9,253,163.7,252.3,163.1L252.3,163.1z"/>
							<path class="st28" d="M155.5,145.5c-0.8-0.6-2.5-1.5-3.1-1.2l-0.6,0.2l0,0l0.4,1.4l1.7-0.4L155.5,145.5L155.5,145.5z"/>
							<path class="st28" d="M152.5,170.3c1,0.1,2.3-0.4,2.3-0.4l-1.2-1.4C153.6,168.6,151.5,170.2,152.5,170.3L152.5,170.3z"/>
							<path class="st28" d="M151.4,160c1,0.1,2.3-0.4,2.3-0.4l-1.2-1.4C152.5,158.2,150.4,159.8,151.4,160L151.4,160z"/>
							<path class="st28" d="M82.5,160.1c1,0.1,2.3-0.4,2.3-0.4l-1.2-1.4C83.6,158.4,81.5,160,82.5,160.1L82.5,160.1z"/>
						</g>
						<g>
							<path class="st28" d="M166.5,180.4c0.4,1.3,1.8,3.6,2.6,3.7l0.8,0.2l0,0l0.6-2l-2.3-0.8L166.5,180.4L166.5,180.4z"/>
							<path class="st28" d="M229.4,199.3c0.4,1.3,1.8,3.6,2.6,3.7l0.8,0.2l0,0l0.6-2l-2.3-0.8L229.4,199.3z"/>
							<path class="st28" d="M116.6,204.8c0,0,1.1,2,0.4,3.2c-0.7,1.2-0.7,3.1-0.7,3.1l2.3-0.8C118.6,210.3,118.6,205.4,116.6,204.8
								L116.6,204.8z"/>
							<path class="st28" d="M172.3,128.3c-1.1-0.9-3.5-2-4.3-1.7l-0.8,0.3l0,0l0.6,2l2.3-0.6L172.3,128.3L172.3,128.3z"/>
							<path class="st28" d="M111.7,176.4c-1.1-0.9-3.5-2-4.3-1.7l-0.8,0.3l0,0l0.6,2l2.3-0.6L111.7,176.4L111.7,176.4z"/>
							<path class="st28" d="M85.5,180.8c-1.2-0.6-3.8-1.3-4.5-0.8l-0.7,0.5l0,0l1,1.8l2.2-1L85.5,180.8z"/>
							<path class="st28" d="M158.2,124.4c0.4,1.3,1.8,3.6,2.6,3.8l0.8,0.2l0,0l0.6-2l-2.3-0.8L158.2,124.4L158.2,124.4z"/>
							<path class="st28" d="M259.7,158.5c0,0-0.5,1.3-1,2.1c-0.4,0.8,0.8,2,0.8,2l1.5-0.6C261.1,162,261,158.8,259.7,158.5
								L259.7,158.5z"/>
							<path class="st28" d="M99.5,192.4c0,0-0.6,1.3-1,2.1c-0.4,0.8,0.8,2,0.8,2l1.5-0.6C100.9,196,100.8,192.8,99.5,192.4
								L99.5,192.4z"/>
							<path class="st28" d="M165.8,200.6c-0.7,1.2-0.7,3.1-0.7,3.1l2.3-0.8C167.4,202.9,166.4,199.5,165.8,200.6z"/>
							<path class="st28" d="M116.2,206.5c-1.1-0.9-3.5-2-4.3-1.7l-0.8,0.3l0,0l0.6,2l2.3-0.6L116.2,206.5L116.2,206.5z"/>
							<path class="st28" d="M181.7,117.1c0,0-1.3-0.1-2.2-0.5c-0.9-0.4-2.4,0.8-2.4,0.8l0.8,1.6C177.8,119,181.4,118.6,181.7,117.1
								L181.7,117.1z"/>
							<path class="st28" d="M156.8,126.8c-0.1-1.3-1.1-3-1.1-3l-1.5,2C154.2,125.8,156.9,128.2,156.8,126.8z"/>
							<path class="st28" d="M148.2,130.4c0,0-1.6,0.5-2.4-0.2c-0.7-0.6-2.1-0.9-2.1-0.9l0.2,1.8C144,131.1,147.5,131.8,148.2,130.4
								z"/>
							<path class="st28" d="M145.3,153.1c0,0-1.6,0.5-2.4-0.2c-0.7-0.6-2.1-0.9-2.1-0.9l0.2,1.8
								C141.1,153.8,144.6,154.4,145.3,153.1z"/>
							<path class="st28" d="M142.2,129c-0.5,0.9-0.5,2.2-0.5,2.2l1.7-0.6C143.5,130.6,142.7,128.1,142.2,129L142.2,129z"/>
							<path class="st28" d="M138.4,130.1c0.8-0.6,1.9-2.2,1.8-2.8l-0.1-0.6l0,0l-1.5,0.1l0.1,1.8L138.4,130.1L138.4,130.1z"/>
							<path class="st28" d="M164.4,133c-0.1-1-0.8-2.2-0.8-2.2l-1.1,1.4C162.5,132.3,164.5,134,164.4,133L164.4,133z"/>
							<path class="st28" d="M134,130c-0.1-1-0.8-2.2-0.8-2.2l-1.1,1.4C132.1,129.3,134.1,131,134,130L134,130z"/>
							<path class="st28" d="M148.4,189.1c-0.1-1-0.8-2.2-0.8-2.2l-1.1,1.4C146.5,188.3,148.5,190,148.4,189.1L148.4,189.1z"/>
							<path class="st28" d="M172.3,130.6c-0.1-1-0.8-2.2-0.8-2.2l-1.1,1.4C170.4,129.9,172.3,131.6,172.3,130.6L172.3,130.6z"/>
							<path class="st28" d="M225.5,142.9c-0.9-0.4-2.8-0.9-3.3-0.6l-0.5,0.3l0,0l0.7,1.3l1.6-0.8L225.5,142.9L225.5,142.9z"/>
							<path class="st28" d="M120.6,150.6c-0.7-0.6-2.1-0.9-2.1-0.9l0.2,1.8C118.7,151.5,121.3,151.3,120.6,150.6L120.6,150.6z"/>
							<path class="st28" d="M119.2,153.3c-0.7-0.6-2.1-0.9-2.1-0.9l0.2,1.8C117.4,154.2,120,154,119.2,153.3L119.2,153.3z"/>
							<path class="st28" d="M107.4,184.3c-0.8-0.6-2.5-1.5-3.1-1.2l-0.6,0.2l0,0l0.4,1.4l1.7-0.4L107.4,184.3L107.4,184.3z"/>
							<path class="st28" d="M134,133.1c1,0.1,2.3-0.4,2.3-0.4l-1.2-1.4C135.1,131.4,133,133,134,133.1L134,133.1z"/>
							<path class="st28" d="M103,206.5c1,0.1,2.3-0.4,2.3-0.4l-1.2-1.4C104.1,204.8,102,206.4,103,206.5L103,206.5z"/>
						</g>
						<g>
							<path class="st28" d="M239.8,213.7c-0.8-1.1-2.8-2.8-3.7-2.7l-0.9,0.1l0,0l0.1,2.1l2.4,0.1L239.8,213.7L239.8,213.7z"/>
							<path class="st28" d="M205.2,204.3c0,0-1.7-1.6-1.4-2.9c0.3-1.3-0.3-3.1-0.3-3.1l-2,1.5C201.6,199.8,203.2,204.4,205.2,204.3
								z"/>
							<path class="st28" d="M178.4,205.5c1.3,0.5,3.9,0.8,4.6,0.3l0.6-0.6l0,0l-1.2-1.7l-2,1.3L178.4,205.5L178.4,205.5z"/>
							<path class="st28" d="M220.9,140.9c1.3,0.5,3.9,0.8,4.6,0.3l0.6-0.6l0,0l-1.2-1.7l-2,1.3L220.9,140.9L220.9,140.9z"/>
							<path class="st28" d="M240.2,209.9c1.4,0.2,4,0,4.5-0.7l0.5-0.7l0,0l-1.5-1.4l-1.8,1.7L240.2,209.9L240.2,209.9z"/>
							<path class="st28" d="M193,204.8c-0.8-1.1-2.8-2.8-3.7-2.7l-0.9,0.1l0,0l0.1,2.1l2.4,0.1L193,204.8L193,204.8z"/>
							<path class="st28" d="M163.2,227.2c0,0,0.1-1.4,0.3-2.3s-1.4-1.7-1.4-1.7l-1.3,1C160.8,224.2,161.8,227.3,163.2,227.2z"/>
							<path class="st28" d="M216.4,222.8c0.3-1.3-0.3-3.1-0.3-3.1l-2,1.5C214.2,221.2,216.2,224.2,216.4,222.8L216.4,222.8z"/>
							<path class="st28" d="M205.1,202.6c1.3,0.5,3.9,0.8,4.6,0.3l0.6-0.6l0,0l-1.2-1.7l-2.1,1.3L205.1,202.6L205.1,202.6z"/>
							<path class="st28" d="M173,219.1c0,0,1.3-0.3,2.3-0.2c1,0.1,2-1.5,2-1.5l-1.3-1.3C176,216.1,172.8,217.6,173,219.1L173,219.1
								z"/>
							<path class="st28" d="M162.9,250.5c0,0,1.3-0.3,2.3-0.2c1,0.1,2-1.5,2-1.5l-1.3-1.3C165.9,247.5,162.7,249,162.9,250.5
								L162.9,250.5z"/>
							<path class="st28" d="M193.6,202.1c0.5,1.2,2,2.5,2,2.5l0.8-2.4C196.4,202.2,193.1,200.9,193.6,202.1z"/>
							<path class="st28" d="M200.7,195.9c0,0,1.4-0.9,2.3-0.6s2.3,0.2,2.3,0.2l-0.8-1.6C204.4,194,200.9,194.4,200.7,195.9
								L200.7,195.9z"/>
							<path class="st28" d="M206.8,195.5c0.2-1-0.2-2.3-0.2-2.3l-1.4,1.1C205.1,194.3,206.6,196.4,206.8,195.5L206.8,195.5z"/>
							<path class="st28" d="M210.1,193.2c-0.5,0.9-1.2,2.7-0.9,3.2l0.3,0.6l0,0l1.4-0.6l-0.6-1.6L210.1,193.2z"/>
							<path class="st28" d="M184.4,198.6c0.4,0.9,1.4,1.8,1.4,1.8l0.6-1.7C186.5,198.7,184.1,197.7,184.4,198.6L184.4,198.6z"/>
							<path class="st28" d="M214.2,192c0.4,0.9,1.4,1.8,1.4,1.8l0.6-1.7C216.3,192,213.9,191,214.2,192L214.2,192z"/>
							<path class="st28" d="M182.1,140.4c0.4,0.9,1.4,1.8,1.4,1.8l0.6-1.7C184.1,140.4,181.7,139.4,182.1,140.4L182.1,140.4z"/>
							<path class="st28" d="M177.7,203.4c0.4,0.9,1.4,1.8,1.4,1.8l0.6-1.7C179.7,203.4,177.4,202.4,177.7,203.4L177.7,203.4z"/>
							<path class="st28" d="M131.3,212.7c1,0.1,2.9,0,3.3-0.5l0.4-0.5l0,0l-1.1-1l-1.3,1.2L131.3,212.7L131.3,212.7z"/>
							<path class="st28" d="M216.6,177c0.9,0.4,2.3,0.2,2.3,0.2l-0.8-1.6C218.1,175.6,215.7,176.6,216.6,177L216.6,177z"/>
							<path class="st28" d="M221.7,171.9c0.9,0.4,2.3,0.2,2.3,0.2l-0.8-1.6C223.2,170.6,220.8,171.6,221.7,171.9L221.7,171.9z"/>
							<path class="st28" d="M218.3,213.5c0.9,0.4,2.9,0.6,3.3,0.2l0.5-0.4l0,0l-0.9-1.2l-1.5,0.9L218.3,213.5L218.3,213.5z"/>
							<path class="st28" d="M213.3,188.9c-1,0.2-2.1,1-2.1,1l1.6,0.9C212.8,190.9,214.3,188.8,213.3,188.9L213.3,188.9z"/>
							<path class="st28" d="M217.6,198.4c-1,0.2-2.1,1-2.1,1l1.6,0.9C217.1,200.4,218.6,198.3,217.6,198.4L217.6,198.4z"/>
						</g>
						<g>
							<path class="st28" d="M192,173.5c0.3-0.9,0.5-2.9,0.1-3.3l-0.4-0.5l0,0l-1.2,0.9l1,1.5L192,173.5L192,173.5z"/>
							<path class="st28" d="M245.3,221.9c0,0-0.6-1.3-0.8-2.4c-0.1-1.1-2.1-1.8-2.1-1.8l-1.1,1.7
								C241.3,219.4,243.7,222.5,245.3,221.9L245.3,221.9z"/>
							<path class="st28" d="M182.8,167.2c-0.1-1.1-1.1-2.3-1.1-2.3l-1.1,1.7C180.6,166.6,182.9,168.3,182.8,167.2L182.8,167.2z"/>
							<path class="st28" d="M188.5,171.1c-0.9-0.4-2.8-0.7-3.3-0.4l-0.5,0.4l0,0l0.8,1.3l1.5-0.9L188.5,171.1L188.5,171.1z"/>
							<path class="st28" d="M245.4,177.9c-0.9-0.4-2.8-0.7-3.3-0.4l-0.5,0.4l0,0l0.8,1.3l1.5-0.9L245.4,177.9L245.4,177.9z"/>
							<path class="st28" d="M178.9,168.2c0,0-1,0-1.6-0.3s-1.7,0.7-1.7,0.7l0.6,1.1C176.2,169.8,178.8,169.3,178.9,168.2
								L178.9,168.2z"/>
							<path class="st28" d="M190.7,166.4c-0.8,0.1-2.2,0.8-2.4,1.2l-0.2,0.5l0,0l1.1,0.5l0.7-1.3L190.7,166.4L190.7,166.4z"/>
							<path class="st28" d="M143.2,170.1c0,0-0.4-0.9-0.5-1.6s-1.4-1.2-1.4-1.2l-0.7,1.1C140.6,168.4,142.2,170.4,143.2,170.1z"/>
							<path class="st28" d="M235.1,175.1c-0.1-0.7-0.7-1.5-0.7-1.5l-0.7,1.1C233.7,174.6,235.2,175.8,235.1,175.1L235.1,175.1z"/>
							<path class="st28" d="M94.9,138.2c-0.1-0.7-0.7-1.5-0.7-1.5l-0.7,1.1C93.4,137.8,94.9,138.9,94.9,138.2L94.9,138.2z"/>
							<path class="st28" d="M234.6,206.5c-0.1-0.8-0.8-1.7-0.8-1.7l-0.8,1.2C233.1,206,234.7,207.3,234.6,206.5L234.6,206.5z"/>
							<path class="st28" d="M111.5,209.2c-0.1-0.8-0.8-1.7-0.8-1.7l-0.8,1.2C109.9,208.7,111.6,210,111.5,209.2L111.5,209.2z"/>
							<path class="st28" d="M145.4,163.7c-0.1-0.8-0.8-1.7-0.8-1.7l-0.8,1.2C143.8,163.2,145.5,164.5,145.4,163.7L145.4,163.7z"/>
							<path class="st28" d="M260.8,213.9c-0.1-0.8-0.8-1.7-0.8-1.7l-0.8,1.2C259.2,213.4,260.9,214.7,260.8,213.9L260.8,213.9z"/>
							<path class="st28" d="M153.6,235.1c-0.1-0.8-0.8-1.7-0.8-1.7l-0.8,1.2C152,234.7,153.7,235.9,153.6,235.1L153.6,235.1z"/>
							<path class="st28" d="M176,171.4c-0.1-0.8-0.8-1.7-0.8-1.7l-0.8,1.2C174.5,170.9,176.1,172.2,176,171.4L176,171.4z"/>
							<path class="st28" d="M224.5,206.9c0,0-1,0-1.6-0.3s-1.7,0.7-1.7,0.7l0.6,1.1C221.8,208.5,224.3,208,224.5,206.9L224.5,206.9
								z"/>
							<path class="st28" d="M148.4,187.3c-0.1-0.7-0.7-1.5-0.7-1.5l-0.7,1.1C146.9,186.8,148.4,188,148.4,187.3L148.4,187.3z"/>
							<path class="st28" d="M145,187.5c-0.1-0.8-0.8-1.7-0.8-1.7l-0.8,1.2C143.5,187,145.1,188.3,145,187.5L145,187.5z"/>
							<path class="st28" d="M269.4,187.3c-0.1-0.7-0.7-1.5-0.7-1.5l-0.7,1.1C268,186.9,269.5,188,269.4,187.3L269.4,187.3z"/>
							<path class="st28" d="M183.2,227.7c-0.1-0.8-0.8-1.7-0.8-1.7l-0.8,1.2C181.6,227.3,183.3,228.5,183.2,227.7L183.2,227.7z"/>
							<path class="st28" d="M178.1,202.7c-0.1-0.8-0.8-1.7-0.8-1.7l-0.8,1.2C176.5,202.2,178.2,203.5,178.1,202.7L178.1,202.7z"/>
							<path class="st28" d="M238.9,203.5c-0.1-0.8-0.8-1.7-0.8-1.7l-0.8,1.2C237.4,203.1,239,204.3,238.9,203.5L238.9,203.5z"/>
							<path class="st28" d="M101,139.8c-0.4-0.9-1.6-1.7-1.6-1.7l-0.4,1.8C99,139.9,101.5,140.7,101,139.8L101,139.8z"/>
							<path class="st28" d="M105.2,148.3c-0.1-0.8-0.8-1.7-0.8-1.7l-0.8,1.2C103.6,147.8,105.2,149.1,105.2,148.3L105.2,148.3z"/>
							<path class="st28" d="M170.6,142c0,0-0.3,0.8-0.5,1.3s0.6,1.2,0.6,1.2l0.9-0.4C171.6,144.1,171.4,142.2,170.6,142L170.6,142z
								"/>
							<path class="st28" d="M183.8,170.2c-0.6-0.5-1.7-0.7-1.7-0.7l0.3,1.4C182.4,171,184.4,170.7,183.8,170.2z"/>
							<path class="st28" d="M107.8,166.4c-0.6-0.5-1.7-0.7-1.7-0.7l0.3,1.4C106.4,167.2,108.5,166.9,107.8,166.4L107.8,166.4z"/>
							<path class="st28" d="M184.8,137.5c0,0-1,0-1.6-0.3s-1.7,0.7-1.7,0.7l0.6,1.1C182.1,139,184.7,138.6,184.8,137.5L184.8,137.5
								z"/>
							<path class="st28" d="M185.3,140.4c-0.1-0.7-0.7-1.5-0.7-1.5l-0.7,1.1C183.8,140,185.3,141.1,185.3,140.4L185.3,140.4z"/>
							<path class="st28" d="M181.9,140.6c-0.1-0.8-0.8-1.7-0.8-1.7l-0.8,1.2C180.3,140.2,182,141.4,181.9,140.6L181.9,140.6z"/>
							<path class="st28" d="M186.9,140.6c-0.6-0.5-1.7-0.7-1.7-0.7l0.3,1.4C185.4,141.3,187.5,141,186.9,140.6L186.9,140.6z"/>
							<path class="st28" d="M238.6,197.3c-0.1-0.8-0.8-1.7-0.8-1.7l-0.8,1.2C237,196.8,238.7,198.1,238.6,197.3L238.6,197.3z"/>
							<path class="st28" d="M243.5,197.2c-0.6-0.5-1.7-0.7-1.7-0.7l0.3,1.4C242.1,198,244.1,197.7,243.5,197.2z"/>
							<path class="st28" d="M163.1,141.1c-0.6-0.5-1.7-0.7-1.7-0.7l0.3,1.4C161.6,141.9,163.7,141.6,163.1,141.1L163.1,141.1z"/>
							<path class="st28" d="M240.5,157.1c-0.6-0.5-1.7-0.7-1.7-0.7l0.3,1.4C239.1,157.9,241.2,157.6,240.5,157.1L240.5,157.1z"/>
							<path class="st28" d="M222.7,171.4c-0.3-1.2-1.4-3.4-2.1-3.6l-0.7-0.2l0,0l-0.7,1.7l2,0.9L222.7,171.4L222.7,171.4z"/>
							<path class="st28" d="M185.5,164.6c0,0,0.2-0.8,0.5-1.2c0.3-0.5-0.3-1.4-0.3-1.4l-1,0.3C184.7,162.2,184.7,164.3,185.5,164.6
								L185.5,164.6z"/>
							<path class="st28" d="M246.2,169.9c0,0,0.2-0.8,0.5-1.2c0.3-0.5-0.3-1.4-0.3-1.4l-1,0.3C245.4,167.6,245.3,169.7,246.2,169.9
								L246.2,169.9z"/>
							<path class="st28" d="M181.2,187.7c0,0,0.2-0.8,0.5-1.2c0.3-0.5-0.3-1.4-0.3-1.4l-1,0.3C180.4,185.3,180.4,187.4,181.2,187.7
								L181.2,187.7z"/>
							<path class="st28" d="M120.4,158.3c0,0,0.2-0.8,0.5-1.2s-0.3-1.4-0.3-1.4l-1,0.3C119.6,155.9,119.5,158,120.4,158.3
								L120.4,158.3z"/>
						</g>
						<g>
							<path class="st28" d="M166.9,183.1c-0.7-0.7-2.4-1.6-3-1.5l-0.6,0.2l0,0l0.3,1.5l1.7-0.3L166.9,183.1L166.9,183.1z"/>
							<path class="st28" d="M233.1,154.6c0,0-1.5,0-2.5-0.3s-2.5,1.2-2.5,1.2l1.1,1.7C229.1,157.1,233,156.2,233.1,154.6z"/>
							<path class="st28" d="M157.4,188.9c-1-0.3-2.6,0-2.6,0l1.1,1.7C156,190.6,158.5,189.2,157.4,188.9L157.4,188.9z"/>
							<path class="st28" d="M163.3,185.2c-0.7,0.7-1.8,2.3-1.7,2.9l0.1,0.6l0,0l1.5-0.2l-0.1-1.8L163.3,185.2z"/>
							<path class="st28" d="M192.9,136.3c-0.7,0.7-1.8,2.3-1.7,2.9l0.1,0.6l0,0l1.5-0.2l-0.1-1.8L192.9,136.3z"/>
							<path class="st28" d="M156.7,192.9c0,0-0.4,0.9-0.9,1.4s-0.1,1.8-0.1,1.8l1.3-0.1C157.1,195.9,157.7,193.4,156.7,192.9
								L156.7,192.9z"/>
							<path class="st28" d="M160,181.3c-0.2,0.8-0.2,2.4,0.1,2.7l0.4,0.3l0,0l0.9-0.8l-0.9-1.1L160,181.3L160,181.3z"/>
							<path class="st28" d="M141.6,198.6c-0.2,0.8-0.2,2.4,0.1,2.7l0.4,0.3l0,0l0.9-0.8l-0.9-1.1L141.6,198.6L141.6,198.6z"/>
							<path class="st28" d="M143.7,226.1c0,0-1,0-1.6-0.2s-1.6,0.8-1.6,0.8l0.7,1.1C141.1,227.8,143.6,227.2,143.7,226.1
								L143.7,226.1z"/>
							<path class="st28" d="M186.2,144.4c-0.7-0.2-1.7,0-1.7,0l0.7,1.1C185.2,145.6,186.8,144.7,186.2,144.4L186.2,144.4z"/>
							<path class="st28" d="M82.9,195.1c-0.7-0.2-1.7,0-1.7,0l0.7,1.1C82,196.2,83.6,195.3,82.9,195.1L82.9,195.1z"/>
							<path class="st28" d="M129.6,164.2c-0.7-0.2-1.7,0-1.7,0l0.7,1.1C128.6,165.3,130.3,164.4,129.6,164.2L129.6,164.2z"/>
							<path class="st28" d="M214.6,157.9c-0.8-0.2-1.9,0-1.9,0l0.8,1.2C213.5,159.1,215.3,158.1,214.6,157.9L214.6,157.9z"/>
							<path class="st28" d="M258.7,214.3c-0.8-0.2-1.9,0-1.9,0l0.8,1.2C257.6,215.5,259.5,214.5,258.7,214.3L258.7,214.3z"/>
							<path class="st28" d="M138.8,221.5c-0.8-0.2-1.9,0-1.9,0l0.8,1.2C137.7,222.8,139.5,221.8,138.8,221.5L138.8,221.5z"/>
							<path class="st28" d="M255.2,155.9c-0.8-0.2-1.9,0-1.9,0l0.8,1.2C254.1,157.2,256,156.2,255.2,155.9L255.2,155.9z"/>
							<path class="st28" d="M207.2,243.5c-0.8-0.2-1.9,0-1.9,0l0.8,1.2C206.1,244.7,208,243.7,207.2,243.5L207.2,243.5z"/>
							<path class="st28" d="M158.4,196.8c-0.8-0.2-1.9,0-1.9,0l0.8,1.2C157.3,198,159.2,197,158.4,196.8L158.4,196.8z"/>
							<path class="st28" d="M210.8,167.3c0,0-0.4,0.9-0.9,1.4s-0.1,1.8-0.1,1.8l1.3-0.1C211.1,170.4,211.7,167.9,210.8,167.3
								L210.8,167.3z"/>
							<path class="st28" d="M161.5,228.5c-0.7-0.2-1.7,0-1.7,0l0.7,1.1C160.5,229.6,162.1,228.7,161.5,228.5L161.5,228.5z"/>
							<path class="st28" d="M160.3,231.6c-0.8-0.2-1.9,0-1.9,0l0.8,1.2C159.2,232.9,161,231.9,160.3,231.6L160.3,231.6z"/>
							<path class="st28" d="M211.5,118.3c-0.7-0.2-1.7,0-1.7,0l0.7,1.1C210.5,119.4,212.1,118.5,211.5,118.3L211.5,118.3z"/>
							<path class="st28" d="M212.7,213.5c-0.8-0.2-1.9,0-1.9,0l0.8,1.2C211.6,214.8,213.4,213.8,212.7,213.5L212.7,213.5z"/>
							<path class="st28" d="M187.7,207.8c-0.8-0.2-1.9,0-1.9,0l0.8,1.2C186.7,209.1,188.5,208.1,187.7,207.8L187.7,207.8z"/>
							<path class="st28" d="M213.7,152.7c-0.8-0.2-1.9,0-1.9,0l0.8,1.2C212.6,154,214.4,153,213.7,152.7L213.7,152.7z"/>
							<path class="st28" d="M82.8,219.2c-1,0-2.2,0.8-2.2,0.8l1.4,1.1C82.1,221,83.8,219.1,82.8,219.2L82.8,219.2z"/>
							<path class="st28" d="M92.2,218.9c-0.8-0.2-1.9,0-1.9,0l0.8,1.2C91.2,220.2,93,219.2,92.2,218.9L92.2,218.9z"/>
							<path class="st28" d="M129.4,189.6c0,0,0.6,0.6,0.9,1c0.3,0.4,1.3,0,1.3,0v-1C131.7,189.6,129.9,188.9,129.4,189.6
								L129.4,189.6z"/>
							<path class="st28" d="M160.5,189.2c-0.7,0.4-1.3,1.3-1.3,1.3l1.4,0.3C160.6,190.8,161.2,188.8,160.5,189.2L160.5,189.2z"/>
							<path class="st28" d="M152.6,240.9c-0.7,0.4-1.3,1.3-1.3,1.3l1.4,0.3C152.7,242.6,153.3,240.6,152.6,240.9L152.6,240.9z"/>
							<path class="st28" d="M131.2,174.8c0,0-0.4,0.9-0.9,1.4s-0.1,1.8-0.1,1.8l1.3-0.1C131.5,177.9,132.1,175.4,131.2,174.8
								L131.2,174.8z"/>
							<path class="st28" d="M134,175.6c-0.7-0.2-1.7,0-1.7,0l0.7,1.1C133,176.7,134.7,175.8,134,175.6L134,175.6z"/>
							<path class="st28" d="M132.8,178.7c-0.8-0.2-1.9,0-1.9,0l0.8,1.2C131.8,180,133.6,179,132.8,178.7L132.8,178.7z"/>
							<path class="st28" d="M134.8,174.2c-0.7,0.4-1.3,1.3-1.3,1.3l1.4,0.3C134.9,175.8,135.5,173.8,134.8,174.2L134.8,174.2z"/>
							<path class="st28" d="M125.5,196.1c-0.7,0.4-1.3,1.3-1.3,1.3l1.4,0.3C125.6,197.7,126.2,195.7,125.5,196.1L125.5,196.1z"/>
							<path class="st28" d="M172.1,132.1c-0.7,0.4-1.3,1.3-1.3,1.3l1.4,0.3C172.2,133.8,172.7,131.8,172.1,132.1L172.1,132.1z"/>
							<path class="st28" d="M177.6,154.2c-1.2-0.2-3.6-0.1-4.1,0.4l-0.5,0.6l0,0l1.3,1.3l1.6-1.4L177.6,154.2L177.6,154.2z"/>
							<path class="st28" d="M156.1,185.4c0,0-0.6-0.5-0.9-1c-0.3-0.5-1.4-0.4-1.4-0.4l-0.1,1.1C153.6,185.1,155.5,186,156.1,185.4
								L156.1,185.4z"/>
							<path class="st28" d="M175.4,198.8c0,0-0.6-0.5-0.9-1c-0.3-0.5-1.4-0.4-1.4-0.4l-0.1,1.1
								C172.9,198.5,174.8,199.4,175.4,198.8L175.4,198.8z"/>
							<path class="st28" d="M150.6,230c0,0-0.6-0.5-0.9-1c-0.3-0.5-1.4-0.4-1.4-0.4l-0.1,1.1C148.1,229.7,150,230.6,150.6,230
								L150.6,230z"/>
						</g>
					</g>
					<g>
						<path class="st29" d="M390.9,228.3c0-28.1-46.7-45.1-104.4-45.1s-104.4,17-104.4,45.1s27.4,60.1,104.4,60.1
							S390.9,256.3,390.9,228.3L390.9,228.3z"/>
						<g>
							<g>
								<path class="st30" d="M272,248.5c-2.4,2.9-7.4,0.6-9.8,3.6c-1.8,2.2-3.6,3.1-6.9,4.3c-4.8,1.8-4.8-1.7-9.9-2.2
									c-0.9,1.5-1.1,2.3-3.8,2.5c-1.6,0.1-10.1-3.9-12.2-4.8c-8,1.3-8,2-18.8-0.6c-5.1-1.2-3.9-5.1-7.8-6.8
									c-1.9,0.1-10.8,1.8-15.6-0.3c0,0-3.4-1.6-6.5-3.5c-0.6-0.1-1.1-0.3-1.7-0.4c-15.2-3.4,3.8-1.5-5.1-9.9s-5.7,1.9-11.3-7.5
									c-5.6-9.4-5.5-15.4,3.3-17.8s0-7.4,5.6-10c5.6-2.6,5.4,0.4,11.2-1.7c3.8-1.4,8.7-2,13.8-2.5c1.7-0.2,3.3-0.4,5-0.6
									c2.9-0.3,6-0.5,9.7,0.1c4.4,0.7,23.1-1.8,27.5,0.1c12.5,5.4,8.5,5.9,20.3,11.9c5.1,2.6,6.2,6.8,7,10.4
									c0.8,3.5,3.3,7,3.9,10.3c0.4,1.8-0.9,3.4-0.6,5.3c0.4,2.3,2.7,4.4,2.9,6.8C272.3,236.9,272.9,247.4,272,248.5L272,248.5z"/>
								<g>
									<defs>
										<path id="SVGID_00000034799503033109249170000010241062945667854990_" d="M272,248.5c-2.4,2.9-7.4,0.6-9.8,3.6
											c-1.8,2.2-3.6,3.1-6.9,4.3c-4.8,1.8-4.8-1.7-9.9-2.2c-0.9,1.5-1.1,2.3-3.8,2.5c-1.6,0.1-10.1-3.9-12.2-4.8
											c-8,1.3-8,2-18.8-0.6c-5.1-1.2-3.9-5.1-7.8-6.8c-1.9,0.1-10.8,1.8-15.6-0.3c0,0-3.4-1.6-6.5-3.5c-0.6-0.1-1.1-0.3-1.7-0.4
											c-15.2-3.4,3.8-1.5-5.1-9.9s-5.7,1.9-11.3-7.5c-5.6-9.4-5.5-15.4,3.3-17.8s0-7.4,5.6-10c5.6-2.6,5.4,0.4,11.2-1.7
											c3.8-1.4,8.7-2,13.8-2.5c1.7-0.2,3.3-0.4,5-0.6c2.9-0.3,6-0.5,9.7,0.1c4.4,0.7,23.1-1.8,27.5,0.1
											c12.5,5.4,8.5,5.9,20.3,11.9c5.1,2.6,6.2,6.8,7,10.4c0.8,3.5,3.3,7,3.9,10.3c0.4,1.8-0.9,3.4-0.6,5.3
											c0.4,2.3,2.7,4.4,2.9,6.8C272.3,236.9,272.9,247.4,272,248.5L272,248.5z"/>
									</defs>
									<clipPath id="SVGID_00000063614223669439731890000014912335285894550665_">
										<use xlink:href="#SVGID_00000034799503033109249170000010241062945667854990_"  style="overflow:visible;"/>
									</clipPath>
									<g style="clip-path:url(#SVGID_00000063614223669439731890000014912335285894550665_);">
										<path class="st32" d="M246,194.6c0,0-32.8,22.1-40.4,33.4l-7.6,11.2c0,0,21.7-21.8,38.3-28.6
											C252.9,203.9,246,194.6,246,194.6z"/>
										<path class="st32" d="M237.7,208.4c0,0-26.3,2.1-33.2,3.9c-6.9,1.9-20.3,5.1-20.3,5.1s35.8-6.9,44-6.2
											C236.3,212,237.7,208.4,237.7,208.4L237.7,208.4z"/>
										<path class="st32" d="M244.2,200.1c0,0-24.8,0.5-34.3,1.2c-9.5,0.7-22.8,3.1-22.8,3.1s41.2-3.1,50.8-0.6
											S244.1,200.1,244.2,200.1L244.2,200.1z"/>
										<path class="st32" d="M230.1,208.6c0,0,7.6,16.7,7.7,21.7c0.1,4.9,1,14.3,1,14.3s-4.6-24.4-8.9-29.1
											C225.6,210.8,230.1,208.6,230.1,208.6z"/>
										<path class="st32" d="M244.7,197.7c0,0,9.1,15.2,11.9,21.3s4.7,15,4.7,15s-12.1-26.2-19.4-31S244.7,197.7,244.7,197.7z"/>
										<path class="st33" d="M168.6,199.5c7.3,1.6,13.9-2.3,16.2,0.8c2.3,3.1-2.9,6.5-9.2,7.4s-12.1,0.5-14.8,5
											c-2.7,4.5-4.6,13.6,0.5,14.8s4.7,1.5,14.2-1.6c9.4-3.2,10.8-3.6,12.6-1.8s2,2.4-2.8,5.5s-5.4,5.4-9.5,6.8
											c-4,1.4-9.1,0.2-5.2,3.4c3.9,3.3,20.9,9.6,24.7,7.6s9.1-10.1,10.8-7.3c1.7,2.8,0.7,9.2,4.4,11.1
											c13.1,6.4,11.4-4.4,14.2-5.6c8.9-3.7,6,3.7,9.2,8.7c6.9,10.7,9.9,0.3,13.7-6.5c3.9-7,17.1-5.6,20.5,3.7
											c3.3,9.2-3.5,5.3-10.7,9.9c-7.3,4.6-35.2-5.9-49.5-6.9s-61.4-21-54.5-42.3S168.7,199.5,168.6,199.5L168.6,199.5z"/>
									</g>
								</g>
							</g>
							<g>
								<path class="st30" d="M415.2,218.2c-0.3,3.8-5.8,4.6-6.2,8.4c-0.3,2.9-1.3,4.5-3.4,7.4c-3,4.1-5,1.3-9.5,3.6
									c0,1.8,0.4,2.5-1.8,4.1c-1.2,0.9-10.6,2.3-12.9,2.8c-5.9,5.5-5.6,6.1-16,9.9c-5,1.8-6.1-2.1-10.2-1.4
									c-1.5,1.2-8,7.4-13.2,8.4c0,0-3.7,0.5-7.4,0.7c-0.5,0.2-1.1,0.4-1.6,0.6c-14.6,5.5,2.4-3.3-9.7-5.5
									c-12.1-2.1-3.8,4.7-13.6,0s-13.1-9.8-7.1-16.7c6-6.9-4.1-6.2-0.9-11.4s4.8-2.6,8.4-7.6c2.4-3.3,6.1-6.5,10.1-9.7
									c1.3-1.1,2.5-2.2,3.9-3.3c2.2-1.9,4.7-3.7,8.2-5.3c4-1.8,18.3-14.3,22.9-15.1c13.4-2.4,10.3,0.3,23.5-1.3
									c5.7-0.7,9,2.2,11.6,4.8c2.6,2.5,6.6,4.1,9,6.4c1.3,1.3,1.1,3.4,2.4,4.8c1.6,1.7,4.7,2.2,6.2,4
									C409.1,208.3,415.4,216.8,415.2,218.2L415.2,218.2z"/>
								<g>
									<defs>
										<path id="SVGID_00000096770773674267875220000000355498059896281488_" d="M415.2,218.2c-0.3,3.8-5.8,4.6-6.2,8.4
											c-0.3,2.9-1.3,4.5-3.4,7.4c-3,4.1-5,1.3-9.5,3.6c0,1.8,0.4,2.5-1.8,4.1c-1.2,0.9-10.6,2.3-12.9,2.8
											c-5.9,5.5-5.6,6.1-16,9.9c-5,1.8-6.1-2.1-10.2-1.4c-1.5,1.2-8,7.4-13.2,8.4c0,0-3.7,0.5-7.4,0.7c-0.5,0.2-1.1,0.4-1.6,0.6
											c-14.6,5.5,2.4-3.3-9.7-5.5c-12.1-2.1-3.8,4.7-13.6,0s-13.1-9.8-7.1-16.7c6-6.9-4.1-6.2-0.9-11.4s4.8-2.6,8.4-7.6
											c2.4-3.3,6.1-6.5,10.1-9.7c1.3-1.1,2.5-2.2,3.9-3.3c2.2-1.9,4.7-3.7,8.2-5.3c4-1.8,18.3-14.3,22.9-15.1
											c13.4-2.4,10.3,0.3,23.5-1.3c5.7-0.7,9,2.2,11.6,4.8c2.6,2.5,6.6,4.1,9,6.4c1.3,1.3,1.1,3.4,2.4,4.8
											c1.6,1.7,4.7,2.2,6.2,4C409.1,208.3,415.4,216.8,415.2,218.2L415.2,218.2z"/>
									</defs>
									<clipPath id="SVGID_00000123416191598666539370000003776676816504923325_">
										<use xlink:href="#SVGID_00000096770773674267875220000000355498059896281488_"  style="overflow:visible;"/>
									</clipPath>
									<g style="clip-path:url(#SVGID_00000123416191598666539370000003776676816504923325_);">
										<path class="st32" d="M363.8,187.6c0,0-15.1,36.6-15.2,50.2l-0.1,13.6c0,0,6-30.1,16.1-45
											C374.6,191.5,363.8,187.6,363.8,187.6L363.8,187.6z"/>
										<path class="st32" d="M364.5,203.7c0,0-20.7,16.2-25.5,21.6s-14.1,15.5-14.1,15.5s26-25.5,33.2-29.4
											S364.5,203.7,364.5,203.7L364.5,203.7z"/>
										<path class="st32" d="M365.3,193.2c0,0-20.4,14.1-27.9,20s-17.3,15.2-17.3,15.2s32.6-25.3,42-28.6
											C371.6,196.6,365.3,193.2,365.3,193.2L365.3,193.2z"/>
										<path class="st32" d="M358.2,208.1c0,0,15.5,9.8,18.4,13.8c2.9,4,8.7,11.4,8.7,11.4s-17.4-17.8-23.5-19.3
											S358.2,208.1,358.2,208.1L358.2,208.1z"/>
										<path class="st32" d="M364.4,190.9c0,0,16,7.6,21.7,11.1c5.6,3.5,12.2,9.9,12.2,9.9s-24.5-15.1-33.3-15.1
											C356.3,196.9,364.4,190.9,364.4,190.9L364.4,190.9z"/>
										<path class="st33" d="M302.1,234.5c7-2.7,10.3-9.6,13.9-8.3s1.2,7.1-3.5,11.3c-4.7,4.2-9.8,7.1-9.6,12.4
											c0.2,5.3,3.7,13.9,8.6,12c4.9-1.8,4.8-1.3,10.9-9.2c6.1-7.9,7-9,9.5-8.5s3,0.9,0.7,6.2s-1.5,7.5-4.1,10.9
											c-2.6,3.4-7.5,5.2-2.4,5.8c5.1,0.5,22.7-3.6,24.7-7.3c2-3.8,2-13.4,5-12c3,1.4,5.7,7.3,9.8,6.8c14.4-1.9,7.1-9.9,8.8-12.5
											c5.3-8,7-0.3,12.5,2.1c11.7,5.1,8.4-5.2,7.8-13c-0.6-8,11.2-14.1,19.1-8.2s0,6.3-3.5,14.2c-3.5,7.9-32.6,14.5-45,21.6
											c-12.4,7-62.8,16.5-68.8-5.2C290.3,231.7,302.1,234.5,302.1,234.5L302.1,234.5z"/>
									</g>
								</g>
							</g>
							<g>
								<path class="st30" d="M390.5,215.8c-0.4,4-7.3,5.2-7.8,9.3c-0.3,3.1-1.5,4.9-4.2,8.1c-3.7,4.6-6.3,1.6-12.1,4.3
									c0.1,1.9,0.5,2.7-2.2,4.5c-1.6,1.1-13.5,2.9-16.4,3.5c-7.5,6.2-7,6.8-20.3,11.4c-6.3,2.1-7.8-2-13.2-1
									c-1.9,1.3-10.1,8.3-16.7,9.6c0,0-4.7,0.8-9.4,1.1c-0.7,0.2-1.4,0.5-2.1,0.7c-18.6,6.6,2.9-3.7-12.6-5.4
									c-15.5-1.8-4.7,5.2-17.4,0.6s-16.9-9.9-9.4-17.6c7.5-7.7-5.4-6.5-1.3-12.2c4-5.8,6.1-3,10.6-8.6c3-3.6,7.7-7.2,12.7-10.9
									c1.7-1.2,3.2-2.4,4.9-3.7c2.8-2.1,5.9-4.2,10.4-6c5.1-2.1,23.1-16.2,29.1-17.3c17.1-3.2,13.2-0.2,30.1-2.4
									c7.3-1,11.5,2,15,4.6c3.4,2.6,8.5,4.1,11.6,6.5c1.7,1.4,1.5,3.6,3.2,5c2.1,1.8,6,2.2,8,4.1
									C382.5,205.4,390.6,214.3,390.5,215.8L390.5,215.8z"/>
								<g>
									<defs>
										<path id="SVGID_00000069391424893720943870000015541831885865168545_" d="M390.5,215.8c-0.4,4-7.3,5.2-7.8,9.3
											c-0.3,3.1-1.5,4.9-4.2,8.1c-3.7,4.6-6.3,1.6-12.1,4.3c0.1,1.9,0.5,2.7-2.2,4.5c-1.6,1.1-13.5,2.9-16.4,3.5
											c-7.5,6.2-7,6.8-20.3,11.4c-6.3,2.1-7.8-2-13.2-1c-1.9,1.3-10.1,8.3-16.7,9.6c0,0-4.7,0.8-9.4,1.1
											c-0.7,0.2-1.4,0.5-2.1,0.7c-18.6,6.6,2.9-3.7-12.6-5.4c-15.5-1.8-4.7,5.2-17.4,0.6s-16.9-9.9-9.4-17.6
											c7.5-7.7-5.4-6.5-1.3-12.2c4-5.8,6.1-3,10.6-8.6c3-3.6,7.7-7.2,12.7-10.9c1.7-1.2,3.2-2.4,4.9-3.7c2.8-2.1,5.9-4.2,10.4-6
											c5.1-2.1,23.1-16.2,29.1-17.3c17.1-3.2,13.2-0.2,30.1-2.4c7.3-1,11.5,2,15,4.6c3.4,2.6,8.5,4.1,11.6,6.5
											c1.7,1.4,1.5,3.6,3.2,5c2.1,1.8,6,2.2,8,4.1C382.5,205.4,390.6,214.3,390.5,215.8L390.5,215.8z"/>
									</defs>
									<clipPath id="SVGID_00000012434678169815237030000002882449045544838024_">
										<use xlink:href="#SVGID_00000069391424893720943870000015541831885865168545_"  style="overflow:visible;"/>
									</clipPath>
									<g style="clip-path:url(#SVGID_00000012434678169815237030000002882449045544838024_);">
										<path class="st32" d="M324,185.3c0,0-18.6,40-18.5,54.6l0.1,14.6c0,0,7.1-32.6,19.8-49S324,185.3,324,185.3L324,185.3z"/>
										<path class="st32" d="M325.2,202.5c0,0-26.2,18.4-32.2,24.4c-6,6-17.7,17.2-17.7,17.2s32.9-28.6,42-33.1
											C326.3,206.4,325.2,202.5,325.2,202.5L325.2,202.5z"/>
										<path class="st32" d="M326,191.2c0,0-25.9,16.1-35.4,22.7s-21.8,17.1-21.8,17.1s41.3-28.7,53.3-32.6
											C334.1,194.5,326,191.1,326,191.2L326,191.2z"/>
										<path class="st32" d="M317.3,207.4c0,0,20.1,9.8,23.8,14c3.7,4.2,11.4,11.8,11.4,11.8s-22.6-18.3-30.5-19.7
											C314.2,212.2,317.3,207.4,317.3,207.4z"/>
										<path class="st32" d="M324.9,188.8c0,0,20.7,7.5,28,11c7.3,3.5,15.9,10.1,15.9,10.1s-31.7-15.2-43-14.8
											S324.9,188.8,324.9,188.8L324.9,188.8z"/>
										<path class="st33" d="M245.9,238.3c8.9-3.2,13-10.8,17.7-9.5c4.7,1.2,1.6,7.5-4.3,12.3c-6,4.8-12.4,8-12,13.7
											c0.4,5.7,5,14.7,11.2,12.5c6.2-2.2,6.1-1.6,13.8-10.4s8.8-10,11.9-9.5c3.2,0.4,3.9,0.8,1,6.6c-2.9,5.7-1.8,8.2-5.1,11.9
											s-9.5,5.9-3,6.3c6.5,0.4,29-4.8,31.5-9c2.5-4.1,2.4-14.5,6.2-13.1s7.4,7.6,12.7,6.8c18.4-2.7,8.9-11,11-13.8
											c6.7-8.8,9-0.6,16.1,1.7c15.1,5,10.6-6,9.7-14.3c-0.9-8.5,14.1-15.6,24.3-9.7c10.2,5.9,0.2,6.8-4.2,15.4
											s-41.5,17.1-57.3,25.2s-80.1,20.5-88.2-2.5C230.8,235.9,245.8,238.3,245.9,238.3L245.9,238.3z"/>
									</g>
								</g>
							</g>
						</g>
						<g>
							<path class="st36" d="M403.8,192.2c0,1.2,0,2.3-0.1,3.4c-0.1,1.2-0.3,2.3-0.5,3.4c-0.2,1.1-0.5,2.2-0.9,3.3
								c-0.4,1.1-0.7,2.2-1.2,3.2c-0.5,1.1-1,2.1-1.6,3.1c-0.6,1-1.4,1.9-2.1,2.8c-0.7,0.9-1,2.1-1.8,3c-0.8,0.9-1.8,1.6-2.6,2.4
								c-0.8,0.8-1.4,1.9-2.3,2.7c-0.9,0.8-1.9,1.4-2.9,2.2c-0.9,0.7-2,1.3-3,1.9c-1,0.7-1.8,1.5-2.9,2.2c-1,0.6-2.2,0.9-3.3,1.5
								c-1,0.6-2,1.3-3.1,1.9c-1.1,0.5-2.3,0.8-3.4,1.3c-1.1,0.5-2,1.3-3.2,1.7c-1.1,0.4-2.5,0.4-3.6,0.8c-1.1,0.4-2.1,1.3-3.2,1.7
								c-1.1,0.4-2.3,0.7-3.5,1.1c-1.1,0.4-2.2,0.9-3.4,1.3c-1.1,0.3-2.5,0.2-3.6,0.6c-1.2,0.3-2.3,0.7-3.5,1
								c-1.2,0.3-2.3,0.9-3.5,1.2c-1.2,0.3-2.5,0.1-3.7,0.3c-1.2,0.2-2.3,1-3.5,1.2c-1.2,0.2-2.4,0.5-3.6,0.7
								c-1.2,0.2-2.4,0.4-3.6,0.6c-1.2,0.2-2.5,0-3.7,0.2c-1.2,0.2-2.4,0.4-3.6,0.5c-1.2,0.1-2.5-0.1-3.7,0
								c-1.2,0.1-2.4,0.7-3.6,0.8c-1.2,0.1-2.4,0-3.7,0.1c-1.2,0.1-2.4,0.5-3.6,0.6c-1.2,0.1-2.4,0.1-3.6,0.2
								c-1.2,0.1-2.4,0.1-3.6,0.1c-1.2,0.1-2.5-0.4-3.7-0.4c-1.2,0-2.4,0.6-3.6,0.6c-1.2,0-2.4-0.1-3.7-0.1c-1.2,0-2.4-0.4-3.7-0.4
								s-2.4,0.7-3.7,0.7c-1.2,0-2.4-0.4-3.6-0.4c-1.2,0-2.5,0.1-3.7,0c-1.2,0-2.5,0.1-3.7,0c-1.2-0.1-2.4-0.6-3.6-0.7
								c-1.2-0.1-2.5,0.1-3.7,0.1c-1.2-0.1-2.4-0.2-3.6-0.3c-1.2-0.1-2.4-0.5-3.6-0.6c-1.2-0.1-2.4-0.2-3.6-0.4
								c-1.2-0.1-2.5,0.2-3.7,0c-1.2-0.1-2.4-0.6-3.6-0.7c-1.2-0.2-2.4-0.5-3.6-0.7c-1.2-0.2-2.5,0-3.7-0.2
								c-1.2-0.2-2.5-0.1-3.7-0.3c-1.2-0.2-2.3-0.9-3.5-1.2c-1.2-0.2-2.4-0.3-3.6-0.5c-1.2-0.3-2.3-0.9-3.4-1.2
								c-1.2-0.3-2.5-0.3-3.6-0.6c-1.2-0.3-2.3-0.7-3.5-1.1c-1.2-0.3-2.3-0.8-3.4-1.1c-1.2-0.4-2.4-0.4-3.6-0.8
								c-1.2-0.4-2.2-1.1-3.3-1.5c-1.1-0.4-2.1-1.2-3.2-1.7c-1.1-0.5-2.4-0.6-3.5-1.1c-1.1-0.5-2.3-0.9-3.3-1.4
								c-1.1-0.5-1.9-1.5-2.9-2.1c-1.1-0.6-2.6-0.5-3.6-1.1c-1-0.6-1.8-1.7-2.8-2.3c-1-0.7-1.7-1.7-2.6-2.4c-1-0.7-2.1-1.2-3-1.9
								c-0.9-0.8-2-1.4-2.8-2.2c-0.8-0.9-1.2-2.1-1.9-3c-0.8-0.9-2-1.5-2.6-2.4c-0.7-1-1.1-2.1-1.6-3.1c-0.6-1-1.1-2.1-1.6-3.1
								s-0.7-2.2-1.1-3.3c-0.4-1.1-0.8-2.2-1-3.3c-0.2-1.1-0.1-2.3-0.2-3.4c-0.1-1.1-1-2.2-1-3.4s0.5-2.2,0.6-3.4
								c0.1-1.1,0.2-2.2,0.4-3.4c0.2-1.1,0-2.3,0.3-3.4c0.3-1.1,1-2.1,1.4-3.2c0.4-1.1,1.2-2,1.7-3c0.4-1,0.2-2.4,0.7-3.4
								c0.5-1,1.4-1.9,2-2.9c0.6-1,1-2.1,1.6-3.1c0.6-1,1.6-1.7,2.3-2.7c0.7-0.9,0.9-2.1,1.7-3.1c0.7-0.9,1.6-1.7,2.4-2.6
								c0.8-0.9,1.3-1.9,2.1-2.8c0.8-0.8,1.8-1.6,2.6-2.4c0.8-0.8,1.8-1.5,2.7-2.3c0.9-0.8,2-1.3,2.9-2.1c0.9-0.8,1.3-2,2.2-2.7
								c0.9-0.7,2.2-1,3.2-1.7c0.9-0.7,1.5-1.9,2.4-2.6c0.9-0.7,1.8-1.5,2.8-2.2c1-0.6,2.2-0.9,3.2-1.6c1-0.6,2.2-0.9,3.2-1.5
								c1-0.6,1.9-1.4,3-1.9c1-0.6,2-1.3,3-1.8c1.1-0.6,2.2-0.9,3.3-1.4c1.1-0.5,2-1.4,3.1-1.9c1.1-0.5,2.2-0.9,3.3-1.4
								c1.1-0.5,2.3-0.8,3.4-1.2c1.1-0.4,2.1-1.2,3.2-1.6c1.1-0.4,2.3-0.6,3.5-1c1.1-0.4,2.2-1,3.3-1.3c1.1-0.4,2.2-0.8,3.4-1.2
								s2.5-0.1,3.6-0.4c1.1-0.3,2.2-1,3.4-1.3c1.2-0.3,2.3-0.6,3.5-0.8c1.2-0.2,2.4-0.4,3.5-0.7s2.4-0.4,3.6-0.6
								c1.2-0.2,2.4-0.5,3.5-0.6s2.4,0.1,3.6-0.1c1.2-0.1,2.3-0.8,3.5-0.9c1.2-0.1,2.4-0.1,3.6-0.2c1.2-0.1,2.4-0.3,3.6-0.3
								c1.2-0.1,2.4,0.1,3.6,0.1c1.2,0,2.4,0.3,3.6,0.3s2.4-0.2,3.6-0.2c1.2,0,2.4,0.2,3.6,0.3c1.2,0.1,2.4,0.1,3.6,0.2
								c1.2,0.1,2.4,0.2,3.6,0.4c1.2,0.1,2.4-0.1,3.6,0.1c1.2,0.1,2.3,0.7,3.5,0.8s2.4,0.1,3.6,0.3s2.4,0.4,3.6,0.6
								c1.2,0.2,2.4,0.4,3.6,0.6c1.2,0.2,2.2,0.9,3.4,1.2c1.2,0.3,2.3,0.8,3.4,1.1c1.2,0.3,2.6-0.2,3.7,0.2c1.1,0.3,2.1,1.2,3.3,1.5
								c1.1,0.4,2.2,0.9,3.3,1.3c1.1,0.4,2.4,0.5,3.5,0.9c1.1,0.4,2.1,1.1,3.2,1.5c1.1,0.4,2.3,0.6,3.4,1.1c1.1,0.5,2.3,0.7,3.4,1.2
								c1.1,0.5,1.9,1.4,3,1.9c1.1,0.5,2,1.2,3.1,1.8c1.1,0.6,2.5,0.5,3.5,1.1c1,0.6,1.7,1.7,2.7,2.3c1,0.6,2.2,1,3.2,1.6
								c1,0.6,1.9,1.4,2.9,2.1c1,0.7,1.9,1.4,2.9,2.1c1,0.7,2,1.3,2.9,2c1,0.7,2.2,1.1,3.1,1.9c0.9,0.7,1.3,2,2.2,2.8
								c0.9,0.8,2.2,1.1,3,1.9c0.9,0.8,1.8,1.5,2.7,2.3c0.8,0.8,1.2,2.1,2,2.9c0.8,0.9,1.8,1.6,2.5,2.4c0.8,0.9,1.2,2,1.9,2.9
								c0.7,0.9,2,1.4,2.7,2.4c0.7,0.9,0.8,2.2,1.4,3.2c0.6,1,1.5,1.8,2.1,2.8c0.6,1,0.9,2.1,1.4,3.1c0.5,1,1,2.1,1.5,3.1
								c0.5,1.1,1.4,1.9,1.8,3c0.4,1.1,0.3,2.3,0.6,3.4c0.3,1.1,0.7,2.2,0.9,3.3c0.2,1.1,0.5,2.2,0.6,3.4
								C404.2,189.9,403.8,191.1,403.8,192.2L403.8,192.2z"/>
							<path class="st37" d="M318.8,214.1c0,0,66.6,8.9,70.2,12.7s-9.5-38-9.5-38"/>
							<path class="st37" d="M203.4,203.9l23.8,45.6c0,0,64.2-29.1,91.6-30.4s49.9-7.6,49.9-7.6"/>
							<path class="st19" d="M318.8,211.3c0,0,66.6,8.9,70.2,12.7s-9.5-38-9.5-38"/>
							<path class="st19" d="M203.4,201.2l23.8,45.6c0,0,64.2-29.1,91.6-30.4c27.4-1.3,49.9-7.6,49.9-7.6"/>
							<path class="st15" d="M402.2,176.6c0,35.1-51.7,53.2-115.6,53.2s-115.6-18.1-115.6-53.2s51.7-76.4,115.6-76.4
								S402.2,141.5,402.2,176.6L402.2,176.6z"/>
							<path class="st38" d="M400.8,164.1c0,35.1-51.1,53.2-114.1,53.2s-114.1-18.1-114.1-53.2s51.1-62.1,114.1-62.1
								S400.8,129,400.8,164.1L400.8,164.1z"/>
						</g>
						<g>
							<g>
								<path class="st30" d="M307,199.8c2.3,2.9,7.4,0.6,9.8,3.6c1.8,2.2,3.5,3.1,6.9,4.4c4.8,1.8,4.8-1.7,9.9-2.1
									c0.9,1.5,1,2.3,3.8,2.5c1.6,0.1,10.1-3.9,12.3-4.8c8,1.4,8,2.1,18.8-0.5c5.1-1.2,3.9-5.1,7.8-6.8c1.9,0.2,10.8,1.8,15.6-0.2
									c0,0,3.4-1.6,6.5-3.5c0.5-0.1,1.1-0.3,1.7-0.4c15.2-3.4-3.8-1.5,5.1-9.9c8.9-8.4,5.7,1.9,11.4-7.4s5.6-15.3-3.2-17.8
									s0-7.4-5.5-10c-5.5-2.6-5.4,0.4-11.2-1.8c-3.8-1.4-8.6-2.1-13.8-2.6c-1.7-0.2-3.3-0.4-5-0.6c-2.9-0.3-6-0.5-9.7,0.1
									c-4.4,0.7-23.1-1.9-27.5-0.1c-12.5,5.4-8.5,5.9-20.4,11.8c-5.2,2.6-6.3,6.7-7.1,10.4c-0.8,3.5-3.3,7-4,10.3
									c-0.4,1.8,0.9,3.5,0.6,5.3c-0.4,2.3-2.7,4.4-2.9,6.8C306.7,188.2,306.1,198.7,307,199.8L307,199.8z"/>
								<g>
									<defs>
										<path id="SVGID_00000178898938153709853370000012151182905131763867_" d="M307,199.8c2.3,2.9,7.4,0.6,9.8,3.6
											c1.8,2.2,3.5,3.1,6.9,4.4c4.8,1.8,4.8-1.7,9.9-2.1c0.9,1.5,1,2.3,3.8,2.5c1.6,0.1,10.1-3.9,12.3-4.8c8,1.4,8,2.1,18.8-0.5
											c5.1-1.2,3.9-5.1,7.8-6.8c1.9,0.2,10.8,1.8,15.6-0.2c0,0,3.4-1.6,6.5-3.5c0.5-0.1,1.1-0.3,1.7-0.4
											c15.2-3.4-3.8-1.5,5.1-9.9c8.9-8.4,5.7,1.9,11.4-7.4s5.6-15.3-3.2-17.8s0-7.4-5.5-10c-5.5-2.6-5.4,0.4-11.2-1.8
											c-3.8-1.4-8.6-2.1-13.8-2.6c-1.7-0.2-3.3-0.4-5-0.6c-2.9-0.3-6-0.5-9.7,0.1c-4.4,0.7-23.1-1.9-27.5-0.1
											c-12.5,5.4-8.5,5.9-20.4,11.8c-5.2,2.6-6.3,6.7-7.1,10.4c-0.8,3.5-3.3,7-4,10.3c-0.4,1.8,0.9,3.5,0.6,5.3
											c-0.4,2.3-2.7,4.4-2.9,6.8C306.7,188.2,306.1,198.7,307,199.8L307,199.8z"/>
									</defs>
									<clipPath id="SVGID_00000014614942750616522390000003627193488761439414_">
										<use xlink:href="#SVGID_00000178898938153709853370000012151182905131763867_"  style="overflow:visible;"/>
									</clipPath>
									<g style="clip-path:url(#SVGID_00000014614942750616522390000003627193488761439414_);">
										<path class="st32" d="M333.3,146.1c0,0,32.7,22.3,40.2,33.6l7.6,11.3c0,0-21.6-21.9-38.1-28.8S333.3,146,333.3,146.1
											L333.3,146.1z"/>
										<path class="st32" d="M341.5,159.8c0,0,26.2,2.2,33.2,4.1s20.3,5.2,20.3,5.2s-35.8-7.1-43.9-6.4
											C342.9,163.4,341.5,159.8,341.5,159.8L341.5,159.8z"/>
										<path class="st32" d="M335.1,151.5c0,0,24.8,0.6,34.3,1.4c9.5,0.8,22.8,3.2,22.8,3.2s-41.2-3.3-50.8-0.8
											S335.1,151.5,335.1,151.5L335.1,151.5z"/>
										<path class="st32" d="M349.1,160.1c0,0-7.6,16.7-7.8,21.6c-0.2,4.9-1,14.3-1,14.3s4.8-24.4,9-29
											C353.6,162.3,349.1,160.1,349.1,160.1L349.1,160.1z"/>
										<path class="st32" d="M334.5,149.1c0,0-9.2,15.2-12,21.2c-2.8,6-4.8,15-4.8,15s12.2-26.1,19.6-30.9
											S334.5,149.1,334.5,149.1z"/>
										<path class="st33" d="M410.6,151.4c-7.3,1.6-13.9-2.4-16.2,0.7c-2.3,3.1,2.9,6.5,9.2,7.5c6.3,0.9,12.1,0.5,14.8,5.1
											s4.5,13.6-0.6,14.8c-5.1,1.1-4.7,1.5-14.2-1.7c-9.4-3.2-10.8-3.7-12.5-1.9c-1.8,1.8-2,2.4,2.8,5.6
											c4.9,3.1,5.4,5.5,9.4,6.9s9.1,0.2,5.2,3.5c-3.9,3.2-20.9,9.5-24.7,7.4c-3.8-2-9.1-10.1-10.8-7.3c-1.7,2.8-0.7,9.2-4.5,11
											c-13.1,6.3-11.4-4.4-14.2-5.6c-8.9-3.8-6,3.6-9.3,8.6c-7,10.7-9.9,0.2-13.6-6.6c-3.9-7-17.1-5.6-20.5,3.6
											s3.4,5.3,10.7,9.9s35.3-5.8,49.5-6.6c14.2-0.9,61.6-20.6,54.7-42.1C418.9,142.6,410.6,151.4,410.6,151.4L410.6,151.4z"/>
									</g>
								</g>
							</g>
							<g>
								<path class="st30" d="M155.5,162.9c0.3,3.8,5.8,4.6,6.1,8.4c0.3,2.9,1.2,4.5,3.3,7.5c3,4.1,4.9,1.3,9.4,3.7
									c-0.1,1.8-0.4,2.5,1.8,4.2c1.2,1,10.6,2.4,12.9,2.8c5.9,5.5,5.5,6.1,16,10c4.9,1.8,6.1-2.1,10.3-1.3
									c1.5,1.2,7.9,7.5,13.1,8.5c0,0,3.7,0.6,7.4,0.7c0.5,0.2,1.1,0.4,1.6,0.6c14.5,5.6-2.3-3.3,9.8-5.4
									c12.1-2.1,3.7,4.7,13.6,0.1c9.9-4.7,13.1-9.7,7.2-16.6c-5.9-6.9,4.1-6.2,0.9-11.4c-3.2-5.2-4.8-2.7-8.4-7.7
									c-2.4-3.3-6.1-6.5-10-9.8c-1.3-1.1-2.5-2.2-3.8-3.3c-2.2-1.9-4.7-3.7-8.1-5.3c-4-1.8-18.2-14.4-22.8-15.3
									c-13.4-2.5-10.3,0.2-23.5-1.4c-5.7-0.7-9,2.1-11.6,4.7c-2.6,2.5-6.6,4-9,6.4c-1.3,1.3-1.1,3.4-2.4,4.7
									c-1.6,1.7-4.7,2.2-6.2,4C161.7,153,155.4,161.5,155.5,162.9L155.5,162.9z"/>
								<g>
									<defs>
										<path id="SVGID_00000026124261690635031590000009172070812698762881_" d="M155.5,162.9c0.3,3.8,5.8,4.6,6.1,8.4
											c0.3,2.9,1.2,4.5,3.3,7.5c3,4.1,4.9,1.3,9.4,3.7c-0.1,1.8-0.4,2.5,1.8,4.2c1.2,1,10.6,2.4,12.9,2.8c5.9,5.5,5.5,6.1,16,10
											c4.9,1.8,6.1-2.1,10.3-1.3c1.5,1.2,7.9,7.5,13.1,8.5c0,0,3.7,0.6,7.4,0.7c0.5,0.2,1.1,0.4,1.6,0.6
											c14.5,5.6-2.3-3.3,9.8-5.4c12.1-2.1,3.7,4.7,13.6,0.1c9.9-4.7,13.1-9.7,7.2-16.6c-5.9-6.9,4.1-6.2,0.9-11.4
											c-3.2-5.2-4.8-2.7-8.4-7.7c-2.4-3.3-6.1-6.5-10-9.8c-1.3-1.1-2.5-2.2-3.8-3.3c-2.2-1.9-4.7-3.7-8.1-5.3
											c-4-1.8-18.2-14.4-22.8-15.3c-13.4-2.5-10.3,0.2-23.5-1.4c-5.7-0.7-9,2.1-11.6,4.7c-2.6,2.5-6.6,4-9,6.4
											c-1.3,1.3-1.1,3.4-2.4,4.7c-1.6,1.7-4.7,2.2-6.2,4C161.7,153,155.4,161.5,155.5,162.9L155.5,162.9z"/>
									</defs>
									<clipPath id="SVGID_00000049210655297303820460000018106018661197417905_">
										<use xlink:href="#SVGID_00000026124261690635031590000009172070812698762881_"  style="overflow:visible;"/>
									</clipPath>
									<g style="clip-path:url(#SVGID_00000049210655297303820460000018106018661197417905_);">
										<path class="st32" d="M210.2,134.1c0,0,14.9,36.7,14.9,50.2l0.1,13.6c0,0-5.9-30.2-15.9-45.1
											C199.3,137.9,210.2,134.1,210.2,134.1L210.2,134.1z"/>
										<path class="st32" d="M209.4,150.1c0,0,20.6,16.3,25.4,21.8c4.7,5.4,14,15.5,14,15.5s-25.9-25.7-33.1-29.6
											C208.5,153.8,209.4,150.1,209.4,150.1L209.4,150.1z"/>
										<path class="st32" d="M208.7,139.6c0,0,20.3,14.2,27.8,20.1c7.5,5.9,17.2,15.3,17.2,15.3s-32.5-25.5-41.9-28.8
											C202.4,143,208.7,139.6,208.7,139.6L208.7,139.6z"/>
										<path class="st32" d="M215.6,154.5c0,0-15.6,9.7-18.5,13.7c-2.9,4-8.8,11.3-8.8,11.3s17.5-17.7,23.6-19.2
											S215.6,154.5,215.6,154.5L215.6,154.5z"/>
										<path class="st32" d="M209.5,137.4c0,0-16.1,7.6-21.8,11c-5.7,3.5-12.3,9.9-12.3,9.9s24.6-15,33.4-14.9
											C217.6,143.4,209.5,137.4,209.5,137.4L209.5,137.4z"/>
										<path class="st33" d="M271.6,181.3c-7-2.7-10.3-9.6-13.9-8.4c-3.6,1.3-1.2,7.1,3.5,11.3s9.8,7.1,9.5,12.4
											c-0.3,5.3-3.8,13.9-8.6,12c-4.9-1.9-4.8-1.4-10.8-9.3c-6.1-7.9-6.9-9-9.4-8.5s-3.1,0.9-0.7,6.2c2.3,5.3,1.5,7.5,4.1,10.9
											c2.6,3.4,7.5,5.3,2.4,5.8c-5.1,0.5-22.7-3.7-24.7-7.4c-2-3.8-2-13.4-4.9-12.1c-3,1.4-5.7,7.3-9.9,6.7
											c-14.4-2-7-10-8.7-12.5c-5.3-8-7-0.3-12.5,2.1c-11.7,5.1-8.3-5.3-7.7-13.1c0.7-8-11.1-14.2-19.1-8.4s-0.1,6.3,3.4,14.2
											s32.6,14.7,44.9,21.8s62.7,16.9,68.8-4.8C283.4,178.6,271.6,181.3,271.6,181.3L271.6,181.3z"/>
									</g>
								</g>
							</g>
							<g>
								<path class="st30" d="M193.8,162.9c0.3,3.8,6.3,4.9,6.6,8.7c0.3,2.9,1.3,4.6,3.5,7.6c3.2,4.3,5.4,1.5,10.3,4.1
									c-0.1,1.8-0.5,2.5,1.9,4.2c1.4,1,11.6,2.8,14.1,3.4c6.4,5.8,6,6.4,17.4,10.7c5.4,2,6.7-1.8,11.3-0.9c1.6,1.2,8.6,7.8,14.3,9
									c0,0,4,0.7,8.1,1.1c0.6,0.2,1.2,0.4,1.8,0.7c15.9,6.2-2.5-3.4,10.8-5c13.3-1.6,4,4.9,14.9,0.6c10.9-4.3,14.6-9.2,8.2-16.4
									c-6.4-7.2,4.6-6,1.2-11.4c-3.4-5.4-5.2-2.9-9.1-8c-2.6-3.4-6.5-6.8-10.9-10.2c-1.4-1.1-2.7-2.3-4.2-3.5
									c-2.4-2-5.1-3.9-8.9-5.7c-4.4-2-19.8-15.2-24.8-16.2c-14.7-3.1-11.4-0.2-25.8-2.4c-6.3-0.9-9.9,1.8-12.9,4.2
									c-2.9,2.4-7.4,3.8-10,6c-1.5,1.2-1.3,3.3-2.7,4.6c-1.8,1.6-5.2,2-6.9,3.8C200.8,153.2,193.7,161.4,193.8,162.9L193.8,162.9z
									"/>
								<g>
									<defs>
										<path id="SVGID_00000134933484007828022100000003554503580508147853_" d="M193.8,162.9c0.3,3.8,6.3,4.9,6.6,8.7
											c0.3,2.9,1.3,4.6,3.5,7.6c3.2,4.3,5.4,1.5,10.3,4.1c-0.1,1.8-0.5,2.5,1.9,4.2c1.4,1,11.6,2.8,14.1,3.4
											c6.4,5.8,6,6.4,17.4,10.7c5.4,2,6.7-1.8,11.3-0.9c1.6,1.2,8.6,7.8,14.3,9c0,0,4,0.7,8.1,1.1c0.6,0.2,1.2,0.4,1.8,0.7
											c15.9,6.2-2.5-3.4,10.8-5c13.3-1.6,4,4.9,14.9,0.6c10.9-4.3,14.6-9.2,8.2-16.4c-6.4-7.2,4.6-6,1.2-11.4
											c-3.4-5.4-5.2-2.9-9.1-8c-2.6-3.4-6.5-6.8-10.9-10.2c-1.4-1.1-2.7-2.3-4.2-3.5c-2.4-2-5.1-3.9-8.9-5.7
											c-4.4-2-19.8-15.2-24.8-16.2c-14.7-3.1-11.4-0.2-25.8-2.4c-6.3-0.9-9.9,1.8-12.9,4.2c-2.9,2.4-7.4,3.8-10,6
											c-1.5,1.2-1.3,3.3-2.7,4.6c-1.8,1.6-5.2,2-6.9,3.8C200.8,153.2,193.7,161.4,193.8,162.9L193.8,162.9z"/>
									</defs>
									<clipPath id="SVGID_00000092418527395805928720000004653521463202195108_">
										<use xlink:href="#SVGID_00000134933484007828022100000003554503580508147853_"  style="overflow:visible;"/>
									</clipPath>
									<g style="clip-path:url(#SVGID_00000092418527395805928720000004653521463202195108_);">
										<path class="st32" d="M251,134.7c0,0,15.7,37.3,15.6,50.9l-0.2,13.6c0,0-5.9-30.4-16.7-45.8S251,134.7,251,134.7
											L251,134.7z"/>
										<path class="st32" d="M249.9,150.8c0,0,22.4,17.2,27.5,22.9c5.1,5.6,15.1,16.1,15.1,16.1s-28-26.8-35.9-31.1
											C248.9,154.5,249.9,150.8,249.9,150.8L249.9,150.8z"/>
										<path class="st32" d="M249.2,140.2c0,0,22.1,15.1,30.2,21.4s18.6,16,18.6,16s-35.3-26.9-45.6-30.6
											C242.2,143.3,249.2,140.2,249.2,140.2L249.2,140.2z"/>
										<path class="st32" d="M256.6,155.4c0,0-17.3,9-20.5,12.9c-3.2,3.9-9.8,11-9.8,11s19.5-17,26.2-18.2
											C259.2,159.9,256.6,155.4,256.6,155.4L256.6,155.4z"/>
										<path class="st32" d="M250.2,138c0,0-17.8,6.9-24.1,10.1c-6.3,3.2-13.7,9.4-13.7,9.4s27.3-14,36.9-13.6
											C259,144.3,250.2,138,250.2,138L250.2,138z"/>
										<path class="st33" d="M317.8,184.6c-7.6-3-11.1-10.1-15.1-9c-4,1.1-1.5,7,3.6,11.5s10.6,7.6,10.2,12.8
											c-0.4,5.3-4.4,13.7-9.7,11.6s-5.2-1.6-11.8-9.7c-6.5-8.2-7.5-9.3-10.2-8.9c-2.7,0.4-3.4,0.8-0.9,6.1
											c2.5,5.4,1.5,7.6,4.3,11.1c2.8,3.5,8.1,5.6,2.6,5.9s-24.9-4.6-27-8.5s-1.9-13.6-5.2-12.3c-3.3,1.3-6.4,7-10.9,6.3
											c-15.8-2.6-7.5-10.3-9.4-12.9c-5.7-8.2-7.7-0.6-13.8,1.5c-13,4.6-9.1-5.6-8.2-13.4c0.9-7.9-12-14.7-20.8-9.2
											s-0.2,6.3,3.5,14.4c3.7,8.1,35.6,16.1,49,23.8c13.5,7.6,68.6,19.5,75.7-1.9S317.8,184.6,317.8,184.6L317.8,184.6z"/>
									</g>
								</g>
							</g>
						</g>
						<g>
							<path class="st42" d="M255.8,182.1c8,0.1,10.3-1,28.5-2s7.3,0,25.5,0.9c18.2,0.9,21,1.9,29.7,2.6c8.7,0.8,19.9-2.8,38-1.8
								c16.5,0.9,23.1-2.4,35-1.5c-5.6-14.6,4.7-20.9-3.1-25.1c-4.4,1.1-8.8,1.8-10.4,2c-7.9,1.2-16.3,2.6-25,3.6
								c-13.5,1.6-27.5,2.4-40.2,0.8c-4.5-0.6-52.8-5.7-81.1-10.2c-4.1,1.7-6.8,2.1-6.7,9.9c0.1,2.3-0.1,4.5-0.4,6.6
								c9-0.1,24.2,0.9,35.7,0.4c15.3-0.6,16.8-0.4,25.5,0.9c8.7,1.4,11.8-1.5,8.7,1.4c-3.1,2.9-2.4,3.6-23.5,2.4
								c-21.1-1.2-21.1-0.6-34.2-0.4c-7.4,0.1-10.6,0.3-13,0.6c-0.4,2.7-0.7,5-0.4,7C247.2,179.9,250.5,182,255.8,182.1L255.8,182.1
								z"/>
							<path class="st43" d="M270.8,187.2c16.1-0.5,33.5,1,48.8,0.4c15.3-0.6,28.4,0.6,48.7,1.7c20.3,1.1,17.5,0.2,32.1-0.4
								c5.2-0.2,9.4-3.8,12.1-8.7c-11.9-0.9-18.5,2.4-35,1.5c-18.2-0.9-29.3,2.6-38,1.8c-8.7-0.8-11.6-1.7-29.7-2.6
								s-7.2-1.9-25.5-0.9s-20.5,2.1-28.6,2c-5.3,0-8.6-2.2-11.3-1.8c0.1,0.5,0.2,1,0.4,1.5C246.8,186.4,254.7,187.8,270.8,187.2
								L270.8,187.2z"/>
							<path class="st44" d="M374,160.8c8.6-1,17.1-2.4,25-3.6c1.6-0.2,6-0.9,10.4-2c-0.1-0.1-0.2-0.1-0.4-0.2
								c-9.7-4.8-15.2-2-30.5-1.4s-19,0.3-27.7,0.1c-6.8-0.1-10.7-0.2-17.8-1.6c-14.7-3-34.7,0.2-49.5-0.8
								c-12.2-0.9-20.2-6.2-30.4,0.1c26.4,5.4,54,6.9,80.7,10.2C346.6,163.2,360.5,162.3,374,160.8L374,160.8z"/>
							<path class="st5" d="M292.1,173c21.1,1.2,106-5.4,109.1-8.4c3.1-2.9-85.6,5.9-94.3,4.5c-8.7-1.4-10.1-1.5-25.5-0.9
								c-11.5,0.4-26.7-0.5-35.7-0.4c-0.3,1.9-0.6,3.8-0.9,5.4c2.3-0.3,5.6-0.6,13-0.6C271,172.5,271,171.8,292.1,173L292.1,173z"/>
						</g>
						<g>
							<path class="st42" d="M351,173.7c-7.3-1.9-9.7-0.9-26.8-3.7c-17-2.8-6.7-1.6-23-6.9s-18.6-7.1-26.3-10
								c-7.7-2.9-19.1-0.8-35.4-6c-14.8-4.8-21.9-1.9-32.5-5.8c0.3,20.4-11.3,26.5-5.5,33.7c4.4-0.5,8.6-0.4,10.2-0.4
								c7.6,0.1,15.8,0.2,24,0.8c12.9,0.9,26,2.9,37,7.8c4,1.8,46.3,19.1,70.7,31.4c4.4-1.4,5.2-0.3,7.6-10.6
								c0.7-3.1,3.4-6.8,4.3-9.4c-8.3-1.8-21.8-6.5-32.5-8.4c-14.2-2.6-15.5-3.1-23-6.9s-11.3-0.6-7.5-3.8c3.8-3.2,3.4-4.3,22.3,2
								c18.9,6.2,19.1,5.4,31.1,8.1c6.8,1.5,9.8,1.9,12.1,2c1.3-3.4,2.4-6.4,2.7-9.1C358.1,178.4,355.9,174.9,351,173.7L351,173.7z"
								/>
							<path class="st43" d="M339.1,163.6c-14.9-2.9-30.3-8.7-44.5-11.4c-14.2-2.6-25.8-7-44-13s-15.9-4.2-29.5-6.6
								c-4.9-0.9-9.9,3-14,8.7c10.6,3.9,17.7,1,32.5,5.8c16.3,5.3,27.7,3.1,35.4,6c7.7,2.9,10,4.7,26.3,10c16.3,5.3,5.9,4.1,23,6.9
								c17,2.8,19.5,1.8,26.8,3.7c4.8,1.2,7.1,4.7,9.8,4.9c0.1-0.7,0.1-1.4,0.1-2.1C360.7,169.9,353.9,166.4,339.1,163.6
								L339.1,163.6z"/>
							<path class="st44" d="M235.8,175.6c-8.2-0.6-16.4-0.7-24-0.8c-1.6,0-5.8-0.1-10.2,0.4c0.1,0.1,0.2,0.2,0.3,0.3
								c7.3,8.4,13.2,6,27.4,8.6c14.2,2.6,17.4,3.9,25.4,5.9c6.1,1.6,9.7,2.6,15.8,6.1c12.4,7.2,21.3,4.1,34.5,8.7
								c10.9,3.8,26.9,15.9,38.2,9.9c-22.3-12.9-47-20.9-70.4-31.3C261.8,178.4,248.7,176.4,235.8,175.6L235.8,175.6z"/>
							<path class="st5" d="M314.9,177.6c-18.9-6.2-100.7-28.2-104.5-25c-3.8,3.2,82.3,23,89.7,26.8c7.5,3.8,8.7,4.2,23,6.9
								c10.7,2,24.2,6.6,32.5,8.4c0.9-2.5,1.8-4.8,2.6-6.9c-2.3-0.1-5.3-0.5-12.1-2C334,183,333.7,183.8,314.9,177.6L314.9,177.6z"
								/>
						</g>
						<g>
							<path class="st2" d="M347.6,149.8c0.6,15.2-10,29.9-26.5,38.4c-16,8.3-5.4,18.3-21.4,26.6c-16,8.3-10.5,1.3-37.9-2.9
								s-35.8,21.5-65.9,7.2c-24.3-11.6-32.7-70.4-10.1-92.1c16.9-16.2,36.9-20.3,58-17.7c11,1.3,16.9,7.7,28,6.2
								c10.1-1.4,11.2-14.8,35.8-10.1c11.9,2.3,20.2,12.4,28.3,20.3C343.7,133.4,347.3,141.6,347.6,149.8L347.6,149.8z"/>
							<path class="st45" d="M242.1,205.3c6.2-5.2-29.6,17.7-44.9,0.3c-7.4-8.4-14.1-16.5-14.1-16.5s2.3,17.4,18.8,25
								C218.5,221.7,225.1,219.6,242.1,205.3z"/>
							<path class="st19" d="M261.5,170.1c-0.2,4.6-2.6,6.6-6.8,10.9c-7.3,7.3-21.5,9.7-32.6,8c-12.9-2.1-29.5-10.4-27.4-25.3
								c2.5-17.1,26.3-24.2,41-20.5C250.8,146.8,262,158.3,261.5,170.1z"/>
							<path class="st46" d="M253.9,173c0,0-7.2,3.9-21,4.8s-32.1-4.9-32.1-4.9s10.6,12.8,28.5,12.6
								C247.3,185.3,251.4,179.1,253.9,173L253.9,173z"/>
							<path class="st21" d="M217.5,148.9c-0.1,1.8,2.9,3.4,6.6,3.6c3.7,0.2,6.8-1.1,6.9-2.9s-2.9-3.4-6.6-3.6
								C220.7,145.8,217.6,147.1,217.5,148.9z"/>
						</g>
						<g>
							<path class="st47" d="M407.4,141c-4.4,25.2-54.4,32.1-112.6,21.8c-58.3-10.3-102.8-33.9-98.4-59
								c4.4-25.2,38.3-55.8,116.2-42.1C390.5,75.4,411.9,115.8,407.4,141L407.4,141z"/>
							<path class="st48" d="M408.1,137.4c-4.4,25.2-54.4,32.1-112.6,21.8s-102.8-33.9-98.4-59c4.4-25.2,39.8-64.1,117.7-50.4
								S412.5,112.3,408.1,137.4L408.1,137.4z"/>
							<g>
								<path class="st49" d="M230.8,62.7c1.1,1.3,1.2,2.9,0.3,3.6s-2.4,0.2-3.5-1.1s-0.3-3.6-0.3-3.6S229.8,61.4,230.8,62.7z"/>
								<path class="st49" d="M364.6,85.8c1,1.3,1.2,2.9,0.3,3.6c-0.9,0.7-2.4,0.2-3.5-1.1c-1-1.3-0.3-3.6-0.3-3.6
									S363.5,84.5,364.6,85.8z"/>
								<path class="st49" d="M347.7,69.7c-0.5,1.7-1.7,2.9-2.7,2.6s-1.4-1.9-0.9-3.6c0.5-1.7,2.6-2.6,2.6-2.6S348.2,68,347.7,69.7
									L347.7,69.7z"/>
								<path class="st49" d="M262.5,74c-0.5,1.9-1.9,3.2-3,2.9c-1.1-0.3-1.6-2.1-1-4c0.5-1.9,3-2.9,3-2.9S263,72.1,262.5,74
									L262.5,74z"/>
								<path class="st49" d="M322.1,58.9c1.8,0.1,3.3,1,3.3,1.9s-1.5,1.6-3.3,1.5c-1.8-0.1-3.3-1.9-3.3-1.9S320.3,58.8,322.1,58.9
									L322.1,58.9z"/>
								<path class="st49" d="M352.2,88.3c1.8,0.1,3.3,0.9,3.3,1.9s-1.5,1.6-3.3,1.5c-1.8-0.1-3.3-1.9-3.3-1.9
									S350.4,88.2,352.2,88.3z"/>
								<path class="st49" d="M331.1,70.1c1.5,0.7,2.5,1.8,2.2,2.6c-0.3,0.8-1.8,0.9-3.2,0.2c-1.5-0.7-2.2-2.6-2.2-2.6
									S329.6,69.4,331.1,70.1L331.1,70.1z"/>
								<path class="st49" d="M307.1,85.4c1.5,0.7,2.5,1.8,2.2,2.6c-0.3,0.8-1.8,0.9-3.2,0.2c-1.5-0.7-2.2-2.6-2.2-2.6
									S305.6,84.8,307.1,85.4z"/>
								<path class="st49" d="M316.5,53.7c-1.1,1.2-2.5,1.8-3.2,1.3c-0.7-0.5-0.3-1.9,0.8-3.2s3.2-1.3,3.2-1.3
									S317.6,52.5,316.5,53.7z"/>
								<path class="st49" d="M267.2,94c1.8,0.1,3.3,0.9,3.3,1.9s-1.5,1.6-3.3,1.5c-1.8-0.1-3.3-1.9-3.3-1.9S265.4,93.9,267.2,94z"
									/>
								<path class="st49" d="M318.5,105c-1.1,1.2-2.5,1.8-3.2,1.3c-0.7-0.5-0.3-1.9,0.8-3.2c1.1-1.2,3.2-1.3,3.2-1.3
									S319.6,103.7,318.5,105L318.5,105z"/>
								<path class="st49" d="M338,100.2c-1.1,1.2-2.5,1.8-3.2,1.3c-0.7-0.5-0.3-1.9,0.8-3.2c1.1-1.2,3.2-1.3,3.2-1.3
									S339.1,99,338,100.2L338,100.2z"/>
								<path class="st49" d="M331.7,84.1c-1.1,1.2-2.5,1.8-3.2,1.3c-0.7-0.5-0.3-1.9,0.8-3.2s3.2-1.3,3.2-1.3
									S332.8,82.9,331.7,84.1z"/>
								<path class="st49" d="M320.1,73.1c1.6,0.9,2.5,2.3,2.1,3.2c-0.4,0.8-2,0.8-3.6-0.2c-1.6-0.9-2.1-3.2-2.1-3.2
									S318.5,72.2,320.1,73.1L320.1,73.1z"/>
								<path class="st49" d="M283.4,58.1c1.6,0.9,2.5,2.3,2.1,3.2c-0.4,0.8-2,0.8-3.6-0.2c-1.6-0.9-2.1-3.2-2.1-3.2
									S281.8,57.2,283.4,58.1z"/>
								<path class="st49" d="M385.8,89.9c1.5-0.8,3-0.6,3.5,0.4c0.5,1-0.3,2.4-1.8,3.2c-1.5,0.8-3.5-0.4-3.5-0.4
									S384.3,90.7,385.8,89.9L385.8,89.9z"/>
								<path class="st49" d="M283.7,103.7c1.5-0.8,3-0.6,3.5,0.4c0.5,1-0.3,2.4-1.8,3.2c-1.5,0.8-3.5-0.4-3.5-0.4
									S282.2,104.4,283.7,103.7z"/>
								<path class="st49" d="M299.8,57.9c1.5-0.8,3.1-0.6,3.5,0.4c0.5,1-0.3,2.4-1.8,3.2c-1.5,0.8-3.5-0.4-3.5-0.4
									S298.3,58.7,299.8,57.9L299.8,57.9z"/>
								<path class="st49" d="M371.9,71.5c1.8,0.9,2.7,2.5,2.2,3.5c-0.5,1-2.4,1.1-4.2,0.2c-1.8-0.9-2.2-3.5-2.2-3.5
									S370.1,70.6,371.9,71.5z"/>
								<path class="st49" d="M360.4,68.7c1.2-1.4,2.8-2,3.5-1.4s0.3,2.2-0.9,3.5s-3.5,1.4-3.5,1.4S359.2,70.1,360.4,68.7z"/>
								<path class="st49" d="M270.6,51.5c1.6,0.9,2.5,2.3,2.1,3.2c-0.4,0.8-2,0.8-3.6-0.2c-1.6-0.9-2.1-3.2-2.1-3.2
									S269,50.6,270.6,51.5z"/>
								<path class="st49" d="M371.6,95.8c1.2-1.4,2.8-2,3.5-1.4s0.3,2.2-0.9,3.5s-3.5,1.4-3.5,1.4S370.4,97.1,371.6,95.8z"/>
								<path class="st49" d="M245.1,58c1.2-1.4,2.8-2,3.5-1.4s0.3,2.2-0.9,3.5c-1.2,1.4-3.5,1.4-3.5,1.4S243.9,59.3,245.1,58z"/>
								<path class="st49" d="M246.1,70.3c1.6,0.9,2.5,2.3,2.1,3.2s-2,0.8-3.6-0.2c-1.6-0.9-2.1-3.2-2.1-3.2S244.5,69.4,246.1,70.3z
									"/>
								<path class="st49" d="M354.9,76.9c1.5-1,3.2-1.2,3.8-0.5s-0.2,2.2-1.7,3.2c-1.5,1-3.8,0.5-3.8,0.5S353.3,78,354.9,76.9z"/>
								<path class="st49" d="M290.7,47.2c1.8-0.5,3.4-0.2,3.7,0.7c0.3,0.9-0.9,2-2.6,2.5c-1.8,0.5-3.7-0.7-3.7-0.7
									S288.9,47.7,290.7,47.2z"/>
								<path class="st49" d="M281.4,77.7c1.1-1.4,2.7-2.2,3.4-1.6c0.8,0.5,0.5,2.1-0.7,3.6c-1.1,1.4-3.4,1.6-3.4,1.6
									S280.3,79.1,281.4,77.7z"/>
								<path class="st49" d="M288,66c1,1.3,1.2,2.9,0.3,3.6c-0.9,0.7-2.4,0.2-3.5-1.1c-1-1.3-0.3-3.6-0.3-3.6S287,64.7,288,66
									L288,66z"/>
								<path class="st49" d="M300.2,72.1c1.5-0.7,3.1-0.4,3.5,0.6c0.5,1-0.4,2.4-1.9,3.1c-1.5,0.7-3.5-0.6-3.5-0.6
									S298.7,72.8,300.2,72.1L300.2,72.1z"/>
							</g>
						</g>
					</g>
					<path class="st50" d="M342.1,76.9c-0.3,0.6-2,0.2-3.8-0.8c-1.8-1-3-2.3-2.6-2.8c0.3-0.6,2-0.2,3.8,0.8
						C341.3,75.1,342.5,76.4,342.1,76.9z"/>
					<g>
						
							<rect x="317.4" y="36.2" transform="matrix(0.5002 -0.8659 0.8659 0.5002 147.0602 331.1443)" class="st9" width="85.9" height="3.9"/>
						<g>
							
								<rect x="374.4" y="3.6" transform="matrix(0.5 -0.866 0.866 0.5 164.8199 365.7333)" class="st51" width="49.5" height="73.1"/>
							<polygon class="st19" points="417.5,27.6 416.2,36.8 423.9,42 414.7,43.7 412.1,52.6 407.8,44.4 398.5,44.7 404.9,38 
								401.8,29.3 410.1,33.3 							"/>
							<polygon class="st19" points="423.2,57.7 420.5,61.8 422.9,66 418.2,64.7 414.9,68.4 414.6,63.4 410.2,61.4 414.8,59.7 
								415.3,54.8 418.4,58.7 							"/>
						</g>
					</g>
				</g>
			</g>
		</g>
	</g>
</g>
</svg>
