<?xml version="1.0" encoding="UTF-8"?>
<svg xmlns="http://www.w3.org/2000/svg" xmlns:xlink="http://www.w3.org/1999/xlink" viewBox="0 0 495.35 314.87">
  <defs>
    <style>
      .cls-1 {
        clip-path: url(#clippath);
      }

      .cls-2, .cls-3 {
        fill: none;
      }

      .cls-2, .cls-4, .cls-5, .cls-6, .cls-7, .cls-8, .cls-9, .cls-10, .cls-11, .cls-12, .cls-13, .cls-14, .cls-15, .cls-16, .cls-17 {
        stroke-width: 0px;
      }

      .cls-18, .cls-15 {
        fill: #ea5504;
      }

      .cls-19 {
        clip-path: url(#clippath-1);
      }

      .cls-20 {
        fill: #f3d4a1;
        stroke: #f3d4a1;
        stroke-width: .88px;
      }

      .cls-20, .cls-3 {
        stroke-linecap: round;
        stroke-linejoin: round;
      }

      .cls-3 {
        stroke: #fff;
        stroke-width: 4.25px;
      }

      .cls-4 {
        fill: #782410;
        opacity: .25;
      }

      .cls-4, .cls-5 {
        mix-blend-mode: multiply;
      }

      .cls-5 {
        opacity: .2;
      }

      .cls-5, .cls-9 {
        fill: #93431d;
      }

      .cls-21 {
        isolation: isolate;
      }

      .cls-6 {
        fill: #f8b500;
      }

      .cls-7 {
        fill: #489037;
      }

      .cls-8 {
        fill: #74a92d;
      }

      .cls-10 {
        fill: #f08300;
      }

      .cls-11 {
        fill: #fff;
      }

      .cls-12 {
        fill: #ffe55f;
      }

      .cls-13 {
        fill: #e5a83f;
      }

      .cls-14 {
        fill: #feebbe;
      }

      .cls-16 {
        fill: #fdd000;
      }

      .cls-17 {
        fill: #691c07;
      }
    </style>
    <clipPath id="clippath">
      <path class="cls-15" d="m347.25,82.87c0,14.36-13.25,26-29.58,26s-29.58-11.64-29.58-26,13.25-26,29.58-26,29.58,11.64,29.58,26Z"/>
    </clipPath>
    <clipPath id="clippath-1">
      <path class="cls-15" d="m393.92,110.33c-2.05,14.11-16.82,23.59-32.98,21.18-16.16-2.42-27.61-15.81-25.55-29.93,2.05-14.11,16.82-23.6,32.98-21.18,16.16,2.41,27.6,15.82,25.55,29.93Z"/>
    </clipPath>
  </defs>
  <g class="cls-21">
    <g id="_レイヤー_2" data-name="レイヤー 2">
      <g id="_イラスト" data-name="イラスト">
        <g>
          <g>
            <path class="cls-20" d="m494.91,159.95c0,85.32-110.69,154.48-247.23,154.48S.44,245.26.44,159.95,111.13,5.46,247.68,5.46s247.23,69.16,247.23,154.49Z"/>
            <ellipse class="cls-14" cx="247.68" cy="154.48" rx="247.23" ry="154.48"/>
            <ellipse class="cls-11" cx="247.68" cy="157.83" rx="189.84" ry="118.62"/>
            <ellipse class="cls-3" cx="247.68" cy="157.83" rx="227.81" ry="142.34"/>
          </g>
          <g>
            <path class="cls-17" d="m90,177.53c-.73,16.81-3.59,28.6,16.18,43.74,19.77,15.14,22.44,35.94,99.64,45.07,86.69,10.26,174.07-14.35,186.66-37.9,12.58-23.55,44.45-32.4,15.69-76.14-28.76-43.74-61.12-52.15-111.45-53.83-50.33-1.68-203.12-3.36-206.71,79.06Z"/>
            <path class="cls-8" d="m318.08,40.43c-.07-.42-.32-.79-.69-1.01-.36-.22-.8-.27-1.21-.14-31.18,10.04-63.6,15.6-96.36,16.53-.43.01-.83.21-1.1.54-.27.33-.38.76-.31,1.18l1.83,10.66c.12.71.73,1.22,1.45,1.22.01,0,.03,0,.04,0,33.04-.94,65.73-6.55,97.17-16.67.7-.22,1.12-.93,1-1.65l-1.83-10.66Z"/>
            <path class="cls-8" d="m352.57,53.84c-.07-.42-.32-.79-.69-1.01-.36-.22-.8-.27-1.21-.14-31.18,10.04-63.6,15.6-96.36,16.53-.43.01-.83.21-1.1.54-.27.33-.38.76-.31,1.18l1.83,10.66c.12.71.73,1.22,1.45,1.22.01,0,.03,0,.04,0,33.04-.94,65.73-6.55,97.17-16.67.7-.22,1.12-.93,1-1.65l-1.83-10.66Z"/>
            <path class="cls-7" d="m322.86,52.5c-.01-.43-.21-.83-.53-1.1-.33-.27-.76-.39-1.18-.32-18.87,3.16-38.14,4.76-57.27,4.76-13.47,0-27.08-.8-40.46-2.37-.42-.05-.85.09-1.16.37-.32.29-.49.7-.48,1.12.09,3.6.18,7.21.26,10.81.02.73.57,1.34,1.3,1.43,13.49,1.58,27.22,2.39,40.81,2.39,19.29,0,38.73-1.62,57.76-4.8.72-.12,1.24-.75,1.23-1.49l-.27-10.82Z"/>
            <path class="cls-7" d="m362.85,68.88c-.01-.43-.21-.83-.53-1.1-.33-.27-.76-.39-1.18-.32-18.87,3.16-38.14,4.76-57.27,4.76-13.47,0-27.08-.8-40.46-2.37-.42-.05-.85.09-1.16.37-.32.29-.49.7-.48,1.12.09,3.6.18,7.21.26,10.81.02.73.57,1.34,1.3,1.43,13.49,1.58,27.22,2.39,40.81,2.39,19.29,0,38.73-1.62,57.76-4.8.72-.12,1.24-.75,1.23-1.49l-.27-10.82Z"/>
            <g>
              <path class="cls-2" d="m156.66,41.22c.31,1.59,1.68,4.03,3.51,6.77-.69-1.76-1.42-3.47-2.21-5.03-.48-.62-.91-1.2-1.31-1.74Z"/>
              <path class="cls-12" d="m157.97,42.96c6.82,8.81,22.87,25.67,51.46,35.43,22.07,7.53,44.9,2.12,72.95-5.51-1.06-5.88-51.23-13.24-57.02-15.16l-23.48-5.68c-5.96-1.98-43.24-17.89-45.22-11.94-.04.13-.06.28-.07.44.48.76.94,1.57,1.37,2.43Z"/>
              <path class="cls-13" d="m209.43,78.39c-28.59-9.76-44.64-26.62-51.46-35.43.79,1.56,1.52,3.27,2.21,5.03,4.24,6.31,10.93,14.13,12.6,16.3.58.75,1.17,1.46,1.78,2.14,11.79,13.27,28.97,14.6,45.14,19.97,11.89,3.95,26.71,2.31,38.51-1.19,4.1-1.21,22.77-7.68,24.14-11.83.06-.17.06-.34.03-.52-28.05,7.63-50.88,13.05-72.95,5.51Z"/>
              <path class="cls-13" d="m156.6,40.53c0,.21.02.44.07.7.39.54.82,1.11,1.31,1.74-.44-.86-.9-1.67-1.37-2.43Z"/>
            </g>
            <g>
              <path class="cls-12" d="m139.76,88.59c-17.22,12.66-34.8,33.78-42.91,44.07-.31,1.62-.34,2.87.01,3.53,2.98,5.53,34.47-17.36,40-20.34l22.15-9.64c5.38-2.89,53.67-18.82,53.56-24.77-29.13-2.97-54.02-6.67-72.81,7.14Z"/>
              <path class="cls-13" d="m139.76,88.59c18.79-13.81,43.68-10.11,72.81-7.14,0-.17-.04-.33-.12-.48-2.07-3.85-21.57-7.01-25.82-7.5-12.23-1.41-27.11-.47-38.14,5.46-15.01,8.07-31.7,12.34-41.03,27.44-.48.78-.94,1.58-1.38,2.42-1.61,3.06-7.91,16.9-9.23,23.88,8.11-10.3,25.69-31.41,42.91-44.07Z"/>
            </g>
            <g>
              <path class="cls-12" d="m184.16,94.39c21.04-3.74,46.15-14.9,57.98-20.54.99-1.32,1.58-2.42,1.55-3.17-.23-6.27-38.59.32-44.87.54l-24.13-1.15c-6.1.21-56.46-6.87-58.99-1.48,24.81,15.55,45.5,29.88,68.46,25.8Z"/>
              <path class="cls-13" d="m115.7,68.6c-.07.15-.11.31-.11.48.15,4.37,16.25,15.83,19.84,18.15,10.35,6.67,24.1,12.42,36.62,11.98,17.03-.6,33.89,2.96,48.94-6.46.77-.48,1.54-1,2.31-1.56,2.8-2.03,14.57-11.66,18.84-17.33-11.82,5.65-36.93,16.81-57.98,20.54-22.96,4.08-43.65-10.25-68.46-25.8Z"/>
            </g>
            <g>
              <path class="cls-18" d="m347.25,82.87c0,14.36-13.25,26-29.58,26s-29.58-11.64-29.58-26,13.25-26,29.58-26,29.58,11.64,29.58,26Z"/>
              <g class="cls-1">
                <path class="cls-10" d="m347.25,69.45c0,14.36-13.25,26-29.58,26s-29.58-11.64-29.58-26,13.25-26,29.58-26,29.58,11.64,29.58,26Z"/>
              </g>
            </g>
            <g>
              <path class="cls-18" d="m393.92,110.33c-2.05,14.11-16.82,23.59-32.98,21.18-16.16-2.42-27.61-15.81-25.55-29.93,2.05-14.11,16.82-23.6,32.98-21.18,16.16,2.41,27.6,15.82,25.55,29.93Z"/>
              <g class="cls-19">
                <path class="cls-10" d="m395.84,97.14c-2.05,14.11-16.82,23.59-32.98,21.18-16.16-2.42-27.6-15.82-25.55-29.93,2.05-14.11,16.82-23.59,32.98-21.18,16.16,2.42,27.6,15.81,25.55,29.93Z"/>
              </g>
            </g>
            <path class="cls-9" d="m362.94,134.41c8.1,17.96,9.92,38.86-2.2,56.04-19.53,27.69-50.55,29.7-79.33,34.15-27.88,4.31-40.79,2.04-71.46.09-18.16-1.15-38.11-5.52-53.57-17.17-20.15-15.19-28.41-50.05-15.46-74.85,12.76-24.43,34.01-38.01,59.87-42.6,27-4.79,57.42-7.42,84.52-3.98,16.95,2.15,40.28,10.06,54.15,21.29,9.14,7.41,17.84,14.52,23.48,27.04Z"/>
            <path class="cls-5" d="m147.3,150.74c3.54-1.99,9.99,11.8,14.53,12.71,4.54.91.91,1.82,8.17,6.36,7.26,4.54,8.6,5.14,12.71,7.26,35.86,18.49,121.85,5.12,147.09.91,21.79-3.63,26.33-13.62,28.15-16.34,1.82-2.72,6.35-9.08,6.35-3.63s.31,34.24-18.16,42.67c-79.98,36.53-172.62,17.83-187.04.91-13.9-16.31-26.33-42.67-11.8-50.84Z"/>
            <path class="cls-17" d="m131.03,233.29c-18.7-9.94-19.07-26.33-5.45-36.32,13.62-9.99,9.74,2.18,29.83-8.59,13.32-7.14,27.37-37.72,58.24-53.15,30.87-15.44,59.02-10.9,77.18-.91,18.16,9.99,16.34,9.08,24.51,12.71,8.17,3.63,24.46,27.71,25.42,35.41,3.63,29.05,18.16,24.51,26.33,6.36,4.11-9.15,9.99-4.54,10.9,15.44.91,19.98-22.7,52.66-125.3,35.41-65.37-10.99-92.61,9.08-121.67-6.36Z"/>
          </g>
          <path class="cls-11" d="m365.17,157.83c-.31-12.52-8.42-25.07-16.53-34.26-13.31-15.09-29.95-20.45-49.7-22.26-19.22-1.76-43.23-15.71-62.27-8.17-7.98,3.16-13.68,9.85-20.31,15.01-5.29,4.12-11.15,7.41-16.58,11.34-11.56,8.36-19.08,18.91-14.33,33.63,6.15,19.03,15.9,42.17,35.42,50.87,18.02,8.03,37.55-1.42,55.9,4.32,11.55,3.61,24.94,8.21,37.62,7.11,17.1-1.49,23.53-12.26,32.12-25.3,4.2-6.39,10.71-10.74,14.72-17.38,2.91-4.82,4.05-9.86,3.92-14.91Z"/>
          <g>
            <path class="cls-16" d="m306.18,140.83c0,15.49-15.24,28.04-34.03,28.04s-34.03-12.55-34.03-28.04,15.24-28.04,34.03-28.04,34.03,12.55,34.03,28.04Z"/>
            <path class="cls-6" d="m244.27,143.1s8.38,8.48,23.08,10.79c14.7,2.31,33.94-7.19,33.94-7.19,0,0-12.12,18.01-31.34,16.47-19.22-1.54-23.33-10.84-25.67-20.07Z"/>
            <path class="cls-12" d="m282.75,124.88c0,3.02-3.25,5.47-7.27,5.47s-7.27-2.45-7.27-5.47,3.25-5.47,7.27-5.47,7.27,2.45,7.27,5.47Z"/>
          </g>
          <path class="cls-4" d="m154.31,202.17s18.39,25.37,63.43,30.45c45.04,5.07,104.02-1.27,114.17-8.88,10.15-7.61-38.69,1.9-56.45,4.44-17.76,2.54-61.53.63-79.92-10.78-18.39-11.42-17.76-25.37-21.57-27.91-3.81-2.54-10.15,9.51-19.66,12.69Z"/>
          <path class="cls-14" d="m283.29,193.59s23.73,9.13,31.04,7.3c7.3-1.83,17.04-18.87,24.34-21.3,7.3-2.43,19.47-18.87,18.87-24.34s7.91,14.61-6.69,23.73c-14.61,9.13-11.91,23.39-24.95,28.6-24.34,9.74-45.04-4.87-55.99-4.87s-26.17,0-37.12-.61c-10.95-.61-17.65-3.65-23.13-17.04,0,0,7.91,12.17,26.78,7.91,18.87-4.26,36.52-3.65,46.86.61Z"/>
        </g>
      </g>
    </g>
  </g>
</svg>