<?xml version="1.0" encoding="UTF-8"?>
<svg xmlns="http://www.w3.org/2000/svg" xmlns:xlink="http://www.w3.org/1999/xlink" viewBox="0 0 502.55 352.1">
  <defs>
    <style>
      .cls-1 {
        clip-path: url(#clippath);
      }

      .cls-2, .cls-3, .cls-4, .cls-5, .cls-6, .cls-7, .cls-8, .cls-9, .cls-10, .cls-11, .cls-12, .cls-13, .cls-14, .cls-15, .cls-16, .cls-17, .cls-18, .cls-19, .cls-20, .cls-21, .cls-22, .cls-23, .cls-24, .cls-25, .cls-26, .cls-27, .cls-28, .cls-29, .cls-30, .cls-31, .cls-32, .cls-33, .cls-34, .cls-35, .cls-36, .cls-37, .cls-38, .cls-39, .cls-40, .cls-41 {
        stroke-width: 0px;
      }

      .cls-2, .cls-42 {
        fill: none;
      }

      .cls-43, .cls-36 {
        fill: #feebc8;
      }

      .cls-44, .cls-4, .cls-12 {
        fill: #abc609;
      }

      .cls-45 {
        clip-path: url(#clippath-1);
      }

      .cls-46 {
        clip-path: url(#clippath-4);
      }

      .cls-47 {
        clip-path: url(#clippath-3);
      }

      .cls-48 {
        clip-path: url(#clippath-2);
      }

      .cls-49 {
        clip-path: url(#clippath-7);
      }

      .cls-50 {
        clip-path: url(#clippath-8);
      }

      .cls-51 {
        clip-path: url(#clippath-6);
      }

      .cls-52 {
        clip-path: url(#clippath-5);
      }

      .cls-53 {
        clip-path: url(#clippath-9);
      }

      .cls-54 {
        stroke: #f3d4a1;
        stroke-width: .88px;
      }

      .cls-54, .cls-42 {
        stroke-linecap: round;
        stroke-linejoin: round;
      }

      .cls-54, .cls-17 {
        fill: #f3d4a1;
      }

      .cls-3, .cls-4, .cls-5, .cls-41 {
        mix-blend-mode: multiply;
      }

      .cls-3, .cls-6 {
        opacity: .6;
      }

      .cls-3, .cls-22 {
        fill: #ffee7d;
      }

      .cls-42 {
        stroke: #fff;
        stroke-width: 4.25px;
      }

      .cls-4, .cls-5 {
        opacity: .5;
      }

      .cls-5, .cls-38 {
        fill: #fcc800;
      }

      .cls-55 {
        isolation: isolate;
      }

      .cls-6, .cls-7, .cls-20 {
        fill: #fff;
      }

      .cls-7 {
        opacity: .3;
      }

      .cls-8 {
        fill: #f3a68c;
      }

      .cls-9 {
        fill: #54642a;
      }

      .cls-10 {
        fill: #cd6715;
      }

      .cls-11 {
        fill: #d98700;
      }

      .cls-13 {
        fill: #dd9326;
      }

      .cls-14 {
        fill: #be3a2b;
      }

      .cls-15, .cls-41 {
        fill: #b81c22;
      }

      .cls-16 {
        fill: #fef2da;
      }

      .cls-18 {
        fill: #ffe378;
      }

      .cls-19 {
        fill: #fffcf7;
      }

      .cls-21 {
        fill: #ffdf5d;
      }

      .cls-23 {
        fill: #ffe26d;
      }

      .cls-24 {
        fill: #ffe982;
      }

      .cls-25 {
        fill: #fff0ac;
      }

      .cls-26 {
        fill: #ffe771;
      }

      .cls-27 {
        fill: #ffe87b;
      }

      .cls-28 {
        fill: #ffea84;
      }

      .cls-29 {
        fill: #fff4df;
      }

      .cls-30 {
        fill: #f5a200;
      }

      .cls-31 {
        fill: #ffdb3f;
      }

      .cls-32 {
        fill: #ffe55f;
      }

      .cls-33 {
        fill: #e9b76f;
      }

      .cls-34 {
        fill: #f19071;
      }

      .cls-35 {
        fill: #ecf1cf;
      }

      .cls-37 {
        fill: #feebbe;
      }

      .cls-39 {
        fill: #fbdccf;
      }

      .cls-40 {
        fill: #691c07;
      }

      .cls-41 {
        opacity: .4;
      }
    </style>
    <clipPath id="clippath">
      <path class="cls-36" d="m217.51,87.36c0-7.03-12.11-12.72-27.05-12.72s-27.05,5.7-27.05,12.72l3.92,24.22c0,6.01,9.68,11.45,23.13,11.45s21.13-4.05,23.13-11.45l3.92-24.22Z"/>
    </clipPath>
    <clipPath id="clippath-1">
      <path class="cls-2" d="m217.51,87.36c0,7.03-12.11,12.72-27.05,12.72s-27.05-5.7-27.05-12.72,12.11-12.72,27.05-12.72,27.05,5.7,27.05,12.72Z"/>
    </clipPath>
    <clipPath id="clippath-2">
      <path class="cls-36" d="m165.77,100.26c0-7.03-12.11-12.72-27.05-12.72s-27.05,5.7-27.05,12.72l3.92,24.22c0,6.01,9.68,11.45,23.13,11.45s21.13-4.05,23.13-11.45l3.92-24.22Z"/>
    </clipPath>
    <clipPath id="clippath-3">
      <path class="cls-2" d="m165.77,100.26c0,7.03-12.11,12.72-27.05,12.72s-27.05-5.7-27.05-12.72,12.11-12.72,27.05-12.72,27.05,5.7,27.05,12.72Z"/>
    </clipPath>
    <clipPath id="clippath-4">
      <path class="cls-12" d="m271.96,248.54c-2.35,2.93-7.35.6-9.8,3.55-1.84,2.22-3.56,3.08-6.92,4.33-4.76,1.77-4.82-1.69-9.91-2.2-.93,1.49-1.06,2.29-3.79,2.47-1.57.1-10.07-3.93-12.24-4.83-7.96,1.32-8.01,2.02-18.83-.61-5.11-1.24-3.91-5.11-7.8-6.79-1.87.15-10.76,1.78-15.6-.29,0,0-3.37-1.59-6.53-3.5-.55-.13-1.1-.27-1.68-.4-15.2-3.45,3.79-1.47-5.08-9.92-8.87-8.45-5.74,1.86-11.31-7.51-5.57-9.37-5.48-15.37,3.31-17.81,8.79-2.44.03-7.41,5.59-10,5.56-2.58,5.43.44,11.23-1.69,3.83-1.41,8.66-2.04,13.78-2.53,1.68-.16,3.32-.41,5.03-.6,2.88-.33,5.96-.5,9.73.12,4.35.73,23.14-1.81,27.47.07,12.51,5.42,8.46,5.94,20.32,11.94,5.15,2.61,6.24,6.78,7.03,10.42.77,3.53,3.26,7.04,3.93,10.29.38,1.82-.94,3.45-.63,5.29.38,2.31,2.66,4.43,2.9,6.77.18,1.78.7,12.32-.18,13.42Z"/>
    </clipPath>
    <clipPath id="clippath-5">
      <path class="cls-12" d="m415.23,218.18c-.34,3.75-5.79,4.57-6.2,8.37-.31,2.87-1.27,4.53-3.37,7.44-2.98,4.11-4.95,1.26-9.47,3.65.05,1.76.38,2.5-1.8,4.15-1.25.95-10.56,2.3-12.87,2.75-5.91,5.5-5.56,6.11-16.03,9.91-4.95,1.79-6.08-2.1-10.25-1.35-1.47,1.16-7.98,7.43-13.16,8.39,0,0-3.69.54-7.38.69-.53.19-1.07.39-1.62.6-14.57,5.53,2.35-3.32-9.72-5.45-12.06-2.14-3.75,4.72-13.58,0-9.83-4.72-13.07-9.78-7.09-16.67,5.97-6.89-4.08-6.19-.87-11.42,3.21-5.23,4.77-2.63,8.43-7.62,2.41-3.29,6.09-6.49,10.08-9.73,1.31-1.07,2.54-2.18,3.86-3.28,2.22-1.87,4.69-3.72,8.18-5.28,4.03-1.8,18.28-14.3,22.92-15.13,13.42-2.4,10.34.27,23.54-1.29,5.74-.68,8.95,2.19,11.62,4.79,2.59,2.52,6.61,4.07,8.96,6.4,1.32,1.31,1.13,3.39,2.4,4.76,1.6,1.71,4.67,2.22,6.16,4.04,1.13,1.39,7.4,9.87,7.27,11.28Z"/>
    </clipPath>
    <clipPath id="clippath-6">
      <path class="cls-12" d="m390.51,215.76c-.36,4.04-7.33,5.17-7.78,9.27-.34,3.09-1.53,4.92-4.17,8.13-3.74,4.55-6.32,1.57-12.07,4.34.1,1.88.54,2.66-2.22,4.54-1.59,1.08-13.48,2.94-16.44,3.52-7.46,6.17-7,6.82-20.34,11.36-6.3,2.15-7.84-1.98-13.16-.99-1.87,1.31-10.08,8.34-16.69,9.6,0,0-4.72.75-9.44,1.08-.68.23-1.36.46-2.07.71-18.56,6.59,2.94-3.67-12.56-5.42-15.5-1.76-4.71,5.24-17.39.61-12.68-4.63-16.93-9.91-9.41-17.58,7.52-7.67-5.35-6.46-1.34-12.22,4.01-5.76,6.06-3.04,10.65-8.55,3.03-3.64,7.67-7.24,12.72-10.9,1.66-1.2,3.21-2.45,4.88-3.7,2.81-2.1,5.93-4.2,10.37-6.03,5.12-2.11,23.14-16.17,29.06-17.27,17.15-3.18,13.25-.17,30.13-2.44,7.33-.98,11.5,1.96,14.98,4.63,3.38,2.59,8.55,4.07,11.61,6.48,1.72,1.35,1.51,3.59,3.17,5,2.08,1.77,6.03,2.18,7.97,4.06,1.48,1.44,9.67,10.27,9.54,11.79Z"/>
    </clipPath>
    <clipPath id="clippath-7">
      <path class="cls-12" d="m307.03,199.8c2.34,2.95,7.35.65,9.77,3.6,1.83,2.23,3.55,3.1,6.9,4.37,4.75,1.8,4.83-1.66,9.92-2.15.92,1.5,1.05,2.3,3.78,2.49,1.57.11,10.09-3.87,12.27-4.76,7.96,1.36,8,2.07,18.84-.5,5.12-1.21,3.94-5.09,7.83-6.75,1.87.16,10.75,1.84,15.61-.2,0,0,3.38-1.57,6.55-3.46.55-.13,1.11-.26,1.68-.39,15.22-3.36-3.78-1.49,5.13-9.89,8.92-8.4,5.73,1.89,11.35-7.45,5.62-9.34,5.57-15.34-3.21-17.83-8.78-2.49.02-7.41-5.53-10.03-5.55-2.61-5.43.41-11.22-1.75-3.82-1.43-8.65-2.08-13.77-2.61-1.68-.17-3.32-.43-5.03-.63-2.88-.34-5.96-.54-9.73.07-4.36.7-23.13-1.94-27.47-.09-12.54,5.35-8.5,5.89-20.39,11.83-5.17,2.58-6.28,6.74-7.09,10.38-.79,3.53-3.3,7.02-3.98,10.27-.39,1.82.92,3.46.6,5.29-.4,2.31-2.69,4.42-2.93,6.76-.19,1.78-.77,12.31.11,13.42Z"/>
    </clipPath>
    <clipPath id="clippath-8">
      <path class="cls-12" d="m155.53,162.87c.32,3.75,5.76,4.6,6.15,8.4.29,2.87,1.24,4.54,3.33,7.46,2.96,4.13,4.94,1.28,9.45,3.7-.06,1.76-.4,2.49,1.77,4.16,1.25.96,10.55,2.36,12.86,2.82,5.88,5.53,5.53,6.15,15.97,10,4.94,1.82,6.1-2.06,10.26-1.29,1.47,1.17,7.94,7.48,13.11,8.46,0,0,3.69.56,7.37.74.53.19,1.07.39,1.62.61,14.54,5.62-2.33-3.33,9.75-5.4,12.08-2.07,3.73,4.74,13.58.08,9.85-4.67,13.12-9.7,7.19-16.63-5.94-6.93,4.11-6.17.93-11.41-3.18-5.25-4.75-2.66-8.38-7.66-2.4-3.3-6.05-6.52-10.03-9.79-1.3-1.07-2.53-2.19-3.84-3.3-2.21-1.88-4.67-3.74-8.15-5.32-4.02-1.82-18.2-14.41-22.83-15.26-13.41-2.48-10.34.21-23.53-1.42-5.73-.71-8.96,2.14-11.65,4.73-2.61,2.51-6.63,4.03-9,6.35-1.33,1.3-1.15,3.39-2.42,4.74-1.61,1.7-4.68,2.2-6.18,4.01-1.14,1.38-7.45,9.83-7.33,11.24Z"/>
    </clipPath>
    <clipPath id="clippath-9">
      <path class="cls-12" d="m193.77,162.85c.29,3.77,6.26,4.85,6.62,8.67.28,2.89,1.29,4.6,3.54,7.61,3.18,4.26,5.41,1.5,10.33,4.1-.1,1.76-.48,2.48,1.88,4.24,1.35,1.01,11.55,2.8,14.08,3.36,6.37,5.79,5.97,6.39,17.39,10.68,5.39,2.03,6.73-1.81,11.3-.86,1.59,1.23,8.6,7.82,14.27,9.03,0,0,4.04.72,8.09,1.05.58.22,1.16.44,1.77.68,15.89,6.24-2.51-3.43,10.8-5,13.3-1.57,4.02,4.91,14.92.65,10.9-4.26,14.58-9.16,8.17-16.35-6.41-7.19,4.62-6,1.22-11.39-3.41-5.39-5.18-2.86-9.09-8.03-2.58-3.41-6.54-6.78-10.86-10.22-1.41-1.13-2.74-2.3-4.16-3.47-2.4-1.97-5.07-3.94-8.87-5.67-4.38-2-19.77-15.19-24.84-16.25-14.7-3.05-11.37-.22-25.83-2.42-6.29-.95-9.88,1.77-12.88,4.24-2.91,2.4-7.35,3.76-9.99,5.98-1.48,1.25-1.31,3.34-2.74,4.65-1.79,1.64-5.18,2-6.86,3.75-1.28,1.33-8.35,9.53-8.24,10.95Z"/>
    </clipPath>
  </defs>
  <g class="cls-55">
    <g id="_レイヤー_2" data-name="レイヤー 2">
      <g id="_イラスト" data-name="イラスト">
        <g>
          <g>
            <path class="cls-54" d="m502.11,194.92c0,86.56-112.3,156.73-250.83,156.73S.44,281.48.44,194.92,112.75,38.19,251.28,38.19s250.83,70.17,250.83,156.74Z"/>
            <ellipse class="cls-37" cx="251.28" cy="189.38" rx="250.83" ry="156.73"/>
            <ellipse class="cls-20" cx="251.28" cy="192.78" rx="192.6" ry="120.34"/>
            <ellipse class="cls-42" cx="251.28" cy="192.78" rx="231.12" ry="144.41"/>
          </g>
          <g>
            <path class="cls-19" d="m40.32,139.22s18.34,85.55,47.01,109.84c28.66,24.29,163.96,66.79,163.96,66.79,0,0,120.39-53.64,147.91-65.78,27.52-12.14,76.82-76.45,76.82-76.45,0,0-127.27-50.06-153.64-66.25-26.37-16.19-67.65-49.59-67.65-49.59,0,0-81.41,57.15-118.1,67.27-36.69,10.12-96.31,14.16-96.31,14.16Z"/>
            <g>
              <g>
                <path class="cls-43" d="m217.51,87.36c0-7.03-12.11-12.72-27.05-12.72s-27.05,5.7-27.05,12.72l3.92,24.22c0,6.01,9.68,11.45,23.13,11.45s21.13-4.05,23.13-11.45l3.92-24.22Z"/>
                <g class="cls-1">
                  <path class="cls-16" d="m211.67,96.59c0-7.03-9.5-12.72-21.21-12.72,8.46,0,15.32,5.7,15.32,12.72l-2.22,24.22c0,1.99-.61,3.92-1.69,5.62,2.29-.65,4.32-1.48,6.01-2.44.47-1.02.72-2.09.72-3.17l3.08-24.22Z"/>
                  <path class="cls-16" d="m177.36,120.81l-2.22-24.22c0-7.03,6.86-12.72,15.32-12.72h0c-11.72,0-21.21,5.7-21.21,12.72l3.08,24.22c0,1.09.25,2.15.72,3.17,1.69.97,3.72,1.8,6.01,2.44-1.09-1.69-1.69-3.62-1.69-5.62Z"/>
                  <path class="cls-16" d="m181.6,96.59l1.28,24.22c0,2.43.52,4.76,1.43,6.68,1.3.17,2.65.29,4.06.35-.36-1.98-.56-4.46-.56-7.04l-.45-24.22c0-7.03,1.39-12.72,3.1-12.72-4.89,0-8.86,5.7-8.86,12.72Z"/>
                  <path class="cls-16" d="m193.56,96.59l-.45,24.22c0,2.58-.21,5.05-.56,7.04,1.4-.06,2.76-.18,4.06-.35.91-1.92,1.43-4.26,1.43-6.68l1.29-24.22c0-7.03-3.97-12.72-8.86-12.72h0c1.72,0,3.1,5.7,3.1,12.72Z"/>
                </g>
              </g>
              <g class="cls-45">
                <path class="cls-16" d="m217.51,87.36c0,7.03-12.11,12.72-27.05,12.72s-27.05-5.7-27.05-12.72,12.11-12.72,27.05-12.72,27.05,5.7,27.05,12.72Z"/>
                <path class="cls-17" d="m216.15,88.04c0,6.68-11.51,12.09-25.7,12.09s-25.7-5.41-25.7-12.09,11.51-12.09,25.7-12.09,25.7,5.41,25.7,12.09Z"/>
                <path class="cls-22" d="m213.73,93.73c0,6.91-11.63,11.35-23.73,11.35s-25.99-2.09-21.91-12.51c1.73-4.42,3.15-6.93,7.37-8.68,2.92-1.21,8.81-2.61,11.98-2.93,8.11-.81,15.05,1.23,21.73,5.69,2.53,1.69,4.56,3.86,4.56,7.08Z"/>
                <path class="cls-3" d="m204.45,92.78c-4.22,4.13-10.49,1.75-11.56,5.82-1.07,4.07,17.72-.7,20.13-2.88,2.41-2.18-1.78-8.21-7.87-3.94"/>
                <path class="cls-6" d="m191.39,83.88c3.69.89,8.01-.31,6.15-1.17-1.75-.81-8.76-.95-8.93,0-.22,1.27-.03.5,2.78,1.17Z"/>
                <path class="cls-3" d="m174.53,88.39c-.51-2.55-10.31,7.4-.73,8.47,4.49.5,7.06,2.63,6.93,1.41-.13-1.22-5.54-6.56-6.2-9.88Z"/>
              </g>
              <path class="cls-16" d="m218.17,88.22h0c-3.16,5.91-15.28,10.95-27.71,10.95s-24.55-5.04-27.71-10.95h0s.3,1.23.64,2.64c.01.05.02.1.04.16.45,1.87.96,3.99.96,3.99,0,0,0,.01,0,.02.34,1.39,1.31,2.64,2.59,3.74,2.23,1.96,5.39,3.18,7.77,4.04.71.26,1.43.49,2.16.7,4.07,1.27,8.47,1.83,12.82,1.82.24,0,.48,0,.73,0,.24,0,.48,0,.73,0,4.35.02,8.74-.54,12.82-1.82.73-.21,1.45-.44,2.16-.7,2.38-.86,5.54-2.08,7.77-4.04,1.28-1.1,2.25-2.35,2.59-3.74,0,0,0-.01,0-.02,0,0,.51-2.12.97-3.99.01-.05.03-.1.04-.16.34-1.41.64-2.64.64-2.64Z"/>
              <path class="cls-16" d="m190.46,74.63c14.94,0,27.05,5.7,27.05,12.72s-12.11,12.72-27.05,12.72-27.05-5.7-27.05-12.72,12.11-12.72,27.05-12.72m0-.71c-7.35,0-14.27,1.35-19.48,3.8-5.38,2.53-8.34,5.95-8.34,9.63s2.96,7.09,8.34,9.62c5.22,2.45,12.14,3.8,19.48,3.8s14.26-1.35,19.48-3.8c5.38-2.53,8.34-5.95,8.34-9.62s-2.96-7.1-8.34-9.63c-5.22-2.45-12.13-3.8-19.48-3.8h0Z"/>
            </g>
            <g>
              <g>
                <path class="cls-43" d="m165.77,100.26c0-7.03-12.11-12.72-27.05-12.72s-27.05,5.7-27.05,12.72l3.92,24.22c0,6.01,9.68,11.45,23.13,11.45s21.13-4.05,23.13-11.45l3.92-24.22Z"/>
                <g class="cls-48">
                  <path class="cls-16" d="m159.94,109.49c0-7.03-9.5-12.72-21.21-12.72,8.46,0,15.32,5.7,15.32,12.72l-2.22,24.22c0,1.99-.61,3.92-1.69,5.62,2.29-.65,4.32-1.48,6.01-2.44.47-1.02.72-2.09.72-3.17l3.08-24.22Z"/>
                  <path class="cls-16" d="m125.62,133.71l-2.22-24.22c0-7.03,6.86-12.72,15.32-12.72h0c-11.71,0-21.21,5.7-21.21,12.72l3.08,24.22c0,1.09.25,2.15.72,3.17,1.69.97,3.72,1.8,6.01,2.44-1.09-1.69-1.69-3.62-1.69-5.62Z"/>
                  <path class="cls-16" d="m129.86,109.49l1.29,24.22c0,2.43.52,4.76,1.43,6.68,1.3.17,2.65.29,4.06.35-.36-1.98-.56-4.46-.56-7.04l-.45-24.22c0-7.03,1.39-12.72,3.1-12.72-4.89,0-8.86,5.7-8.86,12.72Z"/>
                  <path class="cls-16" d="m141.83,109.49l-.45,24.22c0,2.58-.21,5.05-.56,7.04,1.4-.06,2.76-.18,4.06-.35.91-1.92,1.43-4.26,1.43-6.68l1.28-24.22c0-7.03-3.97-12.72-8.86-12.72h0c1.72,0,3.1,5.7,3.1,12.72Z"/>
                </g>
              </g>
              <g class="cls-47">
                <path class="cls-16" d="m165.77,100.26c0,7.03-12.11,12.72-27.05,12.72s-27.05-5.7-27.05-12.72,12.11-12.72,27.05-12.72,27.05,5.7,27.05,12.72Z"/>
                <path class="cls-17" d="m164.42,100.94c0,6.68-11.51,12.09-25.7,12.09s-25.7-5.41-25.7-12.09,11.51-12.09,25.7-12.09,25.7,5.41,25.7,12.09Z"/>
                <path class="cls-15" d="m161.99,106.63c0,6.91-11.63,11.35-23.73,11.35s-25.99-2.09-21.91-12.51c1.73-4.42,3.15-6.93,7.37-8.68,2.92-1.21,8.81-2.61,11.98-2.93,8.11-.81,15.05,1.23,21.73,5.69,2.53,1.69,4.56,3.86,4.56,7.08Z"/>
                <path class="cls-41" d="m152.71,105.68c-4.22,4.13-10.49,1.75-11.56,5.82-1.07,4.07,17.72-.7,20.13-2.88,2.41-2.18-1.78-8.21-7.88-3.94"/>
                <path class="cls-7" d="m139.66,96.78c3.69.89,8.02-.31,6.15-1.17-1.75-.81-8.76-.95-8.93,0-.22,1.27-.03.5,2.78,1.17Z"/>
                <path class="cls-41" d="m122.8,101.29c-.51-2.55-10.31,7.4-.72,8.47,4.49.5,7.06,2.63,6.93,1.41-.13-1.22-5.54-6.56-6.2-9.88Z"/>
              </g>
              <path class="cls-16" d="m166.44,101.12h0c-3.16,5.91-15.28,10.95-27.71,10.95s-24.55-5.04-27.71-10.95h0s.3,1.23.64,2.64c.01.05.02.1.04.16.45,1.87.97,3.99.97,3.99,0,0,0,.01,0,.02.34,1.39,1.32,2.64,2.59,3.74,2.23,1.96,5.39,3.18,7.77,4.04.71.26,1.43.49,2.16.7,4.07,1.27,8.47,1.83,12.82,1.82.24,0,.48,0,.73,0,.24,0,.48,0,.73,0,4.35.02,8.74-.54,12.82-1.82.73-.21,1.45-.44,2.16-.7,2.38-.86,5.54-2.08,7.77-4.04,1.27-1.1,2.25-2.35,2.59-3.74,0,0,0-.01,0-.02,0,0,.51-2.12.97-3.99.01-.05.03-.1.04-.16.34-1.41.64-2.64.64-2.64Z"/>
              <path class="cls-16" d="m138.72,87.53c14.94,0,27.05,5.7,27.05,12.72s-12.11,12.72-27.05,12.72-27.05-5.7-27.05-12.72,12.11-12.72,27.05-12.72m0-.71c-7.35,0-14.27,1.35-19.48,3.8-5.38,2.53-8.34,5.95-8.34,9.63s2.96,7.09,8.34,9.62c5.22,2.45,12.14,3.8,19.48,3.8s14.26-1.35,19.48-3.8c5.38-2.53,8.34-5.95,8.34-9.62s-2.96-7.1-8.34-9.63c-5.22-2.45-12.13-3.8-19.48-3.8h0Z"/>
            </g>
            <g>
              <path class="cls-31" d="m84.44,129.92s-4.41,10.82-2.79,11.69c1.62.87,98.26,18.61,116.61,18.02,18.35-.58,44.23-6.15,44.23-6.15l-12.65-7.46s-27.42,1.97-38.64,2.21c-9.67.2-106.75-18.3-106.75-18.3Z"/>
              <path class="cls-38" d="m85.29,133.6s-1.35,7.32-.1,7.99c1.25.67,104.65,17.12,109.97,17.39,5.32.28,47.32-5.5,47.32-5.5,0,0-45.65,8.97-52.73,8.39-7.08-.58-107.37-15.03-108.8-18.37-1.43-3.34,3.47-15.5,3.65-12.83.18,2.67.68,2.94.68,2.94Z"/>
            </g>
            <g>
              <path class="cls-31" d="m191.06,124.44s-7.51-7.25-11.31-6.79c-3.8.46-88.81,49.53-100.73,57.84s-12.66,12.85-12.66,12.85c0,0,.53,1.5,6.58,5.32,3.94,2.49,14.65-13.26,22.72-17.02,8.07-3.76,90.62-49.58,95.4-52.2Z"/>
              <path class="cls-38" d="m80.03,177.25c2.6-3.37,7.98-5.83,11.56-8.05,7.94-4.91,16.04-9.6,24.13-14.27,17.29-9.98,34.73-19.74,52.21-29.42,3.99-2.21,8-4.41,11.99-6.63-.41.23,10.02,5.17,11.14,5.57,0,0-7.57-8.41-10.59-8.97-2.47-.45-6.15,3.31-8.01,4.54-10.18,6.72-21.5,12.21-32.19,18.2-14.78,8.28-29.56,16.55-44.35,24.81-3.73,2.09-10.16,5.54-13.47,8.17-6.62,5.27-15.44,15.24-16.32,16.83-.88,1.59,9.17-4.64,13.89-10.78Z"/>
            </g>
            <g>
              <path class="cls-31" d="m77.69,209.21s.36,11.68,2.19,11.82c1.83.13,97.36-22.85,113.89-30.83,16.54-7.98,37.93-23.57,37.93-23.57l-14.59-1.69s-24.26,12.92-34.43,17.69c-8.75,4.11-104.99,26.58-104.99,26.58Z"/>
              <path class="cls-38" d="m79.96,212.23s1.74,7.23,3.15,7.34c1.41.11,102.6-26.8,107.57-28.71,4.97-1.91,41.02-24.23,41.02-24.23,0,0-38.08,26.72-44.79,29.06-6.71,2.34-104.24,29.81-106.9,27.34-2.66-2.47-3.11-15.58-1.87-13.21,1.25,2.37,1.81,2.41,1.81,2.41Z"/>
            </g>
            <g>
              <path class="cls-31" d="m251.77,231.49s-59.06-16.75-91.38-10.41c-32.32,6.34-32.24,7.08-34.18,2.79-1.94-4.29-1.99-8.41,7.57-10.15,9.56-1.74,43.92-6.41,62.51-4.22,18.59,2.2,51.52,12.66,55.76,17.47,4.24,4.81-.28,4.53-.28,4.53Z"/>
              <path class="cls-38" d="m253.52,229.97s-25.66-12.61-35.05-15.53c-9.39-2.93-42.44-3.27-55.54-3.35-22.26-.13-37.8,8.13-37.8,8.13,0,0,2.83-5.65,4.73-7.63,1.91-1.98,55.5-4.93,66.48-3.95,10.38.92,16.72,1.52,15.58,1.47-1.14-.04,39.06,13.5,40.89,17.04,1.83,3.54.72,3.82.72,3.82Z"/>
            </g>
            <g>
              <path class="cls-26" d="m272.6,157.67s-6.21-8.91-10.2-9c-3.99-.08-101.29,39.65-115.22,46.75-13.93,7.1-15.63,11.86-15.63,11.86,0,0,.23,1.68,5.65,6.71,3.53,3.27,17.76-12,26.8-14.81,9.05-2.81,103.15-39.43,108.59-41.51Z"/>
              <path class="cls-38" d="m147.85,197.46c3.36-3.22,9.38-5.04,13.52-6.88,9.15-4.06,18.42-7.86,27.69-11.65,19.79-8.09,39.68-15.9,59.61-23.63,4.55-1.77,9.11-3.51,13.66-5.29-.47.18,9.21,7.07,10.28,7.66,0,0-6.03-10.17-9.01-11.23-2.44-.86-6.99,2.62-9.16,3.65-11.83,5.66-24.56,9.83-36.76,14.64-16.86,6.64-33.73,13.26-50.59,19.88-4.25,1.67-11.56,4.4-15.49,6.72-7.87,4.65-18.98,14.01-20.21,15.58-1.23,1.57,10.36-3.59,16.47-9.46Z"/>
            </g>
            <g>
              <path class="cls-32" d="m234.22,173.72s2.75-11.36,1.02-11.97c-1.73-.62-99.93-3.81-117.99-.51-18.06,3.3-42.82,12.66-42.82,12.66l13.62,5.5s26.82-6.02,37.89-7.92c9.53-1.64,108.28,2.24,108.28,2.24Z"/>
              <path class="cls-38" d="m232.83,170.21s.24-7.44-1.09-7.91c-1.33-.48-106.03-1.39-111.33-.87-5.3.52-45.98,12.47-45.98,12.47,0,0,43.81-15.65,50.9-16.13,7.09-.48,108.41-1.08,110.32,2.01,1.91,3.09-1.13,15.84-1.71,13.23-.57-2.61-1.11-2.8-1.11-2.8Z"/>
            </g>
            <g>
              <path class="cls-32" d="m210.28,143.14s-61.27-3.75-91.49,9.34c-30.22,13.09-29.99,13.8-32.8,10.02-2.82-3.78-3.74-7.79,5.23-11.53,8.97-3.74,41.54-15.64,60.17-17.46,18.63-1.82,53.03,1.37,58.2,5.16,5.17,3.79.69,4.48.69,4.48Z"/>
              <path class="cls-38" d="m211.67,141.29s-27.76-6.84-37.56-7.69c-9.8-.85-42.16,5.86-54.98,8.58-21.77,4.62-35.19,16.01-35.19,16.01,0,0,1.55-6.12,2.99-8.47,1.44-2.34,53.17-16.66,64.1-18.05,10.34-1.31,16.65-2.09,15.53-1.88-1.12.2,41.04,4.85,43.58,7.92,2.54,3.07,1.52,3.58,1.52,3.58Z"/>
            </g>
            <g>
              <path class="cls-21" d="m203.52,115s-6.24-7.92-9.99-7.97c-3.75-.06-93.31,35.65-106.07,42.02-12.76,6.37-14.13,10.61-14.13,10.61,0,0,.3,1.5,5.62,5.95,3.46,2.9,16.12-10.75,24.49-13.28,8.37-2.53,95.07-35.46,100.08-37.33Z"/>
              <path class="cls-38" d="m88.18,150.86c3.01-2.88,8.58-4.52,12.38-6.17,8.41-3.64,16.94-7.06,25.47-10.46,18.21-7.27,36.54-14.3,54.9-21.25,4.19-1.59,8.4-3.16,12.59-4.76-.43.17,8.97,6.26,10.01,6.78,0,0-6.13-9.03-8.98-9.97-2.33-.75-6.45,2.36-8.43,3.29-10.85,5.09-22.62,8.84-33.85,13.16-15.53,5.97-31.07,11.93-46.61,17.88-3.92,1.5-10.66,3.95-14.25,6.04-7.18,4.17-17.18,12.53-18.26,13.94-1.08,1.4,9.56-3.23,15.04-8.47Z"/>
            </g>
            <g>
              <path class="cls-31" d="m84.23,184.85s61.27,3.9,91.52-9.12c30.25-13.02,30.02-13.73,32.83-9.94,2.81,3.79,3.73,7.8-5.25,11.52-8.98,3.72-41.58,15.54-60.21,17.32-18.63,1.77-53.03-1.5-58.19-5.3-5.16-3.8-.68-4.48-.68-4.48Z"/>
              <path class="cls-38" d="m82.84,186.71s27.74,6.91,37.54,7.78c9.8.88,42.17-5.77,55-8.45,21.78-4.57,35.23-15.93,35.23-15.93,0,0-1.57,6.12-3.01,8.46-1.44,2.34-53.21,16.54-64.14,17.9-10.34,1.29-16.66,2.05-15.54,1.85,1.12-.2-41.03-4.94-43.56-8.02-2.54-3.08-1.51-3.58-1.51-3.58Z"/>
            </g>
            <g>
              <path class="cls-32" d="m229.09,171.72s-4.88-9.71-8.83-10.35c-3.94-.65-105.88,24.93-120.67,29.99-14.79,5.06-17.15,9.53-17.15,9.53,0,0,0,1.7,4.65,7.44,3.03,3.73,19.27-9.37,28.63-10.87,9.35-1.5,107.69-24.44,113.37-25.74Z"/>
              <path class="cls-38" d="m99.97,193.47c3.79-2.72,10-3.67,14.35-4.9,9.64-2.72,19.35-5.18,29.06-7.61,20.73-5.21,41.53-10.13,62.35-14.97,4.76-1.1,9.52-2.19,14.27-3.31-.49.12,8.12,8.3,9.09,9.04,0,0-4.53-10.92-7.33-12.4-2.3-1.19-7.29,1.6-9.58,2.32-12.51,3.94-25.71,6.26-38.46,9.29-17.63,4.19-35.26,8.36-52.89,12.53-4.45,1.05-12.06,2.72-16.29,4.46-8.45,3.49-20.76,11.18-22.21,12.56-1.44,1.38,10.76-2.09,17.64-7.03Z"/>
            </g>
            <g>
              <path class="cls-28" d="m256,150.74s4.33-10.85,2.7-11.7c-1.62-.86-98.39-17.9-116.73-17.18-18.34.72-44.18,6.47-44.18,6.47l12.71,7.38s27.4-2.17,38.63-2.48c9.67-.27,106.88,17.52,106.88,17.52Z"/>
              <path class="cls-38" d="m255.12,147.07s1.29-7.33.04-7.99c-1.25-.66-104.77-16.36-110.09-16.6-5.32-.24-47.28,5.84-47.28,5.84,0,0,45.58-9.3,52.67-8.78,7.09.53,107.48,14.27,108.93,17.59,1.45,3.33-3.36,15.52-3.56,12.86-.2-2.67-.7-2.93-.7-2.93Z"/>
            </g>
            <g>
              <path class="cls-32" d="m243.27,205.56s-60.13-12.38-91.89-3.69c-31.77,8.69-31.64,9.42-33.89,5.28-2.25-4.14-2.6-8.24,6.81-10.68,9.41-2.43,43.34-9.61,62.03-8.78,18.7.83,52.31,8.85,56.89,13.34,4.58,4.48.05,4.53.05,4.53Z"/>
              <path class="cls-38" d="m244.91,203.92s-26.51-10.7-36.09-12.93c-9.58-2.23-42.56-.15-55.64.73-22.21,1.5-37.1,10.87-37.1,10.87,0,0,2.4-5.84,4.16-7.96,1.76-2.12,54.99-8.98,66.01-8.81,10.42.16,16.78.29,15.64.33-1.14.04,39.94,10.6,42.03,14,2.08,3.4,1,3.76,1,3.76Z"/>
            </g>
            <g>
              <path class="cls-31" d="m277.87,199.28s1.39-11.6-.4-12.01c-1.79-.41-99.68,8.01-117.22,13.42-17.54,5.41-41.03,17.62-41.03,17.62l14.18,3.86s25.92-9.15,36.68-12.34c9.27-2.75,107.79-10.56,107.79-10.56Z"/>
              <path class="cls-38" d="m276.08,195.96s-.64-7.41-2.02-7.73c-1.38-.32-105.45,11.14-110.66,12.28-5.2,1.14-44.19,17.81-44.19,17.81,0,0,41.65-20.71,48.64-22.03,6.99-1.32,107.53-13.87,109.79-11.02,2.26,2.84.74,15.87-.13,13.34-.88-2.53-1.43-2.65-1.43-2.65Z"/>
            </g>
            <g>
              <path class="cls-18" d="m155.79,221.84s9.16,5.01,12.7,3.56c3.54-1.45,72.57-71.24,81.87-82.4,9.3-11.16,8.81-15.73,8.81-15.73,0,0-.9-1.3-7.75-3.39-4.46-1.36-10.62,16.66-17.41,22.42-6.79,5.76-74.3,71.76-78.22,75.55Z"/>
              <path class="cls-38" d="m248.93,141.57c-1.62,3.94-6.15,7.73-9.03,10.81-6.36,6.83-12.93,13.49-19.5,20.14-14.03,14.2-28.28,28.21-42.58,42.17-3.27,3.19-6.55,6.36-9.81,9.56.34-.33-11.03-2.34-12.21-2.42,0,0,9.52,6.11,12.58,5.86,2.5-.22,5.06-4.82,6.53-6.5,8.05-9.18,17.51-17.46,26.24-26.06,12.06-11.89,24.14-23.77,36.22-35.65,3.05-3,8.34-8.02,10.83-11.44,4.99-6.83,10.87-18.78,11.3-20.55.43-1.77-7.61,6.9-10.55,14.07Z"/>
            </g>
            <g>
              <path class="cls-23" d="m99,216.52s2.31,11.46,4.13,11.28c1.83-.17,92.18-38.78,107.15-49.4,14.97-10.62,33.46-29.56,33.46-29.56l-14.67.77s-21.76,16.79-30.99,23.19c-7.95,5.51-99.09,43.72-99.09,43.72Z"/>
              <path class="cls-38" d="m101.74,219.12s2.92,6.84,4.33,6.71c1.41-.13,96.69-43.55,101.27-46.26,4.58-2.71,36.41-30.73,36.41-30.73,0,0-33.09,32.69-39.31,36.13-6.23,3.43-97.8,46.78-100.84,44.79-3.03-1.99-5.67-14.84-4.04-12.71,1.62,2.12,2.19,2.07,2.19,2.07Z"/>
            </g>
            <g>
              <path class="cls-31" d="m93,148.13s61.39.55,90.88-14.1c29.49-14.65,29.23-15.35,32.23-11.72,3.01,3.63,4.15,7.59-4.62,11.79-8.76,4.2-40.67,17.79-59.18,20.58-18.51,2.79-53.03,1.4-58.4-2.11-5.36-3.52-.92-4.44-.92-4.44Z"/>
              <path class="cls-38" d="m91.71,150.05s28.08,5.38,37.91,5.72c9.83.34,41.79-8.06,54.45-11.44,21.5-5.75,34.31-17.82,34.31-17.82,0,0-1.23,6.19-2.55,8.61-1.31,2.42-52.23,19.41-63.07,21.37-10.25,1.85-16.52,2.95-15.41,2.69,1.11-.26-41.24-2.7-43.94-5.63-2.7-2.94-1.7-3.5-1.7-3.5Z"/>
            </g>
            <g>
              <path class="cls-32" d="m96.99,201.95s8.34,6.96,12.22,5.99c3.87-.97,87.21-65,98.77-75.53,11.56-10.53,11.94-15.57,11.94-15.57,0,0-.67-1.56-7.23-4.98-4.27-2.22-13.95,16.27-21.94,21.37-7.98,5.1-89.07,65.28-93.76,68.72Z"/>
              <path class="cls-38" d="m206.8,130.62c-2.39,4-7.71,7.34-11.22,10.2-7.76,6.33-15.69,12.45-23.63,18.55-16.94,13.03-34.07,25.82-51.25,38.54-3.92,2.91-7.86,5.79-11.78,8.71.41-.3-10.75-4.38-11.94-4.67,0,0,8.5,8.22,11.66,8.46,2.58.18,6.05-4.37,7.86-5.94,9.91-8.59,21.09-15.97,31.59-23.83,14.51-10.86,29.02-21.7,43.54-32.54,3.66-2.74,9.99-7.3,13.17-10.58,6.36-6.56,14.6-18.52,15.37-20.36.77-1.84-9.04,6.2-13.39,13.47Z"/>
            </g>
            <g>
              <path class="cls-32" d="m126.55,220.42s.35,11.68,2.18,11.82c1.83.14,97.39-22.73,113.93-30.69,16.54-7.96,37.95-23.52,37.95-23.52l-14.59-1.71s-24.28,12.89-34.45,17.65c-8.76,4.1-105.03,26.45-105.03,26.45Z"/>
              <path class="cls-38" d="m128.81,223.45s1.73,7.24,3.14,7.34c1.41.11,102.63-26.68,107.6-28.58,4.98-1.9,41.05-24.18,41.05-24.18,0,0-38.11,26.67-44.83,29.01-6.71,2.34-104.28,29.68-106.93,27.21-2.66-2.47-3.09-15.58-1.85-13.21,1.24,2.37,1.81,2.41,1.81,2.41Z"/>
            </g>
            <g>
              <path class="cls-24" d="m137.5,215.63s60.09-12.57,85.78-33.18c25.69-20.61,25.28-21.23,28.99-18.33,3.71,2.9,5.67,6.53-1.99,12.5-7.66,5.98-35.93,26.06-53.42,32.74-17.49,6.68-51.51,12.69-57.5,10.4-5.99-2.29-1.85-4.14-1.85-4.14Z"/>
              <path class="cls-38" d="m136.65,217.79s28.58-.74,38.25-2.5c9.68-1.77,39.11-16.79,50.76-22.81,19.78-10.21,29.71-24.74,29.71-24.74,0,0,.12,6.32-.65,8.96-.77,2.64-46.88,30.12-57.06,34.35-9.62,4-15.51,6.41-14.48,5.92,1.03-.49-40.86,6.17-44.12,3.88-3.26-2.29-2.41-3.05-2.41-3.05Z"/>
            </g>
            <g>
              <path class="cls-31" d="m157.59,229.41s7.22,7.03,10.95,6.6c3.73-.43,87.85-47.56,99.66-55.54,11.81-7.99,12.62-12.37,12.62-12.37,0,0-.49-1.45-6.35-5.16-3.81-2.42-14.58,12.76-22.54,16.37-7.96,3.61-89.62,47.59-94.34,50.11Z"/>
              <path class="cls-38" d="m267.25,178.77c-2.61,3.25-7.91,5.61-11.46,7.73-7.86,4.71-15.87,9.22-23.88,13.71-17.1,9.59-34.36,18.95-51.65,28.25-3.95,2.12-7.91,4.23-11.85,6.36.41-.22-9.72-5.03-10.81-5.42,0,0,7.26,8.16,10.2,8.71,2.41.44,6.08-3.18,7.93-4.36,10.09-6.46,21.27-11.72,31.84-17.48,14.62-7.95,29.24-15.89,43.87-23.82,3.69-2,10.05-5.32,13.33-7.85,6.57-5.07,15.39-14.67,16.28-16.21.89-1.53-9.06,4.45-13.8,10.37Z"/>
            </g>
            <g>
              <path class="cls-31" d="m239.88,143.92s-60.12,12.42-85.85,32.97c-25.74,20.55-25.33,21.17-29.03,18.26-3.71-2.91-5.65-6.54,2.03-12.5,7.68-5.96,36-25.98,53.5-32.61,17.5-6.63,51.54-12.57,57.53-10.26,5.98,2.3,1.84,4.14,1.84,4.14Z"/>
              <path class="cls-38" d="m240.73,141.77s-28.58.67-38.26,2.41c-9.68,1.74-39.15,16.7-50.81,22.68-19.8,10.16-29.77,24.67-29.77,24.67,0,0-.1-6.31.67-8.95.77-2.64,46.95-30,57.14-34.21,9.63-3.97,15.53-6.37,14.5-5.89-1.03.49,40.88-6.07,44.14-3.77,3.26,2.3,2.4,3.06,2.4,3.06Z"/>
            </g>
            <g>
              <path class="cls-27" d="m109.02,211.84s7.28,8.07,11.25,7.65c3.97-.42,95.53-52.02,108.46-60.81,12.93-8.79,14.02-13.72,14.02-13.72,0,0-.44-1.64-6.45-5.95-3.91-2.8-16.11,14.13-24.74,18.05-8.62,3.92-97.41,52.03-102.54,54.78Z"/>
              <path class="cls-38" d="m227.81,156.75c-2.93,3.62-8.67,6.18-12.55,8.51-8.57,5.17-17.29,10.1-26.01,15.02-18.62,10.5-37.38,20.74-56.18,30.91-4.3,2.32-8.6,4.62-12.89,6.96.45-.24-10.02-5.86-11.16-6.31,0,0,7.26,9.34,10.35,10.02,2.53.54,6.61-3.47,8.63-4.77,11.03-7.1,23.14-12.83,34.64-19.12,15.89-8.7,31.8-17.38,47.7-26.06,4.01-2.19,10.92-5.81,14.53-8.61,7.23-5.6,17.07-16.27,18.1-17.98,1.02-1.71-9.82,4.86-15.16,11.44Z"/>
            </g>
            <g>
              <path class="cls-26" d="m113.1,233.46s-1.31,11.61.49,12.01c1.79.39,99.62-8.73,117.13-14.27,17.5-5.54,40.9-17.92,40.9-17.92l-14.2-3.75s-25.86,9.33-36.6,12.6c-9.25,2.82-107.71,11.33-107.71,11.33Z"/>
              <path class="cls-38" d="m114.92,236.78s.69,7.41,2.07,7.71c1.38.3,105.37-11.9,110.56-13.08,5.19-1.18,44.06-18.13,44.06-18.13,0,0-41.5,21.02-48.48,22.38-6.98,1.36-107.42,14.64-109.7,11.81-2.28-2.83-.86-15.86.04-13.34.9,2.52,1.45,2.64,1.45,2.64Z"/>
            </g>
            <g>
              <path class="cls-28" d="m92.73,177.35s61.26-3.95,89.6-20.72c28.34-16.77,28.02-17.44,31.29-14.04,3.27,3.4,4.69,7.26-3.74,12.09-8.43,4.83-39.26,20.72-57.51,24.86-18.25,4.13-52.79,5.28-58.39,2.17-5.61-3.11-1.25-4.36-1.25-4.36Z"/>
              <path class="cls-38" d="m91.59,179.36s28.39,3.31,38.23,2.93c9.83-.38,41.09-11.1,53.47-15.4,21.02-7.31,32.91-20.29,32.91-20.29,0,0-.78,6.27-1.91,8.77-1.13,2.5-50.66,23.19-61.34,25.93-10.09,2.6-16.26,4.15-15.17,3.81,1.09-.34-41.32.33-44.23-2.4-2.91-2.73-1.96-3.36-1.96-3.36Z"/>
            </g>
            <g>
              <g>
                <path class="cls-9" d="m159.4,210.82c.43,1.3,1.81,3.58,2.64,3.74l.84.17h0l.57-1.97-2.28-.8-1.77-1.14Z"/>
                <path class="cls-9" d="m218.96,145.54s1.07,2.04.4,3.21-.7,3.08-.7,3.08l2.34-.84s-.07-4.88-2.04-5.45Z"/>
                <path class="cls-9" d="m211.87,192.02c-1.08-.86-3.47-2.01-4.26-1.69l-.79.32h0l.61,1.96,2.34-.57,2.11-.02Z"/>
                <path class="cls-9" d="m208.39,169.64c-1.23-.62-3.8-1.27-4.52-.8l-.71.47h0l.99,1.8,2.18-1.03,2.06-.44Z"/>
                <path class="cls-9" d="m171.08,222.01c.43,1.3,1.81,3.58,2.65,3.75l.84.17h0l.57-1.98-2.27-.8-1.77-1.14Z"/>
                <path class="cls-9" d="m148.36,180.44s-.55,1.32-.99,2.09c-.44.77.79,2.04.79,2.04l1.54-.55s-.05-3.21-1.34-3.58Z"/>
                <path class="cls-9" d="m197.19,170.05c-.67,1.17-.7,3.08-.7,3.08l2.34-.84s-.97-3.41-1.64-2.24Z"/>
                <path class="cls-9" d="m121.83,151.66c-1.08-.86-3.47-2.01-4.26-1.69l-.79.32h0l.61,1.96,2.35-.57,2.11-.02Z"/>
                <path class="cls-9" d="m136.54,169.58s-1.31-.13-2.21-.53c-.9-.4-2.38.79-2.38.79l.79,1.64s3.54-.42,3.8-1.9Z"/>
                <path class="cls-9" d="m229.05,184.65s-.55,1.32-.99,2.09c-.44.77.79,2.04.79,2.04l1.54-.55s-.05-3.21-1.34-3.58Z"/>
                <path class="cls-9" d="m192.22,202.25s-1.31-.13-2.21-.52c-.9-.4-2.38.79-2.38.79l.79,1.64s3.54-.42,3.8-1.9Z"/>
                <path class="cls-9" d="m197.17,134.1c-.08-1.35-1.1-2.96-1.1-2.96l-1.5,1.98s2.68,2.32,2.6.98Z"/>
                <path class="cls-9" d="m175.06,163.49s-1.61.47-2.35-.19c-.74-.65-2.09-.96-2.09-.96l.25,1.8s3.5.67,4.2-.66Z"/>
                <path class="cls-9" d="m169.14,162.02c-.49.85-.51,2.24-.51,2.24l1.71-.61s-.71-2.49-1.2-1.63Z"/>
                <path class="cls-9" d="m165.26,163.16c.77-.65,1.94-2.18,1.83-2.8l-.11-.61h0l-1.49.14.06,1.76-.3,1.51Z"/>
                <path class="cls-9" d="m191.29,166.06c-.06-.98-.8-2.16-.8-2.16l-1.09,1.45s1.95,1.7,1.9.71Z"/>
                <path class="cls-9" d="m160.93,163.02c-.06-.98-.8-2.16-.8-2.16l-1.1,1.45s1.95,1.7,1.9.71Z"/>
                <path class="cls-9" d="m254.1,189.77c-.06-.98-.8-2.16-.8-2.16l-1.1,1.45s1.96,1.7,1.9.71Z"/>
                <path class="cls-9" d="m158.21,191.61c-.06-.98-.8-2.16-.8-2.16l-1.1,1.45s1.96,1.7,1.9.71Z"/>
                <path class="cls-9" d="m153.56,164.56c-.9-.45-2.78-.92-3.29-.58l-.52.34h0l.72,1.31,1.59-.75,1.5-.32Z"/>
                <path class="cls-9" d="m240.2,175.53c-.74-.65-2.1-.95-2.1-.95l.25,1.8s2.58-.19,1.84-.84Z"/>
                <path class="cls-9" d="m229.4,177.8c-.79-.62-2.53-1.46-3.11-1.23l-.58.23h0l.44,1.43,1.71-.42h1.54Z"/>
                <path class="cls-9" d="m160.84,166.17c.97.14,2.28-.35,2.28-.35l-1.19-1.37s-2.06,1.57-1.08,1.71Z"/>
                <path class="cls-9" d="m159.73,155.81c.97.14,2.27-.35,2.27-.35l-1.19-1.37s-2.06,1.57-1.08,1.71Z"/>
                <path class="cls-9" d="m267.83,196.62c.97.14,2.27-.35,2.27-.35l-1.19-1.36s-2.06,1.57-1.08,1.71Z"/>
              </g>
              <g>
                <path class="cls-9" d="m108.56,168.99c.43,1.3,1.81,3.58,2.64,3.74l.83.17h0l.57-1.97-2.27-.8-1.77-1.14Z"/>
                <path class="cls-9" d="m165.02,158.27s1.07,2.04.4,3.21c-.67,1.17-.7,3.08-.7,3.08l2.34-.84s-.07-4.88-2.04-5.45Z"/>
                <path class="cls-9" d="m190.84,165.48c-1.08-.86-3.47-2.01-4.26-1.69l-.79.32h0l.61,1.96,2.34-.57,2.11-.02Z"/>
                <path class="cls-9" d="m130.27,213.65c-1.08-.86-3.47-2.01-4.26-1.69l-.79.32h0l.61,1.96,2.34-.57,2.11-.02Z"/>
                <path class="cls-9" d="m133.51,142.03c-1.23-.62-3.8-1.27-4.52-.8l-.71.47h0l.99,1.8,2.18-1.03,2.06-.44Z"/>
                <path class="cls-9" d="m176.77,161.64c.43,1.3,1.81,3.58,2.64,3.75l.84.17h0l.57-1.98-2.28-.8-1.77-1.14Z"/>
                <path class="cls-9" d="m234.21,145.46s-.55,1.32-.99,2.09c-.44.77.79,2.04.79,2.04l1.54-.55s-.05-3.2-1.34-3.58Z"/>
                <path class="cls-9" d="m163.99,130.39c-.67,1.17-.7,3.08-.7,3.08l2.34-.84s-.97-3.41-1.64-2.24Z"/>
                <path class="cls-9" d="m164.6,159.94c-1.08-.85-3.47-2.01-4.26-1.69l-.79.32h0l.61,1.96,2.35-.57,2.11-.02Z"/>
                <path class="cls-9" d="m200.22,154.3s-1.31-.13-2.21-.52c-.9-.4-2.38.78-2.38.78l.78,1.64s3.54-.42,3.8-1.9Z"/>
                <path class="cls-9" d="m175.37,164.01c-.08-1.35-1.1-2.96-1.1-2.96l-1.5,1.98s2.68,2.32,2.6.98Z"/>
                <path class="cls-9" d="m166.73,167.65s-1.61.47-2.35-.19c-.74-.65-2.09-.95-2.09-.95l.25,1.8s3.5.67,4.19-.66Z"/>
                <path class="cls-9" d="m160.81,166.18c-.49.85-.51,2.24-.51,2.24l1.71-.61s-.71-2.49-1.19-1.63Z"/>
                <path class="cls-9" d="m156.93,167.32c.77-.65,1.94-2.18,1.83-2.8l-.11-.61h0l-1.49.14.06,1.76-.3,1.51Z"/>
                <path class="cls-9" d="m264.43,173.55c.77-.65,1.94-2.18,1.83-2.8l-.11-.61h0l-1.49.14.06,1.76-.3,1.51Z"/>
                <path class="cls-9" d="m182.96,170.23c-.06-.98-.8-2.16-.8-2.16l-1.09,1.45s1.95,1.7,1.9.71Z"/>
                <path class="cls-9" d="m114.96,198.58c-.06-.98-.8-2.16-.8-2.16l-1.09,1.45s1.95,1.7,1.89.71Z"/>
                <path class="cls-9" d="m152.6,167.19c-.06-.98-.8-2.16-.8-2.16l-1.1,1.45s1.96,1.7,1.9.71Z"/>
                <path class="cls-9" d="m167,226.26c-.06-.98-.8-2.16-.8-2.16l-1.1,1.45s1.95,1.7,1.9.71Z"/>
                <path class="cls-9" d="m190.83,167.78c-.06-.98-.8-2.16-.8-2.16l-1.1,1.45s1.95,1.7,1.9.71Z"/>
                <path class="cls-9" d="m244.06,180.14c-.9-.45-2.78-.92-3.29-.58l-.52.34h0l.72,1.31,1.59-.75,1.5-.32Z"/>
                <path class="cls-9" d="m139.11,187.81c-.74-.65-2.09-.95-2.09-.95l.25,1.8s2.58-.19,1.84-.84Z"/>
                <path class="cls-9" d="m137.81,190.52c-.74-.65-2.09-.95-2.09-.95l.25,1.8s2.58-.19,1.84-.84Z"/>
                <path class="cls-9" d="m252.28,163.08c-.74-.65-2.09-.95-2.09-.95l.25,1.8s2.58-.19,1.84-.84Z"/>
                <path class="cls-9" d="m155.47,145.5c-.79-.62-2.53-1.46-3.11-1.23l-.58.23h0l.44,1.43,1.71-.42h1.54Z"/>
                <path class="cls-9" d="m152.51,170.34c.97.14,2.28-.35,2.28-.35l-1.19-1.36s-2.06,1.57-1.08,1.71Z"/>
                <path class="cls-9" d="m151.4,159.97c.97.14,2.27-.35,2.27-.35l-1.19-1.37s-2.06,1.57-1.08,1.71Z"/>
                <path class="cls-9" d="m82.51,160.13c.97.14,2.27-.35,2.27-.35l-1.19-1.37s-2.06,1.57-1.08,1.71Z"/>
              </g>
              <g>
                <path class="cls-9" d="m166.48,180.42c.43,1.3,1.81,3.58,2.64,3.74l.84.17h0l.57-1.97-2.27-.8-1.77-1.14Z"/>
                <path class="cls-9" d="m229.43,199.29c.43,1.3,1.81,3.58,2.64,3.74l.84.17h0l.57-1.97-2.28-.8-1.77-1.14Z"/>
                <path class="cls-9" d="m116.6,204.81s1.07,2.04.4,3.21c-.67,1.17-.7,3.08-.7,3.08l2.34-.84s-.07-4.88-2.04-5.45Z"/>
                <path class="cls-9" d="m172.29,128.27c-1.08-.86-3.47-2.01-4.26-1.69l-.79.32h0l.61,1.96,2.34-.57,2.11-.02Z"/>
                <path class="cls-9" d="m111.72,176.44c-1.08-.86-3.47-2.01-4.26-1.69l-.79.32h0l.61,1.96,2.34-.57,2.11-.02Z"/>
                <path class="cls-9" d="m85.49,180.84c-1.23-.62-3.8-1.27-4.52-.8l-.71.47h0l.99,1.8,2.18-1.03,2.06-.44Z"/>
                <path class="cls-9" d="m158.22,124.44c.43,1.3,1.81,3.58,2.64,3.75l.83.17h0l.57-1.98-2.28-.8-1.77-1.14Z"/>
                <path class="cls-9" d="m259.72,158.46s-.55,1.32-.99,2.09c-.44.77.79,2.04.79,2.04l1.54-.55s-.05-3.2-1.34-3.58Z"/>
                <path class="cls-9" d="m99.52,192.4s-.55,1.32-.99,2.09c-.44.77.79,2.04.79,2.04l1.54-.55s-.05-3.21-1.34-3.58Z"/>
                <path class="cls-9" d="m165.78,200.65c-.67,1.17-.7,3.08-.7,3.08l2.34-.84s-.97-3.41-1.64-2.24Z"/>
                <path class="cls-9" d="m116.19,206.49c-1.08-.86-3.47-2.01-4.26-1.69l-.79.32h0l.61,1.96,2.34-.57,2.11-.02Z"/>
                <path class="cls-9" d="m181.66,117.09s-1.31-.13-2.21-.52c-.9-.4-2.38.79-2.38.79l.78,1.64s3.54-.42,3.8-1.9Z"/>
                <path class="cls-9" d="m156.82,126.81c-.08-1.35-1.1-2.96-1.1-2.96l-1.5,1.98s2.68,2.32,2.6.98Z"/>
                <path class="cls-9" d="m148.17,130.45s-1.61.47-2.35-.19c-.74-.65-2.09-.95-2.09-.95l.25,1.8s3.5.67,4.19-.66Z"/>
                <path class="cls-9" d="m145.27,153.12s-1.61.47-2.35-.19c-.74-.65-2.09-.95-2.09-.95l.25,1.8s3.5.67,4.19-.66Z"/>
                <path class="cls-9" d="m142.25,128.98c-.49.85-.51,2.24-.51,2.24l1.71-.61s-.71-2.49-1.19-1.63Z"/>
                <path class="cls-9" d="m138.37,130.12c.77-.65,1.94-2.18,1.83-2.8l-.11-.61h0l-1.49.14.06,1.76-.3,1.51Z"/>
                <path class="cls-9" d="m164.41,133.03c-.06-.98-.8-2.16-.8-2.16l-1.09,1.45s1.95,1.7,1.9.71Z"/>
                <path class="cls-9" d="m134.04,129.99c-.06-.98-.8-2.16-.8-2.16l-1.1,1.45s1.96,1.7,1.9.71Z"/>
                <path class="cls-9" d="m148.44,189.05c-.06-.98-.8-2.16-.8-2.16l-1.1,1.45s1.95,1.7,1.9.71Z"/>
                <path class="cls-9" d="m172.28,130.58c-.06-.98-.8-2.16-.8-2.16l-1.1,1.45s1.95,1.7,1.9.71Z"/>
                <path class="cls-9" d="m225.5,142.94c-.9-.45-2.78-.92-3.29-.58l-.52.34h0l.72,1.31,1.59-.75,1.5-.32Z"/>
                <path class="cls-9" d="m120.56,150.61c-.74-.65-2.09-.95-2.09-.95l.25,1.8s2.58-.19,1.84-.84Z"/>
                <path class="cls-9" d="m119.25,153.31c-.74-.65-2.09-.95-2.09-.95l.25,1.8s2.58-.19,1.84-.84Z"/>
                <path class="cls-9" d="m107.45,184.32c-.79-.62-2.53-1.46-3.11-1.23l-.58.23h0l.44,1.43,1.71-.42h1.54Z"/>
                <path class="cls-9" d="m133.96,133.14c.97.14,2.28-.35,2.28-.35l-1.19-1.36s-2.06,1.57-1.08,1.71Z"/>
                <path class="cls-9" d="m102.98,206.52c.97.14,2.27-.35,2.27-.35l-1.19-1.37s-2.06,1.57-1.08,1.71Z"/>
              </g>
              <g>
                <path class="cls-9" d="m239.82,213.74c-.82-1.1-2.83-2.84-3.68-2.73l-.85.1h0l.08,2.05,2.41.05,2.04.52Z"/>
                <path class="cls-9" d="m205.23,204.31s-1.66-1.6-1.39-2.93c.27-1.32-.29-3.14-.29-3.14l-1.96,1.53s1.59,4.62,3.64,4.54Z"/>
                <path class="cls-9" d="m178.44,205.54c1.29.48,3.92.82,4.58.27l.65-.55h0l-1.19-1.68-2.04,1.28-2,.67Z"/>
                <path class="cls-9" d="m220.92,140.85c1.29.48,3.92.82,4.58.27l.65-.55h0l-1.19-1.68-2.04,1.28-2,.67Z"/>
                <path class="cls-9" d="m240.24,209.9c1.36.2,4.01.01,4.54-.66l.53-.67h0l-1.5-1.4-1.75,1.66-1.82,1.07Z"/>
                <path class="cls-9" d="m193.01,204.78c-.82-1.1-2.83-2.84-3.68-2.73l-.85.1h0l.08,2.05,2.41.05,2.04.53Z"/>
                <path class="cls-9" d="m163.18,227.23s.11-1.42.29-2.29c.18-.87-1.39-1.69-1.39-1.69l-1.29,1s1.05,3.03,2.39,2.98Z"/>
                <path class="cls-9" d="m216.43,222.84c.27-1.32-.29-3.15-.29-3.15l-1.96,1.53s1.99,2.94,2.26,1.62Z"/>
                <path class="cls-9" d="m205.11,202.59c1.29.47,3.93.82,4.58.27l.65-.55h0l-1.19-1.68-2.05,1.28-1.99.68Z"/>
                <path class="cls-9" d="m173.04,219.09s1.28-.29,2.26-.19c.98.1,2.01-1.49,2.01-1.49l-1.26-1.31s-3.23,1.51-3.02,2.99Z"/>
                <path class="cls-9" d="m162.88,250.5s1.28-.29,2.26-.19c.98.1,2.01-1.49,2.01-1.49l-1.26-1.31s-3.23,1.51-3.02,2.99Z"/>
                <path class="cls-9" d="m193.6,202.1c.5,1.25,1.97,2.47,1.97,2.47l.81-2.35s-3.27-1.37-2.78-.12Z"/>
                <path class="cls-9" d="m200.67,195.93s1.39-.95,2.29-.56c.9.39,2.29.25,2.29.25l-.8-1.63s-3.53.46-3.78,1.93Z"/>
                <path class="cls-9" d="m206.75,195.48c.2-.96-.21-2.29-.21-2.29l-1.43,1.11s1.45,2.14,1.65,1.18Z"/>
                <path class="cls-9" d="m210.08,193.19c-.53.85-1.16,2.68-.87,3.23l.3.55h0l1.37-.6-.61-1.65-.19-1.53Z"/>
                <path class="cls-9" d="m184.45,198.57c.36.91,1.44,1.8,1.44,1.8l.59-1.72s-2.39-1-2.02-.09Z"/>
                <path class="cls-9" d="m214.24,191.96c.37.91,1.44,1.8,1.44,1.8l.59-1.72s-2.39-1-2.03-.09Z"/>
                <path class="cls-9" d="m182.1,140.36c.37.91,1.44,1.8,1.44,1.8l.59-1.72s-2.39-1-2.03-.09Z"/>
                <path class="cls-9" d="m177.73,203.35c.37.91,1.43,1.8,1.43,1.8l.59-1.72s-2.39-1-2.03-.09Z"/>
                <path class="cls-9" d="m131.27,212.66c.99.15,2.93.01,3.31-.48l.39-.49h0l-1.1-1.02-1.27,1.21-1.33.78Z"/>
                <path class="cls-9" d="m216.65,176.96c.9.38,2.29.25,2.29.25l-.8-1.63s-2.39.99-1.49,1.38Z"/>
                <path class="cls-9" d="m221.68,171.94c.9.38,2.29.25,2.29.25l-.8-1.63s-2.39.99-1.49,1.38Z"/>
                <path class="cls-9" d="m218.29,213.46c.94.35,2.86.6,3.34.2l.48-.4h0l-.87-1.22-1.49.93-1.45.49Z"/>
                <path class="cls-9" d="m213.34,188.94c-.97.17-2.06,1.04-2.06,1.04l1.56.92s1.46-2.14.49-1.96Z"/>
                <path class="cls-9" d="m217.64,198.44c-.97.17-2.05,1.04-2.05,1.04l1.56.93s1.46-2.13.49-1.96Z"/>
              </g>
              <g>
                <path class="cls-9" d="m192.03,173.46c.31-.95.5-2.88.08-3.34l-.42-.46h0l-1.19.91.98,1.46.54,1.44Z"/>
                <path class="cls-9" d="m245.28,221.94s-.62-1.32-.76-2.4c-.14-1.08-2.11-1.82-2.11-1.82l-1.11,1.68s2.42,3.13,3.98,2.54Z"/>
                <path class="cls-9" d="m182.8,167.25c-.14-1.08-1.05-2.33-1.05-2.33l-1.11,1.68s2.29,1.74,2.15.66Z"/>
                <path class="cls-9" d="m188.53,171.07c-.92-.39-2.83-.74-3.32-.36l-.49.38h0l.8,1.26,1.54-.86,1.48-.42Z"/>
                <path class="cls-9" d="m245.37,177.85c-.92-.39-2.83-.74-3.32-.36l-.49.38h0l.8,1.26,1.54-.86,1.48-.42Z"/>
                <path class="cls-9" d="m178.9,168.24s-.96-.03-1.63-.28c-.67-.25-1.69.68-1.69.68l.65,1.15s2.55-.47,2.67-1.56Z"/>
                <path class="cls-9" d="m190.74,166.42c-.8.15-2.24.77-2.41,1.24l-.16.48h0l1.11.49.66-1.27.81-.95Z"/>
                <path class="cls-9" d="m143.25,170.05s-.41-.87-.5-1.58c-.09-.71-1.38-1.19-1.38-1.19l-.73,1.1s1.59,2.05,2.61,1.67Z"/>
                <path class="cls-9" d="m235.13,175.07c-.09-.71-.69-1.53-.69-1.53l-.73,1.1s1.5,1.14,1.41.43Z"/>
                <path class="cls-9" d="m94.87,138.19c-.09-.71-.69-1.53-.69-1.53l-.73,1.1s1.5,1.14,1.41.43Z"/>
                <path class="cls-9" d="m234.63,206.49c-.1-.79-.76-1.7-.76-1.7l-.81,1.23s1.67,1.27,1.57.48Z"/>
                <path class="cls-9" d="m111.46,209.2c-.1-.79-.76-1.7-.76-1.7l-.81,1.23s1.67,1.27,1.57.48Z"/>
                <path class="cls-9" d="m145.38,163.69c-.1-.79-.76-1.7-.76-1.7l-.81,1.23s1.67,1.27,1.57.48Z"/>
                <path class="cls-9" d="m260.77,213.87c-.1-.79-.76-1.7-.76-1.7l-.81,1.23s1.67,1.27,1.57.48Z"/>
                <path class="cls-9" d="m153.61,235.13c-.1-.79-.76-1.7-.76-1.7l-.81,1.23s1.67,1.27,1.57.48Z"/>
                <path class="cls-9" d="m176.03,171.39c-.1-.79-.76-1.7-.76-1.7l-.81,1.23s1.67,1.27,1.57.48Z"/>
                <path class="cls-9" d="m224.47,206.94s-.96-.03-1.63-.28c-.67-.25-1.69.68-1.69.68l.65,1.15s2.55-.47,2.67-1.56Z"/>
                <path class="cls-9" d="m148.36,187.26c-.09-.71-.69-1.53-.69-1.53l-.73,1.1s1.5,1.14,1.41.43Z"/>
                <path class="cls-9" d="m145.02,187.48c-.1-.79-.76-1.7-.76-1.7l-.81,1.23s1.67,1.27,1.57.48Z"/>
                <path class="cls-9" d="m269.4,187.32c-.09-.71-.69-1.53-.69-1.53l-.73,1.1s1.5,1.14,1.41.43Z"/>
                <path class="cls-9" d="m183.17,227.74c-.1-.79-.76-1.7-.76-1.7l-.81,1.23s1.67,1.27,1.57.48Z"/>
                <path class="cls-9" d="m178.06,202.66c-.1-.79-.76-1.7-.76-1.7l-.81,1.23s1.67,1.27,1.57.48Z"/>
                <path class="cls-9" d="m238.94,203.53c-.1-.79-.76-1.7-.76-1.7l-.81,1.23s1.67,1.27,1.57.48Z"/>
                <path class="cls-9" d="m101.02,139.81c-.44-.88-1.59-1.67-1.59-1.67l-.43,1.76s2.46.78,2.02-.1Z"/>
                <path class="cls-9" d="m105.15,148.3c-.1-.79-.76-1.7-.76-1.7l-.81,1.23s1.67,1.27,1.57.48Z"/>
                <path class="cls-9" d="m170.63,142.03s-.27.8-.5,1.27c-.23.47.55,1.17.55,1.17l.88-.38s-.15-1.88-.93-2.06Z"/>
                <path class="cls-9" d="m183.8,170.19c-.63-.49-1.74-.66-1.74-.66l.3,1.44s2.07-.29,1.44-.78Z"/>
                <path class="cls-9" d="m107.83,166.43c-.63-.49-1.74-.66-1.74-.66l.3,1.44s2.08-.29,1.45-.78Z"/>
                <path class="cls-9" d="m184.79,137.49s-.96-.03-1.63-.28c-.67-.25-1.69.68-1.69.68l.65,1.15s2.55-.47,2.67-1.56Z"/>
                <path class="cls-9" d="m185.26,140.42c-.09-.71-.69-1.53-.69-1.53l-.73,1.1s1.5,1.14,1.41.43Z"/>
                <path class="cls-9" d="m181.91,140.64c-.1-.79-.76-1.7-.76-1.7l-.81,1.23s1.67,1.27,1.57.48Z"/>
                <path class="cls-9" d="m186.86,140.55c-.63-.49-1.74-.66-1.74-.66l.3,1.44s2.08-.29,1.45-.78Z"/>
                <path class="cls-9" d="m238.57,197.29c-.1-.79-.76-1.7-.76-1.7l-.81,1.23s1.67,1.27,1.57.48Z"/>
                <path class="cls-9" d="m243.51,197.2c-.63-.49-1.74-.66-1.74-.66l.3,1.44s2.08-.29,1.44-.78Z"/>
                <path class="cls-9" d="m163.06,141.15c-.63-.49-1.74-.66-1.74-.66l.3,1.44s2.08-.29,1.45-.78Z"/>
                <path class="cls-9" d="m240.52,157.14c-.63-.49-1.74-.66-1.74-.66l.3,1.44s2.08-.29,1.45-.78Z"/>
                <path class="cls-9" d="m222.7,171.35c-.29-1.2-1.35-3.35-2.09-3.56l-.74-.21h0l-.66,1.72,1.98.89,1.5,1.15Z"/>
                <path class="cls-9" d="m185.5,164.61s.18-.75.49-1.25c.31-.49-.27-1.45-.27-1.45l-1.02.33s-.04,2.1.8,2.38Z"/>
                <path class="cls-9" d="m246.17,169.95s.18-.75.49-1.25c.31-.49-.27-1.45-.27-1.45l-1.02.33s-.04,2.1.8,2.38Z"/>
                <path class="cls-9" d="m181.19,187.69s.18-.75.49-1.25c.31-.49-.27-1.45-.27-1.45l-1.02.32s-.04,2.1.8,2.38Z"/>
                <path class="cls-9" d="m120.36,158.3s.18-.75.49-1.25c.31-.5-.27-1.45-.27-1.45l-1.02.32s-.04,2.1.8,2.38Z"/>
              </g>
              <g>
                <path class="cls-9" d="m166.91,183.05c-.74-.68-2.42-1.65-3.01-1.46l-.59.19h0l.34,1.46,1.73-.29,1.53.1Z"/>
                <path class="cls-9" d="m233.05,154.55s-1.46.02-2.5-.3c-1.04-.32-2.52,1.17-2.52,1.17l1.07,1.71s3.85-.91,3.95-2.58Z"/>
                <path class="cls-9" d="m157.44,188.89c-1.04-.32-2.56-.01-2.56-.01l1.07,1.7s2.53-1.37,1.49-1.69Z"/>
                <path class="cls-9" d="m163.29,185.25c-.74.68-1.84,2.27-1.7,2.88l.14.6h0l1.48-.21-.15-1.75.23-1.52Z"/>
                <path class="cls-9" d="m192.92,136.28c-.74.68-1.84,2.27-1.7,2.88l.14.6h0l1.48-.21-.15-1.75.23-1.52Z"/>
                <path class="cls-9" d="m156.74,192.85s-.42.86-.92,1.37c-.5.51-.08,1.82-.08,1.82l1.32-.12s.62-2.52-.32-3.08Z"/>
                <path class="cls-9" d="m159.96,181.32c-.19.79-.23,2.36.14,2.71l.37.34h0l.91-.8-.88-1.12-.53-1.13Z"/>
                <path class="cls-9" d="m141.62,198.58c-.19.79-.23,2.36.14,2.71l.37.34h0l.91-.8-.88-1.12-.53-1.13Z"/>
                <path class="cls-9" d="m143.67,226.08s-.96.02-1.64-.2c-.68-.22-1.65.77-1.65.77l.7,1.12s2.53-.6,2.6-1.69Z"/>
                <path class="cls-9" d="m186.16,144.45c-.69-.21-1.68,0-1.68,0l.7,1.12s1.66-.9.97-1.11Z"/>
                <path class="cls-9" d="m82.93,195.06c-.68-.21-1.68,0-1.68,0l.71,1.12s1.66-.9.97-1.11Z"/>
                <path class="cls-9" d="m129.58,164.18c-.68-.21-1.68,0-1.68,0l.7,1.12s1.66-.9.97-1.11Z"/>
                <path class="cls-9" d="m214.58,157.88c-.76-.24-1.87,0-1.87,0l.78,1.24s1.84-1,1.08-1.23Z"/>
                <path class="cls-9" d="m258.72,214.27c-.76-.24-1.87,0-1.87,0l.78,1.24s1.84-1,1.08-1.23Z"/>
                <path class="cls-9" d="m138.76,221.51c-.76-.24-1.87,0-1.87,0l.78,1.24s1.84-1,1.08-1.23Z"/>
                <path class="cls-9" d="m255.21,155.92c-.76-.24-1.87,0-1.87,0l.78,1.24s1.84-1,1.08-1.23Z"/>
                <path class="cls-9" d="m207.23,243.5c-.76-.24-1.87,0-1.87,0l.78,1.24s1.84-1,1.08-1.23Z"/>
                <path class="cls-9" d="m158.42,196.77c-.76-.23-1.87-.01-1.87-.01l.78,1.25s1.84-1,1.08-1.23Z"/>
                <path class="cls-9" d="m210.79,167.32s-.42.86-.92,1.37c-.5.51-.08,1.82-.08,1.82l1.32-.12s.62-2.52-.32-3.08Z"/>
                <path class="cls-9" d="m161.46,228.51c-.68-.21-1.68,0-1.68,0l.7,1.12s1.66-.9.97-1.11Z"/>
                <path class="cls-9" d="m160.28,231.65c-.76-.23-1.87-.01-1.87-.01l.78,1.25s1.84-1,1.08-1.24Z"/>
                <path class="cls-9" d="m211.46,118.29c-.68-.21-1.68,0-1.68,0l.7,1.12s1.66-.9.97-1.11Z"/>
                <path class="cls-9" d="m212.7,213.52c-.76-.23-1.87-.01-1.87-.01l.78,1.25s1.84-1,1.08-1.24Z"/>
                <path class="cls-9" d="m187.74,207.82c-.76-.23-1.87-.01-1.87-.01l.78,1.25s1.84-1,1.08-1.24Z"/>
                <path class="cls-9" d="m213.66,152.73c-.76-.23-1.87-.01-1.87-.01l.78,1.25s1.84-1,1.08-1.24Z"/>
                <path class="cls-9" d="m82.81,219.17c-.98.04-2.17.76-2.17.76l1.42,1.12s1.73-1.92.75-1.88Z"/>
                <path class="cls-9" d="m92.25,218.91c-.76-.23-1.87-.01-1.87-.01l.78,1.25s1.84-1,1.08-1.23Z"/>
                <path class="cls-9" d="m129.45,189.57s.61.58.95.98c.33.4,1.29-.01,1.29-.01v-.96s-1.76-.64-2.24,0Z"/>
                <path class="cls-9" d="m160.54,189.19c-.7.37-1.32,1.31-1.32,1.31l1.43.32s.59-2.01-.11-1.64Z"/>
                <path class="cls-9" d="m152.59,240.92c-.7.37-1.32,1.32-1.32,1.32l1.43.32s.59-2.01-.11-1.64Z"/>
                <path class="cls-9" d="m131.16,174.8s-.42.86-.92,1.37c-.5.51-.08,1.82-.08,1.82l1.32-.12s.62-2.52-.32-3.08Z"/>
                <path class="cls-9" d="m134.01,175.58c-.69-.21-1.68,0-1.68,0l.71,1.12s1.66-.9.97-1.11Z"/>
                <path class="cls-9" d="m132.84,178.72c-.76-.23-1.87-.01-1.87-.01l.78,1.25s1.84-1,1.08-1.24Z"/>
                <path class="cls-9" d="m134.8,174.18c-.7.37-1.32,1.32-1.32,1.32l1.43.32s.59-2.01-.11-1.64Z"/>
                <path class="cls-9" d="m125.52,196.1c-.7.37-1.32,1.32-1.32,1.32l1.43.32s.59-2.01-.11-1.64Z"/>
                <path class="cls-9" d="m172.05,132.15c-.7.37-1.32,1.31-1.32,1.31l1.43.32s.59-2.01-.11-1.64Z"/>
                <path class="cls-9" d="m177.65,154.24c-1.22-.23-3.61-.15-4.11.43l-.5.59h0l1.3,1.31,1.63-1.43,1.67-.89Z"/>
                <path class="cls-9" d="m156.15,185.35s-.61-.48-.94-.96c-.32-.48-1.44-.36-1.44-.36l-.12,1.06s1.9.9,2.5.25Z"/>
                <path class="cls-9" d="m175.4,198.8s-.61-.48-.94-.96c-.33-.48-1.44-.36-1.44-.36l-.12,1.06s1.9.91,2.5.25Z"/>
                <path class="cls-9" d="m150.63,229.99s-.61-.48-.94-.96c-.32-.48-1.43-.36-1.43-.36l-.12,1.06s1.9.91,2.49.25Z"/>
              </g>
            </g>
            <g>
              <path class="cls-11" d="m390.91,228.27c0-28.07-46.72-45.1-104.35-45.1s-104.35,17.03-104.35,45.1,27.36,60.13,104.35,60.13,104.35-32.06,104.35-60.13Z"/>
              <g>
                <g>
                  <path class="cls-44" d="m271.96,248.54c-2.35,2.93-7.35.6-9.8,3.55-1.84,2.22-3.56,3.08-6.92,4.33-4.76,1.77-4.82-1.69-9.91-2.2-.93,1.49-1.06,2.29-3.79,2.47-1.57.1-10.07-3.93-12.24-4.83-7.96,1.32-8.01,2.02-18.83-.61-5.11-1.24-3.91-5.11-7.8-6.79-1.87.15-10.76,1.78-15.6-.29,0,0-3.37-1.59-6.53-3.5-.55-.13-1.1-.27-1.68-.4-15.2-3.45,3.79-1.47-5.08-9.92-8.87-8.45-5.74,1.86-11.31-7.51-5.57-9.37-5.48-15.37,3.31-17.81,8.79-2.44.03-7.41,5.59-10,5.56-2.58,5.43.44,11.23-1.69,3.83-1.41,8.66-2.04,13.78-2.53,1.68-.16,3.32-.41,5.03-.6,2.88-.33,5.96-.5,9.73.12,4.35.73,23.14-1.81,27.47.07,12.51,5.42,8.46,5.94,20.32,11.94,5.15,2.61,6.24,6.78,7.03,10.42.77,3.53,3.26,7.04,3.93,10.29.38,1.82-.94,3.45-.63,5.29.38,2.31,2.66,4.43,2.9,6.77.18,1.78.7,12.32-.18,13.42Z"/>
                  <g class="cls-46">
                    <path class="cls-35" d="m246,194.65s-32.79,22.15-40.41,33.39l-7.62,11.25s21.68-21.77,38.31-28.59c16.63-6.82,9.72-16.05,9.72-16.05Z"/>
                    <path class="cls-35" d="m237.68,208.38s-26.26,2.05-33.18,3.93c-6.92,1.88-20.29,5.09-20.29,5.09,0,0,35.82-6.88,43.96-6.16,8.15.72,9.5-2.85,9.5-2.85Z"/>
                    <path class="cls-35" d="m244.16,200.09s-24.82.49-34.32,1.22c-9.49.72-22.78,3.11-22.78,3.11,0,0,41.2-3.07,50.83-.55,9.63,2.52,6.26-3.77,6.26-3.77Z"/>
                    <path class="cls-35" d="m230.06,208.57s7.56,16.73,7.69,21.67c.14,4.94.97,14.31.97,14.31,0,0-4.63-24.44-8.86-29.09-4.24-4.65.2-6.89.2-6.89Z"/>
                    <path class="cls-35" d="m244.72,197.73s9.15,15.24,11.91,21.28c2.76,6.04,4.71,15.04,4.71,15.04,0,0-12.06-26.19-19.39-31.03-7.33-4.84,2.77-5.29,2.77-5.29Z"/>
                    <path class="cls-4" d="m168.65,199.54c7.33,1.62,13.9-2.28,16.21.8,2.3,3.08-2.92,6.53-9.2,7.44-6.28.91-12.1.47-14.82,5-2.73,4.53-4.59,13.6.5,14.77,5.09,1.17,4.73,1.54,14.16-1.65,9.43-3.18,10.78-3.64,12.56-1.83,1.78,1.81,2.04,2.44-2.82,5.53-4.86,3.09-5.42,5.44-9.46,6.81-4.04,1.36-9.14.19-5.22,3.45,3.91,3.26,20.88,9.58,24.66,7.58,3.78-2,9.13-10.07,10.81-7.26,1.68,2.81.69,9.21,4.44,11.06,13.05,6.41,11.37-4.36,14.23-5.55,8.87-3.7,6.01,3.68,9.24,8.69,6.92,10.74,9.86.28,13.67-6.54,3.9-6.98,17.15-5.55,20.48,3.69,3.33,9.24-3.45,5.26-10.74,9.89-7.29,4.63-35.24-5.94-49.47-6.92-14.23-.98-61.45-20.96-54.46-42.35,6.99-21.39,15.24-12.61,15.24-12.61Z"/>
                  </g>
                </g>
                <g>
                  <path class="cls-44" d="m415.23,218.18c-.34,3.75-5.79,4.57-6.2,8.37-.31,2.87-1.27,4.53-3.37,7.44-2.98,4.11-4.95,1.26-9.47,3.65.05,1.76.38,2.5-1.8,4.15-1.25.95-10.56,2.3-12.87,2.75-5.91,5.5-5.56,6.11-16.03,9.91-4.95,1.79-6.08-2.1-10.25-1.35-1.47,1.16-7.98,7.43-13.16,8.39,0,0-3.69.54-7.38.69-.53.19-1.07.39-1.62.6-14.57,5.53,2.35-3.32-9.72-5.45-12.06-2.14-3.75,4.72-13.58,0-9.83-4.72-13.07-9.78-7.09-16.67,5.97-6.89-4.08-6.19-.87-11.42,3.21-5.23,4.77-2.63,8.43-7.62,2.41-3.29,6.09-6.49,10.08-9.73,1.31-1.07,2.54-2.18,3.86-3.28,2.22-1.87,4.69-3.72,8.18-5.28,4.03-1.8,18.28-14.3,22.92-15.13,13.42-2.4,10.34.27,23.54-1.29,5.74-.68,8.95,2.19,11.62,4.79,2.59,2.52,6.61,4.07,8.96,6.4,1.32,1.31,1.13,3.39,2.4,4.76,1.6,1.71,4.67,2.22,6.16,4.04,1.13,1.39,7.4,9.87,7.27,11.28Z"/>
                  <g class="cls-52">
                    <path class="cls-35" d="m363.79,187.64s-15.07,36.59-15.2,50.17l-.13,13.58s6.02-30.13,16.11-45.01c10.08-14.87-.78-18.75-.78-18.75Z"/>
                    <path class="cls-35" d="m364.45,203.68s-20.74,16.23-25.47,21.62c-4.73,5.39-14.08,15.46-14.08,15.46,0,0,26.03-25.54,33.22-29.45,7.19-3.91,6.34-7.63,6.34-7.63Z"/>
                    <path class="cls-35" d="m365.27,193.19s-20.41,14.14-27.92,19.99c-7.51,5.85-17.26,15.18-17.26,15.18,0,0,32.62-25.34,42.05-28.57,9.42-3.23,3.13-6.61,3.13-6.61Z"/>
                    <path class="cls-35" d="m358.21,208.05s15.55,9.76,18.39,13.8c2.85,4.04,8.72,11.39,8.72,11.39,0,0-17.37-17.8-23.47-19.34-6.1-1.54-3.64-5.85-3.64-5.85Z"/>
                    <path class="cls-35" d="m364.43,190.92s16.05,7.64,21.69,11.14c5.64,3.51,12.24,9.93,12.24,9.93,0,0-24.53-15.15-33.31-15.13-8.78.02-.62-5.94-.62-5.94Z"/>
                    <path class="cls-4" d="m302.06,234.49c7.01-2.7,10.32-9.59,13.94-8.3,3.62,1.29,1.18,7.05-3.55,11.29-4.72,4.23-9.82,7.08-9.58,12.36.24,5.29,3.69,13.87,8.59,12.03,4.89-1.84,4.79-1.34,10.89-9.21,6.1-7.87,6.97-8.99,9.45-8.46,2.48.53,3.05.91.71,6.17-2.34,5.26-1.5,7.53-4.12,10.9-2.61,3.37-7.51,5.21-2.44,5.76,5.06.55,22.69-3.56,24.74-7.32,2.04-3.75,2.04-13.44,4.99-12.03,2.95,1.41,5.67,7.3,9.82,6.76,14.42-1.88,7.06-9.92,8.79-12.5,5.34-7.99,7.04-.26,12.51,2.13,11.71,5.12,8.37-5.23,7.77-13.01-.62-7.97,11.22-14.11,19.1-8.25,7.88,5.86.04,6.29-3.48,14.18-3.52,7.89-32.65,14.54-45.05,21.59-12.4,7.05-62.78,16.53-68.79-5.17-6.01-21.69,5.72-18.94,5.72-18.94Z"/>
                  </g>
                </g>
                <g>
                  <path class="cls-44" d="m390.51,215.76c-.36,4.04-7.33,5.17-7.78,9.27-.34,3.09-1.53,4.92-4.17,8.13-3.74,4.55-6.32,1.57-12.07,4.34.1,1.88.54,2.66-2.22,4.54-1.59,1.08-13.48,2.94-16.44,3.52-7.46,6.17-7,6.82-20.34,11.36-6.3,2.15-7.84-1.98-13.16-.99-1.87,1.31-10.08,8.34-16.69,9.6,0,0-4.72.75-9.44,1.08-.68.23-1.36.46-2.07.71-18.56,6.59,2.94-3.67-12.56-5.42-15.5-1.76-4.71,5.24-17.39.61-12.68-4.63-16.93-9.91-9.41-17.58,7.52-7.67-5.35-6.46-1.34-12.22,4.01-5.76,6.06-3.04,10.65-8.55,3.03-3.64,7.67-7.24,12.72-10.9,1.66-1.2,3.21-2.45,4.88-3.7,2.81-2.1,5.93-4.2,10.37-6.03,5.12-2.11,23.14-16.17,29.06-17.27,17.15-3.18,13.25-.17,30.13-2.44,7.33-.98,11.5,1.96,14.98,4.63,3.38,2.59,8.55,4.07,11.61,6.48,1.72,1.35,1.51,3.59,3.17,5,2.08,1.77,6.03,2.18,7.97,4.06,1.48,1.44,9.67,10.27,9.54,11.79Z"/>
                  <g class="cls-51">
                    <path class="cls-35" d="m324.01,185.27s-18.59,39.96-18.49,54.55l.1,14.59s7.12-32.62,19.75-49.04c12.63-16.42-1.37-20.1-1.37-20.1Z"/>
                    <path class="cls-35" d="m325.18,202.46s-26.25,18.35-32.21,24.35c-5.95,6-17.74,17.23-17.74,17.23,0,0,32.85-28.59,41.98-33.1,9.13-4.51,7.97-8.48,7.97-8.48Z"/>
                    <path class="cls-35" d="m326.01,191.16s-25.86,16.09-35.37,22.71c-9.51,6.62-21.81,17.07-21.81,17.07,0,0,41.3-28.67,53.3-32.55,12.01-3.88,3.88-7.24,3.88-7.24Z"/>
                    <path class="cls-35" d="m317.27,207.43s20.11,9.78,23.84,13.99c3.73,4.21,11.39,11.84,11.39,11.84,0,0-22.6-18.34-30.45-19.71-7.85-1.38-4.78-6.12-4.78-6.12Z"/>
                    <path class="cls-35" d="m324.9,188.76s20.72,7.48,28.01,11c7.3,3.51,15.88,10.11,15.88,10.11,0,0-31.72-15.17-42.97-14.76-11.25.41-.91-6.35-.91-6.35Z"/>
                    <path class="cls-4" d="m245.85,238.32c8.92-3.21,13.04-10.76,17.7-9.53,4.67,1.22,1.64,7.52-4.32,12.28-5.97,4.75-12.44,8.04-12.03,13.7.41,5.66,5,14.73,11.24,12.53,6.23-2.19,6.11-1.65,13.77-10.37,7.66-8.72,8.75-9.96,11.94-9.51,3.19.45,3.93.84,1.02,6.59-2.9,5.75-1.78,8.15-5.06,11.89-3.28,3.74-9.52,5.93-3.02,6.3,6.5.36,29-4.84,31.55-8.96,2.54-4.12,2.35-14.52,6.16-13.14,3.81,1.38,7.4,7.58,12.71,6.81,18.44-2.66,8.86-10.96,11.01-13.81,6.69-8.82,9.01-.59,16.06,1.73,15.1,4.97,10.62-5.99,9.7-14.32-.94-8.53,14.1-15.65,24.31-9.71,10.21,5.94.17,6.75-4.18,15.38-4.35,8.63-41.54,17.07-57.29,25.2-15.75,8.13-80.11,20.55-88.23-2.47-8.12-23.02,6.96-20.59,6.96-20.59Z"/>
                  </g>
                </g>
              </g>
              <g>
                <path class="cls-40" d="m403.84,192.17c0,1.17.04,2.31-.08,3.44-.12,1.16-.29,2.29-.53,3.4-.24,1.13-.52,2.24-.88,3.34-.36,1.1-.72,2.19-1.2,3.25-.47,1.06-1.02,2.08-1.61,3.09-.58,1-1.38,1.87-2.07,2.83-.67.94-1.04,2.11-1.81,3.02-.75.89-1.77,1.57-2.62,2.42-.82.83-1.41,1.91-2.32,2.7-.88.77-1.9,1.43-2.86,2.17-.93.71-2.03,1.26-3.03,1.94-.97.66-1.82,1.54-2.85,2.17-1.01.61-2.23.93-3.3,1.52-1.04.57-1.99,1.31-3.09,1.85-1.06.53-2.29.78-3.4,1.28-1.08.49-2.05,1.26-3.17,1.73-1.1.45-2.45.38-3.59.81-1.12.42-2.07,1.28-3.22,1.67-1.13.39-2.3.72-3.47,1.09-1.14.36-2.23.95-3.4,1.29-1.15.33-2.45.24-3.64.55-1.16.31-2.31.69-3.5.98-1.17.28-2.26.9-3.46,1.17-1.17.26-2.47.08-3.67.32-1.18.24-2.26.98-3.47,1.2-1.18.22-2.37.52-3.58.72-1.19.2-2.4.4-3.61.58-1.19.18-2.45.02-3.67.19-1.2.16-2.4.35-3.62.5-1.2.15-2.46-.11-3.68.02-1.2.13-2.36.69-3.58.81-1.21.11-2.44-.04-3.67.06-1.21.1-2.4.51-3.62.59-1.21.08-2.43.15-3.65.22-1.21.07-2.43.09-3.65.14-1.21.05-2.45-.45-3.68-.41-1.21.04-2.41.61-3.63.64-1.21.03-2.44-.12-3.66-.1-1.22.01-2.44-.36-3.66-.36s-2.44.71-3.66.7c-1.22-.01-2.44-.37-3.65-.39-1.22-.03-2.45.08-3.66.04-1.22-.04-2.45.06-3.66,0-1.22-.06-2.41-.64-3.62-.7-1.22-.07-2.46.15-3.66.07-1.22-.08-2.44-.17-3.64-.27-1.22-.1-2.4-.53-3.61-.65-1.22-.11-2.42-.25-3.63-.38-1.22-.13-2.48.18-3.68.03-1.22-.15-2.38-.58-3.58-.74-1.21-.17-2.39-.49-3.58-.67-1.21-.18-2.47-.02-3.66-.22-1.21-.2-2.47-.1-3.66-.32-1.2-.22-2.29-.94-3.47-1.18-1.2-.24-2.45-.26-3.62-.52-1.2-.26-2.27-.94-3.44-1.22-1.19-.29-2.46-.26-3.62-.57-1.18-.31-2.33-.72-3.48-1.06-1.18-.34-2.31-.77-3.45-1.13-1.17-.37-2.44-.44-3.57-.83-1.16-.4-2.2-1.06-3.32-1.48-1.15-.43-2.11-1.22-3.21-1.68-1.13-.47-2.39-.61-3.47-1.1-1.11-.5-2.27-.89-3.33-1.42-1.09-.54-1.89-1.53-2.93-2.1-1.07-.59-2.58-.46-3.58-1.08-1.04-.63-1.78-1.66-2.76-2.32-1-.68-1.72-1.66-2.65-2.38-.96-.74-2.14-1.18-3.02-1.95-.91-.79-1.99-1.4-2.81-2.23-.84-.85-1.17-2.1-1.92-2.98-.77-.91-1.96-1.5-2.63-2.45-.68-.96-1.05-2.11-1.63-3.11-.58-1.01-1.09-2.05-1.56-3.11-.47-1.06-.7-2.19-1.05-3.29-.35-1.09-.77-2.16-1.01-3.29-.23-1.12-.09-2.27-.21-3.43-.11-1.13-1.02-2.23-1.02-3.4s.53-2.25.64-3.39c.11-1.12.23-2.25.44-3.38.2-1.11,0-2.32.3-3.43.29-1.09.97-2.1,1.35-3.19.37-1.07,1.22-1.97,1.68-3.03.45-1.04.21-2.38.73-3.42.51-1.01,1.39-1.88,1.97-2.88.57-.99.99-2.07,1.63-3.05.62-.96,1.6-1.71,2.28-2.66.67-.93.94-2.14,1.67-3.06.71-.9,1.65-1.66,2.41-2.55.75-.87,1.34-1.9,2.15-2.76.79-.84,1.77-1.55,2.6-2.38.82-.82,1.82-1.48,2.69-2.28.85-.79,1.99-1.29,2.88-2.07.88-.76,1.33-1.99,2.25-2.73.91-.73,2.25-.97,3.2-1.69.93-.71,1.48-1.88,2.44-2.57.95-.68,1.8-1.53,2.78-2.19.97-.65,2.23-.94,3.24-1.58.99-.63,2.21-.93,3.24-1.53,1.01-.6,1.92-1.37,2.96-1.95,1.03-.57,1.98-1.28,3.04-1.83,1.05-.55,2.22-.88,3.29-1.41,1.06-.52,1.97-1.35,3.05-1.85,1.08-.49,2.2-.91,3.3-1.38,1.09-.47,2.26-.78,3.37-1.23,1.1-.44,2.08-1.19,3.2-1.61,1.11-.41,2.34-.58,3.47-.97,1.12-.39,2.18-.99,3.32-1.35,1.13-.36,2.24-.85,3.39-1.18,1.15-.33,2.46-.13,3.63-.44,1.15-.31,2.19-1.03,3.36-1.31,1.16-.28,2.33-.57,3.51-.82,1.17-.25,2.37-.43,3.55-.66,1.18-.23,2.38-.36,3.57-.56,1.18-.2,2.36-.47,3.55-.64,1.19-.17,2.43.05,3.63-.09,1.19-.14,2.32-.82,3.52-.93,1.19-.11,2.41-.09,3.62-.17,1.2-.09,2.4-.3,3.6-.35,1.2-.06,2.42.08,3.62.06,1.2-.03,2.41.31,3.62.31s2.41-.17,3.61-.15c1.21.03,2.4.21,3.6.26,1.2.06,2.41.08,3.6.17,1.2.09,2.39.25,3.59.36,1.2.11,2.44-.07,3.62.07,1.2.14,2.33.67,3.52.84,1.19.17,2.41.14,3.6.34,1.19.2,2.38.36,3.56.59,1.18.23,2.39.36,3.56.61,1.18.25,2.25.89,3.41,1.17,1.17.28,2.27.77,3.42,1.08,1.16.31,2.56-.15,3.71.18,1.15.34,2.13,1.18,3.27,1.54,1.15.36,2.2.93,3.33,1.31,1.13.39,2.37.5,3.49.91,1.12.42,2.13,1.08,3.24,1.52,1.11.45,2.34.63,3.43,1.1,1.1.47,2.33.68,3.41,1.17,1.09.5,1.94,1.43,3,1.95,1.07.53,2.02,1.25,3.07,1.8,1.06.55,2.45.54,3.48,1.12,1.04.58,1.71,1.74,2.72,2.34,1.02.61,2.21.96,3.2,1.59,1.01.63,1.88,1.43,2.86,2.08.99.66,1.92,1.37,2.88,2.05.97.69,2,1.27,2.93,1.98.95.72,2.16,1.12,3.07,1.85.92.74,1.31,2.04,2.19,2.8.89.77,2.16,1.15,3.02,1.94.87.8,1.84,1.5,2.66,2.32.84.83,1.19,2.07,1.98,2.91.8.86,1.77,1.56,2.52,2.44.77.89,1.22,1.99,1.93,2.89.73.92,2.01,1.45,2.68,2.38.68.95.78,2.24,1.4,3.2.63.98,1.52,1.8,2.08,2.79.58,1.01.9,2.12,1.41,3.14.52,1.04,1.04,2.05,1.49,3.09.45,1.06,1.44,1.94,1.81,3,.38,1.09.31,2.31.6,3.4.3,1.11.69,2.2.89,3.3.21,1.13.53,2.25.63,3.37.11,1.14-.32,2.3-.32,3.42Z"/>
                <path class="cls-30" d="m318.78,214.06s66.59,8.87,70.16,12.67c3.57,3.8-9.52-38.01-9.52-38.01"/>
                <path class="cls-30" d="m203.43,203.92l23.78,45.61s64.21-29.14,91.56-30.41c27.35-1.27,49.94-7.6,49.94-7.6"/>
                <path class="cls-38" d="m318.78,211.34s66.59,8.87,70.16,12.67c3.57,3.8-9.52-38.01-9.52-38.01"/>
                <path class="cls-38" d="m203.43,201.21l23.78,45.61s64.21-29.14,91.56-30.41c27.35-1.26,49.94-7.6,49.94-7.6"/>
                <path class="cls-15" d="m402.25,176.6c0,35.07-51.74,53.2-115.57,53.2s-115.57-18.12-115.57-53.19c0-35.07,51.74-76.38,115.57-76.38s115.57,41.31,115.57,76.38Z"/>
                <path class="cls-14" d="m400.81,164.07c0,35.07-51.1,53.19-114.13,53.19s-114.12-18.12-114.12-53.19c0-35.07,51.09-62.13,114.12-62.13s114.12,27.06,114.12,62.12Z"/>
              </g>
              <g>
                <g>
                  <path class="cls-44" d="m307.03,199.8c2.34,2.95,7.35.65,9.77,3.6,1.83,2.23,3.55,3.1,6.9,4.37,4.75,1.8,4.83-1.66,9.92-2.15.92,1.5,1.05,2.3,3.78,2.49,1.57.11,10.09-3.87,12.27-4.76,7.96,1.36,8,2.07,18.84-.5,5.12-1.21,3.94-5.09,7.83-6.75,1.87.16,10.75,1.84,15.61-.2,0,0,3.38-1.57,6.55-3.46.55-.13,1.11-.26,1.68-.39,15.22-3.36-3.78-1.49,5.13-9.89,8.92-8.4,5.73,1.89,11.35-7.45,5.62-9.34,5.57-15.34-3.21-17.83-8.78-2.49.02-7.41-5.53-10.03-5.55-2.61-5.43.41-11.22-1.75-3.82-1.43-8.65-2.08-13.77-2.61-1.68-.17-3.32-.43-5.03-.63-2.88-.34-5.96-.54-9.73.07-4.36.7-23.13-1.94-27.47-.09-12.54,5.35-8.5,5.89-20.39,11.83-5.17,2.58-6.28,6.74-7.09,10.38-.79,3.53-3.3,7.02-3.98,10.27-.39,1.82.92,3.46.6,5.29-.4,2.31-2.69,4.42-2.93,6.76-.19,1.78-.77,12.31.11,13.42Z"/>
                  <g class="cls-49">
                    <path class="cls-35" d="m333.29,146.05s32.67,22.33,40.22,33.62l7.56,11.29s-21.56-21.89-38.15-28.8c-16.59-6.91-9.63-16.11-9.63-16.11Z"/>
                    <path class="cls-35" d="m341.53,159.83s26.25,2.2,33.16,4.11c6.91,1.91,20.26,5.2,20.26,5.2,0,0-35.78-7.08-43.93-6.4-8.15.68-9.49-2.91-9.49-2.91Z"/>
                    <path class="cls-35" d="m335.1,151.5s24.82.63,34.31,1.41c9.49.77,22.76,3.23,22.76,3.23,0,0-41.18-3.3-50.83-.83-9.65,2.47-6.24-3.81-6.24-3.81Z"/>
                    <path class="cls-35" d="m349.15,160.06s-7.65,16.69-7.81,21.63c-.17,4.94-1.05,14.31-1.05,14.31,0,0,4.76-24.41,9.02-29.04,4.26-4.63-.16-6.89-.16-6.89Z"/>
                    <path class="cls-35" d="m334.55,149.14s-9.23,15.19-12.03,21.22c-2.79,6.03-4.79,15.01-4.79,15.01,0,0,12.21-26.12,19.56-30.92,7.35-4.8-2.74-5.31-2.74-5.31Z"/>
                    <path class="cls-4" d="m410.6,151.37c-7.34,1.58-13.89-2.36-16.21.71-2.32,3.07,2.88,6.54,9.16,7.49,6.27.95,12.09.53,14.79,5.08,2.7,4.55,4.52,13.62-.58,14.77-5.1,1.14-4.74,1.51-14.16-1.73-9.41-3.24-10.76-3.7-12.55-1.9-1.79,1.8-2.05,2.43,2.79,5.55,4.85,3.11,5.39,5.47,9.42,6.86,4.03,1.39,9.14.24,5.21,3.48-3.93,3.24-20.93,9.47-24.7,7.45-3.77-2.02-9.08-10.12-10.77-7.32-1.69,2.8-.74,9.21-4.5,11.03-13.09,6.34-11.35-4.42-14.2-5.63-8.85-3.75-6.03,3.64-9.29,8.64-6.98,10.7-9.87.22-13.63-6.62-3.86-7-17.12-5.64-20.5,3.58-3.38,9.22,3.42,5.28,10.69,9.95,7.27,4.67,35.27-5.75,49.51-6.65,14.24-.9,61.56-20.61,54.69-42.05-6.87-21.43-15.17-12.7-15.17-12.7Z"/>
                  </g>
                </g>
                <g>
                  <path class="cls-44" d="m155.53,162.87c.32,3.75,5.76,4.6,6.15,8.4.29,2.87,1.24,4.54,3.33,7.46,2.96,4.13,4.94,1.28,9.45,3.7-.06,1.76-.4,2.49,1.77,4.16,1.25.96,10.55,2.36,12.86,2.82,5.88,5.53,5.53,6.15,15.97,10,4.94,1.82,6.1-2.06,10.26-1.29,1.47,1.17,7.94,7.48,13.11,8.46,0,0,3.69.56,7.37.74.53.19,1.07.39,1.62.61,14.54,5.62-2.33-3.33,9.75-5.4,12.08-2.07,3.73,4.74,13.58.08,9.85-4.67,13.12-9.7,7.19-16.63-5.94-6.93,4.11-6.17.93-11.41-3.18-5.25-4.75-2.66-8.38-7.66-2.4-3.3-6.05-6.52-10.03-9.79-1.3-1.07-2.53-2.19-3.84-3.3-2.21-1.88-4.67-3.74-8.15-5.32-4.02-1.82-18.2-14.41-22.83-15.26-13.41-2.48-10.34.21-23.53-1.42-5.73-.71-8.96,2.14-11.65,4.73-2.61,2.51-6.63,4.03-9,6.35-1.33,1.3-1.15,3.39-2.42,4.74-1.61,1.7-4.68,2.2-6.18,4.01-1.14,1.38-7.45,9.83-7.33,11.24Z"/>
                  <g class="cls-50">
                    <path class="cls-35" d="m210.17,134.09s14.87,36.67,14.92,50.25l.05,13.58s-5.85-30.16-15.86-45.1c-10-14.93.88-18.74.88-18.74Z"/>
                    <path class="cls-35" d="m209.41,150.13s20.65,16.34,25.35,21.76c4.7,5.42,14,15.54,14,15.54,0,0-25.89-25.69-33.06-29.63-7.17-3.95-6.3-7.67-6.3-7.67Z"/>
                    <path class="cls-35" d="m208.66,139.63s20.33,14.25,27.81,20.15c7.48,5.89,17.17,15.28,17.17,15.28,0,0-32.48-25.52-41.89-28.8-9.4-3.28-3.09-6.63-3.09-6.63Z"/>
                    <path class="cls-35" d="m215.63,154.53s-15.6,9.67-18.47,13.7c-2.87,4.02-8.78,11.34-8.78,11.34,0,0,17.47-17.7,23.58-19.2,6.11-1.5,3.68-5.83,3.68-5.83Z"/>
                    <path class="cls-35" d="m209.51,137.37s-16.1,7.55-21.76,11.02c-5.66,3.47-12.3,9.86-12.3,9.86,0,0,24.62-15.01,33.4-14.94,8.78.07.65-5.94.65-5.94Z"/>
                    <path class="cls-4" d="m271.64,181.28c-6.99-2.74-10.27-9.65-13.89-8.37-3.63,1.27-1.22,7.05,3.48,11.31,4.7,4.26,9.78,7.13,9.51,12.42-.27,5.28-3.77,13.85-8.65,11.98-4.88-1.87-4.78-1.36-10.84-9.27-6.06-7.9-6.92-9.03-9.4-8.52-2.48.51-3.06.89-.74,6.17,2.32,5.27,1.46,7.54,4.06,10.93,2.6,3.39,7.48,5.26,2.41,5.78-5.06.52-22.67-3.69-24.7-7.45-2.02-3.77-1.96-13.45-4.92-12.06-2.96,1.4-5.71,7.27-9.85,6.7-14.41-1.96-7.01-9.96-8.72-12.54-5.3-8.02-7.04-.3-12.52,2.06-11.74,5.05-8.34-5.27-7.7-13.05.66-7.97-11.15-14.17-19.06-8.36-7.91,5.81-.07,6.29,3.4,14.2,3.47,7.91,32.56,14.72,44.92,21.84,12.36,7.12,62.69,16.87,68.82-4.78,6.13-21.66-5.62-18.97-5.62-18.97Z"/>
                  </g>
                </g>
                <g>
                  <path class="cls-44" d="m193.77,162.85c.29,3.77,6.26,4.85,6.62,8.67.28,2.89,1.29,4.6,3.54,7.61,3.18,4.26,5.41,1.5,10.33,4.1-.1,1.76-.48,2.48,1.88,4.24,1.35,1.01,11.55,2.8,14.08,3.36,6.37,5.79,5.97,6.39,17.39,10.68,5.39,2.03,6.73-1.81,11.3-.86,1.59,1.23,8.6,7.82,14.27,9.03,0,0,4.04.72,8.09,1.05.58.22,1.16.44,1.77.68,15.89,6.24-2.51-3.43,10.8-5,13.3-1.57,4.02,4.91,14.92.65,10.9-4.26,14.58-9.16,8.17-16.35-6.41-7.19,4.62-6,1.22-11.39-3.41-5.39-5.18-2.86-9.09-8.03-2.58-3.41-6.54-6.78-10.86-10.22-1.41-1.13-2.74-2.3-4.16-3.47-2.4-1.97-5.07-3.94-8.87-5.67-4.38-2-19.77-15.19-24.84-16.25-14.7-3.05-11.37-.22-25.83-2.42-6.29-.95-9.88,1.77-12.88,4.24-2.91,2.4-7.35,3.76-9.99,5.98-1.48,1.25-1.31,3.34-2.74,4.65-1.79,1.64-5.18,2-6.86,3.75-1.28,1.33-8.35,9.53-8.24,10.95Z"/>
                  <g class="cls-53">
                    <path class="cls-35" d="m250.97,134.74s15.74,37.34,15.58,50.95l-.16,13.6s-5.94-30.45-16.69-45.82c-10.75-15.37,1.28-18.73,1.28-18.73Z"/>
                    <path class="cls-35" d="m249.88,150.76s22.43,17.24,27.51,22.86c5.08,5.62,15.13,16.15,15.13,16.15,0,0-28.03-26.81-35.85-31.06-7.81-4.25-6.79-7.94-6.79-7.94Z"/>
                    <path class="cls-35" d="m249.22,140.22s22.11,15.13,30.23,21.35c8.12,6.22,18.62,16.02,18.62,16.02,0,0-35.28-26.93-45.56-30.6-10.28-3.68-3.29-6.77-3.29-6.77Z"/>
                    <path class="cls-35" d="m256.64,155.43s-17.3,9.03-20.52,12.93c-3.22,3.91-9.84,10.99-9.84,10.99,0,0,19.49-16.99,26.22-18.24,6.74-1.24,4.13-5.68,4.13-5.68Z"/>
                    <path class="cls-35" d="m250.2,137.98s-17.81,6.88-24.09,10.12c-6.28,3.24-13.67,9.35-13.67,9.35,0,0,27.3-13.99,36.95-13.55,9.65.44.82-5.92.82-5.92Z"/>
                    <path class="cls-4" d="m317.75,184.58c-7.64-3.04-11.13-10.09-15.13-8.97-4.01,1.12-1.45,7.01,3.65,11.47,5.1,4.46,10.63,7.56,10.25,12.83-.38,5.28-4.37,13.71-9.71,11.63-5.34-2.08-5.24-1.57-11.76-9.74-6.52-8.17-7.46-9.33-10.19-8.93-2.74.41-3.37.77-.91,6.14,2.46,5.38,1.49,7.61,4.28,11.11,2.8,3.5,8.13,5.58,2.56,5.89-5.57.31-24.86-4.65-27.02-8.51-2.16-3.86-1.94-13.55-5.21-12.28-3.27,1.27-6.39,7.03-10.94,6.29-15.81-2.57-7.54-10.27-9.38-12.93-5.69-8.25-7.73-.6-13.79,1.53-12.98,4.56-9.08-5.63-8.25-13.39.85-7.95-12.02-14.66-20.81-9.17-8.79,5.49-.18,6.3,3.51,14.36,3.69,8.07,35.55,16.11,49.01,23.77,13.47,7.65,68.62,19.54,75.71-1.89,7.09-21.43-5.87-19.23-5.87-19.23Z"/>
                  </g>
                </g>
              </g>
              <g>
                <path class="cls-8" d="m255.82,182.06c8.02.06,10.27-1.03,28.55-2,18.28-.97,7.29,0,25.45.95,18.17.95,21.02,1.85,29.73,2.61,8.7.77,19.85-2.76,38.01-1.81,16.54.87,23.08-2.44,35.02-1.51-5.62-14.58,4.68-20.92-3.14-25.15-4.39,1.12-8.82,1.77-10.43,2.02-7.87,1.22-16.34,2.56-24.97,3.58-13.54,1.6-27.49,2.43-40.18.82-4.55-.58-52.75-5.68-81.05-10.22-4.14,1.74-6.81,2.07-6.66,9.89.05,2.33-.14,4.51-.41,6.55,9.02-.12,24.17.85,35.71.41,15.34-.58,16.79-.45,25.45.95,8.66,1.41,11.76-1.54,8.66,1.41-3.09,2.95-2.41,3.65-23.47,2.44-21.07-1.21-21.11-.57-34.23-.43-7.41.07-10.65.31-12.99.65-.45,2.67-.74,5-.38,7.01,2.76-.34,6.03,1.78,11.33,1.82Z"/>
                <path class="cls-34" d="m270.82,187.24c16.07-.52,33.47,1.01,48.81.43,15.34-.59,28.39.56,48.73,1.7,20.34,1.15,17.48.25,32.1-.4,5.22-.23,9.44-3.84,12.12-8.67-11.93-.93-18.47,2.38-35.02,1.51-18.16-.95-29.31,2.58-38.01,1.81-8.7-.76-11.56-1.66-29.73-2.61-18.17-.95-7.17-1.92-25.45-.95-18.28.97-20.53,2.06-28.55,2-5.3-.04-8.57-2.16-11.33-1.82.09.52.23,1.03.42,1.5,1.9,4.68,9.84,6.02,25.91,5.5Z"/>
                <path class="cls-39" d="m374.05,160.75c8.64-1.02,17.11-2.36,24.97-3.58,1.6-.25,6.04-.9,10.43-2.02-.12-.07-.24-.13-.37-.2-9.7-4.78-15.19-1.98-30.53-1.4-15.34.58-18.97.27-27.7.14-6.76-.1-10.69-.16-17.82-1.63-14.7-3.02-34.67.23-49.46-.82-12.22-.87-20.22-6.2-30.4.07,26.37,5.39,53.98,6.86,80.7,10.24,12.69,1.61,26.64.78,40.18-.82Z"/>
                <path class="cls-36" d="m292.09,173.01c21.07,1.21,106.02-5.42,109.11-8.37,3.1-2.95-85.64,5.92-94.3,4.52-8.66-1.4-10.11-1.53-25.45-.95-11.54.44-26.69-.53-35.71-.41-.26,1.94-.59,3.75-.87,5.44,2.34-.34,5.58-.58,12.99-.65,13.13-.13,13.17-.78,34.23.43Z"/>
              </g>
              <g>
                <path class="cls-8" d="m351.03,173.69c-7.31-1.85-9.73-.92-26.77-3.69-17.04-2.77-6.66-1.61-22.95-6.88-16.29-5.27-18.61-7.08-26.3-10.01-7.7-2.93-19.07-.76-35.36-6.02-14.83-4.8-21.92-1.9-32.52-5.76.26,20.41-11.27,26.46-5.53,33.74,4.39-.5,8.65-.37,10.21-.35,7.6.13,15.79.25,24.02.82,12.92.89,25.95,2.88,37.01,7.8,3.96,1.76,46.32,19.12,70.69,31.35,4.37-1.37,5.17-.33,7.64-10.65.74-3.08,3.39-6.78,4.31-9.39-8.28-1.84-21.81-6.47-32.51-8.44-14.22-2.62-15.5-3.11-22.95-6.87-7.45-3.76-11.26-.57-7.45-3.76,3.81-3.19,3.42-4.27,22.28,1.98,18.85,6.24,19.1,5.41,31.15,8.14,6.79,1.54,9.83,1.94,12.09,2.01,1.3-3.41,2.35-6.41,2.68-9.13-2.64-.17-4.91-3.67-9.75-4.89Z"/>
                <path class="cls-34" d="m339.06,163.56c-14.86-2.87-30.26-8.73-44.48-11.35-14.22-2.63-25.77-7.02-43.98-13.02-18.21-6-15.9-4.19-29.48-6.57-4.85-.85-9.91,2.96-13.98,8.71,10.6,3.86,17.68.96,32.52,5.76,16.29,5.27,27.66,3.1,35.36,6.02,7.7,2.93,10.01,4.74,26.3,10.01,16.29,5.27,5.92,4.1,22.95,6.88,17.04,2.77,19.46,1.83,26.77,3.69,4.84,1.23,7.11,4.73,9.75,4.89.09-.7.14-1.4.12-2.07-.18-6.57-6.98-10.08-21.85-12.95Z"/>
                <path class="cls-39" d="m235.83,175.55c-8.24-.57-16.42-.68-24.02-.82-1.55-.03-5.82-.15-10.21.35.09.11.18.23.27.34,7.27,8.42,13.22,5.96,27.44,8.59,14.22,2.62,17.43,3.85,25.37,5.94,6.15,1.62,9.72,2.57,15.75,6.07,12.43,7.22,21.33,4.07,34.51,8.73,10.88,3.84,26.85,15.91,38.25,9.92-22.3-12.92-47.05-20.95-70.35-31.3-11.06-4.92-24.1-6.92-37.01-7.8Z"/>
                <path class="cls-36" d="m314.86,177.56c-18.86-6.24-100.72-28.18-104.53-24.99-3.81,3.19,82.26,23.01,89.71,26.77,7.45,3.76,8.73,4.25,22.95,6.87,10.69,1.97,24.22,6.6,32.51,8.44.89-2.51,1.8-4.81,2.61-6.95-2.26-.07-5.3-.48-12.09-2.01-12.05-2.73-12.3-1.89-31.15-8.14Z"/>
              </g>
              <g>
                <path class="cls-20" d="m347.59,149.79c.64,15.17-10.03,29.85-26.46,38.44-15.95,8.33-5.43,18.29-21.37,26.62-15.95,8.33-10.5,1.31-37.94-2.86-27.44-4.17-35.79,21.47-65.85,7.16-24.34-11.59-32.67-70.39-10.15-92.05,16.87-16.22,36.91-20.29,58.04-17.71,11.03,1.35,16.85,7.72,27.95,6.15,10.13-1.44,11.18-14.85,35.78-10.09,11.92,2.31,20.2,12.38,28.34,20.35,7.72,7.56,11.32,15.85,11.67,23.99Z"/>
                <path class="cls-29" d="m242.13,205.28c6.18-5.17-29.61,17.71-44.95.32-7.36-8.35-14.15-16.48-14.15-16.48,0,0,2.26,17.42,18.84,25.01,16.58,7.58,23.18,5.45,40.26-8.85Z"/>
                <path class="cls-38" d="m261.54,170.08c-.18,4.61-2.61,6.65-6.83,10.88-7.27,7.27-21.51,9.74-32.6,7.96-12.94-2.08-29.52-10.4-27.36-25.31,2.46-17.05,26.33-24.2,41.04-20.54,15.02,3.73,26.22,15.25,25.75,27.01Z"/>
                <path class="cls-5" d="m253.91,172.97s-7.25,3.88-20.97,4.78c-13.72.9-32.08-4.93-32.08-4.93,0,0,10.65,12.82,28.54,12.65,17.9-.17,22.03-6.32,24.51-12.5Z"/>
                <path class="cls-32" d="m217.51,148.85c-.09,1.79,2.86,3.4,6.59,3.58,3.73.18,6.82-1.12,6.91-2.92.09-1.8-2.86-3.4-6.59-3.58-3.73-.18-6.82,1.12-6.91,2.92Z"/>
              </g>
              <g>
                <path class="cls-33" d="m407.44,140.97c-4.44,25.17-54.36,32.11-112.62,21.83-58.26-10.27-102.8-33.87-98.36-59.03,4.44-25.17,38.35-55.81,116.19-42.08,77.84,13.72,99.23,54.12,94.79,79.28Z"/>
                <path class="cls-13" d="m408.06,137.44c-4.44,25.17-54.36,32.11-112.62,21.84-58.26-10.27-102.8-33.87-98.36-59.03,4.44-25.17,39.81-64.09,117.65-50.36,77.84,13.73,97.77,62.4,93.33,87.56Z"/>
                <g>
                  <path class="cls-25" d="m230.81,62.69c1.05,1.28,1.19,2.87.32,3.56-.87.69-2.43.21-3.48-1.07-1.05-1.28-.32-3.56-.32-3.56,0,0,2.43-.21,3.48,1.07Z"/>
                  <path class="cls-25" d="m364.59,85.75c1.05,1.28,1.19,2.87.32,3.56-.87.69-2.43.21-3.48-1.07-1.05-1.28-.32-3.56-.32-3.56,0,0,2.43-.21,3.48,1.07Z"/>
                  <path class="cls-25" d="m347.73,69.69c-.48,1.71-1.67,2.86-2.66,2.57-.99-.29-1.41-1.92-.93-3.63.47-1.71,2.65-2.57,2.65-2.57,0,0,1.41,1.92.93,3.63Z"/>
                  <path class="cls-25" d="m262.49,74.04c-.53,1.9-1.85,3.18-2.95,2.86-1.11-.33-1.56-2.13-1.03-4.04.53-1.9,2.95-2.86,2.95-2.86,0,0,1.57,2.13,1.04,4.03Z"/>
                  <path class="cls-25" d="m322.14,58.91c1.83.11,3.31.95,3.31,1.88,0,.93-1.48,1.59-3.3,1.48-1.83-.11-3.31-1.88-3.31-1.88,0,0,1.48-1.59,3.3-1.49Z"/>
                  <path class="cls-25" d="m352.25,88.27c1.83.11,3.31.95,3.31,1.88,0,.93-1.48,1.6-3.3,1.49-1.83-.11-3.31-1.88-3.31-1.88,0,0,1.48-1.6,3.3-1.49Z"/>
                  <path class="cls-25" d="m331.11,70.09c1.5.67,2.49,1.85,2.19,2.63-.29.78-1.75.88-3.25.21-1.51-.67-2.2-2.63-2.2-2.63,0,0,1.75-.88,3.25-.21Z"/>
                  <path class="cls-25" d="m307.1,85.45c1.51.67,2.49,1.85,2.2,2.63-.29.78-1.75.88-3.25.21-1.51-.67-2.2-2.63-2.2-2.63,0,0,1.75-.88,3.25-.21Z"/>
                  <path class="cls-25" d="m316.53,53.71c-1.09,1.23-2.51,1.82-3.17,1.3-.66-.51-.31-1.93.78-3.16,1.09-1.23,3.17-1.3,3.17-1.3,0,0,.31,1.93-.78,3.16Z"/>
                  <path class="cls-25" d="m267.19,94.02c1.83.11,3.31.95,3.31,1.88,0,.93-1.48,1.59-3.3,1.48-1.83-.11-3.31-1.88-3.31-1.88,0,0,1.48-1.59,3.3-1.48Z"/>
                  <path class="cls-25" d="m318.55,104.97c-1.09,1.23-2.51,1.81-3.17,1.3-.66-.52-.31-1.93.79-3.16,1.09-1.23,3.17-1.3,3.17-1.3,0,0,.31,1.93-.78,3.16Z"/>
                  <path class="cls-25" d="m338.03,100.2c-1.09,1.23-2.51,1.81-3.17,1.3-.66-.52-.31-1.93.78-3.17,1.09-1.23,3.17-1.3,3.17-1.3,0,0,.3,1.93-.79,3.17Z"/>
                  <path class="cls-25" d="m331.67,84.1c-1.09,1.23-2.51,1.81-3.17,1.3-.66-.52-.31-1.93.78-3.16,1.09-1.23,3.17-1.3,3.17-1.3,0,0,.31,1.93-.78,3.16Z"/>
                  <path class="cls-25" d="m320.11,73.09c1.58.92,2.53,2.34,2.11,3.17-.41.83-2.03.76-3.62-.15-1.59-.92-2.12-3.17-2.12-3.17,0,0,2.04-.76,3.62.15Z"/>
                  <path class="cls-25" d="m283.38,58.08c1.58.92,2.53,2.33,2.11,3.17-.41.83-2.04.76-3.62-.15-1.58-.92-2.11-3.17-2.11-3.17,0,0,2.04-.76,3.62.15Z"/>
                  <path class="cls-25" d="m385.79,89.93c1.47-.77,3.05-.58,3.55.42.49.99-.3,2.42-1.76,3.19-1.47.77-3.55-.42-3.55-.42,0,0,.3-2.42,1.77-3.19Z"/>
                  <path class="cls-25" d="m283.67,103.67c1.47-.77,3.05-.58,3.55.42.5.99-.29,2.42-1.76,3.19-1.47.77-3.55-.42-3.55-.42,0,0,.3-2.42,1.76-3.19Z"/>
                  <path class="cls-25" d="m299.76,57.92c1.47-.77,3.06-.58,3.55.41.49,1-.3,2.42-1.76,3.19-1.47.77-3.55-.42-3.55-.42,0,0,.3-2.42,1.76-3.19Z"/>
                  <path class="cls-25" d="m371.86,71.51c1.75.9,2.74,2.46,2.19,3.47-.54,1.01-2.4,1.09-4.16.19-1.76-.91-2.19-3.47-2.19-3.47,0,0,2.41-1.1,4.16-.19Z"/>
                  <path class="cls-25" d="m360.42,68.7c1.22-1.36,2.8-2,3.53-1.42.73.58.33,2.15-.89,3.51-1.22,1.36-3.53,1.42-3.53,1.42,0,0-.33-2.15.89-3.51Z"/>
                  <path class="cls-25" d="m270.61,51.47c1.58.92,2.53,2.33,2.11,3.17-.41.83-2.04.76-3.62-.15-1.58-.92-2.11-3.17-2.11-3.17,0,0,2.04-.76,3.62.15Z"/>
                  <path class="cls-25" d="m371.58,95.77c1.22-1.36,2.8-2,3.53-1.42.73.58.33,2.15-.89,3.51-1.22,1.36-3.53,1.42-3.53,1.42,0,0-.33-2.15.89-3.51Z"/>
                  <path class="cls-25" d="m245.09,57.97c1.22-1.36,2.8-2,3.53-1.42.73.58.33,2.15-.89,3.51-1.22,1.36-3.53,1.42-3.53,1.42,0,0-.33-2.15.89-3.51Z"/>
                  <path class="cls-25" d="m246.11,70.3c1.58.92,2.53,2.34,2.11,3.17-.42.83-2.04.76-3.62-.15-1.59-.92-2.11-3.17-2.11-3.17,0,0,2.04-.76,3.62.15Z"/>
                  <path class="cls-25" d="m354.85,76.94c1.52-1.02,3.21-1.25,3.77-.51.56.74-.21,2.16-1.72,3.18-1.52,1.02-3.77.51-3.77.51,0,0,.21-2.16,1.72-3.18Z"/>
                  <path class="cls-25" d="m290.66,47.18c1.76-.49,3.44-.18,3.74.7.31.88-.88,1.99-2.64,2.48-1.76.49-3.74-.7-3.74-.7,0,0,.88-1.99,2.64-2.48Z"/>
                  <path class="cls-25" d="m281.4,77.67c1.14-1.43,2.67-2.16,3.44-1.63.76.53.46,2.13-.68,3.56-1.14,1.43-3.44,1.63-3.44,1.63,0,0-.46-2.13.68-3.56Z"/>
                  <path class="cls-25" d="m288.02,65.97c1.05,1.28,1.19,2.87.31,3.56-.87.69-2.43.21-3.48-1.07-1.05-1.28-.32-3.56-.32-3.56,0,0,2.43-.2,3.48,1.08Z"/>
                  <path class="cls-25" d="m300.24,72.13c1.5-.7,3.08-.45,3.53.56.45,1.02-.4,2.41-1.89,3.11-1.5.7-3.53-.56-3.53-.56,0,0,.4-2.41,1.9-3.11Z"/>
                </g>
              </g>
            </g>
            <path class="cls-10" d="m342.13,76.93c-.32.55-2.01.17-3.79-.85-1.77-1.02-2.95-2.3-2.63-2.85.32-.55,2.02-.17,3.79.85,1.77,1.03,2.95,2.3,2.63,2.85Z"/>
            <g>
              <rect class="cls-17" x="317.39" y="36.22" width="85.9" height="3.9" transform="translate(147.09 331.13) rotate(-59.99)"/>
              <g>
                <rect class="cls-32" x="374.42" y="3.58" width="49.46" height="73.09" transform="translate(164.82 365.74) rotate(-60)"/>
                <polygon class="cls-38" points="417.45 27.62 416.2 36.81 423.86 42.03 414.74 43.68 412.14 52.58 407.75 44.42 398.48 44.7 404.89 38 401.76 29.27 410.11 33.3 417.45 27.62"/>
                <polygon class="cls-38" points="423.19 57.66 420.46 61.76 422.91 66.04 418.16 64.71 414.86 68.36 414.65 63.44 410.16 61.42 414.78 59.71 415.3 54.81 418.37 58.67 423.19 57.66"/>
              </g>
            </g>
          </g>
        </g>
      </g>
    </g>
  </g>
</svg>