<?xml version="1.0" encoding="utf-8"?>
<!-- Generator: Adobe Illustrator 27.8.1, SVG Export Plug-In . SVG Version: 6.00 Build 0)  -->
<svg version="1.1" id="レイヤー_1" xmlns="http://www.w3.org/2000/svg" xmlns:xlink="http://www.w3.org/1999/xlink" x="0px"
	 y="0px" viewBox="0 0 495.4 314.9" style="enable-background:new 0 0 495.4 314.9;" xml:space="preserve">
<style type="text/css">
	.st0{fill:#00001C;}
	.st1{fill:#004471;}
	.st2{fill:#FFFFFF;}
	.st3{fill:none;stroke:#FFFFFF;stroke-width:4.25;stroke-linecap:round;stroke-linejoin:round;}
	.st4{fill:#691C07;}
	.st5{fill:#74A92D;}
	.st6{fill:#489037;}
	.st7{fill:none;}
	.st8{fill:#FFE55F;}
	.st9{fill:#E5A83F;}
	.st10{fill:#EA5504;}
	.st11{clip-path:url(#SVGID_00000013873758402672879000000009208508191640222370_);}
	.st12{fill:#F08300;}
	.st13{clip-path:url(#SVGID_00000153691256271231064000000017022434497151603120_);}
	.st14{fill:#93431D;}
	.st15{opacity:0.2;fill:#93431D;enable-background:new    ;}
	.st16{fill:#FDD000;}
	.st17{fill:#F8B500;}
	.st18{opacity:0.25;fill:#782410;enable-background:new    ;}
	.st19{fill:#FEEBBE;}
</style>
<g>
	<g id="_レイヤー_2">
		<g id="_イラスト">
			<g>
				<g>
					<path class="st0" d="M494.9,159.9c0,85.3-110.7,154.5-247.2,154.5S0.4,245.3,0.4,159.9S111.1,5.5,247.7,5.5
						S494.9,74.6,494.9,159.9L494.9,159.9z"/>
					<ellipse class="st1" cx="247.7" cy="154.5" rx="247.2" ry="154.5"/>
					<ellipse class="st2" cx="247.7" cy="157.8" rx="189.8" ry="118.6"/>
					<ellipse class="st3" cx="247.7" cy="157.8" rx="227.8" ry="142.3"/>
				</g>
				<g>
					<path class="st4" d="M90,177.5c-0.7,16.8-3.6,28.6,16.2,43.7s22.4,35.9,99.6,45.1c86.7,10.3,174.1-14.4,186.7-37.9
						c12.6-23.6,44.5-32.4,15.7-76.1s-61.1-52.2-111.4-53.8S93.6,95.1,90,177.5L90,177.5z"/>
					<path class="st5" d="M318.1,40.4c-0.1-0.4-0.3-0.8-0.7-1c-0.4-0.2-0.8-0.3-1.2-0.1c-31.2,10-63.6,15.6-96.4,16.5
						c-0.4,0-0.8,0.2-1.1,0.5s-0.4,0.8-0.3,1.2l1.8,10.7c0.1,0.7,0.7,1.2,1.4,1.2c0,0,0,0,0,0c33-0.9,65.7-6.5,97.2-16.7
						c0.7-0.2,1.1-0.9,1-1.7L318.1,40.4L318.1,40.4z"/>
					<path class="st5" d="M352.6,53.8c-0.1-0.4-0.3-0.8-0.7-1c-0.4-0.2-0.8-0.3-1.2-0.1c-31.2,10-63.6,15.6-96.4,16.5
						c-0.4,0-0.8,0.2-1.1,0.5s-0.4,0.8-0.3,1.2l1.8,10.7c0.1,0.7,0.7,1.2,1.5,1.2c0,0,0,0,0,0c33-0.9,65.7-6.6,97.2-16.7
						c0.7-0.2,1.1-0.9,1-1.7L352.6,53.8L352.6,53.8z"/>
					<path class="st6" d="M322.9,52.5c0-0.4-0.2-0.8-0.5-1.1c-0.3-0.3-0.8-0.4-1.2-0.3c-18.9,3.2-38.1,4.8-57.3,4.8
						c-13.5,0-27.1-0.8-40.5-2.4c-0.4,0-0.9,0.1-1.2,0.4c-0.3,0.3-0.5,0.7-0.5,1.1c0.1,3.6,0.2,7.2,0.3,10.8c0,0.7,0.6,1.3,1.3,1.4
						c13.5,1.6,27.2,2.4,40.8,2.4c19.3,0,38.7-1.6,57.8-4.8c0.7-0.1,1.2-0.8,1.2-1.5L322.9,52.5L322.9,52.5z"/>
					<path class="st6" d="M362.9,68.9c0-0.4-0.2-0.8-0.5-1.1c-0.3-0.3-0.8-0.4-1.2-0.3c-18.9,3.2-38.1,4.8-57.3,4.8
						c-13.5,0-27.1-0.8-40.5-2.4c-0.4-0.1-0.9,0.1-1.2,0.4c-0.3,0.3-0.5,0.7-0.5,1.1c0.1,3.6,0.2,7.2,0.3,10.8
						c0,0.7,0.6,1.3,1.3,1.4c13.5,1.6,27.2,2.4,40.8,2.4c19.3,0,38.7-1.6,57.8-4.8c0.7-0.1,1.2-0.8,1.2-1.5L362.9,68.9L362.9,68.9z"
						/>
					<g>
						<path class="st7" d="M156.7,41.2c0.3,1.6,1.7,4,3.5,6.8c-0.7-1.8-1.4-3.5-2.2-5C157.5,42.3,157,41.8,156.7,41.2L156.7,41.2z"
							/>
						<path class="st8" d="M158,43c6.8,8.8,22.9,25.7,51.5,35.4c22.1,7.5,44.9,2.1,73-5.5c-1.1-5.9-51.2-13.2-57-15.2L201.9,52
							c-6-2-43.2-17.9-45.2-11.9c0,0.1-0.1,0.3-0.1,0.4C157.1,41.3,157.5,42.1,158,43L158,43z"/>
						<path class="st9" d="M209.4,78.4C180.8,68.6,164.8,51.8,158,43c0.8,1.6,1.5,3.3,2.2,5c4.2,6.3,10.9,14.1,12.6,16.3
							c0.6,0.8,1.2,1.5,1.8,2.1c11.8,13.3,29,14.6,45.1,20c11.9,3.9,26.7,2.3,38.5-1.2c4.1-1.2,22.8-7.7,24.1-11.8
							c0.1-0.2,0.1-0.3,0-0.5C254.3,80.5,231.5,85.9,209.4,78.4L209.4,78.4z"/>
						<path class="st9" d="M156.6,40.5c0,0.2,0,0.4,0.1,0.7c0.4,0.5,0.8,1.1,1.3,1.7C157.5,42.1,157.1,41.3,156.6,40.5L156.6,40.5z"
							/>
					</g>
					<g>
						<path class="st8" d="M139.8,88.6c-17.2,12.7-34.8,33.8-42.9,44.1c-0.3,1.6-0.3,2.9,0,3.5c3,5.5,34.5-17.4,40-20.3l22.1-9.6
							c5.4-2.9,53.7-18.8,53.6-24.8C183.4,78.5,158.5,74.8,139.8,88.6L139.8,88.6z"/>
						<path class="st9" d="M139.8,88.6c18.8-13.8,43.7-10.1,72.8-7.1c0-0.2,0-0.3-0.1-0.5c-2.1-3.8-21.6-7-25.8-7.5
							c-12.2-1.4-27.1-0.5-38.1,5.5c-15,8.1-31.7,12.3-41,27.4c-0.5,0.8-0.9,1.6-1.4,2.4c-1.6,3.1-7.9,16.9-9.2,23.9
							C105,122.4,122.5,101.3,139.8,88.6L139.8,88.6z"/>
					</g>
					<g>
						<path class="st8" d="M184.2,94.4c21-3.7,46.1-14.9,58-20.5c1-1.3,1.6-2.4,1.6-3.2c-0.2-6.3-38.6,0.3-44.9,0.5l-24.1-1.2
							c-6.1,0.2-56.5-6.9-59-1.5C140.5,84.1,161.2,98.5,184.2,94.4z"/>
						<path class="st9" d="M115.7,68.6c-0.1,0.2-0.1,0.3-0.1,0.5c0.2,4.4,16.2,15.8,19.8,18.2c10.4,6.7,24.1,12.4,36.6,12
							c17-0.6,33.9,3,48.9-6.5c0.8-0.5,1.5-1,2.3-1.6c2.8-2,14.6-11.7,18.8-17.3c-11.8,5.7-36.9,16.8-58,20.5
							C161.2,98.5,140.5,84.2,115.7,68.6z"/>
					</g>
					<g>
						<path class="st10" d="M347.2,82.9c0,14.4-13.2,26-29.6,26s-29.6-11.6-29.6-26s13.2-26,29.6-26S347.2,68.5,347.2,82.9z"/>
						<g>
							<defs>
								<ellipse id="SVGID_1_" cx="317.7" cy="82.9" rx="29.6" ry="26"/>
							</defs>
							<clipPath id="SVGID_00000039824508492889888960000015059110048611598014_">
								<use xlink:href="#SVGID_1_"  style="overflow:visible;"/>
							</clipPath>
							<g style="clip-path:url(#SVGID_00000039824508492889888960000015059110048611598014_);">
								<path class="st12" d="M347.2,69.4c0,14.4-13.2,26-29.6,26s-29.6-11.6-29.6-26s13.2-26,29.6-26S347.2,55.1,347.2,69.4z"/>
							</g>
						</g>
					</g>
					<g>
						<path class="st10" d="M393.9,110.3c-2,14.1-16.8,23.6-33,21.2c-16.2-2.4-27.6-15.8-25.5-29.9c2-14.1,16.8-23.6,33-21.2
							C384.5,82.8,396,96.2,393.9,110.3z"/>
						<g>
							<defs>
								<path id="SVGID_00000102522362814118777990000010467519841045060227_" d="M393.9,110.3c-2,14.1-16.8,23.6-33,21.2
									c-16.2-2.4-27.6-15.8-25.5-29.9c2-14.1,16.8-23.6,33-21.2C384.5,82.8,396,96.2,393.9,110.3z"/>
							</defs>
							<clipPath id="SVGID_00000133488979474153609110000018188290541036477065_">
								<use xlink:href="#SVGID_00000102522362814118777990000010467519841045060227_"  style="overflow:visible;"/>
							</clipPath>
							<g style="clip-path:url(#SVGID_00000133488979474153609110000018188290541036477065_);">
								<path class="st12" d="M395.8,97.1c-2,14.1-16.8,23.6-33,21.2c-16.2-2.4-27.6-15.8-25.5-29.9c2-14.1,16.8-23.6,33-21.2
									C386.5,69.6,397.9,83,395.8,97.1z"/>
							</g>
						</g>
					</g>
					<path class="st14" d="M362.9,134.4c8.1,18,9.9,38.9-2.2,56c-19.5,27.7-50.5,29.7-79.3,34.1c-27.9,4.3-40.8,2-71.5,0.1
						c-18.2-1.1-38.1-5.5-53.6-17.2c-20.1-15.2-28.4-50.1-15.5-74.8c12.8-24.4,34-38,59.9-42.6c27-4.8,57.4-7.4,84.5-4
						c17,2.2,40.3,10.1,54.1,21.3C348.6,114.8,357.3,121.9,362.9,134.4L362.9,134.4z"/>
					<path class="st15" d="M147.3,150.7c3.5-2,10,11.8,14.5,12.7s0.9,1.8,8.2,6.4s8.6,5.1,12.7,7.3c35.9,18.5,121.8,5.1,147.1,0.9
						c21.8-3.6,26.3-13.6,28.1-16.3s6.4-9.1,6.4-3.6s0.3,34.2-18.2,42.7c-80,36.5-172.6,17.8-187,0.9
						C145.2,185.3,132.8,158.9,147.3,150.7L147.3,150.7z"/>
					<path class="st4" d="M131,233.3c-18.7-9.9-19.1-26.3-5.4-36.3c13.6-10,9.7,2.2,29.8-8.6c13.3-7.1,27.4-37.7,58.2-53.1
						c30.9-15.4,59-10.9,77.2-0.9s16.3,9.1,24.5,12.7s24.5,27.7,25.4,35.4c3.6,29.1,18.2,24.5,26.3,6.4c4.1-9.1,10-4.5,10.9,15.4
						s-22.7,52.7-125.3,35.4C187.3,228.7,160.1,248.7,131,233.3L131,233.3z"/>
				</g>
				<path class="st2" d="M365.2,157.8c-0.3-12.5-8.4-25.1-16.5-34.3c-13.3-15.1-30-20.4-49.7-22.3c-19.2-1.8-43.2-15.7-62.3-8.2
					c-8,3.2-13.7,9.8-20.3,15c-5.3,4.1-11.1,7.4-16.6,11.3c-11.6,8.4-19.1,18.9-14.3,33.6c6.1,19,15.9,42.2,35.4,50.9
					c18,8,37.5-1.4,55.9,4.3c11.5,3.6,24.9,8.2,37.6,7.1c17.1-1.5,23.5-12.3,32.1-25.3c4.2-6.4,10.7-10.7,14.7-17.4
					C364.1,167.9,365.3,162.9,365.2,157.8L365.2,157.8z"/>
				<g>
					<path class="st16" d="M306.2,140.8c0,15.5-15.2,28-34,28s-34-12.6-34-28s15.2-28,34-28S306.2,125.3,306.2,140.8L306.2,140.8z"
						/>
					<path class="st17" d="M244.3,143.1c0,0,8.4,8.5,23.1,10.8c14.7,2.3,33.9-7.2,33.9-7.2s-12.1,18-31.3,16.5
						S246.6,152.3,244.3,143.1L244.3,143.1z"/>
					<path class="st8" d="M282.8,124.9c0,3-3.2,5.5-7.3,5.5s-7.3-2.4-7.3-5.5s3.2-5.5,7.3-5.5S282.8,121.9,282.8,124.9z"/>
				</g>
				<path class="st18" d="M154.3,202.2c0,0,18.4,25.4,63.4,30.4c45,5.1,104-1.3,114.2-8.9s-38.7,1.9-56.5,4.4
					c-17.8,2.5-61.5,0.6-79.9-10.8C177.1,206,177.8,192,174,189.5C170.2,186.9,163.8,199,154.3,202.2L154.3,202.2z"/>
				<path class="st19" d="M283.3,193.6c0,0,23.7,9.1,31,7.3c7.3-1.8,17-18.9,24.3-21.3c7.3-2.4,19.5-18.9,18.9-24.3
					s7.9,14.6-6.7,23.7c-14.6,9.1-11.9,23.4-25,28.6c-24.3,9.7-45-4.9-56-4.9s-26.2,0-37.1-0.6s-17.6-3.6-23.1-17
					c0,0,7.9,12.2,26.8,7.9S273,189.3,283.3,193.6L283.3,193.6z"/>
			</g>
		</g>
	</g>
</g>
</svg>
