<?xml version="1.0" encoding="UTF-8"?>
<svg xmlns="http://www.w3.org/2000/svg" xmlns:xlink="http://www.w3.org/1999/xlink" viewBox="0 0 495.35 314.87">
  <defs>
    <style>
      .cls-1 {
        clip-path: url(#clippath);
      }

      .cls-2, .cls-3 {
        fill: none;
      }

      .cls-2, .cls-4, .cls-5, .cls-6, .cls-7, .cls-8, .cls-9, .cls-10, .cls-11, .cls-12, .cls-13, .cls-14, .cls-15 {
        stroke-width: 0px;
      }

      .cls-16, .cls-5 {
        fill: #74a92d;
      }

      .cls-17 {
        clip-path: url(#clippath-1);
      }

      .cls-18 {
        clip-path: url(#clippath-4);
      }

      .cls-19 {
        clip-path: url(#clippath-3);
      }

      .cls-20 {
        clip-path: url(#clippath-2);
      }

      .cls-21 {
        fill: #f3d4a1;
        stroke: #f3d4a1;
        stroke-width: .88px;
      }

      .cls-21, .cls-3 {
        stroke-linecap: round;
        stroke-linejoin: round;
      }

      .cls-3 {
        stroke: #fff;
        stroke-width: 4.25px;
      }

      .cls-4 {
        fill: #93431d;
        mix-blend-mode: multiply;
        opacity: .2;
      }

      .cls-22 {
        isolation: isolate;
      }

      .cls-6 {
        fill: #54642a;
      }

      .cls-7 {
        fill: #a56438;
      }

      .cls-8 {
        fill: #c0d394;
      }

      .cls-9 {
        fill: #85b040;
      }

      .cls-10 {
        fill: #82351c;
      }

      .cls-11 {
        fill: #fef7e1;
      }

      .cls-12 {
        fill: #fef4d7;
      }

      .cls-13 {
        fill: #fff;
      }

      .cls-14 {
        fill: #feebbe;
      }

      .cls-15 {
        fill: #691c07;
      }
    </style>
    <clipPath id="clippath">
      <path class="cls-5" d="m305.35,208.17c0,4.6-3.73,8.33-8.33,8.33s-8.33-3.73-8.33-8.33,3.73-8.33,8.33-8.33,8.33,3.73,8.33,8.33Z"/>
    </clipPath>
    <clipPath id="clippath-1">
      <path class="cls-5" d="m208.85,193.98c0,4.6-3.73,8.33-8.33,8.33s-8.33-3.73-8.33-8.33,3.73-8.33,8.33-8.33,8.33,3.73,8.33,8.33Z"/>
    </clipPath>
    <clipPath id="clippath-2">
      <path class="cls-5" d="m223.04,139.34c0,4.6-3.73,8.33-8.33,8.33s-8.33-3.73-8.33-8.33,3.73-8.33,8.33-8.33,8.33,3.73,8.33,8.33Z"/>
    </clipPath>
    <clipPath id="clippath-3">
      <path class="cls-5" d="m143.86,148.22c0,4.6-3.73,8.33-8.33,8.33s-8.33-3.73-8.33-8.33,3.73-8.33,8.33-8.33,8.33,3.73,8.33,8.33Z"/>
    </clipPath>
    <clipPath id="clippath-4">
      <path class="cls-5" d="m169.41,86.49c0,4.6-3.73,8.33-8.33,8.33s-8.33-3.73-8.33-8.33,3.73-8.33,8.33-8.33,8.33,3.73,8.33,8.33Z"/>
    </clipPath>
  </defs>
  <g class="cls-22">
    <g id="_レイヤー_2" data-name="レイヤー 2">
      <g id="_イラスト" data-name="イラスト">
        <g>
          <g>
            <path class="cls-21" d="m494.91,159.95c0,85.32-110.69,154.48-247.23,154.48S.44,245.26.44,159.95,111.13,5.46,247.68,5.46s247.23,69.16,247.23,154.49Z"/>
            <ellipse class="cls-14" cx="247.68" cy="154.48" rx="247.23" ry="154.48"/>
            <ellipse class="cls-13" cx="247.68" cy="157.83" rx="189.84" ry="118.62"/>
            <ellipse class="cls-3" cx="247.68" cy="157.83" rx="227.81" ry="142.34"/>
          </g>
          <path class="cls-13" d="m416.71,137.29c.09-5.16-3.21-10.13-4.14-15.21-1.15-6.23-3.33-13.13-5.99-18.82-3.96-8.49-6.44-15.52-13.63-21.52-3.63-3.03-9.9-3.1-13.75-5.86-4.14-2.96-5.86-8.61-9.64-12.01-4.51-4.06-11.77-3.79-16.03-5.96-4.85-2.47-6.76-7.23-12.87-10.02-2.89-1.32-6.26.38-9.38-1.11-3.33-1.59-6.43-6.35-9.89-7.41-3.46-1.06-7.05-1.06-10.65-1.03-3.89.04-7.78.13-11.55-1.02-5.69-1.72-11.44-4.22-17.5-4.05-5.19.14-11.84,4.33-16.9,3.1-3.14-.76-5.51-2.17-8.82-2.54-5.43-.61-11.78-.95-15.93,2.99-2.81,2.67-10.61,5.24-14.88,5.26-8.27.04-13.99,3.22-19.24,10.3.91.44,2.08,1.74,3,2.16-4.39.35-7.64,3.25-9.7,6.99-4.03,7.29-8.22,13.18-12.7,20.14-5.75,8.92-5.96,20.72-8.17,30.79-1.33,6.07-2.67,12.22-2.39,18.42.37,8.21-3.21,17.89-1.66,25.97,3.15,16.47,12.58,21.9,27.05,31.02,15.05,9.49,24.62,25.53,39.86,34.23,10.34,5.91,22.27,7.35,33.73,9.77,10.38,2.2,23.1,11.06,32.97,8.9,9-1.97,18.22,1.03,27.27,2.72,7.25,1.35,15.8,1.83,22.39-2.09,6.12-3.63,9.66-9.72,16.59-12.76,10.27-4.49,25.08-15.28,27.05-27.13.47-2.8.18-5.66.38-8.49.44-6.23,2.39-12.02,4.73-17.69,1.75-4.25,3.71-8.44,5.42-12.69,1.81-4.52,3.12-9.27,3.94-14.13.63-3.7.97-7.47,1.04-11.26Z"/>
          <path class="cls-10" d="m410,199.08c-8.47.47-57.72,20.52-64.13,15.4-14.1-11.27-12.07-29.57-24.43-42.47-11.52-12.02-32.26-10.24-47.94-17.18-19.77-8.76-23.18-34.62-35.66-50.56-9.2-11.75-21.24-14.33-24.88-28.85-3.92-15.62,8.65-35.17,22.7-34.38-55.72-3.15-162.64,27.12-175.19,101.46-7.11,42.13,19.48,79.07,54.44,99.21,19.35,11.15,43.84,23.72,66.08,27.45,33.75,5.66,80.86,8.53,114.58,3.15,27.04-4.31,43.43-8.71,67.91-21.43,37.09-19.27,80.66-53.67,46.5-51.79Z"/>
          <path class="cls-4" d="m182.96,73.49c-2.35,8.34-2.45,15.88-7.57,22.72-5.68,7.57-1.77,17.25-.95,24.61.84,7.53,1.06,33.82,3.79,40.7,5.89,14.89,4.91,9.67,14.2,22.72,1.83,2.57,13.91,14.74,17.04,15.15,2.26.29,25.24,16.64,27.45,16.09,10.93-2.72,20.32,2.56,28.4,10.41,8.07,7.85,21.39,2.29,32.18-.95,2.66-.8,17.21,8.35,19.88,7.57,11.58-3.36,6.37-6.07,17.99-2.84,12.1,3.36,26.46-7.74,38.14-3.12,1.53.61,2.47,3.97,3.78,2.98,7.31-5.54,14.06-4.63,12.04-2.7-11.18,10.65-41.08,26.37-55.92,30.63-57.48,16.52-116.99,20.36-173.18.19-25.36-9.1-59.36-28.52-77.23-49.09-18.47-21.26-23.58-50.03-13.95-76.65.38-1.03.77-2.05,1.18-3.07,11.25-27.41,35.56-47.81,62.34-60.5,26.78-12.68,56.18-18.56,85.25-24.33-9.85,7.61-31.42,17.3-34.85,29.47Z"/>
          <g>
            <path class="cls-15" d="m193.64,213.67c-2.91-1.55-7.38-1.29-10.76-1.52-5.36-.37-12.01-.14-17.05-1.69-4.22-1.3-6.52-4.7-10.81-5.83-2.04-.54-3.55.17-5.42-.12-1.86-.29-1.92-1.07-2.97-2.28-1.55-1.77-3.52-3.72-6.38-4.22-3.66-.64-5.79,1.69-8.99,2.46-2.97.72-5.42.62-7.3,2.84-.45.53-.76,1.11-.98,1.71-.1.02-.2.03-.3.05-2.99.71-6.01,2.28-6.56,4.81-.75,3.4,2.6,4.05,5,5.94,1.28,1.01,1.72,2.42,3.25,3.41,1.73,1.12,4.02,1.87,6.17,2.35,4.12.91,8.59.53,12.5-.82,1.89-.65,3.32-1.83,5.2-2.43,2.94-.93,6.95-.29,10.03.08,11.2,1.35,22.81,4.08,34.15,2.58,4.76-.63,4.51-5.56,1.23-7.31Zm-54.18-10.24c.06.04.13.07.19.11.05.03.08.07.13.11-.11-.07-.22-.14-.32-.21Z"/>
            <path class="cls-15" d="m191.04,149.02c-5.75-.69-11.51-.94-16.82,1.78-2.96,1.52-5.12,3.94-7.86,5.76-3.48,2.32-5.53,1.33-8.61-1.14-4.15-3.34-8.35-5.71-13.87-4.09-4.7,1.38-7.63,5.44-6.92,10.33.76,5.21,4.76,9.3,9.77,10.64,3.55.95,6.66.1,9.81-.77,0,0,.01,0,.02.01,1.76,1.04,3.78.57,5.62.02,3.83-1.15,6.28-2.6,10.61-1.32,3.28.97,6.11,2.92,9.64,3.04,3.32.11,5.95-1.48,9.08-2.18,3.5-.79,5.07-.64,8.01-2.82,2.53-1.87,6.06-2.2,9.09-3.63,2.1-.99,2.73-3.64,2.32-5.7-1.75-8.66-12.9-9.11-19.89-9.94Z"/>
            <path class="cls-15" d="m124.27,121.29c6.34-1.81,13.44-2.03,20.12-1.09,4.78.68,7.74-2.98,6.82-5.79.04,0,.08-.02.13-.03,2.62-.54,4.93-.76,7.25-1.06,4.49-.59,8.12-1.57,9.81-5.21.89-1.91-.57-4.51-2.78-5.44-3.73-1.58-7.46-2.21-11.58-2.82-2.51-.37-4.59-.78-6.85-1.71-1.77-.74-3.17-1.63-5.15-2.03-3.97-.8-7.03.61-10.06,2.5-.84.52-1.67,1.06-2.49,1.6-.43-.31-1.07-.45-1.66-.19-.47.21-.95.44-1.45.7-1.86-.8-4.22-.94-6.38-.05-2.37.97-5.13,3.36-7.86,3.58-.23,0-.46.01-.69.01-8.45-.03-8.25,9.88,0,10.37.55.03,1.07.03,1.59,0-.35,1.82-.07,3.64,1.1,5.35,2.29,3.35,6.43,2.36,10.13,1.31Z"/>
            <path class="cls-15" d="m317.06,227.62c-1.71-2.6-3.92-3.69-6.37-3.93-8.41-3.66-17.52-8.7-25.03-3.55-1.82.03-3.63.03-5.44-.19-1.48-.41-2.95-.63-4.54-.78-1.38-.13-2.53.18-3.44.77-10.21-.79-24.21-1.85-23.71,9.63.12,2.71,1.68,4.77,3.98,5.69-.08.45-.12.92-.11,1.41.13,5.38,5.32,7.19,9.9,6.39,1.24-.22,2.42-.64,3.61-.99.32,4.12,6.01,7.6,10.31,4.08,5.4-4.37,11.58-5.22,18.22-6.29,3-.49,5.87-1.32,8.78-2.2,1.04-.32,3.5-1.4,5.11-1.81.62.24,1.23.49,1.85.73,4.96,1.91,9.68-4.71,6.88-8.95Z"/>
          </g>
          <path class="cls-12" d="m288.37,64.7c-1.04.77-2.14-.5-3.14-.64-.74-.1-1.6.27-2.26.55-.46.19-.97.55-1.48.52-1.11-.06-1.7,1.78-2.59,1.29-.89-.49-4.54.62-5.4.86.3-.08,1.7-4.13,2.53-4.86,1.61-1.43,3.23-1.57,5.28-1.78,3.49-.35,9.09.34,9.87,4.69-1.04.08-1.82-.29-2.82-.64Z"/>
          <path class="cls-12" d="m353.05,64.78c-.18-.38-.57-.67-.94-.93-1.18-.82-2.6-1.41-3.86-2.08-1.18-.62-2.1-1.82-3.36-2.25-.74-.26-1.59.13-2.29-.17,0,0-4.49,1.61-3.04,2.24,1.44.64,5.98.98,6.51,3.22.53,2.23,8.79,8.39,10.23,7.4,1.44-.99-2.94-6.79-3.25-7.43Z"/>
          <path class="cls-12" d="m411.68,190.25c-1.9-.07,2.6-2.3,3.4-3.93.53-1.07.71-2.07.05-3.11-.5-.78-1.18-1.29-1.42-2.25-.53-2.09,1-3.95,1.27-5.99.12-.9.09-1.75-.1-2.64-.14-.68,6.09-3.96,6.06-3.18-.22,5.7,1.8,6.91.27,13.14-1.53,6.23-4.92,8.13-9.53,7.97Z"/>
          <path class="cls-12" d="m253.32,50.5c-5.19,2.15-15.96,1.81-17.24,5.77,0,0,1.33-6.49,5.28-8.32,3.95-1.83,4.47-.22,6.87-.03,2.4.18,6.73,1.9,5.09,2.58Z"/>
          <path class="cls-12" d="m226.63,67.64c1.17,5.49-1.13,16.02,2.53,18,0,0-6.14-2.49-7.22-6.7-1.08-4.21.6-4.44,1.22-6.76.62-2.33,3.1-6.27,3.47-4.54Z"/>
          <path class="cls-11" d="m410.06,154.36c.97-1.92,2.09-4.01,2.3-6.18.14-1.4,0-2.74.24-4.14.28-3.06-4.9-5.42-5.05.9-.09,3.67.42,7.73-.9,9.06-1.32,1.33,3.41.36,3.41.36Z"/>
          <path class="cls-12" d="m396.49,107.75c.1-1.14-.37-2.31-.84-3.38-.35-.8-1.27-1.02-1.52-1.77-.54-1.62,0-3.07-1.5-4.34-.26-.22-1.82-1.21-2-.58,0,0-3.68,2.39-1.27,4.58,2.41,2.19,2.34,7.84,3.74,8.24,1.4.39,3.06,1.02,3.39-2.75Z"/>
          <path class="cls-7" d="m103.83,173.16s-3.3,14.01,17.92,21.62c21.22,7.61-11.74,3.09-3.58-44.52,1.5-8.75-19.69,14.57-14.34,22.9Z"/>
          <path class="cls-7" d="m210.81,196.89s1.73-14.29-20.2-19.51c-21.93-5.21,11.32-4.37,8.48,43.85-.52,8.87,17.96-16.66,11.72-24.35Z"/>
          <path class="cls-7" d="m237.38,230.16s-19.74-12.97-42.95,1.08c-23.21,14.05,11-8.81,58.67,23.16,8.76,5.88-2.69-24.41-15.72-24.24Z"/>
          <path class="cls-12" d="m356.72,200.5s14.17,1.36,17.47-1.96c3.3-3.33,2.34-8.33,5.64-11.66,3.3-3.33,8.16-7.17,8.16-7.17,0,0,1.28,5.56-4.18,14.9-5.46,9.34-6.08,11.54-11.58,10.94-5.51-.6-15.51-5.05-15.51-5.05Z"/>
          <path class="cls-11" d="m320.39,73.46s3.7,1.98,6.84,4.28c3.14,2.3,6.49-2.91,3.79-5.08-2.7-2.18-11.27-3.64-10.63.8Z"/>
          <path class="cls-11" d="m357.15,183.02s-4.63,2.22-8.45,1.51c-3.83-.71-4.15,3.04-.77,3.83,3.38.79,11.73-1.63,9.22-5.34Z"/>
          <path class="cls-11" d="m356.55,103.19c1.72,2.14,5.72,4.06,1.54,10.23-4.18,6.18-2.49,7.14-6.57,9.43-4.07,2.29-5.02,7.41-6.04,11.05-1.02,3.63,1.71,4.4,3.89.11,2.18-4.29,2.88-8.5,7.35-8.72s7.24-4.83,6.06-7.61c-1.18-2.78.44-3.31,1.33-6.49.89-3.18-1.72-7.83-4.57-8.15-2.85-.31-5.52-3.02-2.98.14Z"/>
          <path class="cls-7" d="m185.37,73.08s-52.58,12.09-60.54,20.39c-7.96,8.29,12.97-38.92,60.54-20.39Z"/>
          <path class="cls-7" d="m324.35,241.51s-16.84-51.26-25.82-58.43c-8.98-7.17,39.94,9.37,25.82,58.43Z"/>
          <path class="cls-13" d="m88.29,130.83c7.14-7.89,16.99-12.19,26.11-17.28,10.55-5.88,20.4-11.38,32.79-12.1,4.77-.28,8.97,1.4,13.62,1.51,6.5.15,11.12-3.74,16.02-7.41,7.02-5.26,11.92-9.34,21.11-9.98,2.94-.2,10.86-1.47,10.77,2.52-.06,2.95-7.01,4.82-9.47,6.35-5.51,3.43-10.86,7.76-15.75,12.03-5.17,4.52-8.01,11.77-14.99,12.99-7.58,1.33-15.07,2.02-22.7,2.84-7.02.75-13.72,3.4-20.43,5.43-10.67,3.23-21.5,7.71-26.45,18.54-4.17,9.14-.07,15.71,9.95,15.45,6.33-.16,11.46-3.43,16.93-6.29,7.57-3.95,15.23-7.8,23.55-9.87,7.48-1.86,14.45-1.63,21.92-1.89,4.76-.17,8.07-4.02,12.17-6.36,13.95-7.94,29.38-15.68,45.34-18.44,3.62-.63,18.27-.3,10.67,7.62-2.43,2.53-6.61,3.59-9.79,4.75-7.47,2.74-15.17,4.62-22.52,7.73-6.2,2.62-12.31,5.6-18.24,8.79-3.52,1.89-6.73,4.21-10.18,6.18-4.05,2.3-7.45,2.22-11.88,2.72-13.91,1.57-28.07,4.81-40.95,10.41-9.3,4.04-23.1,13.06-25.69,23.75-2.43,10.05,14.71,7.86,19.9,6.68,8.03-1.83,15.29-6.05,23-8.78,8.64-3.07,17.9-5.86,27.05-6.78,3.72-.37,7.35.42,10.98.21,2.96-.17,4.99-1.9,7.48-3.33,7.55-4.32,16.33-7.3,24.22-11.01,8.16-3.84,17.2-7.26,25.95-9.58,3.94-1.05,8.89-2.71,12.69-.47,11.42,6.74-1.92,11.63-5.66,13.19-13.9,5.79-28.15,10.86-41.43,18.02-1.56.84-.17,3.22,1.39,2.38,13.11-7.07,27.18-12.19,40.87-18.01,6.19-2.63,19.14-9.13,9.82-16.82-9.7-8-23.63-.47-33.7,2.61-7.07,2.17-13.7,5.57-20.34,8.78-7.58,3.67-16.63,9.56-24.92,9.97-15.24.75-29.85,4.37-43.89,10.46-7.06,3.06-17.32,8.18-25.29,5.89-1.96-.56-3.75-.35-3.47-3.22.16-1.65,3.57-5.29,4.37-6.17,2.81-3.11,6.23-5.75,9.66-8.13,13.54-9.4,32.15-13.35,48.3-15.14,2.71-.3,5.76.15,8.41-.46,2.76-.63,4.96-2.56,7.27-4.07,7.55-4.92,15.73-8.99,23.96-12.66,7.12-3.17,14.53-5.28,21.85-7.9,5.2-1.87,11.97-3.77,15.26-8.59,7.41-10.85-5.27-14.33-13.84-13.29-15.44,1.87-30.71,9.41-44.24,16.63-3.48,1.86-6.83,3.9-10.21,5.92-3.59,2.14-3.39,1.82-6.7,1.52-7.55-.68-15.98.59-23.28,2.48-6.8,1.76-13.26,4.62-19.58,7.64-4.67,2.23-24.6,12.84-21.36,1.21,1.86-6.69,9.68-11.36,15.69-13.56,7.67-2.81,15.88-6.13,23.84-7.98,7.24-1.68,14.35-1.92,21.48-4.26,6.74-2.21,8.74-2.5,12.3-8.25,5.5-8.9,13.59-13.29,23.26-16.65,4.68-1.63,11.96-2.55,14.68-7.38,2.5-4.43-.36-8.86-4.61-10.56-6.25-2.49-13.04-.02-18.79,2.5-7.58,3.32-14.37,6.73-21.39,11.17-5.34,3.38-9.3,3.35-15.48,2.17-1.87-.36-3.78-.53-5.68-.58-12.35-.3-26.23,3.04-38.02,6.47-11.45,3.33-23.57,11.06-31.02,20.42-4.05,5.08,2.76,12.36,7.32,7.32h0Z"/>
          <path class="cls-12" d="m314.78,158.85c.94.26,1.93.52,2.92.53.72.01,1.31-.17,2.01-.33,1.05-.24,2.15-.38,3.22-.48,1.24-.11,2.33-.03,3.32-.88,1.31-1.13,1.62-2.99,3.42-3.48,1.11-.3,2.73-.42,3.27-1.6,0,0-3.21,11.56-10.46,11.84-7.26.29-7.69-5.61-7.69-5.61Z"/>
          <path class="cls-13" d="m196.76,195.4c-5.7-.08-11.39,2.63-16.73,4.41-5.5,1.83-10.39,4.37-15.31,7.43-7.83,4.88-19.52,11.67-23.19,20.75-3.55,8.78,8.2,8.99,13.76,8.9,13.46-.21,24.45-4.68,36.4-10.54,5.8-2.84,11.63-5.59,17.47-8.34,2.79-1.32,5.51-2.8,8.3-4.11,3.22-1.52,7.08-1.71,10.12-3.48,4.46-2.59,7.89-7.47,12.18-10.51,6.21-4.39,12.7-8.51,19.26-12.35,5.95-3.49,12.48-6.64,19.2-8.32,3.39-.85,11.37-2.34,11.01,3.6-.22,3.6-6.32,7.32-8.76,8.98-9.32,6.36-21.37,10.67-28.86,19.3-2.46,2.84-3.66,6.02-7.04,8.11-3.11,1.93-6.89,3.28-10.19,4.93-7.05,3.54-14.19,6.92-21.19,10.56-5.61,2.92-20.88,8.38-21.36,16.26-.03.52.32,1.13.78,1.36,7.28,3.73,17.51,1.55,25.42,1.75,12.76.32,25.54,1.37,38.17,3.19,9.71,1.4,19.4,1.91,28.97-.72,4.65-1.28,8.87-3.42,13.25-5.36,5.24-2.33,10.83-3.53,16.13-5.72,5.62-2.32,3.55-10-2.51-9.09-8.02,1.2-14.2,1.91-21.54,5.67-8.8,4.5-16.92,6.51-26.84,6.45-17.85-.1-35.64.08-53.45,1.6-3.67.31-7.78,1.24-11.47.75-7.14-.93-.06-4.32,2.67-5.95,6.64-3.96,13.61-7.4,20.61-10.66,8.04-3.75,16.22-7.24,24.21-11.06,5.57-2.67,8.87-8.75,13.81-12.5,9.81-7.44,25.27-12.16,32.19-22.91,5.97-9.28-3-15.48-11.96-13.96-15.51,2.63-30.2,13.49-42.62,22.51-2.61,1.9-5.45,3.85-7.76,6.13-.8.79-1.45,1.81-2.29,2.58-2.83,2.58-4.24,2.23-7.47,3.23-7.06,2.19-14.07,6.44-20.7,9.7-8.9,4.38-17.61,9.52-27.01,12.8-5.31,1.85-10.44,2.46-16.05,2.68-1.42.06-3.12.3-4.5.19-3.48.63-5.77-1.25-6.87-5.64.68-1.06,1.44-2.06,2.29-3,5.73-6.93,12.93-12.18,20.43-17.05,4.5-2.91,8.99-5.05,14.03-6.93,4.73-1.77,9.89-4.35,15-4.44.76-.01.76-1.17,0-1.18h0Z"/>
          <g>
            <path class="cls-2" d="m278.86,104.77c-1.64-.26-3.28-.5-4.92-.74,1.77.3,3.42.57,4.91.82v-.07Z"/>
            <g>
              <g>
                <path class="cls-6" d="m294.5,96.97c-1.68,1.79-4.09,5.87-3.64,7.33l.44,1.45h0l3.58-.78-.67-4.26.28-3.75Z"/>
                <path class="cls-6" d="m287.61,94.32s-2.3,3.41-4.71,3.35c-2.41-.06-5.43,1.5-5.43,1.5l3.3,2.97s7.62-4.25,6.84-7.83Z"/>
                <path class="cls-6" d="m302.41,128.04c.22-1.24.11-3.66-.49-4.16l-.6-.5h0l-1.32,1.34,1.48,1.63.93,1.69Z"/>
                <path class="cls-6" d="m303.63,142.02c-1.63,1.1-4.23,3.86-4.14,5.07l.09,1.21h0l2.94.02.23-3.43.89-2.88Z"/>
                <path class="cls-6" d="m310.1,138.87c.34-1.93.17-5.72-.77-6.5l-.93-.78h0l-2.06,2.09,2.31,2.55,1.45,2.64Z"/>
                <path class="cls-6" d="m297.22,119.11c-.07-2.46-1.23-7.05-2.58-7.77l-1.34-.72h0l-2,3.08,3.47,2.55,2.44,2.86Z"/>
                <path class="cls-6" d="m296.56,122.7c-1.35,1.43-3.28,4.7-2.92,5.87l.36,1.17h0l2.87-.63-.53-3.4.23-3Z"/>
                <path class="cls-6" d="m302.21,104.88c-1.68,1.79-4.1,5.87-3.65,7.33l.45,1.46h0l3.58-.78-.67-4.26.28-3.75Z"/>
                <path class="cls-6" d="m303.76,118.01s-2.54.25-4.12.21c-1.58-.04-2.54,2.97-2.54,2.97l2.17,1.95s5-2.79,4.49-5.14Z"/>
                <path class="cls-6" d="m287.09,101.86c-2.41-.06-5.43,1.51-5.43,1.51l3.3,2.97s4.54-4.42,2.13-4.48Z"/>
                <path class="cls-6" d="m305.75,110.82c.43-2.42.21-7.16-.96-8.13l-1.17-.98h0l-2.58,2.62,2.89,3.2,1.81,3.29Z"/>
                <path class="cls-6" d="m315.05,128.87s-.9-2.17-1.05-3.92c-.14-1.75-3.25-3.07-3.25-3.07l-1.91,2.62s3.66,5.2,6.2,4.37Z"/>
                <path class="cls-6" d="m287.36,115.47c2.05-1.27,3.72-4.23,3.72-4.23l-4.39-.68s-1.38,6.18.67,4.92Z"/>
                <path class="cls-6" d="m274.31,104.97s-2.1-2.14-1.7-3.86c.4-1.71-.27-4.1-.27-4.1l-2.61,1.92s1.91,6.07,4.59,6.04Z"/>
                <path class="cls-6" d="m271.61,94.42c-1.76-.04-3.96,1.09-3.96,1.09l2.4,2.17s3.31-3.22,1.56-3.26Z"/>
                <path class="cls-6" d="m266.53,89.28c1.67.66,5.08,1.2,5.95.51l.87-.69h0l-1.48-2.22-2.71,1.59-2.62.81Z"/>
                <path class="cls-6" d="m284.02,132.66c1.49-.92,2.71-3.09,2.71-3.09l-3.2-.5s-1.01,4.51.49,3.58Z"/>
                <path class="cls-6" d="m263.07,82.36c1.49-.93,2.72-3.09,2.72-3.09l-3.2-.5s-1.01,4.51.49,3.59Z"/>
                <path class="cls-6" d="m295.73,122.41c1.49-.93,2.72-3.09,2.72-3.09l-3.2-.5s-1.01,4.51.49,3.59Z"/>
                <path class="cls-6" d="m294.54,142.95c1.49-.93,2.72-3.09,2.72-3.09l-3.2-.5s-1.01,4.51.49,3.59Z"/>
                <path class="cls-6" d="m247.78,101.09c-.05-1.79-.9-5.15-1.88-5.67l-.98-.52h0l-1.45,2.25,2.53,1.86,1.78,2.09Z"/>
                <path class="cls-6" d="m310.36,150.01c.39-1.71-.28-4.1-.28-4.1l-2.61,1.92s2.49,3.89,2.89,2.18Z"/>
                <path class="cls-6" d="m318.33,140.09c.39-1.71-.28-4.1-.28-4.1l-2.61,1.92s2.49,3.89,2.89,2.18Z"/>
                <path class="cls-6" d="m302.8,141.68c.31-1.77.15-5.22-.7-5.93l-.85-.71h0l-1.88,1.9,2.1,2.33,1.32,2.4Z"/>
                <path class="cls-6" d="m321.45,128.07c.61,1.65,2.47,3.28,2.47,3.28l1.13-3.03s-4.21-1.9-3.61-.25Z"/>
                <path class="cls-6" d="m314.21,112.22c.6,1.65,2.47,3.28,2.47,3.28l1.13-3.03s-4.21-1.9-3.6-.25Z"/>
              </g>
              <g>
                <path class="cls-6" d="m280.9,87.41c-1.68,1.79-4.09,5.87-3.64,7.33l.44,1.46h0l3.58-.78-.67-4.26.28-3.75Z"/>
                <path class="cls-6" d="m324.31,102.69s2.43,2.22,2.11,4.12c-.33,1.9.55,4.48.55,4.48l2.74-2.27s-2.47-6.52-5.4-6.33Z"/>
                <path class="cls-6" d="m324.42,117.95s-1.47,2.19-3.01,2.15c-1.54-.04-3.48.96-3.48.96l2.11,1.9s4.88-2.72,4.38-5.01Z"/>
                <path class="cls-6" d="m307.99,98.1s3.22.7,3.89,2.5c.67,1.81,2.73,3.59,2.73,3.59l1.23-3.33s-5.41-4.4-7.85-2.76Z"/>
                <path class="cls-6" d="m284.56,131.46c.43-2.42.21-7.15-.96-8.13l-1.17-.97h0l-2.57,2.62,2.89,3.19,1.81,3.3Z"/>
                <path class="cls-6" d="m283.62,109.55c-.07-2.45-1.23-7.05-2.58-7.77l-1.34-.72h0l-2,3.08,3.47,2.55,2.44,2.86Z"/>
                <path class="cls-6" d="m278.66,106.09c-1.68,1.79-4.1,5.87-3.65,7.33l.45,1.45h0l3.59-.78-.67-4.26.29-3.75Z"/>
                <path class="cls-6" d="m290.15,108.44s-2.54.25-4.12.22c-1.58-.04-2.54,2.97-2.54,2.97l2.17,1.95s5-2.79,4.49-5.14Z"/>
                <path class="cls-6" d="m273.48,92.29c-2.41-.06-5.44,1.5-5.44,1.5l3.3,2.97s4.54-4.42,2.13-4.48Z"/>
                <path class="cls-6" d="m301.24,90.37c-2.41-.06-5.44,1.5-5.44,1.5l3.3,2.97s4.54-4.42,2.13-4.48Z"/>
                <path class="cls-6" d="m323.89,95.44c-1.93-.05-4.35,1.2-4.35,1.2l2.64,2.38s3.63-3.53,1.71-3.58Z"/>
                <path class="cls-6" d="m254.86,122.8c.43-2.42.21-7.16-.96-8.13l-1.17-.98h0l-2.57,2.62,2.89,3.2,1.81,3.29Z"/>
                <path class="cls-6" d="m283.21,122.62s-.9-2.16-1.05-3.91c-.14-1.75-3.25-3.07-3.25-3.07l-1.91,2.62s3.66,5.2,6.2,4.36Z"/>
                <path class="cls-6" d="m311.79,119.3s-.9-2.16-1.05-3.91c-.14-1.75-3.25-3.07-3.25-3.07l-1.91,2.62s3.66,5.2,6.2,4.36Z"/>
                <path class="cls-6" d="m273.75,105.9c2.05-1.27,3.72-4.24,3.72-4.24l-4.39-.68s-1.38,6.18.67,4.91Z"/>
                <path class="cls-6" d="m260.7,95.4s-2.1-2.14-1.7-3.86c.4-1.71-.27-4.1-.27-4.1l-2.61,1.92s1.91,6.07,4.59,6.04Z"/>
                <path class="cls-6" d="m258,84.85c-1.76-.04-3.96,1.09-3.96,1.09l2.4,2.17s3.31-3.22,1.56-3.26Z"/>
                <path class="cls-6" d="m257.3,129.94c1.67.66,5.08,1.2,5.95.51l.87-.69h0l-1.48-2.22-2.71,1.59-2.62.81Z"/>
                <path class="cls-6" d="m270.41,123.09c1.49-.92,2.71-3.09,2.71-3.09l-3.2-.5s-1.01,4.51.49,3.58Z"/>
                <path class="cls-6" d="m278.87,142.39c1.49-.93,2.72-3.09,2.72-3.09l-3.2-.5s-1.01,4.51.49,3.59Z"/>
                <path class="cls-6" d="m282.13,112.84c1.49-.93,2.72-3.09,2.72-3.09l-3.2-.5s-1.01,4.51.49,3.59Z"/>
                <path class="cls-6" d="m280.93,133.39c1.49-.93,2.72-3.09,2.72-3.09l-3.2-.5s-1.01,4.51.49,3.59Z"/>
                <path class="cls-6" d="m291.13,148.69c-.05-1.79-.9-5.15-1.88-5.67l-.98-.52h0l-1.45,2.25,2.53,1.86,1.78,2.09Z"/>
                <path class="cls-6" d="m293.28,133.61c1.12.05,2.55-.66,2.55-.66l-1.51-1.42s-2.16,2.02-1.04,2.07Z"/>
                <path class="cls-6" d="m289.19,132.12c.31-1.76.16-5.21-.7-5.93l-.86-.71h0l-1.88,1.91,2.1,2.33,1.32,2.4Z"/>
                <path class="cls-6" d="m287.52,89.42c.61,1.65,2.48,3.29,2.48,3.29l1.13-3.03s-4.21-1.9-3.61-.25Z"/>
                <path class="cls-6" d="m268.9,138.54c.6,1.65,2.47,3.28,2.47,3.28l1.14-3.03s-4.21-1.9-3.61-.25Z"/>
              </g>
              <g>
                <path class="cls-6" d="m274.27,125.98c1.52-.95,3.98-3.38,3.93-4.49l-.04-1.11h0l-2.67-.11-.32,3.12-.89,2.59Z"/>
                <path class="cls-6" d="m287.65,123.38s.52-2.02,1.36-3.33c.84-1.32-.65-3.92-.65-3.92l-2.76.83s-.2,5.65,2.05,6.42Z"/>
                <path class="cls-6" d="m268.71,106.91c1.05-1.65,1.23-4.4,1.23-4.4l-3.44,1.04s1.15,5,2.21,3.36Z"/>
                <path class="cls-6" d="m272.2,118.71c-.82-1.59-3.03-4.25-4.15-4.3l-1.11-.05h0l-.34,2.65,3.09.58,2.51,1.11Z"/>
                <path class="cls-6" d="m262.22,103.82s-1.28-1.14-1.92-2.24c-.64-1.11-3.1-1-3.1-1l-.43,2.32s4.04,2.27,5.45.91Z"/>
                <path class="cls-6" d="m265.63,123.13c-1.27-.71-3.95-1.51-4.72-1.05l-.77.47h0l.95,1.94,2.34-.99,2.19-.37Z"/>
                <path class="cls-6" d="m302.36,136.93s.43-1.66,1.12-2.74c.7-1.08-.53-3.21-.53-3.21l-2.26.68s-.16,4.64,1.68,5.27Z"/>
                <path class="cls-6" d="m259.52,108.37c.69-1.08.81-2.89.81-2.89l-2.26.68s.76,3.28,1.45,2.2Z"/>
                <path class="cls-6" d="m283.03,114.33c.77-1.2.9-3.21.9-3.21l-2.51.76s.84,3.65,1.61,2.45Z"/>
                <path class="cls-6" d="m254.68,104.86c.76-1.2.9-3.21.9-3.21l-2.52.76s.85,3.65,1.61,2.45Z"/>
                <path class="cls-6" d="m284.02,131.59s-1.28.78-2.13,1.17c-.85.38-.59,2.23-.59,2.23l1.65.48s1.95-2.76,1.08-3.88Z"/>
                <path class="cls-6" d="m266.72,112.1c-.31-1.39-1.64-2.9-1.64-2.9l-1.23,2.32s3.18,1.97,2.87.58Z"/>
                <path class="cls-6" d="m261.57,110.38c-.31-1.39-1.64-2.9-1.64-2.9l-1.23,2.31s3.18,1.98,2.87.58Z"/>
                <path class="cls-6" d="m289.61,107.43c-.59-2.13-2.62-5.89-3.94-6.23l-1.33-.33h0l-1.07,3.12,3.59,1.47,2.76,1.97Z"/>
                <path class="cls-6" d="m275.42,106.38s1.11-.83,2.09-1.16c.98-.33,1.29-2.3,1.29-2.3l-1.77-.72s-2.46,2.84-1.62,4.18Z"/>
              </g>
            </g>
          </g>
          <g>
            <g>
              <path class="cls-16" d="m305.35,208.17c0,4.6-3.73,8.33-8.33,8.33s-8.33-3.73-8.33-8.33,3.73-8.33,8.33-8.33,8.33,3.73,8.33,8.33Z"/>
              <g class="cls-1">
                <path class="cls-9" d="m304.72,206.48c0,4.6-3.73,8.33-8.33,8.33s-8.33-3.73-8.33-8.33,3.73-8.33,8.33-8.33,8.33,3.73,8.33,8.33Z"/>
              </g>
            </g>
            <path class="cls-8" d="m294.36,201.96c.75-.32-2.93,5.64-2.93,5.64,0,0-.22-4.28,2.93-5.64Z"/>
          </g>
          <g>
            <g>
              <path class="cls-16" d="m208.85,193.98c0,4.6-3.73,8.33-8.33,8.33s-8.33-3.73-8.33-8.33,3.73-8.33,8.33-8.33,8.33,3.73,8.33,8.33Z"/>
              <g class="cls-17">
                <path class="cls-9" d="m208.22,192.29c0,4.6-3.73,8.33-8.33,8.33s-8.33-3.73-8.33-8.33,3.73-8.33,8.33-8.33,8.33,3.73,8.33,8.33Z"/>
              </g>
            </g>
            <path class="cls-8" d="m197.86,187.77c.75-.32-2.93,5.64-2.93,5.64,0,0-.22-4.28,2.93-5.64Z"/>
          </g>
          <g>
            <g>
              <path class="cls-16" d="m223.04,139.34c0,4.6-3.73,8.33-8.33,8.33s-8.33-3.73-8.33-8.33,3.73-8.33,8.33-8.33,8.33,3.73,8.33,8.33Z"/>
              <g class="cls-20">
                <path class="cls-9" d="m222.41,137.65c0,4.6-3.73,8.33-8.33,8.33s-8.33-3.73-8.33-8.33,3.73-8.33,8.33-8.33,8.33,3.73,8.33,8.33Z"/>
              </g>
            </g>
            <path class="cls-8" d="m212.05,133.13c.75-.32-2.93,5.64-2.93,5.64,0,0-.22-4.28,2.93-5.64Z"/>
          </g>
          <g>
            <g>
              <path class="cls-16" d="m143.86,148.22c0,4.6-3.73,8.33-8.33,8.33s-8.33-3.73-8.33-8.33,3.73-8.33,8.33-8.33,8.33,3.73,8.33,8.33Z"/>
              <g class="cls-19">
                <path class="cls-9" d="m143.23,146.53c0,4.6-3.73,8.33-8.33,8.33s-8.33-3.73-8.33-8.33,3.73-8.33,8.33-8.33,8.33,3.73,8.33,8.33Z"/>
              </g>
            </g>
            <path class="cls-8" d="m132.87,142.01c.75-.32-2.93,5.64-2.93,5.64,0,0-.22-4.28,2.93-5.64Z"/>
          </g>
          <g>
            <g>
              <path class="cls-16" d="m169.41,86.49c0,4.6-3.73,8.33-8.33,8.33s-8.33-3.73-8.33-8.33,3.73-8.33,8.33-8.33,8.33,3.73,8.33,8.33Z"/>
              <g class="cls-18">
                <path class="cls-9" d="m168.78,84.8c0,4.6-3.73,8.33-8.33,8.33s-8.33-3.73-8.33-8.33,3.73-8.33,8.33-8.33,8.33,3.73,8.33,8.33Z"/>
              </g>
            </g>
            <path class="cls-8" d="m158.42,80.28c.75-.32-2.93,5.64-2.93,5.64,0,0-.22-4.28,2.93-5.64Z"/>
          </g>
        </g>
      </g>
    </g>
  </g>
</svg>