<?xml version="1.0" encoding="UTF-8"?>
<svg id="_レイヤー_2" data-name="レイヤー 2" xmlns="http://www.w3.org/2000/svg" viewBox="0 0 489.8 311.34">
  <defs>
    <style>
      .cls-1 {
        fill: #f3d4a1;
        stroke: #f3d4a1;
        stroke-width: .88px;
      }

      .cls-1, .cls-2 {
        stroke-linecap: round;
        stroke-linejoin: round;
      }

      .cls-3 {
        opacity: .5;
      }

      .cls-3, .cls-4, .cls-5, .cls-6, .cls-7, .cls-8, .cls-9, .cls-10, .cls-11, .cls-12, .cls-13, .cls-14, .cls-15, .cls-16, .cls-17, .cls-18, .cls-19, .cls-20 {
        stroke-width: 0px;
      }

      .cls-3, .cls-9 {
        fill: #fff;
      }

      .cls-2 {
        fill: none;
        stroke: #fff;
        stroke-width: 2.83px;
      }

      .cls-4 {
        fill: #f3f4b9;
      }

      .cls-5 {
        fill: #fabe00;
      }

      .cls-6 {
        fill: #489037;
      }

      .cls-7 {
        fill: #c8161d;
      }

      .cls-8 {
        fill: #fddc86;
      }

      .cls-10 {
        fill: #ffee7d;
      }

      .cls-11 {
        fill: #fff29b;
      }

      .cls-12 {
        fill: #f5a200;
      }

      .cls-13 {
        fill: #ffe689;
      }

      .cls-14 {
        fill: #e60012;
      }

      .cls-15 {
        fill: #eff09e;
      }

      .cls-16 {
        fill: #feebbe;
      }

      .cls-17 {
        fill: #fdd000;
      }

      .cls-18 {
        fill: #e7e860;
      }

      .cls-19 {
        fill: #00893f;
      }

      .cls-20 {
        fill: #007739;
      }
    </style>
  </defs>
  <g id="_イラスト" data-name="イラスト">
    <g>
      <g>
        <path class="cls-1" d="m489.36,158.15c0,84.36-109.45,152.75-244.46,152.75S.44,242.51.44,158.15,109.89,5.4,244.9,5.4s244.46,68.39,244.46,152.76Z"/>
        <ellipse class="cls-16" cx="244.9" cy="152.75" rx="244.46" ry="152.75"/>
        <ellipse class="cls-9" cx="244.9" cy="156.06" rx="187.71" ry="117.29"/>
        <ellipse class="cls-2" cx="244.9" cy="156.06" rx="225.25" ry="140.74"/>
      </g>
      <g>
        <g>
          <path class="cls-15" d="m187.61,56.72c13.76-2.13,24.5-5.26,53.24,6.79,28.84,11.62,68.23,37.33,68.15,37.74-2.08,3.32-4.17,6.65-6.26,10.01.1-3.14-80.97-48.52-95.16-46.39-14.43-1.56-19.96-8.09-19.98-8.16Z"/>
          <path class="cls-18" d="m185.17,76.63c13.71-1.1,24.54-3.28,51.84,10.76,27.38,13.64,64.83,41.18,64.77,41.55-2.52,3.07-5.05,6.16-7.58,9.29.03-2.8-76.59-52.54-90.34-51.86-14.02-2.62-18.67-9.68-18.69-9.75Z"/>
          <path class="cls-18" d="m205.31,60.01c13.9-1.52,24.75-4.21,53.9,9.11,29.28,12.87,68.76,40.49,68.66,40.9-1.97,3.25-3.93,6.53-5.91,9.82.27-3.21-81.61-52.39-96.2-50.8-14.63-2.2-20.45-8.95-20.46-9.02Z"/>
          <path class="cls-18" d="m195.24,75.83c14.17-5.67,24.99-11.79,57.37-7.64,32.53,3.61,76.57,20.88,76.43,21.4-1.23,3.68-2.47,7.37-3.71,11.07.1.15-22.68-10.24-47.54-16.04-24.84-6.48-51.77-8.35-59.44-6.97-15.59,2.33-23.09-1.75-23.1-1.82Z"/>
          <path class="cls-18" d="m224.29,87.8c14.03-.6,25-2.58,54.18,12.65,29.32,14.77,68.37,44.98,68.24,45.39-1.94,3.12-3.89,6.27-5.84,9.43.44-3.21-81.08-57.71-95.96-57.09-14.73-3.17-20.62-10.3-20.63-10.38Z"/>
          <path class="cls-15" d="m205.71,95.7c13.15-4.7,23.04-10.18,54.5-3.92,31.62,5.76,74.27,25.32,74.14,25.8-.64,4.01-1.27,8.03-1.91,12.05.09.14-22.02-11.57-46.2-19.03-24.15-8.11-50.37-11.96-57.69-11.15-14.85,1.21-22.84-3.7-22.84-3.76Z"/>
          <path class="cls-15" d="m282.59,181.46c2.67-11.03,3.59-20.55,23.53-38.63,20-18.23,47.05-38.28,46.99-38.07,4.06,3.73,8.09,7.56,12.11,11.47.39-1.79-58.77,40.26-65.61,52.62-6.54,10.28-17.01,12.57-17.01,12.61Z"/>
          <path class="cls-18" d="m309.29,106.9c-14.19,1.51-25.03,2.73-57.85-.87-33.04-4.15-76.56,2.1-76.37,2.62.91-4.3,1.83-8.6,2.74-12.89-.09.15,22.37-3.43,47.38-2.48,24.92.24,52.4,5.01,60.18,5.58,15.79.69,23.91,8.11,23.91,8.04Z"/>
          <path class="cls-15" d="m275.61,186.3c4.06-10.74,6.1-20.26,28.5-36.62,22.49-16.57,52.73-33.12,52.65-32.86,3.73,3.99,7.44,8.05,11.14,12.19.48-2.21-65.33,33.48-73.59,45.78-7.9,9.72-18.7,11.49-18.7,11.52Z"/>
          <path class="cls-15" d="m261.61,116.49c13.81-1.66,24.48-4.93,56.44,8.34,32.3,12.71,72.23,42.99,71.91,43.53-.52,3.69-1.04,7.38-1.56,11.07.06.15-20.33-17.22-44.21-30.3-23.63-13.8-50.76-23.32-58.43-24.14-15.47-2.11-24.17-8.44-24.16-8.5Z"/>
          <path class="cls-18" d="m283.39,103.07c-14.25,2.77-25.2,4.94-57.82,4.22-32.86-1.26-75.27,8.93-75.03,9.45.88-4.39,1.77-8.77,2.66-13.14-.08.15,21.73-5.47,46.42-6.74,24.55-1.98,51.97.4,59.77.28,15.79-.7,24,6,24,5.94Z"/>
          <path class="cls-18" d="m373.73,85.77c-13.87-5.66-24.62-9.65-54.45-28.46-29.89-19.3-71.48-35.57-71.42-35.13,8.52-1.15,17.05-1.92,25.57-2.33.14-2.02,65.38,36.5,79.74,47.26,14.72,8.3,20.54,18.73,20.56,18.66Z"/>
          <path class="cls-18" d="m313.47,71.04c-12.46,4.55-21.59,7.79-54.76,10.54-33.4,2.22-77.73,17.49-77.53,18.03-.5-3.91-1-7.82-1.5-11.72-.1.15,22.91-8.56,48.37-12.96,25.37-5.13,53.18-5.94,60.55-7.01,14.98-2.6,24.87,3.16,24.87,3.12Z"/>
          <path class="cls-15" d="m143.36,79.68c11.29-2.17,20.37-5.14,41.24,7.78,20.87,12.66,50.18,35.71,50.19,35.93-2.8,4.07-5.6,8.19-8.39,12.34-.28-1.7-58.71-45.88-69.33-45.78-11.08-1.92-13.69-10.22-13.71-10.28Z"/>
          <path class="cls-15" d="m252.38,99.71c6.97-9.66,11.43-18.79,38.28-29.42,26.84-10.03,41.62-14.02,41.63-14.21,10.03,3.19,19.96,6.92,29.73,11.18.65-3.05-77.1,13.46-88.11,24.82-10.55,7.78-21.55,7.61-21.55,7.62Z"/>
          <path class="cls-18" d="m406.3,141.24c-11.53.42-19.65.66-51.55-7.46-31.97-8.66-77.72-8.31-77.67-7.76-.52-4.08-1.04-8.15-1.56-12.23-.14.15,23.97-.77,49.17,3.25,25.3,3.28,51.7,11.49,58.55,12.89,14.06,2.31,23.05,11.36,23.07,11.32Z"/>
          <path class="cls-18" d="m290.29,125.68c-13.82-5.29-24.95-8.59-49.57-26.95-24.72-18.69-57.33-37.7-57.23-37.4,12.03.59,24.25,1.97,36.58,4.14-.09-.71,39.91,33.99,53.42,42.79,13.45,7.91,16.8,17.49,16.8,17.42Z"/>
        </g>
        <g>
          <path class="cls-15" d="m343.15,152.77c-12.74-8.79-22.07-17.48-55.27-22.22-33.38-5.27-78.69.52-78.53,1.06-.19,4.08-.37,8.16-.56,12.25-.11.15,23.48-4.71,49.14-4.16,25.63-.19,53.35,5.05,60.76,8.35,15.1,6.13,24.46,4.76,24.46,4.71Z"/>
          <path class="cls-18" d="m238.3,23.92c-14.66.28-26.23-1.1-56.39,15.84-30.45,16.43-68.41,50.27-68.15,50.75,1.65,2.81,3.3,5.64,4.96,8.49-.05.14,19.34-18.55,41.9-33.8,22.36-15.88,47.9-28.32,55.56-30.13,15.44-4,22.13-11.06,22.12-11.14Z"/>
          <path class="cls-18" d="m329.07,48c-14.21-6.07-25.07-12.5-57.41-9.35-32.5,2.63-76.32,18.49-76.18,19,1.25,3.69,2.5,7.4,3.75,11.11-.1.15,22.56-9.5,47.36-14.52,24.77-5.7,51.68-6.75,59.36-5.15,15.62,2.79,23.1-1.03,23.11-1.1Z"/>
          <path class="cls-18" d="m316.7,102.95c-8.73-11.28-14.48-21.62-44.1-37.33-29.74-16.11-70.67-27.71-70.57-27.27-2.31,3.9-4.62,7.83-6.93,11.79-.08.11,21.52,4.11,44.71,13.23,23.18,8.5,47.97,22.12,53.92,27.33,12.14,10.02,22.97,12.26,22.97,12.25Z"/>
          <path class="cls-18" d="m188.71,189.56c1.14-13.95,2.98-25.14-6.71-50.99-9.7-25.87-23.01-59.88-22.99-59.82-3.84,3.29-7.66,6.66-11.45,10.12-.16-.5,29.84,68.56,31.94,82.89,1.93,13.76,9.2,17.77,9.21,17.8Z"/>
          <path class="cls-15" d="m288.97,63.64c-12.99-6.38-22.67-13.3-55.8-11.87-33.39.89-76.8,15.12-76.56,15.67-.18,4.12-.35,8.24-.53,12.36-.09.15,22.32-9.12,47.53-13.33,25.07-4.95,52.94-4.83,60.47-2.94,15.28,3.3,24.9.16,24.9.11Z"/>
          <path class="cls-15" d="m376.13,177.11c-7.45-12.37-12.05-23.29-39.71-43.97-27.72-21.04-66.97-40.36-66.93-39.96-2.76,3.42-5.51,6.89-8.27,10.39.14-3.36,82.96,41.86,93.39,57.6,10.96,11.81,21.53,15.93,21.53,15.93Z"/>
          <path class="cls-15" d="m383.39,165.22c-8.1-13.57-13.17-25.45-41.23-48.73-28.09-23.69-69.08-45.62-69.09-45.17-2.29,3.31-4.59,6.64-6.89,10.01-.11.11,21.85,9.58,44.43,24.58,22.71,14.39,46.04,34.31,51.56,41.1,11.37,13.16,21.21,18.22,21.21,18.22Z"/>
          <path class="cls-15" d="m333.02,65.21c-14.65-2.86-26.2-6.47-55.8,3.88-29.74,9.88-69.71,33.69-69.59,34.12,2.41,3.08,4.82,6.2,7.24,9.34-.3-3.28,82.47-43.86,97.58-40.69,15.14-.71,20.56-6.57,20.57-6.65Z"/>
          <path class="cls-18" d="m254.71,137.96c14.01,7.14,25.13,12.92,53.69,21.22,28.91,7.79,63.29,29.09,62.96,29.57-1.35-5.24-2.71-10.46-4.07-15.67.03.14-17.42-10.88-38.51-18.61-20.8-8.36-45.25-13.42-52.6-15.85-14.75-5.24-21.49-.58-21.47-.66Z"/>
          <path class="cls-18" d="m186.29,75.61c12.81,2.96,22.35,5.3,53.9,3.91,31.68-1.89,75.06,6.63,74.95,7.12-7.25-5.69-14.53-11.1-21.83-16.24.04-2.29-69.69-3.09-84.18-.98-14.68-.69-22.84,6.25-22.85,6.19Z"/>
          <path class="cls-18" d="m182.38,114.11c14.36-4.95,25.74-8.25,54.07-24.88,28.41-17.07,67.28-31.53,67.2-31.14-8.78-1.46-17.59-2.52-26.42-3.19-.03-1.74-61.15,32.97-75.56,42.47-14.62,7.37-19.28,16.81-19.29,16.73Z"/>
          <path class="cls-15" d="m273.65,130.37c-8.96-8.99-15.1-17.78-44.82-25.79-29.66-7.24-44.21-4.69-44.24-4.94-10.58,2.59-21.01,5.79-31.24,9.6-.06.11,20.35-1.54,43.12,1.55,22.64,2.48,47.64,9.71,53.74,13.34,12.32,6.86,23.44,6.25,23.44,6.25Z"/>
          <path class="cls-15" d="m338.91,105.15c-8.82-10.98-14.65-21.12-44.43-35.79-29.86-13.96-47-19.41-46.98-19.63-10.3,1.78-20.56,4.09-30.74,6.95-.08.11,21.57,3.3,44.87,11.58,23.28,7.66,48.2,20.43,54.21,25.43,12.23,9.6,23.08,11.46,23.08,11.46Z"/>
          <path class="cls-18" d="m224.94,81.29c14.5.64,25.69,1.3,57.88-4.02,32.39-5.85,75.17-2.44,74.99-1.94-1.36-4.34-2.72-8.68-4.09-13,.08.15-21.96-1.81-46.48.67-24.44,1.81-51.34,8.04-59.13,9.06-15.76,1.6-23.17,9.31-23.17,9.23Z"/>
          <path class="cls-18" d="m193.17,78.19c14.49-3.7,25.94-6.03,54.86-20.26,29.03-14.68,68.44-25.55,68.35-25.14-13.29-1.86-26.69-2.8-40.12-2.82,0-1.05-48.45,25.64-63.21,33.08-14.84,6.11-19.87,15.22-19.89,15.14Z"/>
          <path class="cls-18" d="m148.2,144.68c13.86-6.77,24.81-11.49,52.61-31.6,27.83-20.55,66.83-39.75,66.8-39.35-2.77-3.45-5.53-6.86-8.3-10.23-.26-3.01-78.93,49.27-92.47,62.02-14.16,9.2-18.62,19.24-18.64,19.16Z"/>
          <path class="cls-18" d="m317.96,139.19c-6.28-11.19-10.02-21.18-36.18-38.77-26.25-17.89-62.21-34.22-62.13-33.87,6.23,6.07,12.48,12.35,18.75,18.82-.06-1.12,48.57,28.92,58.55,40.7,10,10.35,21.02,13.11,21.01,13.13Z"/>
        </g>
        <g>
          <path class="cls-15" d="m343.32,156.57c-12.18-9.61-20.99-18.91-53.87-26.35-33.06-7.96-78.01-6.1-77.86-5.56-.54,4.09-1.08,8.19-1.62,12.29-.11.15,23.34-2.74,48.81-.13,25.44,1.88,52.9,9.25,60.13,13.09,14.73,7.21,24.41,6.7,24.41,6.66Z"/>
          <path class="cls-15" d="m259.85,161.18c-9.47-9.46-16.14-18.57-45.55-27.33-29.63-9.17-68.04-11.2-67.84-10.75,6.61,3.3,13.3,6.85,20.07,10.66-.41-1.67,57.37,11.17,70.24,20.59,12.51,7.31,23.08,6.84,23.08,6.83Z"/>
          <path class="cls-18" d="m324.05,35.77c-14.32,4.17-25.87,6.46-50.93,29.36-25.19,22.55-57.86,60.88-57.73,61.19,3.14,1.55,6.3,3.15,9.48,4.82-.55-2.32,67.69-74.59,81.97-79.44,13.86-7.6,17.22-15.86,17.22-15.93Z"/>
          <path class="cls-18" d="m329.49,162.71c-13.98-6.58-24.59-13.46-57.29-11.78-32.88,1.14-76.91,15.23-76.75,15.76.89,3.8,1.78,7.6,2.67,11.4-.1.15,22.68-8.7,47.74-12.71,25-4.71,52.29-4.59,59.97-2.67,15.61,3.41,23.65.07,23.65,0Z"/>
          <path class="cls-18" d="m327.61,201.37c-7.93-11.32-13.04-21.57-41.53-38.24-28.6-17.03-67.75-30.72-67.66-30.31-2.61,3.8-5.21,7.64-7.81,11.51-.33-3.4,83.18,30.02,94.62,44.23,11.45,10.24,22.38,12.8,22.38,12.8Z"/>
          <path class="cls-18" d="m315.47,132.68c-14.7-2.72-26.28-6.24-55.84,4.32-29.7,10.09-69.18,34.13-69.04,34.56,2.34,3.07,4.68,6.18,7.02,9.31-.46-3.27,81.81-44.41,97.14-41.39,15.17-.83,20.71-6.72,20.71-6.8Z"/>
          <path class="cls-15" d="m235.59,176.03c-8.55-9.26-14.51-18.2-42.56-26.73-28.28-8.9-64.46-11.24-64.26-10.82-2,4.55-3.99,9.12-5.97,13.72-1.21-3.41,77.73,6.31,90.46,17.42,11.69,7.12,22.33,6.41,22.33,6.41Z"/>
          <path class="cls-15" d="m177.65,154.57c-1.14-13.22-1.18-24.32-15.13-45.29-14-21.06-32.62-47.04-32.57-46.93-3.32,4.34-6.61,8.75-9.87,13.22-.39-.99,40.73,51.74,45.33,65.02,4.2,12.14,12.22,13.95,12.23,13.98Z"/>
          <path class="cls-18" d="m144.08,187.07c12.63.03,22.02.17,52.89-7.67,30.94-8.36,74.66-8.66,74.6-8.16-.74-4.24-1.48-8.47-2.21-12.7.12.14-22.7-.02-46.8,4.3-24.18,3.66-49.65,11.8-56.68,13.27-14.36,2.51-21.78,11.03-21.8,10.96Z"/>
          <path class="cls-18" d="m134.79,122.48c13.59-7.58,24.33-12.94,51.73-34.5,27.41-22,66.2-43.22,66.18-42.83-8.82.12-17.62.63-26.37,1.53-.28-1.73-59.89,43.56-73.31,55.66-13.9,9.98-18.21,20.21-18.23,20.13Z"/>
          <path class="cls-18" d="m253.23,70.41c13.23,4.97,23.16,8.56,56.34,12.98,33.46,3.87,76.81,21.55,76.57,22.09-6.77-6.83-13.63-13.39-20.56-19.69.55-2.56-71.67-17.3-87.48-17.37-15.42-3.21-24.88,2.04-24.88,1.98Z"/>
          <path class="cls-18" d="m119.2,159.46c10.6,2.42,17.95,4.23,47.96.41,30.04-4.31,73.64.96,73.63,1.46.67-4.11,1.35-8.22,2.02-12.33.13.14-22.93-3.27-46.78-2.39-23.98.2-48.76,4.7-55.13,4.99-13.09.14-21.68,7.89-21.69,7.86Z"/>
          <path class="cls-18" d="m105.17,137.38c8.74,4.63,14.47,8.2,41.8,8.17,27.33-.44,67.62,8.67,67.64,9.11,1.44-4.14,2.88-8.27,4.32-12.4.11.12-21.4-5.31-43.38-7.21-22.13-2.5-44.72-1.47-50.29-2.31-11.46-2.08-20.09,4.65-20.1,4.63Z"/>
          <path class="cls-15" d="m367.74,93.52c-8.84-11.09-14.69-21.29-44.48-36.37-29.91-15.49-71.19-26.09-71.09-25.64-2.27,3.91-4.54,7.84-6.8,11.81-.09.11,21.7,3.58,45.06,12.19,23.35,7.99,48.28,21.11,54.29,26.2,12.24,9.76,23.03,11.82,23.03,11.82Z"/>
          <path class="cls-15" d="m318.15,99.55c-8.97-10.23-14.98-19.87-44.95-32.13-30.12-12.68-70.88-19.4-70.76-18.95-2.24,4.12-4.47,8.27-6.69,12.45-.08.11,21.32,1.53,44.61,7.94,23.23,5.79,48.36,16.57,54.44,21.07,12.36,8.6,23.34,9.61,23.34,9.61Z"/>
          <path class="cls-15" d="m195.31,122.57c10.84-9.15,19.84-15.19,35.09-42.56,15.24-27.35,25.16-42.52,25.16-42.54-.19-9.46-.38-18.9-.57-28.32.03-.31-40.67,79.27-50.17,91.56-9.48,11.93-9.51,21.88-9.51,21.86Z"/>
          <path class="cls-18" d="m83.07,129.55c7.72,4.36,12.5,7.72,38.55,6.23,26.02-1.9,65.29,5.11,65.35,5.55,1.9-4.14,3.81-8.26,5.72-12.37.12.11-21.05-4.31-42.3-5.16-21.44-1.45-42.97.68-48.1.09-10.61-1.6-19.21,5.67-19.22,5.66Z"/>
          <path class="cls-18" d="m229.44,85.94c14.75-2.57,26.48-3.98,54.89-15.96,28.55-12.42,66.37-20.6,66.24-20.21-2.7-4.21-5.41-8.38-8.13-12.51.44-2.99-78.21,26.73-93.3,35.21-14.9,4.96-19.69,13.55-19.7,13.47Z"/>
          <path class="cls-18" d="m95.37,145.31c10.18-11.68,18.38-19.92,37.2-51.77,18.76-32.09,45.87-71.33,45.91-71.12-8.16,7.43-16.22,15.23-24.17,23.4-.26-.75-37.37,57.74-46.93,73.2-9.92,14.54-11.98,26.34-12,26.29Z"/>
        </g>
      </g>
      <g>
        <g>
          <path class="cls-15" d="m333.85,55.05c-13.76-2.13-24.5-5.26-53.24,6.79-28.85,11.62-68.23,37.33-68.15,37.74,2.08,3.32,4.17,6.65,6.26,10.01-.1-3.14,80.97-48.52,95.16-46.39,14.43-1.56,19.96-8.09,19.98-8.16Z"/>
          <path class="cls-18" d="m336.29,74.96c-13.71-1.1-24.54-3.28-51.84,10.76-27.38,13.64-64.83,41.18-64.77,41.55,2.52,3.07,5.05,6.16,7.58,9.29-.03-2.8,76.59-52.54,90.34-51.86,14.02-2.62,18.67-9.68,18.69-9.75Z"/>
          <path class="cls-18" d="m316.15,58.34c-13.9-1.52-24.75-4.21-53.9,9.11-29.28,12.87-68.76,40.49-68.66,40.9,1.97,3.25,3.93,6.53,5.91,9.82-.27-3.21,81.61-52.39,96.2-50.8,14.63-2.2,20.44-8.95,20.45-9.02Z"/>
          <path class="cls-18" d="m326.22,74.15c-14.17-5.67-25-11.79-57.37-7.64-32.53,3.61-76.57,20.88-76.43,21.4,1.23,3.68,2.47,7.37,3.71,11.07-.1.15,22.68-10.24,47.54-16.04,24.84-6.48,51.77-8.35,59.44-6.97,15.59,2.33,23.09-1.75,23.1-1.82Z"/>
          <path class="cls-18" d="m297.17,86.12c-14.03-.6-25-2.58-54.18,12.64-29.32,14.77-68.37,44.98-68.24,45.39,1.94,3.12,3.89,6.27,5.84,9.43-.44-3.21,81.08-57.71,95.96-57.09,14.73-3.17,20.62-10.3,20.63-10.38Z"/>
          <path class="cls-15" d="m315.75,94.03c-13.14-4.7-23.04-10.18-54.5-3.92-31.62,5.76-74.27,25.32-74.14,25.8.64,4.01,1.27,8.03,1.91,12.05-.09.14,22.02-11.57,46.2-19.03,24.15-8.11,50.37-11.96,57.69-11.15,14.85,1.21,22.84-3.7,22.84-3.76Z"/>
          <path class="cls-15" d="m238.87,179.79c-2.67-11.03-3.59-20.55-23.53-38.63-20-18.23-47.05-38.28-46.99-38.07-4.06,3.73-8.09,7.56-12.11,11.47-.39-1.79,58.77,40.26,65.61,52.62,6.54,10.28,17.01,12.57,17.01,12.61Z"/>
          <path class="cls-18" d="m212.17,105.23c14.19,1.51,25.03,2.73,57.85-.87,33.04-4.15,76.56,2.1,76.37,2.62-.91-4.3-1.83-8.6-2.74-12.89.09.15-22.37-3.43-47.38-2.48-24.92.24-52.4,5.01-60.18,5.58-15.79.69-23.91,8.11-23.91,8.04Z"/>
          <path class="cls-15" d="m245.85,184.63c-4.06-10.74-6.1-20.26-28.5-36.62-22.49-16.57-52.73-33.12-52.65-32.86-3.73,3.99-7.44,8.05-11.14,12.19-.48-2.21,65.33,33.48,73.59,45.78,7.9,9.72,18.7,11.49,18.7,11.52Z"/>
          <path class="cls-15" d="m215.98,124.89c-13.81-1.66-24.48-4.93-56.44,8.34-32.3,12.71-72.23,42.99-71.91,43.53.52,3.69,1.04,7.38,1.56,11.07-.06.15,20.33-17.22,44.21-30.3,23.63-13.8,50.76-23.32,58.43-24.14,15.47-2.11,24.17-8.44,24.16-8.5Z"/>
          <path class="cls-18" d="m238.07,101.4c14.25,2.77,25.2,4.94,57.82,4.22,32.86-1.26,75.27,8.93,75.04,9.46-.88-4.39-1.77-8.77-2.66-13.14.08.15-21.73-5.47-46.42-6.74-24.55-1.97-51.97.4-59.77.28-15.79-.7-24,6-24,5.94Z"/>
          <path class="cls-18" d="m85.58,170.37c11.53-11,20.29-19.14,46.66-49.01,26.29-30.35,66.05-61.7,66.12-61.26-8.19,1.96-16.29,4.29-24.27,6.99-.74-2.02-59.92,60.4-71.3,76.75-12.48,13.88-17.15,26.6-17.2,26.52Z"/>
          <path class="cls-18" d="m135.14,91.38c13.87-5.66,24.62-9.65,54.45-28.46,29.89-19.3,71.48-35.57,71.42-35.13-8.52-1.15-17.05-1.92-25.57-2.33-.14-2.02-65.38,36.5-79.74,47.26-14.72,8.3-20.54,18.73-20.56,18.66Z"/>
          <path class="cls-18" d="m207.99,69.36c12.46,4.55,21.59,7.79,54.76,10.54,33.4,2.22,77.73,17.49,77.53,18.03.5-3.91,1-7.82,1.5-11.72.1.15-22.91-8.56-48.37-12.96-25.37-5.13-53.18-5.94-60.55-7.01-14.98-2.6-24.87,3.16-24.87,3.12Z"/>
          <path class="cls-15" d="m378.1,78c-11.29-2.17-20.36-5.14-41.24,7.78-20.87,12.66-50.18,35.71-50.19,35.93,2.8,4.07,5.6,8.19,8.39,12.34.28-1.7,58.71-45.88,69.33-45.78,11.08-1.92,13.69-10.22,13.71-10.28Z"/>
          <path class="cls-15" d="m260.03,75.43c-6.97-9.66-11.43-18.79-38.28-29.42-26.84-10.03-41.62-14.02-41.64-14.21-10.03,3.19-19.96,6.92-29.73,11.18-.65-3.05,77.1,13.46,88.11,24.82,10.55,7.78,21.55,7.61,21.55,7.62Z"/>
          <path class="cls-18" d="m115.16,139.56c11.53.42,19.65.66,51.55-7.46,31.97-8.66,77.72-8.31,77.67-7.76.52-4.08,1.04-8.15,1.56-12.23.14.15-23.97-.77-49.17,3.25-25.3,3.28-51.7,11.49-58.55,12.89-14.06,2.31-23.05,11.36-23.07,11.32Z"/>
          <path class="cls-18" d="m231.17,124.01c13.82-5.29,24.95-8.59,49.57-26.95,24.72-18.69,57.33-37.7,57.23-37.4-12.03.59-24.25,1.97-36.58,4.14.09-.71-39.91,33.99-53.42,42.8-13.45,7.91-16.8,17.49-16.8,17.42Z"/>
          <path class="cls-18" d="m92.19,175.09c11.77-10.58,20.73-18.39,47.48-47.4,26.7-29.49,66.75-59.67,66.81-59.22-1.96-3.06-3.92-6.1-5.87-9.12.13.13-20.71,15.74-41.81,36.73-21.31,20.4-42.88,46.2-49.07,53.11-12.72,13.45-17.5,25.98-17.54,25.91Z"/>
          <path class="cls-18" d="m210.87,98c-4.11-10.15-6.3-19.41-28.35-31.99-22.15-12.78-51.42-24.11-51.32-23.85,4.45,5.58,8.95,11.28,13.47,17.1-.21-.82,39.71,20.9,47.76,30.4,7.84,8.44,18.44,8.32,18.44,8.35Z"/>
        </g>
        <g>
          <path class="cls-15" d="m178.31,151.09c12.74-8.79,22.07-17.48,55.27-22.22,33.38-5.27,78.68.52,78.53,1.06.19,4.08.37,8.16.56,12.25.11.15-23.48-4.71-49.14-4.16-25.63-.19-53.35,5.05-60.76,8.35-15.1,6.13-24.46,4.77-24.46,4.71Z"/>
          <path class="cls-18" d="m265.67,29.74c14.66.28,26.23-1.1,56.39,15.84,30.45,16.43,68.41,50.27,68.15,50.75-1.65,2.81-3.3,5.64-4.96,8.49.05.14-19.34-18.55-41.9-33.8-22.36-15.88-47.9-28.32-55.56-30.13-15.43-4-22.13-11.06-22.12-11.14Z"/>
          <path class="cls-18" d="m172.5,45c14.21-6.08,25.07-12.5,57.41-9.35,32.49,2.63,76.32,18.49,76.18,19-1.25,3.69-2.5,7.4-3.75,11.11.1.15-22.56-9.5-47.36-14.52-24.77-5.7-51.68-6.75-59.36-5.15-15.62,2.79-23.1-1.03-23.11-1.1Z"/>
          <path class="cls-18" d="m172.53,43.38c12.35-7.14,21.59-14.54,54.95-17.87,33.62-3.66,75.9,1.09,75.64,1.47.66,4.49,1.32,9,1.95,13.53.04.14-21.47-4.34-46.39-4.68-24.68-.9-52.77,2.33-60.26,4.9-15.02,4.68-25.9,2.65-25.89,2.65Z"/>
          <path class="cls-18" d="m93.68,119.91c13.01-6.5,23.32-12.81,49.1-9.15,25.75,3.25,62.8,16.61,62.81,16.97-2.99,3.82-5.98,7.68-8.96,11.59-.57-2.76-73.96-23.14-86.13-17.02-13.14,2.86-16.78-2.31-16.82-2.39Z"/>
          <path class="cls-18" d="m332.75,187.89c-1.14-13.95-2.99-25.14,6.71-50.99,9.7-25.87,23.01-59.88,22.99-59.82,3.84,3.29,7.66,6.66,11.45,10.12.16-.5-29.84,68.56-31.94,82.89-1.93,13.76-9.2,17.77-9.2,17.8Z"/>
          <path class="cls-15" d="m232.49,61.96c12.99-6.38,22.67-13.3,55.8-11.87,33.39.89,76.8,15.12,76.56,15.67.18,4.12.36,8.24.53,12.36.09.15-22.32-9.12-47.53-13.33-25.07-4.95-52.94-4.83-60.47-2.94-15.28,3.3-24.9.16-24.9.11Z"/>
          <path class="cls-15" d="m145.33,175.44c7.45-12.37,12.05-23.29,39.71-43.97,27.72-21.04,66.97-40.36,66.93-39.96,2.76,3.42,5.51,6.89,8.27,10.39-.14-3.36-82.96,41.86-93.39,57.6-10.96,11.81-21.53,15.93-21.53,15.93Z"/>
          <path class="cls-18" d="m196.29,141.7c-14.39,3.24-25.93,6.41-52.35,5.51-26.7-1.35-59.09,5.6-58.84,5.99,2.27-5.31,4.55-10.58,6.86-15.82-1.39-3.01,69.46-4.14,85.13-1.46,14.37-.88,19.22,5.86,19.2,5.78Z"/>
          <path class="cls-15" d="m102.51,169.78c8.1-13.57,13.17-25.44,41.23-48.73,28.09-23.69,69.08-45.62,69.09-45.17,2.29,3.31,4.59,6.64,6.89,10.01.11.11-21.85,9.58-44.43,24.58-22.71,14.39-46.04,34.31-51.56,41.1-11.37,13.16-21.21,18.22-21.21,18.22Z"/>
          <path class="cls-15" d="m188.44,63.53c14.65-2.86,26.2-6.47,55.8,3.88,29.74,9.88,69.71,33.69,69.59,34.12-2.41,3.08-4.82,6.2-7.24,9.34.3-3.28-82.47-43.86-97.58-40.69-15.14-.71-20.56-6.57-20.57-6.65Z"/>
          <path class="cls-18" d="m202.4,79.84c-14.01,7.14-25.13,12.92-53.69,21.22-28.91,7.79-63.29,29.09-62.96,29.57,1.35-5.24,2.71-10.46,4.07-15.67-.03.14,17.42-10.88,38.51-18.61,20.8-8.36,45.25-13.42,52.6-15.85,14.75-5.24,21.49-.58,21.47-.66Z"/>
          <path class="cls-18" d="m335.17,73.93c-12.81,2.96-22.35,5.3-53.9,3.91-31.68-1.89-75.06,6.63-74.95,7.12,7.25-5.69,14.53-11.1,21.82-16.24-.04-2.29,69.69-3.09,84.18-.98,14.68-.69,22.84,6.25,22.85,6.19Z"/>
          <path class="cls-18" d="m339.08,112.44c-14.35-4.95-25.74-8.25-54.07-24.88-28.41-17.07-67.27-31.53-67.2-31.14,8.78-1.46,17.59-2.52,26.42-3.19.03-1.74,61.15,32.97,75.56,42.47,14.62,7.37,19.28,16.81,19.29,16.73Z"/>
          <path class="cls-18" d="m213.05,46.76c-13.29,7.92-23.5,13.82-55.18,25.19-32.01,10.84-71.57,37.67-71.26,38.21.24-4.28.49-8.56.73-12.84-.06.15,20.15-14.33,43.82-25.1,23.42-11.49,50.3-19.29,57.8-22.32,15.13-6.5,24.1-3.08,24.09-3.14Z"/>
          <path class="cls-15" d="m247.81,128.7c8.96-8.98,15.1-17.78,44.82-25.79,29.66-7.24,44.21-4.69,44.24-4.94,10.58,2.59,21.01,5.79,31.24,9.6.06.11-20.35-1.54-43.12,1.55-22.64,2.48-47.64,9.71-53.74,13.34-12.32,6.86-23.44,6.25-23.44,6.25Z"/>
          <path class="cls-15" d="m182.55,103.48c8.82-10.98,14.65-21.12,44.43-35.79,29.86-13.96,47-19.41,46.98-19.63,10.3,1.78,20.56,4.09,30.74,6.95.08.11-21.57,3.3-44.87,11.58-23.28,7.66-48.2,20.43-54.21,25.43-12.23,9.6-23.08,11.46-23.08,11.46Z"/>
          <path class="cls-18" d="m294.58,70.89c-14.5.64-25.69,1.3-57.88-4.02-32.39-5.85-75.17-2.44-74.99-1.94,1.36-4.34,2.72-8.68,4.09-13-.08.15,21.96-1.81,46.48.67,24.44,1.81,51.34,8.04,59.13,9.06,15.76,1.6,23.17,9.31,23.17,9.23Z"/>
          <path class="cls-18" d="m319.01,76.52c-14.49-3.7-25.94-6.03-54.86-20.26-29.03-14.68-68.44-25.55-68.35-25.14,13.29-1.85,26.69-2.8,40.12-2.82,0-1.05,48.45,25.64,63.2,33.08,14.84,6.11,19.87,15.22,19.88,15.14Z"/>
          <path class="cls-18" d="m373.26,143c-13.86-6.77-24.81-11.5-52.61-31.6-27.83-20.55-66.83-39.75-66.8-39.35,2.77-3.45,5.53-6.86,8.3-10.23.26-3.01,78.93,49.27,92.47,62.02,14.16,9.2,18.62,19.24,18.64,19.16Z"/>
          <path class="cls-18" d="m203.5,137.52c6.28-11.19,10.02-21.18,36.18-38.77,26.25-17.89,62.21-34.22,62.13-33.87-6.23,6.07-12.48,12.35-18.75,18.82.06-1.12-48.57,28.92-58.55,40.7-10,10.35-21.02,13.11-21.01,13.13Z"/>
        </g>
        <g>
          <path class="cls-15" d="m178.14,154.89c12.18-9.61,20.99-18.91,53.87-26.35,33.06-7.96,78.01-6.1,77.86-5.56.54,4.09,1.08,8.19,1.62,12.29.11.15-23.34-2.74-48.81-.13-25.44,1.88-52.9,9.25-60.13,13.1-14.73,7.21-24.41,6.7-24.41,6.66Z"/>
          <path class="cls-15" d="m274.21,150.23c9.47-9.46,16.14-18.57,45.55-27.33,29.63-9.17,68.04-11.2,67.84-10.75-6.61,3.3-13.3,6.85-20.07,10.66.41-1.67-57.37,11.17-70.24,20.59-12.51,7.31-23.08,6.84-23.08,6.83Z"/>
          <path class="cls-18" d="m191.97,161.04c13.98-6.58,24.59-13.46,57.29-11.78,32.88,1.14,76.91,15.23,76.75,15.76-.89,3.8-1.78,7.6-2.67,11.4.1.15-22.68-8.7-47.73-12.71-25-4.71-52.29-4.6-59.97-2.67-15.61,3.41-23.65.07-23.65,0Z"/>
          <path class="cls-18" d="m205.99,131c14.7-2.72,26.28-6.24,55.84,4.32,29.7,10.09,69.18,34.13,69.04,34.56-2.33,3.07-4.68,6.18-7.02,9.31.46-3.27-81.81-44.41-97.14-41.39-15.17-.83-20.71-6.72-20.71-6.8Z"/>
          <path class="cls-18" d="m90.26,76.62c13.02-9.69,22.88-18.79,52.85-23.25,30.25-3.61,44.17,1.15,44.08.83,8.1,3.58,16.25,7.5,24.44,11.76.13.15-22.45-3.8-45.92-2.8-23.61.34-48.1,5.62-55.06,9.13-14.25,6.61-20.36,4.4-20.39,4.33Z"/>
          <path class="cls-15" d="m157.8,158.89c-9.36-4.2-17.16-6.06-28.56-27.24-11.45-21.28-26.09-49.03-26.06-48.96,3.37-4.5,6.77-8.93,10.21-13.28-.21-.5,29.45,62.56,37.46,70.99,7.79,7.83,6.96,18.52,6.95,18.5Z"/>
          <path class="cls-15" d="m285.87,174.36c8.55-9.26,14.51-18.2,42.56-26.73,28.28-8.9,64.46-11.24,64.26-10.82,2,4.55,3.99,9.12,5.97,13.72,1.21-3.41-77.73,6.31-90.46,17.42-11.69,7.12-22.33,6.41-22.33,6.41Z"/>
          <path class="cls-15" d="m335.82,191.02c1.15-13.21,1.18-24.32,15.13-45.29,14-21.06,32.62-47.04,32.57-46.93,3.32,4.34,6.61,8.75,9.87,13.22.39-.99-40.73,51.74-45.33,65.02-4.21,12.14-12.23,13.95-12.23,13.97Z"/>
          <path class="cls-18" d="m405.3,135.26c-13.59-7.57-24.33-12.94-51.73-34.5-27.41-22-66.2-43.22-66.18-42.83,8.82.12,17.62.63,26.37,1.53.28-1.73,59.89,43.56,73.31,55.66,13.9,9.98,18.21,20.21,18.23,20.13Z"/>
          <path class="cls-18" d="m268.23,68.74c-13.23,4.97-23.16,8.56-56.34,12.98-33.46,3.87-76.81,21.55-76.57,22.09,6.77-6.83,13.63-13.39,20.56-19.69-.55-2.56,71.67-17.3,87.48-17.37,15.42-3.21,24.88,2.04,24.88,1.98Z"/>
          <path class="cls-18" d="m402.26,157.79c-10.6,2.42-17.95,4.23-47.96.41-30.04-4.31-73.64.96-73.62,1.46-.67-4.11-1.35-8.22-2.02-12.33-.13.14,22.93-3.27,46.78-2.39,23.98.21,48.76,4.7,55.13,4.99,13.09.14,21.68,7.89,21.69,7.86Z"/>
          <path class="cls-18" d="m407.02,137.03c-8.74,4.63-14.47,8.2-41.8,8.17-27.33-.44-67.62,8.67-67.64,9.11-1.44-4.14-2.88-8.28-4.32-12.4-.11.12,21.4-5.31,43.38-7.21,22.13-2.5,44.72-1.47,50.29-2.31,11.46-2.08,20.09,4.65,20.1,4.63Z"/>
          <path class="cls-15" d="m140.23,71.4c10.41-9.63,17.73-18.83,49.45-29.25,31.91-10.8,74.31-15.07,74.15-14.63,1.65,4.21,3.3,8.44,4.94,12.69.07.13-21.99.27-46.38,5.26-24.29,4.38-50.9,13.59-57.61,17.72-13.57,7.8-24.55,8.21-24.55,8.21Z"/>
          <path class="cls-15" d="m203.31,97.88c8.97-10.23,14.98-19.87,44.95-32.13,30.12-12.68,70.88-19.4,70.75-18.95,2.24,4.12,4.47,8.27,6.7,12.45.08.11-21.32,1.53-44.61,7.94-23.23,5.79-48.36,16.57-54.44,21.07-12.36,8.6-23.34,9.61-23.34,9.61Z"/>
          <path class="cls-15" d="m315.49,125.84c-9.01-10.96-16.78-18.51-26.85-48.19-10.07-29.64-17.09-46.36-17.08-46.38,1.89-9.27,3.78-18.52,5.66-27.76.03-.31,25.72,85.3,32.85,99.1,7.17,13.44,5.41,23.24,5.41,23.22Z"/>
          <path class="cls-18" d="m281.11,85.58c-14.75-2.57-26.48-3.98-54.89-15.96-28.55-12.42-66.37-20.6-66.24-20.21,2.7-4.21,5.41-8.38,8.13-12.51-.44-2.99,78.21,26.73,93.3,35.21,14.9,4.96,19.69,13.55,19.7,13.47Z"/>
          <path class="cls-18" d="m79.93,148.71c5.37-14.33,8.16-26.21,31.1-56.81,22.91-30.89,57.53-65.12,57.59-64.77-6.06,9.18-12.07,18.56-18.01,28.14-.41-1.13-44.87,53-52.91,69.78-8.66,15.32-17.78,23.64-17.77,23.66Z"/>
        </g>
      </g>
      <g>
        <path class="cls-6" d="m225.85,142.24c-3.01,38.09-23.81,67.52-46.47,65.73-22.65-1.79-38.58-34.12-35.57-72.21,3.01-38.1,23.82-67.52,46.47-65.73,22.65,1.79,38.58,34.12,35.56,72.22Z"/>
        <path class="cls-4" d="m220.35,145.67c-2.63,33.26-20.8,58.96-40.57,57.4-19.79-1.56-33.69-29.79-31.06-63.06,2.63-33.27,20.79-58.97,40.58-57.4,19.78,1.56,33.69,29.79,31.06,63.06Z"/>
        <path class="cls-18" d="m188.4,124.8c-.16,2.03-1.42,3.58-2.82,3.47-1.39-.11-2.4-1.84-2.23-3.87.16-2.03,1.42-3.58,2.81-3.47,1.4.11,2.4,1.85,2.24,3.87Z"/>
        <path class="cls-18" d="m177.09,131.61c-.16,2.03-1.42,3.58-2.82,3.47-1.39-.11-2.39-1.84-2.24-3.87.16-2.03,1.42-3.58,2.82-3.47,1.4.11,2.4,1.84,2.24,3.87Z"/>
        <path class="cls-18" d="m177.33,154.72c-.16,2.03-1.42,3.58-2.81,3.47-1.39-.11-2.39-1.84-2.23-3.87.16-2.03,1.42-3.58,2.81-3.48,1.4.11,2.4,1.85,2.24,3.87Z"/>
        <path class="cls-18" d="m186.88,164.1c-.16,2.03-1.41,3.58-2.81,3.47-1.39-.11-2.39-1.84-2.23-3.87.16-2.03,1.42-3.58,2.81-3.47,1.4.11,2.39,1.84,2.23,3.87Z"/>
        <path class="cls-18" d="m196.9,153.7c-.16,2.03-1.42,3.58-2.82,3.47-1.39-.11-2.39-1.84-2.23-3.87.16-2.03,1.42-3.58,2.82-3.47,1.4.11,2.4,1.84,2.23,3.87Z"/>
        <path class="cls-18" d="m186.99,142.66c-.16,2.03-1.42,3.58-2.81,3.47-1.39-.11-2.4-1.84-2.23-3.87.16-2.03,1.42-3.58,2.82-3.47,1.39.11,2.39,1.84,2.23,3.87Z"/>
        <path class="cls-18" d="m174.55,144.24c-.16,2.03-1.42,3.58-2.82,3.47-1.39-.11-2.39-1.84-2.23-3.87.16-2.03,1.42-3.58,2.81-3.47,1.4.11,2.4,1.84,2.24,3.87Z"/>
        <path class="cls-18" d="m199.16,138.07c-.16,2.03-1.42,3.58-2.81,3.47-1.4-.11-2.4-1.84-2.24-3.87.16-2.03,1.42-3.59,2.82-3.47,1.39.11,2.39,1.84,2.23,3.87Z"/>
      </g>
      <g>
        <path class="cls-6" d="m157.96,142.46c11.63,36.4,3.51,71.51-18.14,78.42-21.65,6.91-48.62-16.98-60.25-53.38-11.63-36.4-3.5-71.51,18.14-78.43,21.65-6.91,48.62,16.98,60.25,53.39Z"/>
        <path class="cls-4" d="m154.17,147.72c10.16,31.78,3.06,62.44-15.84,68.48-18.91,6.04-42.46-14.83-52.61-46.61-10.16-31.79-3.07-62.45,15.84-68.49,18.9-6.04,42.45,14.83,52.61,46.62Z"/>
        <path class="cls-18" d="m116.7,140.49c.62,1.94.04,3.85-1.29,4.28-1.33.43-2.92-.8-3.53-2.74-.62-1.94-.04-3.85,1.29-4.28,1.33-.43,2.92.8,3.54,2.74Z"/>
        <path class="cls-18" d="m108.8,151.07c.62,1.94.04,3.85-1.3,4.28-1.33.43-2.91-.8-3.53-2.74-.62-1.94-.04-3.86,1.29-4.28,1.33-.43,2.92.8,3.54,2.74Z"/>
        <path class="cls-18" d="m117.77,172.37c.62,1.94.04,3.85-1.29,4.28-1.33.43-2.91-.8-3.53-2.74-.62-1.94-.04-3.85,1.29-4.28,1.34-.43,2.92.8,3.54,2.74Z"/>
        <path class="cls-18" d="m130.16,177.44c.62,1.94.05,3.85-1.29,4.28-1.33.43-2.91-.8-3.53-2.74-.62-1.94-.04-3.85,1.29-4.28,1.34-.43,2.91.8,3.53,2.74Z"/>
        <path class="cls-18" d="m135.49,164.02c.62,1.94.04,3.85-1.29,4.28-1.33.43-2.91-.8-3.53-2.74-.62-1.94-.04-3.85,1.29-4.28,1.33-.43,2.91.8,3.53,2.74Z"/>
        <path class="cls-18" d="m122.15,157.55c.62,1.94.04,3.85-1.29,4.28-1.33.43-2.91-.8-3.53-2.74-.62-1.94-.04-3.86,1.29-4.28,1.33-.43,2.91.8,3.53,2.74Z"/>
        <path class="cls-18" d="m111.23,163.72c.62,1.94.04,3.85-1.29,4.28-1.33.43-2.91-.8-3.53-2.74-.62-1.94-.04-3.85,1.29-4.28,1.33-.43,2.92.8,3.53,2.74Z"/>
        <path class="cls-18" d="m131.67,148.7c.62,1.94.04,3.85-1.29,4.28-1.33.43-2.92-.8-3.54-2.74-.62-1.94-.04-3.86,1.29-4.28,1.33-.43,2.91.8,3.53,2.74Z"/>
      </g>
      <g>
        <path class="cls-14" d="m190.13,208.81c0,19.36-15.7,35.06-35.06,35.06s-35.06-15.7-35.06-35.06,15.7-35.06,35.06-35.06,35.06,15.7,35.06,35.06Z"/>
        <path class="cls-7" d="m164.6,188.72c0,3.63-4.27,6.57-9.53,6.57s-9.53-2.94-9.53-6.57,4.27-6.57,9.53-6.57,9.53,2.94,9.53,6.57Z"/>
        <g>
          <g>
            <path class="cls-19" d="m168.07,179.04c.37,4.75-.24,5.75-5.36,7.94-5.11,2.19-2.31-14.88-2.31-14.88,0,0-3.65,9.5-4.75,11.32-1.1,1.83-1.83,1.83-2.92.37-1.1-1.46-8.04-9.86-8.04-9.86,1.1,6.57,5.84,12.42,5.84,12.42l-3.65-1.1c-3.65-1.1-8.4-8.4-8.4-8.4l1.83,7.3c.85,3.4,3.29,4.98,5.65,5.7.49,1.53,1.41,3.54,3.12,5.26,2.46,2.46,4.51-2.04,5.39-4.46l.82.07c.55,4.69,6.52,3.34,9.41,2.39-2.71.17-5.76-3.12-5.76-3.12,0,0,6.57.36,8.77-3.29,2.19-3.65.37-7.67.37-7.67Zm-18.26,12.78c-1.33,2.22-2.67.12-3.51-1.87,1.76.48,3.43.5,4.32.46-.24.44-.51.91-.81,1.42Z"/>
            <path class="cls-19" d="m158.57,188.17s-2.19-10.23-2.92-12.05c-.73-1.83-2.92-.37-2.92-.37,2.19,2.56.36,10.83.36,10.83"/>
          </g>
          <path class="cls-20" d="m152.29,187.66s4.38,4.38,5.48-.36c0,0-1.39,2.96-5.48.36Z"/>
          <path class="cls-20" d="m156.77,181.08c.11.97.61,4.97,1.25,5.45.73.55,1.48.61,3.37.61-3.41-1.36-.99-15.04-.99-15.04,0,0-2.13,5.55-3.63,8.98Z"/>
          <g>
            <path class="cls-20" d="m153.43,184.64c.02-.12-.33-.34-.7-.85-1.1-1.46-8.04-9.86-8.04-9.86,1.1,6.57,5.84,12.42,5.84,12.42,0,0,2.53.3,2.9-1.71Z"/>
            <path class="cls-19" d="m150.54,186.35s0,0-1.27-.38c.4.18.82.31,1.27.38Z"/>
          </g>
        </g>
        <path class="cls-3" d="m134.46,193.74c-1.53,3.18-1.68,7.31-3.59,6.39-1.91-.92-2.22-4.24-.69-7.42,1.53-3.18,4.32-5.02,6.22-4.1,1.91.92-.42,1.95-1.95,5.13Z"/>
        <path class="cls-3" d="m131.32,206.78c-.14,1.1-1.15,1.88-2.25,1.74-1.1-.14-1.88-1.15-1.74-2.25.14-1.1,1.15-1.88,2.25-1.74,1.1.14,1.88,1.15,1.74,2.25Z"/>
        <path class="cls-7" d="m155.07,238.03c-14.33,0-26.81-7.33-33.28-18.15,4.63,13.94,17.78,24,33.28,24s28.65-10.05,33.28-24c-6.47,10.82-18.94,18.15-33.28,18.15Z"/>
      </g>
      <g>
        <g>
          <path class="cls-17" d="m411.03,161.72c.11-.1.22-.21.33-.32,2.02-2.11,2.55-5.36,1.87-8.2-.73-3.07-2.87-6.84-5.86-8.16-8.29-3.67-13.43,4.91-18.03,10.03-.22.25-.63.99-.69,1.31-.08.4.29.3.47.66,1.26,2.43,2.52,4.87,3.79,7.3.23.44.47.89.88,1.17.5.34,1.15.33,1.76.3,3.18-.16,6.34-.61,9.44-1.35,2.18-.52,4.41-1.24,6.04-2.74Z"/>
          <path class="cls-13" d="m388.8,157.62c.98.91,2.15,2.53,2.61,3.77.44,1.17,1.17,2.27,1.54,3.44.47,1.47,2.74.71,2.27-.76-.21-.65-.48-1.15-.82-1.72-.51-.86-.65-1.82-1.11-2.7-.67-1.28-1.84-2.84-2.91-3.83-1.13-1.05-2.71.75-1.58,1.8h0Z"/>
        </g>
        <g>
          <path class="cls-5" d="m400.93,193.6c-.06-.14-.12-.28-.19-.41-1.33-2.6-4.22-4.18-7.13-4.47-3.14-.32-7.41.46-9.64,2.84-6.19,6.61.21,14.3,3.53,20.32.16.29.73.92,1.01,1.09.35.21.38-.17.78-.23,2.71-.39,5.43-.78,8.14-1.17.49-.07,1-.15,1.39-.45.48-.36.69-.98.86-1.56.9-3.05,1.52-6.19,1.84-9.36.23-2.22.29-4.57-.6-6.61Z"/>
          <path class="cls-8" d="m389.74,213.24c1.18-.63,3.1-1.19,4.42-1.22,1.25-.03,2.52-.36,3.75-.32,1.54.04,1.58-2.35.03-2.4-.68-.02-1.24.08-1.9.21-.98.2-1.93.01-2.92.16-1.43.21-3.29.8-4.57,1.49-1.36.72-.18,2.81,1.18,2.09h0Z"/>
        </g>
        <g>
          <path class="cls-17" d="m394.15,198.12c.07.13.15.26.23.39,1.56,2.48,4.57,3.78,7.5,3.82,3.15.04,7.34-1.11,9.35-3.68,5.58-7.14-1.48-14.22-5.32-19.93-.18-.27-.81-.85-1.11-.99-.36-.17-.36.2-.76.3-2.67.63-5.34,1.26-8.01,1.89-.48.11-.98.24-1.35.57-.45.41-.6,1.04-.72,1.63-.63,3.12-.96,6.3-1,9.48-.03,2.24.12,4.58,1.18,6.53Z"/>
          <path class="cls-13" d="m403.56,177.57c-1.12.73-2.98,1.46-4.29,1.61-1.24.14-2.48.58-3.71.65-1.54.09-1.36,2.48.18,2.39.68-.04,1.23-.19,1.87-.38.96-.28,1.92-.19,2.89-.42,1.41-.34,3.2-1.09,4.42-1.89,1.29-.84-.07-2.82-1.36-1.97h0Z"/>
        </g>
        <g>
          <path class="cls-17" d="m377.13,187.73c.09-.12.19-.24.27-.36,1.68-2.4,1.71-5.68.6-8.39-1.19-2.92-3.88-6.32-7.03-7.18-8.75-2.36-12.53,6.9-16.29,12.66-.18.28-.47,1.08-.49,1.4-.02.4.33.25.57.58,1.62,2.21,3.24,4.43,4.85,6.64.29.4.6.81,1.05,1.02.55.25,1.19.15,1.78.03,3.12-.64,6.18-1.56,9.13-2.77,2.07-.84,4.17-1.89,5.55-3.63Z"/>
          <path class="cls-13" d="m354.53,187.06c1.11.75,2.51,2.18,3.15,3.33.61,1.09,1.5,2.06,2.04,3.16.68,1.38,2.81.29,2.13-1.09-.3-.61-.65-1.06-1.08-1.58-.63-.78-.92-1.7-1.51-2.5-.86-1.16-2.25-2.53-3.46-3.34-1.28-.86-2.57,1.16-1.29,2.02h0Z"/>
        </g>
        <g>
          <path class="cls-5" d="m412.08,181.3c.27-.12.54-.25.8-.39,2.55-1.44,3.99-4.39,4.16-7.31.18-3.15-.78-7.38-3.25-9.5-6.88-5.9-14.27.83-20.15,4.4-.28.17-.89.77-1.04,1.06-.19.36.19.37.26.77.51,2.69,1.01,5.39,1.52,8.08.09.48.19.99.51,1.37.39.47,1.01.65,1.6.79,3.67.91,7.44,1.42,11.22,1.51,1.4-.55,2.89-.85,4.39-.78Z"/>
          <path class="cls-8" d="m392.38,170.78c.68,1.15,1.32,3.05,1.41,4.36.08,1.25.47,2.51.48,3.73.02,1.54,2.42,1.47,2.39-.07,0-.68-.13-1.24-.29-1.88-.24-.97-.1-1.93-.29-2.91-.27-1.42-.94-3.25-1.68-4.5-.78-1.33-2.82-.06-2.03,1.27h0Z"/>
        </g>
        <g>
          <path class="cls-17" d="m366.88,139.61c-.1-.12-.19-.23-.3-.35-1.98-2.16-5.18-2.9-8.06-2.4-3.11.53-7.01,2.42-8.53,5.31-4.2,8.03,4.02,13.72,8.83,18.64.23.24.95.69,1.27.78.39.11.32-.27.69-.43,2.51-1.1,5.02-2.2,7.53-3.3.45-.2.92-.41,1.22-.8.37-.48.4-1.13.41-1.73.05-3.18-.19-6.37-.72-9.51-.38-2.2-.95-4.48-2.34-6.21Z"/>
          <path class="cls-13" d="m361.33,161.53c.97-.92,2.67-1.98,3.93-2.36,1.2-.36,2.34-1.02,3.53-1.31,1.5-.37.89-2.69-.61-2.32-.66.16-1.17.41-1.77.71-.9.45-1.86.53-2.77.93-1.32.58-2.95,1.65-4.01,2.65-1.12,1.06.57,2.76,1.69,1.69h0Z"/>
        </g>
        <g>
          <path class="cls-5" d="m396.61,117.31c-.14-.06-.28-.12-.42-.17-2.74-1.01-5.93-.2-8.27,1.56-2.52,1.9-5.12,5.37-5.14,8.63-.05,9.06,9.87,10.35,16.39,12.52.31.1,1.16.18,1.48.11.39-.09.16-.38.42-.7,1.73-2.13,3.45-4.26,5.18-6.39.31-.38.63-.79.72-1.27.11-.6-.16-1.19-.43-1.73-1.41-2.85-3.09-5.57-5-8.12-1.35-1.79-2.9-3.55-4.93-4.44Z"/>
          <path class="cls-8" d="m401.72,139.33c.44-1.26,1.47-2.98,2.41-3.9.9-.87,1.61-1.98,2.54-2.78,1.16-1.01-.44-2.8-1.6-1.78-.51.45-.86.9-1.25,1.44-.59.81-1.41,1.32-2.03,2.1-.91,1.13-1.87,2.82-2.35,4.19-.51,1.46,1.77,2.19,2.28.73h0Z"/>
        </g>
        <g>
          <path class="cls-17" d="m411.5,147.24c.14-.06.27-.13.41-.2,2.57-1.39,4.08-4.31,4.3-7.23.24-3.14-.63-7.39-3.07-9.57-6.76-6.04-14.29.55-20.24,4.01-.28.17-.9.75-1.06,1.04-.2.35.18.38.25.77.45,2.7.91,5.41,1.36,8.11.08.49.17,1,.48,1.38.38.47,1,.67,1.58.82,3.07.83,6.22,1.37,9.4,1.62,2.23.17,4.58.18,6.59-.75Z"/>
          <path class="cls-13" d="m391.6,136.51c.66,1.17,1.26,3.07,1.33,4.39.06,1.25.42,2.52.41,3.74,0,1.54,2.39,1.52,2.4-.02,0-.68-.11-1.24-.25-1.89-.22-.98-.06-1.93-.23-2.91-.24-1.42-.88-3.27-1.59-4.53-.76-1.34-2.81-.12-2.06,1.23h0Z"/>
        </g>
        <path class="cls-5" d="m375.05,129.37c-.06-.14-.12-.28-.18-.42-1.27-2.63-4.12-4.27-7.03-4.63-3.13-.39-7.41.29-9.7,2.63-6.34,6.48-.11,14.3,3.08,20.4.15.29.71.94.99,1.11.34.21.38-.16.78-.21,2.72-.33,5.44-.66,8.17-.99.49-.06,1-.13,1.4-.42.49-.35.71-.96.9-1.54.97-3.03,1.66-6.15,2.05-9.31.28-2.22.39-4.57-.45-6.62Z"/>
        <g>
          <path class="cls-17" d="m369.93,197.01c-.15.04-.29.08-.44.12-2.79.88-4.82,3.46-5.59,6.28-.83,3.04-.78,7.38,1.2,9.97,5.49,7.21,14.13,2.17,20.63-.1.31-.11,1.03-.57,1.24-.82.26-.31-.11-.4-.1-.81.07-2.74.13-5.48.2-8.22.01-.49.02-1.01-.21-1.45-.28-.54-.85-.84-1.39-1.11-2.86-1.4-5.85-2.53-8.92-3.37-2.16-.59-4.46-1.04-6.62-.51Z"/>
          <path class="cls-13" d="m387.43,211.32c-.42-1.27-.66-3.25-.47-4.56.18-1.24.07-2.55.31-3.75.3-1.51-2.06-1.94-2.36-.43-.13.67-.13,1.24-.11,1.9.03,1-.31,1.91-.33,2.9-.03,1.44.24,3.38.7,4.75.49,1.46,2.74.65,2.25-.82h0Z"/>
        </g>
        <g>
          <path class="cls-5" d="m408.72,164.11c.12.09.25.17.38.25,2.49,1.54,5.77,1.38,8.41.12,2.85-1.36,6.09-4.24,6.76-7.43,1.86-8.87-7.6-12.11-13.57-15.54-.29-.16-1.1-.41-1.43-.4-.4,0-.24.34-.55.6-2.12,1.74-4.23,3.48-6.35,5.23-.38.31-.78.65-.96,1.11-.22.56-.08,1.2.07,1.78.81,3.08,1.92,6.08,3.29,8.95.96,2.02,2.13,4.06,3.94,5.34Z"/>
          <path class="cls-8" d="m408.09,141.52c-.68,1.15-2.03,2.63-3.14,3.34-1.05.68-1.97,1.62-3.04,2.22-1.34.76-.13,2.83,1.21,2.06.59-.34,1.02-.71,1.51-1.16.74-.68,1.64-1.01,2.41-1.65,1.11-.92,2.39-2.39,3.13-3.64.79-1.33-1.3-2.5-2.09-1.17h0Z"/>
        </g>
        <g>
          <path class="cls-5" d="m367.98,175.82c-.14.06-.27.13-.4.21-2.56,1.42-4.02,4.36-4.21,7.28-.21,3.15.72,7.38,3.18,9.53,6.83,5.95,14.28-.72,20.19-4.25.28-.17.89-.76,1.05-1.05.19-.35-.18-.37-.26-.77-.49-2.7-.97-5.4-1.46-8.09-.09-.49-.19-.99-.5-1.38-.38-.47-1-.65-1.59-.8-3.08-.79-6.24-1.3-9.42-1.51-2.23-.15-4.58-.12-6.58.83Z"/>
          <path class="cls-8" d="m388.01,186.31c-.67-1.16-1.3-3.06-1.38-4.37-.07-1.25-.45-2.51-.45-3.74-.01-1.54-2.41-1.49-2.39.05,0,.68.12,1.24.28,1.89.23.98.08,1.93.26,2.91.26,1.42.92,3.26,1.65,4.51.77,1.33,2.82.08,2.04-1.25h0Z"/>
        </g>
        <g>
          <path class="cls-5" d="m361.79,160.71c-.06.14-.11.28-.16.43-.91,2.78.01,5.93,1.85,8.21,1.99,2.45,5.54,4.93,8.81,4.83,9.06-.27,9.99-10.23,11.93-16.83.09-.32.14-1.17.06-1.48-.1-.39-.39-.15-.71-.39-2.19-1.65-4.38-3.3-6.57-4.95-.39-.3-.81-.6-1.3-.67-.6-.09-1.18.2-1.71.49-2.8,1.51-5.46,3.29-7.93,5.29-1.74,1.41-3.44,3.02-4.27,5.08Z"/>
          <path class="cls-8" d="m383.61,154.81c-1.28-.39-3.03-1.36-3.98-2.27-.9-.87-2.03-1.54-2.87-2.43-1.05-1.13-2.78.54-1.72,1.66.47.5.93.82,1.49,1.2.83.56,1.37,1.36,2.17,1.96,1.16.87,2.89,1.77,4.28,2.19,1.47.45,2.12-1.85.65-2.31h0Z"/>
        </g>
        <g>
          <path class="cls-5" d="m386.58,135.33c-.12-.09-.25-.17-.38-.25-2.49-1.53-5.78-1.36-8.41-.1-2.84,1.36-6.08,4.25-6.74,7.45-1.84,8.87,7.63,12.09,13.61,15.5.29.16,1.1.41,1.43.4.4,0,.23-.34.55-.6,2.11-1.75,4.23-3.5,6.34-5.24.38-.31.77-.65.96-1.11.22-.56.08-1.2-.08-1.78-.82-3.08-1.93-6.07-3.31-8.94-.97-2.02-2.14-4.05-3.96-5.33Z"/>
          <path class="cls-8" d="m387.27,157.92c.68-1.15,2.02-2.63,3.13-3.35,1.05-.68,1.97-1.62,3.03-2.23,1.34-.77.12-2.83-1.22-2.06-.59.34-1.02.72-1.51,1.17-.74.68-1.64,1.02-2.41,1.66-1.11.93-2.39,2.4-3.13,3.65-.78,1.33,1.31,2.49,2.09,1.16h0Z"/>
        </g>
        <g>
          <path class="cls-17" d="m391.24,183.02c.15-.04.29-.07.44-.12,2.8-.86,4.85-3.43,5.64-6.24.86-3.03.84-7.37-1.12-9.98-5.44-7.25-14.12-2.28-20.63-.06-.31.11-1.03.56-1.25.81-.26.31.1.4.09.81-.09,2.74-.18,5.48-.26,8.22-.02.49-.03,1.01.2,1.45.28.54.85.85,1.39,1.12,2.85,1.42,5.83,2.57,8.89,3.44,2.15.61,4.45,1.08,6.61.56Z"/>
          <path class="cls-13" d="m373.85,168.58c.41,1.27.64,3.26.44,4.56-.19,1.24-.09,2.55-.34,3.75-.31,1.51,2.04,1.96,2.35.45.14-.67.14-1.24.12-1.9-.02-1,.32-1.9.35-2.9.04-1.44-.22-3.38-.67-4.76-.48-1.47-2.74-.67-2.26.8h0Z"/>
        </g>
        <path class="cls-11" d="m197.45,163.09l-.1-15.13,11.31-19.68s33.94-22.58,34.16-22.73c12.68-8.44,49.98-.63,62.24,5.45,13.88,6.89,39.24,20.25,44.51,34.94,7.33,20.42,12.75,34.75,20.21,55.77,0,0-4.37,22.01-4.37,22.03-2.52,12.69-50.59,32.24-60.79,34.33-19.24,3.95-84.21-6.23-99.86-17.93-21.65-16.18-17.74-44.92-7.32-77.06Z"/>
        <path class="cls-12" d="m323.2,181.41l7.25,9.04,8.88-10.59s2.73-5.79-3.98-11.86c-6.7-6.08-12.15,13.41-12.15,13.41Z"/>
        <path class="cls-12" d="m271.04,200.43l8.46-2.48,7.66.93s2.73-5.79-3.98-11.86c-6.7-6.08-12.15,13.41-12.15,13.41Z"/>
        <path class="cls-12" d="m275.94,127.89l8.06-.7,13.22.62s-2.04-3.66-8.74-9.74c-6.71-6.08-12.54,9.81-12.54,9.81Z"/>
        <path class="cls-12" d="m226.61,143.33s6.7,6.07,5.8,10.64c0,0-5.47,3.66-9.73,1.23-4.26-2.43-2.74,12.19-6.1,2-3.35-10.2,5.47-14.77,10.03-13.87Z"/>
        <path class="cls-10" d="m245.98,210.48c3.08,1.28,25.16,7.66,30.17,9.32,5.01,1.66,10.52.75,14.76-.41,4.23-1.16,7.31.12,11.54-4.38,4.23-4.5,3.71-5.27,6.66-6.68,2.95-1.42,7.7-1.81,10.26-1.3,2.57.51,5.26.38,7.19.76,1.93.38,7.31.12,9.88-2.71,2.56-2.83,4.49-2.44,6.66-6.68,2.17-4.24,4.1-3.85,5.37-10.27,1.27-6.42,2.19-20.12,2.7-22.69.51-2.57,13.03,28.15,14.58,33.8,1.55,5.64-12.34,27.89-20.03,33.03-7.69,5.14-32.32,8.26-51.3,13.17-18.98,4.91-25.39,6.97-40.04-3.27-14.64-10.24-8.39-31.68-8.39-31.68Z"/>
        <path class="cls-10" d="m255.04,118.96c-2.2,4.27-1.38,20.41,3.24,23.99,4.63,3.59,9.89,7.3,13.49,9.35,3.6,2.05,39.79,4.56,39.79,4.56,0,0-64.16,3.95-72.25-5.66-8.1-9.61-7.85-14.23-2.47-17.83,5.38-3.6,18.2-14.4,18.2-14.4Z"/>
      </g>
      <g>
        <circle class="cls-14" cx="209" cy="225.1" r="35.06" transform="translate(-59.52 75.94) rotate(-18.07)"/>
        <path class="cls-7" d="m227.56,212.84c-1.88,3.11-7.05,3.42-11.56.69-4.51-2.72-6.63-7.45-4.75-10.56,1.88-3.11,7.05-3.42,11.56-.69,4.51,2.72,6.63,7.45,4.76,10.56Z"/>
        <g>
          <g>
            <path class="cls-19" d="m235.53,206.35c-2.14,4.25-3.18,4.79-8.69,4.02-5.51-.77,5.72-13.93,5.72-13.93,0,0-8.04,6.24-9.92,7.23-1.88,1-2.51.62-2.69-1.2-.18-1.82-1.77-12.6-1.77-12.6-2.46,6.19-1.42,13.65-1.42,13.65l-2.56-2.83c-2.56-2.83-2.84-11.54-2.84-11.54l-2.22,7.2c-1.03,3.35.23,5.96,1.88,7.8-.38,1.56-.63,3.76-.05,6.11.83,3.38,4.92.59,6.92-1.03l.66.49c-1.95,4.3,3.85,6.23,6.81,6.92-2.41-1.25-3.31-5.65-3.31-5.65,0,0,5.44,3.71,9.2,1.72,3.77-1.99,4.28-6.37,4.28-6.37Zm-22.24,1.49c-2.29,1.21-2.34-1.28-2.03-3.42,1.26,1.32,2.68,2.2,3.46,2.63-.43.25-.9.51-1.43.79Z"/>
            <path class="cls-19" d="m222.68,209.25s3.42-9.88,3.74-11.83c.32-1.94-2.31-1.82-2.31-1.82.55,3.32-5.29,9.45-5.29,9.45"/>
          </g>
          <path class="cls-20" d="m217.57,205.56s1.48,6.02,4.88,2.52c0,0-2.72,1.82-4.88-2.52Z"/>
          <path class="cls-20" d="m224.81,202.25c-.4.89-2.05,4.57-1.75,5.31.34.85.95,1.29,2.56,2.27-2.21-2.93,6.93-13.38,6.93-13.38,0,0-4.7,3.64-7.75,5.8Z"/>
          <g>
            <path class="cls-20" d="m220.11,203.57c.08-.09-.1-.46-.16-1.09-.18-1.82-1.77-12.6-1.77-12.6-2.46,6.19-1.42,13.65-1.42,13.65,0,0,2.01,1.56,3.36.03Z"/>
            <path class="cls-19" d="m216.75,203.53s0,0-.89-.98c.25.36.54.69.89.98Z"/>
          </g>
        </g>
        <path class="cls-3" d="m199.16,201.55c-2.95,1.93-5.22,5.39-6.38,3.62-1.16-1.77.3-4.78,3.25-6.71,2.95-1.93,6.29-2.06,7.45-.29,1.16,1.77-1.37,1.45-4.32,3.38Z"/>
        <path class="cls-3" d="m189.73,211.08c-.69.87-1.95,1.01-2.82.32-.87-.69-1.01-1.95-.32-2.82.69-.87,1.95-1.01,2.82-.32.87.69,1.01,1.95.32,2.82Z"/>
        <path class="cls-7" d="m193.89,250.1c-12.27-7.42-19.15-20.15-19.09-32.75-3.25,14.33,2.8,29.74,16.06,37.75,13.26,8.02,29.72,6.22,40.89-3.31-11.13,5.91-25.6,5.73-37.87-1.69Z"/>
      </g>
    </g>
  </g>
</svg>