<?xml version="1.0" encoding="UTF-8"?>
<svg xmlns="http://www.w3.org/2000/svg" xmlns:xlink="http://www.w3.org/1999/xlink" viewBox="0 0 495.35 314.87">
  <defs>
    <style>
      .cls-1, .cls-2, .cls-3, .cls-4, .cls-5, .cls-6, .cls-7, .cls-8, .cls-9, .cls-10, .cls-11, .cls-12, .cls-13, .cls-14, .cls-15, .cls-16, .cls-17, .cls-18, .cls-19, .cls-20, .cls-21, .cls-22 {
        stroke-width: 0px;
      }

      .cls-1, .cls-23, .cls-9 {
        fill: #f8b500;
      }

      .cls-1, .cls-3, .cls-7 {
        mix-blend-mode: multiply;
      }

      .cls-24 {
        clip-path: url(#clippath);
      }

      .cls-2 {
        fill: url(#linear-gradient);
      }

      .cls-25, .cls-10 {
        fill: #fabe00;
      }

      .cls-26 {
        clip-path: url(#clippath-1);
      }

      .cls-27 {
        fill: #f3d4a1;
        stroke: #f3d4a1;
        stroke-width: .88px;
      }

      .cls-27, .cls-28 {
        stroke-linecap: round;
        stroke-linejoin: round;
      }

      .cls-28 {
        fill: none;
        stroke: #fff;
        stroke-width: 4.25px;
      }

      .cls-3 {
        fill: #782410;
        opacity: .25;
      }

      .cls-4 {
        fill: url(#linear-gradient-4);
      }

      .cls-5 {
        fill: url(#linear-gradient-2);
      }

      .cls-6 {
        fill: url(#linear-gradient-3);
      }

      .cls-7 {
        opacity: .2;
      }

      .cls-7, .cls-12 {
        fill: #93431d;
      }

      .cls-29 {
        isolation: isolate;
      }

      .cls-8 {
        fill: #f3f4b9;
      }

      .cls-11 {
        fill: #74a92d;
      }

      .cls-13 {
        fill: #fff1b0;
      }

      .cls-14 {
        fill: #fff;
      }

      .cls-15 {
        fill: #ffee7d;
      }

      .cls-16 {
        fill: #fff29b;
      }

      .cls-17 {
        fill: #ffea86;
      }

      .cls-18 {
        fill: #f5a200;
      }

      .cls-19 {
        fill: #eff09e;
      }

      .cls-20 {
        fill: #feebbe;
      }

      .cls-21 {
        fill: #e7e860;
      }

      .cls-22 {
        fill: #691c07;
      }
    </style>
    <linearGradient id="linear-gradient" x1="597.67" y1="-.68" x2="597.67" y2="-61.6" gradientTransform="translate(-204.48 106.45) rotate(.36)" gradientUnits="userSpaceOnUse">
      <stop offset="0" stop-color="#f3a68c"/>
      <stop offset="1" stop-color="#e60012"/>
    </linearGradient>
    <linearGradient id="linear-gradient-2" x1="613.52" y1=".41" x2="613.52" y2="-48.19" xlink:href="#linear-gradient"/>
    <clipPath id="clippath">
      <polygon class="cls-9" points="386.6 97.8 384.73 99.12 382.8 99.89 381.07 101.07 378.7 101.1 377.16 102.63 375.93 104.49 373.35 104.57 371.47 105.64 371.58 108.92 368.9 109.11 366.78 109.98 365.25 111.46 363.73 112.94 362.26 114.48 361.22 116.37 360.79 118.76 359.1 120.1 358.64 122.41 357.44 124.13 354.77 124.73 353.49 126.4 354 129.4 352.37 130.8 349.41 131.22 348.07 132.83 348.67 135.92 346.89 137.21 346.05 139.32 344.44 140.78 342.51 141.9 341.13 143.56 339.45 144.91 337.39 145.78 336.22 147.73 334.05 148.4 332.12 149.35 331.27 151.87 329.26 152.71 327.55 154.03 324.92 153.79 323.32 155.25 321.96 157.19 319.61 157.32 317.61 158.07 315.92 159.44 313.54 159.42 312.13 161.37 310.54 162.99 308.04 162.68 306.96 165.38 304.99 166.18 303.14 167.24 300.46 166.57 298.86 168.16 297.24 169.66 295.21 170.34 292.46 169.66 290.94 171.35 289.86 173.8 287.19 173.38 286.24 175.95 283.85 176.09 282.21 177.46 280.4 178.56 279.24 180.56 276.67 180.65 275.81 182.95 272.83 182.75 272.66 185.69 270.97 186.97 269.83 188.76 267.87 189.84 266.46 191.38 263.92 192.24 264.08 194.84 264.09 197.16 262.1 198.56 261.12 200.47 259.91 202.4 259.92 204.62 261.49 206.85 261.34 208.88 259.4 211.18 261.78 212.93 261.71 215.08 261.11 217.55 261.88 219.62 263.75 221.08 265.55 222.44 266.54 224.28 267.08 226.6 268.36 228.38 270.32 229.44 272.23 230.46 273.94 231.72 275.39 233.38 278.01 233.07 278.87 235.99 281.44 235.52 283.26 236.65 285.76 235.79 287.06 238.78 289.56 237.41 291.47 238.42 293.62 238.01 295.5 240.15 297.72 238.07 299.77 240.28 301.89 240.06 303.99 239.69 306.1 239.5 308 237.93 310.25 238.79 312.37 238.63 313.98 236.29 316.65 238.29 318.65 237.54 320.23 235.54 322.67 236.2 324.29 234.47 326.55 234.51 327.89 232.25 329.88 231.62 331.46 230.08 333.91 230.35 335.87 229.58 337.76 228.66 338.78 226.22 340.77 225.5 343.37 225.77 344.94 224.31 346.57 222.97 348.41 221.95 350.69 221.53 351.41 218.96 352.92 217.5 354.56 216.21 356.12 214.83 358.09 213.94 360.01 212.96 360.71 210.61 362.38 209.36 364.45 208.49 365.8 206.91 367.61 205.75 367.53 202.83 369.43 201.77 372.26 201.51 373.76 200.05 374.12 197.6 374.99 195.62 375.96 193.73 378.43 193.05 378.77 190.68 381.75 190.34 381.96 187.89 382.32 185.59 383.92 184.18 384.97 182.39 386.65 181.01 388.73 179.87 388.74 177.41 388.99 175.15 390.76 173.78 393.08 172.69 394.14 170.87 393.54 168.21 395.78 167 396.72 165.12 397.71 163.26 396.26 160.37 397.8 158.77 397.62 156.49 399.82 155.09 399.43 152.77 399.77 150.72 401.43 149.06 402.46 147.19 402.9 145.15 403.65 143.19 403.91 141.11 404.09 139.03 403.74 136.86 403.41 134.72 405.6 132.94 405.59 130.83 404.88 128.67 405.6 126.65 405.04 124.54 404.78 122.47 404.31 120.43 406.2 118.3 406.14 116.19 406.19 114.05 405.85 111.94 405.55 109.79 402.76 108.5 402.21 106.58 402.62 103.93 400.79 102.61 399.45 100.86 397.74 99.32 395.59 98.45 393.42 97.65 391.06 98.11 388.89 98.47 386.6 97.8"/>
    </clipPath>
    <linearGradient id="linear-gradient-3" x1="431.73" y1="100.31" x2="431.73" y2="39.38" gradientTransform="translate(-.12 -6.9) rotate(4.74)" xlink:href="#linear-gradient"/>
    <linearGradient id="linear-gradient-4" x1="447.58" y1="101.39" x2="447.58" y2="52.79" gradientTransform="translate(-.12 -6.9) rotate(4.74)" xlink:href="#linear-gradient"/>
    <clipPath id="clippath-1">
      <polygon class="cls-10" points="416.18 116.51 414.21 117.69 412.23 118.31 410.41 119.35 408.05 119.2 406.4 120.61 405.03 122.37 402.45 122.25 400.49 123.17 400.35 126.45 397.66 126.43 395.49 127.14 393.85 128.5 392.22 129.87 390.64 131.28 389.46 133.1 388.84 135.44 387.06 136.64 386.42 138.92 385.09 140.53 382.39 140.93 380.98 142.5 381.26 145.53 379.53 146.81 376.55 146.99 375.09 148.5 375.45 151.63 373.58 152.77 372.58 154.82 370.86 156.15 368.84 157.12 367.34 158.67 365.57 159.88 363.45 160.6 362.14 162.45 359.92 162.95 357.93 163.76 356.88 166.2 354.81 166.89 353.01 168.07 350.41 167.63 348.7 168.96 347.2 170.79 344.84 170.74 342.78 171.34 341 172.57 338.63 172.38 337.07 174.21 335.37 175.7 332.89 175.2 331.61 177.81 329.58 178.46 327.66 179.38 325.04 178.5 323.33 179.97 321.59 181.34 319.51 181.86 316.83 180.97 315.18 182.54 313.91 184.9 311.29 184.29 310.14 186.77 307.75 186.73 306.01 187.97 304.12 188.93 302.82 190.84 300.24 190.73 299.2 192.95 296.25 192.53 295.86 195.45 294.08 196.59 292.8 198.29 290.77 199.22 289.24 200.65 286.65 201.31 286.61 203.91 286.44 206.23 284.35 207.47 283.23 209.31 281.87 211.14 281.71 213.35 283.11 215.7 282.81 217.71 280.69 219.85 282.93 221.78 282.69 223.92 281.92 226.33 282.52 228.45 284.27 230.05 285.96 231.54 286.81 233.46 287.17 235.81 288.31 237.68 290.18 238.89 292.02 240.06 293.62 241.43 294.94 243.2 297.57 243.09 298.22 246.08 300.8 245.81 302.53 247.07 305.09 246.4 306.16 249.48 308.76 248.3 310.59 249.46 312.76 249.21 314.48 251.5 316.85 249.59 318.72 251.95 320.86 251.89 322.98 251.68 325.09 251.65 327.11 250.23 329.29 251.27 331.41 251.26 333.2 249.05 335.71 251.26 337.76 250.66 339.49 248.78 341.87 249.62 343.61 248.03 345.87 248.24 347.37 246.09 349.41 245.61 351.1 244.2 353.52 244.65 355.53 244.03 357.49 243.26 358.7 240.91 360.73 240.34 363.31 240.81 364.98 239.48 366.71 238.26 368.62 237.39 370.93 237.14 371.85 234.63 373.46 233.29 375.19 232.13 376.85 230.87 378.88 230.13 380.88 229.3 381.75 227.02 383.51 225.9 385.64 225.19 387.11 223.71 389 222.7 389.15 219.78 391.12 218.86 393.96 218.83 395.57 217.48 396.11 215.06 397.13 213.16 398.24 211.35 400.76 210.86 401.28 208.53 404.27 208.41 404.68 205.99 405.21 203.71 406.91 202.44 408.09 200.73 409.87 199.48 412.03 198.5 412.23 196.05 412.66 193.82 414.53 192.59 416.92 191.67 418.12 189.95 417.72 187.24 420.05 186.21 421.13 184.41 422.25 182.63 421.04 179.64 422.69 178.16 422.69 175.87 424.99 174.65 424.78 172.3 425.27 170.28 427.05 168.76 428.23 166.97 428.81 164.97 429.71 163.07 430.13 161.02 430.47 158.96 430.28 156.77 430.12 154.61 432.44 153 432.59 150.9 432.05 148.69 432.92 146.73 432.52 144.58 432.42 142.5 432.11 140.43 434.16 138.45 434.26 136.34 434.47 134.2 434.3 132.08 434.16 129.91 431.47 128.42 431.07 126.46 431.68 123.85 429.96 122.39 428.75 120.55 427.17 118.88 425.1 117.85 422.99 116.88 420.6 117.16 418.41 117.35 416.18 116.51"/>
    </clipPath>
  </defs>
  <g class="cls-29">
    <g id="_レイヤー_2" data-name="レイヤー 2">
      <g id="_イラスト" data-name="イラスト">
        <g>
          <g>
            <path class="cls-27" d="m494.91,159.95c0,85.32-110.69,154.48-247.23,154.48S.44,245.26.44,159.95,111.13,5.46,247.68,5.46s247.23,69.16,247.23,154.49Z"/>
            <ellipse class="cls-20" cx="247.68" cy="154.48" rx="247.23" ry="154.48"/>
            <ellipse class="cls-14" cx="247.68" cy="157.83" rx="189.84" ry="118.62"/>
            <ellipse class="cls-28" cx="247.68" cy="157.83" rx="227.81" ry="142.34"/>
          </g>
          <g>
            <g>
              <path class="cls-19" d="m312.69,81.58c-8.18-1.27-14.57-3.13-31.67,4.04-17.16,6.91-40.58,22.21-40.53,22.45,1.24,1.97,2.48,3.96,3.72,5.96-.06-1.87,48.16-28.86,56.6-27.59,8.58-.93,11.87-4.81,11.88-4.85Z"/>
              <path class="cls-21" d="m314.15,93.43c-8.16-.65-14.59-1.95-30.83,6.4-16.28,8.11-38.56,24.5-38.52,24.71,1.5,1.82,3,3.67,4.5,5.53-.02-1.67,45.55-31.25,53.73-30.84,8.34-1.56,11.11-5.76,11.12-5.8Z"/>
              <path class="cls-21" d="m302.16,83.54c-8.27-.91-14.72-2.51-32.06,5.42-17.41,7.65-40.9,24.08-40.84,24.33,1.17,1.93,2.34,3.88,3.51,5.84-.16-1.91,48.54-31.16,57.22-30.22,8.7-1.31,12.16-5.32,12.16-5.37Z"/>
              <path class="cls-21" d="m308.15,92.95c-8.43-3.37-14.86-7.01-34.12-4.55-19.35,2.15-45.54,12.42-45.46,12.73.73,2.19,1.47,4.39,2.2,6.59-.06.09,13.49-6.09,28.28-9.54,14.77-3.85,30.79-4.97,35.36-4.15,9.28,1.39,13.74-1.04,13.74-1.08Z"/>
              <path class="cls-21" d="m290.88,100.07c-8.35-.35-14.87-1.53-32.22,7.52-17.44,8.79-40.67,26.75-40.59,27,1.15,1.86,2.31,3.73,3.47,5.61-.26-1.91,48.22-34.33,57.07-33.95,8.76-1.88,12.26-6.13,12.27-6.17Z"/>
              <path class="cls-19" d="m301.93,104.77c-7.82-2.79-13.7-6.06-32.41-2.33-18.81,3.43-44.18,15.06-44.09,15.35.38,2.39.76,4.78,1.13,7.17-.05.08,13.1-6.88,27.48-11.32,14.36-4.82,29.96-7.11,34.31-6.63,8.84.72,13.58-2.2,13.59-2.24Z"/>
              <path class="cls-19" d="m256.2,155.78c-1.59-6.56-2.13-12.22-13.99-22.98-11.89-10.84-27.98-22.77-27.95-22.64-2.41,2.22-4.81,4.5-7.2,6.82-.23-1.06,34.95,23.94,39.03,31.3,3.89,6.11,10.11,7.48,10.11,7.5Z"/>
              <path class="cls-21" d="m240.32,111.43c8.44.9,14.89,1.62,34.41-.52,19.65-2.47,45.54,1.25,45.42,1.56-.54-2.56-1.09-5.11-1.63-7.67.05.09-13.3-2.04-28.18-1.48-14.82.14-31.17,2.98-35.79,3.32-9.39.41-14.22,4.82-14.22,4.78Z"/>
              <path class="cls-19" d="m260.35,158.65c-2.41-6.39-3.63-12.05-16.95-21.78-13.38-9.85-31.36-19.7-31.31-19.54-2.22,2.37-4.43,4.79-6.62,7.25-.29-1.31,38.86,19.91,43.77,27.23,4.7,5.78,11.12,6.83,11.12,6.85Z"/>
              <path class="cls-19" d="m242.58,123.12c-8.21-.99-14.56-2.93-33.57,4.96-19.21,7.56-42.96,25.57-42.77,25.89.31,2.19.62,4.39.93,6.59-.04.09,12.09-10.24,26.3-18.02,14.06-8.21,30.19-13.87,34.75-14.36,9.2-1.26,14.38-5.02,14.37-5.06Z"/>
              <path class="cls-21" d="m255.73,109.15c8.47,1.65,14.99,2.93,34.39,2.51,19.55-.75,44.77,5.31,44.63,5.62-.53-2.61-1.05-5.22-1.58-7.82.05.09-12.93-3.25-27.61-4.01-14.6-1.17-30.91.24-35.55.17-9.39-.41-14.27,3.57-14.27,3.53Z"/>
              <path class="cls-21" d="m142.8,158.51c6.85-6.54,12.07-11.38,27.75-29.15,15.64-18.05,39.28-36.7,39.32-36.43-4.87,1.17-9.69,2.55-14.44,4.15-.44-1.2-35.64,35.93-42.41,45.65-7.42,8.26-10.2,15.82-10.23,15.78Z"/>
              <path class="cls-21" d="m198.45,96.49c8.25-3.36,14.64-5.74,32.38-16.93,17.78-11.48,42.52-21.16,42.48-20.89-5.07-.68-10.14-1.14-15.21-1.39-.08-1.2-38.89,21.71-47.43,28.11-8.76,4.94-12.22,11.14-12.23,11.1Z"/>
              <path class="cls-21" d="m237.83,90.1c7.41,2.7,12.84,4.63,32.57,6.27,19.87,1.32,46.23,10.4,46.12,10.72.3-2.32.59-4.65.89-6.97.06.09-13.63-5.09-28.77-7.71-15.09-3.05-31.63-3.54-36.01-4.17-8.91-1.55-14.79,1.88-14.79,1.85Z"/>
              <path class="cls-19" d="m339.01,95.24c-6.71-1.29-12.11-3.06-24.53,4.63-12.41,7.53-29.85,21.24-29.85,21.37,1.67,2.42,3.33,4.87,4.99,7.34.17-1.01,34.92-27.29,41.23-27.23,6.59-1.14,8.14-6.08,8.15-6.11Z"/>
              <path class="cls-19" d="m269.97,87c-4.15-5.74-6.8-11.17-22.77-17.5-15.97-5.97-24.76-8.34-24.76-8.45-5.97,1.9-11.87,4.11-17.69,6.65-.39-1.81,45.86,8.01,52.4,14.77,6.28,4.63,12.82,4.53,12.82,4.53Z"/>
              <path class="cls-21" d="m182.62,131.85c6.86.25,11.69.39,30.66-4.44,19.02-5.15,46.23-4.94,46.2-4.62.31-2.43.62-4.85.92-7.27.08.09-14.26-.46-29.24,1.93-15.05,1.95-30.75,6.84-34.82,7.67-8.36,1.37-13.71,6.76-13.72,6.73Z"/>
              <path class="cls-21" d="m251.62,122.6c8.22-3.15,14.84-5.11,29.48-16.03,14.7-11.12,34.09-22.42,34.04-22.25-7.15.35-14.42,1.17-21.75,2.46.05-.42-23.74,20.22-31.77,25.45-8,4.7-9.99,10.4-9.99,10.36Z"/>
              <path class="cls-21" d="m146.73,161.32c7-6.29,12.33-10.93,28.24-28.19,15.88-17.54,39.7-35.49,39.74-35.22-1.17-1.82-2.33-3.63-3.49-5.43.08.08-12.32,9.36-24.87,21.85-12.67,12.14-25.5,27.48-29.18,31.59-7.56,8-10.41,15.45-10.43,15.41Z"/>
              <path class="cls-21" d="m241.91,99.25c-2.44-6.04-3.75-11.54-16.86-19.03-13.17-7.6-30.58-14.34-30.52-14.18,2.65,3.32,5.32,6.71,8.01,10.17-.13-.48,23.62,12.43,28.4,18.08,4.66,5.02,10.97,4.95,10.97,4.96Z"/>
            </g>
            <g>
              <path class="cls-19" d="m220.18,138.71c7.58-5.23,13.12-10.4,32.87-13.21,19.86-3.14,46.8.31,46.71.63.11,2.43.22,4.86.33,7.28.06.09-13.96-2.8-29.23-2.47-15.25-.11-31.73,3-36.14,4.97-8.98,3.65-14.55,2.83-14.55,2.8Z"/>
              <path class="cls-21" d="m282.54,62.07c8.72.16,15.6-.66,33.54,9.42,18.11,9.77,40.69,29.9,40.53,30.18-.98,1.67-1.96,3.35-2.95,5.05.03.08-11.5-11.03-24.92-20.1-13.3-9.44-28.49-16.84-33.05-17.92-9.18-2.38-13.16-6.58-13.15-6.62Z"/>
              <path class="cls-21" d="m222.25,69.69c8.45-3.61,14.91-7.44,34.14-5.56,19.32,1.56,45.39,11,45.31,11.3-.74,2.2-1.49,4.4-2.23,6.61.06.09-13.42-5.65-28.17-8.64-14.73-3.39-30.73-4.02-35.3-3.06-9.29,1.66-13.74-.61-13.75-.65Z"/>
              <path class="cls-21" d="m221.33,93.31c5.19-6.71,8.61-12.86,26.23-22.2,17.69-9.58,42.03-16.48,41.98-16.22,1.38,2.32,2.75,4.66,4.12,7.01.05.07-12.8,2.45-26.59,7.87-13.79,5.06-28.53,13.16-32.07,16.26-7.22,5.96-13.66,7.29-13.66,7.29Z"/>
              <path class="cls-21" d="m169.84,120.16c7.73-3.86,13.87-7.62,29.2-5.44,15.32,1.93,37.35,9.88,37.36,10.09-1.78,2.27-3.56,4.57-5.33,6.89-.34-1.64-43.99-13.76-51.23-10.12-7.82,1.7-9.98-1.38-10-1.42Z"/>
              <path class="cls-21" d="m312.04,160.6c-.68-8.3-1.78-14.96,3.99-30.33,5.77-15.39,13.69-35.61,13.67-35.58,2.29,1.96,4.56,3.96,6.81,6.02.09-.3-17.75,40.78-19,49.3-1.15,8.18-5.47,10.57-5.47,10.59Z"/>
              <path class="cls-19" d="m252.4,85.7c7.73-3.8,13.48-7.91,33.19-7.06,19.86.53,45.67,8.99,45.54,9.32.11,2.45.21,4.9.32,7.35.05.09-13.28-5.42-28.27-7.93-14.91-2.94-31.49-2.87-35.97-1.75-9.08,1.96-14.81.09-14.81.06Z"/>
              <path class="cls-19" d="m200.57,153.19c4.43-7.36,7.17-13.85,23.62-26.15,16.49-12.51,39.83-24.01,39.81-23.77,1.64,2.04,3.28,4.1,4.92,6.18-.08-2-49.34,24.9-55.54,34.26-6.52,7.02-12.81,9.47-12.8,9.48Z"/>
              <path class="cls-21" d="m219.76,136.69c-8.56,1.93-15.43,3.81-31.14,3.28-15.88-.8-35.15,3.33-35,3.57,1.35-3.16,2.71-6.3,4.08-9.41-.83-1.79,41.31-2.46,50.63-.87,8.54-.52,11.43,3.48,11.42,3.44Z"/>
              <path class="cls-19" d="m175.09,149.82c4.82-8.07,7.83-15.13,24.52-28.98,16.71-14.09,41.09-27.13,41.09-26.87,1.37,1.97,2.73,3.95,4.1,5.95.07.07-13,5.7-26.43,14.62-13.51,8.56-27.38,20.41-30.67,24.44-6.76,7.83-12.61,10.84-12.61,10.83Z"/>
              <path class="cls-19" d="m226.21,86.63c8.71-1.7,15.58-3.85,33.19,2.31,17.69,5.88,41.46,20.04,41.39,20.29-1.43,1.83-2.87,3.68-4.31,5.55.18-1.95-49.05-26.08-58.04-24.2-9-.42-12.23-3.91-12.23-3.95Z"/>
              <path class="cls-21" d="m215.46,110.22c-8.33,4.24-14.95,7.68-31.94,12.62-17.2,4.63-37.64,17.31-37.45,17.59.8-3.12,1.61-6.22,2.42-9.32-.02.08,10.36-6.47,22.91-11.07,12.37-4.97,26.91-7.98,31.28-9.43,8.78-3.12,12.78-.35,12.77-.39Z"/>
              <path class="cls-21" d="m313.48,92.82c-7.61,1.76-13.29,3.15-32.06,2.33-18.84-1.12-44.65,3.94-44.58,4.24,4.31-3.38,8.64-6.6,12.98-9.66-.02-1.36,41.45-1.84,50.06-.58,8.73-.41,13.58,3.72,13.59,3.68Z"/>
              <path class="cls-21" d="m315.8,115.72c-8.54-2.95-15.31-4.91-32.15-14.8-16.9-10.15-40.02-18.75-39.97-18.52,5.22-.87,10.47-1.5,15.71-1.9.02-1.04,36.37,19.61,44.94,25.26,8.69,4.39,11.46,10,11.47,9.95Z"/>
              <path class="cls-21" d="m240.84,76.66c-7.91,4.71-13.98,8.22-32.82,14.99-19.04,6.45-42.57,22.41-42.38,22.72.14-2.54.29-5.09.44-7.63-.03.09,11.98-8.52,26.06-14.93,13.93-6.84,29.92-11.48,34.38-13.28,9-3.87,14.34-1.83,14.33-1.87Z"/>
              <path class="cls-19" d="m261.52,125.39c5.33-5.35,8.98-10.58,26.66-15.34,17.64-4.31,26.3-2.79,26.31-2.94,6.29,1.54,12.49,3.44,18.58,5.71.04.07-12.1-.92-25.65.92-13.47,1.47-28.34,5.78-31.96,7.94-7.33,4.08-13.94,3.72-13.94,3.71Z"/>
              <path class="cls-19" d="m222.7,110.39c5.25-6.53,8.71-12.56,26.43-21.28,17.76-8.3,27.95-11.54,27.94-11.68,6.12,1.06,12.23,2.43,18.29,4.13.05.07-12.83,1.96-26.69,6.89-13.85,4.56-28.67,12.15-32.24,15.13-7.28,5.71-13.73,6.82-13.73,6.82Z"/>
              <path class="cls-21" d="m289.33,91.01c-8.63.38-15.28.77-34.42-2.39-19.26-3.48-44.71-1.45-44.6-1.15.81-2.58,1.62-5.16,2.43-7.73-.05.09,13.06-1.08,27.65.4,14.53,1.07,30.54,4.78,35.17,5.39,9.37.95,13.78,5.54,13.78,5.49Z"/>
              <path class="cls-21" d="m309.38,84.1c-8.62-2.2-15.43-3.58-32.63-12.05-17.27-8.73-40.71-15.2-40.65-14.96,7.9-1.1,15.88-1.66,23.86-1.68,0-.63,28.81,15.25,37.59,19.68,8.83,3.63,11.82,9.05,11.83,9.01Z"/>
              <path class="cls-21" d="m336.13,133.9c-8.25-4.03-14.76-6.84-31.29-18.8-16.55-12.22-39.75-23.64-39.73-23.41,1.65-2.05,3.29-4.08,4.93-6.08.16-1.79,46.95,29.3,54.99,36.89,8.42,5.47,11.08,11.45,11.09,11.4Z"/>
              <path class="cls-21" d="m235.16,130.63c3.74-6.65,5.96-12.6,21.52-23.06,15.61-10.64,37-20.36,36.95-20.15-3.7,3.61-7.42,7.34-11.15,11.19.03-.67-28.89,17.2-34.82,24.21-5.95,6.15-12.5,7.8-12.5,7.81Z"/>
            </g>
            <g>
              <path class="cls-19" d="m220.08,140.97c7.24-5.71,12.48-11.24,32.04-15.67,19.66-4.73,46.4-3.63,46.31-3.31.32,2.44.64,4.87.96,7.31.06.09-13.88-1.63-29.03-.08-15.13,1.12-31.46,5.5-35.76,7.79-8.76,4.29-14.52,3.98-14.52,3.96Z"/>
              <path class="cls-19" d="m269.73,143.71c5.63-5.63,9.6-11.05,27.09-16.25,17.62-5.45,40.47-6.66,40.35-6.39-3.93,1.96-7.91,4.07-11.94,6.34.25-1-34.12,6.65-41.78,12.25-7.44,4.35-13.73,4.07-13.73,4.06Z"/>
              <path class="cls-21" d="m265.87,42.03c8.51,2.48,15.39,3.84,30.29,17.46,14.98,13.41,34.41,36.21,34.34,36.39-1.87.92-3.75,1.88-5.64,2.86.33-1.38-40.26-44.36-48.75-47.24-8.24-4.52-10.24-9.43-10.24-9.47Z"/>
              <path class="cls-21" d="m228.3,144.62c8.31-3.92,14.62-8.01,34.07-7.01,19.56.68,45.75,9.06,45.65,9.37-.53,2.26-1.06,4.52-1.59,6.78.06.09-13.49-5.17-28.39-7.56-14.87-2.8-31.1-2.73-35.67-1.59-9.29,2.03-14.06.04-14.07,0Z"/>
              <path class="cls-21" d="m236.64,126.76c8.74-1.62,15.63-3.71,33.21,2.57,17.66,6,41.14,20.3,41.06,20.55-1.39,1.83-2.78,3.67-4.18,5.54.27-1.94-48.66-26.42-57.78-24.61-9.02-.49-12.32-4-12.32-4.04Z"/>
              <path class="cls-21" d="m170.17,88.9c7.74-5.76,13.61-11.17,31.43-13.83,17.99-2.15,26.27.68,26.22.49,4.82,2.13,9.66,4.46,14.53,7,.08.09-13.35-2.26-27.31-1.67-14.04.2-28.61,3.34-32.75,5.43-8.48,3.93-12.11,2.62-12.13,2.58Z"/>
              <path class="cls-19" d="m199.31,146.9c-5.56-2.5-10.21-3.61-16.99-16.2-6.81-12.66-15.52-29.16-15.5-29.12,2-2.68,4.03-5.31,6.07-7.9-.12-.3,17.52,37.21,22.28,42.22,4.63,4.66,4.14,11.02,4.13,11Z"/>
              <path class="cls-19" d="m284.15,152.55c5.08-5.51,8.63-10.82,25.31-15.9,16.82-5.29,38.34-6.68,38.22-6.44,1.19,2.71,2.37,5.42,3.55,8.16.72-2.03-46.23,3.75-53.8,10.37-6.96,4.23-13.28,3.81-13.28,3.81Z"/>
              <path class="cls-19" d="m318.62,139.78c.68-7.86.7-14.47,9-26.94,8.32-12.53,19.4-27.98,19.37-27.91,1.97,2.58,3.93,5.2,5.87,7.86.23-.59-24.22,30.77-26.96,38.67-2.5,7.22-7.27,8.3-7.27,8.31Z"/>
              <path class="cls-21" d="m344.11,120.69c-8.08-4.5-14.47-7.7-30.76-20.52-16.3-13.08-39.37-25.71-39.36-25.48,5.24.07,10.48.37,15.68.91.16-1.03,35.62,25.91,43.6,33.1,8.27,5.94,10.83,12.02,10.85,11.97Z"/>
              <path class="cls-21" d="m323.11,56.26c-7.56.7-13.08,1.16-32.69-1.9-19.7-3.38-46.98-.66-46.91-.33,4.29-2.83,8.59-5.5,12.89-8.01.03-1.52,43.74,2.23,52.46,4.82,8.92.72,14.25,5.45,14.25,5.42Z"/>
              <path class="cls-21" d="m273.66,89.73c-7.87,2.96-13.77,5.09-33.51,7.72-19.9,2.3-45.69,12.82-45.54,13.14,4.03-4.06,8.11-7.96,12.23-11.71-.33-1.52,42.63-10.29,52.03-10.33,9.17-1.91,14.8,1.21,14.8,1.18Z"/>
              <path class="cls-21" d="m353.38,142.69c-6.3,1.44-10.68,2.52-28.52.25-17.87-2.56-43.8.57-43.79.87-.4-2.45-.8-4.89-1.2-7.34-.08.08,13.64-1.95,27.82-1.42,14.26.12,29,2.8,32.79,2.97,7.78.08,12.89,4.7,12.9,4.67Z"/>
              <path class="cls-21" d="m361.73,129.56c-5.2,2.76-8.61,4.88-24.86,4.86-16.25-.26-40.22,5.16-40.23,5.42-.86-2.46-1.71-4.92-2.57-7.37-.07.07,12.73-3.16,25.8-4.29,13.16-1.49,26.6-.87,29.91-1.37,6.82-1.24,11.95,2.77,11.95,2.75Z"/>
              <path class="cls-19" d="m218.82,94.25c5.26-6.59,8.73-12.66,26.46-21.63,17.79-9.21,42.34-15.52,42.29-15.25,1.35,2.32,2.7,4.67,4.04,7.02.05.07-12.91,2.13-26.8,7.25-13.89,4.75-28.71,12.55-32.29,15.58-7.28,5.81-13.7,7.03-13.7,7.03Z"/>
              <path class="cls-19" d="m235.05,107.06c5.33-6.09,8.91-11.82,26.73-19.11,17.91-7.54,42.16-11.54,42.08-11.27,1.33,2.45,2.66,4.92,3.98,7.4.05.07-12.68.91-26.54,4.72-13.82,3.44-28.76,9.85-32.38,12.53-7.35,5.12-13.88,5.72-13.88,5.72Z"/>
              <path class="cls-19" d="m301.77,123.69c-5.36-6.52-9.98-11.01-15.97-28.66-5.99-17.63-10.16-27.57-10.16-27.58,1.12-5.51,2.25-11.02,3.37-16.51.02-.18,15.3,50.73,19.54,58.94,4.27,7.99,3.22,13.82,3.22,13.81Z"/>
              <path class="cls-21" d="m374.87,124.9c-4.6,2.59-7.44,4.59-22.93,3.7-15.47-1.13-38.83,3.04-38.87,3.3-1.13-2.46-2.26-4.91-3.4-7.35-.07.07,12.52-2.56,25.16-3.07,12.75-.86,25.56.41,28.61.05,6.31-.95,11.43,3.37,11.43,3.37Z"/>
              <path class="cls-21" d="m287.24,91.47c-8.78-1.53-15.75-2.37-32.65-9.49-16.98-7.39-39.47-12.26-39.4-12.02,1.61-2.5,3.22-4.98,4.83-7.44-.26-1.78,46.51,15.9,55.49,20.94,8.86,2.95,11.71,8.06,11.72,8.01Z"/>
              <path class="cls-21" d="m367.55,134.28c-6.05-6.95-10.93-11.85-22.12-30.79-11.16-19.09-27.28-42.42-27.31-42.3,4.85,4.42,9.65,9.06,14.38,13.91.16-.45,22.23,34.34,27.91,43.54,5.9,8.65,7.12,15.66,7.14,15.63Z"/>
              <path class="cls-21" d="m153.33,136.5c3.19-8.52,4.86-15.59,18.5-33.79,13.62-18.37,34.22-38.73,34.26-38.52-3.61,5.46-7.18,11.04-10.71,16.74-.24-.67-26.69,31.52-31.47,41.5-5.15,9.11-10.57,14.06-10.57,14.07Z"/>
            </g>
          </g>
          <g>
            <g>
              <path class="cls-19" d="m334,59.52c-8.18-1.27-14.57-3.13-31.67,4.04-17.16,6.91-40.58,22.2-40.53,22.44,1.24,1.97,2.48,3.96,3.72,5.96-.06-1.87,48.16-28.86,56.6-27.59,8.58-.93,11.87-4.81,11.88-4.85Z"/>
              <path class="cls-21" d="m335.46,71.36c-8.16-.65-14.59-1.95-30.83,6.4-16.28,8.11-38.56,24.49-38.52,24.71,1.5,1.82,3,3.67,4.51,5.53-.02-1.67,45.55-31.25,53.73-30.84,8.34-1.56,11.11-5.76,11.11-5.8Z"/>
              <path class="cls-21" d="m323.47,61.47c-8.27-.91-14.72-2.51-32.06,5.42-17.41,7.66-40.9,24.08-40.84,24.33,1.17,1.93,2.34,3.88,3.51,5.84-.16-1.91,48.54-31.16,57.21-30.22,8.7-1.31,12.16-5.32,12.16-5.37Z"/>
              <path class="cls-21" d="m329.46,70.88c-8.43-3.37-14.87-7.01-34.12-4.55-19.35,2.15-45.54,12.42-45.46,12.73.73,2.19,1.47,4.39,2.2,6.59-.06.09,13.49-6.09,28.28-9.54,14.77-3.85,30.79-4.97,35.36-4.15,9.28,1.38,13.74-1.04,13.74-1.08Z"/>
              <path class="cls-21" d="m312.19,78c-8.35-.35-14.87-1.53-32.22,7.52-17.44,8.79-40.66,26.75-40.59,27,1.15,1.86,2.31,3.73,3.47,5.61-.26-1.91,48.22-34.33,57.07-33.95,8.76-1.88,12.26-6.13,12.27-6.17Z"/>
              <path class="cls-19" d="m323.24,82.7c-7.82-2.8-13.7-6.06-32.42-2.33-18.81,3.43-44.18,15.06-44.09,15.35.38,2.39.76,4.78,1.14,7.17-.05.08,13.1-6.88,27.48-11.32,14.36-4.82,29.96-7.11,34.31-6.63,8.83.72,13.58-2.2,13.59-2.23Z"/>
              <path class="cls-19" d="m277.51,133.71c-1.59-6.56-2.13-12.22-13.99-22.98-11.9-10.84-27.98-22.77-27.95-22.64-2.41,2.22-4.81,4.5-7.2,6.82-.23-1.06,34.95,23.94,39.03,31.3,3.89,6.11,10.11,7.48,10.12,7.5Z"/>
              <path class="cls-21" d="m261.63,89.36c8.44.9,14.89,1.62,34.41-.52,19.65-2.47,45.54,1.25,45.42,1.56-.54-2.56-1.09-5.11-1.63-7.67.05.09-13.3-2.04-28.18-1.48-14.82.14-31.17,2.98-35.79,3.32-9.39.41-14.22,4.83-14.22,4.78Z"/>
              <path class="cls-19" d="m281.66,136.58c-2.41-6.39-3.63-12.05-16.95-21.78-13.38-9.85-31.36-19.7-31.31-19.54-2.22,2.37-4.43,4.79-6.62,7.25-.29-1.31,38.86,19.91,43.77,27.23,4.7,5.78,11.12,6.83,11.12,6.85Z"/>
              <path class="cls-19" d="m263.89,101.05c-8.21-.99-14.56-2.93-33.57,4.96-19.21,7.56-42.96,25.57-42.77,25.89.31,2.19.62,4.39.93,6.59-.04.09,12.09-10.24,26.3-18.02,14.06-8.21,30.19-13.87,34.75-14.36,9.2-1.25,14.37-5.02,14.37-5.06Z"/>
              <path class="cls-21" d="m277.04,87.08c8.47,1.65,14.99,2.94,34.39,2.51,19.54-.75,44.77,5.31,44.63,5.62-.53-2.61-1.05-5.21-1.58-7.82.05.09-12.93-3.25-27.61-4.01-14.6-1.17-30.91.24-35.55.17-9.39-.41-14.28,3.57-14.28,3.53Z"/>
              <path class="cls-21" d="m164.11,136.44c6.85-6.54,12.07-11.38,27.75-29.15,15.64-18.05,39.28-36.7,39.32-36.43-4.87,1.17-9.69,2.55-14.44,4.15-.44-1.2-35.64,35.93-42.41,45.65-7.42,8.25-10.2,15.82-10.23,15.78Z"/>
              <path class="cls-21" d="m219.76,74.43c8.25-3.36,14.64-5.74,32.39-16.93,17.78-11.48,42.52-21.16,42.48-20.89-5.07-.68-10.14-1.14-15.21-1.39-.08-1.2-38.89,21.71-47.42,28.11-8.76,4.93-12.22,11.14-12.23,11.1Z"/>
              <path class="cls-21" d="m259.14,68.03c7.41,2.7,12.84,4.63,32.57,6.27,19.86,1.32,46.23,10.4,46.11,10.72.3-2.32.59-4.65.89-6.97.06.09-13.63-5.09-28.77-7.71-15.09-3.05-31.63-3.54-36.01-4.17-8.91-1.55-14.79,1.88-14.79,1.85Z"/>
              <path class="cls-19" d="m360.32,73.17c-6.72-1.29-12.11-3.06-24.53,4.63-12.41,7.53-29.85,21.24-29.85,21.37,1.67,2.42,3.33,4.87,4.99,7.34.16-1.01,34.92-27.29,41.23-27.23,6.59-1.14,8.14-6.08,8.15-6.11Z"/>
              <path class="cls-19" d="m291.28,64.94c-4.15-5.74-6.8-11.18-22.77-17.5-15.97-5.97-24.76-8.34-24.76-8.45-5.97,1.9-11.87,4.11-17.69,6.65-.39-1.82,45.86,8.01,52.4,14.76,6.28,4.63,12.82,4.53,12.82,4.53Z"/>
              <path class="cls-21" d="m203.93,109.78c6.86.25,11.69.39,30.66-4.44,19.02-5.15,46.22-4.94,46.2-4.62.31-2.43.62-4.85.93-7.27.08.09-14.26-.46-29.24,1.93-15.05,1.95-30.75,6.84-34.82,7.67-8.36,1.38-13.71,6.76-13.72,6.73Z"/>
              <path class="cls-21" d="m272.93,100.53c8.22-3.14,14.84-5.11,29.48-16.03,14.7-11.12,34.1-22.42,34.04-22.25-7.15.35-14.42,1.17-21.75,2.46.05-.42-23.74,20.22-31.77,25.45-8,4.7-9.99,10.4-9.99,10.36Z"/>
              <path class="cls-21" d="m168.04,139.25c7-6.29,12.33-10.94,28.24-28.19,15.88-17.54,39.7-35.49,39.74-35.22-1.17-1.82-2.33-3.63-3.49-5.43.08.08-12.32,9.36-24.87,21.85-12.67,12.14-25.5,27.48-29.18,31.59-7.56,8-10.41,15.45-10.43,15.41Z"/>
              <path class="cls-21" d="m263.22,77.18c-2.44-6.04-3.75-11.54-16.86-19.03-13.17-7.6-30.59-14.34-30.52-14.19,2.65,3.32,5.32,6.71,8.01,10.17-.13-.49,23.62,12.43,28.41,18.08,4.66,5.02,10.97,4.95,10.97,4.96Z"/>
            </g>
            <g>
              <path class="cls-19" d="m241.49,116.64c7.58-5.23,13.13-10.4,32.87-13.21,19.86-3.13,46.8.31,46.71.63.11,2.43.22,4.86.33,7.28.06.09-13.96-2.8-29.23-2.47-15.25-.11-31.73,3-36.14,4.97-8.98,3.65-14.55,2.83-14.55,2.8Z"/>
              <path class="cls-21" d="m293.45,44.46c8.72.16,15.6-.66,33.54,9.42,18.11,9.77,40.69,29.9,40.53,30.18-.98,1.67-1.96,3.35-2.95,5.05.03.08-11.5-11.03-24.92-20.1-13.3-9.44-28.49-16.84-33.05-17.92-9.18-2.38-13.16-6.58-13.15-6.62Z"/>
              <path class="cls-21" d="m243.56,47.63c8.45-3.61,14.91-7.44,34.14-5.56,19.33,1.56,45.4,11,45.31,11.3-.74,2.2-1.49,4.4-2.23,6.61.06.09-13.42-5.65-28.17-8.63-14.73-3.39-30.73-4.02-35.31-3.06-9.29,1.66-13.74-.61-13.75-.65Z"/>
              <path class="cls-21" d="m242.64,71.24c5.19-6.71,8.61-12.86,26.23-22.2,17.69-9.58,42.03-16.48,41.98-16.22,1.38,2.32,2.75,4.66,4.12,7.01.05.07-12.8,2.45-26.59,7.87-13.79,5.06-28.53,13.16-32.07,16.26-7.22,5.96-13.66,7.29-13.66,7.29Z"/>
              <path class="cls-21" d="m191.15,98.09c7.74-3.86,13.87-7.62,29.2-5.44,15.32,1.93,37.35,9.88,37.36,10.09-1.78,2.27-3.56,4.57-5.33,6.89-.34-1.64-43.99-13.76-51.23-10.12-7.82,1.7-9.98-1.37-10-1.42Z"/>
              <path class="cls-21" d="m333.35,138.53c-.68-8.3-1.78-14.95,3.99-30.33,5.77-15.39,13.68-35.61,13.67-35.58,2.29,1.96,4.56,3.96,6.81,6.02.09-.3-17.75,40.78-19,49.3-1.15,8.18-5.47,10.57-5.47,10.59Z"/>
              <path class="cls-19" d="m273.71,63.63c7.73-3.8,13.48-7.91,33.19-7.06,19.86.53,45.68,8.99,45.54,9.32.11,2.45.21,4.9.32,7.35.05.09-13.28-5.42-28.27-7.93-14.91-2.94-31.49-2.87-35.97-1.75-9.09,1.96-14.81.09-14.81.06Z"/>
              <path class="cls-19" d="m221.88,131.12c4.43-7.36,7.17-13.85,23.62-26.15,16.49-12.51,39.83-24.01,39.81-23.77,1.64,2.04,3.28,4.1,4.92,6.18-.08-2-49.34,24.9-55.54,34.26-6.52,7.02-12.81,9.47-12.8,9.48Z"/>
              <path class="cls-21" d="m241.07,114.63c-8.56,1.93-15.42,3.81-31.14,3.28-15.88-.8-35.15,3.33-35,3.57,1.35-3.16,2.71-6.3,4.08-9.41-.83-1.79,41.31-2.47,50.63-.87,8.54-.52,11.43,3.48,11.42,3.44Z"/>
              <path class="cls-19" d="m196.4,127.75c4.82-8.07,7.83-15.13,24.52-28.98,16.71-14.09,41.09-27.13,41.09-26.87,1.36,1.97,2.73,3.95,4.1,5.95.07.07-13,5.7-26.43,14.62-13.51,8.56-27.38,20.41-30.67,24.44-6.76,7.83-12.61,10.84-12.61,10.83Z"/>
              <path class="cls-19" d="m247.52,64.56c8.71-1.7,15.58-3.85,33.19,2.31,17.69,5.88,41.46,20.04,41.39,20.29-1.43,1.83-2.87,3.69-4.31,5.55.18-1.95-49.05-26.08-58.04-24.2-9-.42-12.23-3.91-12.23-3.95Z"/>
              <path class="cls-21" d="m236.77,88.15c-8.33,4.24-14.95,7.68-31.94,12.62-17.2,4.63-37.64,17.3-37.45,17.59.8-3.11,1.61-6.22,2.42-9.32-.02.08,10.36-6.47,22.91-11.07,12.37-4.97,26.91-7.98,31.28-9.43,8.78-3.12,12.78-.35,12.77-.39Z"/>
              <path class="cls-21" d="m334.79,70.75c-7.62,1.76-13.29,3.15-32.06,2.33-18.84-1.12-44.64,3.94-44.58,4.24,4.31-3.38,8.64-6.6,12.98-9.66-.02-1.36,41.45-1.84,50.07-.58,8.73-.41,13.58,3.72,13.59,3.68Z"/>
              <path class="cls-21" d="m337.11,93.65c-8.54-2.95-15.31-4.91-32.16-14.8-16.9-10.15-40.01-18.75-39.97-18.52,5.22-.87,10.46-1.5,15.71-1.9.02-1.04,36.37,19.61,44.94,25.26,8.7,4.39,11.46,10,11.47,9.95Z"/>
              <path class="cls-21" d="m262.15,54.59c-7.91,4.71-13.98,8.22-32.82,14.98-19.04,6.45-42.57,22.41-42.38,22.72.14-2.55.29-5.09.44-7.63-.03.09,11.98-8.52,26.06-14.93,13.93-6.84,29.92-11.47,34.38-13.27,9-3.87,14.33-1.83,14.33-1.87Z"/>
              <path class="cls-19" d="m282.83,103.32c5.33-5.34,8.98-10.58,26.66-15.34,17.64-4.31,26.3-2.79,26.31-2.94,6.29,1.54,12.49,3.44,18.58,5.71.04.07-12.1-.92-25.65.92-13.47,1.47-28.34,5.78-31.96,7.94-7.33,4.08-13.94,3.72-13.94,3.71Z"/>
              <path class="cls-19" d="m244.01,88.32c5.25-6.53,8.71-12.56,26.43-21.28,17.76-8.3,27.95-11.54,27.94-11.68,6.12,1.06,12.23,2.43,18.29,4.13.05.07-12.83,1.96-26.69,6.89-13.85,4.56-28.67,12.15-32.24,15.13-7.28,5.71-13.73,6.82-13.73,6.82Z"/>
              <path class="cls-21" d="m310.64,68.94c-8.63.38-15.28.77-34.42-2.39-19.26-3.48-44.71-1.45-44.6-1.15.81-2.58,1.62-5.16,2.43-7.73-.05.09,13.06-1.08,27.65.4,14.53,1.07,30.54,4.78,35.17,5.39,9.37.95,13.78,5.54,13.78,5.49Z"/>
              <path class="cls-21" d="m330.7,62.04c-8.62-2.2-15.43-3.58-32.63-12.05-17.27-8.73-40.71-15.2-40.65-14.95,7.9-1.1,15.88-1.66,23.86-1.68,0-.63,28.82,15.25,37.59,19.68,8.83,3.63,11.82,9.05,11.83,9.01Z"/>
              <path class="cls-21" d="m357.44,111.83c-8.25-4.03-14.76-6.84-31.29-18.8-16.55-12.22-39.75-23.64-39.73-23.41,1.65-2.05,3.29-4.08,4.94-6.08.16-1.79,46.95,29.3,55,36.89,8.42,5.47,11.07,11.44,11.09,11.4Z"/>
              <path class="cls-21" d="m256.47,108.56c3.74-6.65,5.96-12.6,21.52-23.06,15.61-10.64,37-20.35,36.95-20.15-3.7,3.61-7.42,7.34-11.15,11.19.03-.67-28.89,17.2-34.82,24.2-5.95,6.15-12.5,7.8-12.5,7.81Z"/>
            </g>
            <g>
              <path class="cls-19" d="m241.39,118.9c7.24-5.71,12.48-11.25,32.04-15.67,19.66-4.73,46.4-3.63,46.31-3.31.32,2.44.64,4.87.96,7.31.06.09-13.88-1.63-29.03-.08-15.13,1.12-31.46,5.5-35.76,7.79-8.76,4.29-14.52,3.98-14.52,3.96Z"/>
              <path class="cls-19" d="m291.04,121.64c5.63-5.63,9.6-11.05,27.09-16.25,17.62-5.45,40.47-6.66,40.35-6.4-3.93,1.96-7.91,4.07-11.94,6.34.25-.99-34.12,6.65-41.78,12.25-7.44,4.35-13.73,4.07-13.73,4.06Z"/>
              <path class="cls-21" d="m249.61,122.55c8.31-3.91,14.63-8.01,34.07-7.01,19.56.68,45.75,9.06,45.65,9.37-.53,2.26-1.06,4.52-1.59,6.78.06.09-13.49-5.17-28.39-7.56-14.87-2.8-31.1-2.73-35.67-1.59-9.29,2.03-14.06.04-14.07,0Z"/>
              <path class="cls-21" d="m257.96,104.69c8.74-1.62,15.63-3.71,33.21,2.57,17.66,6,41.14,20.3,41.06,20.55-1.39,1.83-2.78,3.67-4.18,5.54.27-1.94-48.66-26.42-57.78-24.61-9.02-.49-12.32-4-12.32-4.04Z"/>
              <path class="cls-21" d="m191.48,66.83c7.74-5.76,13.61-11.17,31.44-13.83,17.99-2.15,26.27.68,26.22.49,4.82,2.13,9.66,4.46,14.54,7,.08.09-13.35-2.26-27.31-1.67-14.04.2-28.61,3.34-32.75,5.43-8.48,3.93-12.11,2.62-12.13,2.57Z"/>
              <path class="cls-19" d="m220.62,124.83c-5.56-2.5-10.21-3.61-16.99-16.2-6.81-12.66-15.52-29.16-15.5-29.12,2-2.68,4.03-5.31,6.07-7.9-.12-.3,17.52,37.21,22.28,42.22,4.63,4.66,4.14,11.02,4.13,11Z"/>
              <path class="cls-19" d="m305.46,130.48c5.08-5.51,8.63-10.82,25.31-15.9,16.82-5.29,38.34-6.68,38.22-6.44,1.19,2.71,2.37,5.43,3.55,8.16.72-2.03-46.23,3.75-53.8,10.36-6.95,4.23-13.28,3.81-13.28,3.81Z"/>
              <path class="cls-19" d="m339.93,117.71c.68-7.86.7-14.46,9-26.94,8.33-12.52,19.4-27.98,19.37-27.91,1.97,2.58,3.93,5.2,5.87,7.86.23-.59-24.22,30.77-26.96,38.67-2.5,7.22-7.27,8.3-7.27,8.31Z"/>
              <path class="cls-21" d="m376.49,107.22c-8.08-4.51-14.47-7.7-30.77-20.52-16.3-13.08-39.37-25.7-39.36-25.47,5.24.07,10.48.37,15.68.91.16-1.03,35.62,25.91,43.6,33.1,8.27,5.94,10.83,12.02,10.85,11.97Z"/>
              <path class="cls-21" d="m294.97,67.66c-7.87,2.96-13.77,5.09-33.51,7.72-19.9,2.3-45.68,12.81-45.54,13.14,4.03-4.06,8.1-7.96,12.23-11.71-.33-1.52,42.63-10.29,52.03-10.33,9.17-1.91,14.8,1.21,14.8,1.18Z"/>
              <path class="cls-21" d="m374.69,120.62c-6.3,1.44-10.68,2.52-28.53.25-17.87-2.56-43.8.57-43.79.87-.4-2.45-.8-4.89-1.2-7.34-.08.08,13.64-1.95,27.82-1.42,14.26.12,29,2.8,32.79,2.97,7.79.08,12.89,4.7,12.9,4.67Z"/>
              <path class="cls-21" d="m383.04,107.49c-5.2,2.76-8.61,4.88-24.86,4.86-16.25-.26-40.22,5.16-40.23,5.42-.86-2.46-1.71-4.92-2.57-7.37-.07.07,12.73-3.16,25.8-4.29,13.16-1.49,26.6-.87,29.91-1.37,6.82-1.24,11.95,2.77,11.95,2.75Z"/>
              <path class="cls-19" d="m240.13,72.18c5.26-6.59,8.73-12.66,26.46-21.63,17.79-9.21,42.34-15.52,42.29-15.25,1.35,2.32,2.7,4.66,4.04,7.02.05.07-12.91,2.13-26.8,7.25-13.89,4.75-28.71,12.55-32.29,15.58-7.28,5.81-13.7,7.03-13.7,7.03Z"/>
              <path class="cls-19" d="m256.36,84.99c5.33-6.09,8.91-11.82,26.73-19.11,17.91-7.54,42.16-11.54,42.08-11.27,1.33,2.45,2.66,4.92,3.98,7.4.05.07-12.68.91-26.53,4.72-13.82,3.44-28.76,9.85-32.38,12.53-7.35,5.12-13.88,5.72-13.88,5.72Z"/>
              <path class="cls-19" d="m323.08,101.62c-5.36-6.52-9.98-11.01-15.97-28.66-5.99-17.63-10.16-27.57-10.16-27.58,1.12-5.51,2.25-11.02,3.37-16.51.02-.18,15.3,50.73,19.54,58.94,4.27,7.99,3.22,13.82,3.22,13.81Z"/>
              <path class="cls-21" d="m392.71,95.9c-4.59,2.59-7.44,4.59-22.93,3.7-15.47-1.13-38.83,3.04-38.87,3.3-1.13-2.46-2.26-4.91-3.4-7.35-.07.07,12.52-2.56,25.16-3.07,12.75-.86,25.56.41,28.61.05,6.31-.95,11.43,3.37,11.43,3.37Z"/>
              <path class="cls-21" d="m308.55,69.4c-8.77-1.53-15.75-2.37-32.64-9.49-16.98-7.39-39.47-12.25-39.4-12.02,1.61-2.5,3.22-4.98,4.83-7.44-.26-1.78,46.51,15.9,55.49,20.94,8.86,2.95,11.71,8.06,11.72,8.01Z"/>
              <path class="cls-21" d="m174.64,114.43c3.2-8.52,4.86-15.59,18.5-33.79,13.62-18.37,34.22-38.73,34.26-38.52-3.61,5.46-7.18,11.04-10.71,16.74-.24-.67-26.69,31.53-31.47,41.5-5.15,9.11-10.57,14.06-10.57,14.07Z"/>
            </g>
          </g>
          <g>
            <g>
              <path class="cls-19" d="m272.67,59.44c-8.18-1.27-14.57-3.13-31.67,4.04-17.16,6.91-40.58,22.2-40.53,22.44,1.24,1.97,2.48,3.96,3.72,5.96-.06-1.87,48.16-28.86,56.6-27.59,8.58-.93,11.87-4.81,11.88-4.85Z"/>
              <path class="cls-21" d="m274.12,71.29c-8.16-.65-14.59-1.95-30.83,6.4-16.28,8.11-38.56,24.49-38.52,24.71,1.5,1.82,3,3.67,4.51,5.53-.02-1.67,45.55-31.25,53.73-30.84,8.34-1.56,11.11-5.76,11.11-5.8Z"/>
              <path class="cls-21" d="m262.14,61.4c-8.27-.91-14.72-2.51-32.06,5.42-17.41,7.66-40.9,24.08-40.83,24.33,1.17,1.93,2.34,3.88,3.51,5.84-.16-1.91,48.54-31.16,57.21-30.22,8.7-1.31,12.16-5.32,12.17-5.37Z"/>
              <path class="cls-21" d="m268.13,70.81c-8.43-3.37-14.87-7.01-34.12-4.55-19.35,2.15-45.54,12.42-45.46,12.73.73,2.19,1.47,4.39,2.2,6.59-.06.09,13.49-6.09,28.28-9.54,14.77-3.85,30.79-4.97,35.36-4.15,9.27,1.38,13.74-1.04,13.74-1.08Z"/>
              <path class="cls-21" d="m250.86,77.93c-8.35-.35-14.87-1.53-32.22,7.52-17.44,8.79-40.66,26.75-40.59,27,1.15,1.86,2.31,3.73,3.47,5.61-.26-1.91,48.22-34.33,57.07-33.95,8.76-1.88,12.26-6.13,12.27-6.17Z"/>
              <path class="cls-19" d="m261.91,82.63c-7.82-2.8-13.7-6.06-32.42-2.33-18.81,3.43-44.18,15.06-44.09,15.35.38,2.39.76,4.78,1.14,7.17-.05.08,13.1-6.88,27.48-11.32,14.36-4.82,29.96-7.11,34.31-6.63,8.83.72,13.58-2.2,13.59-2.23Z"/>
              <path class="cls-19" d="m216.18,133.64c-1.59-6.56-2.13-12.22-13.99-22.98-11.9-10.84-27.98-22.77-27.95-22.64-2.41,2.22-4.81,4.5-7.2,6.82-.23-1.06,34.95,23.94,39.03,31.3,3.89,6.11,10.12,7.48,10.12,7.5Z"/>
              <path class="cls-21" d="m200.3,89.29c8.44.9,14.89,1.62,34.41-.52,19.65-2.47,45.54,1.25,45.42,1.56-.54-2.56-1.09-5.11-1.63-7.67.05.09-13.3-2.04-28.18-1.48-14.82.14-31.17,2.98-35.79,3.32-9.39.41-14.22,4.83-14.22,4.78Z"/>
              <path class="cls-19" d="m220.33,136.51c-2.41-6.39-3.63-12.05-16.95-21.78-13.38-9.85-31.36-19.7-31.31-19.54-2.22,2.37-4.43,4.79-6.62,7.25-.29-1.31,38.86,19.91,43.77,27.23,4.7,5.78,11.12,6.83,11.12,6.85Z"/>
              <path class="cls-19" d="m202.56,100.98c-8.21-.99-14.56-2.93-33.57,4.96-19.21,7.56-42.96,25.57-42.77,25.89.31,2.19.62,4.39.93,6.59-.04.09,12.09-10.24,26.3-18.02,14.06-8.21,30.19-13.87,34.75-14.36,9.2-1.25,14.37-5.02,14.37-5.06Z"/>
              <path class="cls-21" d="m215.71,87.01c8.47,1.65,14.99,2.94,34.39,2.51,19.54-.75,44.77,5.31,44.63,5.62-.53-2.61-1.05-5.21-1.58-7.82.05.09-12.93-3.25-27.61-4.01-14.6-1.17-30.91.24-35.55.17-9.39-.41-14.28,3.57-14.28,3.53Z"/>
              <path class="cls-21" d="m102.78,136.37c6.85-6.54,12.07-11.38,27.75-29.15,15.64-18.05,39.28-36.7,39.32-36.43-4.87,1.17-9.69,2.55-14.44,4.15-.44-1.2-35.64,35.93-42.41,45.65-7.42,8.26-10.2,15.82-10.23,15.78Z"/>
              <path class="cls-21" d="m158.43,74.36c8.25-3.36,14.64-5.74,32.39-16.93,17.78-11.48,42.52-21.16,42.48-20.89-5.07-.68-10.14-1.14-15.21-1.39-.08-1.2-38.89,21.71-47.42,28.11-8.76,4.93-12.22,11.14-12.23,11.1Z"/>
              <path class="cls-21" d="m197.81,67.96c7.41,2.7,12.84,4.63,32.57,6.27,19.86,1.32,46.23,10.4,46.11,10.72.3-2.32.59-4.65.89-6.97.06.09-13.63-5.09-28.77-7.71-15.09-3.05-31.63-3.54-36.01-4.17-8.91-1.55-14.79,1.88-14.79,1.85Z"/>
              <path class="cls-19" d="m298.99,73.1c-6.72-1.29-12.11-3.06-24.53,4.63-12.41,7.53-29.85,21.24-29.85,21.37,1.67,2.42,3.33,4.87,4.99,7.34.17-1.01,34.92-27.29,41.23-27.23,6.59-1.14,8.14-6.08,8.15-6.11Z"/>
              <path class="cls-19" d="m229.95,64.86c-4.15-5.74-6.8-11.18-22.77-17.5-15.97-5.97-24.76-8.34-24.76-8.45-5.97,1.9-11.87,4.11-17.69,6.65-.39-1.81,45.86,8.01,52.4,14.76,6.28,4.63,12.82,4.53,12.82,4.53Z"/>
              <path class="cls-21" d="m142.6,109.71c6.86.25,11.69.39,30.66-4.44,19.02-5.15,46.22-4.94,46.2-4.62.31-2.43.62-4.85.93-7.27.08.09-14.26-.46-29.24,1.93-15.05,1.95-30.75,6.84-34.82,7.67-8.36,1.38-13.71,6.76-13.72,6.73Z"/>
              <path class="cls-21" d="m211.6,100.46c8.22-3.15,14.84-5.11,29.48-16.03,14.7-11.12,34.1-22.42,34.04-22.25-7.15.35-14.42,1.17-21.75,2.46.05-.42-23.74,20.22-31.78,25.45-8,4.7-9.99,10.4-9.99,10.36Z"/>
              <path class="cls-21" d="m106.71,139.18c7-6.29,12.33-10.94,28.24-28.19,15.88-17.54,39.7-35.49,39.74-35.22-1.17-1.82-2.33-3.63-3.49-5.43.08.08-12.32,9.36-24.87,21.85-12.67,12.14-25.5,27.48-29.18,31.59-7.56,8-10.41,15.45-10.43,15.41Z"/>
              <path class="cls-21" d="m201.89,77.11c-2.45-6.04-3.75-11.54-16.86-19.03-13.17-7.6-30.59-14.34-30.52-14.19,2.65,3.32,5.32,6.71,8.01,10.17-.13-.49,23.62,12.43,28.41,18.08,4.66,5.02,10.97,4.95,10.97,4.96Z"/>
            </g>
            <g>
              <path class="cls-19" d="m180.16,116.57c7.58-5.23,13.13-10.4,32.87-13.21,19.86-3.13,46.8.31,46.71.63.11,2.43.22,4.86.33,7.28.06.09-13.96-2.8-29.23-2.47-15.25-.11-31.73,3-36.14,4.97-8.98,3.65-14.55,2.83-14.55,2.8Z"/>
              <path class="cls-21" d="m242.52,39.93c8.72.16,15.6-.66,33.54,9.42,18.11,9.77,40.69,29.9,40.54,30.18-.98,1.67-1.96,3.35-2.95,5.05.03.08-11.5-11.03-24.92-20.1-13.3-9.44-28.49-16.84-33.05-17.92-9.18-2.38-13.16-6.58-13.16-6.62Z"/>
              <path class="cls-21" d="m182.23,47.56c8.45-3.61,14.91-7.44,34.14-5.56,19.33,1.56,45.39,11,45.31,11.3-.74,2.2-1.49,4.4-2.23,6.61.06.09-13.42-5.65-28.17-8.64-14.73-3.39-30.73-4.02-35.31-3.06-9.29,1.66-13.74-.61-13.75-.65Z"/>
              <path class="cls-21" d="m181.31,71.17c5.19-6.71,8.61-12.86,26.23-22.2,17.69-9.58,42.03-16.48,41.98-16.22,1.38,2.32,2.75,4.66,4.12,7.01.05.07-12.8,2.45-26.59,7.87-13.79,5.06-28.53,13.16-32.07,16.26-7.22,5.96-13.66,7.29-13.66,7.29Z"/>
              <path class="cls-21" d="m129.82,98.02c7.74-3.86,13.87-7.62,29.2-5.44,15.32,1.93,37.35,9.88,37.36,10.09-1.78,2.27-3.56,4.57-5.33,6.89-.34-1.64-43.99-13.76-51.23-10.12-7.82,1.7-9.98-1.37-10-1.42Z"/>
              <path class="cls-21" d="m272.02,138.46c-.68-8.3-1.78-14.95,3.99-30.33,5.77-15.39,13.68-35.61,13.67-35.58,2.29,1.96,4.56,3.96,6.81,6.02.09-.3-17.75,40.78-18.99,49.3-1.15,8.18-5.47,10.57-5.48,10.58Z"/>
              <path class="cls-19" d="m212.38,63.56c7.73-3.8,13.48-7.91,33.19-7.06,19.86.53,45.68,8.99,45.54,9.32.11,2.45.21,4.9.32,7.35.05.09-13.28-5.42-28.27-7.93-14.91-2.94-31.49-2.87-35.97-1.75-9.09,1.96-14.81.09-14.81.06Z"/>
              <path class="cls-19" d="m160.55,131.05c4.43-7.36,7.17-13.85,23.62-26.15,16.49-12.51,39.83-24.01,39.81-23.76,1.64,2.04,3.28,4.1,4.92,6.18-.08-2-49.34,24.9-55.54,34.26-6.52,7.02-12.81,9.47-12.8,9.48Z"/>
              <path class="cls-21" d="m179.74,114.56c-8.56,1.93-15.42,3.81-31.14,3.28-15.88-.8-35.15,3.33-35,3.56,1.35-3.16,2.71-6.3,4.08-9.41-.83-1.79,41.31-2.47,50.63-.87,8.54-.52,11.43,3.48,11.42,3.44Z"/>
              <path class="cls-19" d="m135.07,127.68c4.82-8.07,7.83-15.13,24.52-28.98,16.71-14.09,41.09-27.13,41.09-26.86,1.36,1.97,2.73,3.95,4.1,5.95.07.07-13,5.7-26.43,14.62-13.51,8.56-27.38,20.41-30.67,24.44-6.76,7.83-12.61,10.84-12.61,10.83Z"/>
              <path class="cls-19" d="m186.19,64.49c8.71-1.7,15.58-3.85,33.19,2.31,17.69,5.88,41.46,20.04,41.39,20.29-1.43,1.83-2.87,3.69-4.31,5.56.18-1.95-49.05-26.08-58.04-24.2-9-.42-12.23-3.91-12.23-3.95Z"/>
              <path class="cls-21" d="m175.44,88.08c-8.33,4.24-14.95,7.68-31.94,12.62-17.2,4.63-37.64,17.3-37.45,17.59.8-3.11,1.61-6.22,2.42-9.32-.02.08,10.36-6.47,22.91-11.07,12.37-4.97,26.91-7.98,31.28-9.43,8.78-3.12,12.78-.35,12.77-.39Z"/>
              <path class="cls-21" d="m273.46,70.68c-7.62,1.76-13.29,3.15-32.06,2.33-18.84-1.12-44.64,3.94-44.58,4.24,4.31-3.38,8.64-6.6,12.98-9.66-.02-1.36,41.45-1.84,50.07-.58,8.73-.41,13.58,3.72,13.59,3.68Z"/>
              <path class="cls-21" d="m275.78,93.58c-8.54-2.95-15.31-4.91-32.16-14.8-16.9-10.15-40.01-18.75-39.97-18.52,5.22-.87,10.46-1.5,15.71-1.9.02-1.04,36.37,19.61,44.94,25.26,8.7,4.39,11.47,10,11.48,9.95Z"/>
              <path class="cls-21" d="m200.82,54.52c-7.91,4.71-13.98,8.22-32.82,14.98-19.04,6.45-42.57,22.41-42.38,22.72.15-2.55.29-5.09.44-7.63-.03.09,11.98-8.52,26.06-14.93,13.93-6.84,29.92-11.47,34.38-13.27,9-3.87,14.33-1.83,14.33-1.87Z"/>
              <path class="cls-19" d="m221.5,103.25c5.33-5.34,8.98-10.58,26.66-15.34,17.64-4.31,26.3-2.79,26.31-2.94,6.29,1.54,12.49,3.44,18.58,5.71.04.07-12.1-.92-25.65.92-13.47,1.47-28.34,5.78-31.96,7.94-7.33,4.08-13.94,3.72-13.94,3.71Z"/>
              <path class="cls-19" d="m182.68,88.25c5.25-6.53,8.71-12.56,26.43-21.28,17.76-8.3,27.95-11.54,27.94-11.68,6.12,1.06,12.23,2.43,18.29,4.13.05.07-12.83,1.96-26.69,6.89-13.85,4.56-28.67,12.15-32.24,15.13-7.28,5.71-13.73,6.82-13.73,6.82Z"/>
              <path class="cls-21" d="m249.31,68.87c-8.63.38-15.28.77-34.42-2.39-19.26-3.48-44.71-1.45-44.6-1.15.81-2.58,1.62-5.16,2.43-7.73-.05.09,13.06-1.08,27.64.4,14.53,1.07,30.54,4.78,35.17,5.39,9.37.95,13.78,5.54,13.78,5.49Z"/>
              <path class="cls-21" d="m269.37,61.96c-8.62-2.2-15.43-3.58-32.63-12.05-17.27-8.73-40.71-15.2-40.65-14.95,7.9-1.1,15.88-1.66,23.86-1.68,0-.63,28.82,15.25,37.59,19.68,8.83,3.63,11.82,9.05,11.83,9.01Z"/>
              <path class="cls-21" d="m296.11,111.76c-8.24-4.03-14.75-6.84-31.29-18.8-16.55-12.22-39.75-23.64-39.73-23.41,1.65-2.05,3.29-4.08,4.94-6.08.16-1.79,46.95,29.3,55,36.89,8.42,5.47,11.07,11.44,11.09,11.4Z"/>
              <path class="cls-21" d="m195.14,108.49c3.74-6.65,5.96-12.6,21.52-23.06,15.61-10.64,37-20.35,36.95-20.15-3.7,3.61-7.42,7.34-11.15,11.19.03-.67-28.89,17.2-34.82,24.2-5.95,6.15-12.5,7.8-12.5,7.81Z"/>
            </g>
            <g>
              <path class="cls-19" d="m180.06,118.83c7.24-5.71,12.48-11.25,32.04-15.67,19.66-4.73,46.4-3.63,46.31-3.31.32,2.44.64,4.87.96,7.31.06.09-13.88-1.63-29.03-.08-15.13,1.12-31.46,5.5-35.76,7.79-8.76,4.29-14.52,3.98-14.52,3.96Z"/>
              <path class="cls-19" d="m229.71,121.57c5.63-5.63,9.6-11.05,27.09-16.25,17.62-5.45,40.47-6.66,40.35-6.4-3.93,1.96-7.91,4.07-11.94,6.34.25-.99-34.12,6.65-41.78,12.25-7.44,4.35-13.73,4.07-13.73,4.06Z"/>
              <path class="cls-21" d="m225.85,19.89c8.51,2.48,15.39,3.84,30.29,17.46,14.98,13.41,34.41,36.21,34.34,36.39-1.87.92-3.75,1.88-5.64,2.86.33-1.38-40.26-44.36-48.75-47.25-8.25-4.52-10.24-9.43-10.24-9.47Z"/>
              <path class="cls-21" d="m188.28,122.48c8.31-3.91,14.63-8.01,34.07-7.01,19.56.68,45.75,9.06,45.65,9.37-.53,2.26-1.06,4.52-1.59,6.78.06.09-13.49-5.17-28.39-7.56-14.87-2.8-31.1-2.73-35.67-1.59-9.29,2.03-14.07.04-14.07,0Z"/>
              <path class="cls-21" d="m189.4,145.48c4.72-6.73,7.76-12.83,24.7-22.74,17.01-10.13,40.3-18.27,40.24-18.03,1.55,2.26,3.1,4.54,4.65,6.85.2-2.02-49.47,17.85-56.28,26.31-6.81,6.09-13.31,7.61-13.31,7.62Z"/>
              <path class="cls-21" d="m196.63,104.62c8.74-1.62,15.63-3.71,33.21,2.57,17.66,6,41.14,20.3,41.06,20.55-1.39,1.83-2.78,3.67-4.18,5.54.27-1.94-48.66-26.42-57.78-24.61-9.02-.49-12.32-4-12.32-4.04Z"/>
              <path class="cls-21" d="m130.15,66.76c7.74-5.76,13.61-11.17,31.43-13.83,17.99-2.15,26.27.68,26.22.49,4.82,2.13,9.67,4.46,14.53,7,.08.09-13.35-2.26-27.31-1.67-14.04.2-28.61,3.34-32.75,5.43-8.48,3.93-12.11,2.62-12.13,2.57Z"/>
              <path class="cls-19" d="m159.29,124.76c-5.56-2.5-10.21-3.61-16.99-16.2-6.81-12.66-15.52-29.16-15.5-29.12,2-2.68,4.03-5.31,6.07-7.9-.12-.3,17.52,37.21,22.28,42.22,4.63,4.66,4.14,11.02,4.13,11Z"/>
              <path class="cls-19" d="m244.13,130.41c5.08-5.51,8.63-10.82,25.31-15.9,16.82-5.29,38.34-6.68,38.22-6.44,1.19,2.71,2.37,5.43,3.55,8.16.72-2.03-46.23,3.75-53.8,10.36-6.96,4.23-13.28,3.81-13.28,3.81Z"/>
              <path class="cls-19" d="m278.6,117.64c.68-7.86.7-14.46,9-26.94,8.33-12.52,19.4-27.98,19.37-27.91,1.97,2.58,3.93,5.2,5.87,7.86.23-.59-24.22,30.77-26.96,38.67-2.5,7.22-7.27,8.3-7.27,8.31Z"/>
              <path class="cls-21" d="m298.56,136.97c-7.51.02-13.1.1-31.46-4.56-18.4-4.97-44.4-5.15-44.37-4.86.44-2.52.88-5.04,1.32-7.55-.07.08,13.5-.01,27.83,2.56,14.38,2.18,29.53,7.02,33.71,7.89,8.54,1.49,12.96,6.56,12.97,6.52Z"/>
              <path class="cls-21" d="m304.09,98.55c-8.09-4.51-14.47-7.7-30.77-20.52-16.3-13.08-39.37-25.71-39.36-25.47,5.24.07,10.48.37,15.68.91.16-1.03,35.62,25.91,43.6,33.11,8.27,5.94,10.83,12.02,10.84,11.97Z"/>
              <path class="cls-21" d="m233.64,67.59c-7.87,2.96-13.77,5.09-33.51,7.72-19.9,2.3-45.68,12.81-45.54,13.14,4.03-4.06,8.11-7.96,12.23-11.71-.33-1.52,42.63-10.29,52.03-10.33,9.17-1.91,14.8,1.21,14.8,1.18Z"/>
              <path class="cls-21" d="m313.36,120.55c-6.3,1.44-10.68,2.52-28.52.25-17.87-2.56-43.8.57-43.79.87-.4-2.45-.8-4.89-1.2-7.34-.08.08,13.64-1.95,27.82-1.42,14.26.12,29,2.8,32.79,2.97,7.79.08,12.89,4.7,12.9,4.67Z"/>
              <path class="cls-21" d="m321.71,107.42c-5.2,2.76-8.6,4.88-24.86,4.86-16.25-.26-40.22,5.16-40.23,5.42-.86-2.46-1.71-4.92-2.57-7.37-.07.07,12.73-3.16,25.8-4.29,13.16-1.49,26.6-.87,29.91-1.37,6.82-1.24,11.95,2.77,11.95,2.75Z"/>
              <path class="cls-19" d="m178.8,72.11c5.26-6.59,8.73-12.66,26.45-21.63,17.79-9.21,42.34-15.52,42.28-15.25,1.35,2.32,2.7,4.67,4.04,7.02.05.07-12.91,2.13-26.8,7.25-13.89,4.75-28.71,12.55-32.29,15.58-7.28,5.81-13.7,7.03-13.7,7.03Z"/>
              <path class="cls-19" d="m195.03,84.92c5.33-6.09,8.91-11.82,26.73-19.11,17.91-7.54,42.16-11.54,42.08-11.27,1.33,2.45,2.66,4.92,3.98,7.4.05.07-12.68.91-26.53,4.72-13.82,3.44-28.76,9.85-32.38,12.53-7.35,5.12-13.88,5.72-13.88,5.72Z"/>
              <path class="cls-19" d="m261.75,101.55c-5.36-6.52-9.98-11.01-15.97-28.66-5.99-17.63-10.16-27.57-10.16-27.58,1.12-5.51,2.25-11.02,3.37-16.51.02-.18,15.3,50.73,19.54,58.94,4.27,7.99,3.22,13.82,3.22,13.81Z"/>
              <path class="cls-21" d="m334.85,102.76c-4.59,2.6-7.44,4.59-22.93,3.7-15.48-1.13-38.83,3.04-38.87,3.3-1.13-2.46-2.26-4.91-3.4-7.35-.07.07,12.52-2.56,25.16-3.07,12.75-.86,25.56.41,28.61.05,6.31-.95,11.43,3.37,11.43,3.37Z"/>
              <path class="cls-21" d="m247.22,69.33c-8.77-1.53-15.75-2.37-32.64-9.49-16.98-7.39-39.47-12.25-39.4-12.02,1.61-2.5,3.22-4.98,4.84-7.44-.26-1.78,46.51,15.9,55.49,20.94,8.86,2.95,11.71,8.06,11.71,8.01Z"/>
              <path class="cls-21" d="m327.53,112.14c-6.05-6.95-10.93-11.85-22.12-30.79-11.16-19.09-27.28-42.42-27.31-42.3,4.85,4.42,9.65,9.06,14.38,13.92.16-.45,22.23,34.34,27.91,43.54,5.9,8.65,7.12,15.67,7.14,15.64Z"/>
              <path class="cls-21" d="m113.31,114.36c3.2-8.52,4.86-15.59,18.5-33.79,13.62-18.37,34.22-38.73,34.25-38.52-3.61,5.46-7.18,11.04-10.71,16.74-.24-.67-26.69,31.53-31.47,41.5-5.15,9.11-10.57,14.06-10.57,14.07Z"/>
            </g>
          </g>
          <g>
            <path class="cls-16" d="m179.75,107.53l1.81-8.82-4.32-12.79s-17.19-17.1-17.3-17.21c-6.42-6.39-29.09-6.15-36.94-4.02-8.9,2.41-25.24,7.27-30.01,15.23-6.64,11.06-11.46,18.8-18.25,30.2v13.36c0,7.7,25.78,24.66,31.49,27.07,10.77,4.53,21.17,4.32,31.65-.7,14.5-6.94,44.23-22.36,41.87-42.32Z"/>
            <path class="cls-18" d="m104.26,103.66l-5.28,4.43-3.95-7.2s-.92-3.69,3.69-6.46c4.61-2.77,5.54,9.23,5.54,9.23Z"/>
            <path class="cls-18" d="m127.81,115.82l-4.65-2.43-4.58-.34s-.92-3.69,3.69-6.46c4.61-2.77,5.54,9.23,5.54,9.23Z"/>
            <path class="cls-18" d="m138.03,77.9l-4.62-1.34-7.78-1.17s1.61-1.9,6.23-4.67c4.62-2.77,6.18,7.18,6.18,7.18Z"/>
            <path class="cls-18" d="m165.02,92.62s-4.61,2.77-4.61,5.54c0,0,2.77,2.77,5.54,1.85,2.77-.92.19,7.43,3.32,1.87,3.14-5.56-1.48-9.25-4.25-9.25Z"/>
            <path class="cls-15" d="m145.95,129.56c-1.95.39-15.57,1.56-18.68,1.95-3.11.39-6.23-.78-8.56-1.95-2.33-1.17-4.28-.78-6.23-3.89-1.94-3.11-1.55-3.5-3.11-4.67-1.56-1.17-4.28-1.95-5.84-1.95s-3.11-.39-4.28-.39-4.28-.78-5.45-2.72c-1.17-1.95-2.33-1.95-3.11-4.67-.78-2.72-1.95-2.72-1.95-6.62s.39-4.67.39-6.23-2.33,8.56-3.89,11.67c-1.56,3.11-3.89,16.73,0,20.62,3.89,3.89,17.9,8.56,28.41,13.62s14.01,7,23.74,2.72c9.73-4.28,8.56-17.51,8.56-17.51Z"/>
            <path class="cls-15" d="m151.25,75.11c.79,2.75-1.56,12.06-4.67,13.62-3.11,1.56-6.62,3.11-8.95,3.89-2.33.78-23.74-1.95-23.74-1.95,0,0,36.97,9.73,42.81,5.06,5.84-4.67,6.23-7.39,3.5-10.12-2.72-2.72-8.95-10.51-8.95-10.51Z"/>
          </g>
          <g>
            <path class="cls-11" d="m337.49,140.7c-8.14,23.9-26.27,39.35-40.48,34.51-14.21-4.84-19.14-28.15-10.99-52.05,8.14-23.91,26.27-39.35,40.49-34.51,14.21,4.84,19.14,28.14,10.99,52.05Z"/>
            <path class="cls-8" d="m333.4,142c-7.11,20.87-22.94,34.36-35.35,30.13-12.42-4.23-16.71-24.58-9.6-45.45,7.11-20.88,22.94-34.37,35.35-30.14,12.41,4.23,16.71,24.58,9.6,45.45Z"/>
            <path class="cls-21" d="m316.35,123.42c-.43,1.27-1.49,2.06-2.37,1.76-.88-.3-1.23-1.57-.8-2.84.43-1.27,1.49-2.06,2.37-1.77.88.3,1.23,1.57.8,2.85Z"/>
            <path class="cls-21" d="m308,125.93c-.43,1.27-1.49,2.06-2.37,1.76-.88-.3-1.23-1.57-.8-2.84.43-1.27,1.5-2.06,2.37-1.76.88.3,1.24,1.57.8,2.84Z"/>
            <path class="cls-21" d="m304.38,140.77c-.43,1.27-1.49,2.06-2.37,1.76-.87-.3-1.23-1.57-.8-2.84.43-1.27,1.49-2.06,2.37-1.77.88.3,1.23,1.57.8,2.85Z"/>
            <path class="cls-21" d="m308.97,148.34c-.43,1.27-1.49,2.06-2.37,1.76-.87-.3-1.23-1.57-.8-2.84.43-1.27,1.49-2.06,2.37-1.76.88.3,1.23,1.57.8,2.84Z"/>
            <path class="cls-21" d="m317.08,143.31c-.43,1.27-1.49,2.06-2.37,1.76-.87-.3-1.23-1.57-.8-2.84.44-1.27,1.49-2.06,2.37-1.76.88.3,1.23,1.57.8,2.84Z"/>
            <path class="cls-21" d="m312.54,134.62c-.43,1.27-1.49,2.06-2.37,1.76-.87-.3-1.23-1.57-.8-2.84.43-1.27,1.5-2.06,2.37-1.77.87.3,1.23,1.57.8,2.85Z"/>
            <path class="cls-21" d="m304.31,133.61c-.43,1.27-1.5,2.06-2.37,1.76-.87-.3-1.23-1.57-.8-2.85.43-1.27,1.49-2.06,2.37-1.76.88.3,1.23,1.57.8,2.84Z"/>
            <path class="cls-21" d="m321.07,133.67c-.43,1.27-1.49,2.06-2.37,1.76-.88-.3-1.24-1.57-.8-2.84.43-1.27,1.5-2.06,2.37-1.76.87.3,1.23,1.57.8,2.84Z"/>
          </g>
          <g>
            <path class="cls-11" d="m301.54,123.85c4.13,24.91-4.53,47.1-19.34,49.55-14.81,2.46-30.17-15.74-34.31-40.66-4.13-24.91,4.53-47.1,19.34-49.56,14.81-2.46,30.17,15.74,34.3,40.66Z"/>
            <path class="cls-8" d="m298.56,126.93c3.61,21.75-3.96,41.13-16.89,43.27-12.94,2.15-26.35-13.75-29.96-35.5-3.61-21.76,3.95-41.13,16.89-43.28,12.94-2.15,26.35,13.75,29.96,35.51Z"/>
            <path class="cls-21" d="m274.74,118.62c.22,1.33-.34,2.52-1.25,2.68-.91.15-1.83-.8-2.05-2.13-.22-1.33.34-2.52,1.25-2.68.91-.15,1.83.8,2.05,2.13Z"/>
            <path class="cls-21" d="m268.57,124.79c.22,1.33-.34,2.52-1.26,2.67-.91.15-1.83-.8-2.05-2.13-.22-1.33.34-2.53,1.25-2.68.91-.15,1.83.8,2.05,2.13Z"/>
            <path class="cls-21" d="m272.41,139.58c.22,1.33-.34,2.52-1.25,2.68-.91.15-1.83-.8-2.05-2.13-.22-1.33.34-2.52,1.25-2.68.91-.15,1.83.8,2.05,2.13Z"/>
            <path class="cls-21" d="m280.02,144.07c.22,1.33-.34,2.52-1.25,2.67-.91.15-1.83-.8-2.05-2.13-.22-1.33.34-2.52,1.25-2.67.91-.15,1.83.8,2.05,2.13Z"/>
            <path class="cls-21" d="m284.79,135.81c.22,1.33-.34,2.52-1.25,2.68-.91.15-1.83-.8-2.05-2.13-.22-1.33.34-2.52,1.25-2.68.91-.15,1.83.8,2.05,2.13Z"/>
            <path class="cls-21" d="m276.68,130.3c.22,1.33-.34,2.52-1.25,2.67-.91.15-1.83-.8-2.05-2.13-.22-1.33.34-2.53,1.25-2.68s1.83.8,2.05,2.13Z"/>
            <path class="cls-21" d="m268.95,133.3c.22,1.33-.34,2.52-1.26,2.68-.91.15-1.83-.8-2.05-2.13-.22-1.33.34-2.52,1.25-2.67.91-.15,1.83.8,2.05,2.13Z"/>
            <path class="cls-21" d="m283.75,125.42c.22,1.33-.34,2.52-1.25,2.67-.91.15-1.83-.8-2.05-2.13-.22-1.33.34-2.53,1.26-2.68.91-.15,1.83.8,2.05,2.13Z"/>
          </g>
          <g>
            <g>
              <path class="cls-2" d="m393.37,109.54s-16.61-18.02-9.31-39.48l7.3-21.46s15.39,21.6,12.91,35.92c-2.48,14.32-10.91,25.02-10.91,25.02Z"/>
              <path class="cls-5" d="m390.64,110.61s-1.4-24.47,17.86-36.42l19.26-11.95s-1.81,26.47-12.82,35.95c-11,9.49-24.31,12.41-24.31,12.41Z"/>
            </g>
            <path class="cls-12" d="m286.37,149.78c7.11,17.96,8.7,38.87-1.93,56.04-17.14,27.69-44.38,29.7-69.64,34.15-24.47,4.31-35.8,2.04-62.73.09-15.94-1.15-33.45-5.52-47.03-17.17-17.69-15.19-24.94-50.05-13.57-74.85,11.2-24.43,29.86-38.01,52.56-42.6,23.7-4.79,50.4-7.42,74.19-3.98,14.88,2.15,35.36,10.06,47.54,21.29,8.03,7.41,15.66,14.52,20.61,27.04Z"/>
            <path class="cls-7" d="m97.08,166.12c3.11-1.99,8.77,11.8,12.75,12.71,3.98.91.8,1.82,7.17,6.36,6.38,4.54,7.55,5.14,11.16,7.26,31.48,18.49,106.96,5.12,129.12.91,19.13-3.63,23.11-13.62,24.71-16.34,1.59-2.72,5.58-9.08,5.58-3.63s.27,34.24-15.94,42.67c-70.21,36.53-151.52,17.83-164.18.91-12.2-16.31-23.11-42.67-10.36-50.84Z"/>
            <g>
              <polygon class="cls-23" points="386.6 97.8 384.73 99.12 382.8 99.89 381.07 101.07 378.7 101.1 377.16 102.63 375.93 104.49 373.35 104.57 371.47 105.64 371.58 108.92 368.9 109.11 366.78 109.98 365.25 111.46 363.73 112.94 362.26 114.48 361.22 116.37 360.79 118.76 359.1 120.1 358.64 122.41 357.44 124.13 354.77 124.73 353.49 126.4 354 129.4 352.37 130.8 349.41 131.22 348.07 132.83 348.67 135.92 346.89 137.21 346.05 139.32 344.44 140.78 342.51 141.9 341.13 143.56 339.45 144.91 337.39 145.78 336.22 147.73 334.05 148.4 332.12 149.35 331.27 151.87 329.26 152.71 327.55 154.03 324.92 153.79 323.32 155.25 321.96 157.19 319.61 157.32 317.61 158.07 315.92 159.44 313.54 159.42 312.13 161.37 310.54 162.99 308.04 162.68 306.96 165.38 304.99 166.18 303.14 167.24 300.46 166.57 298.86 168.16 297.24 169.66 295.21 170.34 292.46 169.66 290.94 171.35 289.86 173.8 287.19 173.38 286.24 175.95 283.85 176.09 282.21 177.46 280.4 178.56 279.24 180.56 276.67 180.65 275.81 182.95 272.83 182.75 272.66 185.69 270.97 186.97 269.83 188.76 267.87 189.84 266.46 191.38 263.92 192.24 264.08 194.84 264.09 197.16 262.1 198.56 261.12 200.47 259.91 202.4 259.92 204.62 261.49 206.85 261.34 208.88 259.4 211.18 261.78 212.93 261.71 215.08 261.11 217.55 261.88 219.62 263.75 221.08 265.55 222.44 266.54 224.28 267.08 226.6 268.36 228.38 270.32 229.44 272.23 230.46 273.94 231.72 275.39 233.38 278.01 233.07 278.87 235.99 281.44 235.52 283.26 236.65 285.76 235.79 287.06 238.78 289.56 237.41 291.47 238.42 293.62 238.01 295.5 240.15 297.72 238.07 299.77 240.28 301.89 240.06 303.99 239.69 306.1 239.5 308 237.93 310.25 238.79 312.37 238.63 313.98 236.29 316.65 238.29 318.65 237.54 320.23 235.54 322.67 236.2 324.29 234.47 326.55 234.51 327.89 232.25 329.88 231.62 331.46 230.08 333.91 230.35 335.87 229.58 337.76 228.66 338.78 226.22 340.77 225.5 343.37 225.77 344.94 224.31 346.57 222.97 348.41 221.95 350.69 221.53 351.41 218.96 352.92 217.5 354.56 216.21 356.12 214.83 358.09 213.94 360.01 212.96 360.71 210.61 362.38 209.36 364.45 208.49 365.8 206.91 367.61 205.75 367.53 202.83 369.43 201.77 372.26 201.51 373.76 200.05 374.12 197.6 374.99 195.62 375.96 193.73 378.43 193.05 378.77 190.68 381.75 190.34 381.96 187.89 382.32 185.59 383.92 184.18 384.97 182.39 386.65 181.01 388.73 179.87 388.74 177.41 388.99 175.15 390.76 173.78 393.08 172.69 394.14 170.87 393.54 168.21 395.78 167 396.72 165.12 397.71 163.26 396.26 160.37 397.8 158.77 397.62 156.49 399.82 155.09 399.43 152.77 399.77 150.72 401.43 149.06 402.46 147.19 402.9 145.15 403.65 143.19 403.91 141.11 404.09 139.03 403.74 136.86 403.41 134.72 405.6 132.94 405.59 130.83 404.88 128.67 405.6 126.65 405.04 124.54 404.78 122.47 404.31 120.43 406.2 118.3 406.14 116.19 406.19 114.05 405.85 111.94 405.55 109.79 402.76 108.5 402.21 106.58 402.62 103.93 400.79 102.61 399.45 100.86 397.74 99.32 395.59 98.45 393.42 97.65 391.06 98.11 388.89 98.47 386.6 97.8"/>
              <g class="cls-24">
                <polygon class="cls-1" points="254.33 214.63 256.18 214.12 257.7 215.64 258.94 217.71 261.67 217.12 263.65 217.83 265.6 218.56 266.39 221.91 269.07 221.03 271.18 221.38 272.88 222.84 274.41 224.98 277.21 222.93 279.1 223.94 281.21 224 282.96 226.05 285.07 226.32 287.26 225.65 289.32 226.44 291.43 225.08 293.48 225.04 295.7 226.46 297.95 226.91 299.65 224.35 301.69 223.88 303.6 222.92 305.97 223.55 307.97 222.83 310.06 222.39 312.48 222.8 313.61 219.72 316.5 221.32 318.51 220.56 320.64 220.09 321.54 216.76 324.17 217.46 326.59 217.63 328.05 215.69 330.33 215.51 331.44 212.9 334.07 213.39 335.68 211.85 338.07 211.8 338.69 208.4 341.82 209.73 342.62 206.74 345.2 206.99 346.43 204.84 348.35 203.92 351.2 204.56 352.95 203.3 354.73 202.09 356.38 200.69 357.57 198.59 359.23 197.25 360.64 195.56 362.74 194.86 364.72 193.96 365.98 192.14 367.11 190.27 369.83 190.04 371.29 188.44 370.85 185.55 373.34 184.66 373.47 182.28 376.68 181.65 375.5 178.6 377.24 177.12 377.18 174.73 378.05 172.81 379.33 171.07 381.39 169.7 382.53 167.88 383.87 166.15 383.48 163.64 385.7 162.32 384.22 159.31 385.13 157.38 385.82 155.35 387.85 153.94 389.77 152.5 391.18 150.83 392.04 148.9 392.63 146.83 392.69 144.46 392.99 142.17 394.16 140.34 397.45 140.06 397.11 137.02 399.41 136.45 400.59 134.75 402.3 133.59 404.01 132.46 404.72 130.19 405.72 128.17 407.75 127.38 409.58 126.35 411.31 125.13 413.31 123.92 414.59 126.64 416.21 127.15 415.77 129.1 416.59 131.16 416.75 133.37 417.04 135.69 415.99 137.63 415.3 139.66 412.97 141.1 414.18 143.81 411.36 145.01 412.16 147.61 410.35 149.17 410.39 151.49 408.79 153.12 408.4 155.26 406.5 156.75 405.16 158.47 406.38 161.35 403.58 162.4 402.35 164.17 403.13 166.87 402.01 168.69 401.94 171.02 401.36 173.1 399.25 174.45 398.68 176.53 396.21 177.71 397.68 180.78 394.91 181.79 394.49 183.95 394.57 186.36 393.2 188.06 390.44 189.06 391.95 192.19 390.33 193.75 388.09 195.01 386.74 196.7 386.93 199.18 386.59 201.38 385.13 203.02 382.68 203.86 382.96 206.79 380.65 207.57 380.16 210.04 378.41 211.31 376.03 211.9 373.96 212.77 374.36 216.37 372.03 216.96 369.28 217.04 369.41 220.46 367.07 220.99 365.82 222.83 363.33 223.12 362.64 225.69 359.5 225.09 359.39 228.47 357.37 229.33 355.41 230.26 352.98 230.52 351.49 232.08 349.35 232.7 348.73 235.63 345.78 234.97 345.29 238.2 342.82 238.25 340.82 239.04 339.67 241.34 337.67 242.15 335.76 243.14 333.57 243.55 331.92 245.09 330.06 246.24 327.21 244.83 325.21 245.41 323.35 246.48 321.61 248.26 319.16 246.58 317.19 246.9 315.13 248.81 313.1 247.66 311.16 246.47 309.14 246.06 306.84 246.95 304.63 247.16 302.7 246.16 300.31 246.81 299.12 243.48 296.46 244.88 294.93 242.85 292.95 242.15 290.19 243.45 288.73 241.39 286.21 241.91 285.36 238.57 282.82 239.08 281.06 237.85 279.2 236.86 277.06 236.39 275.42 234.98 274.34 232.61 271.6 233.15 269.1 233.15 268.03 230.87 266.33 229.61 264.74 228.2 263.09 226.9 260.47 226.73 259.73 224.34 257.81 223.24 256.27 221.71 255.71 219.47 255.53 217.27 254.99 215.5 254.33 214.63"/>
              </g>
            </g>
          </g>
          <g>
            <g>
              <path class="cls-6" d="m422.03,128.74s-15.19-19.24-6.27-40.08l8.92-20.84s13.7,22.71,10.13,36.8c-3.56,14.09-12.79,24.11-12.79,24.11Z"/>
              <path class="cls-4" d="m419.23,129.59s.48-24.5,20.59-34.95l20.12-10.44s-3.83,26.25-15.53,34.87c-11.7,8.62-25.18,10.52-25.18,10.52Z"/>
            </g>
            <g>
              <polygon class="cls-25" points="416.18 116.51 414.21 117.69 412.23 118.31 410.41 119.35 408.05 119.2 406.4 120.61 405.03 122.37 402.45 122.25 400.49 123.17 400.35 126.45 397.66 126.43 395.49 127.14 393.85 128.5 392.22 129.87 390.64 131.28 389.46 133.1 388.84 135.44 387.06 136.64 386.42 138.92 385.09 140.53 382.39 140.93 380.98 142.5 381.26 145.53 379.53 146.81 376.55 146.99 375.09 148.5 375.45 151.63 373.58 152.77 372.58 154.82 370.86 156.15 368.84 157.12 367.34 158.67 365.57 159.88 363.45 160.6 362.14 162.45 359.92 162.95 357.93 163.76 356.88 166.2 354.81 166.89 353.01 168.07 350.41 167.63 348.7 168.96 347.2 170.79 344.84 170.74 342.78 171.34 341 172.57 338.63 172.38 337.07 174.21 335.37 175.7 332.89 175.2 331.61 177.81 329.58 178.46 327.66 179.38 325.04 178.5 323.33 179.97 321.59 181.34 319.51 181.86 316.83 180.97 315.18 182.54 313.91 184.9 311.29 184.29 310.14 186.77 307.75 186.73 306.01 187.97 304.12 188.93 302.82 190.84 300.24 190.73 299.2 192.95 296.25 192.53 295.86 195.45 294.08 196.59 292.8 198.29 290.77 199.22 289.24 200.65 286.65 201.31 286.61 203.91 286.44 206.23 284.35 207.47 283.23 209.31 281.87 211.14 281.71 213.35 283.11 215.7 282.81 217.71 280.69 219.85 282.93 221.78 282.69 223.92 281.92 226.33 282.52 228.45 284.27 230.05 285.96 231.54 286.81 233.46 287.17 235.81 288.31 237.68 290.18 238.89 292.02 240.06 293.62 241.43 294.94 243.2 297.57 243.09 298.22 246.08 300.8 245.81 302.53 247.07 305.09 246.4 306.16 249.48 308.76 248.3 310.59 249.46 312.76 249.21 314.48 251.5 316.85 249.59 318.72 251.95 320.86 251.89 322.98 251.68 325.09 251.65 327.11 250.23 329.29 251.27 331.41 251.26 333.2 249.05 335.71 251.26 337.76 250.66 339.49 248.78 341.87 249.62 343.61 248.03 345.87 248.24 347.37 246.09 349.41 245.61 351.1 244.2 353.52 244.65 355.53 244.03 357.49 243.26 358.7 240.91 360.73 240.34 363.31 240.81 364.98 239.48 366.71 238.26 368.62 237.39 370.93 237.14 371.85 234.63 373.46 233.29 375.19 232.13 376.85 230.87 378.88 230.13 380.88 229.3 381.75 227.02 383.51 225.9 385.64 225.19 387.11 223.71 389 222.7 389.15 219.78 391.12 218.86 393.96 218.83 395.57 217.48 396.11 215.06 397.13 213.16 398.24 211.35 400.76 210.86 401.28 208.53 404.27 208.41 404.68 205.99 405.21 203.71 406.91 202.44 408.09 200.73 409.87 199.48 412.03 198.5 412.23 196.05 412.66 193.82 414.53 192.59 416.92 191.67 418.12 189.95 417.72 187.24 420.05 186.21 421.13 184.41 422.25 182.63 421.04 179.64 422.69 178.16 422.69 175.87 424.99 174.65 424.78 172.3 425.27 170.28 427.05 168.76 428.23 166.97 428.81 164.97 429.71 163.07 430.13 161.02 430.47 158.96 430.28 156.77 430.12 154.61 432.44 153 432.59 150.9 432.05 148.69 432.92 146.73 432.52 144.58 432.42 142.5 432.11 140.43 434.16 138.45 434.26 136.34 434.47 134.2 434.3 132.08 434.16 129.91 431.47 128.42 431.07 126.46 431.68 123.85 429.96 122.39 428.75 120.55 427.17 118.88 425.1 117.85 422.99 116.88 420.6 117.16 418.41 117.35 416.18 116.51"/>
              <g class="cls-26">
                <polygon class="cls-1" points="280.92 227.19 282.76 226.66 284.29 228.17 285.55 230.23 288.27 229.62 290.26 230.32 292.21 231.04 293.02 234.39 295.69 233.49 297.81 233.82 299.51 235.28 301.06 237.41 303.85 235.34 305.74 236.34 307.85 236.38 309.62 238.43 311.73 238.68 313.92 238 315.98 238.78 318.08 237.4 320.14 237.35 322.36 238.75 324.61 239.18 326.29 236.62 328.33 236.14 330.24 235.16 332.61 235.77 334.61 235.04 336.7 234.59 339.11 234.99 340.23 231.9 343.13 233.48 345.13 232.71 347.26 232.23 348.14 228.89 350.77 229.57 353.19 229.73 354.64 227.78 356.92 227.58 358.02 224.96 360.64 225.45 362.25 223.89 364.63 223.83 365.24 220.42 368.37 221.74 369.16 218.73 371.74 218.98 372.95 216.82 374.87 215.88 377.73 216.5 379.46 215.23 381.23 214.02 382.87 212.6 384.05 210.5 385.71 209.15 387.11 207.45 389.2 206.73 391.18 205.82 392.42 203.99 393.54 202.11 396.26 201.87 397.71 200.26 397.26 197.37 399.73 196.47 399.85 194.09 403.06 193.43 401.86 190.4 403.59 188.91 403.51 186.51 404.37 184.58 405.64 182.84 407.69 181.45 408.82 179.63 410.15 177.89 409.74 175.38 411.96 174.04 410.46 171.04 411.36 169.11 412.03 167.08 414.05 165.66 415.96 164.2 417.37 162.52 418.21 160.59 418.79 158.52 418.83 156.15 419.12 153.85 420.28 152.02 423.56 151.72 423.2 148.68 425.5 148.09 426.68 146.39 428.37 145.21 430.08 144.07 430.77 141.8 431.76 139.78 433.78 138.97 435.6 137.93 437.33 136.7 439.32 135.47 440.62 138.19 442.24 138.69 441.81 140.64 442.65 142.69 442.82 144.91 443.13 147.22 442.09 149.17 441.42 151.21 439.1 152.65 440.31 155.36 437.5 156.57 438.32 159.17 436.52 160.74 436.57 163.06 434.98 164.7 434.61 166.85 432.72 168.35 431.39 170.08 432.63 172.95 429.83 174.02 428.62 175.8 429.42 178.49 428.3 180.32 428.25 182.64 427.68 184.73 425.58 186.1 425.02 188.18 422.56 189.37 424.05 192.44 421.28 193.46 420.88 195.63 420.98 198.04 419.62 199.74 416.86 200.75 418.39 203.88 416.78 205.45 414.55 206.72 413.21 208.42 413.42 210.9 413.09 213.11 411.65 214.75 409.2 215.6 409.5 218.53 407.19 219.33 406.72 221.81 404.97 223.08 402.6 223.69 400.53 224.57 400.96 228.17 398.63 228.77 395.89 228.87 396.03 232.29 393.69 232.83 392.46 234.68 389.97 234.99 389.3 237.56 386.15 236.99 386.06 240.37 384.05 241.24 382.09 242.18 379.67 242.45 378.18 244.02 376.05 244.66 375.45 247.59 372.49 246.95 372.02 250.18 369.55 250.24 367.56 251.05 366.42 253.35 364.42 254.18 362.52 255.18 360.34 255.61 358.7 257.15 356.85 258.32 353.99 256.92 351.99 257.52 350.14 258.6 348.41 260.39 345.95 258.73 343.97 259.06 341.93 260.98 339.89 259.84 337.94 258.67 335.93 258.27 333.63 259.18 331.42 259.39 329.49 258.4 327.1 259.07 325.89 255.75 323.23 257.16 321.69 255.14 319.71 254.46 316.95 255.77 315.48 253.73 312.97 254.26 312.1 250.93 309.56 251.46 307.79 250.24 305.93 249.25 303.79 248.8 302.13 247.4 301.04 245.04 298.3 245.59 295.8 245.61 294.72 243.34 293.01 242.09 291.42 240.68 289.75 239.39 287.13 239.24 286.37 236.86 284.45 235.77 282.9 234.25 282.32 232.01 282.13 229.81 281.58 228.04 280.92 227.19"/>
              </g>
            </g>
          </g>
          <path class="cls-17" d="m395.41,218.63c-2.61-7.38-5.34-6.69-6.25-14.47-.66-5.67.79-11.54-.71-17.05-1.22-4.49-4.36-8.48-4.55-13.13-.1-2.41.61-4.92-.18-7.2-1.29-3.73-5.73-5.04-9.42-6.44-11.32-4.29-3.36-13.47-4.75-22.3-1.21-7.72-7.82-13.24-15.67-12.17-2.34.32-4.11,1.47-5.99,2.92-2.04,1.58-2.88,4.52-4.99,5.97-3.14,2.17-3.02,2.34-6.44,1.86-5.66-.79-7.48.66-11.07,5.11-2.74,3.4-10.4,7.79-13.1,11.21-2.49,3.16-5.76,5.7-9.44,7.32-3.61,1.6-7.63,2.35-10.89,4.57-4.05,2.77-6.89,13.36,1.27,11.04,1.55-.44,3.41-1.51,4.55-.37.53.54.62,1.35.72,2.11.95,7.06,9.03,9.53,15.06,9.77,5.63.23,11.67-.38,16.52,2.5,1.53.91,2.99,2.39,2.92,4.18-.09,2.49-2.88,3.86-4.33,5.9-1.82,2.57-1.3,6.28.52,8.85,1.82,2.57,4.69,4.2,7.58,5.45,4.96,2.15,10.3,3.43,15.7,3.76,5.88.36,13.72-2.26,17.34,2.38,3.22,4.13-.45,9.19,7.06,11.03,6.49,1.6,24,2.69,18.53-12.83Z"/>
          <g>
            <path class="cls-13" d="m312.16,163.13c-.62-.85-3.71-1.7-7.74,0-4.02,1.7-1.24,6.51-1.24,6.51l15.17-3.11s-5.57-2.55-6.19-3.39Z"/>
            <path class="cls-13" d="m375.96,189.34c-.08-1.05-2.25-3.4-6.57-4.09-4.31-.69-4.49,4.86-4.49,4.86l14.52,5.39s-3.38-5.11-3.46-6.16Z"/>
            <path class="cls-13" d="m364.78,161.15c-.31-2.83-1.86-2.26-3.41-3.11-1.55-.85-7.12-.57-7.12-.57l-1.24,4.53,12.07,6.79s.31-1.98.31-3.68-.31-1.13-.62-3.96Z"/>
            <path class="cls-13" d="m378.42,209.52c-.31-2.83-1.86-2.26-3.41-3.11-1.55-.85-7.12-.57-7.12-.57l-1.24,4.53,12.07,6.79s.31-1.98.31-3.68-.31-1.13-.62-3.96Z"/>
            <path class="cls-13" d="m338.78,154.37s.31-1.69,0-2.54c-.31-.85-2.17-.57-2.48-1.42-.31-.85-3.71-.28-3.71-.28,0,0-3.71,1.13-4.95,2.55l5.57,3.68,5.57-1.98Z"/>
            <path class="cls-13" d="m359.25,133.61s-.91-1.46-1.71-1.88c-.8-.42-1.98,1.04-2.78.62-.8-.42-2.94,2.29-2.94,2.29,0,0-1.99,3.34-1.95,5.22l6.6-1.03,2.79-5.21Z"/>
            <path class="cls-13" d="m340.95,168.23c-.31-.85-3.71-.28-3.71-.28,0,0-3.71,1.13-4.95,2.55l5.57,3.68,5.57-1.98s.31-1.7,0-2.55c-.31-.85-2.17-.57-2.48-1.41Z"/>
            <path class="cls-13" d="m349.63,195.51c-.31-.85-3.71-.28-3.71-.28,0,0-3.71,1.13-4.95,2.55l5.57,3.68,5.57-1.98s.31-1.7,0-2.55c-.31-.85-2.17-.57-2.47-1.41Z"/>
          </g>
          <path class="cls-22" d="m159.82,228.71c9.5-27.4-8.66-53.2-6.31-80.33,1.27-14.67,12.55-23.06,26.21-25.89,17.06-3.53,37.33-1.59,50.74,10.58,16.82,15.27,12.06,37.68,11.93,57.9-.1,15.72-5.23,49.18,7.1,40.96,6.17-4.11,23.88-2.57,18.74,8.54-3.31,7.14-11.91,8.49-18.39,11.32-11.14,4.86-22.01,14.33-34.14,15.65-12.63,1.38-24.26-2.85-36.2-6.1-12.29-3.34-25.19-4.01-37.27-8.31-16.43-5.85-21-19.59-34.66-28.21,9.72,6.02,26.46,10.19,37.32,13.06,1.98.52,3.74.51,5.85.48,1.72-.02,3.55,1.26,5.24.55,2.01-.84,3.16-3.95,3.2-5.86.02-.8-.16-1.77-.06-2.57.19-1.53,1.15-2.32,1.76-3.65-.14-.03-.28-.05-.43-.08"/>
          <path class="cls-3" d="m217.77,213.52c2.2-.49,4.5-1.07,6.67-.46,5.1,1.45,6.2,8.08,6.33,13.38.03,1.11.03,2.31-.62,3.22-.46.65-1.19,1.04-1.9,1.4-11.28,5.75-23.99,8.65-36.65,8.35-7.45-.17-17.82-4.98-20.85-11.79-12.34-27.69,33.98-11.22,47.02-14.09Z"/>
        </g>
      </g>
    </g>
  </g>
</svg>