<?xml version="1.0" encoding="UTF-8"?>
<svg xmlns="http://www.w3.org/2000/svg" xmlns:xlink="http://www.w3.org/1999/xlink" viewBox="0 0 502.55 319.45">
  <defs>
    <style>
      .cls-1 {
        fill: #f8b500;
      }

      .cls-1, .cls-2, .cls-3, .cls-4, .cls-5, .cls-6, .cls-7, .cls-8, .cls-9, .cls-10, .cls-11, .cls-12, .cls-13, .cls-14, .cls-15, .cls-16, .cls-17, .cls-18, .cls-19, .cls-20, .cls-21, .cls-22 {
        stroke-width: 0px;
      }

      .cls-1, .cls-3, .cls-5 {
        mix-blend-mode: multiply;
      }

      .cls-23 {
        clip-path: url(#clippath);
      }

      .cls-2 {
        fill: url(#linear-gradient);
      }

      .cls-24, .cls-7 {
        fill: #fabe00;
      }

      .cls-25 {
        fill: #f3d4a1;
        stroke: #f3d4a1;
        stroke-width: .88px;
      }

      .cls-25, .cls-26 {
        stroke-linecap: round;
        stroke-linejoin: round;
      }

      .cls-26 {
        fill: none;
        stroke: #fff;
        stroke-width: 4.25px;
      }

      .cls-3 {
        fill: #782410;
        opacity: .25;
      }

      .cls-4 {
        fill: url(#linear-gradient-2);
      }

      .cls-5 {
        opacity: .2;
      }

      .cls-5, .cls-10 {
        fill: #93431d;
      }

      .cls-27 {
        isolation: isolate;
      }

      .cls-6 {
        fill: #f3f4b9;
      }

      .cls-8 {
        fill: #489037;
      }

      .cls-9 {
        fill: #c01734;
      }

      .cls-11 {
        fill: #f08300;
      }

      .cls-12 {
        fill: #fff1b0;
      }

      .cls-13 {
        fill: #fff;
      }

      .cls-14 {
        fill: #ffee7d;
      }

      .cls-15 {
        fill: #fff29b;
      }

      .cls-16 {
        fill: #ffea86;
      }

      .cls-17 {
        fill: #f5a200;
      }

      .cls-18 {
        fill: #ffe55f;
      }

      .cls-19 {
        fill: #eff09e;
      }

      .cls-20 {
        fill: #feebbe;
      }

      .cls-21 {
        fill: #e7e860;
      }

      .cls-22 {
        fill: #691c07;
      }
    </style>
    <linearGradient id="linear-gradient" x1="380.29" y1="135.21" x2="380.29" y2="73.4" gradientTransform="translate(74.32 -62.1) rotate(10.28)" gradientUnits="userSpaceOnUse">
      <stop offset="0" stop-color="#f3a68c"/>
      <stop offset="1" stop-color="#e60012"/>
    </linearGradient>
    <linearGradient id="linear-gradient-2" x1="396.37" y1="136.31" x2="396.37" y2="87.01" xlink:href="#linear-gradient"/>
    <clipPath id="clippath">
      <polygon class="cls-7" points="419.86 125.9 417.77 126.9 415.7 127.33 413.77 128.21 411.4 127.83 409.59 129.08 408.03 130.73 405.44 130.35 403.37 131.1 402.91 134.39 400.2 134.11 397.93 134.61 396.15 135.82 394.37 137.05 392.63 138.32 391.26 140.04 390.41 142.34 388.49 143.38 387.63 145.62 386.12 147.12 383.36 147.26 381.78 148.7 381.76 151.79 379.89 152.91 376.86 152.81 375.24 154.18 375.3 157.38 373.3 158.35 372.09 160.32 370.22 161.49 368.09 162.28 366.43 163.7 364.51 164.74 362.3 165.26 360.8 167.01 358.51 167.29 356.42 167.91 355.12 170.27 352.96 170.77 351.03 171.78 348.44 171.08 346.59 172.27 344.89 173.97 342.52 173.69 340.38 174.09 338.46 175.16 336.08 174.73 334.33 176.43 332.47 177.77 330.02 177.02 328.47 179.53 326.36 179.99 324.32 180.73 321.76 179.58 319.89 180.89 318 182.11 315.85 182.43 313.23 181.27 311.41 182.7 309.9 184.96 307.31 184.08 305.91 186.48 303.5 186.2 301.62 187.28 299.62 188.07 298.12 189.87 295.52 189.51 294.26 191.65 291.32 190.93 290.64 193.84 288.73 194.82 287.27 196.41 285.13 197.15 283.45 198.45 280.76 198.86 280.47 201.48 280.07 203.8 277.84 204.86 276.53 206.6 274.98 208.32 274.6 210.53 275.78 213.04 275.28 215.04 272.94 216.99 275.01 219.16 274.56 221.3 273.54 223.66 273.94 225.86 275.55 227.65 277.11 229.32 277.78 231.34 277.92 233.75 278.88 235.75 280.65 237.15 282.39 238.51 283.87 240.06 285.04 241.97 287.71 242.12 288.06 245.2 290.7 245.18 292.33 246.62 294.98 246.19 295.75 249.41 298.49 248.48 300.23 249.82 302.45 249.79 303.96 252.26 306.54 250.57 308.2 253.13 310.36 253.29 312.52 253.27 314.66 253.46 316.83 252.22 318.94 253.48 321.08 253.68 323.1 251.62 325.42 254.1 327.55 253.69 329.47 251.97 331.8 253.05 333.71 251.61 335.98 252.04 337.7 250.02 339.81 249.73 341.65 248.48 344.05 249.17 346.14 248.74 348.19 248.16 349.64 245.9 351.75 245.52 354.31 246.25 356.13 245.07 357.99 244.01 360.01 243.31 362.36 243.29 363.54 240.85 365.3 239.65 367.16 238.65 368.96 237.54 371.09 236.99 373.18 236.35 374.28 234.13 376.17 233.17 378.39 232.66 380.02 231.31 382.02 230.47 382.46 227.54 384.54 226.81 387.41 227.05 389.17 225.85 389.96 223.46 391.17 221.63 392.47 219.92 395.06 219.67 395.82 217.37 398.85 217.54 399.49 215.13 400.25 212.89 402.1 211.77 403.46 210.16 405.38 209.07 407.66 208.29 408.09 205.84 408.75 203.62 410.75 202.57 413.26 201.88 414.64 200.25 414.5 197.48 416.95 196.66 418.22 194.95 419.53 193.26 418.59 190.12 420.41 188.8 420.63 186.49 423.07 185.47 423.09 183.08 423.78 181.09 425.73 179.73 427.09 178.04 427.88 176.07 428.98 174.24 429.6 172.21 430.14 170.16 430.17 167.93 430.21 165.74 432.71 164.34 433.07 162.23 432.75 159.95 433.82 158.05 433.62 155.85 433.73 153.74 433.61 151.62 435.88 149.81 436.18 147.7 436.61 145.56 436.64 143.4 436.71 141.2 434.15 139.42 433.93 137.41 434.8 134.83 433.21 133.19 432.17 131.21 430.73 129.37 428.74 128.13 426.71 126.95 424.27 126.99 422.04 126.97 419.86 125.9"/>
    </clipPath>
  </defs>
  <g class="cls-27">
    <g id="_レイヤー_2" data-name="レイヤー 2">
      <g id="_イラスト" data-name="イラスト">
        <g>
          <g>
            <g>
              <path class="cls-25" d="m502.11,162.28c0,86.56-112.3,156.73-250.83,156.73S.44,248.84.44,162.28,112.75,5.54,251.28,5.54s250.83,70.17,250.83,156.74Z"/>
              <ellipse class="cls-20" cx="251.28" cy="156.73" rx="250.83" ry="156.73"/>
              <ellipse class="cls-13" cx="251.28" cy="160.13" rx="192.6" ry="120.34"/>
              <ellipse class="cls-26" cx="251.28" cy="160.13" rx="231.12" ry="144.41"/>
            </g>
            <g>
              <g>
                <path class="cls-19" d="m317.24,82.77c-8.3-1.28-14.78-3.18-32.13,4.1-17.41,7.01-41.17,22.53-41.12,22.77,1.26,2,2.52,4.02,3.78,6.04-.06-1.89,48.86-29.28,57.42-27.99,8.7-.94,12.05-4.88,12.05-4.92Z"/>
                <path class="cls-21" d="m318.71,94.79c-8.27-.66-14.81-1.98-31.28,6.5-16.52,8.23-39.12,24.85-39.08,25.07,1.52,1.85,3.05,3.72,4.57,5.61-.02-1.69,46.22-31.71,54.52-31.29,8.46-1.58,11.27-5.84,11.28-5.88Z"/>
                <path class="cls-21" d="m306.56,84.76c-8.39-.92-14.93-2.54-32.52,5.49-17.67,7.77-41.49,24.43-41.43,24.68,1.19,1.96,2.37,3.94,3.56,5.93-.16-1.94,49.25-31.62,58.05-30.66,8.83-1.33,12.34-5.4,12.34-5.44Z"/>
                <path class="cls-21" d="m312.63,94.3c-8.55-3.42-15.08-7.11-34.62-4.61-19.63,2.18-46.2,12.6-46.12,12.91.74,2.22,1.49,4.45,2.24,6.68-.06.09,13.69-6.18,28.69-9.68,14.99-3.91,31.24-5.04,35.87-4.21,9.41,1.41,13.94-1.05,13.94-1.1Z"/>
                <path class="cls-21" d="m295.11,101.52c-8.47-.36-15.09-1.55-32.69,7.63-17.7,8.91-41.26,27.14-41.18,27.39,1.17,1.88,2.35,3.78,3.52,5.69-.26-1.94,48.92-34.83,57.9-34.45,8.89-1.91,12.44-6.22,12.45-6.26Z"/>
                <path class="cls-19" d="m306.32,106.29c-7.93-2.83-13.9-6.14-32.89-2.36-19.08,3.48-44.82,15.28-44.74,15.57.38,2.42.77,4.85,1.15,7.27-.05.08,13.29-6.98,27.88-11.48,14.57-4.89,30.4-7.22,34.81-6.73,8.97.73,13.78-2.23,13.78-2.27Z"/>
                <path class="cls-19" d="m259.93,158.05c-1.61-6.65-2.17-12.4-14.2-23.31-12.07-11-28.39-23.1-28.35-22.97-2.45,2.25-4.88,4.56-7.31,6.92-.23-1.08,35.46,24.29,39.6,31.75,3.95,6.2,10.26,7.59,10.26,7.61Z"/>
                <path class="cls-21" d="m243.81,113.05c8.56.91,15.1,1.65,34.91-.53,19.93-2.51,46.2,1.26,46.08,1.58-.55-2.6-1.1-5.19-1.66-7.78.05.09-13.5-2.07-28.59-1.5-15.04.15-31.62,3.02-36.31,3.37-9.53.42-14.43,4.89-14.43,4.85Z"/>
                <path class="cls-19" d="m264.14,160.96c-2.45-6.48-3.68-12.22-17.2-22.1-13.57-10-31.82-19.99-31.77-19.83-2.25,2.4-4.49,4.86-6.72,7.35-.29-1.33,39.42,20.2,44.41,27.62,4.77,5.87,11.28,6.93,11.28,6.95Z"/>
                <path class="cls-19" d="m246.11,124.92c-8.33-1-14.77-2.97-34.06,5.03-19.49,7.67-43.59,25.94-43.4,26.27.31,2.23.63,4.45.94,6.68-.04.09,12.27-10.39,26.68-18.28,14.26-8.33,30.63-14.07,35.26-14.57,9.34-1.27,14.58-5.09,14.58-5.13Z"/>
                <path class="cls-21" d="m259.45,110.74c8.6,1.67,15.21,2.98,34.89,2.54,19.83-.76,45.42,5.39,45.28,5.71-.53-2.65-1.07-5.29-1.61-7.93.05.09-13.11-3.3-28.01-4.07-14.81-1.19-31.36.24-36.07.17-9.53-.42-14.48,3.62-14.48,3.58Z"/>
                <path class="cls-21" d="m144.87,160.82c6.95-6.64,12.24-11.55,28.15-29.57,15.86-18.31,39.86-37.23,39.9-36.96-4.94,1.18-9.83,2.59-14.65,4.21-.45-1.22-36.16,36.45-43.03,46.32-7.53,8.38-10.35,16.05-10.38,16.01Z"/>
                <path class="cls-21" d="m201.33,97.9c8.37-3.41,14.86-5.82,32.86-17.17,18.04-11.64,43.14-21.47,43.1-21.2-5.14-.69-10.29-1.16-15.43-1.41-.09-1.22-39.45,22.03-48.12,28.52-8.88,5.01-12.39,11.3-12.41,11.26Z"/>
                <path class="cls-21" d="m241.29,91.41c7.52,2.74,13.03,4.7,33.05,6.36,20.16,1.34,46.9,10.55,46.79,10.88.3-2.36.6-4.72.9-7.07.06.09-13.83-5.17-29.19-7.82-15.31-3.1-32.09-3.59-36.54-4.23-9.04-1.57-15.01,1.91-15.01,1.88Z"/>
                <path class="cls-19" d="m343.94,96.62c-6.81-1.31-12.29-3.1-24.88,4.7-12.59,7.64-30.28,21.55-30.29,21.68,1.69,2.46,3.38,4.94,5.07,7.45.17-1.03,35.43-27.69,41.84-27.63,6.69-1.16,8.26-6.17,8.27-6.2Z"/>
                <path class="cls-19" d="m273.89,88.27c-4.21-5.83-6.9-11.34-23.1-17.75-16.2-6.05-25.12-8.46-25.12-8.57-6.05,1.93-12.04,4.17-17.94,6.74-.39-1.84,46.53,8.12,53.16,14.98,6.37,4.69,13.01,4.59,13,4.6Z"/>
                <path class="cls-21" d="m185.27,133.77c6.96.25,11.86.4,31.11-4.51,19.29-5.22,46.9-5.01,46.87-4.68.31-2.46.62-4.92.94-7.38.08.09-14.46-.46-29.67,1.96-15.27,1.98-31.19,6.94-35.33,7.78-8.49,1.39-13.91,6.85-13.92,6.83Z"/>
                <path class="cls-21" d="m255.28,124.38c8.34-3.19,15.06-5.19,29.91-16.26,14.91-11.28,34.59-22.75,34.53-22.57-7.26.36-14.63,1.19-22.07,2.5.05-.43-24.08,20.51-32.24,25.82-8.12,4.77-10.14,10.55-10.14,10.51Z"/>
                <path class="cls-21" d="m148.86,163.67c7.1-6.38,12.51-11.09,28.65-28.6,16.11-17.8,40.28-36.01,40.32-35.74-1.18-1.85-2.37-3.68-3.54-5.51.08.08-12.5,9.5-25.23,22.16-12.86,12.31-25.87,27.88-29.61,32.05-7.67,8.12-10.56,15.68-10.58,15.63Z"/>
                <path class="cls-21" d="m245.43,100.69c-2.48-6.13-3.8-11.71-17.11-19.3-13.37-7.71-31.03-14.55-30.97-14.39,2.69,3.37,5.4,6.81,8.13,10.32-.13-.49,23.96,12.61,28.82,18.34,4.73,5.09,11.13,5.02,11.13,5.04Z"/>
              </g>
              <g>
                <path class="cls-19" d="m223.38,140.73c7.69-5.3,13.32-10.55,33.35-13.4,20.15-3.18,47.48.31,47.39.64.11,2.46.22,4.93.34,7.39.07.09-14.17-2.84-29.65-2.51-15.47-.11-32.19,3.04-36.66,5.04-9.11,3.7-14.76,2.88-14.76,2.84Z"/>
                <path class="cls-21" d="m286.65,62.98c8.85.17,15.83-.67,34.03,9.56,18.37,9.91,41.28,30.34,41.12,30.62-.99,1.7-1.99,3.4-2.99,5.12.03.08-11.67-11.19-25.28-20.4-13.49-9.58-28.9-17.09-33.53-18.18-9.31-2.41-13.35-6.67-13.34-6.72Z"/>
                <path class="cls-21" d="m225.48,70.71c8.58-3.66,15.13-7.54,34.64-5.64,19.61,1.59,46.06,11.16,45.97,11.47-.75,2.23-1.51,4.46-2.27,6.7.06.09-13.61-5.73-28.58-8.76-14.94-3.44-31.18-4.08-35.82-3.11-9.43,1.69-13.94-.62-13.95-.66Z"/>
                <path class="cls-21" d="m224.54,94.67c5.27-6.81,8.74-13.05,26.61-22.53,17.94-9.72,42.64-16.72,42.59-16.46,1.4,2.35,2.79,4.72,4.18,7.11.05.07-12.98,2.48-26.98,7.98-13.99,5.13-28.94,13.35-32.54,16.5-7.32,6.04-13.86,7.39-13.86,7.39Z"/>
                <path class="cls-21" d="m172.31,121.91c7.85-3.92,14.07-7.73,29.63-5.52,15.54,1.96,37.89,10.02,37.9,10.24-1.81,2.3-3.61,4.63-5.41,6.99-.35-1.67-44.63-13.96-51.97-10.27-7.93,1.72-10.13-1.4-10.15-1.44Z"/>
                <path class="cls-21" d="m316.58,162.93c-.69-8.42-1.8-15.17,4.04-30.77,5.85-15.61,13.89-36.13,13.87-36.1,2.32,1.99,4.62,4.02,6.91,6.11.1-.3-18.01,41.37-19.27,50.02-1.16,8.3-5.55,10.72-5.55,10.74Z"/>
                <path class="cls-19" d="m256.07,86.95c7.84-3.85,13.68-8.03,33.67-7.16,20.15.54,46.34,9.12,46.2,9.45.11,2.49.22,4.97.32,7.46.05.09-13.47-5.5-28.68-8.04-15.13-2.98-31.94-2.91-36.49-1.77-9.22,1.99-15.02.09-15.02.06Z"/>
                <path class="cls-19" d="m203.48,155.42c4.5-7.47,7.27-14.06,23.96-26.53,16.73-12.69,40.41-24.36,40.39-24.11,1.66,2.07,3.32,4.16,4.99,6.27-.09-2.03-50.06,25.26-56.35,34.76-6.61,7.13-12.99,9.61-12.99,9.61Z"/>
                <path class="cls-21" d="m222.96,138.69c-8.68,1.96-15.65,3.87-31.59,3.32-16.11-.81-35.66,3.38-35.51,3.62,1.37-3.21,2.75-6.39,4.14-9.55-.84-1.81,41.91-2.5,51.37-.88,8.67-.53,11.6,3.54,11.59,3.49Z"/>
                <path class="cls-19" d="m177.64,152c4.89-8.19,7.95-15.35,24.88-29.41,16.95-14.29,41.69-27.53,41.69-27.26,1.39,2,2.77,4.01,4.16,6.04.07.07-13.19,5.78-26.81,14.83-13.7,8.68-27.78,20.71-31.12,24.8-6.86,7.94-12.8,10.99-12.8,10.99Z"/>
                <path class="cls-19" d="m229.49,87.89c8.84-1.73,15.81-3.91,33.67,2.34,17.94,5.96,42.06,20.33,41.99,20.59-1.45,1.86-2.91,3.74-4.37,5.63.18-1.98-49.76-26.46-58.88-24.55-9.13-.43-12.41-3.96-12.41-4.01Z"/>
                <path class="cls-21" d="m218.59,111.83c-8.45,4.31-15.17,7.8-32.4,12.8-17.45,4.7-38.19,17.56-37.99,17.84.81-3.16,1.63-6.31,2.46-9.45-.02.08,10.51-6.57,23.24-11.23,12.55-5.04,27.3-8.1,31.74-9.56,8.9-3.16,12.97-.35,12.96-.4Z"/>
                <path class="cls-21" d="m318.03,94.17c-7.73,1.79-13.48,3.2-32.52,2.36-19.12-1.14-45.3,4-45.23,4.3,4.37-3.43,8.77-6.7,13.17-9.8-.02-1.38,42.05-1.87,50.79-.59,8.86-.42,13.78,3.77,13.79,3.73Z"/>
                <path class="cls-21" d="m320.39,117.4c-8.66-2.99-15.53-4.98-32.62-15.01-17.15-10.3-40.6-19.03-40.55-18.79,5.3-.88,10.62-1.52,15.94-1.92.02-1.05,36.9,19.9,45.59,25.63,8.82,4.45,11.63,10.15,11.64,10.1Z"/>
                <path class="cls-21" d="m244.35,77.77c-8.02,4.78-14.18,8.34-33.3,15.2-19.32,6.54-43.19,22.73-43,23.05.15-2.58.29-5.16.44-7.74-.03.09,12.16-8.64,26.44-15.15,14.13-6.94,30.35-11.64,34.88-13.47,9.13-3.92,14.54-1.86,14.54-1.89Z"/>
                <path class="cls-19" d="m265.32,127.21c5.41-5.42,9.11-10.73,27.05-15.57,17.9-4.37,26.68-2.83,26.7-2.98,6.38,1.56,12.68,3.49,18.85,5.79.04.07-12.28-.93-26.02.94-13.66,1.5-28.75,5.86-32.43,8.05-7.44,4.14-14.14,3.77-14.14,3.77Z"/>
                <path class="cls-19" d="m225.94,112c5.32-6.63,8.84-12.75,26.81-21.59,18.02-8.42,28.36-11.71,28.35-11.85,6.21,1.07,12.41,2.47,18.55,4.19.05.07-13.02,1.99-27.08,6.99-14.05,4.62-29.09,12.33-32.71,15.35-7.38,5.79-13.93,6.92-13.93,6.91Z"/>
                <path class="cls-21" d="m293.54,92.33c-8.75.38-15.5.78-34.92-2.43-19.55-3.53-45.36-1.47-45.25-1.17.82-2.62,1.64-5.24,2.47-7.84-.05.09,13.25-1.09,28.05.4,14.75,1.09,30.98,4.85,35.68,5.46,9.51.96,13.98,5.62,13.98,5.57Z"/>
                <path class="cls-21" d="m313.88,85.33c-8.75-2.23-15.65-3.64-33.1-12.22-17.52-8.86-41.3-15.42-41.24-15.17,8.02-1.12,16.11-1.69,24.21-1.7,0-.64,29.23,15.47,38.14,19.96,8.96,3.69,11.99,9.18,12,9.14Z"/>
                <path class="cls-21" d="m341.02,135.85c-8.37-4.09-14.97-6.94-31.74-19.07-16.8-12.4-40.33-23.98-40.31-23.75,1.67-2.08,3.34-4.14,5.01-6.17.16-1.81,47.63,29.73,55.79,37.42,8.55,5.55,11.24,11.61,11.25,11.57Z"/>
                <path class="cls-21" d="m238.58,132.54c3.79-6.75,6.05-12.78,21.83-23.4,15.84-10.8,37.54-20.65,37.49-20.44-3.76,3.66-7.53,7.45-11.31,11.36.04-.68-29.31,17.45-35.33,24.56-6.03,6.24-12.68,7.91-12.68,7.92Z"/>
              </g>
              <g>
                <path class="cls-19" d="m223.28,143.02c7.35-5.8,12.66-11.41,32.51-15.9,19.95-4.8,47.07-3.68,46.99-3.35.33,2.47.65,4.94.98,7.41.06.09-14.09-1.65-29.45-.08-15.35,1.13-31.92,5.58-36.28,7.9-8.89,4.35-14.73,4.04-14.73,4.02Z"/>
                <path class="cls-19" d="m273.65,145.8c5.71-5.71,9.74-11.21,27.49-16.49,17.88-5.53,41.05-6.75,40.94-6.49-3.99,1.99-8.03,4.13-12.11,6.43.25-1.01-34.62,6.74-42.38,12.43-7.55,4.41-13.93,4.12-13.93,4.12Z"/>
                <path class="cls-21" d="m269.73,42.64c8.64,2.52,15.61,3.9,30.73,17.72,15.2,13.6,34.91,36.74,34.84,36.92-1.9.93-3.8,1.9-5.72,2.91.33-1.4-40.84-45.01-49.46-47.93-8.36-4.59-10.39-9.57-10.39-9.61Z"/>
                <path class="cls-21" d="m231.62,146.73c8.43-3.97,14.84-8.12,34.57-7.11,19.84.69,46.41,9.19,46.31,9.51-.54,2.29-1.08,4.58-1.62,6.88.06.09-13.68-5.25-28.8-7.67-15.09-2.84-31.55-2.77-36.19-1.61-9.42,2.06-14.27.04-14.27,0Z"/>
                <path class="cls-21" d="m240.08,128.61c8.87-1.64,15.86-3.76,33.69,2.61,17.92,6.09,41.74,20.6,41.66,20.85-1.41,1.85-2.82,3.73-4.24,5.62.27-1.97-49.37-26.8-58.62-24.97-9.15-.5-12.5-4.06-12.5-4.1Z"/>
                <path class="cls-21" d="m172.64,90.19c7.85-5.84,13.8-11.34,31.89-14.03,18.25-2.18,26.65.69,26.6.5,4.89,2.16,9.81,4.52,14.75,7.1.08.09-13.55-2.29-27.71-1.69-14.24.21-29.02,3.39-33.22,5.51-8.6,3.99-12.29,2.66-12.31,2.61Z"/>
                <path class="cls-19" d="m202.21,149.03c-5.65-2.53-10.35-3.66-17.23-16.43-6.91-12.84-15.75-29.59-15.72-29.55,2.03-2.72,4.09-5.39,6.16-8.02-.13-.3,17.77,37.75,22.6,42.84,4.7,4.72,4.2,11.18,4.19,11.16Z"/>
                <path class="cls-19" d="m288.29,154.77c5.16-5.59,8.76-10.98,25.68-16.13,17.06-5.37,38.9-6.78,38.77-6.53,1.21,2.74,2.41,5.5,3.6,8.28.73-2.06-46.9,3.81-54.58,10.52-7.06,4.29-13.48,3.87-13.47,3.87Z"/>
                <path class="cls-19" d="m323.25,141.82c.69-7.97.71-14.68,9.13-27.33,8.45-12.71,19.68-28.39,19.65-28.32,2,2.62,3.99,5.28,5.95,7.98.23-.6-24.58,31.22-27.35,39.24-2.54,7.32-7.38,8.42-7.38,8.43Z"/>
                <path class="cls-21" d="m349.11,122.45c-8.2-4.57-14.68-7.81-31.21-20.82-16.54-13.27-39.95-26.08-39.93-25.85,5.32.07,10.63.38,15.91.93.17-1.04,36.14,26.29,44.23,33.59,8.39,6.02,10.99,12.2,11,12.15Z"/>
                <path class="cls-21" d="m327.81,57.08c-7.67.71-13.27,1.18-33.17-1.93-19.99-3.43-47.66-.67-47.6-.34,4.35-2.87,8.71-5.58,13.08-8.12.03-1.55,44.38,2.26,53.23,4.89,9.05.73,14.45,5.53,14.46,5.5Z"/>
                <path class="cls-21" d="m277.64,91.03c-7.98,3-13.97,5.17-34,7.83-20.19,2.34-46.35,13-46.21,13.33,4.09-4.12,8.22-8.08,12.4-11.88-.33-1.55,43.25-10.44,52.79-10.48,9.31-1.94,15.01,1.23,15.01,1.19Z"/>
                <path class="cls-21" d="m358.52,144.77c-6.39,1.46-10.83,2.55-28.94.25-18.13-2.6-44.43.58-44.43.88-.41-2.48-.81-4.96-1.22-7.44-.08.08,13.84-1.97,28.23-1.44,14.47.12,29.42,2.84,33.27,3.01,7.9.08,13.08,4.77,13.09,4.74Z"/>
                <path class="cls-21" d="m366.99,131.44c-5.27,2.8-8.73,4.95-25.22,4.93-16.49-.26-40.8,5.23-40.82,5.5-.87-2.5-1.74-4.99-2.61-7.48-.07.07,12.91-3.2,26.18-4.35,13.35-1.51,26.98-.89,30.34-1.39,6.92-1.26,12.12,2.81,12.13,2.79Z"/>
                <path class="cls-19" d="m222,95.62c5.34-6.69,8.86-12.84,26.84-21.95,18.05-9.35,42.96-15.75,42.9-15.47,1.37,2.36,2.74,4.73,4.1,7.12.05.07-13.09,2.16-27.19,7.36-14.09,4.82-29.13,12.74-32.76,15.81-7.39,5.89-13.9,7.13-13.9,7.13Z"/>
                <path class="cls-19" d="m238.46,108.62c5.41-6.18,9.04-11.99,27.12-19.39,18.17-7.65,42.77-11.71,42.69-11.43,1.35,2.49,2.7,4.99,4.04,7.51.05.07-12.87.93-26.92,4.79-14.02,3.49-29.18,10-32.85,12.72-7.46,5.19-14.09,5.8-14.08,5.8Z"/>
                <path class="cls-19" d="m306.16,125.49c-5.44-6.61-10.12-11.17-16.2-29.08-6.08-17.89-10.31-27.97-10.31-27.98,1.14-5.59,2.28-11.18,3.42-16.75.02-.18,15.52,51.47,19.83,59.8,4.33,8.11,3.26,14.02,3.27,14.01Z"/>
                <path class="cls-21" d="m380.32,126.72c-4.66,2.63-7.55,4.65-23.26,3.76-15.7-1.14-39.4,3.08-39.43,3.35-1.15-2.5-2.3-4.98-3.45-7.46-.07.07,12.7-2.6,25.52-3.11,12.94-.87,25.93.41,29.03.05,6.4-.96,11.59,3.42,11.6,3.42Z"/>
                <path class="cls-21" d="m291.41,92.8c-8.9-1.55-15.98-2.4-33.12-9.63-17.23-7.5-40.05-12.43-39.97-12.2,1.63-2.54,3.26-5.05,4.9-7.55-.26-1.8,47.19,16.13,56.3,21.25,8.99,2.99,11.88,8.17,11.89,8.13Z"/>
                <path class="cls-21" d="m372.89,136.23c-6.14-7.05-11.09-12.02-22.44-31.24-11.32-19.37-27.68-43.04-27.7-42.92,4.92,4.48,9.79,9.19,14.59,14.12.16-.45,22.55,34.84,28.32,44.17,5.98,8.77,7.23,15.89,7.24,15.86Z"/>
                <path class="cls-21" d="m155.56,138.49c3.24-8.64,4.93-15.82,18.77-34.28,13.82-18.64,34.71-39.29,34.75-39.08-3.66,5.54-7.28,11.2-10.87,16.98-.24-.68-27.08,31.98-31.93,42.1-5.23,9.25-10.73,14.27-10.72,14.28Z"/>
              </g>
            </g>
            <g>
              <g>
                <path class="cls-19" d="m338.86,60.38c-8.3-1.28-14.78-3.18-32.13,4.1-17.41,7.01-41.17,22.53-41.12,22.77,1.26,2,2.52,4.02,3.78,6.04-.06-1.89,48.86-29.28,57.42-27.99,8.71-.94,12.05-4.88,12.05-4.92Z"/>
                <path class="cls-21" d="m340.33,72.4c-8.27-.66-14.81-1.98-31.28,6.5-16.52,8.23-39.12,24.85-39.08,25.07,1.52,1.85,3.05,3.72,4.57,5.61-.02-1.69,46.21-31.71,54.52-31.29,8.46-1.58,11.27-5.84,11.28-5.88Z"/>
                <path class="cls-21" d="m328.18,62.37c-8.39-.92-14.93-2.54-32.52,5.49-17.67,7.77-41.49,24.43-41.43,24.68,1.19,1.96,2.37,3.94,3.56,5.93-.16-1.94,49.24-31.62,58.05-30.66,8.83-1.33,12.34-5.4,12.34-5.44Z"/>
                <path class="cls-21" d="m334.25,71.91c-8.55-3.42-15.08-7.11-34.62-4.61-19.63,2.18-46.2,12.6-46.12,12.91.74,2.22,1.49,4.45,2.24,6.68-.06.09,13.69-6.18,28.69-9.68,14.99-3.91,31.24-5.04,35.87-4.21,9.41,1.4,13.94-1.05,13.94-1.1Z"/>
                <path class="cls-21" d="m316.73,79.13c-8.47-.36-15.08-1.55-32.69,7.63-17.69,8.91-41.26,27.14-41.18,27.39,1.17,1.88,2.35,3.78,3.52,5.69-.26-1.94,48.93-34.83,57.9-34.45,8.89-1.91,12.44-6.22,12.45-6.26Z"/>
                <path class="cls-19" d="m327.94,83.9c-7.93-2.84-13.9-6.14-32.89-2.36-19.08,3.48-44.82,15.28-44.74,15.57.38,2.42.77,4.85,1.15,7.27-.05.08,13.29-6.98,27.88-11.48,14.57-4.89,30.4-7.22,34.81-6.73,8.96.73,13.78-2.23,13.78-2.27Z"/>
                <path class="cls-19" d="m281.55,135.66c-1.61-6.65-2.17-12.4-14.2-23.31-12.07-11-28.39-23.1-28.35-22.97-2.45,2.25-4.88,4.56-7.31,6.92-.23-1.08,35.46,24.29,39.59,31.75,3.95,6.2,10.26,7.59,10.26,7.61Z"/>
                <path class="cls-21" d="m265.43,90.66c8.56.91,15.1,1.65,34.91-.53,19.93-2.51,46.2,1.26,46.08,1.58-.55-2.6-1.1-5.19-1.66-7.78.05.09-13.5-2.07-28.59-1.5-15.04.15-31.62,3.02-36.31,3.37-9.53.42-14.43,4.9-14.43,4.85Z"/>
                <path class="cls-19" d="m285.76,138.57c-2.45-6.48-3.68-12.22-17.2-22.1-13.57-10-31.82-19.99-31.77-19.83-2.25,2.41-4.49,4.86-6.72,7.35-.29-1.33,39.42,20.2,44.41,27.62,4.77,5.87,11.28,6.93,11.28,6.95Z"/>
                <path class="cls-19" d="m267.73,102.53c-8.33-1-14.77-2.97-34.06,5.03-19.49,7.67-43.58,25.94-43.4,26.27.31,2.23.63,4.45.94,6.68-.04.09,12.27-10.39,26.68-18.28,14.26-8.33,30.63-14.07,35.26-14.57,9.34-1.27,14.58-5.09,14.58-5.13Z"/>
                <path class="cls-21" d="m281.06,88.35c8.6,1.67,15.21,2.98,34.89,2.54,19.83-.76,45.42,5.39,45.28,5.71-.53-2.65-1.07-5.29-1.6-7.93.05.09-13.11-3.3-28.01-4.07-14.81-1.19-31.36.24-36.07.17-9.53-.42-14.48,3.62-14.48,3.58Z"/>
                <path class="cls-21" d="m166.49,138.43c6.95-6.64,12.24-11.55,28.15-29.57,15.86-18.31,39.86-37.23,39.9-36.96-4.94,1.18-9.83,2.59-14.65,4.21-.45-1.22-36.16,36.45-43.03,46.32-7.53,8.38-10.35,16.05-10.38,16.01Z"/>
                <path class="cls-21" d="m222.95,75.51c8.37-3.41,14.86-5.82,32.86-17.18,18.04-11.64,43.13-21.46,43.1-21.2-5.14-.69-10.29-1.16-15.43-1.41-.08-1.22-39.45,22.03-48.11,28.52-8.88,5.01-12.39,11.3-12.41,11.26Z"/>
                <path class="cls-21" d="m262.91,69.02c7.52,2.74,13.03,4.7,33.05,6.36,20.15,1.34,46.9,10.55,46.79,10.88.3-2.36.6-4.72.9-7.07.06.09-13.83-5.17-29.19-7.82-15.31-3.1-32.09-3.59-36.54-4.23-9.04-1.57-15.01,1.91-15.01,1.88Z"/>
                <path class="cls-19" d="m365.56,74.23c-6.81-1.31-12.29-3.1-24.88,4.7-12.59,7.64-30.28,21.55-30.29,21.68,1.69,2.46,3.38,4.94,5.07,7.45.17-1.03,35.43-27.69,41.83-27.63,6.69-1.16,8.26-6.17,8.27-6.2Z"/>
                <path class="cls-19" d="m295.51,65.88c-4.21-5.83-6.9-11.34-23.1-17.75-16.2-6.05-25.12-8.46-25.12-8.57-6.05,1.93-12.04,4.17-17.94,6.74-.39-1.84,46.53,8.12,53.17,14.98,6.37,4.7,13,4.59,13,4.6Z"/>
                <path class="cls-21" d="m206.89,111.38c6.96.25,11.86.4,31.11-4.5,19.29-5.22,46.9-5.01,46.87-4.68.31-2.46.63-4.92.94-7.38.08.09-14.46-.46-29.67,1.96-15.27,1.98-31.19,6.94-35.33,7.78-8.49,1.4-13.91,6.85-13.92,6.83Z"/>
                <path class="cls-21" d="m276.9,101.99c8.34-3.19,15.06-5.19,29.91-16.26,14.92-11.28,34.59-22.75,34.53-22.57-7.26.36-14.63,1.19-22.07,2.5.05-.43-24.08,20.51-32.24,25.82-8.12,4.77-10.14,10.55-10.14,10.51Z"/>
                <path class="cls-21" d="m170.48,141.28c7.1-6.38,12.51-11.1,28.65-28.6,16.11-17.8,40.28-36.01,40.32-35.74-1.18-1.85-2.37-3.68-3.54-5.51.08.08-12.5,9.5-25.23,22.16-12.86,12.31-25.87,27.88-29.61,32.05-7.67,8.12-10.56,15.68-10.58,15.63Z"/>
                <path class="cls-21" d="m267.05,78.31c-2.48-6.13-3.8-11.71-17.11-19.3-13.37-7.71-31.03-14.55-30.97-14.39,2.69,3.37,5.4,6.81,8.13,10.32-.13-.49,23.96,12.61,28.82,18.34,4.73,5.09,11.13,5.02,11.13,5.04Z"/>
              </g>
              <g>
                <path class="cls-19" d="m245,118.34c7.69-5.3,13.32-10.55,33.35-13.41,20.15-3.18,47.48.31,47.39.64.11,2.46.22,4.93.34,7.39.07.09-14.17-2.84-29.65-2.51-15.47-.11-32.19,3.04-36.66,5.04-9.11,3.7-14.76,2.88-14.76,2.84Z"/>
                <path class="cls-21" d="m297.72,45.11c8.85.17,15.83-.67,34.03,9.56,18.37,9.91,41.28,30.34,41.12,30.62-.99,1.7-1.99,3.4-2.99,5.12.03.08-11.67-11.19-25.29-20.4-13.49-9.58-28.9-17.09-33.53-18.18-9.31-2.41-13.35-6.67-13.35-6.72Z"/>
                <path class="cls-21" d="m247.1,48.32c8.58-3.67,15.13-7.54,34.64-5.64,19.61,1.58,46.06,11.16,45.97,11.47-.75,2.23-1.51,4.46-2.26,6.7.06.09-13.61-5.73-28.58-8.76-14.94-3.44-31.18-4.08-35.82-3.11-9.43,1.69-13.94-.62-13.95-.66Z"/>
                <path class="cls-21" d="m246.16,72.28c5.27-6.81,8.74-13.05,26.61-22.53,17.94-9.72,42.64-16.72,42.59-16.45,1.4,2.35,2.79,4.72,4.18,7.11.05.07-12.98,2.48-26.98,7.98-13.99,5.13-28.94,13.35-32.54,16.49-7.32,6.04-13.86,7.4-13.86,7.39Z"/>
                <path class="cls-21" d="m193.93,99.52c7.85-3.92,14.07-7.73,29.63-5.52,15.54,1.96,37.89,10.02,37.9,10.24-1.81,2.3-3.61,4.63-5.41,6.99-.35-1.67-44.63-13.96-51.98-10.27-7.93,1.73-10.13-1.39-10.15-1.44Z"/>
                <path class="cls-21" d="m338.2,140.54c-.69-8.42-1.8-15.17,4.05-30.77,5.85-15.61,13.88-36.13,13.87-36.1,2.32,1.99,4.62,4.02,6.91,6.11.1-.3-18.01,41.37-19.27,50.02-1.17,8.3-5.55,10.72-5.55,10.74Z"/>
                <path class="cls-19" d="m277.69,64.56c7.84-3.85,13.68-8.03,33.67-7.16,20.15.54,46.34,9.13,46.2,9.46.11,2.49.21,4.97.32,7.46.05.09-13.47-5.5-28.68-8.04-15.13-2.98-31.94-2.91-36.49-1.77-9.22,1.99-15.02.09-15.02.06Z"/>
                <path class="cls-19" d="m225.1,133.03c4.5-7.47,7.27-14.06,23.96-26.53,16.73-12.69,40.41-24.36,40.39-24.11,1.66,2.07,3.33,4.16,4.99,6.27-.09-2.03-50.06,25.26-56.35,34.76-6.61,7.12-12.99,9.61-12.99,9.62Z"/>
                <path class="cls-21" d="m244.57,116.3c-8.68,1.95-15.65,3.87-31.59,3.32-16.11-.81-35.66,3.38-35.51,3.62,1.37-3.21,2.75-6.39,4.14-9.55-.84-1.81,41.91-2.5,51.37-.88,8.67-.53,11.6,3.54,11.59,3.49Z"/>
                <path class="cls-19" d="m199.26,129.61c4.89-8.19,7.95-15.35,24.88-29.41,16.95-14.29,41.69-27.53,41.69-27.26,1.38,2,2.77,4.01,4.16,6.04.07.07-13.19,5.78-26.81,14.83-13.7,8.68-27.78,20.71-31.12,24.8-6.86,7.94-12.8,10.99-12.8,10.99Z"/>
                <path class="cls-19" d="m251.11,65.5c8.84-1.72,15.81-3.9,33.67,2.34,17.94,5.96,42.06,20.33,41.99,20.59-1.45,1.86-2.91,3.74-4.37,5.64.18-1.98-49.76-26.46-58.88-24.56-9.13-.43-12.41-3.96-12.41-4.01Z"/>
                <path class="cls-21" d="m240.21,89.44c-8.45,4.31-15.17,7.8-32.4,12.8-17.45,4.7-38.19,17.56-37.99,17.84.81-3.16,1.63-6.31,2.46-9.45-.02.08,10.51-6.57,23.24-11.23,12.55-5.04,27.3-8.1,31.74-9.57,8.9-3.16,12.97-.35,12.96-.4Z"/>
                <path class="cls-21" d="m339.66,71.78c-7.73,1.79-13.48,3.2-32.53,2.36-19.12-1.14-45.29,4-45.23,4.3,4.37-3.43,8.77-6.7,13.17-9.8-.02-1.38,42.05-1.87,50.79-.59,8.86-.42,13.78,3.77,13.79,3.73Z"/>
                <path class="cls-21" d="m342.02,95.01c-8.66-2.99-15.53-4.98-32.63-15.01-17.14-10.3-40.6-19.02-40.55-18.79,5.3-.88,10.62-1.52,15.94-1.92.02-1.05,36.9,19.89,45.59,25.63,8.82,4.45,11.63,10.15,11.64,10.1Z"/>
                <path class="cls-21" d="m265.96,55.38c-8.02,4.78-14.18,8.34-33.3,15.2-19.32,6.54-43.19,22.73-43,23.05.15-2.58.29-5.16.44-7.75-.03.09,12.16-8.64,26.44-15.15,14.13-6.94,30.35-11.64,34.88-13.47,9.13-3.92,14.54-1.86,14.54-1.89Z"/>
                <path class="cls-19" d="m286.94,104.82c5.41-5.42,9.11-10.73,27.05-15.56,17.9-4.37,26.68-2.83,26.69-2.98,6.38,1.56,12.68,3.49,18.85,5.79.04.07-12.28-.93-26.02.94-13.66,1.5-28.75,5.86-32.43,8.05-7.44,4.14-14.14,3.77-14.14,3.77Z"/>
                <path class="cls-19" d="m247.56,89.61c5.32-6.63,8.84-12.75,26.81-21.59,18.02-8.42,28.36-11.71,28.35-11.85,6.21,1.07,12.41,2.47,18.55,4.19.05.07-13.02,1.99-27.08,6.99-14.05,4.62-29.09,12.33-32.71,15.35-7.38,5.79-13.93,6.92-13.93,6.92Z"/>
                <path class="cls-21" d="m315.16,69.94c-8.75.38-15.5.78-34.92-2.43-19.55-3.53-45.36-1.47-45.25-1.17.82-2.62,1.64-5.24,2.47-7.84-.05.09,13.25-1.09,28.05.4,14.75,1.09,30.98,4.85,35.68,5.47,9.51.96,13.98,5.62,13.98,5.57Z"/>
                <path class="cls-21" d="m335.5,62.94c-8.75-2.23-15.65-3.64-33.1-12.22-17.52-8.86-41.3-15.42-41.24-15.17,8.02-1.12,16.11-1.69,24.21-1.7,0-.64,29.23,15.47,38.14,19.96,8.96,3.69,11.99,9.18,12,9.14Z"/>
                <path class="cls-21" d="m362.64,113.46c-8.37-4.09-14.97-6.94-31.74-19.07-16.79-12.4-40.33-23.98-40.31-23.75,1.67-2.08,3.34-4.14,5.01-6.17.16-1.81,47.63,29.73,55.8,37.43,8.55,5.55,11.24,11.61,11.25,11.56Z"/>
                <path class="cls-21" d="m260.2,110.15c3.79-6.75,6.05-12.78,21.83-23.4,15.84-10.8,37.54-20.65,37.49-20.44-3.76,3.66-7.53,7.45-11.31,11.36.04-.68-29.31,17.45-35.33,24.56-6.03,6.24-12.68,7.91-12.68,7.92Z"/>
              </g>
              <g>
                <path class="cls-19" d="m244.9,120.63c7.35-5.8,12.66-11.41,32.51-15.9,19.95-4.8,47.07-3.68,46.98-3.36.33,2.47.65,4.94.98,7.42.06.09-14.09-1.65-29.45-.08-15.35,1.13-31.92,5.58-36.28,7.9-8.89,4.35-14.73,4.04-14.73,4.02Z"/>
                <path class="cls-19" d="m295.27,123.42c5.71-5.71,9.74-11.21,27.49-16.49,17.88-5.53,41.05-6.76,40.94-6.49-3.99,1.99-8.03,4.13-12.11,6.43.25-1.01-34.62,6.74-42.38,12.42-7.55,4.41-13.93,4.13-13.93,4.12Z"/>
                <path class="cls-21" d="m253.24,124.34c8.43-3.97,14.84-8.12,34.57-7.11,19.84.69,46.41,9.19,46.31,9.51-.54,2.29-1.07,4.58-1.61,6.88.06.09-13.68-5.25-28.8-7.67-15.09-2.84-31.55-2.77-36.19-1.61-9.42,2.06-14.27.04-14.27,0Z"/>
                <path class="cls-21" d="m261.71,106.22c8.87-1.64,15.86-3.77,33.69,2.61,17.92,6.09,41.74,20.6,41.66,20.85-1.41,1.85-2.82,3.73-4.24,5.62.27-1.97-49.37-26.8-58.62-24.97-9.15-.5-12.5-4.05-12.5-4.1Z"/>
                <path class="cls-21" d="m194.27,67.8c7.85-5.85,13.8-11.34,31.89-14.03,18.25-2.18,26.65.69,26.6.5,4.89,2.16,9.81,4.52,14.75,7.1.08.09-13.55-2.29-27.71-1.69-14.24.21-29.02,3.39-33.22,5.51-8.6,3.99-12.29,2.66-12.31,2.61Z"/>
                <path class="cls-19" d="m223.83,126.65c-5.65-2.53-10.35-3.66-17.24-16.44-6.91-12.84-15.75-29.59-15.72-29.55,2.03-2.72,4.09-5.39,6.16-8.02-.13-.3,17.77,37.75,22.6,42.84,4.7,4.72,4.2,11.18,4.19,11.16Z"/>
                <path class="cls-19" d="m309.91,132.38c5.16-5.59,8.76-10.98,25.68-16.13,17.06-5.37,38.9-6.78,38.77-6.53,1.21,2.74,2.41,5.5,3.6,8.28.73-2.06-46.9,3.81-54.59,10.51-7.05,4.29-13.48,3.87-13.47,3.87Z"/>
                <path class="cls-19" d="m344.87,119.43c.69-7.97.71-14.67,9.13-27.33,8.45-12.71,19.68-28.38,19.65-28.32,2,2.62,3.99,5.28,5.95,7.98.23-.6-24.58,31.22-27.35,39.24-2.54,7.32-7.38,8.42-7.38,8.43Z"/>
                <path class="cls-21" d="m381.97,108.78c-8.2-4.57-14.68-7.81-31.22-20.82-16.54-13.27-39.95-26.08-39.93-25.84,5.32.07,10.63.38,15.91.93.17-1.04,36.14,26.28,44.23,33.59,8.39,6.02,10.99,12.2,11,12.15Z"/>
                <path class="cls-21" d="m299.26,68.65c-7.98,3-13.97,5.17-34,7.83-20.19,2.34-46.35,13-46.21,13.33,4.09-4.12,8.22-8.08,12.4-11.88-.33-1.55,43.25-10.44,52.79-10.48,9.3-1.94,15.01,1.23,15.01,1.2Z"/>
                <path class="cls-21" d="m380.14,122.38c-6.4,1.46-10.83,2.55-28.94.25-18.13-2.6-44.43.58-44.43.88-.41-2.48-.81-4.96-1.22-7.44-.08.08,13.84-1.97,28.23-1.44,14.47.12,29.42,2.84,33.27,3.01,7.9.08,13.08,4.76,13.09,4.74Z"/>
                <path class="cls-21" d="m388.61,109.05c-5.27,2.8-8.73,4.95-25.22,4.93-16.49-.27-40.8,5.23-40.82,5.5-.87-2.5-1.74-4.99-2.61-7.48-.07.07,12.91-3.2,26.17-4.35,13.35-1.51,26.98-.89,30.35-1.39,6.92-1.25,12.12,2.81,12.13,2.79Z"/>
                <path class="cls-19" d="m243.62,73.23c5.34-6.69,8.86-12.84,26.84-21.95,18.05-9.35,42.96-15.74,42.9-15.47,1.37,2.36,2.74,4.73,4.1,7.12.05.07-13.09,2.16-27.19,7.36-14.09,4.82-29.13,12.74-32.76,15.81-7.39,5.89-13.9,7.13-13.9,7.13Z"/>
                <path class="cls-19" d="m260.09,86.23c5.41-6.18,9.04-11.99,27.12-19.39,18.17-7.65,42.77-11.7,42.7-11.43,1.35,2.49,2.7,4.99,4.04,7.51.05.07-12.87.93-26.92,4.79-14.02,3.49-29.18,10-32.85,12.72-7.46,5.19-14.09,5.8-14.08,5.8Z"/>
                <path class="cls-19" d="m327.78,103.1c-5.44-6.61-10.12-11.17-16.2-29.08-6.08-17.89-10.31-27.97-10.31-27.98,1.14-5.59,2.28-11.18,3.42-16.75.02-.18,15.52,51.47,19.82,59.8,4.33,8.11,3.27,14.02,3.27,14.01Z"/>
                <path class="cls-21" d="m398.43,97.29c-4.66,2.63-7.55,4.66-23.26,3.76-15.7-1.14-39.4,3.09-39.43,3.35-1.15-2.5-2.3-4.99-3.45-7.46-.07.07,12.7-2.6,25.52-3.11,12.94-.87,25.93.41,29.03.05,6.4-.96,11.59,3.42,11.6,3.42Z"/>
                <path class="cls-21" d="m313.03,70.41c-8.9-1.55-15.98-2.4-33.12-9.63-17.23-7.5-40.05-12.43-39.97-12.2,1.63-2.54,3.27-5.05,4.91-7.55-.26-1.8,47.19,16.13,56.3,21.25,8.99,2.99,11.88,8.17,11.89,8.13Z"/>
                <path class="cls-21" d="m177.18,116.1c3.24-8.65,4.93-15.82,18.77-34.28,13.82-18.64,34.71-39.29,34.75-39.08-3.66,5.54-7.28,11.2-10.87,16.98-.24-.68-27.08,31.98-31.93,42.1-5.23,9.25-10.73,14.27-10.72,14.28Z"/>
              </g>
            </g>
            <g>
              <g>
                <path class="cls-19" d="m276.64,60.31c-8.3-1.28-14.78-3.18-32.13,4.1-17.41,7.01-41.17,22.53-41.12,22.77,1.26,2,2.52,4.02,3.78,6.04-.06-1.89,48.86-29.28,57.42-27.99,8.71-.94,12.05-4.88,12.05-4.92Z"/>
                <path class="cls-21" d="m278.11,72.33c-8.27-.66-14.81-1.98-31.28,6.5-16.52,8.23-39.12,24.85-39.08,25.07,1.52,1.85,3.05,3.72,4.57,5.61-.02-1.69,46.22-31.71,54.52-31.29,8.46-1.58,11.27-5.84,11.28-5.88Z"/>
                <path class="cls-21" d="m265.96,62.3c-8.39-.92-14.93-2.54-32.52,5.49-17.67,7.77-41.49,24.43-41.43,24.68,1.19,1.96,2.37,3.94,3.56,5.93-.16-1.94,49.24-31.62,58.05-30.66,8.83-1.33,12.34-5.4,12.34-5.44Z"/>
                <path class="cls-21" d="m272.03,71.84c-8.55-3.42-15.08-7.11-34.62-4.61-19.63,2.18-46.2,12.6-46.12,12.91.74,2.22,1.49,4.45,2.24,6.68-.06.09,13.69-6.18,28.69-9.68,14.99-3.91,31.24-5.04,35.87-4.21,9.41,1.4,13.94-1.05,13.94-1.1Z"/>
                <path class="cls-21" d="m254.5,79.06c-8.47-.36-15.08-1.55-32.69,7.63-17.69,8.91-41.26,27.14-41.18,27.39,1.17,1.88,2.35,3.78,3.52,5.69-.26-1.94,48.93-34.83,57.9-34.45,8.89-1.91,12.44-6.22,12.45-6.26Z"/>
                <path class="cls-19" d="m265.71,83.83c-7.93-2.84-13.9-6.14-32.89-2.36-19.08,3.48-44.82,15.28-44.74,15.57.38,2.42.77,4.85,1.15,7.27-.05.08,13.29-6.98,27.88-11.48,14.57-4.89,30.4-7.22,34.81-6.73,8.96.73,13.78-2.23,13.78-2.27Z"/>
                <path class="cls-19" d="m219.32,135.58c-1.61-6.65-2.17-12.4-14.2-23.31-12.07-11-28.39-23.1-28.35-22.97-2.45,2.25-4.88,4.56-7.31,6.92-.23-1.08,35.46,24.29,39.59,31.75,3.95,6.2,10.26,7.59,10.26,7.61Z"/>
                <path class="cls-21" d="m203.21,90.59c8.56.91,15.1,1.65,34.91-.53,19.94-2.51,46.2,1.27,46.08,1.58-.55-2.6-1.1-5.19-1.66-7.78.05.09-13.5-2.07-28.59-1.5-15.04.15-31.62,3.02-36.31,3.37-9.53.42-14.43,4.9-14.43,4.85Z"/>
                <path class="cls-19" d="m223.53,138.5c-2.45-6.48-3.68-12.22-17.2-22.1-13.57-10-31.82-19.99-31.77-19.83-2.25,2.41-4.49,4.86-6.72,7.35-.29-1.33,39.42,20.2,44.41,27.62,4.77,5.87,11.28,6.93,11.28,6.95Z"/>
                <path class="cls-19" d="m205.51,102.45c-8.33-1-14.77-2.97-34.06,5.03-19.49,7.67-43.58,25.94-43.4,26.27.31,2.23.63,4.45.94,6.68-.04.09,12.27-10.39,26.68-18.28,14.26-8.33,30.63-14.07,35.26-14.57,9.34-1.27,14.58-5.09,14.58-5.13Z"/>
                <path class="cls-21" d="m218.84,88.28c8.6,1.67,15.21,2.98,34.89,2.54,19.83-.76,45.42,5.39,45.28,5.71-.53-2.65-1.07-5.29-1.6-7.93.05.09-13.11-3.3-28.01-4.07-14.81-1.19-31.36.24-36.07.17-9.53-.42-14.48,3.62-14.48,3.58Z"/>
                <path class="cls-21" d="m160.73,75.44c8.37-3.41,14.86-5.82,32.86-17.18,18.04-11.64,43.13-21.47,43.1-21.2-5.14-.69-10.29-1.16-15.43-1.41-.08-1.22-39.45,22.03-48.12,28.52-8.88,5.01-12.39,11.3-12.41,11.26Z"/>
                <path class="cls-21" d="m200.69,68.95c7.52,2.74,13.03,4.7,33.05,6.36,20.15,1.34,46.9,10.55,46.79,10.88.3-2.36.6-4.72.9-7.07.06.09-13.83-5.17-29.19-7.82-15.31-3.1-32.09-3.59-36.54-4.23-9.04-1.57-15.01,1.91-15.01,1.88Z"/>
                <path class="cls-19" d="m303.34,74.16c-6.81-1.31-12.29-3.1-24.88,4.7-12.59,7.64-30.28,21.55-30.29,21.68,1.69,2.46,3.38,4.94,5.07,7.45.17-1.03,35.43-27.69,41.83-27.63,6.69-1.16,8.26-6.17,8.27-6.2Z"/>
                <path class="cls-19" d="m233.29,65.81c-4.21-5.83-6.9-11.34-23.1-17.75-16.2-6.05-25.12-8.46-25.12-8.57-6.05,1.93-12.04,4.17-17.94,6.74-.39-1.84,46.53,8.12,53.17,14.98,6.37,4.69,13,4.59,13,4.6Z"/>
                <path class="cls-21" d="m144.67,111.31c6.96.25,11.86.4,31.11-4.5,19.29-5.22,46.9-5.01,46.87-4.68.31-2.46.63-4.92.94-7.38.08.09-14.46-.46-29.67,1.96-15.27,1.98-31.19,6.94-35.33,7.78-8.49,1.4-13.91,6.85-13.92,6.83Z"/>
                <path class="cls-21" d="m214.68,101.92c8.34-3.19,15.06-5.19,29.91-16.26,14.92-11.28,34.59-22.75,34.54-22.57-7.26.36-14.63,1.19-22.07,2.5.05-.43-24.08,20.51-32.24,25.82-8.12,4.77-10.14,10.55-10.14,10.51Z"/>
              </g>
              <g>
                <path class="cls-19" d="m182.78,118.27c7.69-5.3,13.32-10.55,33.35-13.41,20.15-3.18,47.48.31,47.39.64.11,2.46.22,4.93.34,7.39.07.09-14.17-2.84-29.65-2.51-15.47-.11-32.19,3.04-36.66,5.04-9.11,3.7-14.76,2.88-14.76,2.84Z"/>
                <path class="cls-21" d="m246.05,40.52c8.85.17,15.83-.67,34.03,9.56,18.37,9.91,41.28,30.34,41.13,30.62-.99,1.7-1.99,3.4-2.99,5.12.03.08-11.67-11.19-25.29-20.4-13.49-9.58-28.9-17.09-33.53-18.18-9.31-2.41-13.35-6.67-13.35-6.72Z"/>
                <path class="cls-21" d="m184.87,48.25c8.58-3.67,15.13-7.54,34.64-5.64,19.61,1.59,46.06,11.16,45.97,11.47-.75,2.23-1.51,4.46-2.26,6.7.06.09-13.61-5.73-28.58-8.76-14.95-3.44-31.18-4.08-35.82-3.11-9.43,1.69-13.94-.62-13.95-.66Z"/>
                <path class="cls-21" d="m183.94,72.21c5.27-6.81,8.74-13.05,26.61-22.53,17.94-9.72,42.64-16.72,42.59-16.45,1.4,2.35,2.79,4.72,4.18,7.11.05.07-12.98,2.48-26.98,7.98-13.99,5.13-28.94,13.35-32.54,16.49-7.32,6.04-13.86,7.4-13.86,7.39Z"/>
                <path class="cls-21" d="m131.71,99.45c7.85-3.92,14.07-7.73,29.63-5.52,15.54,1.96,37.89,10.02,37.9,10.24-1.81,2.3-3.61,4.63-5.41,6.99-.35-1.67-44.63-13.96-51.98-10.27-7.93,1.72-10.13-1.39-10.15-1.44Z"/>
                <path class="cls-21" d="m275.97,140.47c-.69-8.42-1.8-15.17,4.05-30.77,5.85-15.61,13.88-36.13,13.87-36.1,2.32,1.99,4.62,4.02,6.91,6.11.1-.3-18.01,41.37-19.27,50.02-1.17,8.3-5.55,10.72-5.56,10.74Z"/>
                <path class="cls-19" d="m215.47,64.48c7.84-3.85,13.68-8.03,33.67-7.16,20.15.54,46.34,9.13,46.2,9.46.11,2.49.21,4.97.32,7.46.05.09-13.47-5.5-28.68-8.04-15.13-2.98-31.94-2.91-36.49-1.77-9.22,1.99-15.02.09-15.02.06Z"/>
                <path class="cls-19" d="m162.88,132.96c4.5-7.47,7.27-14.06,23.96-26.53,16.73-12.69,40.41-24.36,40.39-24.11,1.66,2.07,3.33,4.16,4.99,6.27-.09-2.03-50.06,25.26-56.35,34.76-6.61,7.12-12.99,9.61-12.99,9.62Z"/>
                <path class="cls-21" d="m182.35,116.22c-8.68,1.95-15.65,3.87-31.59,3.32-16.11-.81-35.66,3.38-35.51,3.62,1.37-3.21,2.75-6.39,4.14-9.55-.84-1.81,41.91-2.5,51.37-.88,8.67-.53,11.6,3.54,11.59,3.49Z"/>
                <path class="cls-19" d="m137.04,129.54c4.89-8.19,7.95-15.35,24.88-29.41,16.95-14.29,41.69-27.53,41.69-27.26,1.38,2,2.77,4.01,4.16,6.04.07.07-13.19,5.78-26.81,14.83-13.7,8.68-27.78,20.71-31.11,24.8-6.86,7.94-12.8,10.99-12.8,10.99Z"/>
                <path class="cls-19" d="m188.89,65.43c8.84-1.72,15.81-3.9,33.67,2.34,17.94,5.96,42.06,20.33,41.99,20.59-1.45,1.86-2.91,3.74-4.37,5.64.18-1.98-49.76-26.46-58.88-24.56-9.13-.43-12.41-3.96-12.41-4.01Z"/>
                <path class="cls-21" d="m177.99,89.37c-8.45,4.31-15.17,7.8-32.4,12.8-17.45,4.7-38.19,17.56-37.99,17.84.81-3.16,1.63-6.31,2.46-9.45-.02.08,10.51-6.57,23.24-11.23,12.55-5.04,27.3-8.1,31.74-9.56,8.9-3.16,12.97-.35,12.96-.4Z"/>
                <path class="cls-21" d="m277.43,71.71c-7.73,1.79-13.48,3.2-32.53,2.36-19.12-1.14-45.29,4-45.23,4.3,4.37-3.43,8.77-6.7,13.17-9.8-.02-1.38,42.05-1.87,50.8-.59,8.86-.42,13.78,3.77,13.79,3.73Z"/>
                <path class="cls-21" d="m279.79,94.94c-8.66-2.99-15.53-4.98-32.63-15.01-17.14-10.3-40.6-19.02-40.55-18.79,5.3-.88,10.62-1.52,15.94-1.92.02-1.05,36.9,19.89,45.59,25.63,8.82,4.45,11.63,10.15,11.64,10.1Z"/>
                <path class="cls-19" d="m224.72,104.75c5.41-5.42,9.11-10.73,27.04-15.57,17.9-4.37,26.68-2.83,26.69-2.98,6.38,1.56,12.68,3.49,18.85,5.79.04.07-12.28-.93-26.02.94-13.66,1.5-28.75,5.86-32.43,8.05-7.44,4.14-14.14,3.77-14.14,3.77Z"/>
                <path class="cls-19" d="m185.34,89.53c5.32-6.63,8.84-12.75,26.81-21.59,18.02-8.42,28.36-11.71,28.35-11.85,6.21,1.07,12.41,2.47,18.55,4.19.05.07-13.02,1.99-27.08,6.99-14.05,4.62-29.08,12.33-32.71,15.35-7.38,5.79-13.93,6.92-13.93,6.92Z"/>
                <path class="cls-21" d="m254.11,75.14c-8.75.38-15.5.78-34.92-2.43-19.55-3.53-45.36-1.47-45.25-1.17.82-2.62,1.64-5.24,2.47-7.84-.05.09,13.25-1.09,28.05.4,14.75,1.09,30.98,4.85,35.68,5.46,9.51.96,13.98,5.62,13.98,5.57Z"/>
                <path class="cls-21" d="m273.28,62.87c-8.75-2.23-15.65-3.64-33.1-12.22-17.52-8.86-41.3-15.42-41.24-15.17,8.02-1.12,16.11-1.69,24.21-1.7,0-.64,29.24,15.47,38.14,19.96,8.96,3.69,11.99,9.18,12,9.14Z"/>
                <path class="cls-21" d="m300.42,113.38c-8.36-4.08-14.97-6.94-31.74-19.07-16.8-12.4-40.33-23.98-40.31-23.75,1.67-2.08,3.34-4.14,5.01-6.17.16-1.81,47.63,29.73,55.8,37.43,8.54,5.55,11.23,11.61,11.25,11.56Z"/>
                <path class="cls-21" d="m197.98,110.07c3.79-6.75,6.05-12.78,21.83-23.4,15.84-10.8,37.54-20.65,37.49-20.44-3.76,3.66-7.53,7.45-11.31,11.36.04-.68-29.31,17.45-35.33,24.56-6.03,6.24-12.68,7.91-12.68,7.92Z"/>
              </g>
              <g>
                <path class="cls-19" d="m182.67,120.56c7.35-5.8,12.66-11.41,32.51-15.9,19.95-4.8,47.07-3.68,46.98-3.36.33,2.47.65,4.94.98,7.41.06.09-14.09-1.65-29.45-.08-15.35,1.13-31.92,5.58-36.28,7.9-8.89,4.35-14.73,4.04-14.73,4.02Z"/>
                <path class="cls-19" d="m233.05,123.34c5.71-5.71,9.74-11.21,27.49-16.49,17.88-5.53,41.05-6.76,40.94-6.49-3.99,1.99-8.03,4.13-12.11,6.43.25-1.01-34.62,6.74-42.38,12.42-7.55,4.41-13.93,4.13-13.93,4.12Z"/>
                <path class="cls-21" d="m229.13,20.18c8.64,2.52,15.61,3.9,30.73,17.72,15.2,13.61,34.91,36.74,34.84,36.92-1.9.93-3.8,1.9-5.72,2.91.33-1.4-40.85-45.01-49.46-47.93-8.37-4.59-10.39-9.57-10.39-9.61Z"/>
                <path class="cls-21" d="m191.02,124.27c8.43-3.97,14.84-8.12,34.57-7.11,19.84.69,46.41,9.19,46.31,9.51-.54,2.29-1.07,4.58-1.61,6.88.06.09-13.68-5.25-28.8-7.67-15.09-2.84-31.55-2.77-36.19-1.61-9.42,2.06-14.27.04-14.27,0Z"/>
                <path class="cls-21" d="m192.16,147.6c4.79-6.83,7.87-13.02,25.06-23.08,17.26-10.28,40.89-18.54,40.83-18.29,1.57,2.29,3.15,4.61,4.71,6.95.2-2.05-50.19,18.11-57.1,26.69-6.91,6.18-13.51,7.72-13.5,7.73Z"/>
                <path class="cls-21" d="m199.48,106.14c8.87-1.64,15.86-3.77,33.69,2.61,17.92,6.09,41.74,20.6,41.66,20.85-1.41,1.85-2.82,3.73-4.24,5.62.27-1.97-49.37-26.8-58.62-24.97-9.15-.5-12.5-4.05-12.5-4.1Z"/>
                <path class="cls-19" d="m247.68,132.31c5.16-5.59,8.76-10.98,25.68-16.13,17.06-5.37,38.9-6.78,38.77-6.53,1.21,2.74,2.41,5.5,3.6,8.28.73-2.06-46.9,3.81-54.59,10.51-7.06,4.29-13.48,3.87-13.47,3.87Z"/>
                <path class="cls-19" d="m282.65,119.35c.69-7.97.71-14.67,9.13-27.33,8.45-12.71,19.68-28.39,19.65-28.32,2,2.62,3.99,5.28,5.95,7.98.23-.6-24.58,31.22-27.35,39.24-2.54,7.32-7.38,8.42-7.38,8.43Z"/>
                <path class="cls-21" d="m302.9,138.96c-7.62.02-13.29.1-31.91-4.63-18.67-5.04-45.05-5.22-45.02-4.93.45-2.56.89-5.11,1.34-7.66-.07.09,13.7-.01,28.24,2.6,14.59,2.21,29.96,7.12,34.2,8,8.66,1.51,13.15,6.65,13.16,6.62Z"/>
                <path class="cls-21" d="m308.51,99.99c-8.2-4.57-14.68-7.81-31.22-20.82-16.54-13.27-39.95-26.08-39.94-25.84,5.32.07,10.63.38,15.91.93.17-1.04,36.14,26.28,44.24,33.59,8.39,6.02,10.99,12.2,11,12.15Z"/>
                <path class="cls-21" d="m237.04,68.57c-7.98,3-13.97,5.17-34,7.83-20.19,2.34-46.35,13-46.21,13.33,4.09-4.12,8.22-8.08,12.4-11.88-.33-1.55,43.25-10.44,52.79-10.48,9.3-1.94,15.01,1.23,15.01,1.2Z"/>
                <path class="cls-21" d="m317.92,122.31c-6.4,1.46-10.83,2.55-28.94.25-18.13-2.6-44.43.58-44.43.88-.41-2.48-.81-4.96-1.22-7.44-.08.08,13.84-1.97,28.23-1.44,14.47.12,29.42,2.84,33.27,3.01,7.9.08,13.08,4.76,13.09,4.74Z"/>
                <path class="cls-21" d="m326.38,108.98c-5.27,2.8-8.73,4.95-25.22,4.93-16.49-.27-40.8,5.23-40.82,5.5-.87-2.5-1.74-4.99-2.61-7.48-.07.07,12.91-3.2,26.18-4.35,13.35-1.51,26.98-.89,30.34-1.39,6.92-1.25,12.12,2.81,12.13,2.79Z"/>
                <path class="cls-19" d="m167.94,82.52c5.34-6.69,8.86-12.84,26.84-21.95,18.05-9.35,42.96-15.74,42.9-15.47,1.37,2.36,2.74,4.73,4.1,7.12.05.07-13.09,2.16-27.19,7.36-14.09,4.82-29.13,12.74-32.76,15.81-7.39,5.89-13.9,7.13-13.9,7.13Z"/>
                <path class="cls-19" d="m197.86,86.16c5.41-6.18,9.04-11.99,27.12-19.39,18.17-7.65,42.77-11.7,42.7-11.43,1.35,2.49,2.7,4.99,4.04,7.51.05.07-12.87.93-26.92,4.79-14.02,3.49-29.18,10-32.85,12.72-7.46,5.19-14.09,5.8-14.08,5.8Z"/>
                <path class="cls-19" d="m265.56,103.03c-5.44-6.61-10.12-11.17-16.2-29.08-6.07-17.89-10.31-27.97-10.31-27.98,1.14-5.59,2.28-11.18,3.42-16.75.02-.18,15.52,51.47,19.82,59.8,4.33,8.11,3.26,14.02,3.27,14.01Z"/>
                <path class="cls-21" d="m339.72,104.26c-4.66,2.63-7.54,4.66-23.26,3.76-15.7-1.14-39.4,3.09-39.43,3.35-1.15-2.5-2.3-4.99-3.45-7.46-.07.07,12.7-2.6,25.52-3.11,12.94-.87,25.93.41,29.03.05,6.4-.96,11.59,3.42,11.6,3.42Z"/>
                <path class="cls-21" d="m251.4,77.94c-8.9-1.55-15.98-2.4-33.12-9.63-17.23-7.5-40.05-12.43-39.97-12.2,1.63-2.54,3.27-5.05,4.91-7.55-.26-1.8,47.19,16.13,56.3,21.25,8.99,2.99,11.88,8.17,11.89,8.13Z"/>
                <path class="cls-21" d="m332.29,113.77c-6.14-7.05-11.09-12.02-22.44-31.24-11.32-19.37-27.68-43.04-27.7-42.92,4.92,4.49,9.79,9.19,14.59,14.12.16-.45,22.55,34.84,28.32,44.17,5.99,8.77,7.23,15.89,7.24,15.86Z"/>
              </g>
            </g>
            <g>
              <path class="cls-15" d="m311.83,84.9l-.06-9.13,6.83-11.87s20.48-13.62,20.61-13.71c7.65-5.09,30.16-.38,37.56,3.29,8.38,4.16,23.68,12.22,26.86,21.09,4.42,12.32,7.69,20.97,12.2,33.65,0,0-2.64,13.28-2.64,13.29-1.52,7.66-30.53,19.45-36.68,20.72-11.61,2.38-21.92.12-31.36-6.94-13.06-9.77-39.6-30.98-33.32-50.38Z"/>
              <path class="cls-17" d="m387.71,95.95l4.37,5.45,5.36-6.39s1.65-3.49-2.4-7.16c-4.04-3.67-7.33,8.09-7.33,8.09Z"/>
              <path class="cls-17" d="m361.87,103.4l5.11-1.5,4.62.56s1.65-3.49-2.4-7.16c-4.04-3.67-7.33,8.09-7.33,8.09Z"/>
              <path class="cls-17" d="m359.2,63.65l4.87-.42,7.98.37s-1.23-2.21-5.27-5.88c-4.05-3.67-7.57,5.92-7.57,5.92Z"/>
              <path class="cls-17" d="m329.43,72.97s4.05,3.66,3.5,6.42c0,0-3.3,2.21-5.87.74-2.57-1.46-1.66,7.36-3.68,1.2-2.02-6.15,3.3-8.92,6.05-8.37Z"/>
              <path class="cls-14" d="m341.11,113.5c1.86.77,15.18,4.62,18.21,5.62,3.02,1,6.35.46,8.9-.25,2.55-.7,4.41.07,6.97-2.64,2.55-2.71,2.24-3.18,4.02-4.03,1.78-.85,4.64-1.09,6.19-.78,1.55.31,3.18.23,4.34.46,1.16.23,4.41.07,5.96-1.64,1.54-1.71,2.71-1.48,4.02-4.03,1.31-2.56,2.47-2.33,3.24-6.2.77-3.87.53-4.72.84-6.27.31-1.55.63,8.98,1.57,12.39.94,3.41.57,17.42-4.07,20.53-4.64,3.1-19.5,4.99-30.96,7.95-11.46,2.96-15.32,4.2-24.16-1.98-8.84-6.18-5.06-19.12-5.06-19.12Z"/>
              <path class="cls-14" d="m346.58,58.26c-1.33,2.58-.83,12.31,1.96,14.48,2.79,2.16,5.97,4.4,8.14,5.64,2.17,1.24,24.01,2.75,24.01,2.75,0,0-38.71,2.38-43.6-3.42-4.89-5.8-4.74-8.59-1.49-10.76,3.25-2.17,10.98-8.69,10.98-8.69Z"/>
            </g>
            <g>
              <path class="cls-8" d="m307.43,121.45c-6.08,24.88-23.01,42.13-37.81,38.51-14.8-3.62-21.87-26.73-15.78-51.61,6.08-24.89,23.02-42.13,37.82-38.51,14.8,3.62,21.87,26.72,15.78,51.61Z"/>
              <path class="cls-6" d="m303.42,123.14c-5.31,21.73-20.1,36.79-33.02,33.63-12.93-3.16-19.1-23.34-13.78-45.07,5.31-21.73,20.09-36.79,33.02-33.63,12.92,3.16,19.09,23.34,13.78,45.07Z"/>
              <path class="cls-21" d="m284.52,105.89c-.32,1.33-1.32,2.22-2.24,2-.91-.22-1.39-1.48-1.06-2.8.32-1.33,1.32-2.22,2.24-2,.91.22,1.39,1.48,1.06,2.8Z"/>
              <path class="cls-21" d="m276.3,109.18c-.32,1.33-1.32,2.22-2.24,1.99-.91-.22-1.39-1.48-1.06-2.8.32-1.33,1.33-2.22,2.24-2,.91.22,1.39,1.48,1.07,2.8Z"/>
              <path class="cls-21" d="m273.98,124.5c-.32,1.33-1.32,2.22-2.24,2-.91-.22-1.39-1.48-1.06-2.8.32-1.33,1.32-2.22,2.23-2,.91.22,1.39,1.48,1.06,2.8Z"/>
              <path class="cls-21" d="m279.3,131.73c-.32,1.33-1.32,2.22-2.23,1.99-.91-.22-1.39-1.48-1.06-2.8.32-1.33,1.32-2.22,2.23-2,.91.22,1.39,1.48,1.06,2.8Z"/>
              <path class="cls-21" d="m287.04,125.93c-.32,1.33-1.32,2.22-2.24,2-.91-.22-1.39-1.48-1.06-2.8.33-1.32,1.32-2.22,2.24-2,.91.22,1.39,1.48,1.06,2.8Z"/>
              <path class="cls-21" d="m281.67,117.55c-.32,1.32-1.33,2.22-2.24,2-.91-.22-1.39-1.48-1.06-2.8.32-1.33,1.33-2.22,2.24-2,.91.22,1.39,1.48,1.06,2.8Z"/>
              <path class="cls-21" d="m273.27,117.26c-.32,1.33-1.33,2.22-2.24,2-.91-.22-1.39-1.47-1.06-2.8.32-1.32,1.32-2.22,2.23-1.99.91.22,1.39,1.48,1.06,2.8Z"/>
              <path class="cls-21" d="m290.21,115.83c-.32,1.33-1.33,2.22-2.24,2-.91-.22-1.39-1.48-1.07-2.8.32-1.33,1.33-2.22,2.24-2,.91.22,1.39,1.48,1.06,2.8Z"/>
            </g>
            <g>
              <path class="cls-17" d="m400.15,151.92c-2.74-5.84-8.24-9.76-13.58-12.51-.81-.42-1.63-.8-2.45-1.18-1.11-.88-2.27-1.69-3.47-2.42-.45-.28-.9-.54-1.36-.8-2.32-3.43-6.79-4.44-10.53-4.7-.81-.06-1.62-.07-2.43-.06-3.93-.83-7.95-1.21-11.91-1.24-12.27-.1-26.71,3.56-36.23,12.63-.72.03-1.44.07-2.15.13-2.93.27-6.34.83-8.91,2.87-3.41-.36-6.83-.56-10.23-.24-3.66.34-8.11,1.14-10.61,4.89-.6.9-.68,2.07,0,2.96,1.32,1.72,2.79,3.11,4.36,4.23-.22.82-.3,1.74-.21,2.76.33,3.56,1.58,6.93,3.03,10.06-1.73-1.34-3.34-2.95-4.8-4.93-1.26-1.71-3.03.16-2.81,2.03.26,2.29.71,4.55,1.38,6.71,6.52,20.97,27.17,28.88,43.75,28.72,3.88-.04,7.82-.47,11.68-1.4.81,0,1.62-.01,2.42-.08,1.7-.14,3.55-.46,5.27-1.15.12,0,.24,0,.36,0,3.94-.04,7.95-.47,11.88-1.4.82,0,1.65-.01,2.47-.08,3.74-.29,8.21-1.44,10.54-5.35.46-.29.91-.59,1.36-.91,1.2-.84,2.35-1.76,3.47-2.76.83-.43,1.65-.87,2.46-1.35,5.35-3.14,10.85-7.61,13.6-14.26.2-.49.38-.98.56-1.48,1.11-.34,2.14-.99,2.99-2.07,1.66-2.1,2.08-4.94,2.15-7.6.1-3.51-.58-6.9-2.04-10.03Z"/>
              <path class="cls-11" d="m374.29,170.41c-1.38-1.51-2.92-2.72-4.58-3.71.23-.72.32-1.53.22-2.42-.34-3.12-1.66-6.08-3.18-8.83,1.81,1.17,3.5,2.59,5.03,4.33,1.32,1.5,3.18-.14,2.95-1.78-.28-2.01-.74-3.99-1.45-5.89-6.84-18.39-28.5-25.33-45.9-25.2-4.08.03-8.23.41-12.29,1.24-.84,0-1.67,0-2.51.06-3.85.26-8.46,1.27-10.86,4.69-.47.26-.94.52-1.41.8-1.23.74-2.43,1.55-3.57,2.42-.85.38-1.7.76-2.53,1.18-5.51,2.75-11.19,6.67-14.02,12.51-1.52,3.13-2.21,6.52-2.11,10.03.08,2.66.5,5.51,2.22,7.6,1.12,1.37,2.53,2.06,4.05,2.29,1.4,2.7,4.09,4.24,7.15,4.52,1.89,1.23,3.99,2.11,6.13,2.56,6.48,1.39,13.15.4,19.59-.71,4.78-.82,9.36-1.76,14.22-1.39,5.2.4,10.37,1.2,15.55,1.79,5.33.61,10.77,1.2,16.14.78,3.84-.3,8.51-1,11.13-4.29.63-.79.71-1.82,0-2.59Z"/>
              <path class="cls-11" d="m380.11,143.94c-10.21-10.38-22.9-15.64-35.01-16.32-8.45-.47-16.88,1.88-24.6,7.21-2.47,1.71-4.86,3.77-7.15,6.07-4.55.98-8.88,3.33-12.85,7.56-4.38,4.68-8.7,10.35-12.08,16.72-1.48,2.79-2.97,6-3.21,9.7-.24,3.67,1.33,6.15,3.4,7.44,5.77,3.6,11.84-5.97,15.68-11.32,2.35-3.28,4.56-6.56,7.2-9.29,3.53-3.66,7.36-6.58,11.37-8.73,4.26-2.28,8.99-3.73,13.68-3.89,6.07,1.66,12.08,4.04,17.9,7.16,2.07,1.66,4.1,3.41,6.13,4.97,5.15,3.98,10.54,8.05,16.32,9.14,4.34.82,9.88-2.13,10.7-9.7.81-7.51-3.91-13.1-7.47-16.72Zm-91.05,31.96c.18.29-.01-.41,0-.13-.03-.65-.02-.48.14-1.32.26-1.4.93-2.86,1.53-4.15,2.81-6.05,6.93-10.84,10.54-15.3.79-.98,1.61-1.86,2.44-2.65-3.88,5.37-8.32,13.04-7.26,20.97-.64.7-1.29,1.37-1.97,2-1.66,1.52-4.09,2.77-5.42.6Z"/>
              <path class="cls-11" d="m401.78,151.28c-.17-1.15-.44-2.29-.83-3.41-.48-1.37-1.11-2.64-1.87-3.81.03-.43.05-.86.06-1.28.11-4-.61-7.86-2.18-11.43-2.92-6.66-8.79-11.13-14.49-14.26-.86-.47-1.74-.92-2.62-1.35-1.19-1-2.42-1.92-3.69-2.76-.48-.31-.96-.62-1.45-.91-2.48-3.91-7.24-5.06-11.23-5.35-.87-.06-1.75-.09-2.63-.08-4.18-.94-8.46-1.37-12.66-1.4-17.98-.15-40.37,7.76-47.44,28.73-.73,2.16-1.21,4.42-1.49,6.71-.23,1.82,1.57,3.63,2.93,2.16.08.29.17.57.29.85-2.55,1.48-4.51,3.73-4.85,7-3.38,4.55-6.15,9.56-8.08,14.94-.81,2.26,2.1,3.37,3.41,1.86-.3.78-.51,1.6-.59,2.45-.26,2.76,1.46,4.62,3.72,5.59,4.03,1.73,8.21-.58,11.79-3.52,5.97-.89,12.1-.54,18.08.15,8.37.97,16.61,2.88,24.91,4.39,5.18.94,10.36,1.96,15.57,2.72,6.01.87,12.19,1.47,18.2.27,3.79-.75,7.54-2.66,9.54-6.31.56-1.01.2-2.06-.56-2.75.54,0,1.08-.05,1.61-.17,2.16-.52,4.3-1.61,5.59-3.59.48-.74.7-1.56.73-2.39,1.52-1.2,2.65-2.88,2.99-5.09.48-3.09-.84-5.74-2.78-7.96Zm-23.75,24.69c-5.95.09-11.88-.91-17.72-1.99-6.13-1.14-12.27-2.25-18.4-3.44-8.5-1.65-17.08-3.17-25.74-3.28-1.06-.01-2.12,0-3.18.05.1-.1.2-.19.3-.29,1.5-1.44,2.96-2.88,4.49-4.24,3.39-.15,6.79-.56,10.14-.98,1.13-.14,2.25-.3,3.38-.45,2.98.57,5.94,1.33,8.85,2.07,5.93,1.5,11.77,2.67,17.84,3.21,6.02.54,12.08.77,18.07,1.69,4.64.71,9.44,1.81,13.52,4.36-2.86,2.95-7.86,3.25-11.57,3.3Z"/>
              <path class="cls-17" d="m396.35,145.3c-2.08-3.67-5.46-6.58-9.29-8.92-8.53-16.26-30.36-22.48-48.1-22.35-4.39.03-8.86.41-13.23,1.24-.9,0-1.8,0-2.7.06-4.15.26-9.11,1.27-11.69,4.7-.51.26-1.02.52-1.52.8-1.33.74-2.61,1.55-3.85,2.42-.92.37-1.83.76-2.72,1.18-5.93,2.75-12.05,6.67-15.09,12.51-1.63,3.13-2.38,6.52-2.27,10.03.04,1.35.18,2.74.55,4.06-.21.81-.38,1.63-.52,2.46-.25,1.58,1.73,3.15,3.26,1.94.92.73,1.97,1.16,3.07,1.37-.34.97-.59,1.97-.72,2.98-.11.89-.01,1.7.26,2.42-1.93.98-3.73,2.2-5.34,3.71-.83.78-.73,1.81,0,2.59,3.06,3.29,8.51,3.99,13,4.29,6.27.42,12.63-.17,18.86-.78,6.05-.59,12.09-1.4,18.16-1.8,5.67-.37,11.03.57,16.61,1.39,7.53,1.11,15.32,2.09,22.88.71,2.5-.46,4.96-1.34,7.16-2.56,3.58-.28,6.72-1.82,8.36-4.52,1.77-.23,3.42-.92,4.73-2.29,2-2.1,2.5-4.94,2.59-7.6.12-3.51-.69-6.9-2.46-10.03Z"/>
              <path class="cls-17" d="m392.92,128.54c-.89-1.94-2.04-3.69-3.37-5.28,0-.01-.02-.02-.02-.04-3.1-6.45-9.09-10.81-14.91-13.89-.89-.47-1.8-.91-2.71-1.34,0,0-.02-.01-.03-.02-1.23-.99-2.51-1.91-3.83-2.75-.49-.31-.98-.6-1.48-.89-.02-.01-.04-.03-.05-.05-2.59-3.88-7.54-5.03-11.68-5.32-.91-.06-1.82-.09-2.73-.08,0,0-.02,0-.02,0-4.35-.93-8.8-1.37-13.18-1.4-18.7-.15-41.98,7.74-49.38,28.63-.01.03-.03.06-.06.08-3.3,2.59-6.09,6.19-7.94,10.13-4.58,9.73-2.4,19.2-1.08,22.05,3.78,8.17,11.25,10.51,13.51,11.02,6.97,1.58,20.44-2.23,27.38-3.49,5.14-.94,10.08-2.01,15.31-1.58,5.6.45,11.16,1.37,16.74,2.05,5.74.7,11.6,1.36,17.38.89,4.14-.34,9.16-1.14,11.98-4.9.67-.9.77-2.07,0-2.96-.83-.96-1.73-1.81-2.66-2.58.21-.13.42-.27.62-.41.02-.01.04-.02.06-.02,3.26-.33,6.12-2.05,7.64-5.08.02-.05.06-.08.11-.09,1.61-.27,3.1-1.06,4.29-2.6,1.85-2.39,2.31-5.63,2.39-8.67.11-4-.64-7.86-2.27-11.43Zm-5.18,10.24c-.05.16-.23.17-.29.01-.28-.72-.63-1.41-1.02-2.08-.01-.02-.02-.05-.03-.08-.13-1.27-.43-2.54-.88-3.77-.02-.04-.02-.09,0-.14.24-.87.35-1.81.31-2.84-.08-2.09-.73-4.07-1.64-5.91-.09-.19.09-.4.22-.27.69.64,1.35,1.31,1.97,2.02.01.02.03.03.04.06.64,1.4,1.13,2.89,1.44,4.46.51,2.56.66,5.89-.12,8.55Z"/>
              <path class="cls-11" d="m313.35,106.96c-.82.6-1.59,1.27-2.31,2-1.9,1.3-3.68,2.82-5.29,4.62-2.31,2.58-3.94,5.56-5.48,8.73-.22.46-.44.93-.66,1.4-2.27,1-4.44,2.24-6.46,3.79,3.41-9.81,11.21-16.45,20.21-20.53Z"/>
              <path class="cls-11" d="m382.99,121.57c-5.97-10.67-17.84-15.62-29.21-16.8-14.67-1.52-33.26,2.48-45.18,14.42-7.52,4.53-13.82,11.1-17.38,20.07-.67,1.68.78,3.76,2.44,2.44,14.74-11.74,32.59-19.11,50.12-17.91,1.04.07,2.06-.49,2.27-1.81.16-1.03-.6-1.99-1.64-2.06-6.53-.41-13.09.26-19.53,1.84,8.91-3.51,18.22-5.25,27.46-4.62.29.02.57-.02.84-.1,7.33,2.21,14.19,6.35,18.15,13.42,1.15,2.06,4.27-.18,3.11-2.25-5.97-10.67-17.84-15.62-29.21-16.8-6.17-.64-13.04-.3-19.81,1.2-.02,0-.02,0,0,0,10.22-4.19,21.41-5.36,31.68-3.36,8.98,1.75,18,6.02,22.78,14.56,1.15,2.06,4.27-.18,3.11-2.25Z"/>
              <path class="cls-11" d="m395.51,157.98c-.09-2.91-1.78-5.47-4.15-7.3,1-.49,1.8-1.95,1.12-3.35-5.97-12.26-17.84-17.95-29.21-19.3-.98-.12-1.97-.2-2.98-.26-15-4.58-32.82-1.18-46.31,5.57-12.04,6.03-23.62,16.41-27.28,30.62-.71,2.75,3.27,3.92,3.98,1.17.43-1.68,1-3.3,1.66-4.85,1.03,1.01,3.51,1.04,4.14-.61,1.89-4.94,8.83-7.11,14.43-8.32.87-.19,1.76-.36,2.65-.51-1.37,2.26-2.58,4.7-3.61,7.33-5.38,1.28-10.57,3.24-15.4,6.1-2.56,1.52-.26,5.64,2.31,4.12,2.63-1.56,5.38-2.82,8.2-3.84-.02,1.14,1.35,2.34,2.84,1.64,10.61-4.97,22.94-1.64,33.59,1.44,11.23,3.24,23,7.51,34.99,5.85,4.13-.57,8.99-2.32,12.77-5,2.07,1.25,4.08-1.05,3.01-2.62,2.06-2.23,3.34-4.88,3.25-7.88Zm-97.49-6.01c-.52.32-1.02.67-1.49,1.02,4.03-5.49,9.41-9.93,15.03-13.35,8.7-5.3,18.63-8.51,28.64-9.31-6.3,2.02-12.4,5.23-17.66,9.82-1.95.71-3.89,1.49-5.8,2.37-1.03.48-1.25,2.08-.74,3.03.19.34.43.58.7.76-.09.11-.17.21-.26.32-6.45.74-13.17,2.14-18.41,5.34Zm51.93,14.57c-6.98-2.02-14.47-4.5-21.98-5.64,3.6-.04,7.19.11,10.71.36,14.04,1.02,27.89,4.16,41.47,7.88-9.68,3.21-20.78.12-30.2-2.6Zm33.85,1.04c.26-1.13-.16-2.42-1.55-2.8-14.46-3.99-29.18-7.25-44.12-8.33-6.2-.45-12.6-.5-18.91.16,3.44-2.57,7-4.87,10.65-6.83.3,0,.59.01.89.03,4.31.18,8.48.43,12.72,1.15,4.76.81,9.42,2,13.97,3.37,9.19,2.77,17.98,6.51,26.14,10.9.73.39,1.45.8,2.17,1.21-.66.43-1.33.82-1.96,1.15Zm5.31-3.82c-6.91-4.01-14.36-7.4-22.09-10.26-8.81-3.25-18.12-5.86-27.74-6.94-.69-.08-1.39-.14-2.09-.21,8.04-3.21,16.37-4.75,24.63-4.1.7.06,1.4-.23,1.84-.89,4.86.88,9.67,2.17,14.34,3.82,2.16.76,3.18-2.12,2.01-3.7-1.48-1.99-3.1-3.77-4.83-5.35,5.56,2.67,10.56,6.84,13.81,13.07,0,0,0,0,0,0-4.36-2.16-9.73-2.13-14.3-.56-2.24.77-1.27,4.07,1,3.29,5.21-1.79,12.22-1.32,15.27,3.51,1.9,3.02.53,5.95-1.83,8.32Z"/>
              <path class="cls-11" d="m357.17,191.6c-1.73.22-3.48.38-5.23.47-.16-.04-.32-.07-.47-.11,1.9-.05,3.8-.24,5.69-.54,5.65-.91,11.42-2.68,16.65-5.59.04.03.08.07.14.12-.07-.06-.02,0,.01.22.03.22-.02.61-.11,1.04-5.42,2.12-11.03,3.66-16.69,4.39Z"/>
              <path class="cls-11" d="m377.36,185.74c-.05-.63-.2-1.23-.46-1.8,2.91-1.93,5.74-4.27,8.15-7.1-.64,1.27-1.38,2.47-2.19,3.58-1.28,1.75-2.69,3.3-4.21,4.7-.43.21-.86.41-1.29.61Z"/>
              <path class="cls-11" d="m373.24,173.92c-19.12,6.77-40.45,7.45-59.19-1.16-1.03-.48-2.2-.34-2.82.79-.51.94-.29,2.55.74,3.03,6.6,3.03,13.48,5.02,20.48,6.05,2.84,1.84,5.88,3.21,9.08,4.09,3.1.85,6.28,1.18,9.46,1.11-3.11.7-6.29,1.07-9.47,1.13-12.02.23-24.26-3.13-34.72-9.5-9.29-5.66-17.96-14.11-20.89-25.49-.71-2.75-4.69-1.58-3.98,1.17,1.78,6.89,5.42,12.88,10.07,17.91-.52-.38-1.03-.78-1.52-1.21,3.02,9.81,9.92,16.45,17.89,20.53-.72-.6-1.4-1.26-2.04-2-1.68-1.3-3.26-2.82-4.69-4.62-1.84-2.32-3.2-4.97-4.44-7.79,3.74,3.1,7.85,5.71,12.02,7.8,20.34,10.18,50.48,12.74,66.04-8.14,1.17-1.57.15-4.46-2.01-3.7Zm-20.73,13.53c-6.13-.23-12.26-1.64-17.91-4.54,10.58,1.27,21.38.39,31.81-2.31-4.12,3.3-8.88,5.52-13.9,6.84Z"/>
              <path class="cls-11" d="m283.88,152.34c-1.27-2.8-1.16-6.81-.57-9.78.71-3.56,2.29-6.74,4.59-9.36.25-.28.5-.55.75-.82.88-.93.36,2.07.3,2.43-.3,1.8-.6,3.29-.13,5.14.04.15.03.3-.02.44-1.02,2.87-2.05,5.78-2.65,8.85-.11.56-.89,5.21-1.84,3.88-.16-.23-.31-.49-.44-.78Z"/>
            </g>
            <g>
              <path class="cls-8" d="m263.11,116.63c4.19,25.27-4.59,47.78-19.62,50.27-15.03,2.49-30.61-15.97-34.81-41.25-4.19-25.28,4.6-47.78,19.63-50.28,15.03-2.49,30.61,15.97,34.8,41.25Z"/>
              <path class="cls-6" d="m260.08,119.75c3.66,22.07-4.01,41.73-17.13,43.9-13.13,2.18-26.74-13.95-30.4-36.02-3.66-22.07,4.01-41.73,17.14-43.91,13.12-2.18,26.73,13.95,30.39,36.02Z"/>
              <path class="cls-21" d="m235.92,111.33c.22,1.35-.35,2.56-1.27,2.71-.92.15-1.86-.81-2.08-2.16-.22-1.35.34-2.56,1.27-2.71.93-.15,1.86.81,2.08,2.16Z"/>
              <path class="cls-21" d="m229.66,117.58c.22,1.35-.35,2.56-1.27,2.71-.92.15-1.85-.81-2.08-2.16-.22-1.35.35-2.56,1.27-2.71.93-.15,1.86.81,2.08,2.16Z"/>
              <path class="cls-21" d="m233.55,132.59c.22,1.35-.34,2.56-1.27,2.71-.92.15-1.85-.81-2.08-2.16-.22-1.35.34-2.56,1.27-2.72.93-.15,1.86.81,2.08,2.16Z"/>
              <path class="cls-21" d="m241.28,137.15c.22,1.35-.34,2.56-1.27,2.71-.92.15-1.85-.81-2.08-2.16-.22-1.35.35-2.56,1.27-2.71.93-.15,1.85.81,2.08,2.16Z"/>
              <path class="cls-21" d="m246.11,128.76c.22,1.35-.34,2.56-1.27,2.71-.92.15-1.86-.81-2.08-2.16-.22-1.35.35-2.56,1.27-2.71.93-.15,1.86.81,2.08,2.16Z"/>
              <path class="cls-21" d="m237.89,123.17c.22,1.34-.35,2.56-1.27,2.71-.92.15-1.86-.81-2.08-2.16-.22-1.35.35-2.56,1.27-2.72.92-.15,1.86.81,2.08,2.16Z"/>
              <path class="cls-21" d="m230.04,126.21c.22,1.35-.35,2.56-1.27,2.71-.92.15-1.85-.81-2.08-2.16-.22-1.34.34-2.56,1.27-2.71.93-.15,1.86.81,2.08,2.16Z"/>
              <path class="cls-21" d="m245.06,118.23c.22,1.35-.35,2.56-1.27,2.71-.93.15-1.86-.81-2.08-2.16-.22-1.35.35-2.56,1.27-2.72.92-.15,1.85.81,2.08,2.16Z"/>
            </g>
            <g>
              <path class="cls-10" d="m211.85,108.06c4.98,12.15,6.1,26.29-1.35,37.9-12.01,18.73-31.08,20.09-48.77,23.1-17.14,2.91-25.07,1.38-43.93.06-11.16-.78-23.43-3.73-32.93-11.62-12.38-10.27-17.46-33.85-9.5-50.63,15.42-32.49,59.01-35.65,88.76-31.5,10.42,1.45,24.76,6.8,33.29,14.4,5.62,5.01,10.96,9.82,14.43,18.29Z"/>
              <path class="cls-5" d="m79.3,119.1c2.18-1.35,6.14,7.98,8.93,8.6,2.79.61.56,1.23,5.02,4.3,4.46,3.07,5.28,3.48,7.81,4.91,22.04,12.51,74.9,3.46,90.42.61,13.39-2.46,16.18-9.21,17.3-11.05,1.12-1.84,3.91-6.14,3.91-2.46s.19,23.16-11.16,28.86c-49.16,24.71-106.11,12.06-114.97.61-8.54-11.03-16.19-28.86-7.26-34.39Z"/>
              <path class="cls-18" d="m331.69,196.81c6.52,15.24-15.88,11.61-25.62,26.18-15.71,23.5-52.44,25.23-75.59,29-22.43,3.66-32.81,1.73-57.49.08-14.61-.98-30.66-4.68-43.1-14.58-16.21-12.89-52.73-23.86-42.31-44.91,10.26-20.74,57.24-50.87,78.04-54.77,21.72-4.07,46.19-6.3,67.99-3.38,13.64,1.82,32.41,8.54,43.57,18.07,7.36,6.29,49.98,33.68,54.51,44.3Z"/>
            </g>
            <path class="cls-9" d="m180.08,242.45c6.84-18.27-2.96-37.7-2.78-56.31.11-10.86,3.48-21.68,9.58-30.67,5.11-7.54,12.45-13.97,21.31-16.06,13.9-3.27,28.59,5.12,36.42,17.06,7.84,11.94,10.06,26.68,10.72,40.94.66,14.27-.03,28.7,2.78,42.7.3,1.48.71,3.08,1.91,4,1.6,1.23,3.87.75,5.82.26,2.93-.74,6.02-1.39,8.94-.61,2.92.78,5.55,3.46,5.24,6.47-.32,3.2-3.53,5.18-6.38,6.67-6.97,3.63-13.94,7.26-21.03,10.68-7.23,3.48-14.73,6.78-22.72,7.58-10.19,1.02-20.28-2.09-30.27-4.36-12.32-2.79-24.98-4.35-36.88-8.6-11.9-4.24-23.32-11.66-28.99-22.96,1.34,2.66,11.3,5.16,14.06,6.13,5.2,1.83,10.54,3.25,15.96,4.25,3.55.65,10.4,2.87,13.5.57.94-.7,3.64-9.35,3.4-9.39"/>
            <path class="cls-3" d="m233.19,229.55c2.02-.41,4.13-.91,6.11-.39,4.68,1.23,5.68,6.85,5.8,11.36.02.94.03,1.96-.57,2.73-.42.55-1.09.88-1.74,1.19-10.33,4.88-21.99,7.34-33.58,7.09-6.83-.15-16.33-4.23-19.11-10.01-11.31-23.5,31.15-9.52,43.09-11.96Z"/>
          </g>
          <g>
            <g>
              <g>
                <path class="cls-2" d="m424.58,138.82s-13.45-20.92-2.41-41.09l11.05-20.17s11.61,24.28,6.63,38.16c-4.98,13.88-15.27,23.1-15.27,23.1Z"/>
                <path class="cls-4" d="m421.67,139.41s2.88-24.7,24.22-33.28l21.34-8.58s-6.44,26.13-19.09,33.7c-12.66,7.56-26.46,8.15-26.46,8.15Z"/>
              </g>
              <g>
                <polygon class="cls-24" points="419.86 125.9 417.77 126.9 415.7 127.33 413.77 128.21 411.4 127.83 409.59 129.08 408.03 130.73 405.44 130.35 403.37 131.1 402.91 134.39 400.2 134.11 397.93 134.61 396.15 135.82 394.37 137.05 392.63 138.32 391.26 140.04 390.41 142.34 388.49 143.38 387.63 145.62 386.12 147.12 383.36 147.26 381.78 148.7 381.76 151.79 379.89 152.91 376.86 152.81 375.24 154.18 375.3 157.38 373.3 158.35 372.09 160.32 370.22 161.49 368.09 162.28 366.43 163.7 364.51 164.74 362.3 165.26 360.8 167.01 358.51 167.29 356.42 167.91 355.12 170.27 352.96 170.77 351.03 171.78 348.44 171.08 346.59 172.27 344.89 173.97 342.52 173.69 340.38 174.09 338.46 175.16 336.08 174.73 334.33 176.43 332.47 177.77 330.02 177.02 328.47 179.53 326.36 179.99 324.32 180.73 321.76 179.58 319.89 180.89 318 182.11 315.85 182.43 313.23 181.27 311.41 182.7 309.9 184.96 307.31 184.08 305.91 186.48 303.5 186.2 301.62 187.28 299.62 188.07 298.12 189.87 295.52 189.51 294.26 191.65 291.32 190.93 290.64 193.84 288.73 194.82 287.27 196.41 285.13 197.15 283.45 198.45 280.76 198.86 280.47 201.48 280.07 203.8 277.84 204.86 276.53 206.6 274.98 208.32 274.6 210.53 275.78 213.04 275.28 215.04 272.94 216.99 275.01 219.16 274.56 221.3 273.54 223.66 273.94 225.86 275.55 227.65 277.11 229.32 277.78 231.34 277.92 233.75 278.88 235.75 280.65 237.15 282.39 238.51 283.87 240.06 285.04 241.97 287.71 242.12 288.06 245.2 290.7 245.18 292.33 246.62 294.98 246.19 295.75 249.41 298.49 248.48 300.23 249.82 302.45 249.79 303.96 252.26 306.54 250.57 308.2 253.13 310.36 253.29 312.52 253.27 314.66 253.46 316.83 252.22 318.94 253.48 321.08 253.68 323.1 251.62 325.42 254.1 327.55 253.69 329.47 251.97 331.8 253.05 333.71 251.61 335.98 252.04 337.7 250.02 339.81 249.73 341.65 248.48 344.05 249.17 346.14 248.74 348.19 248.16 349.64 245.9 351.75 245.52 354.31 246.25 356.13 245.07 357.99 244.01 360.01 243.31 362.36 243.29 363.54 240.85 365.3 239.65 367.16 238.65 368.96 237.54 371.09 236.99 373.18 236.35 374.28 234.13 376.17 233.17 378.39 232.66 380.02 231.31 382.02 230.47 382.46 227.54 384.54 226.81 387.41 227.05 389.17 225.85 389.96 223.46 391.17 221.63 392.47 219.92 395.06 219.67 395.82 217.37 398.85 217.54 399.49 215.13 400.25 212.89 402.1 211.77 403.46 210.16 405.38 209.07 407.66 208.29 408.09 205.84 408.75 203.62 410.75 202.57 413.26 201.88 414.64 200.25 414.5 197.48 416.95 196.66 418.22 194.95 419.53 193.26 418.59 190.12 420.41 188.8 420.63 186.49 423.07 185.47 423.09 183.08 423.78 181.09 425.73 179.73 427.09 178.04 427.88 176.07 428.98 174.24 429.6 172.21 430.14 170.16 430.17 167.93 430.21 165.74 432.71 164.34 433.07 162.23 432.75 159.95 433.82 158.05 433.62 155.85 433.73 153.74 433.61 151.62 435.88 149.81 436.18 147.7 436.61 145.56 436.64 143.4 436.71 141.2 434.15 139.42 433.93 137.41 434.8 134.83 433.21 133.19 432.17 131.21 430.73 129.37 428.74 128.13 426.71 126.95 424.27 126.99 422.04 126.97 419.86 125.9"/>
                <g class="cls-23">
                  <polygon class="cls-1" points="272.45 224.43 274.36 224.08 275.75 225.75 276.82 227.96 279.63 227.61 281.57 228.51 283.47 229.43 283.96 232.88 286.75 232.24 288.85 232.78 290.43 234.42 291.79 236.72 294.81 234.91 296.62 236.1 298.74 236.35 300.33 238.59 302.43 239.05 304.71 238.58 306.72 239.57 308.97 238.38 311.05 238.53 313.16 240.16 315.39 240.82 317.34 238.4 319.45 238.11 321.47 237.31 323.81 238.16 325.89 237.61 328.05 237.36 330.45 238 331.88 235 334.65 236.87 336.75 236.29 338.94 236.01 340.16 232.73 342.75 233.68 345.18 234.07 346.84 232.24 349.16 232.27 350.52 229.73 353.12 230.47 354.9 229.06 357.31 229.23 358.26 225.85 361.29 227.48 362.38 224.53 364.96 225.03 366.4 222.97 368.43 222.2 371.25 223.11 373.13 222 375.04 220.95 376.83 219.67 378.23 217.67 380.03 216.47 381.61 214.89 383.79 214.37 385.88 213.64 387.32 211.92 388.63 210.13 391.39 210.15 393.02 208.67 392.84 205.7 395.43 205.04 395.78 202.64 399.09 202.3 398.18 199.11 400.07 197.78 400.22 195.35 401.28 193.49 402.73 191.85 404.94 190.65 406.25 188.92 407.77 187.3 407.6 184.72 409.97 183.59 408.75 180.41 409.85 178.55 410.73 176.56 412.91 175.33 414.98 174.04 416.56 172.48 417.6 170.61 418.39 168.58 418.67 166.19 419.18 163.9 420.53 162.16 423.88 162.18 423.81 159.07 426.19 158.71 427.54 157.1 429.37 156.08 431.21 155.09 432.13 152.87 433.33 150.92 435.45 150.31 437.39 149.44 439.25 148.36 441.38 147.32 442.43 150.19 444.02 150.85 443.39 152.78 444.04 154.93 443.99 157.19 444.08 159.55 442.84 161.42 441.96 163.41 439.47 164.64 440.44 167.5 437.48 168.45 438.05 171.15 436.08 172.56 435.91 174.91 434.14 176.41 433.55 178.54 431.5 179.87 429.99 181.49 430.96 184.51 428.03 185.31 426.63 186.99 427.17 189.79 425.86 191.53 425.58 193.86 424.81 195.92 422.55 197.09 421.78 199.15 419.18 200.1 420.39 203.35 417.49 204.11 416.88 206.26 416.73 208.7 415.19 210.29 412.31 211.04 413.55 214.35 411.77 215.78 409.4 216.84 407.87 218.43 407.84 220.95 407.29 223.15 405.67 224.67 403.12 225.29 403.13 228.27 400.72 228.85 400.01 231.31 398.12 232.43 395.66 232.81 393.49 233.49 393.57 237.17 391.15 237.55 388.38 237.38 388.19 240.85 385.78 241.17 384.35 242.91 381.8 242.98 380.87 245.51 377.75 244.63 377.33 248.03 375.21 248.71 373.14 249.47 370.67 249.51 369.02 250.95 366.8 251.38 365.91 254.28 362.99 253.35 362.19 256.56 359.69 256.39 357.6 257 356.22 259.22 354.13 259.86 352.11 260.68 349.86 260.9 348.05 262.3 346.07 263.3 343.32 261.61 341.24 262.02 339.27 262.92 337.35 264.57 335.03 262.64 333 262.79 330.75 264.52 328.8 263.17 326.95 261.8 324.95 261.2 322.55 261.89 320.29 261.89 318.43 260.71 315.96 261.15 315.06 257.67 312.24 258.84 310.88 256.65 308.95 255.77 306.04 256.82 304.75 254.62 302.16 254.9 301.61 251.46 298.99 251.74 297.33 250.33 295.54 249.16 293.42 248.49 291.89 246.92 291.02 244.42 288.2 244.72 285.67 244.49 284.8 242.09 283.2 240.66 281.72 239.09 280.17 237.62 277.54 237.21 277.01 234.73 275.17 233.45 273.75 231.76 273.39 229.44 273.41 227.2 273.03 225.36 272.45 224.43"/>
                </g>
              </g>
            </g>
            <path class="cls-16" d="m388.9,227c-1.91-7.71-4.74-7.28-4.9-15.22-.11-5.79,1.93-11.58.95-17.29-.8-4.66-3.57-8.99-3.31-13.71.12-2.04,1.21-4.57.64-6.6-.6-2.15-1.02-1.56-2.45-2.96-1.9-1.86-3.74-3.13-4.96-5.52-1.04-2.05-1.15-4.44-2.91-6.12-2.27-2.15-6-1.7-8.78-.28-2.78,1.43-5.12,3.65-7.99,4.88-4.44,1.9-9.57,1.22-14.2,2.6-7.62,2.28-13.07,9.9-20.95,11.04-2.62.38-5.32,0-7.91.54s-5.23,2.46-5.27,5.11c-.11,6.58,14.87,5.17,18.87,8.11,1.46,1.07,2.78,2.71,2.54,4.5-.33,2.51-3.29,3.62-4.95,5.53-2.09,2.42-1.93,6.21-.34,8.99,1.59,2.78,4.32,4.7,7.12,6.25,4.8,2.66,10.07,4.47,15.49,5.34,5.9.94,14.07-.94,17.28,4.1,2.85,4.49-1.35,9.23,6.05,11.83,6.4,2.25,23.97,5.07,19.96-11.14Z"/>
            <g>
              <path class="cls-12" d="m372.96,201.64c.7-.8.85-4.05-1.72-7.66-2.57-3.61-6.71.22-6.71.22l6.45,14.32s1.28-6.08,1.99-6.88Z"/>
              <path class="cls-12" d="m368.42,173.25c-.04-2.89-1.65-2.47-3.13-3.47-1.48-1.01-7.13-1.27-7.13-1.27l-1.69,4.45,11.53,8.04s.51-1.97.67-3.68c.17-1.71-.2-1.17-.24-4.06Z"/>
              <path class="cls-12" d="m377.23,222.43c-.04-2.89-1.65-2.47-3.13-3.47-1.48-1.01-7.13-1.27-7.13-1.27l-1.69,4.45,11.53,8.04s.51-1.97.67-3.68-.2-1.17-.24-4.06Z"/>
              <path class="cls-12" d="m338.83,170.76c-.23-.89-3.72-.65-3.72-.65,0,0-3.86.78-5.25,2.09l5.26,4.26,5.82-1.45s.48-1.68.25-2.57c-.23-.89-2.13-.78-2.36-1.67Z"/>
              <path class="cls-12" d="m344.93,199.16c-.23-.89-3.72-.65-3.72-.65,0,0-3.86.78-5.25,2.09l5.26,4.26,5.82-1.45s.48-1.68.25-2.57c-.23-.89-2.13-.78-2.36-1.67Z"/>
            </g>
          </g>
          <path class="cls-22" d="m90.74,96.35c.25,10.62,3.65,21.75,8.14,31.29.82,1.75,3.41.22,2.59-1.51-4.24-9-7.5-19.76-7.73-29.78-.05-1.93-3.05-1.93-3,0h0Z"/>
          <path class="cls-22" d="m109.67,82.91c.16,16.9,7.16,32.18,15.47,46.56.97,1.67,3.56.16,2.59-1.51-8.04-13.92-14.91-28.68-15.06-45.05-.02-1.93-3.02-1.93-3,0h0Z"/>
          <path class="cls-22" d="m132.32,80.87c2.48,16.17,8.76,30.49,17.25,44.33,1.01,1.64,3.6.14,2.59-1.51-8.34-13.59-14.51-27.73-16.95-43.61-.29-1.9-3.18-1.09-2.89.8h0Z"/>
          <path class="cls-22" d="m158.58,80.26c.61,3.48,2.19,6.88,3.18,10.3,1,3.43,2.05,6.78,3.45,10.07,3.17,7.46,7.35,14.42,11.23,21.52.93,1.69,3.52.18,2.59-1.51-3.6-6.59-7.49-13.06-10.53-19.93-1.58-3.57-2.75-7.2-3.84-10.94-.99-3.4-2.58-6.83-3.18-10.3-.33-1.9-3.23-1.09-2.89.8h0Z"/>
          <path class="cls-22" d="m184.38,93.44c2.63,6.21,5.72,12.2,8.55,18.32.81,1.75,3.39.23,2.59-1.51-2.83-6.12-5.92-12.11-8.55-18.32-.75-1.77-3.34-.24-2.59,1.51h0Z"/>
          <path class="cls-22" d="m92.08,110.84c6.79-5.76,15.37-9.35,23.48-12.86,9.15-3.97,18.5-7.48,27.77-11.18,1.77-.71,1-3.61-.8-2.89-9.51,3.79-19.09,7.4-28.49,11.48-8.39,3.64-17.06,7.37-24.09,13.33-1.47,1.25.66,3.36,2.12,2.12h0Z"/>
          <path class="cls-22" d="m103.63,119.78c11.93-4.77,23.77-9.44,36.04-13.3,12.13-3.82,24.52-6.69,36.63-10.52,1.83-.58,1.05-3.48-.8-2.89-12.12,3.83-24.51,6.7-36.63,10.52-12.26,3.86-24.11,8.53-36.04,13.3-1.77.71-1,3.61.8,2.89h0Z"/>
          <path class="cls-22" d="m147.6,121.61c13.29-5.21,27.11-8.7,40.92-12.21,1.87-.48,1.08-3.37-.8-2.89-13.81,3.51-27.63,7.01-40.92,12.21-1.78.7-1,3.6.8,2.89h0Z"/>
        </g>
      </g>
    </g>
  </g>
</svg>