<?xml version="1.0" encoding="UTF-8"?>
<svg id="_レイヤー_2" data-name="レイヤー 2" xmlns="http://www.w3.org/2000/svg" xmlns:xlink="http://www.w3.org/1999/xlink" viewBox="0 0 140.33 101.92">
  <defs>
    <style>
      .cls-1 {
        fill: url(#radial-gradient);
      }

      .cls-1, .cls-2, .cls-3 {
        fill-rule: evenodd;
      }

      .cls-1, .cls-2, .cls-3, .cls-4, .cls-5, .cls-6, .cls-7 {
        stroke-width: 0px;
      }

      .cls-2 {
        fill: url(#radial-gradient-2);
      }

      .cls-3, .cls-5 {
        fill: #40220f;
      }

      .cls-4 {
        fill: #956134;
      }

      .cls-6 {
        fill: #fbd7b6;
      }

      .cls-7 {
        fill: #ea5504;
      }
    </style>
    <radialGradient id="radial-gradient" cx="41.26" cy="80.03" fx="41.26" fy="80.03" r="8.12" gradientUnits="userSpaceOnUse">
      <stop offset="0" stop-color="#f19ea8"/>
      <stop offset="1" stop-color="#f6c4bc"/>
    </radialGradient>
    <radialGradient id="radial-gradient-2" cx="101.94" fx="101.94" r="8.12" xlink:href="#radial-gradient"/>
  </defs>
  <g id="_レイヤー_3" data-name="レイヤー 3">
    <g>
      <path class="cls-4" d="m136.57,86.58c-.58-.39-1.13-.76-1.49-1.06-1.16-.99-2.4-2.3-3.91-3.91-1.27-1.35-2.36-2.98-3.41-4.56-1.6-2.39-2.98-4.45-4.75-5.25-1.81-.82-4.93-.95-6.64-.95-2.8,0-6.66.35-8.32,1.32-2.84,1.67-7.95,10.6-6.87,15.86.27,1.32,1.09,1.7,1.74,2.01.23.11.48.23.75.4l1.46.94c5.82,3.76,11.32,7.32,19.18,7.88.52.04.98.05,1.39.05.83,0,3.03,0,3.59-1.5.65-1.74-1.46-3.58-4.13-5.91-1.17-1.02-2.37-2.07-3.01-2.88-.33-.43-1.2-2-1.68-3.15.22.19.44.43.69.71.24.28.49.57.8.82,4.23,3.61,10.6,4.29,15.25,4.78l.94.1.29-.13c1.13-.52,1.41-1.26,1.46-1.78.12-1.5-1.54-2.61-3.3-3.79Z"/>
      <path class="cls-4" d="m14.18,99.32h0c-.83,0-3.03,0-3.59-1.5-.65-1.74,1.46-3.58,4.13-5.91,1.17-1.02,2.37-2.07,3.02-2.88.33-.43,1.19-2,1.67-3.15-.22.19-.44.43-.69.71-.24.28-.5.57-.79.82-4.23,3.6-10.6,4.28-15.25,4.78l-.93.1-.29-.13c-1.13-.52-1.41-1.26-1.46-1.78-.12-1.5,1.54-2.61,3.29-3.79.58-.39,1.13-.76,1.49-1.06,1.16-.99,2.4-2.3,3.91-3.91,1.26-1.35,2.36-2.98,3.41-4.55,1.6-2.39,2.98-4.45,4.75-5.26,1.81-.82,4.93-.95,6.64-.95,2.8,0,6.66.35,8.32,1.32,2.84,1.67,7.95,10.6,6.87,15.86-.27,1.32-1.09,1.7-1.74,2.01-.24.11-.48.23-.75.4l-1.46.94c-5.82,3.76-11.31,7.31-19.18,7.87-.52.04-.98.05-1.39.05Z"/>
      <path class="cls-6" d="m27.05,54.52c-2.78-3.46-6.74-5.53-10.59-5.53-2.93,0-5.65,1.18-7.86,3.41-1.55,1.56-3.58,4.01-4.41,6.8-1,3.35-.29,6.89,2,9.96,3.03,4.06,8.41,6.79,13.38,6.79,5.34,0,9.21-3.06,10.63-8.43,1-4.51-.15-9.25-3.15-13Z"/>
      <path class="cls-6" d="m125.12,45.96c-5.19-12.39-16.3-19.57-26.48-24.95-7.15-3.78-18.84-6.32-29.09-6.32-3.32,0-6.37.26-9.07.77-21.45,4.08-35.42,16.57-40.4,36.12-1.15,4.52-2.51,11.34-2.46,18.18l.02.21c6.42,29.65,41.29,31.95,51.82,31.95h0c6.21,0,12.44-.63,18.01-1.84,16.6-3.58,30.31-12.99,36.67-25.18,4.75-9.11,5.09-19.12.98-28.94Z"/>
      <path class="cls-6" d="m139.89,59.2c-.83-2.79-2.86-5.24-4.41-6.8-2.22-2.23-4.94-3.41-7.87-3.41-3.85,0-7.82,2.07-10.59,5.53-3,3.74-4.15,8.48-3.14,13.03,1.41,5.33,5.28,8.39,10.62,8.39,4.98,0,10.35-2.73,13.39-6.79,2.29-3.06,3-6.6,2-9.96Z"/>
      <path class="cls-4" d="m129.68,50.8c-1.11-10.85-3.31-23.5-15.34-36.27C105.64,5.3,91.01,0,74.2,0,50.12,0,21.93,11.78,16.94,37.64c-.69,3.59-1.38,7.69-1.27,11.02.01.33.01.79.02,1.34,0,.69.01,1.38.03,2.07.01.85.04,1.69.08,2.54.04.94.1,1.87.19,2.81.08.96.18,1.93.33,2.88.15.97.34,1.93.54,2.88.03.11.06.23.08.35.03.2.71.69.93.68.26-.01.53-.03.79-.1.33-.09.63-.29.93-.45.38-.2.75-.42,1.12-.64.67-.4,1.32-.82,1.95-1.29,1.14-.83,2.2-1.76,3.27-2.67.63-.54,1.27-1.07,1.93-1.58,2.25-1.73,4.57-3.52,7.03-4.96,1.02-.6,11.33-8.34,11.94-8.54-.49,1.52-1.54,2.99-2.64,4.53-1.25,1.75-2.53,3.55-3.01,5.54l-.43,1.78,1.79-.41c3.94-.9,13.11-8.13,15.83-10.51.22-.2.46-.48.75-.83.34-.41,1.2-1.45,1.63-1.62.39.55-.79,2.74-1.68,3.95-1.63,2.23-2.33,6.77-2.33,6.77,0,0,10.13-4.21,13.88-8.71.3-.36.62-.7.93-1.03.2-.22.5-.58.87-1.02.74-.88,2.76-3.32,3.86-4.12,0,.11-.01.24-.03.4-.07.79-.62,2.36-1.16,3.88-1.24,3.55-.84,7.49-.26,7.49.95,0,2.77-.71,4.72-2.36,3.52-2.99,6.72-7.37,9.39-11.26,1.26-1.84,2.27-2.07,3-2.07,1.14,0,2.67.64,4.96,2.08,1.44.9,3.08,1.89,4.83,2.93,3.76,2.25,15.8,12.2,18.09,15.35,1.37,1.89,4.82,6.22,4.94,6.46.48.93,1.08,2.09,2.29,2.09.33,0,.64-.1.94-.28,1.57-.99,1.76-11.79,1.72-12.23Z"/>
      <path class="cls-3" d="m57.07,65.27c0,2.1-1.7,3.8-3.8,3.8s-3.8-1.7-3.8-3.8,1.7-3.8,3.8-3.8,3.8,1.7,3.8,3.8Z"/>
      <path class="cls-3" d="m93.95,65.27c0,2.1-1.7,3.8-3.8,3.8s-3.8-1.7-3.8-3.8,1.7-3.8,3.8-3.8,3.8,1.7,3.8,3.8Z"/>
      <g id="Iv6yYT">
        <path class="cls-5" d="m66.32,75.78c-.19,0-.38-.06-.53-.19-.35-.29-.4-.81-.1-1.16l.39-.47c2.12-2.55,4.52-5.44,7.61-4.34,1.4.5,1.98,1.59,2.6,2.74.34.64.7,1.31,1.24,1.98.28.36.23.88-.13,1.16-.35.28-.88.23-1.16-.13-.63-.79-1.04-1.56-1.4-2.23-.59-1.11-.94-1.7-1.7-1.97-1.86-.67-3.5,1.09-5.79,3.84l-.39.47c-.16.19-.4.3-.63.3Z"/>
      </g>
      <path class="cls-7" d="m85.25,79.81c-.08-.17-.35-.55-.98-.55-.53,0-1.2.26-2.14.63-1.02.39-5.17,1.27-6.14,1.59-.85.28-1.8.59-3.02.8-1.36.23-2.61.35-3.8.35-3.22,0-6.2-.84-9.99-2.79-.55-.29-.97-.42-1.31-.42-.39,0-.74.17-.94.48-.37.57-.15,1.37.33,2.48l.92,1.38c3.16,4.66,5.89,8.69,11.17,9.37.46.06.92.09,1.36.09,5.92,0,9.63-5.15,12.6-9.29l.66-.91c1.3-1.79,1.61-2.56,1.29-3.19Z"/>
      <g id="XwkioF">
        <path class="cls-1" d="m33.23,82.43c4.55,10.83,19.32,4.28,15.65-4.72-.61-1.5-1.66-3-2.7-3.85-5.08-4.16-11.24-.75-12.72,4.09-.41,1.33-.56,3.12-.23,4.48"/>
      </g>
      <g id="XwkioF-2" data-name="XwkioF">
        <path class="cls-2" d="m93.91,82.43c4.55,10.83,19.32,4.28,15.65-4.72-.61-1.5-1.66-3-2.7-3.85-5.09-4.16-11.24-.75-12.72,4.09-.41,1.33-.56,3.12-.23,4.48"/>
      </g>
    </g>
  </g>
</svg>