<?xml version="1.0" encoding="UTF-8"?>
<svg id="_レイヤー_2" data-name="レイヤー 2" xmlns="http://www.w3.org/2000/svg" viewBox="0 0 162.91 102.89">
  <defs>
    <style>
      .cls-1 {
        fill: #0085cb;
      }

      .cls-1, .cls-2 {
        fill-rule: evenodd;
      }

      .cls-1, .cls-2, .cls-3, .cls-4, .cls-5, .cls-6 {
        stroke-width: 0px;
      }

      .cls-2 {
        fill: #e95599;
      }

      .cls-3 {
        fill: #e4007f;
      }

      .cls-4 {
        fill: #ea5504;
      }

      .cls-5 {
        fill: #f6ab00;
      }

      .cls-6 {
        fill: #f6c6bf;
      }
    </style>
  </defs>
  <g id="_レイヤー_3" data-name="レイヤー 3">
    <g>
      <path class="cls-6" d="m36.79,55.49c-2.78-3.46-6.74-5.53-10.59-5.53-2.93,0-5.65,1.18-7.87,3.41-1.55,1.56-3.57,4.01-4.41,6.8-1,3.36-.28,6.89,2,9.96,3.03,4.06,8.41,6.79,13.39,6.79,5.34,0,9.21-3.06,10.62-8.43,1.01-4.51-.15-9.25-3.15-13Z"/>
      <path class="cls-6" d="m134.87,46.93c-5.19-12.39-16.3-19.57-26.49-24.95-7.15-3.78-18.84-6.33-29.09-6.33-3.32,0-6.37.26-9.07.77-21.45,4.08-35.42,16.57-40.4,36.12-1.15,4.52-2.51,11.34-2.46,18.18l.02.21c6.42,29.65,41.29,31.95,51.82,31.95h0c6.21,0,12.44-.63,18.01-1.83,16.6-3.58,30.31-12.99,36.68-25.18,4.76-9.11,5.09-19.12.98-28.94Z"/>
      <path class="cls-6" d="m149.63,60.17c-.82-2.79-2.85-5.24-4.4-6.8-2.22-2.23-4.94-3.41-7.86-3.41-3.86,0-7.82,2.07-10.6,5.53-3,3.75-4.15,8.48-3.14,13.03,1.4,5.33,5.27,8.4,10.62,8.4,4.98,0,10.35-2.73,13.38-6.79,2.29-3.07,3-6.6,2-9.96Z"/>
      <path class="cls-1" d="m66.81,66.25c0,2.1-1.7,3.8-3.8,3.8s-3.8-1.7-3.8-3.8,1.7-3.8,3.8-3.8,3.8,1.7,3.8,3.8Z"/>
      <path class="cls-1" d="m103.7,66.25c0,2.1-1.71,3.8-3.81,3.8s-3.8-1.7-3.8-3.8,1.71-3.8,3.8-3.8,3.81,1.7,3.81,3.8Z"/>
      <path class="cls-5" d="m45.22,6.61c-6.43-3.03-13-.81-14.25-.34-.17.07-.3.12-.39.16-.15.07-.37.15-.64.26-2.54.98-10.25,3.96-15.11,12.45-1.65,2.88-3.77,4.83-6.29,5.79h0c-3.4,1.3-6.43.32-6.45.31l-2.07-.7,1.32,1.73c3.07,4,9.24,8.99,21.25,9.99,1.48.12,4.93-.03,8.52-1.39,4.85-1.84,8.39-5.3,10.24-10,1.1-2.79,2.72-4.61,4.81-5.4,3.95-1.5,8.41,1.06,8.45,1.09l1.54.9-.57-1.69c-2.2-6.52-5.68-10.95-10.35-13.15Z"/>
      <path class="cls-5" d="m117.69,6.61c6.43-3.03,13-.81,14.25-.34.17.07.3.12.39.16.15.07.37.15.65.26,2.53.98,10.25,3.96,15.1,12.45,1.65,2.88,3.77,4.83,6.29,5.79h0c3.41,1.3,6.43.32,6.46.31l2.07-.7-1.33,1.73c-3.06,4-9.23,8.99-21.25,9.99-1.47.12-4.93-.03-8.52-1.39-4.85-1.84-8.39-5.3-10.24-10-1.1-2.79-2.72-4.61-4.82-5.4-3.95-1.5-8.4,1.06-8.45,1.09l-1.53.9.57-1.69c2.2-6.52,5.68-10.95,10.35-13.15Z"/>
      <path class="cls-3" d="m43.38,17.4c.81.1,1.68.19,2.3.22,1.35.08,2.74.08,3.85-.84.91-.77,1.01-2.2.13-3.24-.73-.87-1.8-1.29-2.94-.87l-.02-.02c.61-1.05.39-2.17-.33-3.03-.86-1.02-2.29-1.22-3.22-.44-1.11.93-1.34,2.3-1.5,3.64-.07.62-.13,1.5-.18,2.31-.81-.1-1.68-.19-2.31-.23-1.34-.08-2.74-.09-3.84.84-.93.77-1.02,2.2-.15,3.24.73.87,1.8,1.29,2.94.87l.02.02c-.61,1.04-.39,2.17.32,3.03.86,1.02,2.29,1.22,3.22.44,1.11-.93,1.35-2.3,1.51-3.64.07-.62.13-1.5.18-2.31Z"/>
      <path class="cls-3" d="m123.5,16.61c-.82.03-1.69.06-2.32.05-1.34-.03-2.74-.13-3.77-1.14-.86-.84-.83-2.27.11-3.24.8-.81,1.9-1.15,3-.64l.02-.02c-.54-1.09-.23-2.19.56-2.99.94-.95,2.38-1.04,3.24-.19,1.03,1.01,1.16,2.4,1.22,3.75.02.62.02,1.5,0,2.31.81-.03,1.69-.06,2.31-.05,1.34.03,2.74.13,3.77,1.14.85.84.84,2.27-.11,3.24-.79.81-1.9,1.15-3,.64l-.02.02c.53,1.09.22,2.19-.56,2.99-.93.95-2.37,1.04-3.24.19-1.03-1.01-1.16-2.4-1.22-3.75-.02-.62-.02-1.5,0-2.32Z"/>
      <path class="cls-5" d="m139.88,44.26c-1.23-17.53-18.24-35.27-33.34-40.84-.09-.03-.22-.09-.41-.17-1.9-.81-7.68-3.25-15.45-3.25h-.16c-20.47.09-47.36,8.6-58,27.06-5.84,10.13-8.03,23.4-5.99,36.4l.04.24.13.21c.58.88,1.26,1.06,1.74,1.06h0c1.38,0,2.36-1.48,3.48-3.2.66-1,1.4-2.14,2.04-2.62,4.45-3.35,10.65-14.65,15.47-15.05.47-.04,6.22-.08,14.2-.12,1.07,0,2.05-7.51,3.18-7.51,1.37,0,2.92,7.49,4.37,7.48,2.44-.01,4.98-.02,7.56-.03,1.1,0,1.53-7.44,2.64-7.45,1.18,0,3.03,7.43,4.21,7.42,2.23,0,4.45-.01,6.62-.02,1.36,0,2.57-7.4,3.88-7.4,1.46,0,3.02,7.38,4.39,7.38,9.58-.02,16.75-.03,17.07-.01,3.79.22,14.01,15.47,17.12,20.24.16.25.33.55.51.86.79,1.37,1.46,2.56,2.6,2.56,1.65,0,1.87-2.29,1.96-3.39l.13-1.37c.41-4.1.76-7.65,0-18.47Z"/>
      <g>
        <path class="cls-2" d="m54.31,79.09c0,.51-.42.93-.94.93s-.94-.42-.94-.93.42-.94.94-.94.94.42.94.94Z"/>
        <path class="cls-2" d="m51.9,81.61c0,.52-.41.94-.94.94s-.94-.42-.94-.94.42-.93.94-.93.94.42.94.93Z"/>
        <path class="cls-2" d="m48.56,79.09c0,.51-.41.93-.94.93s-.93-.42-.93-.93.41-.94.93-.94.94.42.94.94Z"/>
        <path class="cls-2" d="m54.31,84.04c0,.52-.42.94-.94.94s-.94-.42-.94-.94.42-.93.94-.93.94.42.94.93Z"/>
        <path class="cls-2" d="m49.33,84.8c0,.52-.42.94-.94.94s-.94-.42-.94-.94.42-.94.94-.94.94.42.94.94Z"/>
      </g>
      <g>
        <path class="cls-2" d="m116.24,79.09c0,.51-.41.93-.93.93s-.94-.42-.94-.93.41-.94.94-.94.93.42.93.94Z"/>
        <path class="cls-2" d="m113.83,81.61c0,.52-.42.94-.94.94s-.94-.42-.94-.94.42-.93.94-.93.94.42.94.93Z"/>
        <path class="cls-2" d="m110.5,79.09c0,.51-.42.93-.94.93s-.94-.42-.94-.93.42-.94.94-.94.94.42.94.94Z"/>
        <path class="cls-2" d="m116.24,84.04c0,.52-.41.94-.93.94s-.94-.42-.94-.94.41-.93.94-.93.93.42.93.93Z"/>
        <path class="cls-2" d="m111.26,84.8c0,.52-.42.94-.93.94s-.94-.42-.94-.94.41-.94.94-.94.93.42.93.94Z"/>
      </g>
      <g id="Iv6yYT">
        <path class="cls-3" d="m76.42,75.9c-.19,0-.37-.06-.53-.19-.35-.29-.4-.81-.1-1.16l.38-.46c2.12-2.56,4.52-5.44,7.62-4.35,1.4.5,1.99,1.59,2.61,2.75.34.64.69,1.3,1.23,1.98.28.36.23.88-.13,1.16-.35.28-.88.23-1.16-.13-.63-.79-1.04-1.55-1.4-2.23-.59-1.11-.94-1.7-1.71-1.97-1.85-.65-3.5,1.09-5.79,3.85l-.38.47c-.16.19-.4.3-.63.3Z"/>
      </g>
      <path class="cls-4" d="m86.09,87.92c0,3.68-1.97,6.66-4.4,6.66s-4.39-2.98-4.39-6.66,1.97-6.66,4.39-6.66,4.4,2.98,4.4,6.66Z"/>
    </g>
  </g>
</svg>