<?xml version="1.0" encoding="UTF-8"?>
<svg id="_レイヤー_2" data-name="レイヤー 2" xmlns="http://www.w3.org/2000/svg" xmlns:xlink="http://www.w3.org/1999/xlink" viewBox="0 0 117.58 143.4">
  <defs>
    <style>
      .cls-1 {
        fill: url(#radial-gradient);
      }

      .cls-1, .cls-2, .cls-3, .cls-4, .cls-5 {
        fill-rule: evenodd;
      }

      .cls-1, .cls-3, .cls-4, .cls-5, .cls-6, .cls-7, .cls-8, .cls-9, .cls-10, .cls-11 {
        stroke-width: 0px;
      }

      .cls-2 {
        fill: none;
        stroke: #40220f;
        stroke-linecap: round;
        stroke-width: 1.11px;
      }

      .cls-3 {
        fill: url(#radial-gradient-2);
      }

      .cls-4 {
        fill: #40220f;
      }

      .cls-5 {
        fill: #fff;
      }

      .cls-6 {
        fill: #f8b62d;
      }

      .cls-7 {
        fill: #956134;
      }

      .cls-8 {
        fill: #fbd7b6;
      }

      .cls-9 {
        fill: #e7c6a9;
      }

      .cls-10 {
        fill: #e85298;
      }

      .cls-11 {
        fill: #ea5504;
      }
    </style>
    <radialGradient id="radial-gradient" cx="-18.87" cy="39.09" fx="-18.87" fy="39.09" r="5.48" gradientTransform="translate(66.19 14.99) rotate(11.19)" gradientUnits="userSpaceOnUse">
      <stop offset="0" stop-color="#f19ea8"/>
      <stop offset="1" stop-color="#f6c4bc"/>
    </radialGradient>
    <radialGradient id="radial-gradient-2" cx="22.1" cy="39.09" fx="22.1" fy="39.09" r="5.48" xlink:href="#radial-gradient"/>
  </defs>
  <g id="_レイヤー_3" data-name="レイヤー 3">
    <g>
      <g id="IT3zDh">
        <path class="cls-8" d="m64.88,129.46c.13.98-.61,2.5-1.24,2.86-1.52.9-2.45.59-3.77.12-4.55-1.63-10.4-1.55-15.49-2.11-4.56-.51-9.71-16.66-11.8-19.61-1.45-1.84,7.44-2.32,9.86-2.56,4.5-.43,4.1,12.11,5.58,12.35,5.68.93,8.01.12,9.7.38,4.04.34,7.06,7.78,7.17,8.57Z"/>
      </g>
      <path class="cls-6" d="m59.29,117.61s-.09.09-.12.14c-1.21,1.03-2.78,2.88-1.82,3.57,1.84,1.32,4.48,4.13,4.31,7.07-.13,2.22-2.91,2.31-3.25,3.9-.51,2.35,3.07,3.95,4.45,6.12,1.49,2.36,2.72,5.51,6.4,4.93.07.03.15.04.24.04,1.34,0,2.45-.49,3.29-1.43,1.54-1.72,1.79-4.54,1.74-6.55-.02-.64-.06-1.21-.11-1.62-.45-4.15-.98-7.5-2.14-10.38-1.22-3.04-3.95-6.48-7.28-7.29-2-.49-3.98.03-5.69,1.5Z"/>
      <g id="IT3zDh-2" data-name="IT3zDh">
        <path class="cls-8" d="m91.77,121.87c.33.93-.09,2.57-.63,3.06-1.31,1.18-2.28,1.07-3.67.88-4.78-.68-10.5.59-15.6,1.07-4.57.43-12.89-14.34-15.54-16.8-1.8-1.52,6.81-3.79,9.14-4.51,4.32-1.34,6.47,11.02,7.96,10.96,5.75-.25,7.87-1.51,9.58-1.6,4.02-.48,8.49,6.19,8.76,6.94Z"/>
      </g>
      <path class="cls-6" d="m83.89,111.4s-.07.11-.09.16c-.98,1.26-2.14,3.38-1.05,3.86,2.06.92,5.22,3.13,5.65,6.05.32,2.2-2.38,2.85-2.39,4.48-.02,2.4,3.81,3.24,5.59,5.08,1.94,2.01,3.79,4.84,7.26,3.53.08,0,.16,0,.24-.02,1.31-.28,2.29-.97,2.93-2.07,1.15-1.99.83-4.81.37-6.76-.15-.63-.3-1.17-.43-1.56-1.28-3.97-2.48-7.15-4.2-9.72-1.82-2.73-5.18-5.55-8.61-5.67-2.06-.07-3.88.84-5.27,2.63Z"/>
      <path class="cls-8" d="m116.93,69.79c1.41-.93.29-1.95-.86-2.08-.41-.05-1.11.12-1.72.13-.57,0-2.64.53-3.1.13.26-.2.75-.21,1.26-.35,1.22-.35,3.64-1.32,4.27-1.84.72-.59,1.15-2.22-.33-1.88h0s-2.72.54-3.14.54c-.02,0-2.03.58-2.66.42.59-.64,1.87-1.05,2.57-1.54.64-.44,1.25-.95,1.89-1.35.67-.41,2.17-1.77,1.13-2.07-1.14-.33-3.68.63-5.28,1.42-.47.23-1.69.97-2.22,1.16-1.19.44,3.01-2.45,3.7-3.43.29-.4.79-1.24.47-1.77-.26-.42-1.55-.29-2.18-.1-.92.29-1.81,1.02-2.65,1.66-.94.73-1.83,1.17-2.65,1.67-.39.24-.91.93-.78.19.1-.56.33-1.35.19-1.9-.07-.29-.73-1.78-.88-1.92-.24-.21-1.28-.2-1.99.22-.55.33-1.03,1.16-1.3,1.82-.59,1.46-.92,3.43-2.51,4.53-.6.42-1.32.52-1.78.84-.53.37-1.26,1.52-1.45,2.03-.37.95-.53,2.37-.23,3.14.12.3.55,1.08.76,1.35.17.22,1.17,1.04,1.32,1.16.7.55,3.56,1.1,3.84,1.14,1.11.16,2.31.09,3.42-.18.01,0,.02,0,.02,0,.77-.08,3.85-.77,3.89-.79,1.62-.19,3.73-.59,5.53-1.03,1.01-.26,2.46-.67,3.45-1.33Z"/>
      <path class="cls-8" d="m2.9,47.49c1.46,1.15,3.22,2.37,4.63,3.2.03.04,2.56,1.92,3.24,2.3,0,0,.01,0,.02.01.91.7,1.99,1.25,3.06,1.56.27.08,3.1.74,3.96.52.18-.05,1.43-.39,1.67-.52.31-.16,1.02-.69,1.25-.92.59-.58,1.02-1.95,1.07-2.96.03-.54-.17-1.9-.5-2.44-.29-.48-.9-.86-1.29-1.48-1.01-1.66-.51-3.59-.45-5.17.03-.71-.07-1.67-.44-2.19-.48-.67-1.43-1.11-1.73-1.01-.19.06-1.4,1.16-1.58,1.39-.35.45-.46,1.26-.6,1.82-.18.74-.38-.11-.63-.49-.54-.79-1.17-1.55-1.74-2.6-.51-.93-1.02-1.96-1.74-2.6-.49-.43-1.62-1.08-2.03-.8-.52.36-.38,1.32-.29,1.81.23,1.17,2.89,5.53,1.98,4.64-.4-.39-1.23-1.57-1.56-1.96-1.14-1.38-3.07-3.28-4.25-3.45-1.07-.15-.25,1.7.19,2.35.42.62.77,1.33,1.17,2,.45.74,1.44,1.62,1.73,2.45-.64-.12-2.24-1.46-2.26-1.47-.38-.17-2.6-1.78-2.65-1.77h0c-1.2-.92-1.49.74-1.07,1.57.37.74,2.18,2.6,3.16,3.42.4.34.85.54,1,.83-.58.18-2.25-1.15-2.77-1.38-.56-.26-1.13-.69-1.52-.81-1.11-.36-2.54.13-1.63,1.55.64,1.01,1.8,1.98,2.61,2.62Z"/>
      <g id="St2UwJ">
        <path class="cls-10" d="m36.47,83.05c.96-2.49,3.49-7.7,3.63-8.46-.93-.78-25.48-16.62-28.79-18.16-.28-.13,11.91-11.74,12.52-11.96.9-.32,7.99,9.02,20.61,16.78,3.49,2.14,7.1,4.37,7.6,4.52.9.29,2.15.45,3.48.63,1.38.19,2.94.4,4.38.78,2.47.67,4.81,1.29,7.14,1.21.81-.03,3.04-.39,5.4-.78,7.27-1.19,24.87-8.27,25.68-7.7.79.54,1.81,15.47,1.3,16.3-.33.54-25.09,3.89-25.84,4.82-.18.59-.3,7.73-.56,11.08-.37,4.72,1.02,20.11.88,20.16-1.85.61-18.63,3.64-21.68,4.22-10.05,1.91-19.25,1.09-20.63.73-.64-.17-.95-19.09,4.89-34.15Z"/>
      </g>
      <path class="cls-5" d="m56.73,79.8c-.21,1.4-1.52,2.37-2.92,2.15-1.4-.21-2.37-1.52-2.16-2.92.22-1.4,1.52-2.37,2.93-2.16,1.4.22,2.37,1.52,2.15,2.93Z"/>
      <path class="cls-5" d="m55.44,88.33c-.22,1.4-1.52,2.36-2.93,2.15-1.4-.21-2.37-1.52-2.15-2.92.21-1.4,1.52-2.37,2.93-2.16,1.4.22,2.36,1.52,2.15,2.93Z"/>
      <path class="cls-5" d="m54.14,96.86c-.21,1.41-1.52,2.37-2.92,2.15-1.4-.21-2.37-1.52-2.15-2.92.21-1.41,1.52-2.37,2.92-2.15,1.4.21,2.37,1.52,2.15,2.92Z"/>
      <g>
        <path class="cls-9" d="m65.68,65.49c-.91,4.59-5.37,7.58-9.96,6.67-4.59-.91-7.58-5.36-6.66-9.96.91-4.59,5.36-7.58,9.96-6.67,4.59.91,7.57,5.36,6.67,9.96Z"/>
        <g>
          <path class="cls-7" d="m102.36,66.5c-.33-.33-.65-.65-.85-.9-.64-.81-1.29-1.84-2.08-3.1-.66-1.06-1.17-2.28-1.66-3.46-.75-1.79-1.39-3.34-2.46-4.11-1.09-.78-3.15-1.27-4.27-1.5-1.85-.36-4.45-.64-5.68-.21-2.1.73-6.66,5.98-6.64,9.6,0,.91.5,1.27.89,1.56.14.11.29.21.44.36l.84.81c3.36,3.26,6.54,6.33,11.67,7.73.34.09.64.17.91.22.55.11,2.01.39,2.58-.53.66-1.07-.5-2.56-1.96-4.46-.64-.83-1.3-1.68-1.62-2.3-.16-.33-.53-1.48-.7-2.31.13.15.24.34.36.56.12.22.25.44.42.65,2.33,2.94,6.46,4.23,9.47,5.16l.6.19.2-.05c.82-.2,1.11-.65,1.2-.99.27-.97-.68-1.93-1.69-2.94Z"/>
          <path class="cls-7" d="m19.63,58.9h0c-.55-.11-2.01-.4-2.18-1.47-.2-1.24,1.44-2.18,3.51-3.37.91-.52,1.84-1.07,2.37-1.52.28-.23,1.05-1.16,1.52-1.87-.17.09-.35.23-.55.38-.2.15-.4.31-.63.44-3.28,1.84-7.58,1.45-10.73,1.17l-.63-.05-.17-.13c-.68-.49-.77-1.02-.73-1.37.12-1.01,1.36-1.52,2.68-2.08.44-.19.84-.35,1.13-.51.89-.5,1.89-1.21,3.1-2.07,1.01-.72,1.95-1.66,2.86-2.57,1.37-1.37,2.56-2.56,3.84-2.86,1.3-.31,3.39.02,4.52.24,1.85.37,4.37,1.1,5.34,1.97,1.66,1.48,3.87,8.07,2.47,11.41-.36.83-.94.98-1.42,1.1-.17.04-.35.09-.55.17l-1.09.43c-4.34,1.73-8.45,3.36-13.73,2.7-.35-.04-.65-.09-.93-.15Z"/>
          <path class="cls-8" d="m34.02,30.91c-1.39-2.66-3.74-4.55-6.29-5.05-1.94-.38-3.9.04-5.65,1.22-1.23.83-2.9,2.18-3.81,3.93-1.1,2.09-1.09,4.53.02,6.86,1.47,3.09,4.68,5.6,7.97,6.25,3.54.7,6.5-.82,8.14-4.19,1.26-2.86,1.12-6.14-.38-9.02Z"/>
          <path class="cls-8" d="m100.1,38.1c-1.82-8.89-8.23-15.1-14.27-20-4.24-3.45-11.65-6.66-18.44-8.01-2.2-.43-4.25-.66-6.11-.67-14.74-.11-25.63,6.33-31.49,18.63-1.35,2.84-3.15,7.18-4.01,11.71l-.02.14c.37,20.48,23.16,26.57,30.14,27.95h0c4.11.81,8.32,1.21,12.17,1.15,11.46-.19,21.77-4.63,27.58-11.87,4.34-5.41,5.88-11.99,4.44-19.04Z"/>
          <path class="cls-8" d="m108.15,48.8c-.19-1.96-1.2-3.84-2.03-5.08-1.18-1.77-2.82-2.9-4.76-3.29-2.55-.5-5.45.35-7.74,2.28-2.48,2.09-3.86,5.07-3.78,8.22.23,3.71,2.39,6.25,5.93,6.95,3.3.65,7.22-.45,9.75-2.74,1.92-1.73,2.85-3.98,2.63-6.33Z"/>
          <path class="cls-7" d="m102.49,41.9c.68-7.33.89-16-5.41-26.03-4.56-7.26-13.55-12.68-24.68-14.89-15.95-3.15-36.16.96-42.86,17.43-.93,2.28-1.92,4.91-2.29,7.13-.03.22-.09.52-.16.89-.09.46-.17.92-.25,1.38-.1.56-.2,1.12-.28,1.69-.1.63-.18,1.25-.25,1.88-.07.65-.13,1.3-.16,1.95-.03.66-.03,1.32-.01,1.98,0,.08,0,.16,0,.24,0,.14.38.55.52.58.18.02.36.05.54.04.23-.01.45-.11.67-.18.28-.09.56-.18.83-.28.49-.17.98-.37,1.46-.59.86-.41,1.69-.87,2.52-1.34.49-.27.98-.54,1.48-.79,1.72-.85,3.49-1.74,5.31-2.37.76-.26,8.6-4.04,9.02-4.09-.52.94-1.41,1.78-2.34,2.65-1.05.99-2.14,2.02-2.72,3.28l-.52,1.12,1.24-.03c2.72-.08,9.75-3.66,11.86-4.89.18-.1.37-.25.61-.45.27-.23.98-.81,1.29-.86.19.41-.88,1.71-1.63,2.39-1.37,1.26-2.43,4.18-2.43,4.18,0,0,7.26-1.46,10.33-3.95.24-.2.5-.38.75-.56.16-.12.41-.32.71-.56.61-.49,2.26-1.83,3.09-2.22-.02.07-.03.16-.07.26-.15.52-.72,1.48-1.27,2.42-1.29,2.19-1.54,4.85-1.16,4.92.63.12,1.93-.1,3.43-.95,2.72-1.52,5.42-4,7.69-6.23,1.08-1.05,1.78-1.08,2.26-.98.75.15,1.68.77,3.01,2.03.83.79,1.79,1.66,2.81,2.58,2.2,1.98,8.87,10.15,9.97,12.53.66,1.43,2.37,4.75,2.42,4.93.2.68.44,1.53,1.24,1.69.22.04.44.02.66-.06,1.17-.45,2.71-7.57,2.75-7.88Z"/>
          <path class="cls-4" d="m52.5,41.97c-.27,1.39-1.62,2.3-3.02,2.02-1.39-.27-2.29-1.62-2.02-3.02.27-1.4,1.62-2.29,3.01-2.02,1.39.27,2.3,1.62,2.02,3.02Z"/>
          <path class="cls-4" d="m76.92,46.8c-.28,1.39-1.62,2.3-3.02,2.02-1.39-.27-2.29-1.63-2.02-3.02.28-1.39,1.63-2.3,3.02-2.02,1.39.28,2.3,1.63,2.02,3.02Z"/>
          <g id="Iv6yYT">
            <path class="cls-2" d="m57.35,49.59c1.82-1.47,3.63-3.08,5.3-2.1,1.08.65.94,1.92,1.71,3.42"/>
          </g>
          <path class="cls-11" d="m69.25,55.29c-.03-.12-.16-.41-.58-.5-.34-.06-.83.02-1.5.14-.72.13-3.59.16-4.28.24-.6.08-1.27.16-2.11.13-.93-.02-1.77-.11-2.56-.26-2.13-.43-4-1.37-6.25-3.17-.33-.26-.59-.4-.81-.44-.27-.05-.51.02-.69.19-.32.33-.28.89-.1,1.69l.43,1.04c1.48,3.5,2.76,6.53,6.17,7.67.3.09.59.18.89.24,3.92.77,7.05-2.15,9.56-4.5l.55-.52c1.09-1.01,1.4-1.48,1.27-1.94Z"/>
          <g id="XwkioF">
            <path class="cls-1" d="m34.46,50.21c1.59,7.77,12.23,5.37,10.99-1.07-.21-1.08-.71-2.2-1.28-2.9-2.82-3.42-7.35-1.96-8.96,1.04-.45.83-.78,1.99-.74,2.93"/>
          </g>
          <g id="XwkioF-2" data-name="XwkioF">
            <path class="cls-3" d="m74.65,58.16c1.59,7.77,12.23,5.36,10.98-1.08-.21-1.08-.7-2.2-1.28-2.9-2.83-3.42-7.35-1.97-8.96,1.04-.45.83-.78,2-.74,2.94"/>
          </g>
        </g>
      </g>
    </g>
  </g>
</svg>