<?xml version="1.0" encoding="UTF-8"?>
<svg id="_レイヤー_2" data-name="レイヤー 2" xmlns="http://www.w3.org/2000/svg" xmlns:xlink="http://www.w3.org/1999/xlink" viewBox="0 0 138.82 123.98">
  <defs>
    <style>
      .cls-1 {
        fill: url(#radial-gradient);
      }

      .cls-1, .cls-2 {
        fill-rule: evenodd;
      }

      .cls-1, .cls-2, .cls-3, .cls-4, .cls-5, .cls-6, .cls-7, .cls-8, .cls-9, .cls-10, .cls-11, .cls-12 {
        stroke-width: 0px;
      }

      .cls-2 {
        fill: #40220f;
      }

      .cls-3 {
        fill: #f9be6a;
      }

      .cls-4 {
        fill: #2a85c8;
      }

      .cls-5 {
        fill: #0c436e;
      }

      .cls-6 {
        fill: #20a17b;
      }

      .cls-7 {
        fill: #e1e2e0;
      }

      .cls-8 {
        fill: #fbd7b6;
      }

      .cls-9 {
        fill: #7f4f21;
      }

      .cls-10 {
        fill: #e8383d;
      }

      .cls-11 {
        fill: #ea5504;
      }

      .cls-12 {
        fill: #006eb9;
      }
    </style>
    <radialGradient id="radial-gradient" cx="129.45" cy="87.19" fx="129.45" fy="87.19" r="5.17" gradientTransform="translate(-44.08 -26.82) rotate(-4.61)" gradientUnits="userSpaceOnUse">
      <stop offset="0" stop-color="#f19ea8"/>
      <stop offset="1" stop-color="#f6c4bc"/>
    </radialGradient>
  </defs>
  <g id="_レイヤー_3" data-name="レイヤー 3">
    <g>
      <rect class="cls-3" x="27.95" y="73.65" width="10.61" height="22.01" rx=".68" ry=".68"/>
      <rect class="cls-3" y="113.36" width="22.01" height="10.61" rx=".68" ry=".68"/>
      <rect class="cls-3" x="48.7" y="73.65" width="10.62" height="22.01" rx=".68" ry=".68"/>
      <path class="cls-10" d="m63.55,67.56l-24-18.55c-.3-.23-.73-.17-.96.12l-18.55,24c-.17.22-.19.52-.05.76.12.22.35.34.59.34.03,0,.06,0,.09,0l42.55-5.45c.27-.03.5-.23.57-.5.07-.27-.02-.55-.24-.72Z"/>
      <rect class="cls-6" x="21.45" y="94.52" width="42.88" height="15.96" rx=".68" ry=".68"/>
      <g>
        <path class="cls-8" d="m86.9,105.79c.16-.02.3-.04.44-.05.83-.11,1.55-.21,2.49.25,1.16.31,1.85,1.11,1.99,2.31.1.86-.1,1.73-.22,2.26-.03.13-.06.24-.07.3v.04c-.04.23-.04.56-.04.88v.27c.02,1.51.05,4.05-2.23,4.28-3.2.33-8.12-.02-12.68-.54l.21-9.9c3.64.31,7.24.24,10.13-.1Z"/>
        <g>
          <path class="cls-7" d="m60.91,106.56c-.11-.93-.06-1.24-.02-1.37.15-.72.54-1.28,1.13-1.61,1.45-.82,3.76-.17,5,.3,2.89,1.08,6.33,1.71,9.76,2l-.21,9.9c-4.91-.55-9.41-1.27-10.87-1.52-.19-.02-.36-.06-.52-.11-.27-.1-.54-.2-.8-.31-2.7-1.54-3.39-6.63-3.46-7.28Z"/>
          <path class="cls-7" d="m65.02,103.64s-2.74-1.82-4.79-3.88c-2.05-2.05-7.76-9.58-11.41-3.88-3.65,5.7,2.74,18.7,8.89,19.62,6.16.91,7.45-1.34,7.45-1.34l-.15-10.52Z"/>
        </g>
      </g>
      <path class="cls-5" d="m116.1,92.01s6.05,10.9,2.05,19.16c-5.13,10.61-23.72,7.07-32.16,5.47l2.74-14.14,27.37-10.49Z"/>
      <path class="cls-4" d="m115.09,59.43s10.48,23.22,12.3,45.58c0,0-11.75,2.4-24.63,2.09-11.29-.27-26.57-3.92-26.57-3.92,0,0,11.63-30.56,16.87-43.33l22.02-.42Z"/>
      <path class="cls-12" d="m83.38,91.17l12.36.12s-.34,9.31-6.13,8.67c-5.79-.66-6.23-8.78-6.23-8.78Z"/>
      <path class="cls-8" d="m51.36,70.63c1.64.61,3.58,1.2,5.08,1.55.04.03,2.85.99,3.57,1.14.01,0,.01,0,.02,0,1.01.37,2.14.56,3.19.52.26,0,3-.23,3.72-.67.15-.09,1.16-.76,1.35-.95.23-.23.72-.91.86-1.18.36-.69.35-2.04.11-2.97-.13-.49-.7-1.66-1.15-2.05-.4-.35-1.06-.51-1.58-.97-1.39-1.2-1.48-3.08-1.89-4.52-.18-.64-.54-1.48-1.02-1.83-.62-.47-1.6-.59-1.84-.41-.16.11-.93,1.44-1.03,1.71-.18.5-.05,1.27-.02,1.8.05.72-.37.01-.71-.26-.71-.55-1.5-1.05-2.31-1.83-.72-.7-1.48-1.47-2.31-1.84-.56-.25-1.76-.5-2.05-.13-.36.47.03,1.3.26,1.71.54.99,4.18,4.14,3.11,3.61-.48-.24-1.55-1.07-1.97-1.33-1.42-.91-3.7-2.07-4.8-1.88-1.01.17.26,1.6.85,2.06.55.44,1.07.98,1.62,1.46.61.53,1.76,1.05,2.25,1.71-.61.08-2.43-.67-2.45-.67-.39-.05-2.84-.86-2.88-.83h0c-1.35-.48-1.12,1.09-.51,1.72.55.55,2.71,1.71,3.81,2.17.46.19.93.24,1.15.46-.47.33-2.36-.38-2.89-.45-.57-.07-1.21-.3-1.59-.3-1.1,0-2.25.84-1.02,1.86.87.72,2.18,1.26,3.1,1.61Z"/>
      <path class="cls-8" d="m128.7,26.77c-3.26-7.65-9.24-11.76-14.66-14.76-3.81-2.11-17.21-2.43-22.39-2.01-1.67.14-3.2.43-4.54.86-10.62,3.46-17.04,11.96-18.56,24.58-.35,2.92-.69,7.3-.31,11.64l.02.13c4.76,18.56,22.49,18.6,27.82,18.17h0c3.14-.25,13.62-1.73,16.37-2.72,8.2-2.95,14.64-9.48,17.23-17.48,1.94-5.98,1.6-12.35-.98-18.42Z"/>
      <path class="cls-9" d="m118.66,52.14c4.05,3.05,6.37,5.21,7.7,4.64,1.33-.57.56-4.39.56-4.39,2.06,2.81,6.69,3.57,5.38,1.39-1.32-2.18,1.47-7.21,3.51-10.35,4.73-7.29,3.36-16.7-.35-24.23-6.84-13.86-25.29-23.47-48.47-17.31-21.17,5.62,22.17,29.56,22.17,29.56l2.67,12.54s4.64,6.49,6.83,8.14Z"/>
      <path class="cls-2" d="m84.08,42.94c.11,1.33-.89,2.5-2.22,2.61-1.33.11-2.5-.89-2.61-2.22-.11-1.34.89-2.5,2.22-2.61,1.33-.11,2.5.89,2.61,2.22Z"/>
      <g id="XwkioF">
        <path class="cls-1" d="m86.99,51.61c3.44,6.64,12.49,1.73,9.7-3.8-.47-.92-1.2-1.82-1.91-2.31-3.44-2.38-7.18.1-7.87,3.25-.19.86-.2,2.01.08,2.86"/>
      </g>
      <path class="cls-11" d="m76.67,60.2c-.51,0-.94-.4-.97-.92-.03-.54.38-.99.91-1.02,6.05-.33,7.56-4.17,7.62-4.34.19-.5.75-.76,1.24-.57.5.18.76.73.58,1.23-.08.21-1.95,5.21-9.34,5.62-.02,0-.04,0-.05,0Z"/>
      <path class="cls-8" d="m70.76,47.65s-5.1-1.48-5.4,1.12c-.31,2.6,6.25,5.16,6.25,5.16l-.85-6.28Z"/>
      <path class="cls-8" d="m113.02,36.27c-.67-1.73-2.08-3.19-3.15-4.09-1.52-1.3-3.31-1.91-5.17-1.76-2.45.2-4.86,1.72-6.45,4.06-1.72,2.53-2.2,5.6-1.33,8.43,1.17,3.32,3.78,5.06,7.18,4.78,3.15-.26,6.44-2.26,8.15-4.99,1.3-2.06,1.57-4.35.76-6.42Z"/>
      <path class="cls-9" d="m86.7,2.61c-14.75,3.67-17.37,25.08-17.86,29.58-.5,4.5,1.11,3.17,3.32.76,2.21-2.41,4.18-5.66,4.18-5.66,0,0-1.34,4.74-1.17,6.79.17,2.05,2.84-.91,5.06-3.15,2.23-2.24,4.91-7.26,4.91-7.26,0,0,10.35,7.69,17.09,14.7,3.65,3.8,4.15-2.25,4.71-6.79.63-5.03-2.91-33.29-20.24-28.97Z"/>
      <path class="cls-9" d="m86.98,1.9c-4.52,1.39-16.74,7.02-20.37,19.83-2.14,7.55-.61,11.55.06,13.56.67,2,4.52-7.75,4.98-8.47.46-.72,15.33-24.92,15.33-24.92Z"/>
      <polygon class="cls-4" points="94.43 66.24 66.84 63.95 67.07 75.59 93.98 81.97 94.43 66.24"/>
    </g>
  </g>
</svg>