<?xml version="1.0" encoding="UTF-8"?>
<svg id="_レイヤー_2" data-name="レイヤー 2" xmlns="http://www.w3.org/2000/svg" viewBox="0 0 136.59 105.19">
  <defs>
    <style>
      .cls-1 {
        fill: #0068b2;
      }

      .cls-1, .cls-2 {
        fill-rule: evenodd;
      }

      .cls-1, .cls-2, .cls-3, .cls-4, .cls-5, .cls-6 {
        stroke-width: 0px;
      }

      .cls-2 {
        fill: #ea709a;
      }

      .cls-3 {
        fill: #c6006f;
      }

      .cls-4 {
        fill: #ee762b;
      }

      .cls-5 {
        fill: #ea5504;
      }

      .cls-6 {
        fill: #f6c6bf;
      }
    </style>
  </defs>
  <g id="_レイヤー_3" data-name="レイヤー 3">
    <g>
      <path class="cls-6" d="m136.15,62.47c-.83-2.8-2.85-5.24-4.41-6.8-2.21-2.23-4.93-3.41-7.86-3.41-3.85,0-7.82,2.07-10.59,5.53-3.01,3.74-4.15,8.48-3.14,13.03,1.4,5.33,5.28,8.39,10.62,8.39,4.98,0,10.35-2.73,13.38-6.79,2.29-3.06,3-6.6,2-9.96Z"/>
      <path class="cls-6" d="m23.31,57.79c-2.78-3.46-6.74-5.53-10.6-5.53-2.93,0-5.65,1.18-7.86,3.41-1.55,1.56-3.58,4-4.41,6.8-1,3.35-.29,6.89,2,9.96,3.03,4.06,8.41,6.79,13.38,6.79,5.35,0,9.21-3.06,10.63-8.43,1-4.51-.15-9.25-3.15-13Z"/>
      <path class="cls-6" d="m121.38,49.23c-5.19-12.39-16.3-19.57-26.48-24.95-7.15-3.78-18.84-6.32-29.09-6.32-3.32,0-6.37.26-9.07.77-21.45,4.08-35.42,16.57-40.4,36.12-1.15,4.52-2.51,11.34-2.46,18.18l.02.21c6.42,29.64,41.29,31.95,51.82,31.95h0c6.21,0,12.44-.64,18.01-1.84,16.6-3.58,30.31-12.99,36.67-25.18,4.75-9.11,5.09-19.12.98-28.94Z"/>
      <path class="cls-4" d="m125.94,54.07c-1.11-10.85-3.3-23.5-15.34-36.27-.39-.42-.86-.79-1.28-1.19-.03-.44-.09-.95-.19-1.69-.09-.68-.19-1.38-.17-1.67.04-1.11.48-2.07.9-3,.56-1.25,1.14-2.54.81-4.14l-.13-.65s-2.41,1.62-3.3,2.71c-.96,1.17-1.81,2.17-2.86,2.3-.2.03-.31-.05-.5-.24-.3-.3-.45-.57-.3-1.38.18-.93.47-1.84,1.28-3,1.15-1.67,1.71-5.86,1.71-5.86l-.67.46c-1.06.73-2.06,1.61-3.13,2.56-2.13,1.88-6.78,3.86-8.24,4.46-7.07-2.71-15.25-4.2-24.05-4.2-24.08,0-52.27,11.78-57.26,37.65-.69,3.58-1.38,7.69-1.28,11.02.01.33.02.78.02,1.34,0,.69.01,1.38.03,2.07.01.85.04,1.69.08,2.54.04.94.11,1.87.19,2.8.08.96.18,1.93.33,2.88.14.97.33,1.93.54,2.88.03.11.06.23.08.35.03.2.71.69.93.68.26-.01.53-.03.79-.1.33-.08.63-.29.93-.45.38-.2.75-.42,1.12-.64.67-.4,1.32-.83,1.95-1.29,1.14-.84,2.2-1.76,3.27-2.67.63-.54,1.27-1.07,1.93-1.58,2.24-1.73,4.57-3.52,7.03-4.97,1.03-.6,11.33-8.34,11.94-8.53-.49,1.52-1.54,2.99-2.64,4.53-1.24,1.75-2.53,3.55-3.01,5.54l-.43,1.78,1.79-.41c3.94-.9,13.11-8.13,15.83-10.52.22-.19.46-.48.75-.83.33-.41,1.2-1.45,1.63-1.61.39.54-.79,2.74-1.68,3.95-1.64,2.23-2.33,6.77-2.33,6.77,0,0,10.13-4.21,13.87-8.71.3-.37.63-.7.93-1.03.2-.22.5-.58.87-1.02.74-.88,2.76-3.32,3.86-4.12,0,.11,0,.24-.02.4-.08.8-.62,2.37-1.16,3.88-1.24,3.55-.84,7.49-.26,7.49.96,0,2.77-.71,4.72-2.36,3.51-2.99,6.72-7.37,9.39-11.26,1.26-1.84,2.26-2.07,3-2.07,1.14,0,2.67.64,4.96,2.08,1.43.9,3.08,1.89,4.83,2.93,3.76,2.25,15.8,12.2,18.09,15.35,1.37,1.89,4.82,6.22,4.94,6.46.48.93,1.08,2.1,2.28,2.1.33,0,.65-.1.94-.28,1.57-.99,1.76-11.79,1.72-12.23Z"/>
      <path class="cls-1" d="m53.33,68.55c0,2.1-1.7,3.8-3.8,3.8s-3.8-1.7-3.8-3.8,1.7-3.81,3.8-3.81,3.8,1.7,3.8,3.81Z"/>
      <path class="cls-1" d="m90.21,68.55c0,2.1-1.71,3.8-3.81,3.8s-3.8-1.7-3.8-3.8,1.7-3.81,3.8-3.81,3.81,1.7,3.81,3.81Z"/>
      <g id="Iv6yYT">
        <path class="cls-3" d="m62.58,79.05c-.19,0-.38-.06-.53-.19-.35-.29-.4-.81-.1-1.16l.39-.47c2.12-2.55,4.52-5.44,7.61-4.34,1.4.5,1.98,1.59,2.6,2.74.34.64.7,1.31,1.24,1.98.28.36.23.88-.13,1.16-.35.28-.87.22-1.16-.13-.63-.79-1.04-1.56-1.4-2.24-.59-1.11-.94-1.7-1.7-1.97-1.88-.66-3.5,1.09-5.79,3.84l-.39.47c-.16.19-.4.3-.63.3Z"/>
      </g>
      <path class="cls-5" d="m81.51,83.09c-.08-.17-.35-.55-.98-.55-.53,0-1.21.26-2.14.63-1.02.4-5.17,1.27-6.15,1.59-.85.28-1.81.6-3.02.8-1.37.23-2.61.35-3.8.35-3.22,0-6.21-.84-9.99-2.79-.55-.29-.97-.42-1.31-.42-.4,0-.74.17-.94.48-.37.57-.15,1.37.33,2.48l.92,1.38c3.16,4.67,5.89,8.7,11.17,9.37.46.06.91.09,1.36.09,5.92,0,9.63-5.15,12.61-9.29l.65-.91c1.3-1.79,1.62-2.57,1.3-3.2Z"/>
      <g>
        <path class="cls-2" d="m42.81,81.25c0,.52-.42.94-.93.94s-.94-.42-.94-.94.42-.93.94-.93.93.42.93.93Z"/>
        <path class="cls-2" d="m40.4,83.78c0,.52-.42.94-.94.94s-.94-.42-.94-.94.42-.94.94-.94.94.42.94.94Z"/>
        <path class="cls-2" d="m37.07,81.25c0,.52-.42.94-.94.94s-.93-.42-.93-.94.42-.93.93-.93.94.42.94.93Z"/>
        <path class="cls-2" d="m42.81,86.21c0,.52-.42.94-.93.94s-.94-.42-.94-.94.42-.93.94-.93.93.42.93.93Z"/>
        <path class="cls-2" d="m37.83,86.97c0,.52-.42.94-.94.94s-.93-.42-.93-.94.42-.94.93-.94.94.42.94.94Z"/>
      </g>
      <g>
        <path class="cls-2" d="m100.09,81.25c0,.52-.42.94-.93.94s-.93-.42-.93-.94.41-.93.93-.93.93.42.93.93Z"/>
        <path class="cls-2" d="m97.68,83.78c0,.52-.42.94-.94.94s-.94-.42-.94-.94.42-.94.94-.94.94.42.94.94Z"/>
        <path class="cls-2" d="m94.35,81.25c0,.52-.42.94-.94.94s-.93-.42-.93-.94.42-.93.93-.93.94.42.94.93Z"/>
        <path class="cls-2" d="m100.09,86.21c0,.52-.42.94-.93.94s-.93-.42-.93-.94.41-.93.93-.93.93.42.93.93Z"/>
        <path class="cls-2" d="m95.11,86.97c0,.52-.42.94-.93.94s-.94-.42-.94-.94.42-.94.94-.94.93.42.93.94Z"/>
      </g>
    </g>
  </g>
</svg>