<?xml version="1.0" encoding="UTF-8"?>
<svg id="_レイヤー_2" data-name="レイヤー 2" xmlns="http://www.w3.org/2000/svg" xmlns:xlink="http://www.w3.org/1999/xlink" viewBox="0 0 117.59 143.91">
  <defs>
    <style>
      .cls-1 {
        fill: url(#radial-gradient);
      }

      .cls-1, .cls-2, .cls-3 {
        fill-rule: evenodd;
      }

      .cls-1, .cls-2, .cls-3, .cls-4, .cls-5, .cls-6, .cls-7, .cls-8, .cls-9, .cls-10, .cls-11 {
        stroke-width: 0px;
      }

      .cls-2 {
        fill: url(#radial-gradient-2);
      }

      .cls-3, .cls-4 {
        fill: #40220f;
      }

      .cls-5 {
        fill: #171c61;
      }

      .cls-6 {
        fill: #fbd7b6;
      }

      .cls-7 {
        fill: #7f4f21;
      }

      .cls-8 {
        fill: #e7c6a9;
      }

      .cls-9 {
        fill: #ea5504;
      }

      .cls-10 {
        fill: #00abeb;
      }

      .cls-11 {
        fill: #00a29a;
      }
    </style>
    <radialGradient id="radial-gradient" cx="-15.63" cy="-16.64" fx="-15.63" fy="-16.64" r="5.48" gradientTransform="translate(52.04 69.08) rotate(10.89)" gradientUnits="userSpaceOnUse">
      <stop offset="0" stop-color="#f19ea8"/>
      <stop offset="1" stop-color="#f6c4bc"/>
    </radialGradient>
    <radialGradient id="radial-gradient-2" cx="25.35" cy="-16.64" fx="25.35" fy="-16.64" r="5.48" xlink:href="#radial-gradient"/>
  </defs>
  <g id="_レイヤー_3" data-name="レイヤー 3">
    <g>
      <g id="IT3zDh">
        <path class="cls-6" d="m64.88,129.97c.13.98-.61,2.5-1.24,2.86-1.53.9-2.45.59-3.77.12-4.55-1.63-10.41-1.55-15.49-2.12-4.56-.51-9.7-16.66-11.8-19.6-1.46-1.85,7.44-2.33,9.86-2.56,4.5-.43,4.1,12.11,5.57,12.35,5.68.93,8.01.12,9.7.38,4.04.35,7.06,7.78,7.17,8.57Z"/>
      </g>
      <path class="cls-10" d="m59.29,118.12c-.05.04-.09.09-.12.14-1.22,1.03-2.78,2.88-1.82,3.57,1.83,1.32,4.48,4.13,4.3,7.07-.13,2.22-2.9,2.3-3.25,3.9-.51,2.35,3.07,3.95,4.45,6.12,1.5,2.36,2.73,5.51,6.4,4.93.07.03.15.04.24.04,1.34,0,2.45-.49,3.29-1.43,1.53-1.72,1.78-4.54,1.74-6.55-.02-.64-.06-1.21-.1-1.62-.45-4.15-.98-7.5-2.14-10.37-1.22-3.04-3.95-6.48-7.28-7.3-2.01-.49-3.97.03-5.69,1.5Z"/>
      <g id="IT3zDh-2" data-name="IT3zDh">
        <path class="cls-6" d="m91.77,122.38c.33.93-.09,2.57-.63,3.06-1.31,1.19-2.28,1.07-3.67.88-4.79-.67-10.51.59-15.6,1.07-4.56.43-12.89-14.34-15.53-16.8-1.8-1.52,6.81-3.79,9.13-4.51,4.32-1.34,6.47,11.02,7.97,10.96,5.75-.25,7.87-1.51,9.58-1.6,4.02-.48,8.49,6.19,8.76,6.94Z"/>
      </g>
      <path class="cls-10" d="m83.9,111.92s-.07.1-.09.16c-.98,1.26-2.14,3.38-1.05,3.87,2.07.92,5.22,3.13,5.65,6.05.33,2.2-2.38,2.85-2.39,4.48-.02,2.4,3.81,3.24,5.59,5.08,1.94,2.01,3.79,4.84,7.27,3.53.08,0,.16,0,.24-.01,1.31-.28,2.29-.97,2.93-2.07,1.15-1.99.82-4.81.37-6.76-.15-.63-.3-1.17-.43-1.56-1.28-3.97-2.49-7.15-4.2-9.72-1.82-2.73-5.18-5.54-8.61-5.67-2.06-.07-3.88.84-5.27,2.63Z"/>
      <path class="cls-6" d="m116.93,70.3c1.41-.93.3-1.96-.86-2.08-.41-.04-1.11.12-1.72.13-.57,0-2.64.53-3.09.13.26-.2.75-.21,1.25-.35,1.22-.35,3.64-1.32,4.28-1.84.72-.59,1.14-2.22-.33-1.88h0s-2.72.54-3.14.54c-.02,0-2.03.57-2.66.42.59-.64,1.87-1.05,2.57-1.54.64-.45,1.25-.95,1.89-1.35.67-.42,2.18-1.77,1.13-2.07-1.15-.33-3.68.63-5.28,1.42-.47.23-1.7.97-2.22,1.16-1.2.44,3.01-2.45,3.7-3.43.28-.4.79-1.24.47-1.77-.26-.42-1.56-.29-2.18-.1-.92.29-1.81,1.02-2.64,1.67-.95.73-1.84,1.17-2.65,1.67-.39.24-.91.93-.78.19.1-.56.33-1.35.19-1.9-.07-.29-.73-1.78-.88-1.92-.24-.21-1.28-.19-1.99.22-.55.32-1.03,1.16-1.3,1.82-.59,1.46-.92,3.43-2.52,4.53-.61.42-1.32.52-1.78.84-.53.37-1.26,1.52-1.45,2.03-.37.95-.53,2.37-.23,3.14.12.3.55,1.07.77,1.35.17.22,1.17,1.05,1.31,1.16.7.55,3.56,1.11,3.84,1.14,1.11.16,2.31.09,3.43-.18,0,0,.01,0,.02,0,.77-.08,3.85-.77,3.89-.79,1.62-.19,3.73-.59,5.53-1.03,1.01-.26,2.46-.67,3.45-1.33Z"/>
      <path class="cls-6" d="m2.9,48c1.46,1.14,3.22,2.37,4.63,3.2.02.04,2.56,1.92,3.23,2.31,0,0,.02,0,.02,0,.91.7,1.98,1.25,3.06,1.56.27.08,3.1.74,3.97.51.18-.05,1.43-.39,1.67-.52.31-.16,1.02-.69,1.25-.92.59-.58,1.02-1.95,1.07-2.96.03-.54-.17-1.89-.51-2.44-.29-.48-.9-.86-1.29-1.49-1.01-1.66-.51-3.59-.45-5.17.03-.71-.07-1.67-.44-2.19-.48-.67-1.43-1.11-1.73-1.01-.2.06-1.41,1.16-1.59,1.39-.35.45-.46,1.27-.6,1.82-.18.74-.38-.11-.63-.49-.54-.79-1.17-1.55-1.74-2.6-.51-.93-1.02-1.96-1.74-2.6-.48-.43-1.62-1.08-2.03-.8-.52.36-.38,1.32-.29,1.8.23,1.18,2.89,5.53,1.98,4.64-.4-.39-1.23-1.57-1.56-1.97-1.14-1.38-3.06-3.28-4.24-3.45-1.08-.15-.25,1.7.19,2.35.42.62.77,1.33,1.18,2,.45.74,1.44,1.63,1.72,2.46-.64-.12-2.24-1.46-2.26-1.47-.38-.17-2.6-1.78-2.65-1.77h0c-1.2-.92-1.48.74-1.07,1.57.37.74,2.18,2.6,3.16,3.42.4.34.85.54,1.01.83-.58.18-2.25-1.14-2.77-1.38-.56-.26-1.13-.69-1.52-.82-1.11-.36-2.54.13-1.63,1.55.65,1.01,1.8,1.98,2.62,2.62Z"/>
      <g id="_8hVvzp" data-name="8hVvzp">
        <path class="cls-5" d="m46.35,118.73c-4.08.45-11.36.64-14.4-.18l-.38-.1-.31-1.22v-.08c0-1.84.09-6.29.37-10.39.56-8.27,1.38-8.81,1.82-9.09.84-.54,15.8-2.54,22.96-3.33,9.76-1.08,10.42-.7,10.74-.52.93.52,1.86,3.34,4.2,11.55.88,3.07,1.7,5.97,2.18,7.06l.33.75-.81.18c-.55.12-13.44,2.97-16.54,3.31-.5.06-.73.05-.93-.03-.56-.21-.98-.91-1.69-2.12-.39-.66-1.18-2.03-1.57-2.18-.36.25-.85,1.83-1.12,2.69-.5,1.63-.85,2.64-1.5,3.02-.17.1-.7.41-3.37.7Z"/>
      </g>
      <g id="St2UwJ">
        <path class="cls-11" d="m32.72,98.98c-.85-.84-.05-4.16,3.75-15.42.85-2.52,3.49-7.7,3.63-8.46-.93-.78-25.48-16.62-28.79-18.16-.29-.13,11.91-11.74,12.52-11.96.9-.32,7.98,9.02,20.61,16.78,3.49,2.14,7.1,4.36,7.6,4.52.9.28,2.15.45,3.48.63,1.38.18,2.94.4,4.38.78,2.47.67,4.81,1.29,7.14,1.21.81-.03,3.04-.39,5.4-.78,7.27-1.19,24.87-8.27,25.69-7.71.79.54,1.81,15.47,1.29,16.31-.33.54-25.09,3.89-25.84,4.82-.18.59-.3,7.73-.56,11.08-.37,4.71-.78,10.05-1.25,12.9-.03.19-.15.34-.32.42-.1.09-.23.15-.37.16-1.24.05-16.52-2.74-19.57-3.31-12.56-2.31-16.66-3.18-18.04-3.54-.64-.17-.7-.23-.74-.28Z"/>
      </g>
      <path class="cls-8" d="m66.26,65.99c-.88,4.59-5.33,7.6-9.92,6.72-4.59-.88-7.6-5.33-6.72-9.92.88-4.59,5.33-7.61,9.92-6.72,4.6.88,7.61,5.33,6.72,9.93Z"/>
      <g>
        <path class="cls-6" d="m33.67,31.06c-1.4-2.65-3.76-4.53-6.32-5.02-1.94-.37-3.89.06-5.65,1.26-1.23.84-2.88,2.2-3.79,3.95-1.09,2.09-1.07,4.53.06,6.86,1.49,3.08,4.71,5.57,8.01,6.21,3.54.68,6.5-.85,8.13-4.23,1.24-2.86,1.08-6.15-.43-9.02Z"/>
        <path class="cls-6" d="m99.78,37.89c-1.86-8.88-8.31-15.05-14.38-19.92-4.26-3.42-11.69-6.6-18.48-7.9-2.2-.42-4.26-.64-6.11-.65-14.74-.03-25.59,6.47-31.39,18.8-1.34,2.85-3.11,7.2-3.95,11.74v.14c.46,20.47,23.29,26.45,30.27,27.79h0c4.12.79,8.33,1.16,12.18,1.08,11.46-.25,21.75-4.75,27.52-12.02,4.31-5.43,5.82-12.02,4.34-19.06Z"/>
        <path class="cls-6" d="m107.88,48.56c-.19-1.96-1.23-3.84-2.05-5.07-1.18-1.76-2.84-2.89-4.78-3.26-2.56-.49-5.45.37-7.73,2.32-2.47,2.1-3.84,5.09-3.74,8.24.25,3.71,2.43,6.23,5.97,6.92,3.3.63,7.22-.49,9.74-2.79,1.91-1.74,2.83-4,2.6-6.34Z"/>
        <path class="cls-7" d="m102.19,41.69c.65-7.34.8-16-5.55-26-4.59-7.24-13.61-12.61-24.75-14.76-15.97-3.07-36.16,1.14-42.77,17.66-.91,2.29-1.89,4.92-2.25,7.14-.03.22-.09.52-.16.89-.08.46-.17.92-.25,1.38-.1.56-.19,1.13-.27,1.69-.09.62-.16,1.25-.23,1.88-.07.65-.13,1.3-.15,1.96-.03.66-.02,1.32,0,1.98,0,.08,0,.16,0,.24,0,.14.38.55.53.57.17.03.35.05.54.04.23-.01.45-.11.67-.18.28-.08.55-.18.83-.28.49-.18.98-.38,1.46-.6.86-.41,1.68-.89,2.51-1.35.49-.28.98-.55,1.48-.8,1.71-.86,3.48-1.75,5.3-2.39.75-.26,8.57-4.08,9-4.14-.52.95-1.4,1.79-2.33,2.67-1.05,1-2.13,2.03-2.7,3.29l-.51,1.13,1.23-.04c2.72-.09,9.73-3.72,11.84-4.95.17-.1.36-.26.6-.46.27-.23.98-.81,1.29-.86.19.41-.87,1.71-1.61,2.4-1.37,1.27-2.41,4.19-2.41,4.19,0,0,7.26-1.5,10.31-4,.25-.2.51-.38.75-.56.16-.12.41-.32.71-.56.6-.49,2.26-1.85,3.08-2.24-.01.08-.03.16-.06.26-.15.52-.71,1.49-1.26,2.43-1.27,2.2-1.51,4.86-1.13,4.93.63.12,1.93-.11,3.43-.97,2.71-1.53,5.4-4.02,7.66-6.27,1.07-1.05,1.76-1.08,2.25-.99.76.15,1.69.77,3.02,2.01.83.78,1.8,1.65,2.83,2.56,2.21,1.98,8.92,10.1,10.03,12.49.67,1.43,2.4,4.74,2.45,4.91.2.68.45,1.52,1.25,1.68.22.04.44.02.66-.07,1.16-.45,2.67-7.59,2.7-7.89Z"/>
        <path class="cls-3" d="m52.2,42.02c-.27,1.39-1.61,2.3-3.01,2.03-1.39-.27-2.3-1.61-2.04-3.01.27-1.39,1.61-2.31,3.01-2.04,1.39.27,2.3,1.62,2.04,3.01Z"/>
        <path class="cls-3" d="m76.65,46.73c-.27,1.39-1.61,2.3-3.01,2.04-1.39-.27-2.31-1.61-2.04-3.01.27-1.39,1.62-2.3,3.01-2.04,1.39.27,2.3,1.61,2.04,3.01Z"/>
        <g id="Iv6yYT">
          <path class="cls-4" d="m64.12,51.46c-.2,0-.39-.11-.49-.3-.32-.61-.49-1.17-.65-1.66-.25-.81-.41-1.25-.88-1.52-1.15-.68-2.46.27-4.33,1.81l-.32.26c-.23.2-.59.16-.79-.08-.19-.24-.16-.59.08-.78l.31-.26c1.73-1.42,3.69-3.02,5.6-1.91.87.51,1.12,1.31,1.38,2.15.15.47.3.96.57,1.47.15.27.04.61-.23.75-.08.04-.17.06-.26.06Z"/>
        </g>
        <path class="cls-9" d="m69.03,55.25c-.03-.12-.16-.41-.58-.49-.34-.07-.83.02-1.5.14-.73.13-3.59.18-4.28.27-.6.08-1.27.16-2.1.15-.94-.02-1.77-.1-2.56-.26-2.13-.41-4.01-1.35-6.27-3.12-.33-.26-.59-.4-.81-.45-.26-.05-.51.02-.68.2-.32.33-.28.89-.1,1.68l.43,1.03c1.5,3.5,2.8,6.52,6.21,7.63.29.1.59.18.89.23,3.92.76,7.04-2.19,9.54-4.55l.55-.52c1.09-1.02,1.4-1.5,1.27-1.96Z"/>
        <g id="XwkioF">
          <path class="cls-1" d="m34.21,50.36c1.63,7.76,12.26,5.3,10.98-1.13-.22-1.08-.72-2.2-1.3-2.9-2.84-3.4-7.36-1.93-8.96,1.09-.44.83-.77,2-.72,2.94"/>
        </g>
        <g id="XwkioF-2" data-name="XwkioF">
          <path class="cls-2" d="m74.44,58.1c1.63,7.76,12.26,5.3,10.98-1.13-.22-1.08-.72-2.2-1.3-2.9-2.84-3.4-7.36-1.93-8.96,1.09-.44.83-.77,2-.73,2.94"/>
        </g>
      </g>
    </g>
  </g>
</svg>