<?xml version="1.0" encoding="UTF-8"?>
<svg id="_レイヤー_2" data-name="レイヤー 2" xmlns="http://www.w3.org/2000/svg" viewBox="0 0 132.56 104.75">
  <defs>
    <style>
      .cls-1 {
        fill: #45b368;
      }

      .cls-1, .cls-2, .cls-3, .cls-4, .cls-5, .cls-6, .cls-7 {
        stroke-width: 0px;
      }

      .cls-2 {
        fill: #5f1c23;
      }

      .cls-3 {
        fill: #532d06;
      }

      .cls-4 {
        fill: #d38745;
      }

      .cls-5 {
        fill: #fff;
      }

      .cls-6 {
        fill: #e8404f;
      }

      .cls-7 {
        fill: #e8b963;
      }
    </style>
  </defs>
  <g id="_レイヤー_3" data-name="レイヤー 3">
    <g>
      <g>
        <rect class="cls-4" y="2.98" width="111.47" height="74.64"/>
        <rect class="cls-5" x="4.51" y="6.01" width="102.44" height="68.6"/>
        <g>
          <path class="cls-3" d="m7.33,8.67c-.75,0-1.35-.61-1.35-1.35V1.35c0-.75.61-1.35,1.35-1.35s1.35.61,1.35,1.35v5.96c0,.75-.61,1.35-1.35,1.35Z"/>
          <path class="cls-3" d="m13.03,8.67c-.75,0-1.35-.61-1.35-1.35V1.35c0-.75.61-1.35,1.35-1.35s1.35.61,1.35,1.35v5.96c0,.75-.61,1.35-1.35,1.35Z"/>
          <path class="cls-3" d="m18.72,8.67c-.75,0-1.35-.61-1.35-1.35V1.35c0-.75.61-1.35,1.35-1.35s1.35.61,1.35,1.35v5.96c0,.75-.61,1.35-1.35,1.35Z"/>
          <path class="cls-3" d="m24.42,8.67c-.75,0-1.35-.61-1.35-1.35V1.35c0-.75.61-1.35,1.35-1.35s1.35.61,1.35,1.35v5.96c0,.75-.61,1.35-1.35,1.35Z"/>
          <path class="cls-3" d="m30.11,8.67c-.75,0-1.35-.61-1.35-1.35V1.35c0-.75.61-1.35,1.35-1.35s1.35.61,1.35,1.35v5.96c0,.75-.61,1.35-1.35,1.35Z"/>
          <path class="cls-3" d="m35.81,8.67c-.75,0-1.35-.61-1.35-1.35V1.35c0-.75.61-1.35,1.35-1.35s1.35.61,1.35,1.35v5.96c0,.75-.61,1.35-1.35,1.35Z"/>
          <path class="cls-3" d="m41.5,8.67c-.75,0-1.35-.61-1.35-1.35V1.35c0-.75.61-1.35,1.35-1.35s1.35.61,1.35,1.35v5.96c0,.75-.61,1.35-1.35,1.35Z"/>
          <path class="cls-3" d="m47.2,8.67c-.75,0-1.35-.61-1.35-1.35V1.35c0-.75.61-1.35,1.35-1.35s1.35.61,1.35,1.35v5.96c0,.75-.61,1.35-1.35,1.35Z"/>
          <path class="cls-3" d="m52.89,8.67c-.75,0-1.35-.61-1.35-1.35V1.35c0-.75.61-1.35,1.35-1.35s1.35.61,1.35,1.35v5.96c0,.75-.61,1.35-1.35,1.35Z"/>
          <path class="cls-3" d="m58.58,8.67c-.75,0-1.35-.61-1.35-1.35V1.35c0-.75.61-1.35,1.35-1.35s1.35.61,1.35,1.35v5.96c0,.75-.61,1.35-1.35,1.35Z"/>
          <path class="cls-3" d="m64.28,9c-.75,0-1.35-.61-1.35-1.35V1.69c0-.75.61-1.35,1.35-1.35s1.35.61,1.35,1.35v5.96c0,.75-.61,1.35-1.35,1.35Z"/>
          <path class="cls-3" d="m69.97,9c-.75,0-1.35-.61-1.35-1.35V1.69c0-.75.61-1.35,1.35-1.35s1.35.61,1.35,1.35v5.96c0,.75-.61,1.35-1.35,1.35Z"/>
          <path class="cls-3" d="m75.66,9c-.75,0-1.35-.61-1.35-1.35V1.69c0-.75.61-1.35,1.35-1.35s1.35.61,1.35,1.35v5.96c0,.75-.61,1.35-1.35,1.35Z"/>
          <path class="cls-3" d="m81.36,9c-.75,0-1.35-.61-1.35-1.35V1.69c0-.75.61-1.35,1.35-1.35s1.35.61,1.35,1.35v5.96c0,.75-.61,1.35-1.35,1.35Z"/>
          <path class="cls-3" d="m87.05,9c-.75,0-1.35-.61-1.35-1.35V1.69c0-.75.61-1.35,1.35-1.35s1.35.61,1.35,1.35v5.96c0,.75-.61,1.35-1.35,1.35Z"/>
          <path class="cls-3" d="m92.75,9c-.75,0-1.35-.61-1.35-1.35V1.69c0-.75.61-1.35,1.35-1.35s1.35.61,1.35,1.35v5.96c0,.75-.61,1.35-1.35,1.35Z"/>
          <path class="cls-3" d="m98.45,9c-.75,0-1.35-.61-1.35-1.35V1.69c0-.75.61-1.35,1.35-1.35s1.35.61,1.35,1.35v5.96c0,.75-.61,1.35-1.35,1.35Z"/>
          <path class="cls-3" d="m104.14,9c-.75,0-1.35-.61-1.35-1.35V1.69c0-.75.61-1.35,1.35-1.35s1.35.61,1.35,1.35v5.96c0,.75-.61,1.35-1.35,1.35Z"/>
        </g>
      </g>
      <g>
        <path class="cls-2" d="m94.53,64.48h0c-.55-.45-1.31-.63-2.05-.4-.74.22-1.27.79-1.48,1.48,0,.02-1.57,4.23-.24,8.57l7.53,24.63c.29.94,2.48,1.1,4.9.36,2.42-.74,4.15-2.1,3.86-3.04l-7.53-24.63c-1.33-4.35-5-6.97-5-6.97Z"/>
        <rect class="cls-7" x="94.08" y="72.26" width="9.16" height="23.98" transform="translate(-20.3 32.47) rotate(-16.97)"/>
        <rect class="cls-2" x="91.32" y="74.46" width="9.16" height="1.52" transform="translate(-17.81 31.35) rotate(-17.01)"/>
      </g>
      <g>
        <path class="cls-6" d="m85,69.61h0c-.31-.64-.92-1.13-1.68-1.24-.76-.11-1.48.17-1.96.7-.01.02-3.22,3.16-3.88,7.65l-3.72,25.49c-.14.97,1.77,2.05,4.27,2.42,2.5.37,4.65-.13,4.79-1.1l3.72-25.48c.66-4.5-1.53-8.45-1.53-8.45Z"/>
        <rect class="cls-7" x="68.28" y="84.68" width="23.98" height="9.15" transform="translate(-19.62 155.82) rotate(-81.71)"/>
        <polygon class="cls-6" points="86.06 81.32 76.99 80 77.22 78.49 86.28 79.81 86.06 81.32"/>
      </g>
      <g>
        <path class="cls-1" d="m123.51,41.98h0c-.5-.51-1.24-.77-1.99-.63-.76.15-1.34.66-1.62,1.31-.01.02-2.02,4.04-1.17,8.5l4.82,25.3c.18.97,2.35,1.36,4.83.89,2.48-.47,4.35-1.64,4.16-2.6l-4.83-25.3c-.85-4.47-4.21-7.47-4.21-7.47Z"/>
        <polygon class="cls-7" points="132.22 73.01 123.22 74.72 118.73 51.17 127.72 49.45 132.22 73.01"/>
        <rect class="cls-1" x="119.13" y="52.04" width="9.16" height="1.53" transform="translate(-7.71 24.13) rotate(-10.81)"/>
      </g>
      <g>
        <path class="cls-6" d="m37.99,53.07s.05-.01.07-.02c-.02-.03-.03-.05-.05-.08l-.02.09Z"/>
        <path class="cls-6" d="m74.26,40.92h.18c-.13-1.16-.08-2.5-.82-3.6-.27-.62.39-1.66-.31-2.26-.18-.09-.35.1-.47.02-.04-.19.3-.11.38-.22-.51-.21-.25-.85-.46-1.29-.17.02-.27-.09-.47.06.4-.79-.78-1-.61-1.72-.66.62-.57-.02-.85-.07-.02-.11.17-.24.33-.31-.32-.28-.46-.44-.56-.99-.22-.13-.63.13-.7-.17.36-.52-.35-.45-.36-.8-.35.4-.88.45-.89.11l.59-.47c-.9-.26-1.4-1.77-2.82-1.52l.15-.41c-1.15-.1-2.04-1.02-3.28-.42-.22-.29-.67-.5-.96-.52-.42.35-.56.3-.8.9-.13.04-.22-.31-.29-.45-.46-.09-1.05-.62-1.3.13l-.09-.36c-.32.45-.66,1.02-1.19.79,0,.34-.3.62.03.94-.1.13-.34-.53-.32-.11l-.09-.55c-.9.26-1.42.93-1.88,1.65-.59-.34-.55.55-1.11.62.06.43-.63.44-.16,1.11l-.29-.23c-.19.17-.42.41-.68.63-.03-.33-.07-.68-.13-1.06-.44-.38-1.16-.82-1.43-1.37-.96-.71-1.92-1.51-3.15-1.98-1.2-.46-2.65-.52-3.85.15.19.14.13.47.04.59l-.08-.15-.06.43c-.15.1-.25-.38-.12-.5-1.01.38-1.61.96-2.27,1.28.29.5-.3.26.04.75-.09-.07-.08-.11-.14-.21-.22.54-.2.56-1.03.31-1.78.95-2.53,2.6-3.59,3.94-.84,1.55-1.12,3.28-1.51,5.06.79.52.28.77.97,1.27l-.26-.08c.33.36-.15.31-.55.62.31.06.06.15.59.19.42.19-.77.1-.56.31-.18-.02.31.04.15.05.58.52-.28-.13-.85.39.12.83.64,1.59.31,2.29-.02-.04.4-.06.41,0-.86.08.24.23-.1.36-.18,0-.24-.06-.31-.09-.35.33.2.58-.18.9-.08-.03-.11-.04-.1-.07.62.27-.29.69.21.87-.35-.02-.24.15-.41.22,1.04.12-.3.59.4.79h-.18c.16.77.04,1.65.65,2.37.19.42-.6,1.11-.05,1.51.15.06.35-.06.46,0,0,.13-.31.07-.42.15.46.15.06.58.15.89.17,0,.23.07.46-.02-.58.52.45.72.07,1.21.81-.38.52.06.76.11-.02.08-.24.16-.41.19.18.22.27.35.15.74.15.11.61-.02.54.19-.53.33.11.36-.03.61.47-.24.95-.2.8.04l-.7.25c.65.31.27,1.46,1.43,1.6l-.35.26c.78.34.76,1.25,1.86,1.27-.06.29.03.62.17.76.45-.07.49.03,1.02-.29.09.03-.1.32-.18.46.15.29.04.99.68.6l-.21.3c.45-.13.99-.33,1.04.18.24-.24.55-.23.63-.67.13-.02-.22.59.06.29l-.33.43c.1.08.2.12.31.17-.19.3-.32.56-.32.56,1.7-.07,2.88.88,4.39,1.94.57-.02,1.32-.16,1.8.15,2.11.09,4.4,1.29,6.7.48-.15-.18-.06-.48.05-.59l.05.16.12-.4c.16-.07.17.43.03.51.91-.15,1.69-.47,2.59-.58-.09-.57.45-.16.31-.75.07.09.04.13.05.25.52-.46.53-.48,1.32.01,2.54-.38,4.59-2.01,6.59-3.57,1.9-1.83,2.97-4.23,3.86-6.55-.68-.72-.1-1.02-.67-1.7l.25.12c-.26-.48.22-.4.69-.74-.3-.1-.03-.2-.55-.29-.38-.28.81-.05.64-.35.17.04-.31-.08-.13-.09-.46-.75.25.2.94-.42.09-1.12-.28-2.26.18-3.22.01.07-.41.04-.4-.06.87,0-.19-.36.16-.5.18.03.22.12.3.17.39-.43-.11-.85.31-1.26.07.05.11.08.09.11-.58-.46.35-.95-.11-1.27.34.07.26-.18.43-.27-1.02-.29.35-.85-.35-1.23Zm-20.47-6.53s0,0,0,0h0s0,0,0,0Zm-.13.01s.06.03.09.05c-.03.06-.06.11-.09.17-.19-.08-.33-.19-.45-.29.13.04.27.07.45.07Zm.85-1.29s-.03.03-.04.05c-.01-.04-.03-.09-.04-.13.02.02.05.05.08.08Zm-1.45,1.2l.45.59c-.12.23-.25.42-.36.67l-.58,1.71.13-2.17c-.06-.14-.12-.24-.18-.38.22.1.48.16.7.26-.26-.27-.47-.24-.72-.28-.27-.62-.55-1.17-.84-1.64.71.24.11,1.27,1.4,1.23Zm-12.56,3.12s.06.05.12.08c0,0,0,.01,0,.01l-.12-.09Zm1.66-2.64s.02.02.03.02c0,0,0,0,0,.01-.01-.01,0-.02-.02-.03Zm9.37-1.89c-.1-.15-.19-.28-.29-.41.16.06.32.11.58.09.17.03-.11.2-.29.33Zm-2.23-2.69l.24-.44c.03.21-.09.53-.08.71.17-.28.32.04.53-.33-.04.2-.12.23-.17.36.1.16.59-.38.66-.15l-.15.16c.15.52.23.96.35,1.32-.91-.89-1.89-1.25-2.88-1.17.17-.11.35-.24.53-.44.02.12-.03.2-.05.31.44-.58.49.72,1.02-.33Zm-2.65.72s-.05.02-.07.03c0-.1,0-.17-.02-.31.04.07.07.17.1.27Zm-1.72.95s-.05.03-.07.05c0-.03.03-.06.03-.1.02.02.02.03.04.05Zm-1.7,1.62s-.07.07-.1.11c0-.06.02-.11,0-.16.03.03.06.03.09.05Zm-.31.33s0,0,.01,0c-.02.02-.04.05-.05.07-.03-.05-.03-.08.04-.08Zm-.14.21s-.02.03-.04.05c-.03-.05-.05-.11-.11-.19.07.04.09.1.15.14Zm-.22.29s0,0,0,0c0,0,0,0,0-.01t.01.01Zm-.34.23l.09.09s-.05.06-.07.09c-.13-.11-.24-.21-.02-.19Zm-.77,1.39s-.05.07-.07.11c-.03-.02-.04-.04-.08-.06,0-.08.07-.08.15-.05Zm-1.11.44c.33.13-.05.05.19.19l.42.09s.03.05.06.08c-.08.15-.16.3-.24.45-.16-.14-.31-.28-.43-.4.13-.01,0-.34,0-.42Zm13.1,23.95l-.13.49c-.1-.19-.09-.53-.16-.7-.1.32-.42.08-.49.51-.04-.2.03-.25.04-.4-.2-.11-.49.58-.68.41l.08-.21c-.4-.35-.82-.69-1.24-.92,1.54.18,3.05.24,4.51.15-.23.11-.46.24-.67.46-.04-.11,0-.2.02-.31-.45.61-.91-.62-1.26.53Zm3.61-.83s.08,0,.11-.01c-.02.09-.06.15-.06.28-.03-.08-.04-.17-.06-.27Zm2.74-.58c.06-.02.11-.04.17-.05-.05.04-.1.07-.14.12-.02-.03-.01-.04-.03-.06Zm3.11-1.23c.06-.03.13-.06.19-.09-.05.06-.1.11-.11.17-.03-.04-.05-.05-.07-.08Zm.58-.28s-.01,0-.01,0c.04-.02.07-.05.11-.07,0,.06-.02.1-.1.08Zm.3-.21s.05-.03.07-.05c0,.07-.01.14,0,.24-.05-.06-.05-.13-.08-.2Zm.44-.28s.01,0,.02-.01c0,.02,0,.02,0,.04,0-.01,0-.02-.01-.03Zm.53-.18l-.05-.13s.1-.06.14-.09c.09.15.15.28-.09.22Zm.2-.29s.01,0,.02-.01c0,.02,0,.02,0,.04,0-.01-.01-.02-.02-.03Zm1.46-1.24s.1-.08.15-.12c.02.03.02.05.06.09-.05.1-.12.08-.2.04Zm1.47-.44c-.3-.19.08-.06-.12-.26l-.42-.14s0-.09-.03-.13c.16-.18.32-.35.47-.54.11.19.22.37.3.54-.15,0-.14.43-.2.54Zm.2-1.45s0-.01.01-.02l.09.13s-.05-.07-.1-.11Z"/>
        <path class="cls-6" d="m71.22,31.49s-.05.03-.07.04c.03.03.06.06.1.1l-.03-.13Z"/>
      </g>
      <g>
        <path class="cls-1" d="m63.45,24.17c-.36-.22-.19-.53-.62-.74.13.12.33.66.62.74Z"/>
        <path class="cls-1" d="m61.15,24.65c.01.06-.02.09-.02.13.01-.04.01-.09.02-.13Z"/>
        <path class="cls-1" d="m65.2,19.33c.79-.23.29-.77.67-1.19-.12.08-.55.08-.63.03.14-.11-.53-.13.12-.24v.03c.61-.18.4-.33.38-.47l-.83.18c1.12-.69-.69-.68.28-1.23-.21,0-.25-.08-.43-.09l-1.86-.08.56-.88-.03.05.06-.45c-.26-.14-.4-.2-.75-.1l.07-.33c-.21-.04-.22,1.31-.36,1.36l-.1-.68c-.3.03-.78-.51-.95.19-.02-.1-.06-.29-.01-.33-.15.02-.76-.27-.38.6-.21-.57-.34.08-.36.38l-.16-.42c.11.58.18.71.1.94-.06-.03-.2-.3-.1-.23-.24-.13.11.43-.15.3l-.09-.28c-.15.05-.06.17.06.49.03.19-.28.04-.54-.27.13.22.27.53.14.48-.1-.11-.14-.21-.15-.26-.38-.08.06.62-.34.39-.1-.11-.16-.16-.2-.18.15-.13.29-.2.3-.17-.26-.32-.45-.26-.7-.79.07.34.37.98.14.95l-.11-.09-.02-.05c-.06,0-.05.05-.02.12-.08-.01-.14-.02-.18,0-.26-.22-.27.01-.34.06.34.3.23.32.57.5-.03-.01-.03-.05-.01-.1,0-.02,0-.03-.01-.05l.03.03s.06-.1.11-.16c.12.2.23.37-.02.26l.48.56c-.53-.34-.92-.4-1.25-.62.04.29-.11.51.25.93,0,.04,0,.08-.08.08-.05-.03-.08-.07-.09-.1-.05-.01-.03,0-.06.01,0-.03-.02-.05-.07-.1.02.04.02.07.02.1-.02.02-.02.04.01.09,0,.13,0,.27.32.48,0,0,0,0,0,.01,0,0-.01,0-.02,0-.2-.19-.44-.28-.42-.21.04-.04.16.05.28.17-.18-.09-.27-.26-.28-.07l-.14-.12c-.78-.03.14.66.19.98-.14-.08-.28-.17-.37-.18.23.34-.44-.03-.27.29.21.08.27.1.33.16-.05.03-.1.08-.13.12h0c-.24,0-.17.15-.08.31,0,.19.03.4-.06.57-.09-.02-.17-.02-.26-.04.13.05.09.1.13.19-.07.06-.16.11-.31.15-.2.1.17.2.44.34l-.48-.07.53.25s.06.06.05.08c-.16-.05-.31-.09-.43-.22-.02.07-.1.11.11.17-.1,0-.01.07.07.14-.32.07-.77.13-.31.36h.33c-.07.09.16.31-.21.26.06.02.34.06.16.08l-.25-.02.42.26c-.19.17-1.01-.08-1.07.2.09.11.73.3.9.26,0,0,.04-.02.05-.03.03.06.08.14.08.19-.1-.01-.16,0-.12-.03-.18.11.17.14.42.18l.37-.12.1.57.15.1s.03.02.04.05c.01.13,0,.16,0,.22l-.14-.12.06.35v.02c-.06,1.04.27-.13.37.48l-.04.06c.1.36.29-.38.46-.3,0,0,0,.09,0,.16.12-.53.32-.73.47-.89-.01.41-.06.22.01.63.07-.06-.08-.66.05-.79.07.22.19.41.27.84l-.15.04c.15.56.19-.04.28.05l.03.25c.23-.13.11-.75.35-.76l-.07-.18c-.03-.64.19.32.19-.16l.21.61c.05-.16.11-.69.2-.84.09.47-.02.76-.05,1.07.07-.02.18-.14.2-.33,0,.03-.02.05-.05.02-.05-.51-.02-.78.13-.83.46,1.16.52.1,1.08.88.08-.54.69-.2,1-.52-.72-.66.08-.09-.57-.84.02-.1.05-.11.1-.07h0s0,0,0,0l.59.25c.25.16.08.22.24.38.21-.1.36.24.65.32-.27-.23-.3-.41-.11-.41l-.45-.19c-.18-.56.79.37.61-.22l.17.28c-.04-.24.41-.49-.18-1.06.11.04.35.16.38.26.32-.29-.31-1.11.22-1.15l.21.12c-.03-.09-.37-.29-.11-.27.09.04.21.12.24.09-.06-.07-.32-.32-.16-.35l.22.16c.43-.25-.47-.73-.56-1.01.7.17.98-.06,1.11-.19l.1.02c.16-.43-.49-.8-.77-1.14Zm-6.77-2.29c0-.08.07-.03.14.02-.01.02-.02.05-.03.1l-.12-.13Zm2.67,4.42s-.02-.02-.03-.03c-.05-.08-.1-.17-.15-.28.04.04.08.08.11.12,0,0,0-.01.01-.02l.04.04s-.04.06.03.18Zm-.16-.31s-.03-.03-.05-.04c0,0,0-.01-.01-.02l.05.06h0Zm.57-1.48s.01.02.01.02c0,0,.01,0,.02,0l.09.21v-.03s.08.1.14.17c-.02.01-.06.02-.06.03,0-.02-.01-.04-.04-.07-.08-.04-.13-.06-.18-.08-.01-.11-.08-.28.01-.26Zm.18.05c.08.02.14.03.19.05.09.05.18.11.23.15-.03,0-.07.02-.11.03l-.12-.08s.04.06.07.09c-.06.01-.08.04-.13.05-.03-.04-.05-.08-.17-.16l.04-.14Zm-.33-.34s0-.01,0-.02c.03.01.04.02.14.03h-.14s0,0,0-.01Zm.18-.13h0,0Zm-.17.08s.01,0,.02,0c0,0,0,0-.02,0Zm.24,1.44c-.34-.45-.33-.38-.49-.49-.06-.17-.12-.33-.07-.4l.05.03c.82.76.05.28.5.86Zm-.42-.89h-.09s.02-.05.06-.04c.02.02.02.02.03.04Zm-.88,1.82s.04.03.07.05c-.03-.01-.05-.02-.07-.03,0,0,0,0,0-.01Zm.15-.1s.01,0,.02,0c-.01,0-.01,0-.02,0,0,0,0,0,0-.02.01.02.03.03.04.06,0,.01-.02.02-.03.03-.01-.02-.02-.05-.03-.06Zm-.11-.96s.07.04.09.05c0,.02.01.04.02.06-.04-.04-.07-.07-.11-.11Zm.07,0l-.11-.04c-.1-.12-.21-.25-.28-.31.06.06.08.06.13.1h-.03s.05.02.08.03c.07.05.16.13.2.15.01.03,0,.03.02.08Zm1.38-.4s-.05-.09-.07-.13c.05.03.1.05.15.06.04.04.07.09.07.11-.04,0-.1-.03-.15-.05Zm-3.21-1.56s-.01,0-.01,0c-.06-.05-.1-.1-.12-.15.05.05.07.09.13.15Zm-.64,1.27s-.02,0-.03,0v-.05s.03.05.03.05Zm.39,4.83l.07-.07s-.05.05-.07.07Z"/>
        <path class="cls-1" d="m57.89,24l.08-.14s-.08-.07-.21-.09l-.3.09s.05,0,.06,0l.75.61-.04-.26-.34-.22Z"/>
        <path class="cls-1" d="m58.81,17.5s.01.03,0,.04l.1.05-.09-.11v.02Z"/>
        <path class="cls-1" d="m61.03,21.26v.02c.06.08.05.04,0-.02Z"/>
        <path class="cls-1" d="m56.79,22.92l.51.04c-.08-.06-.65-.15-.51-.04Z"/>
        <path class="cls-1" d="m60.69,25.02c-.08-.02-.19-.19-.21-.12.09.24.22.38.21.12Z"/>
        <polygon class="cls-1" points="65.5 17.28 65.49 17.34 65.67 17.36 65.5 17.28"/>
      </g>
      <g>
        <path class="cls-2" d="m52.52,35.55c.14,0,.45,0,.39-.02l-.54-.02.14.03Z"/>
        <path class="cls-2" d="m53.5,35.39c-.26-.03-.71-.06-1.2-.04l.91.06c.06.02-.17.04-.37.04.14,0-.12.03.22.05.41-.03.43-.07.09-.11h.35Z"/>
        <path class="cls-2" d="m54.31,33.09l-.06.02s.05-.01.06-.02Z"/>
        <path class="cls-2" d="m54.57,31.66s.07.01.11.01c-.03-.01-.07-.02-.11-.01Z"/>
        <path class="cls-2" d="m55.15,31.4l-.03.02s.08-.01.03-.02Z"/>
        <path class="cls-2" d="m54.31,33.09l.17-.04c-.17,0-.13.02-.17.04Z"/>
        <polygon class="cls-2" points="52.21 35.08 52.35 35.1 52.3 35.08 52.21 35.08"/>
        <polygon class="cls-2" points="54.75 33.71 54.75 33.72 54.97 33.73 54.75 33.71"/>
        <path class="cls-2" d="m54.84,34.19s-.43,0-.63-.01c.19,0,.28.01.31.02h.32Z"/>
        <path class="cls-2" d="m54.05,34.96h.06s-.06,0-.06,0Z"/>
        <path class="cls-2" d="m54.84,33.36h.16s-.16,0-.16,0Z"/>
        <path class="cls-2" d="m51.06,19.99h.08s-.08,0-.08,0Z"/>
        <polygon class="cls-2" points="53.3 19.43 53.33 19.44 53.58 19.44 53.3 19.43"/>
        <path class="cls-2" d="m55.71,30.94h0c.05.01.04,0,0,0Z"/>
        <path class="cls-2" d="m55.23,26.87c-.4.06-.52-.06-.97.03.18-.01.71.04.97-.03Z"/>
        <path class="cls-2" d="m52.27,35.07s0-.01,0-.02c-.01.01-.01.02,0,.02Z"/>
        <polygon class="cls-2" points="54.27 26.9 54.26 26.9 54.22 26.91 54.27 26.9"/>
        <path class="cls-2" d="m55.41,29.92l-.2.02.2-.02Z"/>
        <path class="cls-2" d="m54.79,30.7l.06-.02s-.06.01-.06.02Z"/>
        <path class="cls-2" d="m54.75,29.54s.1-.02.03-.03h-.06c.06,0,.09.01.02.03Z"/>
        <polygon class="cls-2" points="54.74 29.13 54.65 29.14 54.67 29.16 54.74 29.13"/>
        <path class="cls-2" d="m51.29,21.26l.41-.02c-.32.01-.44-.05-.41.02Z"/>
        <path class="cls-2" d="m52.47,35.08c-.11,0-.17,0-.19-.01h.02s.17.01.17.01Z"/>
        <path class="cls-2" d="m51.18,29.66l.06-.07s-.06.04-.06.07Z"/>
        <path class="cls-2" d="m51.42,24.23h-.05s0,0,.05,0Z"/>
        <path class="cls-2" d="m51.17,29.4c.16-.02.25-.03.31-.05h-.12s-.19.05-.19.05Z"/>
        <path class="cls-2" d="m50.62,20.81c-.01.06.58.02.93.03.17.07-.44.04-.74.07.16.05.7.08.68.11-.1,0-.13.01-.26,0,.47.04.03.15.62.2h-.15s.82,0,.82,0c.01.03.38.05-.01.06.01-.02-.15-.02-.27-.02l.17.03c-.56.03-.19-.04-.61-.03.18.05.65.11.49.16-.55.02-.19-.1-.67-.03l.21-.07c-.86.06.06-.04-.86.02-.16.09.28.1.12.19h.75c.55.12-1.37.12-.64.2.37.02,1.06.02.69.09h-.62c-.06.08.89.02.48.12-.24-.01-.21-.06-.28-.05-.49.07.35.03.35.08l-.55.02c.09.09.49.19.59.29-.16,0-.34-.02-.5.01.28.12-.06.27-.38.41l.47.03s-.21.03-.31.02c-.18.05.3,0,.49.02.03.03-.27.04-.41.03.4.08.87.22.36.33l-.14-.02c-.19.08.97.06.53.13h-.08c-.2.15.23.3-.48.44.68,0-.3.16.65.14-.47.1-.64.08-.95.21-.04.03.59.03.69.07h-.49s.52.05.52.05l-.59.05.13.03s.22-.04.37-.04c.23.05-.34.15-.6.16l.42.13c-.2,0-.27-.02-.4-.03.51.06-.52.03-.06.08.11-.01.3,0,.4,0-.3.04-.3.12-.17.17h-.34c-.08.11.17.21.17.33.16-.05.75-.06.81-.02l-.52.03c.33.01.2-.04.6-.01-.06.05-.6.05-.77.03l.18.05h-.44c.33.01-.52.11.04.12h-.16c0,.12.18.17.21.27.45-.02.35.03.72.04-.14.08-.49.17-.45.25.23.05.38,0,.65.02-.41.02-.37.1-.67.07.07.1.09.13.43.24.17-.02.24-.04.38-.03.07.02-.17.06-.37.06h-.04c.62.12-1.19.37-.33.45h-.04s.45.1.45.1c-.07.06-.31-.02-.57.03.69.1-.09.2.37.29-1.21.13.1.28-.68.42l.29-.02c.28.02-.16.04-.23.06.22-.01.26-.04.41-.03.35.23-.4.51-.65.76-.07.09,1.48,0,.81.13h-.53c.64.15,0,.36.54.51-.12,0-.28,0-.28-.02-.39.05-.01.14.3.13-.04.03-.29.02-.45.04-.23.05.5.08.11.11-.06,0-.13,0-.16-.01.19.02-.04.12.4.08-.21.08.2.12-.06.18.5.02-.23.12.47.11-.73.02-.58.14-.24.17-.22,0-.23.04-.53.04.01.05.15.09.52.06-.87.12.71.15-.41.24.4.13.67.25.84.37-.73.02-.08-.14-.84-.1.3.11.93.16.76.29-.1.03-.32,0-.44-.02.3.11-.06.24.34.33-.07,0-.14,0-.2-.02.02.02-.11.05.22.04l-.09-.02c.48-.05,1,.05,1.26.05-.95,0-.24.11-1.43.09.06.01.22.02.44.01-.06.02-.19.03-.44.02.18.07.53.03.53.1h-.41c.31.02.63.04.49.1-.1,0-.22.01-.22,0,.05.1.84.15.54.26-.7-.01-.23.05-.83.07l.18.05.29-.03c0,.05.43.09.24.13l-.25-.03.12.09.23-.06c.31.04.76-.03.6.05-.06-.01,0,.05-.36.09h0c.19.02.39.04.24.08l-.79.02c.5.01.14.12.68.13h-.51s.41.02.41.02c-.13.03-.19.03-.45.03-.07.07.76-.04.44.05h-.16c-.17.08.26.15.06.23-.61.04-.15-.06-.66-.02.11.11.73.22.59.33l.07-.02c.86,0-.42.09-.02.14-.06-.01-.47,0-.38,0-.14.08.21.15.49.26h-.22c-.19.04-.11.11-.21.16.22,0,.18.04.5.01-1.25.17.68.27-.36.42,0-.02-.19-.03-.19-.02l.2.11c.37-.01.22-.02.51-.05.22.01.39.04.39.07-.25-.05-.6,0-.81.03h.35c-.66.06.75,0,.3.08h-.19c.1.03.36.05.3.08-.43.02-.2-.03-.56-.03.03.05.82.08.39.13l-.24-.06c-.5.05-.38.06-.46.09h.01s-.23.08-.23.08l.14-.02c1.12.04.21.11.94.18-.7-.06-.4,0-.89,0-.14.02-.29.05-.42.05.39.03-.31.06.27.11-.16,0-.01.04-.41.03.12.05.27-.01.47-.01.54.07-.65.17.09.27.3.09.84.1,1.1.18-.25.03-.57-.02-.57-.02-.23.05-.19.08,0,.12-.14,0-.25,0-.43.02.04.03.57.02.34.06l-.63-.03.58.12c-.27.01-.42-.02-.59-.04.12.05.25.12.68.13l.15-.03s-.37.01-.45,0c-.34-.04.15-.06.31-.06l.1.03c.92-.03-.15-.12-.09-.18l.67.02-.56-.06c.17-.01.55-.02.65,0,.33-.04-.24-.04.13-.08.06,0,.09,0,.12,0l-.2-.04c.14,0,.47,0,.38.02.39-.08-.5-.12,0-.15h.04c-.23-.1-.49,0-1.07-.08l1.21-.06h-.49s.06-.04.25-.03c-.34-.04-.21,0-.53-.01.45-.05-.21-.14.57-.16-.37-.02-.29.05-.55,0,.84-.02-.14-.06.24-.11.44.01.2.06.59,0-.74-.02.16-.09.02-.13-.58,0-.24-.09-.44-.15.2,0,.32-.13.53-.2h.1c-.59,0-.48-.07-.6-.12.36,0,.49,0,.65.03v-.05c-.19,0-.29-.02-.36-.05h.44c-.03-.05-.52-.1-.23-.19-.41,0-1.15.08-1.42,0,.22,0,.6-.02.7,0-.03,0-.19-.02-.09-.04l.38.02c.16-.04-.31-.01-.28-.04l.48-.02s-.13.03,0,.03c.06-.03.24-.07.48-.09-.18,0-.43,0-.47-.01-.02-.06.38-.03.55-.06-.22-.01,0-.05-.47-.04,0-.02.22-.03.35-.03-.21-.03-.06-.14-.57-.1h-.03s-.02,0-.02,0h0c-.47-.09.26-.21.06-.31h.16c-.18-.06-.11-.13-.45-.17,0-.02.29-.05.48-.05-.12-.04-.3-.04-.04-.12.28.04.25-.02.21.04.14-.06.39-.08-.05-.13.41.01.51-.06.39-.08l-.29.05c-.06-.03-.02-.06,0-.09h.54c.65-.13-1.11-.19-.02-.31-.38-.02-.26.07-.7.05.07-.06.84-.13.84-.15.3-.08-.79-.05-.58-.13-.19.02-.7.04-.88-.01.07-.06.8-.09.95-.06.02.01-.04.02-.11.02.07.02.15.03.36,0h-.19c.19-.03.17-.11.49-.1-.18-.03-.31,0-.41.02.28-.08,0-.11.19-.19-.1.01-.33.03-.33.02.23-.11-.36-.03-.45-.1.29-.05.7,0,.45-.07.19-.05.51-.02.66-.01-.37-.06.24-.13.31-.17l.15.03c-.09-.02-.09-.03-.09-.05l-.38.03c.07-.02.07-.04.23-.04-.25-.02-.64.03-.98,0,.19-.03-.21-.08.3-.1-.17.09.51-.02.59.05-.06-.01-.06-.03,0-.05.06,0,.1,0,.13,0,.45-.1-.57-.02-.57-.11.29,0,.54-.03.48-.05,0,.03-.48.03-.7,0,.22-.06-.17-.06-.14-.09l-.1.04c-.29,0-.25-.03-.34-.07.22-.01.15.03.25.01-.5-.03.52-.11.18-.16l.67-.05c-.37-.05.39-.08.08-.15-.38.03-.29.03-.67,0l.27.1-.56-.05s.24.06.18.09c-.31-.03-.22-.03-.54,0,.58-.07-.34-.08.05-.15l.95-.03c.42-.1-.49-.13-.26-.25l-.16.04c-.38,0-.06-.06-.21-.09.32,0,.43-.03.63-.05-.24.01.02-.08-.62-.07l.42-.06c.17-.09-.91-.07-.8-.15.35.01.57-.03.82.01,0-.03.06-.05-.16-.05.2-.02-.43-.06-.13-.1-.14,0-.47,0-.45-.03h.16c-.16,0-.22-.05-.57,0,.99-.12-.08-.23.77-.34-.11-.06-.21-.13-.24-.18.1,0,.16,0,.13,0,.29-.09-.91-.01-.59-.11.51-.06.28.03.47,0,1.04-.05-.15-.1.46-.18h.06c.36-.05-.4-.08-.33-.16h.16c-.54-.03-.72-.12-.87-.19.41,0,.22.02.63,0-.06-.03-.67.03-.79-.02.22-.03.42-.08.86-.1l.03.06c.57-.05-.02-.08.08-.11h.25c-.08-.09-.72-.07-.67-.17l-.19.02c-.63-.03.35-.06-.12-.09l.63-.04c-.15-.03-.62-.1-.74-.16.47.02.72.08,1,.12,0-.03-.05-.12-.37-.12.06.01.22.02.12.04-.5-.02-.75-.07-.74-.14,1.23-.03.3-.19,1.26-.28-.46-.1.19-.25.11-.39-.96.09-.03-.04-1.01,0-.06-.03-.05-.04.01-.05l.58-.12c.29-.03.22.02.44.01.07-.07.42-.05.68-.1-.35.02-.51,0-.37-.05l-.45.07c-.53-.08.82-.12.3-.2l.31.02c-.18-.05,0-.19-.79-.22.11-.01.38-.03.45-.02.11-.13-.85-.24-.37-.36h.24c-.07-.02-.45-.02-.21-.06.1,0,.24,0,.26,0-.08-.01-.43-.05-.28-.08l.27.02c.31-.13-.67-.16-.83-.26.71-.02.94-.13,1.05-.18h.1c.08-.15-.59-.22-.88-.34.77-.1.31-.28.74-.43-.13.02-.55.01-.63,0,.14-.03-.49-.07.16-.08h-.01c.64-.03.47-.09.48-.14l-.85.02c1.23-.17-.47-.32.64-.42-.21-.02-.21-.06-.42-.09h.46c.11-.1.17-.15.06-.25h.33s-1.32-.03-1.35-.08l.68-.03c-.01-.1.58-.22-.04-.31.1,0,.3,0,.32.01.02-.05.46-.2-.48-.16.61-.02.06-.11-.21-.16h.45c-.57-.03-.73-.03-.89-.1.06-.02.36-.02.25,0,.23-.06-.43-.03-.19-.1l.29.02c.03-.05-.12-.05-.46-.07-.18-.03.11-.1.52-.12-.25,0-.58-.02-.46-.06.15,0,.25,0,.3,0,.3-.1-.52-.12-.09-.19l.27-.02c0,.07-.03.13-.07.12.41,0,.49-.07,1.06-.03-.31-.04-.99-.1-.8-.17h.14s.05,0,.05,0c.04-.01,0-.02-.07-.03.07-.02.12-.03.12-.05.34-.01.18-.07.2-.1-.45.01-.38-.03-.75.01.03,0,.06,0,.07.02.01,0,.02,0,.05.01h-.04s.02.04.03.07c-.23-.02-.42-.04-.17-.08l-.73-.03c.63-.05.97-.13,1.36-.15-.26-.08-.17-.2-1.02-.24-.11-.02.24-.03.38-.05.08.01.07.03.19.04-.22-.05-.09-.15-.68-.15.27-.07.55.03.45-.06h.18c.95-.17-1.52-.25-.3-.45-.07.01-.11.02-.21.02.54-.22-.51-.44.34-.66.17-.06-.21-.06-.5-.1l.49-.02-.56-.06c-.41-.09,1.19-.16.41-.27l-.33.02c.06-.04-.19-.13.18-.12-.06,0-.34-.01-.17-.03h.25l-.44-.1c.18-.08,1.01.01,1.06-.1-.1-.04-.74-.12-.91-.1-.01.02-.16.04-.41.04l-.13-.04c-.75,0-1.52-.04-2.04.06l.46.07-.36.02-.02-.06c-.34.03-.04.05.17.08-.19,0-.33.01-.4.03l.72.06c-.29.01-.58-.03-.74.02.33.03.66-.03.88.02-.34.03-.62.02-.33.06-.19,0-.32,0-.4-.02.23.03.1.09.5.1-.42.03.11.11-.6.11.17,0,.56.06.59.09-.85-.05-.05.12-.96.1.77.04.34.15.77.22-.06,0-.18-.01-.15-.02-.06.04-.29.05-.44.08.63,0,.78.06,1.17.09-.61.06-.74-.02-1.33,0,.51,0,.51.08.94.06-.38.04-.18.03-.71.06.79,0,.13.04.62.06-.39.06-.74.02-.5.08-.24.03-.52-.02-.52-.02Zm1.39,1.45h0l-.03-.03.03.03Zm0,.12s.02-.03.02-.05c.16,0,.32,0,.31,0-.1,0-.19.03-.33.05Zm3.13-.32c.06.02-.02.03-.12.03,0,0-.02-.02-.06-.03h-.06.23Z"/>
        <polygon class="cls-2" points="54.56 22.04 54.53 22.03 54.43 22.05 54.57 22.05 54.56 22.04"/>
        <polygon class="cls-2" points="54.23 33.11 54.24 33.11 54.18 33.11 54.23 33.11"/>
        <polygon class="cls-2" points="51.2 24.1 51.31 24.1 51.21 24.09 51.2 24.1"/>
        <path class="cls-2" d="m52.69,33.81h-.12s.12,0,.12,0Z"/>
        <path class="cls-2" d="m52.59,34.1l-.16.04c.09-.02.14-.03.16-.04Z"/>
        <polygon class="cls-2" points="52.37 34.32 52.56 34.32 52.57 34.32 52.37 34.32"/>
        <path class="cls-2" d="m51.76,30.81s0,0-.02,0c-.09-.02-.05,0,.02,0Z"/>
        <path class="cls-2" d="m52.85,31.83l-.22-.03s-.04.03.22.03Z"/>
        <polygon class="cls-2" points="51.17 29.66 51.18 29.66 51.18 29.66 51.17 29.66"/>
        <path class="cls-2" d="m52.64,31.76c-.09.02-.07.04,0,.05.03-.02.08-.03,0-.05Z"/>
        <polygon class="cls-2" points="52.17 35.28 52.15 35.29 52.23 35.29 52.17 35.28"/>
        <path class="cls-2" d="m52.23,35.29h.05s0,0-.05,0Z"/>
        <path class="cls-2" d="m52.39,35.32l-.11-.02s-.02.02.11.02Z"/>
        <path class="cls-2" d="m52.38,34.99h-.17s.17,0,.17,0Z"/>
        <path class="cls-2" d="m52.33,34.9s-.35.05-.25.08h.13c-.24-.01.39-.06.12-.08Z"/>
        <path class="cls-2" d="m54.36,34.51l-.13.08c.17-.02.41-.03.45,0,.52-.1-.39.02-.32-.08Z"/>
        <path class="cls-2" d="m54.61,34.27c.08.04.25,0,.35,0-.16-.02-.2-.03-.35,0Z"/>
        <path class="cls-2" d="m54.58,32.57h.41c-.06-.03-.16,0-.41,0Z"/>
        <polygon class="cls-2" points="52.44 32.3 52.19 32.34 52.57 32.34 52.44 32.3"/>
        <polygon class="cls-2" points="55.38 32.04 55.44 32.05 55.28 32 55.38 32.04"/>
        <path class="cls-2" d="m55.14,29.19l-.51.03c.09.02.66,0,.51-.03Z"/>
        <path class="cls-2" d="m54.58,27.99c.25-.02.42-.06.17-.08-.03.03-.23.06-.17.08Z"/>
        <polygon class="cls-2" points="55.28 24.31 55.45 24.32 55.3 24.28 55.28 24.31"/>
      </g>
      <g>
        <path class="cls-2" d="m61.75,36.91c-.11-.08-.38-.24-.35-.19l.44.3-.1-.11Z"/>
        <path class="cls-2" d="m60.82,36.54c.2.16.56.44.98.7l-.72-.56c-.04-.05.17.06.33.16-.11-.08.12.03-.15-.16-.37-.19-.4-.17-.14.06-.1-.06-.22-.14-.3-.19Z"/>
        <path class="cls-2" d="m58.66,37.68l.05.04s-.04-.04-.05-.04Z"/>
        <path class="cls-2" d="m57.38,38.15s-.02-.06-.04-.11c0,.03.02.07.04.11Z"/>
        <path class="cls-2" d="m56.94,37.71l.03.03s-.04-.06-.03-.03Z"/>
        <path class="cls-2" d="m58.66,37.68l-.13-.11c.1.14.09.09.13.11Z"/>
        <path class="cls-2" d="m61.68,37.57s-.05-.06-.1-.1l.03.05.07.05Z"/>
        <polygon class="cls-2" points="58.81 36.98 58.82 36.97 58.68 36.81 58.81 36.98"/>
        <path class="cls-2" d="m59.05,36.62s.31.3.45.44c-.13-.13-.19-.2-.21-.23l-.24-.22Z"/>
        <path class="cls-2" d="m60.12,36.58l-.04-.05.04.05Z"/>
        <path class="cls-2" d="m58.52,37.11l-.11-.12.11.12Z"/>
        <path class="cls-2" d="m45.95,35.33l.08-.02s-.08.01-.08.02Z"/>
        <polygon class="cls-2" points="48.06 34.32 48.09 34.33 48.34 34.3 48.06 34.32"/>
        <path class="cls-2" d="m56.38,37.32h0s-.01-.03,0,0Z"/>
        <path class="cls-2" d="m53.3,37.96c-.04.41-.16.49-.18.95.03-.17.18-.68.18-.95Z"/>
        <path class="cls-2" d="m61.62,37.54s0,.02-.01.02c.02,0,.02,0,.01-.02Z"/>
        <polygon class="cls-2" points="53.12 38.91 53.12 38.91 53.11 38.95 53.12 38.91"/>
        <path class="cls-2" d="m55.7,37.82l.06.19-.06-.19Z"/>
        <path class="cls-2" d="m56.5,38.25l-.04-.05s.03.05.04.05Z"/>
        <path class="cls-2" d="m55.51,38.51s-.03-.09-.03-.03v.05c0-.06,0-.09.03-.02Z"/>
        <polygon class="cls-2" points="55.15 38.57 55.17 38.66 55.18 38.63 55.15 38.57"/>
        <path class="cls-2" d="m46.65,36.91l.37-.18c-.3.13-.43.1-.37.18Z"/>
        <path class="cls-2" d="m61.47,37.42c.09.07.13.1.15.13v-.03s-.15-.1-.15-.1Z"/>
        <path class="cls-2" d="m56.15,42.03l-.1-.05s.07.05.1.05Z"/>
        <path class="cls-2" d="m49.18,40.11l-.05.03s.01,0,.05-.03Z"/>
        <path class="cls-2" d="m55.8,42.09c-.04-.16-.07-.24-.09-.3v.12s.09.19.09.19Z"/>
        <path class="cls-2" d="m45.81,36.53c.02.09.57-.14.9-.23.19.04-.4.18-.68.31.17.01.7-.12.69-.07-.09.04-.12.06-.24.09.47-.1.09.18.67.03l-.13.06.75-.31s.37-.09.02.07c0-.02-.14.03-.26.07l.17-.03c-.5.24-.2.03-.58.18.2,0,.65-.11.53,0-.49.23-.22-.04-.64.22l.16-.16c-.77.4.03-.07-.79.34-.09.18.31.02.22.2l.69-.3c.56-.09-1.19.72-.47.52.34-.13.96-.44.68-.2l-.56.26c0,.14.82-.36.51-.06-.22.1-.22.02-.28.07-.39.3.34-.12.36-.07l-.47.28c.14.07.54,0,.7.05-.14.08-.3.15-.42.27.33,0,.15.35,0,.69l.42-.23s-.15.15-.24.19c-.1.16.24-.18.41-.27.05,0-.18.2-.31.27.4-.15.88-.29.57.13l-.12.08c-.08.2.79-.56.52-.21l-.07.05c0,.29.45.13.07.76.48-.48-.05.36.59-.34-.22.43-.36.54-.43.89,0,.07.43-.41.53-.46l-.31.39.38-.36-.33.49.12-.07s.1-.2.19-.31c.2-.13-.05.39-.19.6l.4-.23c-.12.16-.18.2-.28.29.38-.36-.28.44.06.12.05-.1.17-.24.23-.33-.13.28-.04.35.1.28l-.2.28c.08.15.36.02.5.11.03-.17.33-.68.4-.7l-.24.47c.18-.27.06-.2.3-.52.02.08-.25.55-.37.68l.15-.12-.22.38c.18-.27-.13.53.17.05l-.07.14c.15.08.3-.05.43-.02.19-.41.19-.3.38-.62.02.17-.02.53.1.54.16-.18.16-.35.29-.59-.15.38-.03.39-.19.65.15-.01.2-.01.46-.27.04-.16.04-.24.1-.37.05-.06,0,.18-.06.37l-.02.04c.35-.54.08,1.29.47.5l-.02.04.26-.4c.05.09-.11.29-.12.55.32-.63.25.16.48-.26-.11,1.22.39-.03.42.76l.03-.28c.07-.27.03.17.05.24.02-.22,0-.26.03-.41.35-.31.61.49.97.75.13.08.08-1.48.23-.8l-.04.53c.24-.63.51,0,.72-.55,0,.12,0,.28-.02.28.08.38.19,0,.16-.31.04.03.03.28.07.44.07.22.08-.51.14-.13.01.06,0,.13,0,.16.01-.19.16.03.08-.41.11.2.14-.22.24.03-.03-.5.19.22.09-.48.11.72.25.55.24.2.02.22.09.22.12.52.06-.02.1-.17.01-.53.29.83.08-.73.38.35.1-.43.19-.73.3-.93.19.7-.15.11.05.85.08-.33,0-.95.18-.83.07.08.07.31.1.43.06-.34.31-.03.31-.45.02.06.03.14.04.2.02-.03.1.08-.02-.23v.09c-.19-.44-.24-.98-.33-1.21.29.9.2.18.56,1.32,0-.06-.04-.22-.12-.43.05.05.1.17.17.41.03-.2-.14-.52-.05-.54l.13.39c-.07-.31-.15-.61-.04-.51.03.09.09.2.07.21.1-.09-.14-.84.1-.62.26.65.14.19.4.73v-.2s-.16-.25-.16-.25c.06-.02-.08-.44.05-.28l.07.24.06-.16-.16-.17c-.08-.3-.35-.68-.2-.56.02.06.06-.02.25.28h0c-.06-.18-.13-.37-.02-.26l.38.7c-.21-.46.06-.2-.17-.68l.24.44-.18-.37c.09.1.12.15.25.37.11.02-.4-.65-.15-.41.01.03.04.08.06.14.18.1.03-.32.22-.19.35.5,0,.17.31.58.07-.17-.16-.77.03-.72l-.06-.04c-.47-.71.32.29.14-.08.02.06.26.4.21.32.16.06.03-.28-.03-.58l.12.19c.16.12.18,0,.29.04-.12-.18-.08-.17-.29-.41.95.85-.19-.71.61-.04-.01.02.1.17.11.16l-.04-.24c-.26-.26-.17-.15-.38-.35-.14-.17-.23-.32-.21-.34.13.22.41.43.57.56l-.24-.26c.51.43-.51-.55-.14-.29l.13.14c-.05-.09-.2-.3-.14-.28.32.29.12.17.37.42.02-.06-.51-.65-.17-.38.07.1.05.12.12.22.4.31.31.22.39.25h-.01s.23.08.23.08l-.12-.08c-.77-.82-.06-.24-.54-.8.46.53.29.28.65.61.12.07.26.15.35.24-.26-.29.29.15-.11-.28.12.1.04-.02.34.24-.06-.13-.22-.17-.36-.3-.36-.41.63.25.14-.32-.17-.27-.58-.61-.74-.83.22.13.44.36.44.36.22.1.21.04.09-.11.11.09.21.15.36.24,0-.06-.45-.35-.23-.26l.49.4-.39-.45c.23.14.33.26.46.38-.07-.12-.12-.27-.47-.52l-.15-.06s.31.2.37.26c.26.23-.16-.03-.29-.12l-.06-.08c-.78-.49.05.19-.04.22l-.53-.41.42.38c-.15-.09-.46-.3-.52-.39-.29-.16.17.17-.15-.02-.05-.03-.07-.05-.09-.07l.13.15c-.11-.09-.38-.28-.29-.24-.35-.18.33.4-.09.11l-.03-.03c.12.22.38.31.78.73l-.98-.72.38.32s-.06-.01-.21-.14c.24.24.17.13.4.35-.38-.24.07.26-.54-.25.27.26.25.15.41.36-.65-.54.06.14-.26-.08-.31-.3-.11-.18-.43-.4.53.51-.18-.05-.1.08.43.4.12.23.22.41-.14-.14-.31-.13-.5-.25l-.07-.07c.41.43.28.4.33.51-.24-.26-.33-.37-.43-.49l-.03.03c.12.15.18.23.21.3l-.29-.33c-.02.05.27.46.03.28.27.31.81.82.93,1.08-.15-.16-.4-.45-.45-.54.01.03.1.16.03.1l-.22-.31c-.13-.1.19.25.15.24l-.33-.35s.1.08.03-.02c-.06-.02-.21-.14-.37-.32.12.14.28.33.29.37-.03.05-.26-.28-.39-.39.13.18-.04.02.26.39-.01,0-.16-.16-.24-.26.11.18-.06.13.28.5l.03.02v.02s0,0,0,0h0c.21.44-.32-.08-.27.13l-.09-.13c.06.18-.04.16.12.47-.01,0-.2-.22-.3-.38.03.12.13.28-.07.09-.12-.26-.15-.2-.08-.19-.12-.08-.26-.29-.08.1-.2-.35-.31-.41-.26-.3l.19.23c0,.06-.03.05-.07.03l-.27-.46c-.41-.51.4,1.05-.21.15.16.34.18.2.37.6-.08-.03-.49-.69-.51-.68-.19-.23.31.72.16.57.1.17.34.61.37.8-.08-.04-.42-.69-.46-.84,0-.02.03.03.06.09-.02-.07-.04-.15-.15-.33l.08.17c-.11-.16-.16-.12-.29-.4.05.18.13.29.19.37-.18-.22-.09.03-.22-.1.05.09.16.29.15.29-.18-.17.12.35.09.45-.15-.25-.27-.64-.23-.39-.12-.17-.21-.46-.26-.61.1.36-.19-.19-.24-.24l-.03-.15c.02.09,0,.09,0,.1l.16.35c-.04-.06-.05-.05-.11-.2.08.24.25.58.35.91-.09-.17,0,.22-.19-.25.13.13-.19-.47-.17-.57.01.06,0,.06-.04,0l-.04-.13c-.22-.4.18.55.11.56-.09-.27-.2-.51-.19-.44.03,0,.18.44.23.66-.12-.19,0,.17-.03.16l.06.09c.09.27.05.25.05.34-.08-.21-.02-.16-.06-.24.13.49-.25-.47-.19-.13l-.23-.63c.06.37-.17-.36-.13-.04.12.36.1.27.17.64v-.29s.12.55.12.55c.03,0,0-.25.03-.2.06.31.04.22.15.52-.21-.54.01.35-.15,0l-.27-.91c-.18-.39.01.5-.14.29l.07.15c.08.37-.04.07-.04.23-.07-.31-.12-.42-.18-.61.06.23-.07,0,.07.62l-.13-.4c-.11-.15.11.9,0,.81-.05-.34-.12-.56-.13-.81-.02,0-.06-.05-.01.16-.05-.19.01.43-.06.14.01.14.07.47.04.45l-.03-.15c.03.15,0,.22.08.56-.24-.96-.22.11-.41-.73-.04.11-.09.22-.14.25,0-.1-.02-.16,0-.13-.1-.29.05.92-.07.59-.09-.51.02-.28-.03-.47-.1-1.04-.08.15-.18-.46v-.06c-.05-.35-.06.4-.13.33v-.16c-.03.54-.11.72-.18.87.01-.41.03-.22,0-.63-.03.06.02.67-.04.78-.02-.22-.07-.42-.08-.86l.05-.02c-.03-.58-.07.02-.1-.08v-.25c-.07.08-.08.71-.17.67v.19c-.07.63-.03-.35-.09.11v-.64c-.02.15-.13.61-.2.72.07-.47.15-.7.2-.98-.03,0-.1.04-.14.35.02-.06.04-.22.05-.12-.07.5-.14.73-.21.72.12-1.23-.14-.32-.08-1.28-.16.44-.17-.22-.28-.16-.13.95-.04.02-.21.99-.04.06-.05.04-.04-.02l.03-.6c.04-.28.07-.2.11-.42-.04-.09.06-.42.08-.68-.07.35-.12.49-.12.35l-.05.45c-.19.49.12-.82-.07-.33l.09-.3c-.08.17-.12-.03-.37.71.02-.11.09-.37.12-.44-.04-.14-.45.74-.38.26l.09-.23c-.04.06-.18.42-.12.18.03-.09.09-.22.08-.24-.03.08-.19.38-.16.24l.11-.24c.03-.33-.37.56-.52.68.27-.65.3-.89.32-1.01l.04-.09c-.04-.12-.4.46-.63.66.31-.71-.03-.39.12-.8-.06.12-.29.47-.35.52.06-.13-.33.38.03-.17v.02c.33-.55.21-.43.19-.46l-.49.7c.64-1.06-.5.21.14-.71-.15.15-.17.13-.32.28l.29-.35c.03-.13.05-.19-.08-.15l.23-.23s-.93.94-.98.92l.46-.5c-.07-.05.32-.52-.18-.14.07-.07.22-.2.25-.21-.02-.03.26-.4-.43.23.46-.4,0-.1-.24.03l.35-.28c-.47.34-.59.43-.75.49.04-.05.27-.23.2-.15.16-.18-.36.23-.2.05l.24-.16c0-.06-.12.04-.4.22-.16.08.04-.15.37-.39-.2.14-.49.31-.41.22.12-.09.21-.14.25-.16.21-.23-.5.2-.16-.09l.22-.15c.02.05.03.1,0,.12.34-.23.38-.31.87-.6-.27.16-.88.47-.74.33l.12-.08.04-.02s0-.02-.07.01c.05-.05.09-.08.09-.1.29-.18.13-.13.14-.16-.39.23-.34.17-.65.38.03-.02.05-.02.07-.02l.05-.02-.03.02s.04.02.05.04c-.21.1-.38.18-.18.03l-.65.34c.53-.35.8-.57,1.13-.76-.25.06-.22-.05-1.01.28-.11.03.21-.13.33-.2.08-.02.08,0,.19-.05-.21.06-.12-.08-.67.16.22-.16.51-.2.39-.23l.17-.06c.83-.48-1.51.35-.43-.26-.07.04-.1.05-.19.09.45-.35-.62-.25.16-.67.15-.09-.22-.01-.51.02l.47-.12-.56.06c-.43,0,1.14-.38.36-.33l-.32.07c.05-.05-.21-.09.16-.15-.06,0-.34.04-.17,0l.25-.04-.45-.03c.17-.1,1-.13,1.04-.24-.1-.02-.75-.01-.92.02-.01.02-.15.06-.4.09l-.14-.02c-.75.08-1.52.13-2.02.31l.47.03-.36.08-.03-.07c-.33.09-.03.08.18.07-.19.03-.32.06-.39.09l.72-.02c-.29.06-.58.05-.73.13.33-.01.64-.14.87-.11-.33.09-.61.13-.31.13-.19.04-.31.05-.4.04.24,0,.11.1.51.05-.41.12.13.12-.57.25.17-.02.56-.03.6,0-.85.1-.01.16-.91.33.76-.11.38.12.81.12-.06,0-.18.03-.15.01-.05.07-.27.14-.4.22.61-.16.77-.12,1.16-.18-.57.23-.72.16-1.28.34.49-.14.52-.03.93-.17-.35.16-.16.09-.65.27.76-.22.15.01.62-.09-.35.19-.7.24-.44.25-.22.11-.51.13-.51.13Zm2.07,1.25h0s-.04-.01-.04-.01h.05Zm.09.13s0-.05-.02-.07c.13-.09.27-.17.27-.16-.09.05-.15.13-.24.22Zm2.52-1.89c.06-.02-.01.03-.09.08,0,0-.03,0-.06,0l-.05.03.2-.11Z"/>
        <polygon class="cls-2" points="49.96 36.3 49.93 36.31 49.85 36.37 49.98 36.3 49.96 36.3"/>
        <polygon class="cls-2" points="58.71 37.73 58.71 37.72 58.75 37.77 58.71 37.73"/>
        <polygon class="cls-2" points="48.89 40.17 48.96 40.08 48.88 40.15 48.89 40.17"/>
        <path class="cls-2" d="m60.28,38.43l.09.08-.09-.08Z"/>
        <path class="cls-2" d="m60.6,38.26l.15.08c-.08-.05-.12-.07-.15-.08Z"/>
        <polygon class="cls-2" points="60.94 38.21 60.8 38.08 60.8 38.07 60.94 38.21"/>
        <path class="cls-2" d="m57.53,41.1s0,.01,0,.02c0,.09,0,.05,0-.02Z"/>
        <path class="cls-2" d="m58.29,39.62l.06.21s.06.02-.06-.21Z"/>
        <polygon class="cls-2" points="56.16 42.03 56.15 42.02 56.15 42.03 56.16 42.03"/>
        <path class="cls-2" d="m58.3,39.84c.06.07.07.05.06-.02-.03-.02-.07-.05-.06.02Z"/>
        <polygon class="cls-2" points="61.85 37.38 61.87 37.38 61.81 37.34 61.85 37.38"/>
        <path class="cls-2" d="m61.81,37.34l-.04-.04s0,.01.04.04Z"/>
        <path class="cls-2" d="m61.7,37.21l.08.09s.03-.01-.08-.09Z"/>
        <path class="cls-2" d="m61.47,37.57l.13.1-.13-.1Z"/>
        <path class="cls-2" d="m61.44,37.68s.32.16.26.07l-.1-.08c.18.16-.37-.17-.16.01Z"/>
        <path class="cls-2" d="m59.6,36.73l.15.03c-.14-.1-.33-.24-.35-.29-.45-.27.31.24.2.26Z"/>
        <path class="cls-2" d="m59.26,36.73c-.03-.08-.19-.17-.26-.24.1.12.13.16.26.24Z"/>
        <path class="cls-2" d="m58.1,37.73l-.23-.34c.01.06.09.13.23.34Z"/>
        <polygon class="cls-2" points="58.96 39.71 59.13 39.91 58.95 39.58 58.96 39.71"/>
        <polygon class="cls-2" points="57.3 37.28 57.28 37.22 57.32 37.37 57.3 37.28"/>
        <path class="cls-2" d="m55.16,38.17l.08.5c0-.09-.07-.66-.08-.5Z"/>
        <path class="cls-2" d="m54.13,38.74c0-.26-.03-.42-.06-.17.02.03.04.23.06.17Z"/>
        <polygon class="cls-2" points="51.6 37.12 51.71 36.99 51.61 37.09 51.6 37.12"/>
      </g>
    </g>
  </g>
</svg>