<?xml version="1.0" encoding="UTF-8"?>
<svg id="_レイヤー_2" data-name="レイヤー 2" xmlns="http://www.w3.org/2000/svg" xmlns:xlink="http://www.w3.org/1999/xlink" viewBox="0 0 138.49 131.08">
  <defs>
    <style>
      .cls-1 {
        fill: url(#radial-gradient);
      }

      .cls-1, .cls-2 {
        fill-rule: evenodd;
      }

      .cls-1, .cls-2, .cls-3, .cls-4, .cls-5, .cls-6, .cls-7, .cls-8, .cls-9, .cls-10, .cls-11, .cls-12, .cls-13, .cls-14, .cls-15, .cls-16 {
        stroke-width: 0px;
      }

      .cls-2 {
        fill: #40220f;
      }

      .cls-3 {
        fill: #2a85c8;
      }

      .cls-4 {
        fill: #35a17a;
      }

      .cls-5 {
        fill: #0c436e;
      }

      .cls-6 {
        fill: #cc3144;
      }

      .cls-7 {
        fill: #e1e2e0;
      }

      .cls-8 {
        fill: #e4007f;
      }

      .cls-9 {
        fill: #fde2aa;
      }

      .cls-10 {
        fill: #fbd7b6;
      }

      .cls-11 {
        fill: #f08651;
      }

      .cls-12 {
        fill: #ea5504;
      }

      .cls-13 {
        fill: #eb6458;
      }

      .cls-14 {
        fill: #f5a53d;
      }

      .cls-15 {
        fill: #006eb9;
      }

      .cls-16 {
        fill: #6a3906;
      }
    </style>
    <radialGradient id="radial-gradient" cx="-879.29" cy="34.11" fx="-879.29" fy="34.11" r="5.17" gradientTransform="translate(-803.99 -42.45) rotate(-175.39) scale(1 -1)" gradientUnits="userSpaceOnUse">
      <stop offset="0" stop-color="#f19ea8"/>
      <stop offset="1" stop-color="#f6c4bc"/>
    </radialGradient>
  </defs>
  <g id="_レイヤー_3" data-name="レイヤー 3">
    <g>
      <path class="cls-16" d="m87.69,21.11s11.8,13.85,2.16,20.75c-6.69,4.79-8.67-14.37-8.67-14.37l6.5-6.39Z"/>
      <path class="cls-16" d="m39.4,4.35C35.41.21,29.78,0,28.7,0c-.15,0-.26,0-.34,0-.13,0-.33,0-.56,0-2.2.01-8.9.05-15.02,5.08-2.08,1.71-4.24,2.57-6.43,2.57h0c-2.95,0-4.95-1.61-4.97-1.62l-1.37-1.12.51,1.69c1.17,3.91,4.4,9.46,13.21,13.68,1.08.52,3.75,1.4,6.85,1.4,4.2,0,7.88-1.6,10.63-4.63,1.64-1.8,3.38-2.71,5.2-2.71,3.42,0,6.06,3.23,6.08,3.26l.9,1.12.06-1.44c.21-5.57-1.15-9.92-4.05-12.94Z"/>
      <g>
        <path class="cls-10" d="m74.81,118.36c-.15-.02-.3-.04-.43-.05-.83-.11-1.55-.21-2.49.25-1.16.31-1.85,1.11-1.99,2.31-.1.86.1,1.73.22,2.26.03.13.06.24.07.3v.04c.04.23.04.56.04.88v.27c-.02,1.51-.05,4.05,2.23,4.28,3.2.33,8.12-.02,12.68-.54l-.2-9.9c-3.63.31-7.24.24-10.13-.1Z"/>
        <g>
          <path class="cls-7" d="m100.8,119.14c.11-.93.06-1.24.02-1.37-.15-.72-.53-1.28-1.13-1.61-1.45-.82-3.76-.17-5,.3-2.89,1.08-6.33,1.71-9.75,2l.2,9.9c4.91-.55,9.41-1.27,10.87-1.52.19-.02.36-.06.52-.11.27-.1.54-.2.8-.31,2.69-1.54,3.38-6.63,3.46-7.28Z"/>
          <path class="cls-7" d="m96.7,116.21s2.73-1.82,4.79-3.88c2.05-2.05,7.76-9.58,11.4-3.88,3.65,5.7-2.74,18.7-8.89,19.62-6.16.91-7.45-1.34-7.45-1.34l.16-10.52Z"/>
        </g>
      </g>
      <path class="cls-5" d="m45.61,104.58s-6.05,10.9-2.05,19.16c5.13,10.61,23.72,7.07,32.16,5.47l-2.74-14.14-27.37-10.49Z"/>
      <path class="cls-3" d="m46.63,72.01s-10.48,23.22-12.3,45.58c0,0,11.75,2.4,24.63,2.09,11.29-.27,26.57-3.92,26.57-3.92,0,0-11.63-30.56-16.87-43.33l-22.02-.42Z"/>
      <path class="cls-15" d="m78.33,103.75l-12.36.12s.34,9.31,6.13,8.67c5.79-.66,6.23-8.78,6.23-8.78Z"/>
      <polygon class="cls-14" points="105.96 80.76 130.22 92.61 138.49 53.78 113.95 41.89 105.96 80.76"/>
      <polygon class="cls-9" points="137.41 54.35 114.92 43.28 112.7 53.26 137.41 54.35"/>
      <path class="cls-10" d="m95.2,77.63s.45-4.44,2.67-4.86c2.07-.4,2.05.94,2.05.94l-1.4,2.71-3.32,1.22Z"/>
      <polygon class="cls-14" points="95.31 89.39 128.91 93.21 138.11 54.48 103.3 50.52 95.31 89.39"/>
      <g>
        <path class="cls-13" d="m119.23,84.08c1.97-.7,9.69-5.22,7.41-12.82-2.28-7.6-6.94-9.12-11.88-8.27-4.94.85-10.26,6.27-9.88,13.4.38,7.12,9.31,9.5,14.35,7.69Z"/>
        <path class="cls-6" d="m118.09,66.31s3.9-4.84.95-7.5l-1.14.38s1.62,4.85-.38,6.94l.57.19Z"/>
        <path class="cls-6" d="m120.84,65.84s-1.52,1.81-3.51,1.52c-2-.28-2.38-2.47-2.38-2.47l-.57.29s-.29,3.42,2.75,3.13c3.04-.28,4.09-1.61,4.09-1.61l-.38-.86Z"/>
        <path class="cls-4" d="m120.75,60.52s.95-2.47,4.18-2c3.23.47,3.89,1.9,3.89,1.9,0,0-1.9,2.95-4.75,2.38-2.85-.57-3.32-2.28-3.32-2.28Z"/>
      </g>
      <path class="cls-10" d="m95.2,77.63c-.55.42-1.18.62-1.58.97-.45.4-1.02,1.56-1.15,2.05-.24.93-.25,2.28.11,2.97.14.27.62.95.86,1.18.19.19,1.21.86,1.36.95.72.44,3.45.67,3.72.67,1.05.03,2.18-.15,3.19-.52,0,0,.01,0,.02,0,.72-.15,3.53-1.12,3.57-1.14,1.5-.34,3.43-.94,5.08-1.55.92-.34,2.23-.88,3.1-1.61,1.22-1.02.07-1.87-1.02-1.86-.39,0-1.03.23-1.6.3-.54.07-2.42.77-2.89.45.23-.22.69-.27,1.15-.46,1.11-.46,3.27-1.61,3.82-2.17.62-.63.84-2.21-.51-1.73h0s-2.5.79-2.89.84c-.02,0-1.84.75-2.45.67.49-.66,1.64-1.18,2.25-1.71.56-.49,1.07-1.02,1.63-1.46.59-.46,1.85-1.89.84-2.06-1.11-.19-3.39.97-4.8,1.88-.41.26-1.49,1.08-1.97,1.33-1.08.53,2.57-2.62,3.11-3.61.23-.41.62-1.24.26-1.71-.29-.37-1.49-.12-2.05.13-.83.37-1.59,1.14-2.31,1.84-.81.78-1.6,1.28-2.31,1.83,0,0-3.45,1.19-6.51,3.51Z"/>
      <path class="cls-10" d="m33.01,39.34c3.26-7.65,9.24-11.76,14.66-14.76,3.81-2.11,17.21-2.43,22.39-2.01,1.68.14,3.2.43,4.54.86,10.62,3.46,17.04,11.96,18.56,24.58.35,2.92.69,7.3.31,11.64l-.02.13c-4.76,18.56-22.5,18.6-27.82,18.17h0c-3.14-.25-13.62-1.73-16.37-2.72-8.2-2.94-14.64-9.48-17.23-17.48-1.94-5.98-1.59-12.35.99-18.42Z"/>
      <path class="cls-16" d="m88.54,29.66s3.06-2.86.17-7.18c-4.79-7.19-13.93-10.31-23.72-10.95-11.34-.74-29.02,5.42-36.32,17.28-7.3,11.86-4.27,23.55-.63,29.94,3.65,6.38,9.35,8.44,9.35,8.44l51.14-37.52Z"/>
      <path class="cls-2" d="m77.63,55.51c-.1,1.33.89,2.5,2.22,2.61,1.33.11,2.5-.89,2.61-2.22.11-1.34-.89-2.5-2.22-2.61-1.33-.11-2.5.89-2.61,2.22Z"/>
      <g id="XwkioF">
        <path class="cls-1" d="m74.72,64.19c-3.44,6.64-12.49,1.73-9.69-3.8.47-.92,1.2-1.82,1.91-2.31,3.44-2.38,7.18.1,7.87,3.25.19.86.2,2.01-.08,2.86"/>
      </g>
      <path class="cls-10" d="m90.95,60.23s5.1-1.48,5.4,1.12c.3,2.6-6.25,5.16-6.25,5.16l.85-6.28Z"/>
      <path class="cls-10" d="m48.7,48.84c.67-1.73,2.08-3.19,3.15-4.09,1.52-1.3,3.31-1.91,5.17-1.76,2.45.2,4.86,1.72,6.45,4.06,1.71,2.53,2.21,5.6,1.33,8.43-1.16,3.32-3.78,5.06-7.18,4.78-3.16-.26-6.43-2.26-8.15-4.99-1.29-2.06-1.57-4.35-.76-6.42Z"/>
      <polygon class="cls-3" points="67.28 78.81 94.87 76.53 94.64 88.16 67.73 94.54 67.28 78.81"/>
      <path class="cls-8" d="m42.93,16.98c.47.23.97.47,1.34.62.8.33,1.63.62,2.49.3.71-.27,1.06-1.11.76-1.92-.26-.68-.81-1.15-1.59-1.14h0c.59-.51.69-1.23.43-1.9-.3-.79-1.12-1.21-1.84-.93-.86.33-1.29,1.11-1.66,1.88-.17.36-.4.87-.59,1.35-.47-.23-.97-.47-1.34-.62-.79-.33-1.63-.62-2.49-.3-.72.27-1.07,1.11-.76,1.92.26.68.81,1.15,1.59,1.14v.02c-.58.49-.68,1.22-.43,1.89.3.79,1.12,1.21,1.85.94.86-.33,1.29-1.11,1.66-1.88.17-.35.4-.87.59-1.35Z"/>
      <path class="cls-16" d="m89.85,29.55s-.46,9.81-11.4,11.86c-10.95,2.05-15.51,8.43-16.19,10.95-.68,2.51-3.65-7.3-2.51-13.91,1.14-6.61,30.1-8.9,30.1-8.9Z"/>
      <polygon class="cls-11" points="137.13 54.37 128.91 93.21 130.22 92.61 138.49 53.78 137.13 54.37"/>
      <path class="cls-12" d="m80.02,68.48c-1.29,1.96-1.28,4.24.01,5.09,1.29.85,3.39-.05,4.67-2.01,1.28-1.96,1.27-4.23-.02-5.08-1.29-.85-3.38.05-4.67,2.01Z"/>
    </g>
  </g>
</svg>