<?xml version="1.0" encoding="UTF-8"?>
<svg id="_レイヤー_2" data-name="レイヤー 2" xmlns="http://www.w3.org/2000/svg" xmlns:xlink="http://www.w3.org/1999/xlink" viewBox="0 0 143.46 126.64">
  <defs>
    <style>
      .cls-1 {
        fill: url(#radial-gradient);
      }

      .cls-1, .cls-2, .cls-3 {
        fill-rule: evenodd;
      }

      .cls-1, .cls-2, .cls-3, .cls-4, .cls-5, .cls-6, .cls-7, .cls-8 {
        stroke-width: 0px;
      }

      .cls-2 {
        fill: url(#radial-gradient-2);
      }

      .cls-3, .cls-4 {
        fill: #40220f;
      }

      .cls-5 {
        fill: #e4007f;
      }

      .cls-6 {
        fill: #fbd7b6;
      }

      .cls-7 {
        fill: #ea5504;
      }

      .cls-8 {
        fill: #6a3906;
      }
    </style>
    <radialGradient id="radial-gradient" cx="44.39" cy="104.76" fx="44.39" fy="104.76" r="8.12" gradientUnits="userSpaceOnUse">
      <stop offset="0" stop-color="#f19ea8"/>
      <stop offset="1" stop-color="#f6c4bc"/>
    </radialGradient>
    <radialGradient id="radial-gradient-2" cx="105.08" fx="105.08" r="8.12" xlink:href="#radial-gradient"/>
  </defs>
  <g id="_レイヤー_3" data-name="レイヤー 3">
    <g>
      <path class="cls-6" d="m30.18,79.24c-2.78-3.46-6.74-5.53-10.6-5.53-2.93,0-5.65,1.18-7.86,3.41-1.55,1.56-3.58,4.01-4.41,6.8-1,3.36-.29,6.89,2,9.96,3.03,4.06,8.41,6.79,13.38,6.79,5.34,0,9.21-3.06,10.63-8.43,1-4.51-.15-9.25-3.15-13Z"/>
      <path class="cls-6" d="m128.25,70.68c-5.19-12.39-16.3-19.57-26.48-24.95-7.15-3.78-18.84-6.33-29.09-6.33-3.32,0-6.37.26-9.07.77-21.45,4.07-35.42,16.57-40.4,36.13-1.15,4.52-2.51,11.34-2.46,18.18l.02.21c6.42,29.64,41.29,31.95,51.82,31.95h0c6.21,0,12.44-.63,18.01-1.83,16.6-3.58,30.31-12.99,36.67-25.18,4.75-9.11,5.09-19.12.98-28.94Z"/>
      <path class="cls-6" d="m143.02,83.92c-.83-2.79-2.85-5.24-4.41-6.8-2.22-2.23-4.94-3.41-7.87-3.41-3.85,0-7.82,2.07-10.6,5.53-3,3.75-4.15,8.48-3.14,13.03,1.41,5.33,5.28,8.39,10.62,8.39,4.98,0,10.35-2.73,13.38-6.79,2.29-3.07,3-6.6,2-9.96Z"/>
      <path class="cls-3" d="m60.2,90c0,2.1-1.7,3.8-3.8,3.8s-3.8-1.7-3.8-3.8,1.7-3.8,3.8-3.8,3.8,1.7,3.8,3.8Z"/>
      <path class="cls-3" d="m97.08,90c0,2.1-1.71,3.8-3.8,3.8s-3.8-1.7-3.8-3.8,1.71-3.8,3.8-3.8,3.8,1.7,3.8,3.8Z"/>
      <g id="Iv6yYT">
        <path class="cls-4" d="m69.45,100.5c-.19,0-.38-.06-.53-.19-.35-.29-.4-.81-.1-1.16l.38-.46c2.12-2.56,4.52-5.46,7.62-4.35,1.4.5,1.98,1.59,2.6,2.74.34.64.7,1.31,1.24,1.98.28.36.23.88-.13,1.16-.36.28-.88.22-1.16-.13-.63-.79-1.04-1.56-1.41-2.23-.59-1.1-.93-1.69-1.7-1.97-1.88-.66-3.51,1.09-5.79,3.85l-.39.46c-.16.19-.4.3-.63.3Z"/>
      </g>
      <path class="cls-7" d="m88.38,104.54c-.08-.17-.35-.55-.98-.55-.52,0-1.2.26-2.15.63-1.02.39-5.17,1.27-6.14,1.59-.85.28-1.8.6-3.02.8-1.36.23-2.61.35-3.8.35-3.22,0-6.21-.84-9.99-2.79-.55-.29-.97-.42-1.31-.42-.39,0-.74.17-.93.48-.38.57-.15,1.37.33,2.48l.92,1.38c3.16,4.67,5.89,8.7,11.17,9.37.46.06.92.09,1.36.09,5.92,0,9.62-5.15,12.6-9.29l.65-.91c1.3-1.79,1.61-2.57,1.29-3.2Z"/>
      <g id="XwkioF">
        <path class="cls-1" d="m36.36,107.15c4.55,10.83,19.32,4.28,15.65-4.72-.61-1.51-1.66-3-2.7-3.85-5.09-4.16-11.25-.75-12.72,4.09-.41,1.33-.56,3.12-.24,4.48"/>
      </g>
      <g id="XwkioF-2" data-name="XwkioF">
        <path class="cls-2" d="m97.05,107.15c4.55,10.83,19.32,4.28,15.65-4.72-.61-1.51-1.66-3-2.7-3.85-5.08-4.16-11.24-.75-12.72,4.09-.41,1.33-.56,3.12-.23,4.48"/>
      </g>
      <path class="cls-8" d="m133.27,68.01c-1.24-17.53-18.24-35.27-33.34-40.84-.08-.03-.22-.09-.41-.17-1.9-.81-7.68-3.25-15.45-3.25h-.16c-20.48.09-47.36,8.6-58.01,27.06-5.84,10.13-8.02,23.4-5.99,36.4l.04.24.14.21c.58.88,1.26,1.06,1.74,1.06h0c1.38,0,2.36-1.48,3.49-3.2.65-1,1.4-2.13,2.04-2.61,4.44-3.35,9.01-3.73,13.84-4.13,1.61-.13,3.28-.27,4.94-.53,11.11-1.7,25.44-5.96,32.23-16.56,2.32,3.73,4.76,7.19,8.92,9.73,1.5.92,3.2,1.48,4.99,2.07.83.28,1.69.56,2.54.89,6.76,2.59,21.23,5.41,22.23,5.47,3.79.22,7.92,3.2,11.02,7.97.16.25.33.55.51.86.78,1.37,1.46,2.56,2.6,2.56,1.65,0,1.87-2.28,1.97-3.38l.13-1.37c.41-4.11.76-7.65,0-18.48Z"/>
      <path class="cls-8" d="m61.85,6.84C55.58.33,46.76,0,45.06,0c-.23,0-.41,0-.54.01-.21.01-.51.01-.88.01-3.46.02-13.97.08-23.58,7.97-3.26,2.68-6.66,4.04-10.1,4.04h0c-4.64,0-7.79-2.53-7.81-2.55l-2.14-1.77.79,2.66c1.83,6.15,6.91,14.86,20.74,21.48,1.7.81,5.88,2.19,10.76,2.19,6.6,0,12.37-2.51,16.69-7.26,2.56-2.82,5.31-4.25,8.17-4.25,5.37,0,9.51,5.06,9.55,5.11l1.42,1.76.08-2.26c.33-8.75-1.81-15.58-6.36-20.31Z"/>
      <path class="cls-5" d="m67.39,26.67c.73.35,1.53.73,2.1.97,1.25.52,2.56.98,3.91.47,1.12-.43,1.68-1.75,1.19-3.02-.4-1.06-1.28-1.81-2.49-1.79v-.02c.91-.78,1.07-1.91.67-2.96-.48-1.25-1.76-1.91-2.9-1.47-1.35.51-2.02,1.73-2.61,2.95-.27.56-.62,1.37-.93,2.12-.73-.36-1.53-.73-2.1-.97-1.25-.52-2.56-.98-3.91-.47-1.12.43-1.67,1.75-1.19,3.02.41,1.06,1.28,1.81,2.49,1.79v.02c-.91.78-1.07,1.91-.67,2.96.47,1.25,1.76,1.91,2.9,1.47,1.35-.51,2.02-1.73,2.61-2.95.27-.56.62-1.37.93-2.12Z"/>
    </g>
  </g>
</svg>