<?xml version="1.0" encoding="UTF-8"?>
<svg id="_レイヤー_2" data-name="レイヤー 2" xmlns="http://www.w3.org/2000/svg" viewBox="0 0 282.92 431.39">
  <defs>
    <style>
      .cls-1 {
        fill: none;
        stroke: #ff5d0d;
        stroke-linecap: round;
        stroke-miterlimit: 10;
        stroke-width: 15px;
      }

      .cls-2 {
        fill: #ffda44;
      }

      .cls-3 {
        fill: #ffbcab;
      }

      .cls-4 {
        fill: #acabb1;
      }

      .cls-5 {
        fill: #d8d7da;
      }

      .cls-6 {
        fill: #c6c5ca;
      }
    </style>
  </defs>
  <g id="_レイヤー_1-2" data-name="レイヤー 1">
    <path class="cls-2" d="m282.92,137.9C282.92,61.74,219.59,0,141.46,0S0,61.74,0,137.9c0,51.66,29.15,96.68,72.29,120.3l-.1.18c5.05,4.21,15.54,12.97,15.54,32.63v86.93c0,5.66,4.66,10.25,10.4,10.25h6.21c-.03.7-.05,1.4-.05,2.11,0,22.7,16.5,41.1,36.86,41.1s36.86-18.4,36.86-41.1c0-.71-.02-1.41-.05-2.11h3.9c5.74,0,10.4-4.59,10.4-10.25v-85.06c0-19.4,6.23-23.63,13.23-32h0c45.94-22.78,77.42-69.3,77.42-122.99Z"/>
    <ellipse class="cls-3" cx="141.15" cy="392.82" rx="36.86" ry="38.57"/>
    <path class="cls-4" d="m87.31,354.24h105.3v23.34c0,6.17-5.01,11.18-11.18,11.18h-82.94c-6.17,0-11.18-5.01-11.18-11.18v-23.34h0Z"/>
    <rect class="cls-6" x="87.31" y="319.72" width="105.3" height="34.52"/>
    <rect class="cls-5" x="87.31" y="285.2" width="105.3" height="34.52"/>
    <polyline class="cls-1" points="214.83 107.82 116.84 206.65 67.01 154.28"/>
  </g>
</svg>