<?xml version="1.0" encoding="UTF-8"?>
<svg id="_レイヤー_2" data-name="レイヤー 2" xmlns="http://www.w3.org/2000/svg" viewBox="0 0 459.98 524.7">
  <defs>
    <style>
      .cls-1 {
        stroke: #ff5d0d;
      }

      .cls-1, .cls-2 {
        fill: none;
        stroke-linecap: round;
        stroke-miterlimit: 10;
        stroke-width: 15px;
      }

      .cls-2 {
        stroke: #1369ff;
      }

      .cls-3 {
        fill: #ffda44;
      }

      .cls-4 {
        fill: #ffbcab;
      }

      .cls-5 {
        fill: #acabb1;
      }

      .cls-6 {
        fill: #d8d7da;
      }

      .cls-7 {
        fill: #c6c5ca;
      }
    </style>
  </defs>
  <g id="_レイヤー_1-2" data-name="レイヤー 1">
    <path class="cls-3" d="m370.15,231.2c0-76.16-63.33-137.9-141.46-137.9s-141.46,61.74-141.46,137.9c0,51.66,29.15,96.68,72.29,120.3l-.1.18c5.05,4.21,15.54,12.97,15.54,32.63v86.93c0,5.66,4.66,10.25,10.4,10.25h6.21c-.03.7-.05,1.4-.05,2.11,0,22.7,16.5,41.1,36.86,41.1s36.86-18.4,36.86-41.1c0-.71-.02-1.41-.05-2.11h3.9c5.74,0,10.4-4.59,10.4-10.25v-85.06c0-19.4,6.23-23.63,13.23-32h0c45.94-22.78,77.42-69.3,77.42-122.99Z"/>
    <ellipse class="cls-4" cx="228.38" cy="486.12" rx="36.86" ry="38.57"/>
    <path class="cls-5" d="m174.53,447.55h105.3v23.34c0,6.17-5.01,11.18-11.18,11.18h-82.94c-6.17,0-11.18-5.01-11.18-11.18v-23.34h0Z"/>
    <rect class="cls-7" x="174.53" y="413.03" width="105.3" height="34.52"/>
    <rect class="cls-6" x="174.53" y="378.51" width="105.3" height="34.52"/>
    <line class="cls-2" x1="37.37" y1="120.47" x2="80.02" y2="144.54"/>
    <line class="cls-2" x1="430.08" y1="113.97" x2="379.04" y2="145.38"/>
    <line class="cls-2" x1="228.14" y1="7.5" x2="228.14" y2="59.22"/>
    <line class="cls-2" x1="116.68" y1="33.36" x2="143.37" y2="81.18"/>
    <line class="cls-2" x1="342.96" y1="34.68" x2="316.53" y2="80.34"/>
    <line class="cls-2" x1="7.5" y1="229.85" x2="56.37" y2="229.85"/>
    <line class="cls-2" x1="400.16" y1="229.85" x2="452.48" y2="229.85"/>
    <line class="cls-2" x1="35.54" y1="342.79" x2="79.18" y2="317.69"/>
    <line class="cls-2" x1="375.66" y1="314.32" x2="419.58" y2="342.17"/>
    <polyline class="cls-1" points="302.05 201.13 204.07 299.96 154.23 247.59"/>
  </g>
</svg>