<svg width="350" height="386" viewBox="0 0 350 386" fill="none" xmlns="http://www.w3.org/2000/svg">
<path fill-rule="evenodd" clip-rule="evenodd" d="M35.097 215.271C40.2261 262.852 41.8726 315.003 79.7856 344.207C120.808 375.805 177.222 379.074 226.296 362.547C275.516 345.97 317.794 309.018 332.324 259.156C345.985 212.28 322.664 165.484 295.556 124.875C270.032 86.6376 235.589 55.1371 190.42 46.5726C141.185 37.2371 85.0898 41.6655 51.1465 78.5318C18.4421 114.052 29.9221 167.266 35.097 215.271Z" fill="#30D0AA"/>
<path d="M107.263 169.79C98.2934 169.79 91.0134 166.15 85.4234 159C80.0934 152.11 77.4934 143.4 77.6234 132.87C77.8834 122.73 80.2234 113.63 85.0334 105.44C88.5434 99.46 92.4434 95.3 96.8634 92.83C99.9834 90.88 104.013 89.71 109.213 89.19C116.233 88.67 122.343 90.49 127.283 94.65C136.643 102.45 141.323 113.11 141.323 126.5C141.323 136.64 139.113 145.35 134.953 152.37C129.883 161.08 123.903 166.41 117.013 168.36C113.633 169.27 110.383 169.79 107.263 169.79ZM98.0334 115.19C95.5634 121.3 94.3934 127.54 94.3934 133.78C94.3934 139.76 95.3034 144.57 97.2534 148.34C99.5934 152.63 102.973 154.84 107.133 154.84C116.233 154.84 121.563 146.65 123.123 130.14C123.253 127.54 123.383 125.07 123.383 122.99C123.383 116.1 121.953 110.9 119.223 107.39C117.013 104.66 114.283 103.23 111.033 103.23C105.573 103.23 101.153 107.26 98.0334 115.19ZM164.873 104.92C162.923 99.46 162.013 96.73 162.143 96.6C168.643 96.34 173.063 95.43 175.403 94C181.773 89.97 185.933 87.24 188.013 85.55L189.313 81.78L207.773 87.11C205.953 92.57 205.043 95.82 205.043 96.47C204.263 115.58 202.833 135.86 200.623 157.31C200.623 158.09 200.103 160.43 199.193 164.46C198.153 168.88 197.503 171.09 197.243 171.22C195.553 170.96 190.353 169.14 180.343 165.63C182.943 158.22 184.113 154.58 184.113 154.71C186.973 139.11 188.533 127.67 188.663 120.39L189.183 101.15C180.083 106.35 173.193 110.25 168.513 112.72C168.123 112.85 166.953 110.25 164.873 104.92Z" fill="white"/>
</svg>
