<svg width="405" height="421" viewBox="0 0 405 421" fill="none" xmlns="http://www.w3.org/2000/svg">
<path fill-rule="evenodd" clip-rule="evenodd" d="M195.918 0.264692C237.689 3.32186 267.134 38.8503 300.433 64.2198C332.788 88.8693 369.82 109.042 387.036 145.867C405.589 185.554 410.524 231.492 398.297 273.553C385.836 316.417 355.745 351.642 319.589 377.878C283.433 404.115 240.395 424.798 195.918 420.41C153.247 416.2 119.503 385.013 88.8117 355.109C61.9328 328.919 46.6209 295.645 32.293 260.978C16.6372 223.099 -6.94966 184.946 1.9476 144.941C11.1562 103.537 45.6208 73.4401 79.6475 48.0607C114.07 22.3861 153.07 -2.87132 195.918 0.264692Z" fill="#C53232"/>
</svg>
