<svg width="359" height="407" viewBox="0 0 359 407" fill="none" xmlns="http://www.w3.org/2000/svg">
<path fill-rule="evenodd" clip-rule="evenodd" d="M168.628 404.06C110.388 393.939 90.2814 332.92 57.5633 287.832C30.5966 250.671 -3.20134 216.468 0.243559 172.018C4.44164 117.85 26.7907 62.8651 77.235 34.0054C134.137 1.45146 212.296 -15.3625 268.049 18.804C320.205 50.7661 297 121.57 311.208 177.389C325.547 233.719 380.992 288.392 349.44 338.553C315.491 392.525 235.653 415.707 168.628 404.06Z" fill="#43BFBF"/>
<path d="M119.33 145.79C110.36 145.79 103.08 142.15 97.4898 135C92.1598 128.11 89.5598 119.4 89.6898 108.87C89.9498 98.73 92.2898 89.63 97.0998 81.44C100.61 75.46 104.51 71.3 108.93 68.83C112.05 66.88 116.08 65.71 121.28 65.19C128.3 64.67 134.41 66.49 139.35 70.65C148.71 78.45 153.39 89.11 153.39 102.5C153.39 112.64 151.18 121.35 147.02 128.37C141.95 137.08 135.97 142.41 129.08 144.36C125.7 145.27 122.45 145.79 119.33 145.79ZM110.1 91.19C107.63 97.3 106.46 103.54 106.46 109.78C106.46 115.76 107.37 120.57 109.32 124.34C111.66 128.63 115.04 130.84 119.2 130.84C128.3 130.84 133.63 122.65 135.19 106.14C135.32 103.54 135.45 101.07 135.45 98.99C135.45 92.1 134.02 86.9 131.29 83.39C129.08 80.66 126.35 79.23 123.1 79.23C117.64 79.23 113.22 83.26 110.1 91.19Z" fill="white"/>
<path d="M187.339 84.69L181.749 68.05C193.189 64.54 202.679 62.72 210.349 62.72C218.149 62.72 224.779 64.41 230.239 67.79C237.259 72.21 240.769 78.19 240.769 85.99C240.769 90.41 239.599 94.18 237.519 98.6C234.269 104.58 228.809 110.04 222.829 115.24C217.759 119.53 208.919 127.72 208.919 127.72L224.779 126.81C229.329 126.16 233.229 125.38 236.609 124.6L238.559 141.89L193.059 142.41L183.439 144.1C184.089 144.23 180.449 127.2 180.449 127.2C180.709 127.72 182.789 127.33 186.559 126.16C189.419 125.12 199.689 117.19 208.399 109.65C217.889 101.33 223.479 93.4 223.479 86.77C223.479 85.73 223.349 84.82 223.089 83.91C221.789 78.58 217.629 75.98 210.999 75.98C207.489 75.98 203.979 76.5 200.339 77.8C196.179 79.36 191.759 81.7 187.339 84.69Z" fill="white"/>
</svg>
